ISO-10303-21;
HEADER;
/* Generated by software containing ST-Developer
 * from STEP Tools, Inc. (www.steptools.com) 
 */

FILE_DESCRIPTION(
/* description */ (''),
/* implementation_level */ '2;1');

FILE_NAME(
/* name */ 
'SL1-petg.stp',
/* time_stamp */ '2026-09-11T18:44:00+02:00',
/* author */ (''),
/* organization */ (''),
/* preprocessor_version */ 'ST-DEVELOPER v18.1',
/* originating_system */ 'Autodesk Inventor 2022',
/* authorisation */ '');

FILE_SCHEMA (('AUTOMOTIVE_DESIGN { 1 0 10303 214 3 1 1 }'));
ENDSEC;

DATA;
#10=MECHANICAL_DESIGN_GEOMETRIC_PRESENTATION_REPRESENTATION('',(#13),#869);
#11=SHAPE_REPRESENTATION_RELATIONSHIP('SRR','None',#876,#12);
#12=ADVANCED_BREP_SHAPE_REPRESENTATION('',(#14),#868);
#13=STYLED_ITEM('',(#885),#14);
#14=MANIFOLD_SOLID_BREP('Solid1',#319);
#15=CYLINDRICAL_SURFACE('',#392,41.);
#16=CYLINDRICAL_SURFACE('',#393,41.);
#17=CYLINDRICAL_SURFACE('',#394,35.);
#18=B_SPLINE_CURVE_WITH_KNOTS('',3,(#755,#756,#757,#758,#759,#760,#761,
#762,#763,#764,#765,#766,#767,#768,#769,#770,#771,#772,#773,#774,#775,#776,
#777,#778,#779,#780,#781,#782,#783,#784,#785,#786,#787,#788,#789,#790,#791),
 .UNSPECIFIED.,.T.,.F.,(4,1,1,1,1,1,1,1,1,1,1,1,1,1,1,1,1,1,1,1,1,1,1,1,
1,1,1,1,1,1,1,1,1,1,4),(-35.119848084539,-34.4927079401722,-34.2836612253833,
-33.4474743662276,-32.6112875070719,-31.9841473627052,-31.7751006479162,
-31.2176427418124,-30.3814558826568,-29.5452690235011,-29.1271755939232,
-28.9878111173973,-28.4303532112935,-26.7579794929821,-26.6186150164561,
-26.2005215868783,-25.0856057746707,-24.5281478685669,-23.6919610094112,
-22.8557741502555,-21.740858338048,-20.6259425258404,-20.2775313345255,
-20.0684846197366,-19.5110267136328,-18.3961109014252,-17.5599240422695,
-16.7237371831138,-16.096597038747,-15.4694568943803,-15.0513634648024,
-14.2151766056467,-13.378989746491,-12.5428028873354,-11.7066160281797),
 .UNSPECIFIED.);
#19=B_SPLINE_CURVE_WITH_KNOTS('',3,(#793,#794,#795,#796,#797,#798,#799,
#800,#801,#802,#803,#804,#805,#806,#807,#808,#809,#810,#811),
 .UNSPECIFIED.,.F.,.F.,(4,1,1,1,1,1,1,1,1,1,1,1,1,1,1,1,4),(11.7066160281797,
12.5428028873354,13.378989746491,14.2151766056467,15.0513634648024,15.4694568943803,
16.096597038747,16.7237371831138,17.5599240422695,18.3961109014252,19.5110267136328,
20.0684846197366,20.2775313345255,20.6259425258404,21.740858338048,22.8557741502555,
23.4132320563593),.UNSPECIFIED.);
#20=B_SPLINE_CURVE_WITH_KNOTS('',3,(#812,#813,#814,#815,#816,#817,#818,
#819,#820,#821,#822,#823,#824,#825,#826,#827,#828,#829,#830,#831,#832,#833),
 .UNSPECIFIED.,.F.,.F.,(4,1,1,1,1,1,1,1,1,1,1,1,1,1,1,1,1,1,1,4),(23.4132320563593,
23.6919610094112,24.5281478685669,25.0856057746707,26.2005215868783,26.6186150164561,
26.7579794929821,28.4303532112935,28.9878111173973,29.1271755939232,29.5452690235011,
30.3814558826568,31.2176427418124,31.7751006479162,31.9841473627052,32.6112875070719,
33.4474743662276,34.2836612253833,34.4927079401722,35.119848084539),
 .UNSPECIFIED.);
#21=B_SPLINE_SURFACE_WITH_KNOTS('',3,3,((#567,#568,#569,#570,#571,#572,
#573,#574,#575,#576,#577,#578,#579,#580,#581,#582,#583,#584,#585,#586,#587,
#588,#589,#590,#591,#592,#593,#594,#595,#596,#597,#598,#599,#600,#601,#602,
#603),(#604,#605,#606,#607,#608,#609,#610,#611,#612,#613,#614,#615,#616,
#617,#618,#619,#620,#621,#622,#623,#624,#625,#626,#627,#628,#629,#630,#631,
#632,#633,#634,#635,#636,#637,#638,#639,#640),(#641,#642,#643,#644,#645,
#646,#647,#648,#649,#650,#651,#652,#653,#654,#655,#656,#657,#658,#659,#660,
#661,#662,#663,#664,#665,#666,#667,#668,#669,#670,#671,#672,#673,#674,#675,
#676,#677),(#678,#679,#680,#681,#682,#683,#684,#685,#686,#687,#688,#689,
#690,#691,#692,#693,#694,#695,#696,#697,#698,#699,#700,#701,#702,#703,#704,
#705,#706,#707,#708,#709,#710,#711,#712,#713,#714),(#715,#716,#717,#718,
#719,#720,#721,#722,#723,#724,#725,#726,#727,#728,#729,#730,#731,#732,#733,
#734,#735,#736,#737,#738,#739,#740,#741,#742,#743,#744,#745,#746,#747,#748,
#749,#750,#751)),.UNSPECIFIED.,.F.,.T.,.F.,(4,1,4),(4,1,1,1,1,1,1,1,1,1,
1,1,1,1,1,1,1,1,1,1,1,1,1,1,1,1,1,1,1,1,1,1,1,1,4),(0.,0.5,1.),(11.7066160281797,
12.5428028873354,13.378989746491,14.2151766056467,15.0513634648024,15.4694568943803,
16.096597038747,16.7237371831138,17.5599240422695,18.3961109014252,19.5110267136328,
20.0684846197366,20.2775313345255,20.6259425258404,21.740858338048,22.8557741502555,
23.6919610094112,24.5281478685669,25.0856057746707,26.2005215868783,26.6186150164561,
26.7579794929821,28.4303532112935,28.9878111173973,29.1271755939232,29.5452690235011,
30.3814558826568,31.2176427418124,31.7751006479162,31.9841473627052,32.6112875070719,
33.4474743662276,34.2836612253833,34.4927079401722,35.119848084539),
 .UNSPECIFIED.);
#22=LINE('',#534,#27);
#23=LINE('',#560,#28);
#24=LINE('',#861,#29);
#25=LINE('',#863,#30);
#26=LINE('',#865,#31);
#27=VECTOR('',#421,36.5);
#28=VECTOR('',#458,36.5);
#29=VECTOR('',#507,41.);
#30=VECTOR('',#510,41.);
#31=VECTOR('',#513,35.);
#32=CONICAL_SURFACE('',#350,36.5,0.588002603547568);
#33=CONICAL_SURFACE('',#368,36.5,0.588002603547568);
#34=FACE_BOUND('',#70,.T.);
#35=FACE_BOUND('',#74,.T.);
#36=FACE_BOUND('',#78,.T.);
#37=FACE_BOUND('',#83,.T.);
#38=FACE_BOUND('',#86,.T.);
#39=FACE_BOUND('',#91,.T.);
#40=PLANE('',#343);
#41=PLANE('',#352);
#42=PLANE('',#360);
#43=PLANE('',#371);
#44=PLANE('',#374);
#45=PLANE('',#384);
#46=FACE_OUTER_BOUND('',#68,.T.);
#47=FACE_OUTER_BOUND('',#69,.T.);
#48=FACE_OUTER_BOUND('',#71,.T.);
#49=FACE_OUTER_BOUND('',#72,.T.);
#50=FACE_OUTER_BOUND('',#73,.T.);
#51=FACE_OUTER_BOUND('',#75,.T.);
#52=FACE_OUTER_BOUND('',#76,.T.);
#53=FACE_OUTER_BOUND('',#77,.T.);
#54=FACE_OUTER_BOUND('',#79,.T.);
#55=FACE_OUTER_BOUND('',#80,.T.);
#56=FACE_OUTER_BOUND('',#81,.T.);
#57=FACE_OUTER_BOUND('',#82,.T.);
#58=FACE_OUTER_BOUND('',#84,.T.);
#59=FACE_OUTER_BOUND('',#85,.T.);
#60=FACE_OUTER_BOUND('',#87,.T.);
#61=FACE_OUTER_BOUND('',#88,.T.);
#62=FACE_OUTER_BOUND('',#89,.T.);
#63=FACE_OUTER_BOUND('',#90,.T.);
#64=FACE_OUTER_BOUND('',#92,.T.);
#65=FACE_OUTER_BOUND('',#93,.T.);
#66=FACE_OUTER_BOUND('',#94,.T.);
#67=FACE_OUTER_BOUND('',#95,.T.);
#68=EDGE_LOOP('',(#201,#202,#203,#204));
#69=EDGE_LOOP('',(#205));
#70=EDGE_LOOP('',(#206));
#71=EDGE_LOOP('',(#207,#208,#209,#210,#211));
#72=EDGE_LOOP('',(#212,#213,#214,#215,#216));
#73=EDGE_LOOP('',(#217));
#74=EDGE_LOOP('',(#218));
#75=EDGE_LOOP('',(#219,#220,#221,#222));
#76=EDGE_LOOP('',(#223,#224,#225,#226));
#77=EDGE_LOOP('',(#227));
#78=EDGE_LOOP('',(#228));
#79=EDGE_LOOP('',(#229,#230,#231,#232));
#80=EDGE_LOOP('',(#233,#234,#235,#236));
#81=EDGE_LOOP('',(#237,#238,#239,#240,#241));
#82=EDGE_LOOP('',(#242));
#83=EDGE_LOOP('',(#243));
#84=EDGE_LOOP('',(#244,#245,#246,#247,#248));
#85=EDGE_LOOP('',(#249));
#86=EDGE_LOOP('',(#250));
#87=EDGE_LOOP('',(#251,#252,#253,#254,#255,#256));
#88=EDGE_LOOP('',(#257,#258,#259,#260));
#89=EDGE_LOOP('',(#261,#262,#263,#264));
#90=EDGE_LOOP('',(#265));
#91=EDGE_LOOP('',(#266));
#92=EDGE_LOOP('',(#267,#268,#269,#270,#271,#272));
#93=EDGE_LOOP('',(#273,#274,#275,#276,#277));
#94=EDGE_LOOP('',(#278,#279,#280,#281,#282));
#95=EDGE_LOOP('',(#283,#284,#285,#286));
#96=CIRCLE('',#340,39.2284251258739);
#97=CIRCLE('',#341,0.5);
#98=CIRCLE('',#342,38.8977062119909);
#99=CIRCLE('',#344,41.);
#100=CIRCLE('',#346,36.1484332679249);
#101=CIRCLE('',#347,0.5);
#102=CIRCLE('',#348,35.732408120756);
#103=CIRCLE('',#349,36.1484332679249);
#104=CIRCLE('',#351,36.9313443441704);
#105=CIRCLE('',#353,35.);
#106=CIRCLE('',#355,0.5);
#107=CIRCLE('',#356,37.0076595985008);
#108=CIRCLE('',#358,37.5);
#109=CIRCLE('',#359,0.5);
#110=CIRCLE('',#361,38.5669872981078);
#111=CIRCLE('',#363,0.5);
#112=CIRCLE('',#365,36.1484332679249);
#113=CIRCLE('',#366,0.5);
#114=CIRCLE('',#367,35.732408120756);
#115=CIRCLE('',#369,36.9160251471689);
#116=CIRCLE('',#370,36.9160251471689);
#117=CIRCLE('',#372,35.);
#118=CIRCLE('',#373,0.499999999999997);
#119=CIRCLE('',#375,38.7715748741261);
#120=CIRCLE('',#377,0.5);
#121=CIRCLE('',#379,39.1022937880091);
#122=CIRCLE('',#380,0.5);
#123=CIRCLE('',#382,0.5);
#124=CIRCLE('',#383,39.4330127018922);
#125=CIRCLE('',#385,41.);
#126=CIRCLE('',#387,41.);
#127=CIRCLE('',#388,41.);
#128=CIRCLE('',#389,2.75);
#129=CIRCLE('',#390,41.);
#130=CIRCLE('',#391,41.);
#131=VERTEX_POINT('',#516);
#132=VERTEX_POINT('',#518);
#133=VERTEX_POINT('',#522);
#134=VERTEX_POINT('',#525);
#135=VERTEX_POINT('',#526);
#136=VERTEX_POINT('',#528);
#137=VERTEX_POINT('',#533);
#138=VERTEX_POINT('',#537);
#139=VERTEX_POINT('',#540);
#140=VERTEX_POINT('',#544);
#141=VERTEX_POINT('',#548);
#142=VERTEX_POINT('',#553);
#143=VERTEX_POINT('',#555);
#144=VERTEX_POINT('',#559);
#145=VERTEX_POINT('',#561);
#146=VERTEX_POINT('',#565);
#147=VERTEX_POINT('',#752);
#148=VERTEX_POINT('',#753);
#149=VERTEX_POINT('',#792);
#150=VERTEX_POINT('',#835);
#151=VERTEX_POINT('',#840);
#152=VERTEX_POINT('',#844);
#153=VERTEX_POINT('',#848);
#154=VERTEX_POINT('',#851);
#155=VERTEX_POINT('',#852);
#156=VERTEX_POINT('',#855);
#157=VERTEX_POINT('',#857);
#158=EDGE_CURVE('',#131,#131,#96,.T.);
#159=EDGE_CURVE('',#131,#132,#97,.T.);
#160=EDGE_CURVE('',#132,#132,#98,.T.);
#161=EDGE_CURVE('',#133,#133,#99,.T.);
#162=EDGE_CURVE('',#134,#135,#100,.T.);
#163=EDGE_CURVE('',#135,#136,#101,.T.);
#164=EDGE_CURVE('',#136,#136,#102,.T.);
#165=EDGE_CURVE('',#135,#134,#103,.T.);
#166=EDGE_CURVE('',#134,#137,#22,.T.);
#167=EDGE_CURVE('',#137,#137,#104,.T.);
#168=EDGE_CURVE('',#138,#138,#105,.T.);
#169=EDGE_CURVE('',#137,#139,#106,.T.);
#170=EDGE_CURVE('',#139,#139,#107,.T.);
#171=EDGE_CURVE('',#140,#140,#108,.T.);
#172=EDGE_CURVE('',#140,#139,#109,.T.);
#173=EDGE_CURVE('',#141,#141,#110,.T.);
#174=EDGE_CURVE('',#132,#141,#111,.T.);
#175=EDGE_CURVE('',#142,#142,#112,.T.);
#176=EDGE_CURVE('',#142,#143,#113,.T.);
#177=EDGE_CURVE('',#143,#143,#114,.T.);
#178=EDGE_CURVE('',#142,#144,#23,.T.);
#179=EDGE_CURVE('',#145,#144,#115,.T.);
#180=EDGE_CURVE('',#144,#145,#116,.T.);
#181=EDGE_CURVE('',#146,#146,#117,.T.);
#182=EDGE_CURVE('',#147,#148,#118,.T.);
#183=EDGE_CURVE('',#148,#148,#18,.T.);
#184=EDGE_CURVE('',#147,#149,#19,.T.);
#185=EDGE_CURVE('',#149,#147,#20,.T.);
#186=EDGE_CURVE('',#150,#150,#119,.T.);
#187=EDGE_CURVE('',#145,#149,#120,.T.);
#188=EDGE_CURVE('',#151,#151,#121,.T.);
#189=EDGE_CURVE('',#151,#150,#122,.T.);
#190=EDGE_CURVE('',#151,#152,#123,.T.);
#191=EDGE_CURVE('',#152,#152,#124,.T.);
#192=EDGE_CURVE('',#153,#153,#125,.T.);
#193=EDGE_CURVE('',#154,#155,#126,.T.);
#194=EDGE_CURVE('',#155,#154,#127,.T.);
#195=EDGE_CURVE('',#155,#156,#128,.T.);
#196=EDGE_CURVE('',#157,#156,#129,.T.);
#197=EDGE_CURVE('',#156,#157,#130,.T.);
#198=EDGE_CURVE('',#154,#133,#24,.T.);
#199=EDGE_CURVE('',#153,#157,#25,.T.);
#200=EDGE_CURVE('',#146,#138,#26,.T.);
#201=ORIENTED_EDGE('',*,*,#158,.T.);
#202=ORIENTED_EDGE('',*,*,#159,.T.);
#203=ORIENTED_EDGE('',*,*,#160,.T.);
#204=ORIENTED_EDGE('',*,*,#159,.F.);
#205=ORIENTED_EDGE('',*,*,#161,.T.);
#206=ORIENTED_EDGE('',*,*,#158,.F.);
#207=ORIENTED_EDGE('',*,*,#162,.T.);
#208=ORIENTED_EDGE('',*,*,#163,.T.);
#209=ORIENTED_EDGE('',*,*,#164,.T.);
#210=ORIENTED_EDGE('',*,*,#163,.F.);
#211=ORIENTED_EDGE('',*,*,#165,.T.);
#212=ORIENTED_EDGE('',*,*,#162,.F.);
#213=ORIENTED_EDGE('',*,*,#166,.T.);
#214=ORIENTED_EDGE('',*,*,#167,.F.);
#215=ORIENTED_EDGE('',*,*,#166,.F.);
#216=ORIENTED_EDGE('',*,*,#165,.F.);
#217=ORIENTED_EDGE('',*,*,#164,.F.);
#218=ORIENTED_EDGE('',*,*,#168,.T.);
#219=ORIENTED_EDGE('',*,*,#167,.T.);
#220=ORIENTED_EDGE('',*,*,#169,.T.);
#221=ORIENTED_EDGE('',*,*,#170,.T.);
#222=ORIENTED_EDGE('',*,*,#169,.F.);
#223=ORIENTED_EDGE('',*,*,#171,.T.);
#224=ORIENTED_EDGE('',*,*,#172,.T.);
#225=ORIENTED_EDGE('',*,*,#170,.F.);
#226=ORIENTED_EDGE('',*,*,#172,.F.);
#227=ORIENTED_EDGE('',*,*,#173,.F.);
#228=ORIENTED_EDGE('',*,*,#171,.F.);
#229=ORIENTED_EDGE('',*,*,#160,.F.);
#230=ORIENTED_EDGE('',*,*,#174,.T.);
#231=ORIENTED_EDGE('',*,*,#173,.T.);
#232=ORIENTED_EDGE('',*,*,#174,.F.);
#233=ORIENTED_EDGE('',*,*,#175,.T.);
#234=ORIENTED_EDGE('',*,*,#176,.T.);
#235=ORIENTED_EDGE('',*,*,#177,.T.);
#236=ORIENTED_EDGE('',*,*,#176,.F.);
#237=ORIENTED_EDGE('',*,*,#175,.F.);
#238=ORIENTED_EDGE('',*,*,#178,.T.);
#239=ORIENTED_EDGE('',*,*,#179,.F.);
#240=ORIENTED_EDGE('',*,*,#180,.F.);
#241=ORIENTED_EDGE('',*,*,#178,.F.);
#242=ORIENTED_EDGE('',*,*,#177,.F.);
#243=ORIENTED_EDGE('',*,*,#181,.T.);
#244=ORIENTED_EDGE('',*,*,#182,.T.);
#245=ORIENTED_EDGE('',*,*,#183,.T.);
#246=ORIENTED_EDGE('',*,*,#182,.F.);
#247=ORIENTED_EDGE('',*,*,#184,.T.);
#248=ORIENTED_EDGE('',*,*,#185,.T.);
#249=ORIENTED_EDGE('',*,*,#186,.F.);
#250=ORIENTED_EDGE('',*,*,#183,.F.);
#251=ORIENTED_EDGE('',*,*,#180,.T.);
#252=ORIENTED_EDGE('',*,*,#187,.T.);
#253=ORIENTED_EDGE('',*,*,#184,.F.);
#254=ORIENTED_EDGE('',*,*,#185,.F.);
#255=ORIENTED_EDGE('',*,*,#187,.F.);
#256=ORIENTED_EDGE('',*,*,#179,.T.);
#257=ORIENTED_EDGE('',*,*,#188,.T.);
#258=ORIENTED_EDGE('',*,*,#189,.T.);
#259=ORIENTED_EDGE('',*,*,#186,.T.);
#260=ORIENTED_EDGE('',*,*,#189,.F.);
#261=ORIENTED_EDGE('',*,*,#188,.F.);
#262=ORIENTED_EDGE('',*,*,#190,.T.);
#263=ORIENTED_EDGE('',*,*,#191,.T.);
#264=ORIENTED_EDGE('',*,*,#190,.F.);
#265=ORIENTED_EDGE('',*,*,#192,.T.);
#266=ORIENTED_EDGE('',*,*,#191,.F.);
#267=ORIENTED_EDGE('',*,*,#193,.F.);
#268=ORIENTED_EDGE('',*,*,#194,.F.);
#269=ORIENTED_EDGE('',*,*,#195,.T.);
#270=ORIENTED_EDGE('',*,*,#196,.F.);
#271=ORIENTED_EDGE('',*,*,#197,.F.);
#272=ORIENTED_EDGE('',*,*,#195,.F.);
#273=ORIENTED_EDGE('',*,*,#193,.T.);
#274=ORIENTED_EDGE('',*,*,#194,.T.);
#275=ORIENTED_EDGE('',*,*,#198,.T.);
#276=ORIENTED_EDGE('',*,*,#161,.F.);
#277=ORIENTED_EDGE('',*,*,#198,.F.);
#278=ORIENTED_EDGE('',*,*,#192,.F.);
#279=ORIENTED_EDGE('',*,*,#199,.T.);
#280=ORIENTED_EDGE('',*,*,#196,.T.);
#281=ORIENTED_EDGE('',*,*,#197,.T.);
#282=ORIENTED_EDGE('',*,*,#199,.F.);
#283=ORIENTED_EDGE('',*,*,#181,.F.);
#284=ORIENTED_EDGE('',*,*,#200,.T.);
#285=ORIENTED_EDGE('',*,*,#168,.F.);
#286=ORIENTED_EDGE('',*,*,#200,.F.);
#287=TOROIDAL_SURFACE('',#339,39.2284251258739,0.5);
#288=TOROIDAL_SURFACE('',#345,35.732408120756,0.5);
#289=TOROIDAL_SURFACE('',#354,36.5153191970015,0.5);
#290=TOROIDAL_SURFACE('',#357,37.5,0.5);
#291=TOROIDAL_SURFACE('',#362,38.5669872981078,0.5);
#292=TOROIDAL_SURFACE('',#364,35.732408120756,0.5);
#293=TOROIDAL_SURFACE('',#376,36.5,0.5);
#294=TOROIDAL_SURFACE('',#378,38.7715748741261,0.5);
#295=TOROIDAL_SURFACE('',#381,39.4330127018922,0.5);
#296=TOROIDAL_SURFACE('',#386,43.5,2.75);
#297=ADVANCED_FACE('',(#46),#287,.T.);
#298=ADVANCED_FACE('',(#47,#34),#40,.F.);
#299=ADVANCED_FACE('',(#48),#288,.T.);
#300=ADVANCED_FACE('',(#49),#32,.T.);
#301=ADVANCED_FACE('',(#50,#35),#41,.F.);
#302=ADVANCED_FACE('',(#51),#289,.T.);
#303=ADVANCED_FACE('',(#52),#290,.F.);
#304=ADVANCED_FACE('',(#53,#36),#42,.F.);
#305=ADVANCED_FACE('',(#54),#291,.F.);
#306=ADVANCED_FACE('',(#55),#292,.T.);
#307=ADVANCED_FACE('',(#56),#33,.T.);
#308=ADVANCED_FACE('',(#57,#37),#43,.T.);
#309=ADVANCED_FACE('',(#58),#21,.T.);
#310=ADVANCED_FACE('',(#59,#38),#44,.T.);
#311=ADVANCED_FACE('',(#60),#293,.T.);
#312=ADVANCED_FACE('',(#61),#294,.F.);
#313=ADVANCED_FACE('',(#62),#295,.T.);
#314=ADVANCED_FACE('',(#63,#39),#45,.T.);
#315=ADVANCED_FACE('',(#64),#296,.F.);
#316=ADVANCED_FACE('',(#65),#15,.T.);
#317=ADVANCED_FACE('',(#66),#16,.T.);
#318=ADVANCED_FACE('',(#67),#17,.F.);
#319=CLOSED_SHELL('',(#297,#298,#299,#300,#301,#302,#303,#304,#305,#306,
#307,#308,#309,#310,#311,#312,#313,#314,#315,#316,#317,#318));
#320=DERIVED_UNIT_ELEMENT(#322,1.);
#321=DERIVED_UNIT_ELEMENT(#871,-3.);
#322=(
MASS_UNIT()
NAMED_UNIT(*)
SI_UNIT($,.GRAM.)
);
#323=DERIVED_UNIT((#320,#321));
#324=MEASURE_REPRESENTATION_ITEM('density measure',
POSITIVE_RATIO_MEASURE(1.),#323);
#325=PROPERTY_DEFINITION_REPRESENTATION(#330,#327);
#326=PROPERTY_DEFINITION_REPRESENTATION(#331,#328);
#327=REPRESENTATION('material name',(#329),#868);
#328=REPRESENTATION('density',(#324),#868);
#329=DESCRIPTIVE_REPRESENTATION_ITEM('Generic','Generic');
#330=PROPERTY_DEFINITION('material property','material name',#878);
#331=PROPERTY_DEFINITION('material property','density of part',#878);
#332=DATE_TIME_ROLE('creation_date');
#333=APPLIED_DATE_AND_TIME_ASSIGNMENT(#334,#332,(#878));
#334=DATE_AND_TIME(#335,#336);
#335=CALENDAR_DATE(2026,11,9);
#336=LOCAL_TIME(0,0,0.,#337);
#337=COORDINATED_UNIVERSAL_TIME_OFFSET(0,0,.BEHIND.);
#338=AXIS2_PLACEMENT_3D('placement',#514,#395,#396);
#339=AXIS2_PLACEMENT_3D('',#515,#397,#398);
#340=AXIS2_PLACEMENT_3D('',#517,#399,#400);
#341=AXIS2_PLACEMENT_3D('',#519,#401,#402);
#342=AXIS2_PLACEMENT_3D('',#520,#403,#404);
#343=AXIS2_PLACEMENT_3D('',#521,#405,#406);
#344=AXIS2_PLACEMENT_3D('',#523,#407,#408);
#345=AXIS2_PLACEMENT_3D('',#524,#409,#410);
#346=AXIS2_PLACEMENT_3D('',#527,#411,#412);
#347=AXIS2_PLACEMENT_3D('',#529,#413,#414);
#348=AXIS2_PLACEMENT_3D('',#530,#415,#416);
#349=AXIS2_PLACEMENT_3D('',#531,#417,#418);
#350=AXIS2_PLACEMENT_3D('',#532,#419,#420);
#351=AXIS2_PLACEMENT_3D('',#535,#422,#423);
#352=AXIS2_PLACEMENT_3D('',#536,#424,#425);
#353=AXIS2_PLACEMENT_3D('',#538,#426,#427);
#354=AXIS2_PLACEMENT_3D('',#539,#428,#429);
#355=AXIS2_PLACEMENT_3D('',#541,#430,#431);
#356=AXIS2_PLACEMENT_3D('',#542,#432,#433);
#357=AXIS2_PLACEMENT_3D('',#543,#434,#435);
#358=AXIS2_PLACEMENT_3D('',#545,#436,#437);
#359=AXIS2_PLACEMENT_3D('',#546,#438,#439);
#360=AXIS2_PLACEMENT_3D('',#547,#440,#441);
#361=AXIS2_PLACEMENT_3D('',#549,#442,#443);
#362=AXIS2_PLACEMENT_3D('',#550,#444,#445);
#363=AXIS2_PLACEMENT_3D('',#551,#446,#447);
#364=AXIS2_PLACEMENT_3D('',#552,#448,#449);
#365=AXIS2_PLACEMENT_3D('',#554,#450,#451);
#366=AXIS2_PLACEMENT_3D('',#556,#452,#453);
#367=AXIS2_PLACEMENT_3D('',#557,#454,#455);
#368=AXIS2_PLACEMENT_3D('',#558,#456,#457);
#369=AXIS2_PLACEMENT_3D('',#562,#459,#460);
#370=AXIS2_PLACEMENT_3D('',#563,#461,#462);
#371=AXIS2_PLACEMENT_3D('',#564,#463,#464);
#372=AXIS2_PLACEMENT_3D('',#566,#465,#466);
#373=AXIS2_PLACEMENT_3D('',#754,#467,#468);
#374=AXIS2_PLACEMENT_3D('',#834,#469,#470);
#375=AXIS2_PLACEMENT_3D('',#836,#471,#472);
#376=AXIS2_PLACEMENT_3D('',#837,#473,#474);
#377=AXIS2_PLACEMENT_3D('',#838,#475,#476);
#378=AXIS2_PLACEMENT_3D('',#839,#477,#478);
#379=AXIS2_PLACEMENT_3D('',#841,#479,#480);
#380=AXIS2_PLACEMENT_3D('',#842,#481,#482);
#381=AXIS2_PLACEMENT_3D('',#843,#483,#484);
#382=AXIS2_PLACEMENT_3D('',#845,#485,#486);
#383=AXIS2_PLACEMENT_3D('',#846,#487,#488);
#384=AXIS2_PLACEMENT_3D('',#847,#489,#490);
#385=AXIS2_PLACEMENT_3D('',#849,#491,#492);
#386=AXIS2_PLACEMENT_3D('',#850,#493,#494);
#387=AXIS2_PLACEMENT_3D('',#853,#495,#496);
#388=AXIS2_PLACEMENT_3D('',#854,#497,#498);
#389=AXIS2_PLACEMENT_3D('',#856,#499,#500);
#390=AXIS2_PLACEMENT_3D('',#858,#501,#502);
#391=AXIS2_PLACEMENT_3D('',#859,#503,#504);
#392=AXIS2_PLACEMENT_3D('',#860,#505,#506);
#393=AXIS2_PLACEMENT_3D('',#862,#508,#509);
#394=AXIS2_PLACEMENT_3D('',#864,#511,#512);
#395=DIRECTION('axis',(0.,0.,1.));
#396=DIRECTION('refdir',(1.,0.,0.));
#397=DIRECTION('center_axis',(0.,0.,1.));
#398=DIRECTION('ref_axis',(1.,0.,0.));
#399=DIRECTION('center_axis',(0.,0.,-1.));
#400=DIRECTION('ref_axis',(-1.,0.,0.));
#401=DIRECTION('center_axis',(1.22464679914735E-16,-1.,0.));
#402=DIRECTION('ref_axis',(-1.,-1.22464679914735E-16,0.));
#403=DIRECTION('center_axis',(0.,0.,1.));
#404=DIRECTION('ref_axis',(-1.,0.,0.));
#405=DIRECTION('center_axis',(0.,0.,1.));
#406=DIRECTION('ref_axis',(1.,0.,0.));
#407=DIRECTION('center_axis',(0.,0.,-1.));
#408=DIRECTION('ref_axis',(1.,0.,0.));
#409=DIRECTION('center_axis',(0.,0.,1.));
#410=DIRECTION('ref_axis',(1.,0.,0.));
#411=DIRECTION('center_axis',(0.,0.,-1.));
#412=DIRECTION('ref_axis',(-1.,6.12323399573676E-17,0.));
#413=DIRECTION('center_axis',(1.22464679914735E-16,-1.,0.));
#414=DIRECTION('ref_axis',(-1.,-1.22464679914735E-16,0.));
#415=DIRECTION('center_axis',(0.,0.,1.));
#416=DIRECTION('ref_axis',(-1.,0.,0.));
#417=DIRECTION('center_axis',(0.,0.,-1.));
#418=DIRECTION('ref_axis',(-1.,6.12323399573676E-17,0.));
#419=DIRECTION('center_axis',(0.,0.,1.));
#420=DIRECTION('ref_axis',(-1.,0.,0.));
#421=DIRECTION('',(0.554700196225229,-6.79311819793636E-17,0.832050294337843));
#422=DIRECTION('center_axis',(0.,0.,1.));
#423=DIRECTION('ref_axis',(-1.,6.12323399573677E-17,0.));
#424=DIRECTION('center_axis',(0.,0.,1.));
#425=DIRECTION('ref_axis',(1.,0.,0.));
#426=DIRECTION('center_axis',(0.,0.,1.));
#427=DIRECTION('ref_axis',(-1.,0.,0.));
#428=DIRECTION('center_axis',(0.,0.,-1.));
#429=DIRECTION('ref_axis',(-1.,0.,0.));
#430=DIRECTION('center_axis',(-1.22464679914735E-16,-1.,0.));
#431=DIRECTION('ref_axis',(1.,-1.22464679914735E-16,0.));
#432=DIRECTION('center_axis',(0.,0.,-1.));
#433=DIRECTION('ref_axis',(-1.,0.,0.));
#434=DIRECTION('center_axis',(0.,0.,-1.));
#435=DIRECTION('ref_axis',(-1.,0.,0.));
#436=DIRECTION('center_axis',(0.,0.,-1.));
#437=DIRECTION('ref_axis',(-1.,-1.22464679914735E-16,0.));
#438=DIRECTION('center_axis',(-1.22464679914735E-16,-1.,0.));
#439=DIRECTION('ref_axis',(1.,-1.22464679914735E-16,0.));
#440=DIRECTION('center_axis',(0.,0.,1.));
#441=DIRECTION('ref_axis',(1.,0.,0.));
#442=DIRECTION('center_axis',(0.,0.,1.));
#443=DIRECTION('ref_axis',(1.,3.220331113925E-16,0.));
#444=DIRECTION('center_axis',(0.,0.,-1.));
#445=DIRECTION('ref_axis',(1.,3.220331113925E-16,0.));
#446=DIRECTION('center_axis',(-1.99568431477764E-16,1.,0.));
#447=DIRECTION('ref_axis',(-1.,-1.99568431477764E-16,0.));
#448=DIRECTION('center_axis',(0.,0.,-1.));
#449=DIRECTION('ref_axis',(-1.,0.,0.));
#450=DIRECTION('center_axis',(0.,0.,1.));
#451=DIRECTION('ref_axis',(-1.,-6.12323399573676E-17,0.));
#452=DIRECTION('center_axis',(-1.22464679914735E-16,-1.,0.));
#453=DIRECTION('ref_axis',(1.,-1.22464679914735E-16,0.));
#454=DIRECTION('center_axis',(0.,0.,-1.));
#455=DIRECTION('ref_axis',(-1.,0.,0.));
#456=DIRECTION('center_axis',(0.,0.,-1.));
#457=DIRECTION('ref_axis',(-1.,0.,0.));
#458=DIRECTION('',(0.554700196225229,6.79311819793636E-17,-0.832050294337843));
#459=DIRECTION('center_axis',(0.,0.,-1.));
#460=DIRECTION('ref_axis',(-1.,-6.12323399573677E-17,0.));
#461=DIRECTION('center_axis',(0.,0.,-1.));
#462=DIRECTION('ref_axis',(-1.,-6.12323399573677E-17,0.));
#463=DIRECTION('center_axis',(0.,0.,1.));
#464=DIRECTION('ref_axis',(1.,0.,0.));
#465=DIRECTION('center_axis',(0.,0.,-1.));
#466=DIRECTION('ref_axis',(-1.,0.,0.));
#467=DIRECTION('center_axis',(-0.000811828910623441,-0.999999670466856,
0.));
#468=DIRECTION('ref_axis',(-0.988474119204683,0.000802472131814568,-0.151387818865999));
#469=DIRECTION('center_axis',(0.,0.,1.));
#470=DIRECTION('ref_axis',(1.,0.,0.));
#471=DIRECTION('center_axis',(0.,0.,-1.));
#472=DIRECTION('ref_axis',(-1.,1.22464679914735E-16,0.));
#473=DIRECTION('center_axis',(0.,0.,1.));
#474=DIRECTION('ref_axis',(1.,0.,0.));
#475=DIRECTION('center_axis',(1.22464679914735E-16,-1.,0.));
#476=DIRECTION('ref_axis',(-1.,-1.22464679914735E-16,0.));
#477=DIRECTION('center_axis',(0.,0.,1.));
#478=DIRECTION('ref_axis',(1.,0.,0.));
#479=DIRECTION('center_axis',(0.,0.,1.));
#480=DIRECTION('ref_axis',(-1.,1.22464679914735E-16,0.));
#481=DIRECTION('center_axis',(1.22464679914735E-16,-1.,0.));
#482=DIRECTION('ref_axis',(-1.,-1.22464679914735E-16,0.));
#483=DIRECTION('center_axis',(0.,0.,1.));
#484=DIRECTION('ref_axis',(1.,-1.19775118133741E-16,0.));
#485=DIRECTION('center_axis',(-2.42239798048476E-16,-1.,0.));
#486=DIRECTION('ref_axis',(-1.,2.42239798048476E-16,0.));
#487=DIRECTION('center_axis',(0.,0.,1.));
#488=DIRECTION('ref_axis',(1.,-1.19775118133741E-16,0.));
#489=DIRECTION('center_axis',(0.,0.,1.));
#490=DIRECTION('ref_axis',(1.,0.,0.));
#491=DIRECTION('center_axis',(0.,0.,1.));
#492=DIRECTION('ref_axis',(1.,0.,0.));
#493=DIRECTION('center_axis',(0.,0.,-1.));
#494=DIRECTION('ref_axis',(-1.,0.,0.));
#495=DIRECTION('center_axis',(0.,0.,-1.));
#496=DIRECTION('ref_axis',(1.,0.,0.));
#497=DIRECTION('center_axis',(0.,0.,-1.));
#498=DIRECTION('ref_axis',(1.,0.,0.));
#499=DIRECTION('center_axis',(1.22464679914735E-16,1.,0.));
#500=DIRECTION('ref_axis',(1.,-1.22464679914735E-16,0.));
#501=DIRECTION('center_axis',(0.,0.,1.));
#502=DIRECTION('ref_axis',(1.,0.,0.));
#503=DIRECTION('center_axis',(0.,0.,1.));
#504=DIRECTION('ref_axis',(1.,0.,0.));
#505=DIRECTION('center_axis',(0.,0.,1.));
#506=DIRECTION('ref_axis',(1.,0.,0.));
#507=DIRECTION('',(0.,0.,-1.));
#508=DIRECTION('center_axis',(0.,0.,1.));
#509=DIRECTION('ref_axis',(1.,0.,0.));
#510=DIRECTION('',(0.,0.,-1.));
#511=DIRECTION('center_axis',(0.,0.,1.));
#512=DIRECTION('ref_axis',(-1.,0.,0.));
#513=DIRECTION('',(0.,0.,-1.));
#514=CARTESIAN_POINT('',(0.,0.,0.));
#515=CARTESIAN_POINT('Origin',(0.,0.,-0.75));
#516=CARTESIAN_POINT('',(-39.2284251258739,-4.80409652659931E-15,-1.25));
#517=CARTESIAN_POINT('Origin',(0.,0.,-1.25));
#518=CARTESIAN_POINT('',(-38.8977062119909,-4.76359514066887E-15,-1.125));
#519=CARTESIAN_POINT('Origin',(-39.2284251258739,-4.80409652659931E-15,
-0.75));
#520=CARTESIAN_POINT('Origin',(0.,0.,-1.125));
#521=CARTESIAN_POINT('Origin',(0.,0.,-1.25));
#522=CARTESIAN_POINT('',(-41.,-5.02105187650415E-15,-1.25));
#523=CARTESIAN_POINT('Origin',(0.,0.,-1.25));
#524=CARTESIAN_POINT('Origin',(0.,0.,-2.5));
#525=CARTESIAN_POINT('',(36.1484332679249,-8.85381261915119E-15,-2.77735009811262));
#526=CARTESIAN_POINT('',(-36.1484332679249,-4.4269063095756E-15,-2.77735009811262));
#527=CARTESIAN_POINT('Origin',(0.,-2.2134531547878E-15,-2.77735009811262));
#528=CARTESIAN_POINT('',(-35.732408120756,-4.37595792309107E-15,-3.));
#529=CARTESIAN_POINT('Origin',(-35.732408120756,-4.37595792309107E-15,-2.5));
#530=CARTESIAN_POINT('Origin',(0.,0.,-3.));
#531=CARTESIAN_POINT('Origin',(0.,-2.2134531547878E-15,-2.77735009811262));
#532=CARTESIAN_POINT('Origin',(0.,0.,-2.25));
#533=CARTESIAN_POINT('',(36.9313443441704,0.,-1.60298348374436));
#534=CARTESIAN_POINT('',(36.5,-4.46996081688784E-15,-2.25));
#535=CARTESIAN_POINT('Origin',(0.,-2.26139263196485E-15,-1.60298348374436));
#536=CARTESIAN_POINT('Origin',(0.,0.,-3.));
#537=CARTESIAN_POINT('',(35.,4.28626379701574E-15,-3.));
#538=CARTESIAN_POINT('Origin',(0.,0.,-3.));
#539=CARTESIAN_POINT('Origin',(0.,0.,-1.32563338563175));
#540=CARTESIAN_POINT('',(37.0076595985008,-4.53213118712388E-15,-1.41281669281587));
#541=CARTESIAN_POINT('Origin',(36.5153191970015,-4.47183687744518E-15,-1.32563338563175));
#542=CARTESIAN_POINT('Origin',(0.,0.,-1.41281669281587));
#543=CARTESIAN_POINT('Origin',(0.,0.,-1.5));
#544=CARTESIAN_POINT('',(37.5,0.,-1.));
#545=CARTESIAN_POINT('Origin',(0.,0.,-1.));
#546=CARTESIAN_POINT('Origin',(37.5,-4.59242549680258E-15,-1.5));
#547=CARTESIAN_POINT('Origin',(0.,0.,-1.));
#548=CARTESIAN_POINT('',(-38.5669872981078,-1.71429406713831E-14,-1.));
#549=CARTESIAN_POINT('Origin',(0.,0.,-1.));
#550=CARTESIAN_POINT('Origin',(0.,0.,-1.5));
#551=CARTESIAN_POINT('Origin',(-38.5669872981078,-7.69675316190622E-15,
-1.5));
#552=CARTESIAN_POINT('Origin',(0.,0.,2.5));
#553=CARTESIAN_POINT('',(36.1484332679249,8.85381261915119E-15,2.77735009811262));
#554=CARTESIAN_POINT('Origin',(0.,2.2134531547878E-15,2.77735009811262));
#555=CARTESIAN_POINT('',(35.732408120756,-4.37595792309107E-15,3.));
#556=CARTESIAN_POINT('Origin',(35.732408120756,-4.37595792309107E-15,2.5));
#557=CARTESIAN_POINT('Origin',(0.,0.,3.));
#558=CARTESIAN_POINT('Origin',(0.,0.,2.25));
#559=CARTESIAN_POINT('',(36.9160251471689,0.,1.62596227924662));
#560=CARTESIAN_POINT('',(36.5,4.46996081688784E-15,2.25));
#561=CARTESIAN_POINT('',(-36.9160251471689,-4.52090920337236E-15,1.62596227924662));
#562=CARTESIAN_POINT('Origin',(0.,2.26045460168618E-15,1.62596227924662));
#563=CARTESIAN_POINT('Origin',(0.,2.26045460168618E-15,1.62596227924662));
#564=CARTESIAN_POINT('Origin',(0.,0.,3.));
#565=CARTESIAN_POINT('',(35.,4.28626379701574E-15,3.));
#566=CARTESIAN_POINT('Origin',(0.,0.,3.));
#567=CARTESIAN_POINT('Ctrl Pts',(37.4884620912449,-0.0304342273695746,1.));
#568=CARTESIAN_POINT('Ctrl Pts',(37.4861938888669,-2.82437467576607,1.));
#569=CARTESIAN_POINT('Ctrl Pts',(36.8391040469135,-8.4749715089133,1.));
#570=CARTESIAN_POINT('Ctrl Pts',(34.0553540728378,-16.4182966840743,0.999999999999998));
#571=CARTESIAN_POINT('Ctrl Pts',(29.5126571541937,-23.6257989734277,1.));
#572=CARTESIAN_POINT('Ctrl Pts',(24.5540056694618,-28.5717288981365,0.999999999999998));
#573=CARTESIAN_POINT('Ctrl Pts',(19.3514150942035,-32.2526457729432,1.));
#574=CARTESIAN_POINT('Ctrl Pts',(14.3887712174404,-34.8102166350439,0.999999999999999));
#575=CARTESIAN_POINT('Ctrl Pts',(7.64504129778989,-36.9479878245584,1.));
#576=CARTESIAN_POINT('Ctrl Pts',(-0.0383857240599954,-37.8065925434332,
0.999999999999998));
#577=CARTESIAN_POINT('Ctrl Pts',(-9.42001566136084,-36.7318218828301,1.));
#578=CARTESIAN_POINT('Ctrl Pts',(-17.2972669821927,-33.6299652353633,0.999999999999999));
#579=CARTESIAN_POINT('Ctrl Pts',(-22.558207489736,-30.0303036456555,1.));
#580=CARTESIAN_POINT('Ctrl Pts',(-25.3929446365067,-27.6266286514781,1.));
#581=CARTESIAN_POINT('Ctrl Pts',(-29.3929968346024,-23.6906479568193,1.));
#582=CARTESIAN_POINT('Ctrl Pts',(-34.3247647830571,-16.4347706611828,0.999999999999999));
#583=CARTESIAN_POINT('Ctrl Pts',(-37.3401195465816,-6.54808630025469,1.));
#584=CARTESIAN_POINT('Ctrl Pts',(-37.7056089670764,2.80225603345397,1.));
#585=CARTESIAN_POINT('Ctrl Pts',(-36.2905317798029,10.241970037408,1.));
#586=CARTESIAN_POINT('Ctrl Pts',(-33.2282377006138,18.054355496647,1.));
#587=CARTESIAN_POINT('Ctrl Pts',(-29.2030367616781,23.9592612999623,1.));
#588=CARTESIAN_POINT('Ctrl Pts',(-25.1822601170559,27.820870512384,0.999999999999999));
#589=CARTESIAN_POINT('Ctrl Pts',(-19.398641376493,32.6168708154418,1.));
#590=CARTESIAN_POINT('Ctrl Pts',(-12.090996799754,36.1314647675526,0.999999999999999));
#591=CARTESIAN_POINT('Ctrl Pts',(-4.17132088393852,37.3170346703778,1.));
#592=CARTESIAN_POINT('Ctrl Pts',(-0.451144418919287,37.5227537046727,1.));
#593=CARTESIAN_POINT('Ctrl Pts',(4.21199257153774,37.4385019450709,0.999999999999999));
#594=CARTESIAN_POINT('Ctrl Pts',(11.1897265802931,36.1099578497361,1.));
#595=CARTESIAN_POINT('Ctrl Pts',(18.0354345390951,33.116452350046,0.999999999999999));
#596=CARTESIAN_POINT('Ctrl Pts',(22.5285149049535,30.0545621694353,1.));
#597=CARTESIAN_POINT('Ctrl Pts',(26.0809137427902,27.0452593895215,1.));
#598=CARTESIAN_POINT('Ctrl Pts',(29.9441012470706,22.9605030777492,1.));
#599=CARTESIAN_POINT('Ctrl Pts',(34.0829297219398,16.3576098117177,0.999999999999999));
#600=CARTESIAN_POINT('Ctrl Pts',(36.1602334656752,10.397452707058,1.));
#601=CARTESIAN_POINT('Ctrl Pts',(37.2607000031419,4.85534245945293,1.));
#602=CARTESIAN_POINT('Ctrl Pts',(37.4901632430284,2.06502110892775,1.));
#603=CARTESIAN_POINT('Ctrl Pts',(37.4884620912449,-0.03043422736957,1.));
#604=CARTESIAN_POINT('Ctrl Pts',(37.3702267798974,-0.0303382404939352,1.));
#605=CARTESIAN_POINT('Ctrl Pts',(37.3679657397428,-2.81545636074451,1.));
#606=CARTESIAN_POINT('Ctrl Pts',(36.7229157085338,-8.44824927757324,1.));
#607=CARTESIAN_POINT('Ctrl Pts',(33.9479464069645,-16.3665125132598,0.999999999999998));
#608=CARTESIAN_POINT('Ctrl Pts',(29.4195762036443,-23.551286289588,1.));
#609=CARTESIAN_POINT('Ctrl Pts',(24.4765650497375,-28.4816152930855,0.999999999999998));
#610=CARTESIAN_POINT('Ctrl Pts',(19.2903807301162,-32.1509241011593,1.));
#611=CARTESIAN_POINT('Ctrl Pts',(14.3433908696165,-34.700428289158,0.999999999999999));
#612=CARTESIAN_POINT('Ctrl Pts',(7.6209301348491,-36.8314555235298,1.));
#613=CARTESIAN_POINT('Ctrl Pts',(-0.0382639552884907,-37.687355109959,0.999999999999998));
#614=CARTESIAN_POINT('Ctrl Pts',(-9.39030807264498,-36.615970072463,1.));
#615=CARTESIAN_POINT('Ctrl Pts',(-17.2427102781489,-33.5239018105388,0.999999999999999));
#616=CARTESIAN_POINT('Ctrl Pts',(-22.4870643329241,-29.9355869391983,1.));
#617=CARTESIAN_POINT('Ctrl Pts',(-25.312856517665,-27.5394975770905,1.));
#618=CARTESIAN_POINT('Ctrl Pts',(-29.3002918296214,-23.6159310559149,1.));
#619=CARTESIAN_POINT('Ctrl Pts',(-34.2165084337299,-16.3829359118405,0.999999999999999));
#620=CARTESIAN_POINT('Ctrl Pts',(-37.2223512493063,-6.52743435546764,1.));
#621=CARTESIAN_POINT('Ctrl Pts',(-37.5866887016241,2.79341918794701,1.));
#622=CARTESIAN_POINT('Ctrl Pts',(-36.1760742756032,10.2096671897312,1.));
#623=CARTESIAN_POINT('Ctrl Pts',(-33.1234389194591,17.9974128277801,1.));
#624=CARTESIAN_POINT('Ctrl Pts',(-29.1109320940578,23.8836968028235,1.));
#625=CARTESIAN_POINT('Ctrl Pts',(-25.1028364240399,27.733126343061,0.999999999999999));
#626=CARTESIAN_POINT('Ctrl Pts',(-19.3374641057634,32.5139969039317,1.));
#627=CARTESIAN_POINT('Ctrl Pts',(-12.0528598661067,36.0175107550284,0.999999999999999));
#628=CARTESIAN_POINT('Ctrl Pts',(-4.15816281330941,37.1993397378551,1.));
#629=CARTESIAN_POINT('Ctrl Pts',(-0.449723006231005,37.4044100615857,1.));
#630=CARTESIAN_POINT('Ctrl Pts',(4.19870658856641,37.3204239681582,0.999999999999999));
#631=CARTESIAN_POINT('Ctrl Pts',(11.1544374300946,35.9960693538483,1.));
#632=CARTESIAN_POINT('Ctrl Pts',(17.9785506433595,33.0120063988734,0.999999999999999));
#633=CARTESIAN_POINT('Ctrl Pts',(22.4574630856396,29.9597714529009,1.));
#634=CARTESIAN_POINT('Ctrl Pts',(25.998655203297,26.9599624424233,1.));
#635=CARTESIAN_POINT('Ctrl Pts',(29.8496603421767,22.8880859904453,1.));
#636=CARTESIAN_POINT('Ctrl Pts',(33.9754344444029,16.3060219813657,0.999999999999999));
#637=CARTESIAN_POINT('Ctrl Pts',(36.0461875678907,10.3646557583857,1.));
#638=CARTESIAN_POINT('Ctrl Pts',(37.1431824987257,4.84003317459234,1.));
#639=CARTESIAN_POINT('Ctrl Pts',(37.3719225600134,2.05850034969393,1.));
#640=CARTESIAN_POINT('Ctrl Pts',(37.3702267798974,-0.0303382404939307,1.));
#641=CARTESIAN_POINT('Ctrl Pts',(37.1344117997716,-0.0301467990124245,1.08759750513619));
#642=CARTESIAN_POINT('Ctrl Pts',(37.1321650017399,-2.79772166846754,1.08759750513619));
#643=CARTESIAN_POINT('Ctrl Pts',(36.4911885547362,-8.39491754293211,1.08759750513619));
#644=CARTESIAN_POINT('Ctrl Pts',(33.7337270522648,-16.2632428765217,1.08759750513619));
#645=CARTESIAN_POINT('Ctrl Pts',(29.2339335930131,-23.4026690688926,1.08759750513619));
#646=CARTESIAN_POINT('Ctrl Pts',(24.3221104638604,-28.3018922173885,1.08759750513619));
#647=CARTESIAN_POINT('Ctrl Pts',(19.1686589774293,-31.9480431487872,1.08759750513619));
#648=CARTESIAN_POINT('Ctrl Pts',(14.2528789620341,-34.4814603248987,1.08759750513619));
#649=CARTESIAN_POINT('Ctrl Pts',(7.57283838410823,-36.5990451186413,1.08759750513619));
#650=CARTESIAN_POINT('Ctrl Pts',(-0.0380246145302291,-37.4495352694839,
1.08759750513619));
#651=CARTESIAN_POINT('Ctrl Pts',(-9.33104605897691,-36.3849232705954,1.08759750513619));
#652=CARTESIAN_POINT('Ctrl Pts',(-17.1339126422534,-33.3123504598192,1.08759750513619));
#653=CARTESIAN_POINT('Ctrl Pts',(-22.3451552816837,-29.7466976258936,1.08759750513619));
#654=CARTESIAN_POINT('Ctrl Pts',(-25.1531294198102,-27.3657141764984,1.08759750513619));
#655=CARTESIAN_POINT('Ctrl Pts',(-29.1154062957677,-23.4669049772795,1.08759750513619));
#656=CARTESIAN_POINT('Ctrl Pts',(-34.0005913418532,-16.2795584965823,1.08759750513619));
#657=CARTESIAN_POINT('Ctrl Pts',(-36.9874719383517,-6.48624426838442,1.08759750513619));
#658=CARTESIAN_POINT('Ctrl Pts',(-37.3495080718112,2.77578837547256,1.08759750513619));
#659=CARTESIAN_POINT('Ctrl Pts',(-35.9477957611496,10.1452435003944,1.08759750513619));
#660=CARTESIAN_POINT('Ctrl Pts',(-32.9144217038688,17.8838473547105,1.08759750513619));
#661=CARTESIAN_POINT('Ctrl Pts',(-28.9272377995296,23.7329823009064,1.08759750513619));
#662=CARTESIAN_POINT('Ctrl Pts',(-24.9444347667919,27.5581225207983,1.08759750513619));
#663=CARTESIAN_POINT('Ctrl Pts',(-19.215427096211,32.3088354097818,1.08759750513619));
#664=CARTESIAN_POINT('Ctrl Pts',(-11.976812459995,35.7902273809384,1.08759750513619));
#665=CARTESIAN_POINT('Ctrl Pts',(-4.13193010525335,36.9646039612517,1.08759750513619));
#666=CARTESIAN_POINT('Ctrl Pts',(-0.446880769717208,37.1683799146785,1.08759750513619));
#667=CARTESIAN_POINT('Ctrl Pts',(4.17221695032482,37.08492396303,1.08759750513619));
#668=CARTESIAN_POINT('Ctrl Pts',(11.0840434894689,35.7689282332627,1.08759750513619));
#669=CARTESIAN_POINT('Ctrl Pts',(17.8651069048726,32.8036915412143,1.08759750513619));
#670=CARTESIAN_POINT('Ctrl Pts',(22.3157477664825,29.7707220209313,1.08759750513619));
#671=CARTESIAN_POINT('Ctrl Pts',(25.8346024359793,26.7898344240055,1.08759750513619));
#672=CARTESIAN_POINT('Ctrl Pts',(29.6613014481989,22.7436617972296,1.08759750513619));
#673=CARTESIAN_POINT('Ctrl Pts',(33.7610435580098,16.2031192139746,1.08759750513619));
#674=CARTESIAN_POINT('Ctrl Pts',(35.8187266954046,10.299265238073,1.08759750513619));
#675=CARTESIAN_POINT('Ctrl Pts',(36.9088018281313,4.80947928685176,1.08759750513619));
#676=CARTESIAN_POINT('Ctrl Pts',(37.1360968982954,2.04553435307881,1.08759750513619));
#677=CARTESIAN_POINT('Ctrl Pts',(37.1344117997716,-0.0301467990124202,1.08759750513619));
#678=CARTESIAN_POINT('Ctrl Pts',(37.0121244175404,-0.0300475225474098,1.30743346829709));
#679=CARTESIAN_POINT('Ctrl Pts',(37.0098850758407,-2.78843778493347,1.30743346829709));
#680=CARTESIAN_POINT('Ctrl Pts',(36.3710123245355,-8.36731998847264,1.30743346829709));
#681=CARTESIAN_POINT('Ctrl Pts',(33.622637962675,-16.2096708104538,1.30743346829709));
#682=CARTESIAN_POINT('Ctrl Pts',(29.1376590634467,-23.3256085014759,1.30743346829709));
#683=CARTESIAN_POINT('Ctrl Pts',(24.2420190240672,-28.2086852452077,1.30743346829709));
#684=CARTESIAN_POINT('Ctrl Pts',(19.1055231552265,-31.8428372665753,1.30743346829709));
#685=CARTESIAN_POINT('Ctrl Pts',(14.2059466351046,-34.3679094813569,1.30743346829709));
#686=CARTESIAN_POINT('Ctrl Pts',(7.54790447206149,-36.4785099785196,1.30743346829709));
#687=CARTESIAN_POINT('Ctrl Pts',(-0.0378946516211237,-37.3262184697176,
1.30743346829709));
#688=CARTESIAN_POINT('Ctrl Pts',(-9.30033356721243,-36.2650846402591,1.30743346829709));
#689=CARTESIAN_POINT('Ctrl Pts',(-17.0774710917548,-33.2026665511207,1.30743346829709));
#690=CARTESIAN_POINT('Ctrl Pts',(-22.2715936491109,-29.648713310526,1.30743346829709));
#691=CARTESIAN_POINT('Ctrl Pts',(-25.0702908356332,-27.2756020521255,1.30743346829709));
#692=CARTESIAN_POINT('Ctrl Pts',(-29.0195122944705,-23.3896349709724,1.30743346829709));
#693=CARTESIAN_POINT('Ctrl Pts',(-33.8886302797246,-16.2259419993572,1.30743346829709));
#694=CARTESIAN_POINT('Ctrl Pts',(-36.8656627446173,-6.46488537494759,1.30743346829709));
#695=CARTESIAN_POINT('Ctrl Pts',(-37.2265117356784,2.76665567262248,1.30743346829709));
#696=CARTESIAN_POINT('Ctrl Pts',(-35.829413600699,10.1118303065742,1.30743346829709));
#697=CARTESIAN_POINT('Ctrl Pts',(-32.8060322371641,17.824948503655,1.30743346829709));
#698=CARTESIAN_POINT('Ctrl Pts',(-28.8319716822853,23.6548332876901,1.30743346829709));
#699=CARTESIAN_POINT('Ctrl Pts',(-24.8622830670189,27.4673735856303,1.30743346829709));
#700=CARTESIAN_POINT('Ctrl Pts',(-19.1521779938523,32.2024177622507,1.30743346829709));
#701=CARTESIAN_POINT('Ctrl Pts',(-11.9373514185,35.6723763020604,1.30743346829709));
#702=CARTESIAN_POINT('Ctrl Pts',(-4.11830913795314,36.8428738303384,1.30743346829709));
#703=CARTESIAN_POINT('Ctrl Pts',(-0.445418970970793,37.0459794650062,1.30743346829709));
#704=CARTESIAN_POINT('Ctrl Pts',(4.15846575914648,36.9627979615499,1.30743346829709));
#705=CARTESIAN_POINT('Ctrl Pts',(11.0475578695061,35.6511316900557,1.30743346829709));
#706=CARTESIAN_POINT('Ctrl Pts',(17.806263686742,32.6956685327395,1.30743346829709));
#707=CARTESIAN_POINT('Ctrl Pts',(22.2422673981477,29.6726754419841,1.30743346829709));
#708=CARTESIAN_POINT('Ctrl Pts',(25.7495154669994,26.7016223696367,1.30743346829709));
#709=CARTESIAN_POINT('Ctrl Pts',(29.5636248282406,22.6687532818883,1.30743346829709));
#710=CARTESIAN_POINT('Ctrl Pts',(33.6498601937453,16.1497784461897,1.30743346829709));
#711=CARTESIAN_POINT('Ctrl Pts',(35.7007740023991,10.2653197364492,1.30743346829709));
#712=CARTESIAN_POINT('Ctrl Pts',(36.7872537973708,4.79366841178317,1.30743346829709));
#713=CARTESIAN_POINT('Ctrl Pts',(37.0138039238152,2.03874517424202,1.30743346829709));
#714=CARTESIAN_POINT('Ctrl Pts',(37.0121244175404,-0.0300475225474055,1.30743346829709));
#715=CARTESIAN_POINT('Ctrl Pts',(36.9942250316426,-0.030032991303667,1.424306090567));
#716=CARTESIAN_POINT('Ctrl Pts',(36.9919867325898,-2.78713893556507,1.424306090567));
#717=CARTESIAN_POINT('Ctrl Pts',(36.3534279362687,-8.363239931646,1.424306090567));
#718=CARTESIAN_POINT('Ctrl Pts',(33.6063781180571,-16.2018426012937,1.424306090567));
#719=CARTESIAN_POINT('Ctrl Pts',(29.1235708039071,-23.314323261595,1.424306090567));
#720=CARTESIAN_POINT('Ctrl Pts',(24.2302927485637,-28.1950474742894,1.424306090567));
#721=CARTESIAN_POINT('Ctrl Pts',(19.0962916252272,-31.8274362038651,1.424306090567));
#722=CARTESIAN_POINT('Ctrl Pts',(14.1990738123964,-34.351288790206,1.424306090567));
#723=CARTESIAN_POINT('Ctrl Pts',(7.54425128078781,-36.4608762216288,1.424306090567));
#724=CARTESIAN_POINT('Ctrl Pts',(-0.0378796577576772,-37.3081613438079,
1.424306090567));
#725=CARTESIAN_POINT('Ctrl Pts',(-9.29582489486454,-36.2475601492594,1.424306090567));
#726=CARTESIAN_POINT('Ctrl Pts',(-17.0692248088001,-33.186597484187,1.424306090567));
#727=CARTESIAN_POINT('Ctrl Pts',(-22.2608065957626,-29.6343927934933,1.424306090567));
#728=CARTESIAN_POINT('Ctrl Pts',(-25.0581713865066,-27.2624071563899,1.424306090567));
#729=CARTESIAN_POINT('Ctrl Pts',(-29.005488051418,-23.3783172947144,1.424306090567));
#730=CARTESIAN_POINT('Ctrl Pts',(-33.8722369952639,-16.2180993902448,1.424306090567));
#731=CARTESIAN_POINT('Ctrl Pts',(-36.847838192255,-6.46175822119977,1.424306090567));
#732=CARTESIAN_POINT('Ctrl Pts',(-37.2085091057632,2.76531189904653,1.424306090567));
#733=CARTESIAN_POINT('Ctrl Pts',(-35.8120878875301,10.1069428617531,1.424306090567));
#734=CARTESIAN_POINT('Ctrl Pts',(-32.7901662092587,17.8163320868854,1.424306090567));
#735=CARTESIAN_POINT('Ctrl Pts',(-28.818032357245,23.6433893171022,1.424306090567));
#736=CARTESIAN_POINT('Ctrl Pts',(-24.8502644709261,27.454088188688,1.424306090567));
#737=CARTESIAN_POINT('Ctrl Pts',(-19.1428952898474,32.1868594085717,1.42430609056701));
#738=CARTESIAN_POINT('Ctrl Pts',(-11.9315925891618,35.6551179688395,1.424306090567));
#739=CARTESIAN_POINT('Ctrl Pts',(-4.11632739385302,36.8250576603933,1.424306090567));
#740=CARTESIAN_POINT('Ctrl Pts',(-0.445196661165983,37.0280645543404,1.424306090567));
#741=CARTESIAN_POINT('Ctrl Pts',(4.15646287766668,36.94492354561,1.424306090567));
#742=CARTESIAN_POINT('Ctrl Pts',(11.0422044560369,35.6338945920175,1.424306090567));
#743=CARTESIAN_POINT('Ctrl Pts',(17.7976605777745,32.6798546044754,1.424306090567));
#744=CARTESIAN_POINT('Ctrl Pts',(22.2315054694442,29.6583314999001,1.424306090567));
#745=CARTESIAN_POINT('Ctrl Pts',(25.7370705067405,26.6887024989153,1.424306090567));
#746=CARTESIAN_POINT('Ctrl Pts',(29.5493268624408,22.6577984349042,1.424306090567));
#747=CARTESIAN_POINT('Ctrl Pts',(33.6335902177638,16.1419558071392,1.424306090567));
#748=CARTESIAN_POINT('Ctrl Pts',(35.6835073887529,10.2603756927814,1.424306090567));
#749=CARTESIAN_POINT('Ctrl Pts',(36.769465693144,4.79133102642372,1.424306090567));
#750=CARTESIAN_POINT('Ctrl Pts',(36.9959037559322,2.03779646689226,1.424306090567));
#751=CARTESIAN_POINT('Ctrl Pts',(36.9942250316426,-0.0300329913036627,1.424306090567));
#752=CARTESIAN_POINT('',(36.9942250316426,-0.0300329913036626,1.424306090567));
#753=CARTESIAN_POINT('',(37.4884620912449,-0.0304342273695699,1.));
#754=CARTESIAN_POINT('Origin',(37.4884620912449,-0.0304342273695699,1.5));
#755=CARTESIAN_POINT('Ctrl Pts',(37.4884620912449,-0.03043422736957,1.));
#756=CARTESIAN_POINT('Ctrl Pts',(37.4901632430284,2.06502110892775,1.));
#757=CARTESIAN_POINT('Ctrl Pts',(37.2607000031419,4.85534245945293,1.));
#758=CARTESIAN_POINT('Ctrl Pts',(36.1602334656752,10.397452707058,1.));
#759=CARTESIAN_POINT('Ctrl Pts',(34.0829297219398,16.3576098117177,0.999999999999999));
#760=CARTESIAN_POINT('Ctrl Pts',(29.9441012470706,22.9605030777492,1.));
#761=CARTESIAN_POINT('Ctrl Pts',(26.0809137427902,27.0452593895215,1.));
#762=CARTESIAN_POINT('Ctrl Pts',(22.5285149049535,30.0545621694353,1.));
#763=CARTESIAN_POINT('Ctrl Pts',(18.0354345390951,33.116452350046,0.999999999999999));
#764=CARTESIAN_POINT('Ctrl Pts',(11.1897265802931,36.1099578497361,1.));
#765=CARTESIAN_POINT('Ctrl Pts',(4.21199257153774,37.4385019450709,0.999999999999999));
#766=CARTESIAN_POINT('Ctrl Pts',(-0.451144418919287,37.5227537046727,1.));
#767=CARTESIAN_POINT('Ctrl Pts',(-4.17132088393852,37.3170346703778,1.));
#768=CARTESIAN_POINT('Ctrl Pts',(-12.090996799754,36.1314647675526,0.999999999999999));
#769=CARTESIAN_POINT('Ctrl Pts',(-19.398641376493,32.6168708154418,1.));
#770=CARTESIAN_POINT('Ctrl Pts',(-25.1822601170559,27.820870512384,0.999999999999999));
#771=CARTESIAN_POINT('Ctrl Pts',(-29.2030367616781,23.9592612999623,1.));
#772=CARTESIAN_POINT('Ctrl Pts',(-33.2282377006138,18.054355496647,1.));
#773=CARTESIAN_POINT('Ctrl Pts',(-36.2905317798029,10.241970037408,1.));
#774=CARTESIAN_POINT('Ctrl Pts',(-37.7056089670764,2.80225603345397,1.));
#775=CARTESIAN_POINT('Ctrl Pts',(-37.3401195465816,-6.54808630025469,1.));
#776=CARTESIAN_POINT('Ctrl Pts',(-34.3247647830571,-16.4347706611828,0.999999999999999));
#777=CARTESIAN_POINT('Ctrl Pts',(-29.3929968346024,-23.6906479568193,1.));
#778=CARTESIAN_POINT('Ctrl Pts',(-25.3929446365067,-27.6266286514781,1.));
#779=CARTESIAN_POINT('Ctrl Pts',(-22.558207489736,-30.0303036456555,1.));
#780=CARTESIAN_POINT('Ctrl Pts',(-17.2972669821927,-33.6299652353633,0.999999999999999));
#781=CARTESIAN_POINT('Ctrl Pts',(-9.42001566136084,-36.7318218828301,1.));
#782=CARTESIAN_POINT('Ctrl Pts',(-0.0383857240599954,-37.8065925434332,
0.999999999999998));
#783=CARTESIAN_POINT('Ctrl Pts',(7.64504129778989,-36.9479878245584,1.));
#784=CARTESIAN_POINT('Ctrl Pts',(14.3887712174404,-34.8102166350439,0.999999999999999));
#785=CARTESIAN_POINT('Ctrl Pts',(19.3514150942035,-32.2526457729432,1.));
#786=CARTESIAN_POINT('Ctrl Pts',(24.5540056694618,-28.5717288981365,0.999999999999998));
#787=CARTESIAN_POINT('Ctrl Pts',(29.5126571541937,-23.6257989734277,1.));
#788=CARTESIAN_POINT('Ctrl Pts',(34.0553540728378,-16.4182966840743,0.999999999999998));
#789=CARTESIAN_POINT('Ctrl Pts',(36.8391040469135,-8.4749715089133,1.));
#790=CARTESIAN_POINT('Ctrl Pts',(37.4861938888669,-2.82437467576607,1.));
#791=CARTESIAN_POINT('Ctrl Pts',(37.4884620912449,-0.0304342273695746,1.));
#792=CARTESIAN_POINT('',(-36.9953991630731,-0.00298072996806772,1.424306090567));
#793=CARTESIAN_POINT('Ctrl Pts',(36.9942250316426,-0.030032991303667,1.424306090567));
#794=CARTESIAN_POINT('Ctrl Pts',(36.9919867325898,-2.78713893556507,1.424306090567));
#795=CARTESIAN_POINT('Ctrl Pts',(36.3534279362687,-8.363239931646,1.424306090567));
#796=CARTESIAN_POINT('Ctrl Pts',(33.6063781180571,-16.2018426012937,1.424306090567));
#797=CARTESIAN_POINT('Ctrl Pts',(29.1235708039071,-23.314323261595,1.424306090567));
#798=CARTESIAN_POINT('Ctrl Pts',(24.2302927485637,-28.1950474742894,1.424306090567));
#799=CARTESIAN_POINT('Ctrl Pts',(19.0962916252272,-31.8274362038651,1.424306090567));
#800=CARTESIAN_POINT('Ctrl Pts',(14.1990738123964,-34.351288790206,1.424306090567));
#801=CARTESIAN_POINT('Ctrl Pts',(7.54425128078781,-36.4608762216288,1.424306090567));
#802=CARTESIAN_POINT('Ctrl Pts',(-0.0378796577576772,-37.3081613438079,
1.424306090567));
#803=CARTESIAN_POINT('Ctrl Pts',(-9.29582489486454,-36.2475601492594,1.424306090567));
#804=CARTESIAN_POINT('Ctrl Pts',(-17.0692248088001,-33.186597484187,1.424306090567));
#805=CARTESIAN_POINT('Ctrl Pts',(-22.2608065957626,-29.6343927934933,1.424306090567));
#806=CARTESIAN_POINT('Ctrl Pts',(-25.0581713865066,-27.2624071563899,1.424306090567));
#807=CARTESIAN_POINT('Ctrl Pts',(-29.005488051418,-23.3783172947144,1.424306090567));
#808=CARTESIAN_POINT('Ctrl Pts',(-33.8722369952639,-16.2180993902448,1.424306090567));
#809=CARTESIAN_POINT('Ctrl Pts',(-36.5773289925285,-7.34869832747659,1.424306090567));
#810=CARTESIAN_POINT('Ctrl Pts',(-36.9946819192411,-1.84311360311264,1.424306090567));
#811=CARTESIAN_POINT('Ctrl Pts',(-36.9955351468414,-0.0033295695666119,
1.424306090567));
#812=CARTESIAN_POINT('Ctrl Pts',(-36.9955351468414,-0.0033295695666119,
1.424306090567));
#813=CARTESIAN_POINT('Ctrl Pts',(-36.9959617606416,0.916562447206403,1.424306090567));
#814=CARTESIAN_POINT('Ctrl Pts',(-36.8594038012049,4.60071963972318,1.424306090567));
#815=CARTESIAN_POINT('Ctrl Pts',(-35.8120878875301,10.1069428617531,1.424306090567));
#816=CARTESIAN_POINT('Ctrl Pts',(-32.7901662092587,17.8163320868854,1.424306090567));
#817=CARTESIAN_POINT('Ctrl Pts',(-28.818032357245,23.6433893171022,1.424306090567));
#818=CARTESIAN_POINT('Ctrl Pts',(-24.8502644709261,27.454088188688,1.424306090567));
#819=CARTESIAN_POINT('Ctrl Pts',(-19.1428952898474,32.1868594085717,1.42430609056701));
#820=CARTESIAN_POINT('Ctrl Pts',(-11.9315925891618,35.6551179688395,1.424306090567));
#821=CARTESIAN_POINT('Ctrl Pts',(-4.11632739385302,36.8250576603933,1.424306090567));
#822=CARTESIAN_POINT('Ctrl Pts',(-0.445196661165983,37.0280645543404,1.424306090567));
#823=CARTESIAN_POINT('Ctrl Pts',(4.15646287766668,36.94492354561,1.424306090567));
#824=CARTESIAN_POINT('Ctrl Pts',(11.0422044560369,35.6338945920175,1.424306090567));
#825=CARTESIAN_POINT('Ctrl Pts',(17.7976605777745,32.6798546044754,1.424306090567));
#826=CARTESIAN_POINT('Ctrl Pts',(22.2315054694442,29.6583314999001,1.424306090567));
#827=CARTESIAN_POINT('Ctrl Pts',(25.7370705067405,26.6887024989153,1.424306090567));
#828=CARTESIAN_POINT('Ctrl Pts',(29.5493268624408,22.6577984349042,1.424306090567));
#829=CARTESIAN_POINT('Ctrl Pts',(33.6335902177638,16.1419558071392,1.424306090567));
#830=CARTESIAN_POINT('Ctrl Pts',(35.6835073887529,10.2603756927814,1.424306090567));
#831=CARTESIAN_POINT('Ctrl Pts',(36.769465693144,4.79133102642372,1.424306090567));
#832=CARTESIAN_POINT('Ctrl Pts',(36.9959037559322,2.03779646689226,1.424306090567));
#833=CARTESIAN_POINT('Ctrl Pts',(36.9942250316426,-0.0300329913036627,1.424306090567));
#834=CARTESIAN_POINT('Origin',(0.,0.,1.));
#835=CARTESIAN_POINT('',(-38.7715748741261,-4.74814850675004E-15,1.));
#836=CARTESIAN_POINT('Origin',(0.,0.,1.));
#837=CARTESIAN_POINT('Origin',(0.,0.,1.348612181134));
#838=CARTESIAN_POINT('Origin',(-36.5,-4.46996081688784E-15,1.348612181134));
#839=CARTESIAN_POINT('Origin',(0.,0.,1.5));
#840=CARTESIAN_POINT('',(-39.1022937880091,-4.78864989268048E-15,1.125));
#841=CARTESIAN_POINT('Origin',(0.,0.,1.125));
#842=CARTESIAN_POINT('Origin',(-38.7715748741261,-4.74814850675004E-15,
1.5));
#843=CARTESIAN_POINT('Origin',(0.,0.,0.75));
#844=CARTESIAN_POINT('',(-39.4330127018922,-1.06057523872491E-16,1.25));
#845=CARTESIAN_POINT('Origin',(-39.4330127018922,9.55224503334935E-15,0.75));
#846=CARTESIAN_POINT('Origin',(0.,0.,1.25));
#847=CARTESIAN_POINT('Origin',(0.,0.,1.25));
#848=CARTESIAN_POINT('',(-41.,-5.02105187650415E-15,1.25));
#849=CARTESIAN_POINT('Origin',(0.,0.,1.25));
#850=CARTESIAN_POINT('Origin',(0.,0.,0.));
#851=CARTESIAN_POINT('',(-41.,5.02105187650415E-15,-1.14564392373894));
#852=CARTESIAN_POINT('',(41.,-5.02105187650415E-15,-1.14564392373894));
#853=CARTESIAN_POINT('Origin',(0.,0.,-1.14564392373894));
#854=CARTESIAN_POINT('Origin',(0.,0.,-1.14564392373894));
#855=CARTESIAN_POINT('',(41.,-5.02105187650415E-15,1.14564392373894));
#856=CARTESIAN_POINT('Origin',(43.5,-5.32721357629099E-15,0.));
#857=CARTESIAN_POINT('',(-41.,-5.02105187650415E-15,1.14564392373894));
#858=CARTESIAN_POINT('Origin',(0.,0.,1.14564392373894));
#859=CARTESIAN_POINT('Origin',(0.,0.,1.14564392373894));
#860=CARTESIAN_POINT('Origin',(0.,0.,0.));
#861=CARTESIAN_POINT('',(-41.,-5.02105187650415E-15,0.));
#862=CARTESIAN_POINT('Origin',(0.,0.,0.));
#863=CARTESIAN_POINT('',(-41.,-5.02105187650415E-15,0.));
#864=CARTESIAN_POINT('Origin',(0.,0.,0.));
#865=CARTESIAN_POINT('',(35.,4.28626379701574E-15,0.));
#866=UNCERTAINTY_MEASURE_WITH_UNIT(LENGTH_MEASURE(0.01),#870,
'DISTANCE_ACCURACY_VALUE',
'Maximum model space distance between geometric entities at asserted c
onnectivities');
#867=UNCERTAINTY_MEASURE_WITH_UNIT(LENGTH_MEASURE(0.01),#870,
'DISTANCE_ACCURACY_VALUE',
'Maximum model space distance between geometric entities at asserted c
onnectivities');
#868=(
GEOMETRIC_REPRESENTATION_CONTEXT(3)
GLOBAL_UNCERTAINTY_ASSIGNED_CONTEXT((#866))
GLOBAL_UNIT_ASSIGNED_CONTEXT((#870,#872,#873))
REPRESENTATION_CONTEXT('','3D')
);
#869=(
GEOMETRIC_REPRESENTATION_CONTEXT(3)
GLOBAL_UNCERTAINTY_ASSIGNED_CONTEXT((#867))
GLOBAL_UNIT_ASSIGNED_CONTEXT((#870,#872,#873))
REPRESENTATION_CONTEXT('','3D')
);
#870=(
LENGTH_UNIT()
NAMED_UNIT(*)
SI_UNIT(.MILLI.,.METRE.)
);
#871=(
LENGTH_UNIT()
NAMED_UNIT(*)
SI_UNIT(.CENTI.,.METRE.)
);
#872=(
NAMED_UNIT(*)
PLANE_ANGLE_UNIT()
SI_UNIT($,.RADIAN.)
);
#873=(
NAMED_UNIT(*)
SI_UNIT($,.STERADIAN.)
SOLID_ANGLE_UNIT()
);
#874=SHAPE_DEFINITION_REPRESENTATION(#875,#876);
#875=PRODUCT_DEFINITION_SHAPE('',$,#878);
#876=SHAPE_REPRESENTATION('',(#338),#868);
#877=PRODUCT_DEFINITION_CONTEXT('part definition',#882,'design');
#878=PRODUCT_DEFINITION('Part1','Part1',#879,#877);
#879=PRODUCT_DEFINITION_FORMATION('',$,#884);
#880=PRODUCT_RELATED_PRODUCT_CATEGORY('Part1','Part1',(#884));
#881=APPLICATION_PROTOCOL_DEFINITION('international standard',
'automotive_design',2009,#882);
#882=APPLICATION_CONTEXT(
'Core Data for Automotive Mechanical Design Process');
#883=PRODUCT_CONTEXT('part definition',#882,'mechanical');
#884=PRODUCT('Part1','Part1',$,(#883));
#885=PRESENTATION_STYLE_ASSIGNMENT((#886));
#886=SURFACE_STYLE_USAGE(.BOTH.,#889);
#887=SURFACE_STYLE_RENDERING_WITH_PROPERTIES($,#893,(#888));
#888=SURFACE_STYLE_TRANSPARENT(0.);
#889=SURFACE_SIDE_STYLE('',(#890,#887));
#890=SURFACE_STYLE_FILL_AREA(#891);
#891=FILL_AREA_STYLE('',(#892));
#892=FILL_AREA_STYLE_COLOUR('',#893);
#893=COLOUR_RGB('',0.749019607843137,0.749019607843137,0.749019607843137);
ENDSEC;
END-ISO-10303-21;
