%TF.GenerationSoftware,KiCad,Pcbnew,10.0.3*%
%TF.CreationDate,2026-05-31T17:21:46+02:00*%
%TF.ProjectId,carrier,63617272-6965-4722-9e6b-696361645f70,rev?*%
%TF.SameCoordinates,Original*%
%TF.FileFunction,Soldermask,Bot*%
%TF.FilePolarity,Negative*%
%FSLAX46Y46*%
G04 Gerber Fmt 4.6, Leading zero omitted, Abs format (unit mm)*
G04 Created by KiCad (PCBNEW 10.0.3) date 2026-05-31 17:21:46*
%MOMM*%
%LPD*%
G01*
G04 APERTURE LIST*
G04 APERTURE END LIST*
G36*
X121563000Y-58674000D02*
G01*
X118563000Y-58674000D01*
X118563000Y-57674000D01*
X121563000Y-57674000D01*
X121563000Y-58674000D01*
G37*
G36*
X126603000Y-58674000D02*
G01*
X123603000Y-58674000D01*
X123603000Y-57674000D01*
X126603000Y-57674000D01*
X126603000Y-58674000D01*
G37*
G36*
X121563000Y-56134000D02*
G01*
X118563000Y-56134000D01*
X118563000Y-55134000D01*
X121563000Y-55134000D01*
X121563000Y-56134000D01*
G37*
G36*
X126603000Y-56134000D02*
G01*
X123603000Y-56134000D01*
X123603000Y-55134000D01*
X126603000Y-55134000D01*
X126603000Y-56134000D01*
G37*
G36*
X121563000Y-53594000D02*
G01*
X118563000Y-53594000D01*
X118563000Y-52594000D01*
X121563000Y-52594000D01*
X121563000Y-53594000D01*
G37*
G36*
X126603000Y-53594000D02*
G01*
X123603000Y-53594000D01*
X123603000Y-52594000D01*
X126603000Y-52594000D01*
X126603000Y-53594000D01*
G37*
G36*
X67054046Y-51550805D02*
G01*
X67105407Y-51556764D01*
X67122953Y-51564511D01*
X67145670Y-51569030D01*
X67169987Y-51585278D01*
X67190793Y-51594465D01*
X67205004Y-51608676D01*
X67226776Y-51623224D01*
X67241323Y-51644995D01*
X67255534Y-51659206D01*
X67264719Y-51680010D01*
X67280970Y-51704330D01*
X67285488Y-51727047D01*
X67293235Y-51744592D01*
X67299196Y-51795966D01*
X67299999Y-51800002D01*
X67299999Y-51802883D01*
X67300000Y-51802892D01*
X67300000Y-52373490D01*
X67300000Y-52799999D01*
X67299194Y-52804048D01*
X67293235Y-52855407D01*
X67285489Y-52872949D01*
X67280970Y-52895670D01*
X67264718Y-52919991D01*
X67255534Y-52940793D01*
X67241325Y-52955001D01*
X67226776Y-52976776D01*
X67205001Y-52991325D01*
X67190793Y-53005534D01*
X67169991Y-53014718D01*
X67145670Y-53030970D01*
X67122950Y-53035488D01*
X67105407Y-53043235D01*
X67054034Y-53049196D01*
X67049998Y-53049999D01*
X67047115Y-53049999D01*
X67047107Y-53050000D01*
X66052893Y-53050000D01*
X66052892Y-53049999D01*
X66050001Y-53050000D01*
X66045951Y-53049194D01*
X65994592Y-53043235D01*
X65977048Y-53035488D01*
X65954330Y-53030970D01*
X65930010Y-53014719D01*
X65909206Y-53005534D01*
X65894995Y-52991323D01*
X65873224Y-52976776D01*
X65858676Y-52955004D01*
X65844465Y-52940793D01*
X65835278Y-52919987D01*
X65819030Y-52895670D01*
X65814511Y-52872954D01*
X65806764Y-52855407D01*
X65800803Y-52804033D01*
X65800001Y-52799998D01*
X65800000Y-52797115D01*
X65800000Y-52797107D01*
X65800000Y-51802892D01*
X65800000Y-51802891D01*
X65800000Y-51800001D01*
X65800804Y-51795954D01*
X65806764Y-51744592D01*
X65814511Y-51727044D01*
X65819030Y-51704330D01*
X65835277Y-51680014D01*
X65844465Y-51659206D01*
X65858678Y-51644992D01*
X65873224Y-51623224D01*
X65894992Y-51608678D01*
X65909206Y-51594465D01*
X65930014Y-51585277D01*
X65954330Y-51569030D01*
X65977043Y-51564512D01*
X65994592Y-51556764D01*
X66045967Y-51550803D01*
X66050002Y-51550001D01*
X66052884Y-51550000D01*
X66052893Y-51550000D01*
X67047107Y-51550000D01*
X67049999Y-51550000D01*
X67054046Y-51550805D01*
G37*
G36*
X69767714Y-51582295D02*
G01*
X69903548Y-51638559D01*
X70025795Y-51720242D01*
X70129758Y-51824205D01*
X70211441Y-51946452D01*
X70267705Y-52082286D01*
X70296389Y-52226487D01*
X70296389Y-52373513D01*
X70267705Y-52517714D01*
X70211441Y-52653548D01*
X70129758Y-52775795D01*
X70025795Y-52879758D01*
X69903548Y-52961441D01*
X69767714Y-53017705D01*
X69623513Y-53046389D01*
X69476487Y-53046389D01*
X69332286Y-53017705D01*
X69196452Y-52961441D01*
X69074205Y-52879758D01*
X68970242Y-52775795D01*
X68888559Y-52653548D01*
X68832295Y-52517714D01*
X68803611Y-52373513D01*
X68803611Y-52226487D01*
X68832295Y-52082286D01*
X68888559Y-51946452D01*
X68970242Y-51824205D01*
X69074205Y-51720242D01*
X69196452Y-51638559D01*
X69332286Y-51582295D01*
X69476487Y-51553611D01*
X69623513Y-51553611D01*
X69767714Y-51582295D01*
G37*
G36*
X62580168Y-49341445D02*
G01*
X62804025Y-49414181D01*
X63013748Y-49521040D01*
X63204172Y-49659391D01*
X63370609Y-49825828D01*
X63508960Y-50016252D01*
X63615819Y-50225975D01*
X63688555Y-50449832D01*
X63725376Y-50682311D01*
X63725376Y-50917689D01*
X63688555Y-51150168D01*
X63615819Y-51374025D01*
X63508960Y-51583748D01*
X63370609Y-51774172D01*
X63204172Y-51940609D01*
X63013748Y-52078960D01*
X62804025Y-52185819D01*
X62580168Y-52258555D01*
X62347689Y-52295376D01*
X62112311Y-52295376D01*
X61879832Y-52258555D01*
X61655975Y-52185819D01*
X61446252Y-52078960D01*
X61255828Y-51940609D01*
X61089391Y-51774172D01*
X60951040Y-51583748D01*
X60844181Y-51374025D01*
X60771445Y-51150168D01*
X60734624Y-50917689D01*
X60734624Y-50682311D01*
X60771445Y-50449832D01*
X60844181Y-50225975D01*
X60951040Y-50016252D01*
X61089391Y-49825828D01*
X61255828Y-49659391D01*
X61446252Y-49521040D01*
X61655975Y-49414181D01*
X61879832Y-49341445D01*
X62112311Y-49304624D01*
X62347689Y-49304624D01*
X62580168Y-49341445D01*
G37*
G36*
X121563000Y-51054000D02*
G01*
X118563000Y-51054000D01*
X118563000Y-50054000D01*
X121563000Y-50054000D01*
X121563000Y-51054000D01*
G37*
G36*
X126603000Y-51054000D02*
G01*
X123603000Y-51054000D01*
X123603000Y-50054000D01*
X126603000Y-50054000D01*
X126603000Y-51054000D01*
G37*
G36*
X66767714Y-48582295D02*
G01*
X66903548Y-48638559D01*
X67025795Y-48720242D01*
X67129758Y-48824205D01*
X67211441Y-48946452D01*
X67267705Y-49082286D01*
X67296389Y-49226487D01*
X67296389Y-49373513D01*
X67267705Y-49517714D01*
X67211441Y-49653548D01*
X67129758Y-49775795D01*
X67025795Y-49879758D01*
X66903548Y-49961441D01*
X66767714Y-50017705D01*
X66623513Y-50046389D01*
X66476487Y-50046389D01*
X66332286Y-50017705D01*
X66196452Y-49961441D01*
X66074205Y-49879758D01*
X65970242Y-49775795D01*
X65888559Y-49653548D01*
X65832295Y-49517714D01*
X65803611Y-49373513D01*
X65803611Y-49226487D01*
X65832295Y-49082286D01*
X65888559Y-48946452D01*
X65970242Y-48824205D01*
X66074205Y-48720242D01*
X66196452Y-48638559D01*
X66332286Y-48582295D01*
X66476487Y-48553611D01*
X66623513Y-48553611D01*
X66767714Y-48582295D01*
G37*
G36*
X69767714Y-48582295D02*
G01*
X69903548Y-48638559D01*
X70025795Y-48720242D01*
X70129758Y-48824205D01*
X70211441Y-48946452D01*
X70267705Y-49082286D01*
X70296389Y-49226487D01*
X70296389Y-49373513D01*
X70267705Y-49517714D01*
X70211441Y-49653548D01*
X70129758Y-49775795D01*
X70025795Y-49879758D01*
X69903548Y-49961441D01*
X69767714Y-50017705D01*
X69623513Y-50046389D01*
X69476487Y-50046389D01*
X69332286Y-50017705D01*
X69196452Y-49961441D01*
X69074205Y-49879758D01*
X68970242Y-49775795D01*
X68888559Y-49653548D01*
X68832295Y-49517714D01*
X68803611Y-49373513D01*
X68803611Y-49226487D01*
X68832295Y-49082286D01*
X68888559Y-48946452D01*
X68970242Y-48824205D01*
X69074205Y-48720242D01*
X69196452Y-48638559D01*
X69332286Y-48582295D01*
X69476487Y-48553611D01*
X69623513Y-48553611D01*
X69767714Y-48582295D01*
G37*
G36*
X121563000Y-48514000D02*
G01*
X118563000Y-48514000D01*
X118563000Y-47514000D01*
X121563000Y-47514000D01*
X121563000Y-48514000D01*
G37*
G36*
X126603000Y-48514000D02*
G01*
X123603000Y-48514000D01*
X123603000Y-47514000D01*
X126603000Y-47514000D01*
X126603000Y-48514000D01*
G37*
G36*
X152161929Y-48506364D02*
G01*
X149161929Y-48506364D01*
X149161929Y-47506364D01*
X152161929Y-47506364D01*
X152161929Y-48506364D01*
G37*
G36*
X157201929Y-48506364D02*
G01*
X154201929Y-48506364D01*
X154201929Y-47506364D01*
X157201929Y-47506364D01*
X157201929Y-48506364D01*
G37*
G36*
X121563000Y-45974000D02*
G01*
X118563000Y-45974000D01*
X118563000Y-44974000D01*
X121563000Y-44974000D01*
X121563000Y-45974000D01*
G37*
G36*
X126603000Y-45974000D02*
G01*
X123603000Y-45974000D01*
X123603000Y-44974000D01*
X126603000Y-44974000D01*
X126603000Y-45974000D01*
G37*
G36*
X152161929Y-45966364D02*
G01*
X149161929Y-45966364D01*
X149161929Y-44966364D01*
X152161929Y-44966364D01*
X152161929Y-45966364D01*
G37*
G36*
X157201929Y-45966364D02*
G01*
X154201929Y-45966364D01*
X154201929Y-44966364D01*
X157201929Y-44966364D01*
X157201929Y-45966364D01*
G37*
G36*
X121563000Y-43434000D02*
G01*
X118563000Y-43434000D01*
X118563000Y-42434000D01*
X121563000Y-42434000D01*
X121563000Y-43434000D01*
G37*
G36*
X126603000Y-43434000D02*
G01*
X123603000Y-43434000D01*
X123603000Y-42434000D01*
X126603000Y-42434000D01*
X126603000Y-43434000D01*
G37*
G36*
X152161929Y-43426364D02*
G01*
X149161929Y-43426364D01*
X149161929Y-42426364D01*
X152161929Y-42426364D01*
X152161929Y-43426364D01*
G37*
G36*
X157201929Y-43426364D02*
G01*
X154201929Y-43426364D01*
X154201929Y-42426364D01*
X157201929Y-42426364D01*
X157201929Y-43426364D01*
G37*
G36*
X121563000Y-40894000D02*
G01*
X118563000Y-40894000D01*
X118563000Y-39894000D01*
X121563000Y-39894000D01*
X121563000Y-40894000D01*
G37*
G36*
X126603000Y-40894000D02*
G01*
X123603000Y-40894000D01*
X123603000Y-39894000D01*
X126603000Y-39894000D01*
X126603000Y-40894000D01*
G37*
G36*
X152161929Y-40886364D02*
G01*
X149161929Y-40886364D01*
X149161929Y-39886364D01*
X152161929Y-39886364D01*
X152161929Y-40886364D01*
G37*
G36*
X157201929Y-40886364D02*
G01*
X154201929Y-40886364D01*
X154201929Y-39886364D01*
X157201929Y-39886364D01*
X157201929Y-40886364D01*
G37*
G36*
X121563000Y-38354000D02*
G01*
X118563000Y-38354000D01*
X118563000Y-37354000D01*
X121563000Y-37354000D01*
X121563000Y-38354000D01*
G37*
G36*
X126603000Y-38354000D02*
G01*
X123603000Y-38354000D01*
X123603000Y-37354000D01*
X126603000Y-37354000D01*
X126603000Y-38354000D01*
G37*
G36*
X152161929Y-38346364D02*
G01*
X149161929Y-38346364D01*
X149161929Y-37346364D01*
X152161929Y-37346364D01*
X152161929Y-38346364D01*
G37*
G36*
X157201929Y-38346364D02*
G01*
X154201929Y-38346364D01*
X154201929Y-37346364D01*
X157201929Y-37346364D01*
X157201929Y-38346364D01*
G37*
G36*
X121563000Y-35814000D02*
G01*
X118563000Y-35814000D01*
X118563000Y-34814000D01*
X121563000Y-34814000D01*
X121563000Y-35814000D01*
G37*
G36*
X126603000Y-35814000D02*
G01*
X123603000Y-35814000D01*
X123603000Y-34814000D01*
X126603000Y-34814000D01*
X126603000Y-35814000D01*
G37*
G36*
X152161929Y-35806364D02*
G01*
X149161929Y-35806364D01*
X149161929Y-34806364D01*
X152161929Y-34806364D01*
X152161929Y-35806364D01*
G37*
G36*
X157201929Y-35806364D02*
G01*
X154201929Y-35806364D01*
X154201929Y-34806364D01*
X157201929Y-34806364D01*
X157201929Y-35806364D01*
G37*
G36*
X67054046Y-33770805D02*
G01*
X67105407Y-33776764D01*
X67122953Y-33784511D01*
X67145670Y-33789030D01*
X67169987Y-33805278D01*
X67190793Y-33814465D01*
X67205004Y-33828676D01*
X67226776Y-33843224D01*
X67241323Y-33864995D01*
X67255534Y-33879206D01*
X67264719Y-33900010D01*
X67280970Y-33924330D01*
X67285488Y-33947047D01*
X67293235Y-33964592D01*
X67299196Y-34015966D01*
X67299999Y-34020002D01*
X67299999Y-34022883D01*
X67300000Y-34022892D01*
X67300000Y-34593490D01*
X67300000Y-35019999D01*
X67299194Y-35024048D01*
X67293235Y-35075407D01*
X67285489Y-35092949D01*
X67280970Y-35115670D01*
X67264718Y-35139991D01*
X67255534Y-35160793D01*
X67241325Y-35175001D01*
X67226776Y-35196776D01*
X67205001Y-35211325D01*
X67190793Y-35225534D01*
X67169991Y-35234718D01*
X67145670Y-35250970D01*
X67122950Y-35255488D01*
X67105407Y-35263235D01*
X67054034Y-35269196D01*
X67049998Y-35269999D01*
X67047115Y-35269999D01*
X67047107Y-35270000D01*
X66052893Y-35270000D01*
X66052892Y-35269999D01*
X66050001Y-35270000D01*
X66045951Y-35269194D01*
X65994592Y-35263235D01*
X65977048Y-35255488D01*
X65954330Y-35250970D01*
X65930010Y-35234719D01*
X65909206Y-35225534D01*
X65894995Y-35211323D01*
X65873224Y-35196776D01*
X65858676Y-35175004D01*
X65844465Y-35160793D01*
X65835278Y-35139987D01*
X65819030Y-35115670D01*
X65814511Y-35092954D01*
X65806764Y-35075407D01*
X65800803Y-35024033D01*
X65800001Y-35019998D01*
X65800000Y-35017115D01*
X65800000Y-35017107D01*
X65800000Y-34022892D01*
X65800000Y-34022891D01*
X65800000Y-34020001D01*
X65800804Y-34015954D01*
X65806764Y-33964592D01*
X65814511Y-33947044D01*
X65819030Y-33924330D01*
X65835277Y-33900014D01*
X65844465Y-33879206D01*
X65858678Y-33864992D01*
X65873224Y-33843224D01*
X65894992Y-33828678D01*
X65909206Y-33814465D01*
X65930014Y-33805277D01*
X65954330Y-33789030D01*
X65977043Y-33784512D01*
X65994592Y-33776764D01*
X66045967Y-33770803D01*
X66050002Y-33770001D01*
X66052884Y-33770000D01*
X66052893Y-33770000D01*
X67047107Y-33770000D01*
X67049999Y-33770000D01*
X67054046Y-33770805D01*
G37*
G36*
X69767714Y-33802295D02*
G01*
X69903548Y-33858559D01*
X70025795Y-33940242D01*
X70129758Y-34044205D01*
X70211441Y-34166452D01*
X70267705Y-34302286D01*
X70296389Y-34446487D01*
X70296389Y-34593513D01*
X70267705Y-34737714D01*
X70211441Y-34873548D01*
X70129758Y-34995795D01*
X70025795Y-35099758D01*
X69903548Y-35181441D01*
X69767714Y-35237705D01*
X69623513Y-35266389D01*
X69476487Y-35266389D01*
X69332286Y-35237705D01*
X69196452Y-35181441D01*
X69074205Y-35099758D01*
X68970242Y-34995795D01*
X68888559Y-34873548D01*
X68832295Y-34737714D01*
X68803611Y-34593513D01*
X68803611Y-34446487D01*
X68832295Y-34302286D01*
X68888559Y-34166452D01*
X68970242Y-34044205D01*
X69074205Y-33940242D01*
X69196452Y-33858559D01*
X69332286Y-33802295D01*
X69476487Y-33773611D01*
X69623513Y-33773611D01*
X69767714Y-33802295D01*
G37*
G36*
X62580168Y-31561445D02*
G01*
X62804025Y-31634181D01*
X63013748Y-31741040D01*
X63204172Y-31879391D01*
X63370609Y-32045828D01*
X63508960Y-32236252D01*
X63615819Y-32445975D01*
X63688555Y-32669832D01*
X63725376Y-32902311D01*
X63725376Y-33137689D01*
X63688555Y-33370168D01*
X63615819Y-33594025D01*
X63508960Y-33803748D01*
X63370609Y-33994172D01*
X63204172Y-34160609D01*
X63013748Y-34298960D01*
X62804025Y-34405819D01*
X62580168Y-34478555D01*
X62347689Y-34515376D01*
X62112311Y-34515376D01*
X61879832Y-34478555D01*
X61655975Y-34405819D01*
X61446252Y-34298960D01*
X61255828Y-34160609D01*
X61089391Y-33994172D01*
X60951040Y-33803748D01*
X60844181Y-33594025D01*
X60771445Y-33370168D01*
X60734624Y-33137689D01*
X60734624Y-32902311D01*
X60771445Y-32669832D01*
X60844181Y-32445975D01*
X60951040Y-32236252D01*
X61089391Y-32045828D01*
X61255828Y-31879391D01*
X61446252Y-31741040D01*
X61655975Y-31634181D01*
X61879832Y-31561445D01*
X62112311Y-31524624D01*
X62347689Y-31524624D01*
X62580168Y-31561445D01*
G37*
G36*
X121563000Y-33274000D02*
G01*
X118563000Y-33274000D01*
X118563000Y-32274000D01*
X121563000Y-32274000D01*
X121563000Y-33274000D01*
G37*
G36*
X126603000Y-33274000D02*
G01*
X123603000Y-33274000D01*
X123603000Y-32274000D01*
X126603000Y-32274000D01*
X126603000Y-33274000D01*
G37*
G36*
X152161929Y-33266364D02*
G01*
X149161929Y-33266364D01*
X149161929Y-32266364D01*
X152161929Y-32266364D01*
X152161929Y-33266364D01*
G37*
G36*
X157201929Y-33266364D02*
G01*
X154201929Y-33266364D01*
X154201929Y-32266364D01*
X157201929Y-32266364D01*
X157201929Y-33266364D01*
G37*
G36*
X66767714Y-30802295D02*
G01*
X66903548Y-30858559D01*
X67025795Y-30940242D01*
X67129758Y-31044205D01*
X67211441Y-31166452D01*
X67267705Y-31302286D01*
X67296389Y-31446487D01*
X67296389Y-31593513D01*
X67267705Y-31737714D01*
X67211441Y-31873548D01*
X67129758Y-31995795D01*
X67025795Y-32099758D01*
X66903548Y-32181441D01*
X66767714Y-32237705D01*
X66623513Y-32266389D01*
X66476487Y-32266389D01*
X66332286Y-32237705D01*
X66196452Y-32181441D01*
X66074205Y-32099758D01*
X65970242Y-31995795D01*
X65888559Y-31873548D01*
X65832295Y-31737714D01*
X65803611Y-31593513D01*
X65803611Y-31446487D01*
X65832295Y-31302286D01*
X65888559Y-31166452D01*
X65970242Y-31044205D01*
X66074205Y-30940242D01*
X66196452Y-30858559D01*
X66332286Y-30802295D01*
X66476487Y-30773611D01*
X66623513Y-30773611D01*
X66767714Y-30802295D01*
G37*
G36*
X69767714Y-30802295D02*
G01*
X69903548Y-30858559D01*
X70025795Y-30940242D01*
X70129758Y-31044205D01*
X70211441Y-31166452D01*
X70267705Y-31302286D01*
X70296389Y-31446487D01*
X70296389Y-31593513D01*
X70267705Y-31737714D01*
X70211441Y-31873548D01*
X70129758Y-31995795D01*
X70025795Y-32099758D01*
X69903548Y-32181441D01*
X69767714Y-32237705D01*
X69623513Y-32266389D01*
X69476487Y-32266389D01*
X69332286Y-32237705D01*
X69196452Y-32181441D01*
X69074205Y-32099758D01*
X68970242Y-31995795D01*
X68888559Y-31873548D01*
X68832295Y-31737714D01*
X68803611Y-31593513D01*
X68803611Y-31446487D01*
X68832295Y-31302286D01*
X68888559Y-31166452D01*
X68970242Y-31044205D01*
X69074205Y-30940242D01*
X69196452Y-30858559D01*
X69332286Y-30802295D01*
X69476487Y-30773611D01*
X69623513Y-30773611D01*
X69767714Y-30802295D01*
G37*
G36*
X121563000Y-30734000D02*
G01*
X118563000Y-30734000D01*
X118563000Y-29734000D01*
X121563000Y-29734000D01*
X121563000Y-30734000D01*
G37*
G36*
X126603000Y-30734000D02*
G01*
X123603000Y-30734000D01*
X123603000Y-29734000D01*
X126603000Y-29734000D01*
X126603000Y-30734000D01*
G37*
G36*
X152161929Y-30726364D02*
G01*
X149161929Y-30726364D01*
X149161929Y-29726364D01*
X152161929Y-29726364D01*
X152161929Y-30726364D01*
G37*
G36*
X157201929Y-30726364D02*
G01*
X154201929Y-30726364D01*
X154201929Y-29726364D01*
X157201929Y-29726364D01*
X157201929Y-30726364D01*
G37*
M02*
