%TF.GenerationSoftware,KiCad,Pcbnew,10.0.3*%
%TF.CreationDate,2026-05-31T17:21:45+02:00*%
%TF.ProjectId,carrier,63617272-6965-4722-9e6b-696361645f70,rev?*%
%TF.SameCoordinates,Original*%
%TF.FileFunction,Paste,Top*%
%TF.FilePolarity,Positive*%
%FSLAX46Y46*%
G04 Gerber Fmt 4.6, Leading zero omitted, Abs format (unit mm)*
G04 Created by KiCad (PCBNEW 10.0.3) date 2026-05-31 17:21:45*
%MOMM*%
%LPD*%
G01*
G04 APERTURE LIST*
G04 Aperture macros list*
%AMRoundRect*
0 Rectangle with rounded corners*
0 $1 Rounding radius*
0 $2 $3 $4 $5 $6 $7 $8 $9 X,Y pos of 4 corners*
0 Add a 4 corners polygon primitive as box body*
4,1,4,$2,$3,$4,$5,$6,$7,$8,$9,$2,$3,0*
0 Add four circle primitives for the rounded corners*
1,1,$1+$1,$2,$3*
1,1,$1+$1,$4,$5*
1,1,$1+$1,$6,$7*
1,1,$1+$1,$8,$9*
0 Add four rect primitives between the rounded corners*
20,1,$1+$1,$2,$3,$4,$5,0*
20,1,$1+$1,$4,$5,$6,$7,0*
20,1,$1+$1,$6,$7,$8,$9,0*
20,1,$1+$1,$8,$9,$2,$3,0*%
G04 Aperture macros list end*
%ADD10C,0.150000*%
%ADD11C,0.100000*%
%ADD12RoundRect,0.250000X0.250000X0.475000X-0.250000X0.475000X-0.250000X-0.475000X0.250000X-0.475000X0*%
%ADD13RoundRect,0.250000X-0.475000X0.250000X-0.475000X-0.250000X0.475000X-0.250000X0.475000X0.250000X0*%
%ADD14RoundRect,0.250000X-0.250000X-0.475000X0.250000X-0.475000X0.250000X0.475000X-0.250000X0.475000X0*%
%ADD15RoundRect,0.243750X-0.243750X-0.456250X0.243750X-0.456250X0.243750X0.456250X-0.243750X0.456250X0*%
%ADD16RoundRect,0.250000X0.900000X-1.000000X0.900000X1.000000X-0.900000X1.000000X-0.900000X-1.000000X0*%
%ADD17RoundRect,0.243750X-0.456250X0.243750X-0.456250X-0.243750X0.456250X-0.243750X0.456250X0.243750X0*%
%ADD18RoundRect,0.150000X-0.150000X0.512500X-0.150000X-0.512500X0.150000X-0.512500X0.150000X0.512500X0*%
%ADD19RoundRect,0.250000X-0.450000X0.262500X-0.450000X-0.262500X0.450000X-0.262500X0.450000X0.262500X0*%
%ADD20RoundRect,0.150000X-0.150000X0.587500X-0.150000X-0.587500X0.150000X-0.587500X0.150000X0.587500X0*%
%ADD21RoundRect,0.250000X-0.262500X-0.450000X0.262500X-0.450000X0.262500X0.450000X-0.262500X0.450000X0*%
%ADD22RoundRect,0.250000X0.450000X-0.262500X0.450000X0.262500X-0.450000X0.262500X-0.450000X-0.262500X0*%
%ADD23RoundRect,0.150000X-0.825000X-0.150000X0.825000X-0.150000X0.825000X0.150000X-0.825000X0.150000X0*%
%ADD24RoundRect,0.250000X0.262500X0.450000X-0.262500X0.450000X-0.262500X-0.450000X0.262500X-0.450000X0*%
%ADD25RoundRect,0.250000X-2.600000X0.600000X-2.600000X-0.600000X2.600000X-0.600000X2.600000X0.600000X0*%
%ADD26RoundRect,0.150000X0.825000X0.150000X-0.825000X0.150000X-0.825000X-0.150000X0.825000X-0.150000X0*%
%ADD27RoundRect,0.243750X0.456250X-0.243750X0.456250X0.243750X-0.456250X0.243750X-0.456250X-0.243750X0*%
%ADD28RoundRect,0.250000X0.650000X-1.000000X0.650000X1.000000X-0.650000X1.000000X-0.650000X-1.000000X0*%
%ADD29R,3.000000X1.000000*%
G04 APERTURE END LIST*
D10*
X59217160Y-61036200D02*
X59360017Y-61083819D01*
X59360017Y-61083819D02*
X59598112Y-61083819D01*
X59598112Y-61083819D02*
X59693350Y-61036200D01*
X59693350Y-61036200D02*
X59740969Y-60988580D01*
X59740969Y-60988580D02*
X59788588Y-60893342D01*
X59788588Y-60893342D02*
X59788588Y-60798104D01*
X59788588Y-60798104D02*
X59740969Y-60702866D01*
X59740969Y-60702866D02*
X59693350Y-60655247D01*
X59693350Y-60655247D02*
X59598112Y-60607628D01*
X59598112Y-60607628D02*
X59407636Y-60560009D01*
X59407636Y-60560009D02*
X59312398Y-60512390D01*
X59312398Y-60512390D02*
X59264779Y-60464771D01*
X59264779Y-60464771D02*
X59217160Y-60369533D01*
X59217160Y-60369533D02*
X59217160Y-60274295D01*
X59217160Y-60274295D02*
X59264779Y-60179057D01*
X59264779Y-60179057D02*
X59312398Y-60131438D01*
X59312398Y-60131438D02*
X59407636Y-60083819D01*
X59407636Y-60083819D02*
X59645731Y-60083819D01*
X59645731Y-60083819D02*
X59788588Y-60131438D01*
X60217160Y-61083819D02*
X60217160Y-60083819D01*
X60217160Y-60083819D02*
X60788588Y-61083819D01*
X60788588Y-61083819D02*
X60788588Y-60083819D01*
X61264779Y-60988580D02*
X61312398Y-61036200D01*
X61312398Y-61036200D02*
X61264779Y-61083819D01*
X61264779Y-61083819D02*
X61217160Y-61036200D01*
X61217160Y-61036200D02*
X61264779Y-60988580D01*
X61264779Y-60988580D02*
X61264779Y-61083819D01*
X61264779Y-60464771D02*
X61312398Y-60512390D01*
X61312398Y-60512390D02*
X61264779Y-60560009D01*
X61264779Y-60560009D02*
X61217160Y-60512390D01*
X61217160Y-60512390D02*
X61264779Y-60464771D01*
X61264779Y-60464771D02*
X61264779Y-60560009D01*
D11*
X58928000Y-59563000D02*
X72390000Y-59563000D01*
X72390000Y-62865000D01*
X58928000Y-62865000D01*
X58928000Y-59563000D01*
D10*
X59010779Y-58274009D02*
X59344112Y-58274009D01*
X59486969Y-58797819D02*
X59010779Y-58797819D01*
X59010779Y-58797819D02*
X59010779Y-57797819D01*
X59010779Y-57797819D02*
X59486969Y-57797819D01*
X60106017Y-57797819D02*
X60201255Y-57797819D01*
X60201255Y-57797819D02*
X60296493Y-57845438D01*
X60296493Y-57845438D02*
X60344112Y-57893057D01*
X60344112Y-57893057D02*
X60391731Y-57988295D01*
X60391731Y-57988295D02*
X60439350Y-58178771D01*
X60439350Y-58178771D02*
X60439350Y-58416866D01*
X60439350Y-58416866D02*
X60391731Y-58607342D01*
X60391731Y-58607342D02*
X60344112Y-58702580D01*
X60344112Y-58702580D02*
X60296493Y-58750200D01*
X60296493Y-58750200D02*
X60201255Y-58797819D01*
X60201255Y-58797819D02*
X60106017Y-58797819D01*
X60106017Y-58797819D02*
X60010779Y-58750200D01*
X60010779Y-58750200D02*
X59963160Y-58702580D01*
X59963160Y-58702580D02*
X59915541Y-58607342D01*
X59915541Y-58607342D02*
X59867922Y-58416866D01*
X59867922Y-58416866D02*
X59867922Y-58178771D01*
X59867922Y-58178771D02*
X59915541Y-57988295D01*
X59915541Y-57988295D02*
X59963160Y-57893057D01*
X59963160Y-57893057D02*
X60010779Y-57845438D01*
X60010779Y-57845438D02*
X60106017Y-57797819D01*
X61058398Y-57797819D02*
X61153636Y-57797819D01*
X61153636Y-57797819D02*
X61248874Y-57845438D01*
X61248874Y-57845438D02*
X61296493Y-57893057D01*
X61296493Y-57893057D02*
X61344112Y-57988295D01*
X61344112Y-57988295D02*
X61391731Y-58178771D01*
X61391731Y-58178771D02*
X61391731Y-58416866D01*
X61391731Y-58416866D02*
X61344112Y-58607342D01*
X61344112Y-58607342D02*
X61296493Y-58702580D01*
X61296493Y-58702580D02*
X61248874Y-58750200D01*
X61248874Y-58750200D02*
X61153636Y-58797819D01*
X61153636Y-58797819D02*
X61058398Y-58797819D01*
X61058398Y-58797819D02*
X60963160Y-58750200D01*
X60963160Y-58750200D02*
X60915541Y-58702580D01*
X60915541Y-58702580D02*
X60867922Y-58607342D01*
X60867922Y-58607342D02*
X60820303Y-58416866D01*
X60820303Y-58416866D02*
X60820303Y-58178771D01*
X60820303Y-58178771D02*
X60867922Y-57988295D01*
X60867922Y-57988295D02*
X60915541Y-57893057D01*
X60915541Y-57893057D02*
X60963160Y-57845438D01*
X60963160Y-57845438D02*
X61058398Y-57797819D01*
X62010779Y-57797819D02*
X62106017Y-57797819D01*
X62106017Y-57797819D02*
X62201255Y-57845438D01*
X62201255Y-57845438D02*
X62248874Y-57893057D01*
X62248874Y-57893057D02*
X62296493Y-57988295D01*
X62296493Y-57988295D02*
X62344112Y-58178771D01*
X62344112Y-58178771D02*
X62344112Y-58416866D01*
X62344112Y-58416866D02*
X62296493Y-58607342D01*
X62296493Y-58607342D02*
X62248874Y-58702580D01*
X62248874Y-58702580D02*
X62201255Y-58750200D01*
X62201255Y-58750200D02*
X62106017Y-58797819D01*
X62106017Y-58797819D02*
X62010779Y-58797819D01*
X62010779Y-58797819D02*
X61915541Y-58750200D01*
X61915541Y-58750200D02*
X61867922Y-58702580D01*
X61867922Y-58702580D02*
X61820303Y-58607342D01*
X61820303Y-58607342D02*
X61772684Y-58416866D01*
X61772684Y-58416866D02*
X61772684Y-58178771D01*
X61772684Y-58178771D02*
X61820303Y-57988295D01*
X61820303Y-57988295D02*
X61867922Y-57893057D01*
X61867922Y-57893057D02*
X61915541Y-57845438D01*
X61915541Y-57845438D02*
X62010779Y-57797819D01*
X63296493Y-58797819D02*
X62725065Y-58797819D01*
X63010779Y-58797819D02*
X63010779Y-57797819D01*
X63010779Y-57797819D02*
X62915541Y-57940676D01*
X62915541Y-57940676D02*
X62820303Y-58035914D01*
X62820303Y-58035914D02*
X62725065Y-58083533D01*
X64344113Y-57797819D02*
X64677446Y-58797819D01*
X64677446Y-58797819D02*
X65010779Y-57797819D01*
X65534589Y-57797819D02*
X65629827Y-57797819D01*
X65629827Y-57797819D02*
X65725065Y-57845438D01*
X65725065Y-57845438D02*
X65772684Y-57893057D01*
X65772684Y-57893057D02*
X65820303Y-57988295D01*
X65820303Y-57988295D02*
X65867922Y-58178771D01*
X65867922Y-58178771D02*
X65867922Y-58416866D01*
X65867922Y-58416866D02*
X65820303Y-58607342D01*
X65820303Y-58607342D02*
X65772684Y-58702580D01*
X65772684Y-58702580D02*
X65725065Y-58750200D01*
X65725065Y-58750200D02*
X65629827Y-58797819D01*
X65629827Y-58797819D02*
X65534589Y-58797819D01*
X65534589Y-58797819D02*
X65439351Y-58750200D01*
X65439351Y-58750200D02*
X65391732Y-58702580D01*
X65391732Y-58702580D02*
X65344113Y-58607342D01*
X65344113Y-58607342D02*
X65296494Y-58416866D01*
X65296494Y-58416866D02*
X65296494Y-58178771D01*
X65296494Y-58178771D02*
X65344113Y-57988295D01*
X65344113Y-57988295D02*
X65391732Y-57893057D01*
X65391732Y-57893057D02*
X65439351Y-57845438D01*
X65439351Y-57845438D02*
X65534589Y-57797819D01*
X66296494Y-58702580D02*
X66344113Y-58750200D01*
X66344113Y-58750200D02*
X66296494Y-58797819D01*
X66296494Y-58797819D02*
X66248875Y-58750200D01*
X66248875Y-58750200D02*
X66296494Y-58702580D01*
X66296494Y-58702580D02*
X66296494Y-58797819D01*
X66963160Y-57797819D02*
X67058398Y-57797819D01*
X67058398Y-57797819D02*
X67153636Y-57845438D01*
X67153636Y-57845438D02*
X67201255Y-57893057D01*
X67201255Y-57893057D02*
X67248874Y-57988295D01*
X67248874Y-57988295D02*
X67296493Y-58178771D01*
X67296493Y-58178771D02*
X67296493Y-58416866D01*
X67296493Y-58416866D02*
X67248874Y-58607342D01*
X67248874Y-58607342D02*
X67201255Y-58702580D01*
X67201255Y-58702580D02*
X67153636Y-58750200D01*
X67153636Y-58750200D02*
X67058398Y-58797819D01*
X67058398Y-58797819D02*
X66963160Y-58797819D01*
X66963160Y-58797819D02*
X66867922Y-58750200D01*
X66867922Y-58750200D02*
X66820303Y-58702580D01*
X66820303Y-58702580D02*
X66772684Y-58607342D01*
X66772684Y-58607342D02*
X66725065Y-58416866D01*
X66725065Y-58416866D02*
X66725065Y-58178771D01*
X66725065Y-58178771D02*
X66772684Y-57988295D01*
X66772684Y-57988295D02*
X66820303Y-57893057D01*
X66820303Y-57893057D02*
X66867922Y-57845438D01*
X66867922Y-57845438D02*
X66963160Y-57797819D01*
X67725065Y-58702580D02*
X67772684Y-58750200D01*
X67772684Y-58750200D02*
X67725065Y-58797819D01*
X67725065Y-58797819D02*
X67677446Y-58750200D01*
X67677446Y-58750200D02*
X67725065Y-58702580D01*
X67725065Y-58702580D02*
X67725065Y-58797819D01*
X68391731Y-57797819D02*
X68486969Y-57797819D01*
X68486969Y-57797819D02*
X68582207Y-57845438D01*
X68582207Y-57845438D02*
X68629826Y-57893057D01*
X68629826Y-57893057D02*
X68677445Y-57988295D01*
X68677445Y-57988295D02*
X68725064Y-58178771D01*
X68725064Y-58178771D02*
X68725064Y-58416866D01*
X68725064Y-58416866D02*
X68677445Y-58607342D01*
X68677445Y-58607342D02*
X68629826Y-58702580D01*
X68629826Y-58702580D02*
X68582207Y-58750200D01*
X68582207Y-58750200D02*
X68486969Y-58797819D01*
X68486969Y-58797819D02*
X68391731Y-58797819D01*
X68391731Y-58797819D02*
X68296493Y-58750200D01*
X68296493Y-58750200D02*
X68248874Y-58702580D01*
X68248874Y-58702580D02*
X68201255Y-58607342D01*
X68201255Y-58607342D02*
X68153636Y-58416866D01*
X68153636Y-58416866D02*
X68153636Y-58178771D01*
X68153636Y-58178771D02*
X68201255Y-57988295D01*
X68201255Y-57988295D02*
X68248874Y-57893057D01*
X68248874Y-57893057D02*
X68296493Y-57845438D01*
X68296493Y-57845438D02*
X68391731Y-57797819D01*
X69677445Y-58797819D02*
X69106017Y-58797819D01*
X69391731Y-58797819D02*
X69391731Y-57797819D01*
X69391731Y-57797819D02*
X69296493Y-57940676D01*
X69296493Y-57940676D02*
X69201255Y-58035914D01*
X69201255Y-58035914D02*
X69106017Y-58083533D01*
X82819952Y-23568819D02*
X82248524Y-23568819D01*
X82534238Y-23568819D02*
X82534238Y-22568819D01*
X82534238Y-22568819D02*
X82439000Y-22711676D01*
X82439000Y-22711676D02*
X82343762Y-22806914D01*
X82343762Y-22806914D02*
X82248524Y-22854533D01*
X83200905Y-22664057D02*
X83248524Y-22616438D01*
X83248524Y-22616438D02*
X83343762Y-22568819D01*
X83343762Y-22568819D02*
X83581857Y-22568819D01*
X83581857Y-22568819D02*
X83677095Y-22616438D01*
X83677095Y-22616438D02*
X83724714Y-22664057D01*
X83724714Y-22664057D02*
X83772333Y-22759295D01*
X83772333Y-22759295D02*
X83772333Y-22854533D01*
X83772333Y-22854533D02*
X83724714Y-22997390D01*
X83724714Y-22997390D02*
X83153286Y-23568819D01*
X83153286Y-23568819D02*
X83772333Y-23568819D01*
X84058048Y-22568819D02*
X84391381Y-23568819D01*
X84391381Y-23568819D02*
X84724714Y-22568819D01*
X91741810Y-22568819D02*
X92360857Y-22568819D01*
X92360857Y-22568819D02*
X92027524Y-22949771D01*
X92027524Y-22949771D02*
X92170381Y-22949771D01*
X92170381Y-22949771D02*
X92265619Y-22997390D01*
X92265619Y-22997390D02*
X92313238Y-23045009D01*
X92313238Y-23045009D02*
X92360857Y-23140247D01*
X92360857Y-23140247D02*
X92360857Y-23378342D01*
X92360857Y-23378342D02*
X92313238Y-23473580D01*
X92313238Y-23473580D02*
X92265619Y-23521200D01*
X92265619Y-23521200D02*
X92170381Y-23568819D01*
X92170381Y-23568819D02*
X91884667Y-23568819D01*
X91884667Y-23568819D02*
X91789429Y-23521200D01*
X91789429Y-23521200D02*
X91741810Y-23473580D01*
X92789429Y-23473580D02*
X92837048Y-23521200D01*
X92837048Y-23521200D02*
X92789429Y-23568819D01*
X92789429Y-23568819D02*
X92741810Y-23521200D01*
X92741810Y-23521200D02*
X92789429Y-23473580D01*
X92789429Y-23473580D02*
X92789429Y-23568819D01*
X93170381Y-22568819D02*
X93789428Y-22568819D01*
X93789428Y-22568819D02*
X93456095Y-22949771D01*
X93456095Y-22949771D02*
X93598952Y-22949771D01*
X93598952Y-22949771D02*
X93694190Y-22997390D01*
X93694190Y-22997390D02*
X93741809Y-23045009D01*
X93741809Y-23045009D02*
X93789428Y-23140247D01*
X93789428Y-23140247D02*
X93789428Y-23378342D01*
X93789428Y-23378342D02*
X93741809Y-23473580D01*
X93741809Y-23473580D02*
X93694190Y-23521200D01*
X93694190Y-23521200D02*
X93598952Y-23568819D01*
X93598952Y-23568819D02*
X93313238Y-23568819D01*
X93313238Y-23568819D02*
X93218000Y-23521200D01*
X93218000Y-23521200D02*
X93170381Y-23473580D01*
X94075143Y-22568819D02*
X94408476Y-23568819D01*
X94408476Y-23568819D02*
X94741809Y-22568819D01*
X137025333Y-65050200D02*
X137168190Y-65097819D01*
X137168190Y-65097819D02*
X137406285Y-65097819D01*
X137406285Y-65097819D02*
X137501523Y-65050200D01*
X137501523Y-65050200D02*
X137549142Y-65002580D01*
X137549142Y-65002580D02*
X137596761Y-64907342D01*
X137596761Y-64907342D02*
X137596761Y-64812104D01*
X137596761Y-64812104D02*
X137549142Y-64716866D01*
X137549142Y-64716866D02*
X137501523Y-64669247D01*
X137501523Y-64669247D02*
X137406285Y-64621628D01*
X137406285Y-64621628D02*
X137215809Y-64574009D01*
X137215809Y-64574009D02*
X137120571Y-64526390D01*
X137120571Y-64526390D02*
X137072952Y-64478771D01*
X137072952Y-64478771D02*
X137025333Y-64383533D01*
X137025333Y-64383533D02*
X137025333Y-64288295D01*
X137025333Y-64288295D02*
X137072952Y-64193057D01*
X137072952Y-64193057D02*
X137120571Y-64145438D01*
X137120571Y-64145438D02*
X137215809Y-64097819D01*
X137215809Y-64097819D02*
X137453904Y-64097819D01*
X137453904Y-64097819D02*
X137596761Y-64145438D01*
X137882476Y-64431152D02*
X138263428Y-64431152D01*
X138025333Y-64097819D02*
X138025333Y-64954961D01*
X138025333Y-64954961D02*
X138072952Y-65050200D01*
X138072952Y-65050200D02*
X138168190Y-65097819D01*
X138168190Y-65097819D02*
X138263428Y-65097819D01*
X139025333Y-65097819D02*
X139025333Y-64574009D01*
X139025333Y-64574009D02*
X138977714Y-64478771D01*
X138977714Y-64478771D02*
X138882476Y-64431152D01*
X138882476Y-64431152D02*
X138692000Y-64431152D01*
X138692000Y-64431152D02*
X138596762Y-64478771D01*
X139025333Y-65050200D02*
X138930095Y-65097819D01*
X138930095Y-65097819D02*
X138692000Y-65097819D01*
X138692000Y-65097819D02*
X138596762Y-65050200D01*
X138596762Y-65050200D02*
X138549143Y-64954961D01*
X138549143Y-64954961D02*
X138549143Y-64859723D01*
X138549143Y-64859723D02*
X138596762Y-64764485D01*
X138596762Y-64764485D02*
X138692000Y-64716866D01*
X138692000Y-64716866D02*
X138930095Y-64716866D01*
X138930095Y-64716866D02*
X139025333Y-64669247D01*
X139358667Y-64431152D02*
X139739619Y-64431152D01*
X139501524Y-64097819D02*
X139501524Y-64954961D01*
X139501524Y-64954961D02*
X139549143Y-65050200D01*
X139549143Y-65050200D02*
X139644381Y-65097819D01*
X139644381Y-65097819D02*
X139739619Y-65097819D01*
X140501524Y-64431152D02*
X140501524Y-65097819D01*
X140072953Y-64431152D02*
X140072953Y-64954961D01*
X140072953Y-64954961D02*
X140120572Y-65050200D01*
X140120572Y-65050200D02*
X140215810Y-65097819D01*
X140215810Y-65097819D02*
X140358667Y-65097819D01*
X140358667Y-65097819D02*
X140453905Y-65050200D01*
X140453905Y-65050200D02*
X140501524Y-65002580D01*
X140930096Y-65050200D02*
X141025334Y-65097819D01*
X141025334Y-65097819D02*
X141215810Y-65097819D01*
X141215810Y-65097819D02*
X141311048Y-65050200D01*
X141311048Y-65050200D02*
X141358667Y-64954961D01*
X141358667Y-64954961D02*
X141358667Y-64907342D01*
X141358667Y-64907342D02*
X141311048Y-64812104D01*
X141311048Y-64812104D02*
X141215810Y-64764485D01*
X141215810Y-64764485D02*
X141072953Y-64764485D01*
X141072953Y-64764485D02*
X140977715Y-64716866D01*
X140977715Y-64716866D02*
X140930096Y-64621628D01*
X140930096Y-64621628D02*
X140930096Y-64574009D01*
X140930096Y-64574009D02*
X140977715Y-64478771D01*
X140977715Y-64478771D02*
X141072953Y-64431152D01*
X141072953Y-64431152D02*
X141215810Y-64431152D01*
X141215810Y-64431152D02*
X141311048Y-64478771D01*
X143629142Y-65129580D02*
X143581523Y-65177200D01*
X143581523Y-65177200D02*
X143438666Y-65224819D01*
X143438666Y-65224819D02*
X143343428Y-65224819D01*
X143343428Y-65224819D02*
X143200571Y-65177200D01*
X143200571Y-65177200D02*
X143105333Y-65081961D01*
X143105333Y-65081961D02*
X143057714Y-64986723D01*
X143057714Y-64986723D02*
X143010095Y-64796247D01*
X143010095Y-64796247D02*
X143010095Y-64653390D01*
X143010095Y-64653390D02*
X143057714Y-64462914D01*
X143057714Y-64462914D02*
X143105333Y-64367676D01*
X143105333Y-64367676D02*
X143200571Y-64272438D01*
X143200571Y-64272438D02*
X143343428Y-64224819D01*
X143343428Y-64224819D02*
X143438666Y-64224819D01*
X143438666Y-64224819D02*
X143581523Y-64272438D01*
X143581523Y-64272438D02*
X143629142Y-64320057D01*
X144010095Y-64939104D02*
X144486285Y-64939104D01*
X143914857Y-65224819D02*
X144248190Y-64224819D01*
X144248190Y-64224819D02*
X144581523Y-65224819D01*
X144914857Y-65224819D02*
X144914857Y-64224819D01*
X144914857Y-64224819D02*
X145486285Y-65224819D01*
X145486285Y-65224819D02*
X145486285Y-64224819D01*
D12*
%TO.C,C7*%
X84250000Y-46000000D03*
X82350000Y-46000000D03*
%TD*%
D13*
%TO.C,C1*%
X92075000Y-54361000D03*
X92075000Y-56261000D03*
%TD*%
D14*
%TO.C,C5*%
X99695000Y-44577000D03*
X101595000Y-44577000D03*
%TD*%
%TO.C,C4*%
X99695000Y-49149000D03*
X101595000Y-49149000D03*
%TD*%
D15*
%TO.C,FB1*%
X80675000Y-38100000D03*
X82550000Y-38100000D03*
%TD*%
D16*
%TO.C,D5*%
X81280000Y-30970000D03*
X81280000Y-26670000D03*
%TD*%
D17*
%TO.C,D6*%
X85979000Y-23271000D03*
X85979000Y-25146000D03*
%TD*%
D15*
%TO.C,F2*%
X72390000Y-38100000D03*
X74265000Y-38100000D03*
%TD*%
D18*
%TO.C,U1*%
X101913314Y-53716092D03*
X100963314Y-53716092D03*
X100013314Y-53716092D03*
X100013314Y-55991092D03*
X100963314Y-55991092D03*
X101913314Y-55991092D03*
%TD*%
D13*
%TO.C,C2*%
X96520000Y-54610000D03*
X96520000Y-56510000D03*
%TD*%
D19*
%TO.C,R8*%
X74500000Y-57000000D03*
X74500000Y-58825000D03*
%TD*%
D20*
%TO.C,D3*%
X81500000Y-57500000D03*
X79600000Y-57500000D03*
X80550000Y-59375000D03*
%TD*%
D19*
%TO.C,R14*%
X139113000Y-55079000D03*
X139113000Y-56904000D03*
%TD*%
D21*
%TO.C,R1*%
X95965000Y-59690000D03*
X97790000Y-59690000D03*
%TD*%
%TO.C,R5*%
X100410000Y-59690000D03*
X102235000Y-59690000D03*
%TD*%
D17*
%TO.C,D7*%
X90424000Y-23271000D03*
X90424000Y-25146000D03*
%TD*%
D22*
%TO.C,R12*%
X90805000Y-29765000D03*
X90805000Y-27940000D03*
%TD*%
D23*
%TO.C,U3*%
X131378000Y-30509000D03*
X131378000Y-31779000D03*
X131378000Y-33049000D03*
X131378000Y-34319000D03*
X136328000Y-34319000D03*
X136328000Y-33049000D03*
X136328000Y-31779000D03*
X136328000Y-30509000D03*
%TD*%
D24*
%TO.C,R2*%
X97710000Y-63500000D03*
X95885000Y-63500000D03*
%TD*%
%TO.C,R3*%
X107235000Y-63500000D03*
X105410000Y-63500000D03*
%TD*%
D25*
%TO.C,L1*%
X96774000Y-37664000D03*
X96774000Y-42164000D03*
%TD*%
D19*
%TO.C,R6*%
X87000000Y-57000000D03*
X87000000Y-58825000D03*
%TD*%
D26*
%TO.C,U2*%
X83000000Y-54405000D03*
X83000000Y-53135000D03*
X83000000Y-51865000D03*
X83000000Y-50595000D03*
X78050000Y-50595000D03*
X78050000Y-51865000D03*
X78050000Y-53135000D03*
X78050000Y-54405000D03*
%TD*%
D12*
%TO.C,C9*%
X134762836Y-25463049D03*
X132862836Y-25463049D03*
%TD*%
D27*
%TO.C,D9*%
X139113000Y-63254000D03*
X139113000Y-61379000D03*
%TD*%
D13*
%TO.C,C8*%
X87000000Y-51500000D03*
X87000000Y-53400000D03*
%TD*%
D12*
%TO.C,C6*%
X102230000Y-63500000D03*
X100330000Y-63500000D03*
%TD*%
D19*
%TO.C,R7*%
X74500000Y-51000000D03*
X74500000Y-52825000D03*
%TD*%
%TO.C,R13*%
X144193000Y-55079000D03*
X144193000Y-56904000D03*
%TD*%
D12*
%TO.C,C3*%
X107188000Y-55880000D03*
X105288000Y-55880000D03*
%TD*%
D27*
%TO.C,D8*%
X144193000Y-63254000D03*
X144193000Y-61379000D03*
%TD*%
D24*
%TO.C,R4*%
X107235000Y-59690000D03*
X105410000Y-59690000D03*
%TD*%
D22*
%TO.C,R11*%
X86995000Y-29845000D03*
X86995000Y-28020000D03*
%TD*%
D28*
%TO.C,D4*%
X74126970Y-31088174D03*
X74126970Y-27088174D03*
%TD*%
D19*
%TO.C,R9*%
X145283000Y-30589000D03*
X145283000Y-32414000D03*
%TD*%
D29*
%TO.C,J3*%
X149923000Y-60534000D03*
X154963000Y-60534000D03*
X149923000Y-57994000D03*
X154963000Y-57994000D03*
X149923000Y-55454000D03*
X154963000Y-55454000D03*
X149923000Y-52914000D03*
X154963000Y-52914000D03*
X149923000Y-50374000D03*
X154963000Y-50374000D03*
X149923000Y-47834000D03*
X154963000Y-47834000D03*
X149923000Y-45294000D03*
X154963000Y-45294000D03*
X149923000Y-42754000D03*
X154963000Y-42754000D03*
X149923000Y-40214000D03*
X154963000Y-40214000D03*
X149923000Y-37674000D03*
X154963000Y-37674000D03*
X149923000Y-35134000D03*
X154963000Y-35134000D03*
X149923000Y-32594000D03*
X154963000Y-32594000D03*
X149923000Y-30054000D03*
X154963000Y-30054000D03*
X149923000Y-27514000D03*
X154963000Y-27514000D03*
X149923000Y-24974000D03*
X154963000Y-24974000D03*
%TD*%
D19*
%TO.C,R10*%
X140203000Y-30589000D03*
X140203000Y-32414000D03*
%TD*%
D29*
%TO.C,J4*%
X119323000Y-60534000D03*
X124363000Y-60534000D03*
X119323000Y-57994000D03*
X124363000Y-57994000D03*
X119323000Y-55454000D03*
X124363000Y-55454000D03*
X119323000Y-52914000D03*
X124363000Y-52914000D03*
X119323000Y-50374000D03*
X124363000Y-50374000D03*
X119323000Y-47834000D03*
X124363000Y-47834000D03*
X119323000Y-45294000D03*
X124363000Y-45294000D03*
X119323000Y-42754000D03*
X124363000Y-42754000D03*
X119323000Y-40214000D03*
X124363000Y-40214000D03*
X119323000Y-37674000D03*
X124363000Y-37674000D03*
X119323000Y-35134000D03*
X124363000Y-35134000D03*
X119323000Y-32594000D03*
X124363000Y-32594000D03*
X119323000Y-30054000D03*
X124363000Y-30054000D03*
X119323000Y-27514000D03*
X124363000Y-27514000D03*
X119323000Y-24974000D03*
X124363000Y-24974000D03*
%TD*%
M02*
