%TF.GenerationSoftware,KiCad,Pcbnew,10.0.3*%
%TF.CreationDate,2026-06-24T19:40:23+02:00*%
%TF.ProjectId,E0001-000002,45303030-312d-4303-9030-3030322e6b69,rev?*%
%TF.SameCoordinates,Original*%
%TF.FileFunction,Copper,L1,Top*%
%TF.FilePolarity,Positive*%
%FSLAX46Y46*%
G04 Gerber Fmt 4.6, Leading zero omitted, Abs format (unit mm)*
G04 Created by KiCad (PCBNEW 10.0.3) date 2026-06-24 19:40:23*
%MOMM*%
%LPD*%
G01*
G04 APERTURE LIST*
G04 Aperture macros list*
%AMRoundRect*
0 Rectangle with rounded corners*
0 $1 Rounding radius*
0 $2 $3 $4 $5 $6 $7 $8 $9 X,Y pos of 4 corners*
0 Add a 4 corners polygon primitive as box body*
4,1,4,$2,$3,$4,$5,$6,$7,$8,$9,$2,$3,0*
0 Add four circle primitives for the rounded corners*
1,1,$1+$1,$2,$3*
1,1,$1+$1,$4,$5*
1,1,$1+$1,$6,$7*
1,1,$1+$1,$8,$9*
0 Add four rect primitives between the rounded corners*
20,1,$1+$1,$2,$3,$4,$5,0*
20,1,$1+$1,$4,$5,$6,$7,0*
20,1,$1+$1,$6,$7,$8,$9,0*
20,1,$1+$1,$8,$9,$2,$3,0*%
G04 Aperture macros list end*
%TA.AperFunction,SMDPad,CuDef*%
%ADD10RoundRect,0.243750X-0.243750X-0.456250X0.243750X-0.456250X0.243750X0.456250X-0.243750X0.456250X0*%
%TD*%
%TA.AperFunction,SMDPad,CuDef*%
%ADD11RoundRect,0.250000X0.900000X-1.000000X0.900000X1.000000X-0.900000X1.000000X-0.900000X-1.000000X0*%
%TD*%
%TA.AperFunction,SMDPad,CuDef*%
%ADD12RoundRect,0.243750X-0.456250X0.243750X-0.456250X-0.243750X0.456250X-0.243750X0.456250X0.243750X0*%
%TD*%
%TA.AperFunction,SMDPad,CuDef*%
%ADD13RoundRect,0.250000X-0.250000X-0.475000X0.250000X-0.475000X0.250000X0.475000X-0.250000X0.475000X0*%
%TD*%
%TA.AperFunction,SMDPad,CuDef*%
%ADD14RoundRect,0.150000X-0.150000X0.512500X-0.150000X-0.512500X0.150000X-0.512500X0.150000X0.512500X0*%
%TD*%
%TA.AperFunction,SMDPad,CuDef*%
%ADD15RoundRect,0.250000X-0.475000X0.250000X-0.475000X-0.250000X0.475000X-0.250000X0.475000X0.250000X0*%
%TD*%
%TA.AperFunction,SMDPad,CuDef*%
%ADD16RoundRect,0.250000X-0.450000X0.262500X-0.450000X-0.262500X0.450000X-0.262500X0.450000X0.262500X0*%
%TD*%
%TA.AperFunction,SMDPad,CuDef*%
%ADD17RoundRect,0.150000X-0.150000X0.587500X-0.150000X-0.587500X0.150000X-0.587500X0.150000X0.587500X0*%
%TD*%
%TA.AperFunction,SMDPad,CuDef*%
%ADD18RoundRect,0.250000X-0.262500X-0.450000X0.262500X-0.450000X0.262500X0.450000X-0.262500X0.450000X0*%
%TD*%
%TA.AperFunction,SMDPad,CuDef*%
%ADD19RoundRect,0.250000X0.450000X-0.262500X0.450000X0.262500X-0.450000X0.262500X-0.450000X-0.262500X0*%
%TD*%
%TA.AperFunction,SMDPad,CuDef*%
%ADD20RoundRect,0.150000X0.825000X0.150000X-0.825000X0.150000X-0.825000X-0.150000X0.825000X-0.150000X0*%
%TD*%
%TA.AperFunction,SMDPad,CuDef*%
%ADD21RoundRect,0.250000X0.262500X0.450000X-0.262500X0.450000X-0.262500X-0.450000X0.262500X-0.450000X0*%
%TD*%
%TA.AperFunction,SMDPad,CuDef*%
%ADD22RoundRect,0.250000X-2.600000X0.600000X-2.600000X-0.600000X2.600000X-0.600000X2.600000X0.600000X0*%
%TD*%
%TA.AperFunction,SMDPad,CuDef*%
%ADD23RoundRect,0.250000X0.250000X0.475000X-0.250000X0.475000X-0.250000X-0.475000X0.250000X-0.475000X0*%
%TD*%
%TA.AperFunction,SMDPad,CuDef*%
%ADD24RoundRect,0.250000X0.475000X-0.250000X0.475000X0.250000X-0.475000X0.250000X-0.475000X-0.250000X0*%
%TD*%
%TA.AperFunction,SMDPad,CuDef*%
%ADD25R,1.000000X1.500000*%
%TD*%
%TA.AperFunction,ComponentPad*%
%ADD26RoundRect,0.250001X0.499999X-0.499999X0.499999X0.499999X-0.499999X0.499999X-0.499999X-0.499999X0*%
%TD*%
%TA.AperFunction,ComponentPad*%
%ADD27C,1.500000*%
%TD*%
%TA.AperFunction,SMDPad,CuDef*%
%ADD28RoundRect,0.250000X0.650000X-1.000000X0.650000X1.000000X-0.650000X1.000000X-0.650000X-1.000000X0*%
%TD*%
%TA.AperFunction,SMDPad,CuDef*%
%ADD29R,3.000000X1.000000*%
%TD*%
%TA.AperFunction,ViaPad*%
%ADD30C,0.600000*%
%TD*%
%TA.AperFunction,Conductor*%
%ADD31C,0.106680*%
%TD*%
%TA.AperFunction,Conductor*%
%ADD32C,1.000000*%
%TD*%
%TA.AperFunction,Conductor*%
%ADD33C,1.300000*%
%TD*%
%TA.AperFunction,Conductor*%
%ADD34C,0.200000*%
%TD*%
%TA.AperFunction,Conductor*%
%ADD35C,1.200000*%
%TD*%
%TA.AperFunction,Conductor*%
%ADD36C,0.101702*%
%TD*%
%TA.AperFunction,Conductor*%
%ADD37C,0.101700*%
%TD*%
%TA.AperFunction,Conductor*%
%ADD38C,0.500000*%
%TD*%
%TA.AperFunction,Conductor*%
%ADD39C,0.600000*%
%TD*%
%TA.AperFunction,Conductor*%
%ADD40C,0.300000*%
%TD*%
G04 APERTURE END LIST*
D10*
%TO.P,FB1,1*%
%TO.N,+12V*%
X80675000Y-38100000D03*
%TO.P,FB1,2*%
%TO.N,Net-(U1-VIN)*%
X82550000Y-38100000D03*
%TD*%
D11*
%TO.P,D5,1,A1_1*%
%TO.N,+12V*%
X81280000Y-30970000D03*
%TO.P,D5,2,A2_2*%
%TO.N,GND*%
X81280000Y-26670000D03*
%TD*%
D12*
%TO.P,D6,1,K_1*%
%TO.N,GND*%
X85979000Y-23271000D03*
%TO.P,D6,2,A_2*%
%TO.N,Net-(D6-A)*%
X85979000Y-25146000D03*
%TD*%
D10*
%TO.P,F2,1*%
%TO.N,Net-(J1-Pin_1)*%
X72390000Y-38100000D03*
%TO.P,F2,2*%
%TO.N,+12V*%
X74265000Y-38100000D03*
%TD*%
D13*
%TO.P,C5,1*%
%TO.N,+3.3V*%
X99695000Y-44577000D03*
%TO.P,C5,2*%
%TO.N,GND*%
X101595000Y-44577000D03*
%TD*%
D14*
%TO.P,U1,1,GND_1*%
%TO.N,GND*%
X101913314Y-53716092D03*
%TO.P,U1,2,SW_2*%
%TO.N,Net-(U1-SW)*%
X100963314Y-53716092D03*
%TO.P,U1,3,VIN_3*%
%TO.N,Net-(U1-VIN)*%
X100013314Y-53716092D03*
%TO.P,U1,4,FB_4*%
%TO.N,Net-(U1-FB)*%
X100013314Y-55991092D03*
%TO.P,U1,5,EN_5*%
%TO.N,Net-(U1-EN)*%
X100963314Y-55991092D03*
%TO.P,U1,6,BOOT_6*%
%TO.N,Net-(U1-BOOT)*%
X101913314Y-55991092D03*
%TD*%
D15*
%TO.P,C2,1*%
%TO.N,Net-(U1-VIN)*%
X96520000Y-54610000D03*
%TO.P,C2,2*%
%TO.N,GND*%
X96520000Y-56510000D03*
%TD*%
D16*
%TO.P,R8,1*%
%TO.N,Net-(U2-Rs)*%
X74500000Y-57000000D03*
%TO.P,R8,2*%
%TO.N,GND*%
X74500000Y-58825000D03*
%TD*%
D17*
%TO.P,D3,1,K_1*%
%TO.N,CAN_L*%
X81595000Y-57355500D03*
%TO.P,D3,2,K_2*%
%TO.N,CAN_H*%
X79695000Y-57355500D03*
%TO.P,D3,3,A_3*%
%TO.N,GND*%
X80645000Y-59230500D03*
%TD*%
D16*
%TO.P,R14,1*%
%TO.N,LED_Status*%
X105918000Y-23114000D03*
%TO.P,R14,2*%
%TO.N,Net-(D9-A)*%
X105918000Y-24939000D03*
%TD*%
D18*
%TO.P,R1,1*%
%TO.N,Net-(U1-VIN)*%
X95965000Y-59690000D03*
%TO.P,R1,2*%
%TO.N,Net-(U1-EN)*%
X97790000Y-59690000D03*
%TD*%
%TO.P,R5,1*%
%TO.N,Net-(U1-FB)*%
X100410000Y-59690000D03*
%TO.P,R5,2*%
%TO.N,GND*%
X102235000Y-59690000D03*
%TD*%
D12*
%TO.P,D7,1,K_1*%
%TO.N,GND*%
X90424000Y-23271000D03*
%TO.P,D7,2,A_2*%
%TO.N,Net-(D7-A)*%
X90424000Y-25146000D03*
%TD*%
D15*
%TO.P,C1,1*%
%TO.N,Net-(U1-VIN)*%
X92075000Y-54361000D03*
%TO.P,C1,2*%
%TO.N,GND*%
X92075000Y-56261000D03*
%TD*%
D19*
%TO.P,R12,1*%
%TO.N,+3.3V*%
X90805000Y-29765000D03*
%TO.P,R12,2*%
%TO.N,Net-(D7-A)*%
X90805000Y-27940000D03*
%TD*%
D20*
%TO.P,U3,1,NC_1*%
%TO.N,unconnected-(U3-NC-Pad1)*%
X135636000Y-53975000D03*
%TO.P,U3,2,NC_2*%
%TO.N,unconnected-(U3-NC-Pad2)*%
X135636000Y-52705000D03*
%TO.P,U3,3,NC_3*%
%TO.N,unconnected-(U3-NC-Pad3)*%
X135636000Y-51435000D03*
%TO.P,U3,4,GND_4*%
%TO.N,GND*%
X135636000Y-50165000D03*
%TO.P,U3,5,SDA_5*%
%TO.N,I2C2_SDA*%
X130686000Y-50165000D03*
%TO.P,U3,6,SCL_6*%
%TO.N,I2C2_SCL*%
X130686000Y-51435000D03*
%TO.P,U3,7,NC_7*%
%TO.N,unconnected-(U3-NC-Pad7)*%
X130686000Y-52705000D03*
%TO.P,U3,8,VCC_8*%
%TO.N,+3.3V*%
X130686000Y-53975000D03*
%TD*%
D21*
%TO.P,R2,1*%
%TO.N,Net-(U1-EN)*%
X97710000Y-63500000D03*
%TO.P,R2,2*%
%TO.N,GND*%
X95885000Y-63500000D03*
%TD*%
%TO.P,R3,1*%
%TO.N,+3.3V*%
X107235000Y-63500000D03*
%TO.P,R3,2*%
%TO.N,Net-(C6-Pad1)*%
X105410000Y-63500000D03*
%TD*%
D22*
%TO.P,L1,1*%
%TO.N,Net-(U1-SW)*%
X96774000Y-37664000D03*
%TO.P,L1,2*%
%TO.N,+3.3V*%
X96774000Y-42164000D03*
%TD*%
D16*
%TO.P,R6,1*%
%TO.N,+3.3V*%
X87000000Y-57000000D03*
%TO.P,R6,2*%
%TO.N,CAN_TX*%
X87000000Y-58825000D03*
%TD*%
D23*
%TO.P,C7,1*%
%TO.N,+3.3V*%
X84250000Y-46000000D03*
%TO.P,C7,2*%
%TO.N,GND*%
X82350000Y-46000000D03*
%TD*%
D20*
%TO.P,U2,1,D_1*%
%TO.N,CAN_TX*%
X83000000Y-54405000D03*
%TO.P,U2,2,GND_2*%
%TO.N,GND*%
X83000000Y-53135000D03*
%TO.P,U2,3,VCC_3*%
%TO.N,+3.3V*%
X83000000Y-51865000D03*
%TO.P,U2,4,R_4*%
%TO.N,CAN_RX*%
X83000000Y-50595000D03*
%TO.P,U2,5,Vref_5*%
%TO.N,unconnected-(U2-Vref-Pad5)*%
X78050000Y-50595000D03*
%TO.P,U2,6,CANL_6*%
%TO.N,CAN_L*%
X78050000Y-51865000D03*
%TO.P,U2,7,CANH_7*%
%TO.N,CAN_H*%
X78050000Y-53135000D03*
%TO.P,U2,8,Rs_8*%
%TO.N,Net-(U2-Rs)*%
X78050000Y-54405000D03*
%TD*%
D24*
%TO.P,C9,1*%
%TO.N,+3.3V*%
X139192000Y-52277000D03*
%TO.P,C9,2*%
%TO.N,GND*%
X139192000Y-50377000D03*
%TD*%
D25*
%TO.P,JP1,1,A_1*%
%TO.N,Net-(JP1-A)*%
X73700000Y-46000000D03*
%TO.P,JP1,2,B_2*%
%TO.N,CAN_L*%
X75000000Y-46000000D03*
%TD*%
D12*
%TO.P,D9,1,K_1*%
%TO.N,GND*%
X103505000Y-23064000D03*
%TO.P,D9,2,A_2*%
%TO.N,Net-(D9-A)*%
X103505000Y-24939000D03*
%TD*%
D15*
%TO.P,C8,1*%
%TO.N,+3.3V*%
X87000000Y-51500000D03*
%TO.P,C8,2*%
%TO.N,GND*%
X87000000Y-53400000D03*
%TD*%
D23*
%TO.P,C6,1*%
%TO.N,Net-(C6-Pad1)*%
X102230000Y-63500000D03*
%TO.P,C6,2*%
%TO.N,Net-(U1-FB)*%
X100330000Y-63500000D03*
%TD*%
D16*
%TO.P,R7,1*%
%TO.N,Net-(JP1-A)*%
X74500000Y-51000000D03*
%TO.P,R7,2*%
%TO.N,CAN_H*%
X74500000Y-52825000D03*
%TD*%
%TO.P,R13,1*%
%TO.N,LED_CAN*%
X99949000Y-23194000D03*
%TO.P,R13,2*%
%TO.N,Net-(D8-A)*%
X99949000Y-25019000D03*
%TD*%
D26*
%TO.P,J2,1,Pin_1_1*%
%TO.N,Net-(J1-Pin_1)*%
X66550000Y-52300000D03*
D27*
%TO.P,J2,2,Pin_2_2*%
%TO.N,GND*%
X66550000Y-49300000D03*
%TO.P,J2,3,Pin_3_3*%
%TO.N,CAN_H*%
X69550000Y-52300000D03*
%TO.P,J2,4,Pin_4_4*%
%TO.N,CAN_L*%
X69550000Y-49300000D03*
%TD*%
D23*
%TO.P,C3,1*%
%TO.N,Net-(U1-BOOT)*%
X107188000Y-55880000D03*
%TO.P,C3,2*%
%TO.N,Net-(U1-SW)*%
X105288000Y-55880000D03*
%TD*%
D12*
%TO.P,D8,1,K_1*%
%TO.N,GND*%
X96393000Y-23271000D03*
%TO.P,D8,2,A_2*%
%TO.N,Net-(D8-A)*%
X96393000Y-25146000D03*
%TD*%
D21*
%TO.P,R4,1*%
%TO.N,Net-(C6-Pad1)*%
X107235000Y-59690000D03*
%TO.P,R4,2*%
%TO.N,Net-(U1-FB)*%
X105410000Y-59690000D03*
%TD*%
D19*
%TO.P,R11,1*%
%TO.N,+12V*%
X86995000Y-29845000D03*
%TO.P,R11,2*%
%TO.N,Net-(D6-A)*%
X86995000Y-28020000D03*
%TD*%
D28*
%TO.P,D4,1,K_1*%
%TO.N,+12V*%
X74126970Y-31088174D03*
%TO.P,D4,2,A_2*%
%TO.N,GND*%
X74126970Y-27088174D03*
%TD*%
D19*
%TO.P,R9,1*%
%TO.N,+3.3V*%
X143256000Y-52197000D03*
%TO.P,R9,2*%
%TO.N,I2C2_SDA*%
X143256000Y-50372000D03*
%TD*%
D13*
%TO.P,C4,1*%
%TO.N,+3.3V*%
X99695000Y-49149000D03*
%TO.P,C4,2*%
%TO.N,GND*%
X101595000Y-49149000D03*
%TD*%
D29*
%TO.P,J3,1,Pin_1_1*%
%TO.N,unconnected-(J3-Pin_1-Pad1)*%
X121047677Y-23188631D03*
%TO.P,J3,2,Pin_2_2*%
%TO.N,GND*%
X126087677Y-23188631D03*
%TO.P,J3,3,Pin_3_3*%
%TO.N,unconnected-(J3-Pin_3-Pad3)*%
X121047677Y-25728631D03*
%TO.P,J3,4,Pin_4_4*%
%TO.N,unconnected-(J3-Pin_4-Pad4)*%
X126087677Y-25728631D03*
%TO.P,J3,5,Pin_5_5*%
%TO.N,unconnected-(J3-Pin_5-Pad5)*%
X121047677Y-28268631D03*
%TO.P,J3,6,Pin_6_6*%
%TO.N,unconnected-(J3-Pin_6-Pad6)*%
X126087677Y-28268631D03*
%TO.P,J3,7,Pin_7_7*%
%TO.N,unconnected-(J3-Pin_7-Pad7)*%
X121047677Y-30808631D03*
%TO.P,J3,8,Pin_8_8*%
%TO.N,unconnected-(J3-Pin_8-Pad8)*%
X126087677Y-30808631D03*
%TO.P,J3,9,Pin_9_9*%
%TO.N,OW_DATA*%
X121047677Y-33348631D03*
%TO.P,J3,10,Pin_10_10*%
%TO.N,unconnected-(J3-Pin_10-Pad10)*%
X126087677Y-33348631D03*
%TO.P,J3,11,Pin_11_11*%
%TO.N,LED_CAN*%
X121047677Y-35888631D03*
%TO.P,J3,12,Pin_12_12*%
%TO.N,LED_Status*%
X126087677Y-35888631D03*
%TO.P,J3,13,Pin_13_13*%
%TO.N,SPI_CS2*%
X121047677Y-38428631D03*
%TO.P,J3,14,Pin_14_14*%
%TO.N,SP1_CS1*%
X126087677Y-38428631D03*
%TO.P,J3,15,Pin_15_15*%
%TO.N,unconnected-(J3-Pin_15-Pad15)*%
X121047677Y-40968631D03*
%TO.P,J3,16,Pin_16_16*%
%TO.N,STRAP_0*%
X126087677Y-40968631D03*
%TO.P,J3,17,Pin_17_17*%
%TO.N,ADC_1*%
X121047677Y-43508631D03*
%TO.P,J3,18,Pin_18_18*%
%TO.N,STRAP_2*%
X126087677Y-43508631D03*
%TO.P,J3,19,Pin_19_19*%
%TO.N,PWM_3*%
X121047677Y-46048631D03*
%TO.P,J3,20,Pin_20_20*%
%TO.N,ADC_2*%
X126087677Y-46048631D03*
%TO.P,J3,21,Pin_21_21*%
%TO.N,unconnected-(J3-Pin_21-Pad21)*%
X121047677Y-48588631D03*
%TO.P,J3,22,Pin_22_22*%
%TO.N,PWM_4*%
X126087677Y-48588631D03*
%TO.P,J3,23,Pin_23_23*%
%TO.N,I2C2_SDA*%
X121047677Y-51128631D03*
%TO.P,J3,24,Pin_24_24*%
%TO.N,I2C2_SCL*%
X126087677Y-51128631D03*
%TO.P,J3,25,Pin_25_25*%
%TO.N,+3.3V*%
X121047677Y-53668631D03*
%TO.P,J3,26,Pin_26_26*%
%TO.N,GND*%
X126087677Y-53668631D03*
%TO.P,J3,27,Pin_27_27*%
%TO.N,+3.3V*%
X121047677Y-56208631D03*
%TO.P,J3,28,Pin_28_28*%
%TO.N,GND*%
X126087677Y-56208631D03*
%TO.P,J3,29,Pin_29_29*%
%TO.N,+3.3V*%
X121047677Y-58748631D03*
%TO.P,J3,30,Pin_30_30*%
%TO.N,GND*%
X126087677Y-58748631D03*
%TD*%
D19*
%TO.P,R10,1*%
%TO.N,+3.3V*%
X141224000Y-52197000D03*
%TO.P,R10,2*%
%TO.N,I2C2_SCL*%
X141224000Y-50372000D03*
%TD*%
D29*
%TO.P,J4,1,Pin_1_1*%
%TO.N,CAN_TX*%
X148975664Y-23183966D03*
%TO.P,J4,2,Pin_2_2*%
%TO.N,GND*%
X154015664Y-23183966D03*
%TO.P,J4,3,Pin_3_3*%
%TO.N,I2C1_SDA*%
X148975664Y-25723966D03*
%TO.P,J4,4,Pin_4_4*%
%TO.N,CAN_RX*%
X154015664Y-25723966D03*
%TO.P,J4,5,Pin_5_5*%
%TO.N,unconnected-(J4-Pin_5-Pad5)*%
X148975664Y-28263966D03*
%TO.P,J4,6,Pin_6_6*%
%TO.N,I2C1_SCL*%
X154015664Y-28263966D03*
%TO.P,J4,7,Pin_7_7*%
%TO.N,unconnected-(J4-Pin_7-Pad7)*%
X148975664Y-30803966D03*
%TO.P,J4,8,Pin_8_8*%
%TO.N,unconnected-(J4-Pin_8-Pad8)*%
X154015664Y-30803966D03*
%TO.P,J4,9,Pin_9_9*%
%TO.N,unconnected-(J4-Pin_9-Pad9)*%
X148975664Y-33343966D03*
%TO.P,J4,10,Pin_10_10*%
%TO.N,unconnected-(J4-Pin_10-Pad10)*%
X154015664Y-33343966D03*
%TO.P,J4,11,Pin_11_11*%
%TO.N,unconnected-(J4-Pin_11-Pad11)*%
X148975664Y-35883966D03*
%TO.P,J4,12,Pin_12_12*%
%TO.N,unconnected-(J4-Pin_12-Pad12)*%
X154015664Y-35883966D03*
%TO.P,J4,13,Pin_13_13*%
%TO.N,unconnected-(J4-Pin_13-Pad13)*%
X148975664Y-38423966D03*
%TO.P,J4,14,Pin_14_14*%
%TO.N,GPIO_3*%
X154015664Y-38423966D03*
%TO.P,J4,15,Pin_15_15*%
%TO.N,USART1_RX*%
X148975664Y-40963966D03*
%TO.P,J4,16,Pin_16_16*%
%TO.N,unconnected-(J4-Pin_16-Pad16)*%
X154015664Y-40963966D03*
%TO.P,J4,17,Pin_17_17*%
%TO.N,unconnected-(J4-Pin_17-Pad17)*%
X148975664Y-43503966D03*
%TO.P,J4,18,Pin_18_18*%
%TO.N,USART1_TX*%
X154015664Y-43503966D03*
%TO.P,J4,19,Pin_19_19*%
%TO.N,unconnected-(J4-Pin_19-Pad19)*%
X148975664Y-46043966D03*
%TO.P,J4,20,Pin_20_20*%
%TO.N,unconnected-(J4-Pin_20-Pad20)*%
X154015664Y-46043966D03*
%TO.P,J4,21,Pin_21_21*%
%TO.N,PWM_1*%
X148975664Y-48583966D03*
%TO.P,J4,22,Pin_22_22*%
%TO.N,PWM_2*%
X154015664Y-48583966D03*
%TO.P,J4,23,Pin_23_23*%
%TO.N,SPI2_MISO*%
X148975664Y-51123966D03*
%TO.P,J4,24,Pin_24_24*%
%TO.N,SPI2_MOSI*%
X154015664Y-51123966D03*
%TO.P,J4,25,Pin_25_25*%
%TO.N,GPIO_4*%
X148975664Y-53663966D03*
%TO.P,J4,26,Pin_26_26*%
%TO.N,SPI2_SCK*%
X154015664Y-53663966D03*
%TO.P,J4,27,Pin_27_27*%
%TO.N,unconnected-(J4-Pin_27-Pad27)*%
X148975664Y-56203966D03*
%TO.P,J4,28,Pin_28_28*%
%TO.N,unconnected-(J4-Pin_28-Pad28)*%
X154015664Y-56203966D03*
%TO.P,J4,29,Pin_29_29*%
%TO.N,GND*%
X148975664Y-58743966D03*
%TO.P,J4,30,Pin_30_30*%
X154015664Y-58743966D03*
%TD*%
D26*
%TO.P,J1,1,Pin_1_1*%
%TO.N,Net-(J1-Pin_1)*%
X66550000Y-34520000D03*
D27*
%TO.P,J1,2,Pin_2_2*%
%TO.N,GND*%
X66550000Y-31520000D03*
%TO.P,J1,3,Pin_3_3*%
%TO.N,CAN_H*%
X69550000Y-34520000D03*
%TO.P,J1,4,Pin_4_4*%
%TO.N,CAN_L*%
X69550000Y-31520000D03*
%TD*%
D30*
%TO.N,GND*%
X131267200Y-30276800D03*
X138582400Y-55016400D03*
X79629000Y-60071000D03*
X76708000Y-48768000D03*
X161340800Y-32766000D03*
X105791000Y-35052000D03*
X107746800Y-66700400D03*
X136144000Y-27584400D03*
X89154000Y-50546000D03*
X128397000Y-53848000D03*
X58293000Y-49403000D03*
X127508000Y-61976000D03*
X151384000Y-27127200D03*
X58547000Y-57023000D03*
X123139200Y-36931600D03*
X129159000Y-23241000D03*
X73568621Y-58837585D03*
X109601000Y-38100000D03*
X84201000Y-57404000D03*
X81153000Y-42164000D03*
X65024000Y-43688000D03*
X132943600Y-33324800D03*
X156464000Y-65328800D03*
X103886000Y-31877000D03*
X83312000Y-47371000D03*
X140817600Y-44145200D03*
X146558000Y-33426400D03*
X142494000Y-43129200D03*
X127762000Y-32054800D03*
X101854000Y-61341000D03*
X81788000Y-44323000D03*
X71628000Y-66548000D03*
X87122000Y-42926000D03*
X151333200Y-57454800D03*
X159054800Y-38455600D03*
X113030000Y-59791600D03*
X143916400Y-30480000D03*
X94894400Y-65582800D03*
X102362000Y-37846000D03*
X89281000Y-53721000D03*
X103124000Y-58801000D03*
X69088000Y-57912000D03*
X75692000Y-62738000D03*
X62357000Y-22225000D03*
X159105600Y-45313600D03*
X110490000Y-64211200D03*
X159613600Y-62585600D03*
X112725200Y-37896800D03*
X102616000Y-51689000D03*
X66802000Y-62230000D03*
X60833000Y-46609000D03*
X77978000Y-56769000D03*
X143713200Y-65582800D03*
X87122000Y-66167000D03*
X58420000Y-34798000D03*
X90424000Y-58420000D03*
X112674400Y-46990000D03*
X106299000Y-28067000D03*
X109601000Y-45720000D03*
X98196400Y-22301200D03*
X88900000Y-56896000D03*
X92100400Y-63449200D03*
X146558000Y-35712400D03*
X109474000Y-22199600D03*
X128905000Y-58801000D03*
X98552000Y-66903600D03*
X136245600Y-24942800D03*
X130302000Y-21844000D03*
X71628000Y-54229000D03*
X152755600Y-44754800D03*
X134010400Y-65633600D03*
X71501000Y-36068000D03*
X103378000Y-61595000D03*
X85090000Y-55626000D03*
X112623600Y-32969200D03*
X128473200Y-30327600D03*
X77978000Y-46228000D03*
X96520000Y-57912000D03*
X109474000Y-53721000D03*
X145542000Y-42976800D03*
X139750800Y-61925200D03*
X69596000Y-26797000D03*
X145846800Y-46329600D03*
X68463780Y-21836000D03*
X100457000Y-28067000D03*
X77470000Y-42672000D03*
X151282400Y-65582800D03*
X134467600Y-57251600D03*
X106172000Y-45593000D03*
X123393200Y-65532000D03*
X139598400Y-26924000D03*
X116713000Y-22733000D03*
X103378000Y-60198000D03*
X92710000Y-60706000D03*
X92202000Y-38608000D03*
X157327600Y-21640800D03*
X119888000Y-65582800D03*
X105460800Y-65582800D03*
X112674400Y-42113200D03*
X161340800Y-44297600D03*
X90119200Y-64008000D03*
X59309000Y-26797000D03*
X146608800Y-27076400D03*
X139446000Y-65633600D03*
X158902400Y-28854400D03*
X133146800Y-38963600D03*
X128371600Y-26822400D03*
X146405600Y-54914800D03*
X137769600Y-28244800D03*
X144475200Y-37084000D03*
X62230000Y-43561000D03*
X62738000Y-66675000D03*
X79248000Y-44323000D03*
X120904000Y-61925200D03*
X140004800Y-46380400D03*
X142798800Y-46075600D03*
X145288000Y-52425600D03*
X73025000Y-42418000D03*
X105664000Y-53467000D03*
X87376000Y-23368000D03*
X159054800Y-48971200D03*
X91821000Y-26543000D03*
X148183600Y-65735200D03*
X139852400Y-30632400D03*
X65913000Y-25019000D03*
X72263000Y-50546000D03*
X112572800Y-57251600D03*
X65278000Y-46355000D03*
X84074000Y-27051000D03*
X153873200Y-61925200D03*
X79756000Y-51308000D03*
X58293000Y-42164000D03*
X77216000Y-27940000D03*
X70231000Y-41021000D03*
X159207200Y-33020000D03*
X58293000Y-62611000D03*
X89027000Y-45593000D03*
X138887200Y-57302400D03*
X144424400Y-21742400D03*
X156337000Y-23114000D03*
X64135000Y-35814000D03*
X151434800Y-54356000D03*
X102489000Y-40767000D03*
X129133600Y-65582800D03*
X93599000Y-57531000D03*
X110388400Y-61823600D03*
X161340800Y-56743600D03*
X70993000Y-46355000D03*
X91948000Y-23368000D03*
X141478000Y-41554400D03*
X62992000Y-40132000D03*
X66929000Y-66675000D03*
X84836000Y-53135000D03*
X129133600Y-34950400D03*
X161290000Y-50495200D03*
X82550000Y-55753000D03*
X143002000Y-27076400D03*
X146253200Y-44653200D03*
X102997000Y-47371000D03*
X89408000Y-33782000D03*
X132994400Y-46228000D03*
X81958971Y-65486697D03*
X64389000Y-55118000D03*
X76200000Y-66675000D03*
X112725200Y-50800000D03*
X136855200Y-21793200D03*
X61849000Y-61976000D03*
X60579000Y-36449000D03*
X63627000Y-29337000D03*
X161340800Y-38303200D03*
X81534000Y-53213000D03*
X151485600Y-46786800D03*
X82550000Y-49276000D03*
X116382800Y-65938400D03*
X82804000Y-24130000D03*
X108966000Y-32131000D03*
X85344000Y-63373000D03*
X161340800Y-28600400D03*
X94234000Y-55880000D03*
X109093000Y-41148000D03*
X75795142Y-21836000D03*
X113538000Y-27686000D03*
X86995000Y-54864000D03*
X96139000Y-35179000D03*
X99872800Y-65633600D03*
X94107000Y-62103000D03*
X147828000Y-44805600D03*
X89281000Y-38354000D03*
X159207200Y-56540400D03*
X135890000Y-46329600D03*
X108661200Y-63550800D03*
X138074400Y-37084000D03*
X153517600Y-65532000D03*
X136956800Y-42164000D03*
X129082800Y-57251600D03*
X138887200Y-42214800D03*
X115620800Y-61874400D03*
X132588000Y-61925200D03*
X134874000Y-44196000D03*
X65532000Y-40386000D03*
X92583000Y-32131000D03*
X159156400Y-52882800D03*
X71374000Y-63627000D03*
X87680800Y-61417200D03*
X128422400Y-38963600D03*
X157226000Y-58801000D03*
X132638800Y-31089600D03*
X161137600Y-25095200D03*
X64643000Y-32512000D03*
X102461177Y-53822642D03*
X133908800Y-51358800D03*
X137541000Y-49403000D03*
X96647000Y-61595000D03*
X60325000Y-53975000D03*
X85598000Y-48768000D03*
X72517000Y-27432000D03*
X85471000Y-58674000D03*
X128320800Y-28143200D03*
X74803000Y-54483000D03*
X141122400Y-37084000D03*
X161290000Y-61264800D03*
X77343000Y-57912000D03*
X105664000Y-40894000D03*
X157276800Y-61823600D03*
X142494000Y-24130000D03*
X88773000Y-27940000D03*
X159258000Y-59791600D03*
X98044000Y-31623000D03*
X83126503Y-21836000D03*
X88950800Y-60299600D03*
X133858000Y-27736800D03*
X58928000Y-29591000D03*
X146608800Y-30835600D03*
X128524000Y-55499000D03*
X79248000Y-47752000D03*
X67884153Y-29613710D03*
X109601000Y-50038000D03*
X117246400Y-59842400D03*
X145084800Y-57048400D03*
X77724000Y-24003000D03*
X93014800Y-66751200D03*
X135077200Y-37084000D03*
X147574000Y-61925200D03*
X145034000Y-41554400D03*
X135331200Y-30734000D03*
X157276800Y-27127200D03*
%TO.N,+3.3V*%
X111555330Y-31369000D03*
%TO.N,Net-(U1-SW)*%
X100965000Y-52705000D03*
X100963314Y-53340000D03*
X96647000Y-37846000D03*
%TO.N,CAN_L*%
X81534000Y-55753000D03*
%TO.N,CAN_H*%
X79629000Y-55753000D03*
%TO.N,CAN_RX*%
X118567200Y-62382400D03*
X84597304Y-50911696D03*
%TO.N,OW_DATA*%
X117475000Y-33401000D03*
%TO.N,SPI_CS2*%
X122174000Y-39497000D03*
%TO.N,SP1_CS1*%
X117686150Y-44763869D03*
%TO.N,STRAP_0*%
X145796000Y-37846000D03*
%TO.N,ADC_1*%
X156464000Y-39243000D03*
%TO.N,STRAP_2*%
X145796000Y-39497000D03*
%TO.N,PWM_3*%
X116967000Y-54483000D03*
%TO.N,ADC_2*%
X123444000Y-44196000D03*
%TO.N,PWM_4*%
X117348000Y-49022000D03*
%TO.N,I2C1_SDA*%
X130556000Y-34036000D03*
%TO.N,I2C1_SCL*%
X130556000Y-32258000D03*
%TO.N,GPIO_3*%
X117803531Y-45991969D03*
%TO.N,USART1_RX*%
X130556000Y-46990000D03*
%TO.N,USART1_TX*%
X130429000Y-45466000D03*
%TO.N,PWM_1*%
X146050000Y-48768000D03*
%TO.N,PWM_2*%
X154051000Y-49530000D03*
%TO.N,SPI2_MISO*%
X147701000Y-50165000D03*
%TO.N,SPI2_MOSI*%
X117252681Y-47244000D03*
%TO.N,GPIO_4*%
X128651000Y-52070000D03*
%TO.N,SPI2_SCK*%
X116586000Y-48006000D03*
%TD*%
%TO.N,+12V*%
D31*
X74930000Y-38000000D02*
X74930000Y-37298000D01*
X74127000Y-32642514D02*
X74127000Y-32340000D01*
X74930000Y-37298000D02*
X74930000Y-36995486D01*
X74930000Y-36995486D02*
X74127000Y-36192486D01*
D32*
X81161826Y-31088174D02*
X81280000Y-30970000D01*
D31*
X74127000Y-36192486D02*
X74127000Y-32642514D01*
X81280000Y-30970000D02*
X81770000Y-30480000D01*
X74127000Y-32340000D02*
X74127000Y-31088500D01*
X80675000Y-38100000D02*
X80575000Y-38000000D01*
X80575000Y-38000000D02*
X74930000Y-38000000D01*
X81161500Y-31088500D02*
X74127000Y-31088500D01*
X81770000Y-30480000D02*
X87075000Y-30480000D01*
%TO.N,Net-(U1-VIN)*%
D33*
X92075000Y-53340000D02*
X92075000Y-54092184D01*
D34*
X95495000Y-55635000D02*
X95495000Y-59220000D01*
X96520000Y-54610000D02*
X96520000Y-53716092D01*
D35*
X90805000Y-52070000D02*
X90805000Y-44323000D01*
X90805000Y-44323000D02*
X84582000Y-38100000D01*
X96520000Y-53716092D02*
X92451092Y-53716092D01*
X84582000Y-38100000D02*
X82550000Y-38100000D01*
D34*
X95495000Y-59220000D02*
X95965000Y-59690000D01*
X92075000Y-54092184D02*
X92451092Y-53716092D01*
D35*
X92451092Y-53716092D02*
X90805000Y-52070000D01*
D34*
X96520000Y-54610000D02*
X95495000Y-55635000D01*
D33*
X96520000Y-53716092D02*
X99813314Y-53716092D01*
%TO.N,GND*%
D34*
X81500000Y-52609999D02*
X82025001Y-53135000D01*
D36*
X87327417Y-53400000D02*
X87000000Y-53400000D01*
D34*
X80861826Y-27088174D02*
X81280000Y-26670000D01*
D37*
X157226000Y-58801000D02*
X157168966Y-58743966D01*
D38*
X156267034Y-23183966D02*
X154015664Y-23183966D01*
D36*
X102214000Y-53716500D02*
X102353935Y-53716500D01*
D37*
X138980000Y-50165000D02*
X139192000Y-50377000D01*
D34*
X84836000Y-53135000D02*
X86735000Y-53135000D01*
D37*
X129159000Y-23241000D02*
X129106631Y-23188631D01*
D34*
X92710000Y-59690000D02*
X92075000Y-59055000D01*
X82025001Y-53135000D02*
X83000000Y-53135000D01*
X92710000Y-60706000D02*
X92710000Y-59690000D01*
D36*
X102460077Y-53822642D02*
X102461177Y-53822642D01*
D37*
X137414000Y-49403000D02*
X136652000Y-50165000D01*
D34*
X96520000Y-56510000D02*
X96520000Y-57912000D01*
X92710000Y-60706000D02*
X91694000Y-60706000D01*
D36*
X73798000Y-58825000D02*
X73619832Y-58825000D01*
D38*
X127814369Y-56208631D02*
X126087677Y-56208631D01*
D34*
X80000000Y-58825000D02*
X80550000Y-59375000D01*
D37*
X128778000Y-58801000D02*
X128725631Y-58748631D01*
D34*
X86735000Y-53135000D02*
X87000000Y-53400000D01*
D37*
X135636000Y-50165000D02*
X138980000Y-50165000D01*
D38*
X128725631Y-58748631D02*
X126087677Y-58748631D01*
D34*
X74126970Y-28013030D02*
X74126970Y-27088174D01*
X82350000Y-46000000D02*
X81500000Y-46000000D01*
D38*
X154015664Y-58743966D02*
X148975664Y-58743966D01*
D37*
X128905000Y-58801000D02*
X128778000Y-58801000D01*
D36*
X74500000Y-58825000D02*
X73798000Y-58825000D01*
X101913000Y-53716500D02*
X102214000Y-53716500D01*
X102353935Y-53716500D02*
X102460077Y-53822642D01*
X73619832Y-58825000D02*
X73581206Y-58825000D01*
D37*
X138218000Y-49403000D02*
X139192000Y-50377000D01*
D34*
X85979000Y-23271000D02*
X87279000Y-23271000D01*
X87279000Y-23271000D02*
X87376000Y-23368000D01*
D38*
X128217631Y-53668631D02*
X126087677Y-53668631D01*
D34*
X81500000Y-46000000D02*
X81500000Y-52609999D01*
X91851000Y-23271000D02*
X91948000Y-23368000D01*
D38*
X129106631Y-23188631D02*
X126087677Y-23188631D01*
D37*
X137541000Y-49403000D02*
X137414000Y-49403000D01*
D34*
X92075000Y-59055000D02*
X92075000Y-60325000D01*
D37*
X137541000Y-49403000D02*
X138218000Y-49403000D01*
D34*
X74126970Y-27088174D02*
X80861826Y-27088174D01*
D36*
X73581206Y-58825000D02*
X73568621Y-58837585D01*
D34*
X83000000Y-53135000D02*
X84836000Y-53135000D01*
D38*
X128524000Y-55499000D02*
X127814369Y-56208631D01*
D37*
X156337000Y-23114000D02*
X156267034Y-23183966D01*
D38*
X157168966Y-58743966D02*
X154015664Y-58743966D01*
D34*
X74500000Y-58825000D02*
X80000000Y-58825000D01*
D36*
X86995000Y-54864000D02*
X87327417Y-54531583D01*
D34*
X92075000Y-60325000D02*
X91694000Y-60706000D01*
D37*
X136652000Y-50165000D02*
X135636000Y-50165000D01*
X128397000Y-53848000D02*
X128217631Y-53668631D01*
%TO.N,Net-(D6-A)*%
D34*
X86995000Y-26162000D02*
X86995000Y-28020000D01*
X85979000Y-25146000D02*
X86995000Y-26162000D01*
%TO.N,Net-(J1-Pin_1)*%
D32*
X67945000Y-40285000D02*
X67945000Y-48644390D01*
X70130000Y-38100000D02*
X72390000Y-38100000D01*
X68000000Y-48699390D02*
X68000000Y-49900610D01*
X67945000Y-49955610D02*
X67945000Y-50905000D01*
X67945000Y-50905000D02*
X66550000Y-52300000D01*
X66550000Y-34520000D02*
X70130000Y-38100000D01*
X68000000Y-49900610D02*
X67945000Y-49955610D01*
X67945000Y-48644390D02*
X68000000Y-48699390D01*
X70130000Y-38100000D02*
X67945000Y-40285000D01*
%TO.N,+3.3V*%
D38*
X88175000Y-55825000D02*
X88175000Y-52853122D01*
D37*
X141017000Y-52277000D02*
X139192000Y-52277000D01*
D38*
X111555330Y-59179670D02*
X111889330Y-59179670D01*
D37*
X135970000Y-55499000D02*
X132210000Y-55499000D01*
D38*
X110537000Y-29765000D02*
X90805000Y-29765000D01*
X83000000Y-51865000D02*
X86635000Y-51865000D01*
X107235000Y-63500000D02*
X111555330Y-59179670D01*
X85100000Y-46000000D02*
X84250000Y-46000000D01*
X90805000Y-40259000D02*
X92710000Y-42164000D01*
X88175000Y-52853122D02*
X88138000Y-52816122D01*
X107235000Y-63500000D02*
X105975130Y-64759870D01*
X112320369Y-58748631D02*
X121047677Y-58748631D01*
D37*
X141224000Y-52197000D02*
X141097000Y-52197000D01*
D38*
X111889330Y-59179670D02*
X112320369Y-58748631D01*
D34*
X130686000Y-53975000D02*
X129797000Y-54864000D01*
D37*
X141097000Y-52197000D02*
X141017000Y-52277000D01*
D38*
X94759870Y-64759870D02*
X87000000Y-57000000D01*
D37*
X132210000Y-55499000D02*
X130686000Y-53975000D01*
D38*
X111555330Y-31369000D02*
X111555330Y-30783330D01*
X111555330Y-59179670D02*
X111555330Y-31369000D01*
X121047677Y-58748631D02*
X121047677Y-56208631D01*
D34*
X129797000Y-54864000D02*
X122243046Y-54864000D01*
D38*
X88138000Y-52638000D02*
X87000000Y-51500000D01*
X105975130Y-64759870D02*
X94759870Y-64759870D01*
X88138000Y-52816122D02*
X88138000Y-52638000D01*
X85100000Y-46000000D02*
X87000000Y-47900000D01*
X86635000Y-51865000D02*
X87000000Y-51500000D01*
D37*
X139192000Y-52277000D02*
X135970000Y-55499000D01*
D38*
X111555330Y-30783330D02*
X110537000Y-29765000D01*
D34*
X122243046Y-54864000D02*
X121047677Y-53668631D01*
D38*
X87000000Y-47900000D02*
X87000000Y-51500000D01*
D37*
X143256000Y-52197000D02*
X141224000Y-52197000D01*
D38*
X121047677Y-56208631D02*
X121047677Y-53668631D01*
X90805000Y-29765000D02*
X90805000Y-40259000D01*
X87000000Y-57000000D02*
X88175000Y-55825000D01*
X92710000Y-42164000D02*
X96774000Y-42164000D01*
%TO.N,Net-(U1-SW)*%
D34*
X100965000Y-52705000D02*
X100963314Y-52706686D01*
X100963314Y-54227314D02*
X100963314Y-53716092D01*
D39*
X100963314Y-53716092D02*
X100963314Y-53340000D01*
X100963314Y-53340000D02*
X100963314Y-52706686D01*
D34*
X105288000Y-55880000D02*
X104436592Y-55028592D01*
X101764592Y-55028592D02*
X100963314Y-54227314D01*
X104436592Y-55028592D02*
X101764592Y-55028592D01*
%TO.N,Net-(U1-FB)*%
X100013314Y-57785000D02*
X100013314Y-59293314D01*
X105410000Y-59690000D02*
X103505000Y-57785000D01*
X100410000Y-60245000D02*
X100330000Y-60325000D01*
X103505000Y-57785000D02*
X100013314Y-57785000D01*
X100330000Y-60325000D02*
X100330000Y-63500000D01*
X100013314Y-59293314D02*
X100410000Y-59690000D01*
X100410000Y-59690000D02*
X100410000Y-60245000D01*
X100013314Y-55991092D02*
X100013314Y-57785000D01*
%TO.N,Net-(U1-EN)*%
X97790000Y-59690000D02*
X97790000Y-55880000D01*
X98641408Y-55028592D02*
X100663313Y-55028592D01*
X97790000Y-55880000D02*
X98641408Y-55028592D01*
X100663313Y-55028592D02*
X100963314Y-55328593D01*
X97710000Y-59770000D02*
X97790000Y-59690000D01*
X100963314Y-55328593D02*
X100963314Y-55991092D01*
X97710000Y-63500000D02*
X97710000Y-59770000D01*
%TO.N,Net-(U1-BOOT)*%
X106163000Y-56905000D02*
X102827222Y-56905000D01*
X102024406Y-55880000D02*
X101913314Y-55991092D01*
X102827222Y-56905000D02*
X101913314Y-55991092D01*
X107188000Y-55880000D02*
X106163000Y-56905000D01*
%TO.N,Net-(U2-Rs)*%
X78050000Y-54405000D02*
X75455000Y-57000000D01*
X75455000Y-57000000D02*
X74500000Y-57000000D01*
%TO.N,CAN_L*%
D40*
X75000000Y-46000000D02*
X75000000Y-49789999D01*
X74550000Y-44900000D02*
X70035000Y-44900000D01*
D34*
X81485688Y-55704688D02*
X81534000Y-55753000D01*
X81485688Y-54325689D02*
X81485688Y-55704688D01*
D40*
X75000000Y-45350000D02*
X74550000Y-44900000D01*
X75000000Y-46000000D02*
X75000000Y-45350000D01*
D34*
X81534000Y-57294500D02*
X81595000Y-57355500D01*
X78050000Y-51865000D02*
X79024999Y-51865000D01*
D40*
X69550000Y-45385000D02*
X69550000Y-49300000D01*
D34*
X81534000Y-55753000D02*
X81534000Y-57294500D01*
D40*
X70035000Y-44900000D02*
X69550000Y-45385000D01*
D34*
X77075001Y-51865000D02*
X78050000Y-51865000D01*
X79024999Y-51865000D02*
X81485688Y-54325689D01*
D40*
X75000000Y-49789999D02*
X77075001Y-51865000D01*
%TO.N,CAN_H*%
X75135000Y-53135000D02*
X78050000Y-53135000D01*
X73975000Y-52300000D02*
X74500000Y-52825000D01*
X69550000Y-52300000D02*
X73975000Y-52300000D01*
D34*
X78050000Y-53135000D02*
X78395552Y-53135000D01*
X74500000Y-52825000D02*
X74825000Y-52825000D01*
X79629000Y-54368448D02*
X79629000Y-55753000D01*
X78395552Y-53135000D02*
X79629000Y-54368448D01*
X79629000Y-57289500D02*
X79695000Y-57355500D01*
X79629000Y-55753000D02*
X79629000Y-57289500D01*
X74825000Y-52825000D02*
X75135000Y-53135000D01*
%TO.N,LED_Status*%
D37*
X124153631Y-35888631D02*
X126087677Y-35888631D01*
X122936000Y-34671000D02*
X124153631Y-35888631D01*
X117475000Y-34671000D02*
X122936000Y-34671000D01*
X105918000Y-23114000D02*
X117475000Y-34671000D01*
%TO.N,Net-(D9-A)*%
X105918000Y-24939000D02*
X103505000Y-24939000D01*
%TO.N,Net-(D7-A)*%
D34*
X90424000Y-27559000D02*
X90805000Y-27940000D01*
X90424000Y-25146000D02*
X90424000Y-27559000D01*
%TO.N,I2C2_SDA*%
D37*
X130686000Y-50165000D02*
X132972000Y-47879000D01*
X140763000Y-47879000D02*
X143256000Y-50372000D01*
X122011308Y-50165000D02*
X130686000Y-50165000D01*
X121047677Y-51128631D02*
X122011308Y-50165000D01*
X132972000Y-47879000D02*
X140763000Y-47879000D01*
%TO.N,I2C2_SCL*%
X135994956Y-48260000D02*
X139112000Y-48260000D01*
X139112000Y-48260000D02*
X141224000Y-50372000D01*
X130379631Y-51128631D02*
X130686000Y-51435000D01*
X126087677Y-51128631D02*
X130379631Y-51128631D01*
X130686000Y-51435000D02*
X132819956Y-51435000D01*
X132819956Y-51435000D02*
X135994956Y-48260000D01*
%TO.N,Net-(C6-Pad1)*%
D34*
X107310000Y-59765000D02*
X107235000Y-59690000D01*
X105410000Y-61515000D02*
X107235000Y-59690000D01*
X102230000Y-63500000D02*
X105410000Y-63500000D01*
X105410000Y-63500000D02*
X105410000Y-61515000D01*
%TO.N,CAN_TX*%
D36*
X107035600Y-66243200D02*
X110337600Y-62941200D01*
X160575702Y-28323030D02*
X156187489Y-23934817D01*
X149726515Y-23934817D02*
X148975664Y-23183966D01*
X87000000Y-58825000D02*
X87000000Y-59415600D01*
D34*
X83000000Y-54825000D02*
X83000000Y-54405000D01*
D36*
X93827600Y-66243200D02*
X107035600Y-66243200D01*
D34*
X87000000Y-58825000D02*
X83000000Y-54825000D01*
D36*
X87000000Y-59415600D02*
X93827600Y-66243200D01*
X157911800Y-62941200D02*
X160575702Y-60277298D01*
X110337600Y-62941200D02*
X157911800Y-62941200D01*
X160575702Y-60277298D02*
X160575702Y-28323030D01*
D34*
X87000000Y-58825000D02*
X87000000Y-59060000D01*
D36*
X156187489Y-23934817D02*
X149726515Y-23934817D01*
%TO.N,CAN_RX*%
X118567200Y-62382400D02*
X118770400Y-62585600D01*
X157549966Y-25723966D02*
X154015664Y-25723966D01*
X160274000Y-60071000D02*
X160274000Y-28448000D01*
X84280608Y-50595000D02*
X83000000Y-50595000D01*
X157759400Y-62585600D02*
X160274000Y-60071000D01*
X160274000Y-28448000D02*
X157549966Y-25723966D01*
X84280608Y-50595000D02*
X84597304Y-50911696D01*
X118770400Y-62585600D02*
X157759400Y-62585600D01*
%TO.N,Net-(JP1-A)*%
D34*
X73700000Y-46000000D02*
X73700000Y-50200000D01*
X73700000Y-50200000D02*
X74500000Y-51000000D01*
%TO.N,LED_CAN*%
D37*
X107182658Y-25702350D02*
X102457350Y-25702350D01*
X121047677Y-35888631D02*
X117368939Y-35888631D01*
X117368939Y-35888631D02*
X107182658Y-25702350D01*
X102457350Y-25702350D02*
X99949000Y-23194000D01*
%TO.N,Net-(D8-A)*%
X99949000Y-25019000D02*
X96520000Y-25019000D01*
X96520000Y-25019000D02*
X96393000Y-25146000D01*
X96407000Y-24812000D02*
X96393000Y-24826000D01*
%TO.N,OW_DATA*%
X117475000Y-33401000D02*
X117527369Y-33348631D01*
X117527369Y-33348631D02*
X121047677Y-33348631D01*
%TO.N,SPI_CS2*%
X121105631Y-38428631D02*
X121047677Y-38428631D01*
X122174000Y-39497000D02*
X121105631Y-38428631D01*
%TO.N,SP1_CS1*%
X118300519Y-41719481D02*
X122796827Y-41719481D01*
X122796827Y-41719481D02*
X126087677Y-38428631D01*
X117602000Y-44679719D02*
X117602000Y-42418000D01*
X117602000Y-42418000D02*
X118300519Y-41719481D01*
X117686150Y-44763869D02*
X117602000Y-44679719D01*
%TO.N,STRAP_0*%
X132513369Y-40968631D02*
X135509000Y-37973000D01*
X126087677Y-40968631D02*
X132513369Y-40968631D01*
X145669000Y-37973000D02*
X145796000Y-37846000D01*
X135509000Y-37973000D02*
X145669000Y-37973000D01*
%TO.N,ADC_1*%
X121047677Y-43508631D02*
X121798527Y-42757781D01*
X121798527Y-42757781D02*
X132075551Y-42757781D01*
X145923000Y-38735000D02*
X146431000Y-39243000D01*
X146431000Y-39243000D02*
X156464000Y-39243000D01*
X136098332Y-38735000D02*
X145923000Y-38735000D01*
X132075551Y-42757781D02*
X136098332Y-38735000D01*
%TO.N,STRAP_2*%
X145796000Y-39497000D02*
X135763000Y-39497000D01*
X131751369Y-43508631D02*
X126087677Y-43508631D01*
X135763000Y-39497000D02*
X131751369Y-43508631D01*
%TO.N,PWM_3*%
X115654150Y-47650830D02*
X115654150Y-53170150D01*
X121047677Y-46048631D02*
X120403158Y-46693150D01*
X116611830Y-46693150D02*
X115654150Y-47650830D01*
X115654150Y-53170150D02*
X116967000Y-54483000D01*
X120403158Y-46693150D02*
X116611830Y-46693150D01*
%TO.N,ADC_2*%
X125296631Y-46048631D02*
X126087677Y-46048631D01*
X123444000Y-44196000D02*
X125296631Y-46048631D01*
%TO.N,PWM_4*%
X126087677Y-48588631D02*
X125336827Y-49339481D01*
X125336827Y-49339481D02*
X117665481Y-49339481D01*
X117665481Y-49339481D02*
X117348000Y-49022000D01*
%TO.N,I2C1_SDA*%
X138868034Y-25723966D02*
X130556000Y-34036000D01*
X148975664Y-25723966D02*
X138868034Y-25723966D01*
%TO.N,I2C1_SCL*%
X137840884Y-24973116D02*
X130556000Y-32258000D01*
X150724814Y-24973116D02*
X137840884Y-24973116D01*
X154015664Y-28263966D02*
X150724814Y-24973116D01*
%TO.N,GPIO_3*%
X147224814Y-37673116D02*
X153264814Y-37673116D01*
X118237000Y-45558500D02*
X118237000Y-42926000D01*
X146464630Y-38433300D02*
X147224814Y-37673116D01*
X131452587Y-42456081D02*
X135475368Y-38433300D01*
X153264814Y-37673116D02*
X154015664Y-38423966D01*
X118706919Y-42456081D02*
X131452587Y-42456081D01*
X118237000Y-42926000D02*
X118706919Y-42456081D01*
X117803531Y-45991969D02*
X118237000Y-45558500D01*
X135475368Y-38433300D02*
X146464630Y-38433300D01*
%TO.N,USART1_RX*%
X148975664Y-40963966D02*
X136582034Y-40963966D01*
X136582034Y-40963966D02*
X130556000Y-46990000D01*
%TO.N,USART1_TX*%
X130429000Y-45466000D02*
X130429000Y-45593000D01*
X135763000Y-40132000D02*
X150643698Y-40132000D01*
X130429000Y-45466000D02*
X135763000Y-40132000D01*
X150643698Y-40132000D02*
X154015664Y-43503966D01*
%TO.N,PWM_1*%
X146050000Y-48768000D02*
X146234034Y-48583966D01*
X146234034Y-48583966D02*
X148975664Y-48583966D01*
%TO.N,PWM_2*%
X154051000Y-48619302D02*
X154015664Y-48583966D01*
X154051000Y-49530000D02*
X154051000Y-48619302D01*
%TO.N,SPI2_MISO*%
X148659966Y-51123966D02*
X148975664Y-51123966D01*
X147701000Y-50165000D02*
X148659966Y-51123966D01*
%TO.N,SPI2_MOSI*%
X117252681Y-47244000D02*
X117549531Y-47540850D01*
X117549531Y-47540850D02*
X130784170Y-47540850D01*
X131049420Y-47275600D02*
X150167298Y-47275600D01*
X130784170Y-47540850D02*
X131049420Y-47275600D01*
X150167298Y-47275600D02*
X154015664Y-51123966D01*
%TO.N,GPIO_4*%
X136715344Y-52070000D02*
X128651000Y-52070000D01*
X148975664Y-53663966D02*
X146745348Y-51433650D01*
X146745348Y-51433650D02*
X137351694Y-51433650D01*
X137351694Y-51433650D02*
X136715344Y-52070000D01*
%TO.N,SPI2_SCK*%
X116586000Y-48006000D02*
X116586000Y-49149000D01*
X132381700Y-47577300D02*
X140887968Y-47577300D01*
X129520956Y-49784000D02*
X129690806Y-49614150D01*
X117221000Y-49784000D02*
X129520956Y-49784000D01*
X142919318Y-49608650D02*
X149960348Y-49608650D01*
X130344850Y-49614150D02*
X132381700Y-47577300D01*
X129690806Y-49614150D02*
X130344850Y-49614150D01*
X140887968Y-47577300D02*
X142919318Y-49608650D01*
X149960348Y-49608650D02*
X154015664Y-53663966D01*
X116586000Y-49149000D02*
X117221000Y-49784000D01*
%TO.N,unconnected-(J4-Pin_28-Pad28)*%
D36*
X155194000Y-56565000D02*
X154984999Y-56565000D01*
%TD*%
%TA.AperFunction,Conductor*%
%TO.N,+12V*%
G36*
X87483403Y-29210264D02*
G01*
X87491533Y-29210797D01*
X87499574Y-29211589D01*
X87592673Y-29223846D01*
X87608565Y-29227007D01*
X87624145Y-29231181D01*
X87639495Y-29236392D01*
X87714911Y-29267630D01*
X87729453Y-29274802D01*
X87743414Y-29282862D01*
X87756903Y-29291875D01*
X87821654Y-29341561D01*
X87833848Y-29352255D01*
X87845242Y-29363649D01*
X87855937Y-29375844D01*
X87905626Y-29440600D01*
X87914637Y-29454086D01*
X87922694Y-29468041D01*
X87929868Y-29482589D01*
X87961103Y-29557998D01*
X87966315Y-29573351D01*
X87970488Y-29588922D01*
X87973654Y-29604836D01*
X87985909Y-29697921D01*
X87986704Y-29705982D01*
X87987234Y-29714080D01*
X87987500Y-29722178D01*
X87987500Y-35047820D01*
X87987234Y-35055919D01*
X87986756Y-35063222D01*
X87986704Y-35064016D01*
X87985909Y-35072077D01*
X87973654Y-35165162D01*
X87970488Y-35181076D01*
X87966315Y-35196647D01*
X87961103Y-35212000D01*
X87929868Y-35287409D01*
X87922694Y-35301957D01*
X87914637Y-35315912D01*
X87905626Y-35329398D01*
X87855937Y-35394154D01*
X87845242Y-35406349D01*
X87833849Y-35417742D01*
X87821654Y-35428437D01*
X87756898Y-35478126D01*
X87743412Y-35487137D01*
X87729457Y-35495194D01*
X87714909Y-35502368D01*
X87639500Y-35533603D01*
X87624147Y-35538815D01*
X87608576Y-35542988D01*
X87592663Y-35546154D01*
X87506898Y-35557446D01*
X87505560Y-35557622D01*
X87499563Y-35558411D01*
X87491515Y-35559204D01*
X87490984Y-35559238D01*
X87483419Y-35559734D01*
X87475319Y-35560000D01*
X81280000Y-35560000D01*
X81280000Y-40127819D01*
X81279734Y-40135938D01*
X81279204Y-40144015D01*
X81278409Y-40152082D01*
X81266154Y-40245163D01*
X81262988Y-40261076D01*
X81258815Y-40276647D01*
X81253603Y-40292000D01*
X81222368Y-40367409D01*
X81215194Y-40381957D01*
X81207137Y-40395912D01*
X81198126Y-40409398D01*
X81148437Y-40474154D01*
X81137742Y-40486349D01*
X81126349Y-40497742D01*
X81114154Y-40508437D01*
X81049398Y-40558126D01*
X81035912Y-40567137D01*
X81021957Y-40575194D01*
X81007409Y-40582368D01*
X80932000Y-40613603D01*
X80916647Y-40618815D01*
X80901076Y-40622988D01*
X80885163Y-40626154D01*
X80801084Y-40637224D01*
X80799398Y-40637446D01*
X80798060Y-40637622D01*
X80792063Y-40638411D01*
X80784015Y-40639204D01*
X80783484Y-40639238D01*
X80775919Y-40639734D01*
X80767819Y-40640000D01*
X73537179Y-40640000D01*
X73529073Y-40639734D01*
X73520996Y-40639204D01*
X73512931Y-40638410D01*
X73503921Y-40637224D01*
X73503918Y-40637224D01*
X73419835Y-40626154D01*
X73403922Y-40622988D01*
X73388351Y-40618815D01*
X73372998Y-40613603D01*
X73297589Y-40582368D01*
X73283041Y-40575194D01*
X73269086Y-40567137D01*
X73255600Y-40558126D01*
X73190844Y-40508437D01*
X73178649Y-40497742D01*
X73167256Y-40486349D01*
X73156561Y-40474154D01*
X73106872Y-40409398D01*
X73097861Y-40395912D01*
X73089804Y-40381957D01*
X73082630Y-40367410D01*
X73051394Y-40292000D01*
X73046181Y-40276643D01*
X73042010Y-40261076D01*
X73042007Y-40261065D01*
X73038846Y-40245173D01*
X73026589Y-40152074D01*
X73025796Y-40144030D01*
X73025264Y-40135905D01*
X73025000Y-40127820D01*
X73025000Y-39000561D01*
X73030022Y-38965628D01*
X73038567Y-38936527D01*
X73058737Y-38896543D01*
X73079065Y-38869737D01*
X73112611Y-38825500D01*
X73167497Y-38686321D01*
X73178000Y-38598860D01*
X73178000Y-38259988D01*
X73178596Y-38247843D01*
X73179787Y-38235751D01*
X73181570Y-38223732D01*
X73185972Y-38201603D01*
X73190500Y-38178846D01*
X73190500Y-38017033D01*
X73188117Y-38009178D01*
X73181571Y-37976270D01*
X73179786Y-37964241D01*
X73178596Y-37952154D01*
X73178000Y-37940008D01*
X73178000Y-37601146D01*
X73178000Y-37601140D01*
X73167497Y-37513679D01*
X73140054Y-37444089D01*
X73112612Y-37374502D01*
X73112611Y-37374500D01*
X73056123Y-37300009D01*
X73052149Y-37293063D01*
X73051067Y-37288530D01*
X73043863Y-37275528D01*
X73033089Y-37247179D01*
X73025000Y-37203127D01*
X73025000Y-29722178D01*
X73025264Y-29714095D01*
X73025797Y-29705965D01*
X73026590Y-29697920D01*
X73038845Y-29604834D01*
X73042010Y-29588923D01*
X73046182Y-29573354D01*
X73051395Y-29557998D01*
X73082631Y-29482587D01*
X73089801Y-29468046D01*
X73089804Y-29468041D01*
X73097864Y-29454079D01*
X73106856Y-29440620D01*
X73156578Y-29375822D01*
X73167251Y-29363653D01*
X73178653Y-29352251D01*
X73190830Y-29341572D01*
X73255613Y-29291862D01*
X73269075Y-29282866D01*
X73283052Y-29274796D01*
X73297566Y-29267638D01*
X73373012Y-29236387D01*
X73388352Y-29231181D01*
X73403931Y-29227007D01*
X73419821Y-29223846D01*
X73512927Y-29211589D01*
X73520966Y-29210797D01*
X73529095Y-29210264D01*
X73537179Y-29210000D01*
X87475321Y-29210000D01*
X87483403Y-29210264D01*
G37*
%TD.AperFunction*%
%TD*%
%TA.AperFunction,Conductor*%
%TO.N,GND*%
G36*
X112014000Y-22055751D02*
G01*
X111914958Y-22227299D01*
X111914953Y-22227309D01*
X111814605Y-22469571D01*
X111814602Y-22469581D01*
X111747520Y-22719938D01*
X111746730Y-22722885D01*
X111712500Y-22982872D01*
X111712500Y-23245127D01*
X111739123Y-23447339D01*
X111746730Y-23505116D01*
X111806677Y-23728842D01*
X111814602Y-23758418D01*
X111814605Y-23758428D01*
X111914953Y-24000690D01*
X111914958Y-24000700D01*
X112014000Y-24172247D01*
X112014000Y-28702000D01*
X112002884Y-28702000D01*
X106937408Y-23636524D01*
X106903923Y-23575201D01*
X106908133Y-23516326D01*
X106905930Y-23515769D01*
X106907876Y-23508068D01*
X106907876Y-23508065D01*
X106907877Y-23508064D01*
X106918500Y-23419602D01*
X106918500Y-22808398D01*
X106907877Y-22719936D01*
X106852361Y-22579158D01*
X106852360Y-22579157D01*
X106852360Y-22579156D01*
X106760922Y-22458577D01*
X106640343Y-22367139D01*
X106499561Y-22311622D01*
X106453926Y-22306142D01*
X106411102Y-22301000D01*
X105424898Y-22301000D01*
X105385853Y-22305688D01*
X105336438Y-22311622D01*
X105195656Y-22367139D01*
X105075077Y-22458577D01*
X104983639Y-22579156D01*
X104928122Y-22719938D01*
X104922188Y-22769353D01*
X104917500Y-22808398D01*
X104917500Y-23419602D01*
X104922107Y-23457968D01*
X104928122Y-23508061D01*
X104928122Y-23508063D01*
X104928123Y-23508064D01*
X104931381Y-23516326D01*
X104983639Y-23648843D01*
X105075077Y-23769422D01*
X105195656Y-23860860D01*
X105195657Y-23860860D01*
X105195658Y-23860861D01*
X105323171Y-23911146D01*
X105378314Y-23954051D01*
X105401507Y-24019959D01*
X105385386Y-24087944D01*
X105335070Y-24136420D01*
X105323178Y-24141851D01*
X105299979Y-24151000D01*
X105195656Y-24192139D01*
X105075077Y-24283577D01*
X104983639Y-24404156D01*
X104971141Y-24435851D01*
X104942238Y-24509142D01*
X104929330Y-24525731D01*
X104920598Y-24544853D01*
X104908306Y-24552752D01*
X104899334Y-24564284D01*
X104879504Y-24571262D01*
X104861820Y-24582627D01*
X104837113Y-24586179D01*
X104833426Y-24587477D01*
X104826885Y-24587650D01*
X104588252Y-24587650D01*
X104521213Y-24567965D01*
X104475458Y-24515161D01*
X104472906Y-24509163D01*
X104440111Y-24426000D01*
X104440110Y-24425999D01*
X104440110Y-24425998D01*
X104349711Y-24306788D01*
X104230499Y-24216388D01*
X104230497Y-24216387D01*
X104091322Y-24161503D01*
X104078826Y-24160002D01*
X104003860Y-24151000D01*
X103006140Y-24151000D01*
X102940544Y-24158877D01*
X102918677Y-24161503D01*
X102779502Y-24216387D01*
X102779500Y-24216388D01*
X102660288Y-24306788D01*
X102569888Y-24426000D01*
X102569887Y-24426002D01*
X102515003Y-24565177D01*
X102512908Y-24582627D01*
X102504500Y-24652640D01*
X102504500Y-24652646D01*
X102504500Y-24953254D01*
X102484815Y-25020293D01*
X102432011Y-25066048D01*
X102362853Y-25075992D01*
X102299297Y-25046967D01*
X102292819Y-25040935D01*
X100968408Y-23716524D01*
X100934923Y-23655201D01*
X100939133Y-23596326D01*
X100936930Y-23595769D01*
X100938876Y-23588068D01*
X100938876Y-23588065D01*
X100938877Y-23588064D01*
X100949500Y-23499602D01*
X100949500Y-22888398D01*
X100938877Y-22799936D01*
X100883361Y-22659158D01*
X100883360Y-22659157D01*
X100883360Y-22659156D01*
X100791922Y-22538577D01*
X100671343Y-22447139D01*
X100530561Y-22391622D01*
X100484926Y-22386142D01*
X100442102Y-22381000D01*
X99455898Y-22381000D01*
X99416853Y-22385688D01*
X99367438Y-22391622D01*
X99226656Y-22447139D01*
X99106077Y-22538577D01*
X99014639Y-22659156D01*
X98959122Y-22799938D01*
X98958106Y-22808403D01*
X98948500Y-22888398D01*
X98948500Y-23499602D01*
X98954126Y-23546454D01*
X98959122Y-23588061D01*
X98959122Y-23588063D01*
X98959123Y-23588064D01*
X98962381Y-23596326D01*
X99014639Y-23728843D01*
X99106077Y-23849422D01*
X99226656Y-23940860D01*
X99226657Y-23940860D01*
X99226658Y-23940861D01*
X99354171Y-23991146D01*
X99409314Y-24034051D01*
X99432507Y-24099959D01*
X99416386Y-24167944D01*
X99366070Y-24216420D01*
X99354178Y-24221851D01*
X99304403Y-24241480D01*
X99226656Y-24272139D01*
X99106077Y-24363577D01*
X99014639Y-24484156D01*
X98994056Y-24536352D01*
X98973238Y-24589142D01*
X98930334Y-24644284D01*
X98864426Y-24667477D01*
X98857885Y-24667650D01*
X97415977Y-24667650D01*
X97348938Y-24647965D01*
X97317173Y-24618575D01*
X97237711Y-24513788D01*
X97118499Y-24423388D01*
X97118497Y-24423387D01*
X96979322Y-24368503D01*
X96966826Y-24367002D01*
X96891860Y-24358000D01*
X95894140Y-24358000D01*
X95828544Y-24365877D01*
X95806677Y-24368503D01*
X95667502Y-24423387D01*
X95667500Y-24423388D01*
X95548288Y-24513788D01*
X95457888Y-24633000D01*
X95457887Y-24633002D01*
X95403003Y-24772177D01*
X95403003Y-24772179D01*
X95392500Y-24859640D01*
X95392500Y-25432360D01*
X95398169Y-25479566D01*
X95403003Y-25519822D01*
X95457887Y-25658997D01*
X95457888Y-25658999D01*
X95548288Y-25778211D01*
X95667500Y-25868611D01*
X95667502Y-25868612D01*
X95737089Y-25896054D01*
X95806679Y-25923497D01*
X95894140Y-25934000D01*
X95894146Y-25934000D01*
X96891854Y-25934000D01*
X96891860Y-25934000D01*
X96979321Y-25923497D01*
X97118500Y-25868611D01*
X97237711Y-25778211D01*
X97328111Y-25659000D01*
X97382997Y-25519821D01*
X97382997Y-25519819D01*
X97382998Y-25519817D01*
X97387832Y-25479566D01*
X97415369Y-25415351D01*
X97473251Y-25376219D01*
X97510947Y-25370350D01*
X98857885Y-25370350D01*
X98924924Y-25390035D01*
X98970679Y-25442839D01*
X98973229Y-25448834D01*
X98995150Y-25504421D01*
X99014639Y-25553843D01*
X99106077Y-25674422D01*
X99226656Y-25765860D01*
X99226657Y-25765860D01*
X99226658Y-25765861D01*
X99367436Y-25821377D01*
X99455898Y-25832000D01*
X99455903Y-25832000D01*
X100442097Y-25832000D01*
X100442102Y-25832000D01*
X100530564Y-25821377D01*
X100671342Y-25765861D01*
X100791922Y-25674422D01*
X100883361Y-25553842D01*
X100938877Y-25413064D01*
X100949500Y-25324602D01*
X100949500Y-24990746D01*
X100969185Y-24923707D01*
X101021989Y-24877952D01*
X101091147Y-24868008D01*
X101154703Y-24897033D01*
X101161181Y-24903065D01*
X102241616Y-25983500D01*
X102321734Y-26029756D01*
X102411094Y-26053700D01*
X102503606Y-26053700D01*
X106985762Y-26053700D01*
X107052801Y-26073385D01*
X107073443Y-26090019D01*
X109685424Y-28702000D01*
X91816755Y-28702000D01*
X91749716Y-28682315D01*
X91703961Y-28629511D01*
X91694017Y-28560353D01*
X91717952Y-28503074D01*
X91739360Y-28474843D01*
X91739359Y-28474843D01*
X91739361Y-28474842D01*
X91794877Y-28334064D01*
X91805500Y-28245602D01*
X91805500Y-27634398D01*
X91794877Y-27545936D01*
X91739361Y-27405158D01*
X91739360Y-27405157D01*
X91739360Y-27405156D01*
X91647922Y-27284577D01*
X91527343Y-27193139D01*
X91386561Y-27137622D01*
X91340926Y-27132142D01*
X91298102Y-27127000D01*
X91298097Y-27127000D01*
X90948500Y-27127000D01*
X90881461Y-27107315D01*
X90835706Y-27054511D01*
X90824500Y-27003000D01*
X90824500Y-26055811D01*
X90844185Y-25988772D01*
X90896989Y-25943017D01*
X90933709Y-25932697D01*
X91010321Y-25923497D01*
X91149500Y-25868611D01*
X91268711Y-25778211D01*
X91359111Y-25659000D01*
X91413997Y-25519821D01*
X91424500Y-25432360D01*
X91424500Y-24859640D01*
X91413997Y-24772179D01*
X91378376Y-24681851D01*
X91359112Y-24633002D01*
X91359111Y-24633000D01*
X91268711Y-24513788D01*
X91149499Y-24423388D01*
X91149497Y-24423387D01*
X91010322Y-24368503D01*
X90997826Y-24367002D01*
X90922860Y-24358000D01*
X89925140Y-24358000D01*
X89859544Y-24365877D01*
X89837677Y-24368503D01*
X89698502Y-24423387D01*
X89698500Y-24423388D01*
X89579288Y-24513788D01*
X89488888Y-24633000D01*
X89488887Y-24633002D01*
X89434003Y-24772177D01*
X89434003Y-24772179D01*
X89423500Y-24859640D01*
X89423500Y-25432360D01*
X89429169Y-25479566D01*
X89434003Y-25519822D01*
X89488887Y-25658997D01*
X89488888Y-25658999D01*
X89579288Y-25778211D01*
X89698500Y-25868611D01*
X89698502Y-25868612D01*
X89768089Y-25896054D01*
X89837679Y-25923497D01*
X89914286Y-25932696D01*
X89978497Y-25960232D01*
X90017631Y-26018114D01*
X90023500Y-26055811D01*
X90023500Y-27176410D01*
X90003815Y-27243449D01*
X89974427Y-27275213D01*
X89962077Y-27284578D01*
X89870639Y-27405156D01*
X89815122Y-27545938D01*
X89809188Y-27595353D01*
X89804500Y-27634398D01*
X89804500Y-28245602D01*
X89810126Y-28292454D01*
X89815122Y-28334061D01*
X89870639Y-28474843D01*
X89892048Y-28503074D01*
X89916872Y-28568385D01*
X89902445Y-28636749D01*
X89853347Y-28686461D01*
X89793245Y-28702000D01*
X88053522Y-28702000D01*
X87986483Y-28682315D01*
X87940728Y-28629511D01*
X87930784Y-28560353D01*
X87938168Y-28532510D01*
X87960909Y-28474842D01*
X87984877Y-28414064D01*
X87995500Y-28325602D01*
X87995500Y-27714398D01*
X87984877Y-27625936D01*
X87929361Y-27485158D01*
X87929360Y-27485157D01*
X87929360Y-27485156D01*
X87837922Y-27364577D01*
X87717343Y-27273139D01*
X87628236Y-27238000D01*
X87576564Y-27217623D01*
X87576562Y-27217622D01*
X87576558Y-27217621D01*
X87504715Y-27208994D01*
X87440501Y-27181457D01*
X87401368Y-27123574D01*
X87395500Y-27085879D01*
X87395500Y-26109275D01*
X87395500Y-26109273D01*
X87368207Y-26007412D01*
X87315480Y-25916087D01*
X87006280Y-25606887D01*
X86972795Y-25545564D01*
X86970846Y-25504421D01*
X86977519Y-25448860D01*
X86979500Y-25432360D01*
X86979500Y-24859640D01*
X86968997Y-24772179D01*
X86933376Y-24681851D01*
X86914112Y-24633002D01*
X86914111Y-24633000D01*
X86823711Y-24513788D01*
X86704499Y-24423388D01*
X86704497Y-24423387D01*
X86565322Y-24368503D01*
X86552826Y-24367002D01*
X86477860Y-24358000D01*
X85480140Y-24358000D01*
X85414544Y-24365877D01*
X85392677Y-24368503D01*
X85253502Y-24423387D01*
X85253500Y-24423388D01*
X85134288Y-24513788D01*
X85043888Y-24633000D01*
X85043887Y-24633002D01*
X84989003Y-24772177D01*
X84989003Y-24772179D01*
X84978500Y-24859640D01*
X84978500Y-25432360D01*
X84984169Y-25479566D01*
X84989003Y-25519822D01*
X85043887Y-25658997D01*
X85043888Y-25658999D01*
X85134288Y-25778211D01*
X85253500Y-25868611D01*
X85253502Y-25868612D01*
X85323089Y-25896054D01*
X85392679Y-25923497D01*
X85480140Y-25934000D01*
X86149245Y-25934000D01*
X86216284Y-25953685D01*
X86236926Y-25970319D01*
X86558181Y-26291574D01*
X86591666Y-26352897D01*
X86594500Y-26379255D01*
X86594500Y-27085879D01*
X86574815Y-27152918D01*
X86522011Y-27198673D01*
X86485285Y-27208994D01*
X86413441Y-27217621D01*
X86272656Y-27273139D01*
X86152077Y-27364577D01*
X86060639Y-27485156D01*
X86005122Y-27625938D01*
X86004106Y-27634403D01*
X85994500Y-27714398D01*
X85994500Y-28325602D01*
X86003605Y-28401426D01*
X86005123Y-28414065D01*
X86051832Y-28532510D01*
X86058114Y-28602097D01*
X86025777Y-28664033D01*
X85965089Y-28698654D01*
X85936478Y-28702000D01*
X71755000Y-28702000D01*
X71755000Y-37175500D01*
X71735315Y-37242539D01*
X71682511Y-37288294D01*
X71631000Y-37299500D01*
X70512940Y-37299500D01*
X70445901Y-37279815D01*
X70425259Y-37263181D01*
X67636818Y-34474740D01*
X67605033Y-34416530D01*
X68499500Y-34416530D01*
X68499500Y-34623469D01*
X68539868Y-34826412D01*
X68539870Y-34826420D01*
X68619058Y-35017596D01*
X68734024Y-35189657D01*
X68880342Y-35335975D01*
X68880345Y-35335977D01*
X69052402Y-35450941D01*
X69243580Y-35530130D01*
X69446530Y-35570499D01*
X69446534Y-35570500D01*
X69446535Y-35570500D01*
X69653466Y-35570500D01*
X69653467Y-35570499D01*
X69856420Y-35530130D01*
X70047598Y-35450941D01*
X70219655Y-35335977D01*
X70263290Y-35292342D01*
X70365976Y-35189657D01*
X70391430Y-35151562D01*
X70480941Y-35017598D01*
X70560130Y-34826420D01*
X70600500Y-34623465D01*
X70600500Y-34416535D01*
X70560130Y-34213580D01*
X70480941Y-34022402D01*
X70365977Y-33850345D01*
X70365975Y-33850342D01*
X70219657Y-33704024D01*
X70104496Y-33627077D01*
X70047598Y-33589059D01*
X69918631Y-33535639D01*
X69856420Y-33509870D01*
X69856412Y-33509868D01*
X69653469Y-33469500D01*
X69653465Y-33469500D01*
X69446535Y-33469500D01*
X69446530Y-33469500D01*
X69243587Y-33509868D01*
X69243579Y-33509870D01*
X69052403Y-33589058D01*
X68880342Y-33704024D01*
X68734024Y-33850342D01*
X68619058Y-34022403D01*
X68539870Y-34213579D01*
X68539868Y-34213587D01*
X68499500Y-34416530D01*
X67605033Y-34416530D01*
X67603333Y-34413417D01*
X67600499Y-34387059D01*
X67600499Y-33976908D01*
X67600499Y-33976902D01*
X67589876Y-33888436D01*
X67534361Y-33747658D01*
X67534359Y-33747655D01*
X67442922Y-33627077D01*
X67322344Y-33535640D01*
X67322342Y-33535639D01*
X67181564Y-33480124D01*
X67181561Y-33480123D01*
X67093099Y-33469500D01*
X66006908Y-33469500D01*
X65918437Y-33480123D01*
X65777657Y-33535639D01*
X65777655Y-33535640D01*
X65657077Y-33627077D01*
X65565640Y-33747655D01*
X65510124Y-33888437D01*
X65510123Y-33888438D01*
X65499500Y-33976900D01*
X65499500Y-35063091D01*
X65510123Y-35151562D01*
X65565639Y-35292342D01*
X65565640Y-35292344D01*
X65657077Y-35412922D01*
X65707213Y-35450941D01*
X65777658Y-35504361D01*
X65918436Y-35559876D01*
X66006901Y-35570500D01*
X66417059Y-35570499D01*
X66484098Y-35590183D01*
X66504740Y-35606818D01*
X68910241Y-38012319D01*
X68943726Y-38073642D01*
X68938742Y-38143334D01*
X68910241Y-38187681D01*
X67434711Y-39663211D01*
X67378960Y-39718962D01*
X67323209Y-39774712D01*
X67235609Y-39905814D01*
X67235602Y-39905827D01*
X67175264Y-40051498D01*
X67175261Y-40051510D01*
X67144500Y-40206153D01*
X67144500Y-48723236D01*
X67175261Y-48877879D01*
X67175263Y-48877887D01*
X67190061Y-48913612D01*
X67199500Y-48961065D01*
X67199500Y-49638935D01*
X67190061Y-49686387D01*
X67175263Y-49722111D01*
X67175260Y-49722121D01*
X67144500Y-49876763D01*
X67144500Y-50522059D01*
X67124815Y-50589098D01*
X67108181Y-50609740D01*
X66504739Y-51213181D01*
X66443416Y-51246666D01*
X66417058Y-51249500D01*
X66006908Y-51249500D01*
X65918437Y-51260123D01*
X65777657Y-51315639D01*
X65777655Y-51315640D01*
X65657077Y-51407077D01*
X65565640Y-51527655D01*
X65556351Y-51551211D01*
X65513162Y-51660734D01*
X65510124Y-51668437D01*
X65510123Y-51668438D01*
X65499500Y-51756900D01*
X65499500Y-52843091D01*
X65510123Y-52931562D01*
X65565639Y-53072342D01*
X65565640Y-53072344D01*
X65657077Y-53192922D01*
X65707213Y-53230941D01*
X65777658Y-53284361D01*
X65918436Y-53339876D01*
X66006901Y-53350500D01*
X67093098Y-53350499D01*
X67181564Y-53339876D01*
X67322342Y-53284361D01*
X67442922Y-53192922D01*
X67534361Y-53072342D01*
X67589876Y-52931564D01*
X67600500Y-52843099D01*
X67600499Y-52432938D01*
X67620183Y-52365900D01*
X67636813Y-52345263D01*
X68566789Y-51415289D01*
X68654394Y-51284179D01*
X68714737Y-51138497D01*
X68745500Y-50983842D01*
X68745500Y-50826158D01*
X68745500Y-50257864D01*
X68765185Y-50190825D01*
X68817989Y-50145070D01*
X68887147Y-50135126D01*
X68938389Y-50154760D01*
X69052402Y-50230941D01*
X69243580Y-50310130D01*
X69446530Y-50350499D01*
X69446534Y-50350500D01*
X69446535Y-50350500D01*
X69653466Y-50350500D01*
X69653467Y-50350499D01*
X69856420Y-50310130D01*
X70047598Y-50230941D01*
X70219655Y-50115977D01*
X70365977Y-49969655D01*
X70480941Y-49797598D01*
X70560130Y-49606420D01*
X70600500Y-49403465D01*
X70600500Y-49196535D01*
X70560130Y-48993580D01*
X70480941Y-48802402D01*
X70365977Y-48630345D01*
X70365975Y-48630342D01*
X70219655Y-48484022D01*
X70055609Y-48374411D01*
X70010804Y-48320799D01*
X70000500Y-48271309D01*
X70000500Y-45622965D01*
X70009144Y-45593524D01*
X70015668Y-45563538D01*
X70019422Y-45558522D01*
X70020185Y-45555926D01*
X70036814Y-45535288D01*
X70185286Y-45386816D01*
X70246608Y-45353334D01*
X70272966Y-45350500D01*
X72775500Y-45350500D01*
X72842539Y-45370185D01*
X72888294Y-45422989D01*
X72899500Y-45474500D01*
X72899500Y-46794856D01*
X72899502Y-46794882D01*
X72902413Y-46819987D01*
X72902415Y-46819991D01*
X72947793Y-46922764D01*
X72947794Y-46922765D01*
X73027235Y-47002206D01*
X73130009Y-47047585D01*
X73155135Y-47050500D01*
X73175497Y-47050499D01*
X73242535Y-47070181D01*
X73288292Y-47122983D01*
X73299500Y-47174499D01*
X73299500Y-50147273D01*
X73299500Y-50252727D01*
X73303483Y-50267593D01*
X73326793Y-50354589D01*
X73330091Y-50360301D01*
X73379520Y-50445913D01*
X73379522Y-50445915D01*
X73470656Y-50537049D01*
X73504141Y-50598372D01*
X73506090Y-50639512D01*
X73499500Y-50694398D01*
X73499500Y-51305602D01*
X73505126Y-51352454D01*
X73510122Y-51394061D01*
X73565639Y-51534843D01*
X73653402Y-51650575D01*
X73678225Y-51715886D01*
X73663797Y-51784250D01*
X73614700Y-51833961D01*
X73554598Y-51849500D01*
X70578691Y-51849500D01*
X70511652Y-51829815D01*
X70475589Y-51794391D01*
X70365975Y-51630342D01*
X70219657Y-51484024D01*
X70116791Y-51415292D01*
X70047598Y-51369059D01*
X69918631Y-51315639D01*
X69856420Y-51289870D01*
X69856412Y-51289868D01*
X69653469Y-51249500D01*
X69653465Y-51249500D01*
X69446535Y-51249500D01*
X69446530Y-51249500D01*
X69243587Y-51289868D01*
X69243579Y-51289870D01*
X69052403Y-51369058D01*
X68880342Y-51484024D01*
X68734024Y-51630342D01*
X68619058Y-51802403D01*
X68539870Y-51993579D01*
X68539868Y-51993587D01*
X68499500Y-52196530D01*
X68499500Y-52403469D01*
X68539868Y-52606412D01*
X68539870Y-52606420D01*
X68619058Y-52797596D01*
X68734024Y-52969657D01*
X68880342Y-53115975D01*
X68880345Y-53115977D01*
X69052402Y-53230941D01*
X69243580Y-53310130D01*
X69446530Y-53350499D01*
X69446534Y-53350500D01*
X69446535Y-53350500D01*
X69653466Y-53350500D01*
X69653467Y-53350499D01*
X69856420Y-53310130D01*
X70047598Y-53230941D01*
X70219655Y-53115977D01*
X70292627Y-53043005D01*
X70365976Y-52969657D01*
X70365977Y-52969655D01*
X70475589Y-52805609D01*
X70529201Y-52760804D01*
X70578691Y-52750500D01*
X73375500Y-52750500D01*
X73442539Y-52770185D01*
X73488294Y-52822989D01*
X73499500Y-52874500D01*
X73499500Y-53130602D01*
X73505126Y-53177454D01*
X73510122Y-53219061D01*
X73565639Y-53359843D01*
X73657077Y-53480422D01*
X73777656Y-53571860D01*
X73777657Y-53571860D01*
X73777658Y-53571861D01*
X73918436Y-53627377D01*
X74006898Y-53638000D01*
X74006903Y-53638000D01*
X74993097Y-53638000D01*
X74993102Y-53638000D01*
X75081564Y-53627377D01*
X75142460Y-53603362D01*
X75165832Y-53594146D01*
X75211322Y-53585500D01*
X76832712Y-53585500D01*
X76853564Y-53591623D01*
X76875254Y-53593026D01*
X76895636Y-53603976D01*
X76899751Y-53605185D01*
X76906345Y-53609730D01*
X76988320Y-53670230D01*
X77030571Y-53725877D01*
X77036030Y-53795533D01*
X77002963Y-53857083D01*
X76988321Y-53869770D01*
X76902850Y-53932850D01*
X76822207Y-54042117D01*
X76822206Y-54042119D01*
X76777353Y-54170298D01*
X76777353Y-54170300D01*
X76774500Y-54200730D01*
X76774500Y-54609269D01*
X76777353Y-54639699D01*
X76777353Y-54639701D01*
X76822206Y-54767880D01*
X76822209Y-54767886D01*
X76885601Y-54853779D01*
X76909572Y-54919408D01*
X76894256Y-54987578D01*
X76873512Y-55015093D01*
X75530211Y-56358394D01*
X75468888Y-56391879D01*
X75399196Y-56386895D01*
X75349531Y-56349957D01*
X75348916Y-56350573D01*
X75344729Y-56346385D01*
X75343729Y-56345642D01*
X75343549Y-56345405D01*
X75342922Y-56344578D01*
X75342917Y-56344574D01*
X75222343Y-56253139D01*
X75126192Y-56215222D01*
X75081564Y-56197623D01*
X75081563Y-56197622D01*
X75081561Y-56197622D01*
X75035926Y-56192142D01*
X74993102Y-56187000D01*
X74006898Y-56187000D01*
X73967853Y-56191688D01*
X73918438Y-56197622D01*
X73777656Y-56253139D01*
X73657077Y-56344577D01*
X73565639Y-56465156D01*
X73510122Y-56605938D01*
X73507552Y-56627342D01*
X73499500Y-56694398D01*
X73499500Y-57305602D01*
X73501287Y-57320479D01*
X73510122Y-57394061D01*
X73510122Y-57394063D01*
X73510123Y-57394064D01*
X73527722Y-57438692D01*
X73565639Y-57534843D01*
X73657077Y-57655422D01*
X73777656Y-57746860D01*
X73777657Y-57746860D01*
X73777658Y-57746861D01*
X73918436Y-57802377D01*
X74006898Y-57813000D01*
X74006903Y-57813000D01*
X74993097Y-57813000D01*
X74993102Y-57813000D01*
X75081564Y-57802377D01*
X75222342Y-57746861D01*
X75342922Y-57655422D01*
X75434361Y-57534842D01*
X75462012Y-57464723D01*
X75504916Y-57409581D01*
X75545271Y-57390440D01*
X75609588Y-57373207D01*
X75700913Y-57320480D01*
X77979574Y-55041819D01*
X78040897Y-55008334D01*
X78067255Y-55005500D01*
X78929270Y-55005500D01*
X78953612Y-55003216D01*
X78959699Y-55002646D01*
X79063548Y-54966307D01*
X79092978Y-54964805D01*
X79122147Y-54960611D01*
X79127473Y-54963043D01*
X79133323Y-54962745D01*
X79158896Y-54977394D01*
X79185703Y-54989636D01*
X79188869Y-54994562D01*
X79193950Y-54997473D01*
X79207542Y-55023619D01*
X79223477Y-55048414D01*
X79224640Y-55056509D01*
X79226178Y-55059466D01*
X79228500Y-55083349D01*
X79228500Y-55252902D01*
X79208815Y-55319941D01*
X79192181Y-55340583D01*
X79148481Y-55384282D01*
X79148475Y-55384290D01*
X79069426Y-55521209D01*
X79069423Y-55521216D01*
X79028500Y-55673943D01*
X79028500Y-55832057D01*
X79046029Y-55897474D01*
X79069423Y-55984783D01*
X79069426Y-55984790D01*
X79148475Y-56121709D01*
X79148481Y-56121717D01*
X79192181Y-56165417D01*
X79206884Y-56192344D01*
X79223477Y-56218163D01*
X79224368Y-56224363D01*
X79225666Y-56226740D01*
X79228500Y-56253098D01*
X79228500Y-56397391D01*
X79208815Y-56464430D01*
X79204271Y-56471024D01*
X79142207Y-56555118D01*
X79142206Y-56555119D01*
X79097353Y-56683298D01*
X79097353Y-56683300D01*
X79094500Y-56713730D01*
X79094500Y-57997269D01*
X79097353Y-58027699D01*
X79097353Y-58027701D01*
X79137080Y-58141230D01*
X79142207Y-58155882D01*
X79222850Y-58265150D01*
X79332118Y-58345793D01*
X79374845Y-58360744D01*
X79460299Y-58390646D01*
X79490730Y-58393500D01*
X79490734Y-58393500D01*
X79899270Y-58393500D01*
X79929699Y-58390646D01*
X79929701Y-58390646D01*
X79993790Y-58368219D01*
X80057882Y-58345793D01*
X80167150Y-58265150D01*
X80247793Y-58155882D01*
X80275941Y-58075439D01*
X80292646Y-58027701D01*
X80292646Y-58027699D01*
X80295500Y-57997269D01*
X80295500Y-56713730D01*
X80292646Y-56683300D01*
X80292646Y-56683298D01*
X80259006Y-56587163D01*
X80247793Y-56555118D01*
X80167150Y-56445850D01*
X80079865Y-56381431D01*
X80076843Y-56377451D01*
X80072297Y-56375375D01*
X80055925Y-56349900D01*
X80037616Y-56325785D01*
X80036488Y-56319655D01*
X80034523Y-56316597D01*
X80029500Y-56281662D01*
X80029500Y-56253098D01*
X80049185Y-56186059D01*
X80065819Y-56165417D01*
X80080811Y-56150425D01*
X80109520Y-56121716D01*
X80188577Y-55984784D01*
X80229500Y-55832057D01*
X80229500Y-55673943D01*
X80188577Y-55521216D01*
X80165019Y-55480412D01*
X80109524Y-55384290D01*
X80109518Y-55384282D01*
X80065819Y-55340583D01*
X80032334Y-55279260D01*
X80029500Y-55252902D01*
X80029500Y-54315719D01*
X80028850Y-54313294D01*
X80025701Y-54301545D01*
X80002207Y-54213860D01*
X79949480Y-54122535D01*
X79345078Y-53518133D01*
X79311593Y-53456810D01*
X79315717Y-53389498D01*
X79322646Y-53369699D01*
X79323571Y-53359843D01*
X79325500Y-53339269D01*
X79325500Y-53031255D01*
X79345185Y-52964216D01*
X79397989Y-52918461D01*
X79467147Y-52908517D01*
X79530703Y-52937542D01*
X79537170Y-52943563D01*
X80074029Y-53480422D01*
X81048869Y-54455262D01*
X81082354Y-54516585D01*
X81085188Y-54542943D01*
X81085188Y-55301214D01*
X81065503Y-55368253D01*
X81058025Y-55377531D01*
X81058426Y-55377839D01*
X81053475Y-55384290D01*
X80974426Y-55521209D01*
X80974423Y-55521216D01*
X80933500Y-55673943D01*
X80933500Y-55832057D01*
X80951029Y-55897474D01*
X80974423Y-55984783D01*
X80974426Y-55984790D01*
X81053475Y-56121709D01*
X81053481Y-56121717D01*
X81097181Y-56165417D01*
X81111884Y-56192344D01*
X81128477Y-56218163D01*
X81129368Y-56224363D01*
X81130666Y-56226740D01*
X81133500Y-56253098D01*
X81133500Y-56390616D01*
X81113815Y-56457655D01*
X81109271Y-56464249D01*
X81042207Y-56555118D01*
X81042206Y-56555119D01*
X80997353Y-56683298D01*
X80997353Y-56683300D01*
X80994500Y-56713730D01*
X80994500Y-57997269D01*
X80997353Y-58027699D01*
X80997353Y-58027701D01*
X81037080Y-58141230D01*
X81042207Y-58155882D01*
X81122850Y-58265150D01*
X81232118Y-58345793D01*
X81274845Y-58360744D01*
X81360299Y-58390646D01*
X81390730Y-58393500D01*
X81390734Y-58393500D01*
X81799270Y-58393500D01*
X81829699Y-58390646D01*
X81829701Y-58390646D01*
X81893790Y-58368219D01*
X81957882Y-58345793D01*
X82067150Y-58265150D01*
X82147793Y-58155882D01*
X82175941Y-58075439D01*
X82192646Y-58027701D01*
X82192646Y-58027699D01*
X82195500Y-57997269D01*
X82195500Y-56713730D01*
X82192646Y-56683300D01*
X82192646Y-56683298D01*
X82159006Y-56587163D01*
X82147793Y-56555118D01*
X82067150Y-56445850D01*
X81984865Y-56385121D01*
X81981843Y-56381141D01*
X81977297Y-56379065D01*
X81960923Y-56353586D01*
X81942616Y-56329474D01*
X81941488Y-56323345D01*
X81939523Y-56320287D01*
X81934500Y-56285352D01*
X81934500Y-56253098D01*
X81954185Y-56186059D01*
X81970819Y-56165417D01*
X81985811Y-56150425D01*
X82014520Y-56121716D01*
X82093577Y-55984784D01*
X82134500Y-55832057D01*
X82134500Y-55673943D01*
X82093577Y-55521216D01*
X82070019Y-55480412D01*
X82014524Y-55384290D01*
X82014521Y-55384286D01*
X82014520Y-55384284D01*
X81922506Y-55292270D01*
X81907801Y-55265339D01*
X81891211Y-55239524D01*
X81890319Y-55233321D01*
X81889022Y-55230946D01*
X81886188Y-55204589D01*
X81886188Y-55105985D01*
X81905873Y-55038946D01*
X81958677Y-54993191D01*
X82027835Y-54983247D01*
X82051137Y-54988942D01*
X82090301Y-55002646D01*
X82096387Y-55003216D01*
X82120730Y-55005500D01*
X82120734Y-55005500D01*
X82570162Y-55005500D01*
X82637201Y-55025185D01*
X82677547Y-55067496D01*
X82679521Y-55070915D01*
X85970656Y-58362049D01*
X86004141Y-58423372D01*
X86006090Y-58464512D01*
X85999500Y-58519398D01*
X85999500Y-59130602D01*
X86003904Y-59167273D01*
X86010122Y-59219061D01*
X86065639Y-59359843D01*
X86157077Y-59480422D01*
X86277656Y-59571860D01*
X86277657Y-59571860D01*
X86277658Y-59571861D01*
X86418436Y-59627377D01*
X86506898Y-59638000D01*
X86674152Y-59638000D01*
X86741191Y-59657685D01*
X86761833Y-59674319D01*
X90164332Y-63076817D01*
X93546447Y-66458932D01*
X93546449Y-66458935D01*
X93611865Y-66524351D01*
X93658122Y-66551057D01*
X93691984Y-66570608D01*
X93781344Y-66594552D01*
X93781346Y-66594552D01*
X93881452Y-66594552D01*
X93881468Y-66594551D01*
X107081854Y-66594551D01*
X107081856Y-66594551D01*
X107171217Y-66570607D01*
X107251335Y-66524351D01*
X107316751Y-66458935D01*
X107316751Y-66458934D01*
X110446815Y-63328870D01*
X110508138Y-63295385D01*
X110534496Y-63292551D01*
X112268000Y-63292551D01*
X112268000Y-63639866D01*
X112205718Y-63702148D01*
X112046075Y-63910196D01*
X111914958Y-64137299D01*
X111914953Y-64137309D01*
X111814605Y-64379571D01*
X111814602Y-64379581D01*
X111772471Y-64536819D01*
X111746730Y-64632885D01*
X111712500Y-64892872D01*
X111712500Y-65155127D01*
X111733436Y-65314140D01*
X111746730Y-65415116D01*
X111768178Y-65495161D01*
X111814602Y-65668418D01*
X111814605Y-65668428D01*
X111914953Y-65910690D01*
X111914958Y-65910700D01*
X112046075Y-66137803D01*
X112205718Y-66345851D01*
X112205726Y-66345860D01*
X112268000Y-66408134D01*
X112268000Y-67317500D01*
X60597845Y-67317500D01*
X60530806Y-67297815D01*
X60485051Y-67245011D01*
X60475107Y-67175853D01*
X60504132Y-67112297D01*
X60550393Y-67078939D01*
X60576685Y-67068048D01*
X60576685Y-67068047D01*
X60576697Y-67068043D01*
X60803803Y-66936924D01*
X61011851Y-66777282D01*
X61011855Y-66777277D01*
X61011860Y-66777274D01*
X61197274Y-66591860D01*
X61197277Y-66591855D01*
X61197282Y-66591851D01*
X61356924Y-66383803D01*
X61488043Y-66156697D01*
X61588398Y-65914419D01*
X61656270Y-65661116D01*
X61690500Y-65401120D01*
X61690500Y-65138880D01*
X61656270Y-64878884D01*
X61588398Y-64625581D01*
X61535294Y-64497376D01*
X61488046Y-64383309D01*
X61488041Y-64383299D01*
X61356924Y-64156196D01*
X61231771Y-63993095D01*
X61197282Y-63948149D01*
X61197281Y-63948148D01*
X61197274Y-63948140D01*
X61011860Y-63762726D01*
X61011851Y-63762718D01*
X60803803Y-63603075D01*
X60576700Y-63471958D01*
X60576690Y-63471953D01*
X60334428Y-63371605D01*
X60334421Y-63371603D01*
X60334419Y-63371602D01*
X60081116Y-63303730D01*
X60017731Y-63295385D01*
X59821127Y-63269500D01*
X59821120Y-63269500D01*
X59558880Y-63269500D01*
X59558872Y-63269500D01*
X59327772Y-63299926D01*
X59298884Y-63303730D01*
X59205060Y-63328870D01*
X59045581Y-63371602D01*
X59045571Y-63371605D01*
X58803309Y-63471953D01*
X58803299Y-63471958D01*
X58576196Y-63603075D01*
X58368148Y-63762718D01*
X58182718Y-63948148D01*
X58023077Y-64156193D01*
X58008887Y-64180773D01*
X57958319Y-64228988D01*
X57889712Y-64242210D01*
X57824848Y-64216242D01*
X57784320Y-64159328D01*
X57777500Y-64118772D01*
X57777500Y-50685258D01*
X60479500Y-50685258D01*
X60479500Y-50914741D01*
X60489508Y-50990752D01*
X60509452Y-51142238D01*
X60559701Y-51329771D01*
X60568842Y-51363887D01*
X60656650Y-51575876D01*
X60656657Y-51575890D01*
X60688071Y-51630300D01*
X60755366Y-51746860D01*
X60771392Y-51774617D01*
X60911081Y-51956661D01*
X60911089Y-51956670D01*
X61073330Y-52118911D01*
X61073338Y-52118918D01*
X61073339Y-52118919D01*
X61123962Y-52157764D01*
X61255382Y-52258607D01*
X61255385Y-52258608D01*
X61255388Y-52258611D01*
X61454112Y-52373344D01*
X61454117Y-52373346D01*
X61454123Y-52373349D01*
X61526830Y-52403465D01*
X61666113Y-52461158D01*
X61887762Y-52520548D01*
X62115266Y-52550500D01*
X62115273Y-52550500D01*
X62344727Y-52550500D01*
X62344734Y-52550500D01*
X62572238Y-52520548D01*
X62793887Y-52461158D01*
X63005888Y-52373344D01*
X63204612Y-52258611D01*
X63386661Y-52118919D01*
X63386665Y-52118914D01*
X63386670Y-52118911D01*
X63548911Y-51956670D01*
X63548914Y-51956665D01*
X63548919Y-51956661D01*
X63688611Y-51774612D01*
X63803344Y-51575888D01*
X63891158Y-51363887D01*
X63950548Y-51142238D01*
X63980500Y-50914734D01*
X63980500Y-50685266D01*
X63950548Y-50457762D01*
X63891158Y-50236113D01*
X63820949Y-50066613D01*
X63803349Y-50024123D01*
X63803346Y-50024117D01*
X63803344Y-50024112D01*
X63688611Y-49825388D01*
X63688608Y-49825385D01*
X63688607Y-49825382D01*
X63548918Y-49643338D01*
X63548911Y-49643330D01*
X63386670Y-49481089D01*
X63386661Y-49481081D01*
X63204617Y-49341392D01*
X63005890Y-49226657D01*
X63005876Y-49226650D01*
X62793887Y-49138842D01*
X62572238Y-49079452D01*
X62534215Y-49074446D01*
X62344741Y-49049500D01*
X62344734Y-49049500D01*
X62115266Y-49049500D01*
X62115258Y-49049500D01*
X61898715Y-49078009D01*
X61887762Y-49079452D01*
X61794076Y-49104554D01*
X61666112Y-49138842D01*
X61454123Y-49226650D01*
X61454109Y-49226657D01*
X61255382Y-49341392D01*
X61073338Y-49481081D01*
X60911081Y-49643338D01*
X60771392Y-49825382D01*
X60656657Y-50024109D01*
X60656650Y-50024123D01*
X60568842Y-50236112D01*
X60556222Y-50283211D01*
X60512627Y-50445915D01*
X60509453Y-50457759D01*
X60509451Y-50457770D01*
X60479500Y-50685258D01*
X57777500Y-50685258D01*
X57777500Y-32905258D01*
X60479500Y-32905258D01*
X60479500Y-33134741D01*
X60504446Y-33324215D01*
X60509452Y-33362238D01*
X60568842Y-33583887D01*
X60656650Y-33795876D01*
X60656657Y-33795890D01*
X60771392Y-33994617D01*
X60911081Y-34176661D01*
X60911089Y-34176670D01*
X61073330Y-34338911D01*
X61073338Y-34338918D01*
X61255382Y-34478607D01*
X61255385Y-34478608D01*
X61255388Y-34478611D01*
X61454112Y-34593344D01*
X61454117Y-34593346D01*
X61454123Y-34593349D01*
X61526840Y-34623469D01*
X61666113Y-34681158D01*
X61887762Y-34740548D01*
X62115266Y-34770500D01*
X62115273Y-34770500D01*
X62344727Y-34770500D01*
X62344734Y-34770500D01*
X62572238Y-34740548D01*
X62793887Y-34681158D01*
X63005888Y-34593344D01*
X63204612Y-34478611D01*
X63386661Y-34338919D01*
X63386665Y-34338914D01*
X63386670Y-34338911D01*
X63548911Y-34176670D01*
X63548914Y-34176665D01*
X63548919Y-34176661D01*
X63688611Y-33994612D01*
X63803344Y-33795888D01*
X63891158Y-33583887D01*
X63950548Y-33362238D01*
X63980500Y-33134734D01*
X63980500Y-32905266D01*
X63950548Y-32677762D01*
X63891158Y-32456113D01*
X63803344Y-32244112D01*
X63688611Y-32045388D01*
X63688608Y-32045385D01*
X63688607Y-32045382D01*
X63548918Y-31863338D01*
X63548911Y-31863330D01*
X63386670Y-31701089D01*
X63386661Y-31701081D01*
X63204617Y-31561392D01*
X63129165Y-31517830D01*
X63005890Y-31446657D01*
X63005876Y-31446650D01*
X62933159Y-31416530D01*
X68499500Y-31416530D01*
X68499500Y-31623469D01*
X68539868Y-31826412D01*
X68539870Y-31826420D01*
X68619058Y-32017596D01*
X68734024Y-32189657D01*
X68880342Y-32335975D01*
X68880345Y-32335977D01*
X69052402Y-32450941D01*
X69243580Y-32530130D01*
X69446530Y-32570499D01*
X69446534Y-32570500D01*
X69446535Y-32570500D01*
X69653466Y-32570500D01*
X69653467Y-32570499D01*
X69856420Y-32530130D01*
X70047598Y-32450941D01*
X70219655Y-32335977D01*
X70365977Y-32189655D01*
X70480941Y-32017598D01*
X70560130Y-31826420D01*
X70600500Y-31623465D01*
X70600500Y-31416535D01*
X70560130Y-31213580D01*
X70480941Y-31022402D01*
X70365977Y-30850345D01*
X70365975Y-30850342D01*
X70219657Y-30704024D01*
X70133626Y-30646541D01*
X70047598Y-30589059D01*
X70004258Y-30571107D01*
X69856420Y-30509870D01*
X69856412Y-30509868D01*
X69653469Y-30469500D01*
X69653465Y-30469500D01*
X69446535Y-30469500D01*
X69446530Y-30469500D01*
X69243587Y-30509868D01*
X69243579Y-30509870D01*
X69052403Y-30589058D01*
X68880342Y-30704024D01*
X68734024Y-30850342D01*
X68619058Y-31022403D01*
X68539870Y-31213579D01*
X68539868Y-31213587D01*
X68499500Y-31416530D01*
X62933159Y-31416530D01*
X62793887Y-31358842D01*
X62572238Y-31299452D01*
X62534215Y-31294446D01*
X62344741Y-31269500D01*
X62344734Y-31269500D01*
X62115266Y-31269500D01*
X62115258Y-31269500D01*
X61898715Y-31298009D01*
X61887762Y-31299452D01*
X61794076Y-31324554D01*
X61666112Y-31358842D01*
X61454123Y-31446650D01*
X61454109Y-31446657D01*
X61255382Y-31561392D01*
X61073338Y-31701081D01*
X60911081Y-31863338D01*
X60771392Y-32045382D01*
X60656657Y-32244109D01*
X60656650Y-32244123D01*
X60568842Y-32456112D01*
X60568842Y-32456113D01*
X60519926Y-32638674D01*
X60509453Y-32677759D01*
X60509451Y-32677770D01*
X60479500Y-32905258D01*
X57777500Y-32905258D01*
X57777500Y-23696730D01*
X57797185Y-23629691D01*
X57849989Y-23583936D01*
X57919147Y-23573992D01*
X57982703Y-23603017D01*
X58020477Y-23661795D01*
X58024438Y-23680541D01*
X58033730Y-23751116D01*
X58098831Y-23994076D01*
X58101602Y-24004418D01*
X58101605Y-24004428D01*
X58201953Y-24246690D01*
X58201958Y-24246700D01*
X58333075Y-24473803D01*
X58492718Y-24681851D01*
X58492726Y-24681860D01*
X58678140Y-24867274D01*
X58678148Y-24867281D01*
X58678149Y-24867282D01*
X58716921Y-24897033D01*
X58886196Y-25026924D01*
X59113299Y-25158041D01*
X59113309Y-25158046D01*
X59350600Y-25256335D01*
X59355581Y-25258398D01*
X59608884Y-25326270D01*
X59868880Y-25360500D01*
X59868887Y-25360500D01*
X60131113Y-25360500D01*
X60131120Y-25360500D01*
X60391116Y-25326270D01*
X60644419Y-25258398D01*
X60886697Y-25158043D01*
X61113803Y-25026924D01*
X61321851Y-24867282D01*
X61321855Y-24867277D01*
X61321860Y-24867274D01*
X61507274Y-24681860D01*
X61507277Y-24681855D01*
X61507282Y-24681851D01*
X61666924Y-24473803D01*
X61798043Y-24246697D01*
X61898398Y-24004419D01*
X61966270Y-23751116D01*
X62000500Y-23491120D01*
X62000500Y-23228880D01*
X61966270Y-22968884D01*
X61898398Y-22715581D01*
X61825081Y-22538578D01*
X61798046Y-22473309D01*
X61798041Y-22473299D01*
X61666924Y-22246196D01*
X61544424Y-22086554D01*
X61507282Y-22038149D01*
X61507281Y-22038148D01*
X61507274Y-22038140D01*
X61321860Y-21852726D01*
X61321851Y-21852718D01*
X61113803Y-21693075D01*
X60883181Y-21559927D01*
X60884200Y-21558161D01*
X60838802Y-21516349D01*
X60821157Y-21448744D01*
X60842863Y-21382331D01*
X60897029Y-21338197D01*
X60945100Y-21328500D01*
X112014000Y-21328500D01*
X112014000Y-22055751D01*
G37*
%TD.AperFunction*%
%TA.AperFunction,Conductor*%
G36*
X88205703Y-58984674D02*
G01*
X88212181Y-58990706D01*
X94421855Y-65200380D01*
X94547385Y-65272854D01*
X94687395Y-65310370D01*
X94687398Y-65310370D01*
X106047602Y-65310370D01*
X106047604Y-65310370D01*
X106047605Y-65310370D01*
X106187615Y-65272854D01*
X106313145Y-65200380D01*
X106976706Y-64536819D01*
X107038029Y-64503334D01*
X107064387Y-64500500D01*
X107540597Y-64500500D01*
X107540602Y-64500500D01*
X107629064Y-64489877D01*
X107769842Y-64434361D01*
X107890422Y-64342922D01*
X107981861Y-64222342D01*
X108037377Y-64081564D01*
X108048000Y-63993102D01*
X108048000Y-63516887D01*
X108067685Y-63449848D01*
X108084319Y-63429206D01*
X111747036Y-59766489D01*
X111808359Y-59733004D01*
X111834717Y-59730170D01*
X111961802Y-59730170D01*
X111961804Y-59730170D01*
X111961805Y-59730170D01*
X112101815Y-59692654D01*
X112147079Y-59666521D01*
X112227345Y-59620180D01*
X112268000Y-59579525D01*
X112268000Y-62589849D01*
X110291344Y-62589849D01*
X110201983Y-62613793D01*
X110201980Y-62613794D01*
X110121868Y-62660046D01*
X110121863Y-62660050D01*
X106926384Y-65855530D01*
X106865061Y-65889015D01*
X106838703Y-65891849D01*
X94024496Y-65891849D01*
X93957457Y-65872164D01*
X93936815Y-65855530D01*
X87783546Y-59702260D01*
X87750061Y-59640937D01*
X87755045Y-59571245D01*
X87796302Y-59515775D01*
X87842922Y-59480422D01*
X87934360Y-59359843D01*
X87934359Y-59359843D01*
X87934361Y-59359842D01*
X87989877Y-59219064D01*
X88000500Y-59130602D01*
X88000500Y-59078387D01*
X88020185Y-59011348D01*
X88072989Y-58965593D01*
X88142147Y-58955649D01*
X88205703Y-58984674D01*
G37*
%TD.AperFunction*%
%TA.AperFunction,Conductor*%
G36*
X71698039Y-38920185D02*
G01*
X71743794Y-38972989D01*
X71755000Y-39024500D01*
X71755000Y-41656000D01*
X86813138Y-41656000D01*
X86880177Y-41675685D01*
X86900819Y-41692319D01*
X89868181Y-44659681D01*
X89901666Y-44721004D01*
X89904500Y-44747362D01*
X89904500Y-52158693D01*
X89913617Y-52204526D01*
X89916000Y-52228718D01*
X89916000Y-55245000D01*
X95042934Y-55245000D01*
X95076218Y-55254773D01*
X95109694Y-55264506D01*
X95109807Y-55264636D01*
X95109973Y-55264685D01*
X95132661Y-55290868D01*
X95155590Y-55317187D01*
X95155615Y-55317358D01*
X95155728Y-55317489D01*
X95160665Y-55351828D01*
X95165719Y-55386319D01*
X95165652Y-55386511D01*
X95165672Y-55386647D01*
X95155866Y-55420209D01*
X95153356Y-55425742D01*
X95121793Y-55480412D01*
X95114646Y-55507087D01*
X95112011Y-55516917D01*
X95112009Y-55516924D01*
X95094500Y-55582273D01*
X95094500Y-59272726D01*
X95121793Y-59374590D01*
X95135386Y-59398131D01*
X95152000Y-59460133D01*
X95152000Y-60183102D01*
X95154809Y-60206492D01*
X95162622Y-60271561D01*
X95218139Y-60412343D01*
X95309577Y-60532922D01*
X95430156Y-60624360D01*
X95430157Y-60624360D01*
X95430158Y-60624361D01*
X95570936Y-60679877D01*
X95659398Y-60690500D01*
X95659403Y-60690500D01*
X96270597Y-60690500D01*
X96270602Y-60690500D01*
X96359064Y-60679877D01*
X96499842Y-60624361D01*
X96620422Y-60532922D01*
X96711861Y-60412342D01*
X96762146Y-60284826D01*
X96805051Y-60229685D01*
X96870959Y-60206492D01*
X96938943Y-60222612D01*
X96987420Y-60272929D01*
X96992848Y-60284814D01*
X97028152Y-60374339D01*
X97043139Y-60412343D01*
X97134577Y-60532922D01*
X97260425Y-60628355D01*
X97301949Y-60684547D01*
X97309500Y-60727159D01*
X97309500Y-62428267D01*
X97289815Y-62495306D01*
X97237011Y-62541061D01*
X97231004Y-62543615D01*
X97210829Y-62551572D01*
X97175156Y-62565639D01*
X97054577Y-62657077D01*
X96963139Y-62777656D01*
X96907622Y-62918438D01*
X96902594Y-62960314D01*
X96897000Y-63006898D01*
X96897000Y-63993102D01*
X96905939Y-64067538D01*
X96906305Y-64070586D01*
X96894753Y-64139495D01*
X96847781Y-64191219D01*
X96783189Y-64209370D01*
X95039257Y-64209370D01*
X94972218Y-64189685D01*
X94951576Y-64173051D01*
X88036819Y-57258294D01*
X88003334Y-57196971D01*
X88000500Y-57170613D01*
X88000500Y-56829387D01*
X88020185Y-56762348D01*
X88036819Y-56741706D01*
X88320870Y-56457655D01*
X88615510Y-56163015D01*
X88687984Y-56037485D01*
X88725500Y-55897474D01*
X88725500Y-55752526D01*
X88725500Y-52780647D01*
X88692725Y-52658329D01*
X88688500Y-52626236D01*
X88688500Y-52565527D01*
X88688500Y-52565525D01*
X88650984Y-52425515D01*
X88643535Y-52412613D01*
X88578510Y-52299985D01*
X88061819Y-51783294D01*
X88028334Y-51721971D01*
X88025500Y-51695613D01*
X88025500Y-51206903D01*
X88025500Y-51206898D01*
X88014877Y-51118436D01*
X87959361Y-50977658D01*
X87959360Y-50977657D01*
X87959360Y-50977656D01*
X87867922Y-50857077D01*
X87747341Y-50765638D01*
X87747339Y-50765637D01*
X87629010Y-50718974D01*
X87573866Y-50676069D01*
X87550673Y-50610161D01*
X87550500Y-50603620D01*
X87550500Y-47827527D01*
X87550500Y-47827525D01*
X87512984Y-47687515D01*
X87440510Y-47561985D01*
X85438015Y-45559490D01*
X85312485Y-45487016D01*
X85312486Y-45487016D01*
X85265775Y-45474500D01*
X85172475Y-45449500D01*
X85172472Y-45449500D01*
X85146380Y-45449500D01*
X85079341Y-45429815D01*
X85033586Y-45377011D01*
X85031026Y-45370990D01*
X84984362Y-45252660D01*
X84984361Y-45252658D01*
X84892922Y-45132077D01*
X84772343Y-45040639D01*
X84631561Y-44985122D01*
X84585926Y-44979642D01*
X84543102Y-44974500D01*
X83956898Y-44974500D01*
X83917853Y-44979188D01*
X83868438Y-44985122D01*
X83727656Y-45040639D01*
X83607077Y-45132077D01*
X83515639Y-45252656D01*
X83460122Y-45393438D01*
X83456574Y-45422989D01*
X83449500Y-45481898D01*
X83449500Y-46518102D01*
X83455126Y-46564954D01*
X83460122Y-46606561D01*
X83515639Y-46747343D01*
X83607077Y-46867922D01*
X83727656Y-46959360D01*
X83727657Y-46959360D01*
X83727658Y-46959361D01*
X83868436Y-47014877D01*
X83956898Y-47025500D01*
X83956903Y-47025500D01*
X84543097Y-47025500D01*
X84543102Y-47025500D01*
X84631564Y-47014877D01*
X84772342Y-46959361D01*
X84892922Y-46867922D01*
X84929268Y-46819993D01*
X84934857Y-46812623D01*
X84991050Y-46771099D01*
X85060771Y-46766548D01*
X85121342Y-46799867D01*
X86413181Y-48091706D01*
X86446666Y-48153029D01*
X86449500Y-48179387D01*
X86449500Y-50603620D01*
X86429815Y-50670659D01*
X86377011Y-50716414D01*
X86370990Y-50718974D01*
X86252660Y-50765637D01*
X86252658Y-50765638D01*
X86132077Y-50857077D01*
X86040639Y-50977656D01*
X85985122Y-51118438D01*
X85980773Y-51154658D01*
X85974693Y-51205286D01*
X85947158Y-51269498D01*
X85889276Y-51308631D01*
X85851579Y-51314500D01*
X85271621Y-51314500D01*
X85204582Y-51294815D01*
X85158827Y-51242011D01*
X85148883Y-51172853D01*
X85154786Y-51151333D01*
X85154777Y-51151331D01*
X85156881Y-51143480D01*
X85197804Y-50990753D01*
X85197804Y-50832639D01*
X85156881Y-50679912D01*
X85133557Y-50639513D01*
X85077828Y-50542986D01*
X85077822Y-50542978D01*
X84966021Y-50431177D01*
X84966013Y-50431171D01*
X84829094Y-50352122D01*
X84829090Y-50352120D01*
X84829088Y-50352119D01*
X84676361Y-50311196D01*
X84524973Y-50311196D01*
X84509485Y-50307046D01*
X84495739Y-50307701D01*
X84462973Y-50294583D01*
X84443276Y-50283211D01*
X84443274Y-50283210D01*
X84416227Y-50267593D01*
X84356651Y-50251630D01*
X84326864Y-50243649D01*
X84326863Y-50243649D01*
X84298901Y-50243649D01*
X84231862Y-50223964D01*
X84199131Y-50193282D01*
X84147151Y-50122851D01*
X84137834Y-50115975D01*
X84037882Y-50042207D01*
X84037880Y-50042206D01*
X83909700Y-49997353D01*
X83879270Y-49994500D01*
X83879266Y-49994500D01*
X82120734Y-49994500D01*
X82120730Y-49994500D01*
X82090300Y-49997353D01*
X82090298Y-49997353D01*
X81962119Y-50042206D01*
X81962117Y-50042207D01*
X81852850Y-50122850D01*
X81772207Y-50232117D01*
X81772206Y-50232119D01*
X81727353Y-50360298D01*
X81727353Y-50360300D01*
X81724500Y-50390730D01*
X81724500Y-50799269D01*
X81727353Y-50829699D01*
X81727353Y-50829701D01*
X81772206Y-50957880D01*
X81772207Y-50957882D01*
X81852850Y-51067150D01*
X81938321Y-51130230D01*
X81980571Y-51185877D01*
X81986030Y-51255534D01*
X81952962Y-51317083D01*
X81938321Y-51329769D01*
X81892094Y-51363887D01*
X81852850Y-51392850D01*
X81772207Y-51502117D01*
X81772206Y-51502119D01*
X81727353Y-51630298D01*
X81727353Y-51630300D01*
X81724500Y-51660726D01*
X81724500Y-52069269D01*
X81727353Y-52099699D01*
X81727353Y-52099701D01*
X81772206Y-52227880D01*
X81772207Y-52227882D01*
X81852850Y-52337150D01*
X81962118Y-52417793D01*
X82004845Y-52432744D01*
X82090299Y-52462646D01*
X82120730Y-52465500D01*
X82120734Y-52465500D01*
X83879270Y-52465500D01*
X83909699Y-52462646D01*
X83948025Y-52449235D01*
X84024549Y-52422459D01*
X84065504Y-52415500D01*
X86707472Y-52415500D01*
X86707474Y-52415500D01*
X86707475Y-52415500D01*
X86847485Y-52377984D01*
X86879831Y-52359309D01*
X86924833Y-52333327D01*
X86954340Y-52326169D01*
X86992727Y-52316856D01*
X86992730Y-52316857D01*
X86992731Y-52316857D01*
X87027278Y-52328814D01*
X87058755Y-52339708D01*
X87058757Y-52339709D01*
X87058758Y-52339711D01*
X87074510Y-52353035D01*
X87555744Y-52834269D01*
X87587837Y-52889855D01*
X87619868Y-53009394D01*
X87620265Y-53010878D01*
X87624500Y-53043005D01*
X87624500Y-55545613D01*
X87604815Y-55612652D01*
X87588181Y-55633294D01*
X87070794Y-56150681D01*
X87009471Y-56184166D01*
X86983113Y-56187000D01*
X86506898Y-56187000D01*
X86467853Y-56191688D01*
X86418438Y-56197622D01*
X86277656Y-56253139D01*
X86157077Y-56344577D01*
X86065639Y-56465156D01*
X86010122Y-56605938D01*
X86007552Y-56627342D01*
X85999500Y-56694398D01*
X85999500Y-56694403D01*
X85999500Y-56958745D01*
X85979815Y-57025784D01*
X85927011Y-57071539D01*
X85857853Y-57081483D01*
X85794297Y-57052458D01*
X85787819Y-57046426D01*
X83926523Y-55185130D01*
X83893038Y-55123807D01*
X83898022Y-55054115D01*
X83939894Y-54998182D01*
X83973244Y-54980410D01*
X84037882Y-54957793D01*
X84147150Y-54877150D01*
X84227793Y-54767882D01*
X84263236Y-54666592D01*
X84272646Y-54639701D01*
X84272646Y-54639699D01*
X84275500Y-54609269D01*
X84275500Y-54200730D01*
X84272646Y-54170300D01*
X84272646Y-54170298D01*
X84227793Y-54042119D01*
X84227792Y-54042117D01*
X84200553Y-54005209D01*
X84147150Y-53932850D01*
X84037882Y-53852207D01*
X84037880Y-53852206D01*
X83909700Y-53807353D01*
X83879270Y-53804500D01*
X83879266Y-53804500D01*
X82120734Y-53804500D01*
X82120730Y-53804500D01*
X82090300Y-53807353D01*
X82090298Y-53807353D01*
X81962119Y-53852206D01*
X81962117Y-53852207D01*
X81852848Y-53932851D01*
X81846279Y-53939421D01*
X81844246Y-53937388D01*
X81800542Y-53970565D01*
X81730886Y-53976017D01*
X81669339Y-53942945D01*
X81668749Y-53942358D01*
X80516740Y-52790349D01*
X79324332Y-51597940D01*
X79294971Y-51551211D01*
X79277795Y-51502121D01*
X79277793Y-51502118D01*
X79197150Y-51392850D01*
X79164914Y-51369059D01*
X79111677Y-51329768D01*
X79069428Y-51274123D01*
X79063969Y-51204467D01*
X79097036Y-51142917D01*
X79111670Y-51130236D01*
X79197150Y-51067150D01*
X79277793Y-50957882D01*
X79321617Y-50832641D01*
X79322646Y-50829701D01*
X79322646Y-50829699D01*
X79325500Y-50799269D01*
X79325500Y-50390730D01*
X79322646Y-50360300D01*
X79322646Y-50360298D01*
X79279191Y-50236113D01*
X79277793Y-50232118D01*
X79197150Y-50122850D01*
X79087882Y-50042207D01*
X79087880Y-50042206D01*
X78959700Y-49997353D01*
X78929270Y-49994500D01*
X78929266Y-49994500D01*
X77170734Y-49994500D01*
X77170730Y-49994500D01*
X77140300Y-49997353D01*
X77140298Y-49997353D01*
X77012119Y-50042206D01*
X77012117Y-50042207D01*
X76902850Y-50122850D01*
X76822207Y-50232117D01*
X76822206Y-50232119D01*
X76777353Y-50360298D01*
X76777353Y-50360300D01*
X76774500Y-50390730D01*
X76774500Y-50628034D01*
X76754815Y-50695073D01*
X76702011Y-50740828D01*
X76632853Y-50750772D01*
X76569297Y-50721747D01*
X76562819Y-50715715D01*
X75486819Y-49639715D01*
X75453334Y-49578392D01*
X75450500Y-49552034D01*
X75450500Y-47171893D01*
X75470185Y-47104854D01*
X75522989Y-47059099D01*
X75560213Y-47048718D01*
X75569991Y-47047585D01*
X75672765Y-47002206D01*
X75752206Y-46922765D01*
X75797585Y-46819991D01*
X75800500Y-46794865D01*
X75800499Y-45205136D01*
X75800497Y-45205117D01*
X75797586Y-45180012D01*
X75797585Y-45180010D01*
X75797585Y-45180009D01*
X75752206Y-45077235D01*
X75672765Y-44997794D01*
X75620009Y-44974500D01*
X75569992Y-44952415D01*
X75544868Y-44949500D01*
X75544865Y-44949500D01*
X75287965Y-44949500D01*
X75220926Y-44929815D01*
X75200284Y-44913181D01*
X74826616Y-44539513D01*
X74826614Y-44539511D01*
X74775250Y-44509856D01*
X74723888Y-44480201D01*
X74711780Y-44476957D01*
X74699673Y-44473713D01*
X74699670Y-44473712D01*
X74661478Y-44463478D01*
X74609309Y-44449500D01*
X69975691Y-44449500D01*
X69889758Y-44472525D01*
X69861113Y-44480201D01*
X69758386Y-44539509D01*
X69758384Y-44539511D01*
X69189513Y-45108383D01*
X69189509Y-45108389D01*
X69130201Y-45211112D01*
X69130200Y-45211117D01*
X69099500Y-45325691D01*
X69099500Y-48271309D01*
X69097263Y-48278926D01*
X69098533Y-48286762D01*
X69087560Y-48311969D01*
X69079815Y-48338348D01*
X69073105Y-48345178D01*
X69070647Y-48350826D01*
X69044391Y-48374411D01*
X68938391Y-48445238D01*
X68871713Y-48466116D01*
X68804333Y-48447631D01*
X68757643Y-48395653D01*
X68745500Y-48342136D01*
X68745500Y-40667940D01*
X68765185Y-40600901D01*
X68781819Y-40580259D01*
X70425259Y-38936819D01*
X70486582Y-38903334D01*
X70512940Y-38900500D01*
X71631000Y-38900500D01*
X71698039Y-38920185D01*
G37*
%TD.AperFunction*%
%TA.AperFunction,Conductor*%
G36*
X103354784Y-58205185D02*
G01*
X103375426Y-58221819D01*
X104560681Y-59407074D01*
X104594166Y-59468397D01*
X104597000Y-59494755D01*
X104597000Y-60183102D01*
X104599809Y-60206492D01*
X104607622Y-60271561D01*
X104663139Y-60412343D01*
X104754577Y-60532922D01*
X104875156Y-60624360D01*
X104875157Y-60624360D01*
X104875158Y-60624361D01*
X105015936Y-60679877D01*
X105104398Y-60690500D01*
X105368745Y-60690500D01*
X105435784Y-60710185D01*
X105481539Y-60762989D01*
X105491483Y-60832147D01*
X105462458Y-60895703D01*
X105456426Y-60902181D01*
X105089522Y-61269084D01*
X105089518Y-61269090D01*
X105036792Y-61360412D01*
X105036793Y-61360413D01*
X105009500Y-61462273D01*
X105009500Y-62428267D01*
X104989815Y-62495306D01*
X104937011Y-62541061D01*
X104931004Y-62543615D01*
X104910829Y-62551572D01*
X104875156Y-62565639D01*
X104754577Y-62657077D01*
X104663139Y-62777656D01*
X104607622Y-62918438D01*
X104603365Y-62953888D01*
X104598994Y-62990285D01*
X104571459Y-63054498D01*
X104513577Y-63093631D01*
X104475880Y-63099500D01*
X103154339Y-63099500D01*
X103087300Y-63079815D01*
X103041545Y-63027011D01*
X103031215Y-62985543D01*
X103030941Y-62985576D01*
X103030677Y-62983385D01*
X103030561Y-62982916D01*
X103030500Y-62981908D01*
X103030500Y-62981898D01*
X103019877Y-62893436D01*
X102964361Y-62752658D01*
X102964360Y-62752657D01*
X102964360Y-62752656D01*
X102872922Y-62632077D01*
X102752343Y-62540639D01*
X102611561Y-62485122D01*
X102565926Y-62479642D01*
X102523102Y-62474500D01*
X101936898Y-62474500D01*
X101897853Y-62479188D01*
X101848438Y-62485122D01*
X101707656Y-62540639D01*
X101587077Y-62632077D01*
X101495639Y-62752656D01*
X101440122Y-62893438D01*
X101434188Y-62942853D01*
X101429500Y-62981898D01*
X101429500Y-64018102D01*
X101435437Y-64067538D01*
X101435803Y-64070586D01*
X101433089Y-64086773D01*
X101435425Y-64103017D01*
X101427432Y-64120518D01*
X101424251Y-64139495D01*
X101413217Y-64151644D01*
X101406400Y-64166573D01*
X101390214Y-64176974D01*
X101377279Y-64191219D01*
X101360878Y-64195827D01*
X101347622Y-64204347D01*
X101312687Y-64209370D01*
X101247313Y-64209370D01*
X101180274Y-64189685D01*
X101134519Y-64136881D01*
X101124197Y-64070586D01*
X101124563Y-64067538D01*
X101130500Y-64018102D01*
X101130500Y-62981898D01*
X101119877Y-62893436D01*
X101064361Y-62752658D01*
X101064360Y-62752657D01*
X101064360Y-62752656D01*
X100972922Y-62632077D01*
X100852341Y-62540638D01*
X100852339Y-62540637D01*
X100809010Y-62523550D01*
X100753866Y-62480644D01*
X100730673Y-62414736D01*
X100730500Y-62408196D01*
X100730500Y-60793280D01*
X100750185Y-60726241D01*
X100802989Y-60680486D01*
X100808974Y-60677940D01*
X100944842Y-60624361D01*
X101065422Y-60532922D01*
X101156861Y-60412342D01*
X101212377Y-60271564D01*
X101223000Y-60183102D01*
X101223000Y-59196898D01*
X101212377Y-59108436D01*
X101156861Y-58967658D01*
X101156860Y-58967657D01*
X101156860Y-58967656D01*
X101065422Y-58847077D01*
X100944843Y-58755639D01*
X100825162Y-58708443D01*
X100804064Y-58700123D01*
X100804063Y-58700122D01*
X100804061Y-58700122D01*
X100758426Y-58694642D01*
X100715602Y-58689500D01*
X100715597Y-58689500D01*
X100537814Y-58689500D01*
X100470775Y-58669815D01*
X100425020Y-58617011D01*
X100413814Y-58565500D01*
X100413814Y-58309500D01*
X100433499Y-58242461D01*
X100486303Y-58196706D01*
X100537814Y-58185500D01*
X103287745Y-58185500D01*
X103354784Y-58205185D01*
G37*
%TD.AperFunction*%
%TA.AperFunction,Conductor*%
G36*
X97626284Y-55264685D02*
G01*
X97672039Y-55317489D01*
X97681983Y-55386647D01*
X97652958Y-55450203D01*
X97646926Y-55456681D01*
X97469522Y-55634084D01*
X97469520Y-55634087D01*
X97416793Y-55725412D01*
X97395273Y-55805726D01*
X97392963Y-55814344D01*
X97389500Y-55827270D01*
X97389500Y-58618267D01*
X97369815Y-58685306D01*
X97317011Y-58731061D01*
X97311004Y-58733615D01*
X97290829Y-58741572D01*
X97255156Y-58755639D01*
X97134577Y-58847077D01*
X97043139Y-58967656D01*
X97013165Y-59043663D01*
X96992853Y-59095171D01*
X96949949Y-59150314D01*
X96884041Y-59173507D01*
X96816056Y-59157386D01*
X96767580Y-59107070D01*
X96762148Y-59095178D01*
X96711861Y-58967658D01*
X96711860Y-58967657D01*
X96711860Y-58967656D01*
X96620422Y-58847077D01*
X96499843Y-58755639D01*
X96380162Y-58708443D01*
X96359064Y-58700123D01*
X96359063Y-58700122D01*
X96359061Y-58700122D01*
X96313426Y-58694642D01*
X96270602Y-58689500D01*
X96270597Y-58689500D01*
X96019500Y-58689500D01*
X95952461Y-58669815D01*
X95906706Y-58617011D01*
X95895500Y-58565500D01*
X95895500Y-55852255D01*
X95915185Y-55785216D01*
X95931819Y-55764574D01*
X96249574Y-55446819D01*
X96310897Y-55413334D01*
X96337255Y-55410500D01*
X97038097Y-55410500D01*
X97038102Y-55410500D01*
X97126564Y-55399877D01*
X97267342Y-55344361D01*
X97365143Y-55270195D01*
X97386191Y-55262195D01*
X97405133Y-55250023D01*
X97426182Y-55246996D01*
X97430454Y-55245373D01*
X97440068Y-55245000D01*
X97559245Y-55245000D01*
X97626284Y-55264685D01*
G37*
%TD.AperFunction*%
%TA.AperFunction,Conductor*%
G36*
X112268000Y-58198131D02*
G01*
X112247894Y-58198131D01*
X112243402Y-58199334D01*
X112230818Y-58199435D01*
X112204263Y-58191867D01*
X112176977Y-58187611D01*
X112171135Y-58182425D01*
X112163624Y-58180285D01*
X112145377Y-58159562D01*
X112124723Y-58141230D01*
X112122539Y-58133627D01*
X112117450Y-58127847D01*
X112113596Y-58102484D01*
X112105830Y-58075439D01*
X112105830Y-55245000D01*
X112268000Y-55245000D01*
X112268000Y-58198131D01*
G37*
%TD.AperFunction*%
%TD*%
%TA.AperFunction,Conductor*%
%TO.N,GND*%
G36*
X158109887Y-63272246D02*
G01*
X158167749Y-63311408D01*
X158195254Y-63375636D01*
X158183668Y-63444538D01*
X158147620Y-63488732D01*
X158139517Y-63494950D01*
X158113481Y-63514929D01*
X158111144Y-63516722D01*
X157925718Y-63702148D01*
X157766075Y-63910196D01*
X157634958Y-64137299D01*
X157634953Y-64137309D01*
X157534605Y-64379571D01*
X157534602Y-64379581D01*
X157466730Y-64632885D01*
X157432500Y-64892872D01*
X157432500Y-65155127D01*
X157453436Y-65314140D01*
X157466730Y-65415116D01*
X157488178Y-65495161D01*
X157534602Y-65668418D01*
X157534605Y-65668428D01*
X157634953Y-65910690D01*
X157634958Y-65910700D01*
X157766075Y-66137803D01*
X157925718Y-66345851D01*
X157925726Y-66345860D01*
X158111140Y-66531274D01*
X158111148Y-66531281D01*
X158319196Y-66690924D01*
X158546299Y-66822041D01*
X158546309Y-66822046D01*
X158788571Y-66922394D01*
X158788581Y-66922398D01*
X159041884Y-66990270D01*
X159301880Y-67024500D01*
X159301887Y-67024500D01*
X159564113Y-67024500D01*
X159564120Y-67024500D01*
X159824116Y-66990270D01*
X160077419Y-66922398D01*
X160319697Y-66822043D01*
X160546803Y-66690924D01*
X160754851Y-66531282D01*
X160754855Y-66531277D01*
X160754860Y-66531274D01*
X160940274Y-66345860D01*
X160940277Y-66345855D01*
X160940282Y-66345851D01*
X161099924Y-66137803D01*
X161231043Y-65910697D01*
X161331398Y-65668419D01*
X161399270Y-65415116D01*
X161431561Y-65169848D01*
X161459828Y-65105952D01*
X161518152Y-65067481D01*
X161588017Y-65066650D01*
X161647240Y-65103722D01*
X161677019Y-65166928D01*
X161678500Y-65186034D01*
X161678500Y-67193500D01*
X161658815Y-67260539D01*
X161606011Y-67306294D01*
X161554500Y-67317500D01*
X112268000Y-67317500D01*
X112268000Y-66408134D01*
X112391140Y-66531274D01*
X112391148Y-66531281D01*
X112599196Y-66690924D01*
X112826299Y-66822041D01*
X112826309Y-66822046D01*
X113068571Y-66922394D01*
X113068581Y-66922398D01*
X113321884Y-66990270D01*
X113581880Y-67024500D01*
X113581887Y-67024500D01*
X113844113Y-67024500D01*
X113844120Y-67024500D01*
X114104116Y-66990270D01*
X114357419Y-66922398D01*
X114599697Y-66822043D01*
X114826803Y-66690924D01*
X115034851Y-66531282D01*
X115034855Y-66531277D01*
X115034860Y-66531274D01*
X115220274Y-66345860D01*
X115220277Y-66345855D01*
X115220282Y-66345851D01*
X115379924Y-66137803D01*
X115511043Y-65910697D01*
X115611398Y-65668419D01*
X115679270Y-65415116D01*
X115713500Y-65155120D01*
X115713500Y-64892880D01*
X115679270Y-64632884D01*
X115611398Y-64379581D01*
X115513204Y-64142520D01*
X115511046Y-64137309D01*
X115511041Y-64137299D01*
X115379924Y-63910196D01*
X115220281Y-63702148D01*
X115220274Y-63702140D01*
X115034860Y-63516726D01*
X115034852Y-63516719D01*
X115034851Y-63516718D01*
X115032518Y-63514928D01*
X115032000Y-63514218D01*
X115031808Y-63514050D01*
X115031845Y-63514006D01*
X114991314Y-63458503D01*
X114987157Y-63388757D01*
X115021368Y-63327835D01*
X115083084Y-63295080D01*
X115108002Y-63292551D01*
X157958053Y-63292551D01*
X157958056Y-63292551D01*
X158040041Y-63270583D01*
X158109887Y-63272246D01*
G37*
%TD.AperFunction*%
%TA.AperFunction,Conductor*%
G36*
X158122504Y-21348185D02*
G01*
X158168259Y-21400989D01*
X158178203Y-21470147D01*
X158149178Y-21533703D01*
X158130957Y-21550870D01*
X158128859Y-21552481D01*
X158128854Y-21552485D01*
X157943428Y-21737911D01*
X157783785Y-21945959D01*
X157652668Y-22173062D01*
X157652663Y-22173072D01*
X157552315Y-22415334D01*
X157552312Y-22415344D01*
X157497839Y-22618643D01*
X157484440Y-22668648D01*
X157450210Y-22928635D01*
X157450210Y-23190890D01*
X157469474Y-23337207D01*
X157484440Y-23450879D01*
X157538777Y-23653667D01*
X157552312Y-23704181D01*
X157552315Y-23704191D01*
X157652663Y-23946453D01*
X157652668Y-23946463D01*
X157783785Y-24173566D01*
X157943428Y-24381614D01*
X157943436Y-24381623D01*
X158128850Y-24567037D01*
X158128858Y-24567044D01*
X158336906Y-24726687D01*
X158564009Y-24857804D01*
X158564019Y-24857809D01*
X158806281Y-24958157D01*
X158806291Y-24958161D01*
X159059594Y-25026033D01*
X159319590Y-25060263D01*
X159319597Y-25060263D01*
X159581823Y-25060263D01*
X159581830Y-25060263D01*
X159841826Y-25026033D01*
X160095129Y-24958161D01*
X160337407Y-24857806D01*
X160564513Y-24726687D01*
X160772561Y-24567045D01*
X160772565Y-24567040D01*
X160772570Y-24567037D01*
X160957984Y-24381623D01*
X160957987Y-24381618D01*
X160957992Y-24381614D01*
X161117634Y-24173566D01*
X161248753Y-23946460D01*
X161253015Y-23936172D01*
X161326560Y-23758618D01*
X161349108Y-23704182D01*
X161416980Y-23450879D01*
X161431561Y-23340126D01*
X161459828Y-23276231D01*
X161518152Y-23237760D01*
X161588017Y-23236929D01*
X161647240Y-23274001D01*
X161677019Y-23337207D01*
X161678500Y-23356313D01*
X161678500Y-64861965D01*
X161658815Y-64929004D01*
X161606011Y-64974759D01*
X161536853Y-64984703D01*
X161473297Y-64955678D01*
X161435523Y-64896900D01*
X161431561Y-64878151D01*
X161427575Y-64847880D01*
X161399270Y-64632884D01*
X161331398Y-64379581D01*
X161233204Y-64142520D01*
X161231046Y-64137309D01*
X161231041Y-64137299D01*
X161099924Y-63910196D01*
X160940281Y-63702148D01*
X160940274Y-63702140D01*
X160754860Y-63516726D01*
X160754851Y-63516718D01*
X160546803Y-63357075D01*
X160319700Y-63225958D01*
X160319690Y-63225953D01*
X160077428Y-63125605D01*
X160077421Y-63125603D01*
X160077419Y-63125602D01*
X159824116Y-63057730D01*
X159766339Y-63050123D01*
X159564127Y-63023500D01*
X159564120Y-63023500D01*
X159301880Y-63023500D01*
X159301872Y-63023500D01*
X159070772Y-63053926D01*
X159041884Y-63057730D01*
X158788581Y-63125602D01*
X158788571Y-63125605D01*
X158546309Y-63225953D01*
X158546304Y-63225956D01*
X158362638Y-63331995D01*
X158294738Y-63348467D01*
X158228711Y-63325614D01*
X158185521Y-63270692D01*
X158178880Y-63201139D01*
X158210896Y-63139037D01*
X158212916Y-63136968D01*
X160781227Y-60568656D01*
X160781232Y-60568653D01*
X160791435Y-60558449D01*
X160791437Y-60558449D01*
X160856853Y-60493033D01*
X160903109Y-60412915D01*
X160927053Y-60323554D01*
X160927053Y-28276774D01*
X160903109Y-28187413D01*
X160856853Y-28107295D01*
X160791437Y-28041879D01*
X160791436Y-28041878D01*
X160787106Y-28037548D01*
X160787095Y-28037538D01*
X156403225Y-23653667D01*
X156403220Y-23653663D01*
X156323108Y-23607411D01*
X156323107Y-23607410D01*
X156323106Y-23607410D01*
X156233745Y-23583466D01*
X156233744Y-23583466D01*
X150900164Y-23583466D01*
X150833125Y-23563781D01*
X150787370Y-23510977D01*
X150776164Y-23459466D01*
X150776163Y-22639109D01*
X150776163Y-22639102D01*
X150776161Y-22639083D01*
X150773250Y-22613978D01*
X150773249Y-22613976D01*
X150773249Y-22613975D01*
X150727870Y-22511201D01*
X150648429Y-22431760D01*
X150634675Y-22425687D01*
X150545656Y-22386381D01*
X150520529Y-22383466D01*
X147430807Y-22383466D01*
X147430781Y-22383468D01*
X147405676Y-22386379D01*
X147405672Y-22386381D01*
X147302899Y-22431759D01*
X147223458Y-22511200D01*
X147178079Y-22613972D01*
X147178079Y-22613974D01*
X147175164Y-22639097D01*
X147175164Y-23728822D01*
X147175166Y-23728848D01*
X147178077Y-23753953D01*
X147178079Y-23753957D01*
X147223457Y-23856730D01*
X147223458Y-23856731D01*
X147302899Y-23936172D01*
X147405673Y-23981551D01*
X147430799Y-23984466D01*
X149227915Y-23984465D01*
X149294954Y-24004150D01*
X149315596Y-24020784D01*
X149510780Y-24215968D01*
X149590899Y-24262225D01*
X149680259Y-24286169D01*
X149680261Y-24286169D01*
X149780367Y-24286169D01*
X149780383Y-24286168D01*
X155990592Y-24286168D01*
X156057631Y-24305853D01*
X156078273Y-24322487D01*
X156916720Y-25160934D01*
X156950205Y-25222257D01*
X156945221Y-25291949D01*
X156903349Y-25347882D01*
X156837885Y-25372299D01*
X156829039Y-25372615D01*
X155940163Y-25372615D01*
X155873124Y-25352930D01*
X155827369Y-25300126D01*
X155816163Y-25248615D01*
X155816163Y-25179109D01*
X155816163Y-25179102D01*
X155816161Y-25179083D01*
X155813250Y-25153978D01*
X155813249Y-25153976D01*
X155813249Y-25153975D01*
X155767870Y-25051201D01*
X155688429Y-24971760D01*
X155657621Y-24958157D01*
X155585656Y-24926381D01*
X155560529Y-24923466D01*
X152470807Y-24923466D01*
X152470781Y-24923468D01*
X152445676Y-24926379D01*
X152445672Y-24926381D01*
X152342899Y-24971759D01*
X152263458Y-25051200D01*
X152218079Y-25153972D01*
X152218079Y-25153974D01*
X152215164Y-25179097D01*
X152215164Y-25667220D01*
X152195479Y-25734259D01*
X152142675Y-25780014D01*
X152073517Y-25789958D01*
X152009961Y-25760933D01*
X152003483Y-25754901D01*
X150940549Y-24691967D01*
X150940544Y-24691963D01*
X150860432Y-24645711D01*
X150860431Y-24645710D01*
X150860430Y-24645710D01*
X150771070Y-24621766D01*
X137887140Y-24621766D01*
X137794628Y-24621766D01*
X137705268Y-24645710D01*
X137705266Y-24645711D01*
X137705265Y-24645711D01*
X137625153Y-24691963D01*
X137625148Y-24691967D01*
X130695934Y-31621181D01*
X130634611Y-31654666D01*
X130608253Y-31657500D01*
X130476943Y-31657500D01*
X130324216Y-31698423D01*
X130324209Y-31698426D01*
X130187290Y-31777475D01*
X130187282Y-31777481D01*
X130075481Y-31889282D01*
X130075475Y-31889290D01*
X129996426Y-32026209D01*
X129996423Y-32026216D01*
X129955500Y-32178943D01*
X129955500Y-32337056D01*
X129996423Y-32489783D01*
X129996426Y-32489790D01*
X130075475Y-32626709D01*
X130075479Y-32626714D01*
X130075480Y-32626716D01*
X130187284Y-32738520D01*
X130187286Y-32738521D01*
X130187290Y-32738524D01*
X130292207Y-32799097D01*
X130324216Y-32817577D01*
X130476943Y-32858500D01*
X130476945Y-32858500D01*
X130635055Y-32858500D01*
X130635057Y-32858500D01*
X130787784Y-32817577D01*
X130924716Y-32738520D01*
X131036520Y-32626716D01*
X131115577Y-32489784D01*
X131156500Y-32337057D01*
X131156500Y-32205745D01*
X131176185Y-32138706D01*
X131192819Y-32118064D01*
X137950099Y-25360785D01*
X138011422Y-25327300D01*
X138037780Y-25324466D01*
X138471288Y-25324466D01*
X138538327Y-25344151D01*
X138584082Y-25396955D01*
X138594026Y-25466113D01*
X138565001Y-25529669D01*
X138558969Y-25536147D01*
X130695934Y-33399181D01*
X130634611Y-33432666D01*
X130608253Y-33435500D01*
X130476943Y-33435500D01*
X130324216Y-33476423D01*
X130324209Y-33476426D01*
X130187290Y-33555475D01*
X130187282Y-33555481D01*
X130075481Y-33667282D01*
X130075475Y-33667290D01*
X129996426Y-33804209D01*
X129996423Y-33804216D01*
X129955500Y-33956943D01*
X129955500Y-34115057D01*
X129972367Y-34178003D01*
X129996423Y-34267783D01*
X129996426Y-34267790D01*
X130075475Y-34404709D01*
X130075479Y-34404714D01*
X130075480Y-34404716D01*
X130187284Y-34516520D01*
X130187286Y-34516521D01*
X130187290Y-34516524D01*
X130324209Y-34595573D01*
X130324216Y-34595577D01*
X130476943Y-34636500D01*
X130476945Y-34636500D01*
X130635055Y-34636500D01*
X130635057Y-34636500D01*
X130787784Y-34595577D01*
X130924716Y-34516520D01*
X131036520Y-34404716D01*
X131115577Y-34267784D01*
X131156500Y-34115057D01*
X131156500Y-33983745D01*
X131176185Y-33916706D01*
X131192819Y-33896064D01*
X132289786Y-32799097D01*
X147175164Y-32799097D01*
X147175164Y-33888822D01*
X147175166Y-33888848D01*
X147178077Y-33913953D01*
X147178079Y-33913957D01*
X147223457Y-34016730D01*
X147223458Y-34016731D01*
X147302899Y-34096172D01*
X147405673Y-34141551D01*
X147430799Y-34144466D01*
X150520528Y-34144465D01*
X150520543Y-34144463D01*
X150520546Y-34144463D01*
X150545651Y-34141552D01*
X150545652Y-34141551D01*
X150545655Y-34141551D01*
X150648429Y-34096172D01*
X150727870Y-34016731D01*
X150773249Y-33913957D01*
X150776164Y-33888831D01*
X150776163Y-32799102D01*
X150776163Y-32799101D01*
X150776163Y-32799097D01*
X152215164Y-32799097D01*
X152215164Y-33888822D01*
X152215166Y-33888848D01*
X152218077Y-33913953D01*
X152218079Y-33913957D01*
X152263457Y-34016730D01*
X152263458Y-34016731D01*
X152342899Y-34096172D01*
X152445673Y-34141551D01*
X152470799Y-34144466D01*
X155560528Y-34144465D01*
X155560543Y-34144463D01*
X155560546Y-34144463D01*
X155585651Y-34141552D01*
X155585652Y-34141551D01*
X155585655Y-34141551D01*
X155688429Y-34096172D01*
X155767870Y-34016731D01*
X155813249Y-33913957D01*
X155816164Y-33888831D01*
X155816163Y-32799102D01*
X155816161Y-32799083D01*
X155813250Y-32773978D01*
X155813249Y-32773976D01*
X155813249Y-32773975D01*
X155767870Y-32671201D01*
X155688429Y-32591760D01*
X155688427Y-32591759D01*
X155585656Y-32546381D01*
X155560529Y-32543466D01*
X152470807Y-32543466D01*
X152470781Y-32543468D01*
X152445676Y-32546379D01*
X152445672Y-32546381D01*
X152342899Y-32591759D01*
X152263458Y-32671200D01*
X152218079Y-32773972D01*
X152218079Y-32773974D01*
X152215164Y-32799097D01*
X150776163Y-32799097D01*
X150776163Y-32799096D01*
X150773250Y-32773978D01*
X150773249Y-32773976D01*
X150773249Y-32773975D01*
X150727870Y-32671201D01*
X150648429Y-32591760D01*
X150648427Y-32591759D01*
X150545656Y-32546381D01*
X150520529Y-32543466D01*
X147430807Y-32543466D01*
X147430781Y-32543468D01*
X147405676Y-32546379D01*
X147405672Y-32546381D01*
X147302899Y-32591759D01*
X147223458Y-32671200D01*
X147178079Y-32773972D01*
X147178079Y-32773974D01*
X147175164Y-32799097D01*
X132289786Y-32799097D01*
X132381044Y-32707839D01*
X134829787Y-30259097D01*
X147175164Y-30259097D01*
X147175164Y-31348822D01*
X147175166Y-31348848D01*
X147178077Y-31373953D01*
X147178079Y-31373957D01*
X147223457Y-31476730D01*
X147223458Y-31476731D01*
X147302899Y-31556172D01*
X147405673Y-31601551D01*
X147430799Y-31604466D01*
X150520528Y-31604465D01*
X150520543Y-31604463D01*
X150520546Y-31604463D01*
X150545651Y-31601552D01*
X150545652Y-31601551D01*
X150545655Y-31601551D01*
X150648429Y-31556172D01*
X150727870Y-31476731D01*
X150773249Y-31373957D01*
X150776164Y-31348831D01*
X150776163Y-30259102D01*
X150776163Y-30259101D01*
X150776163Y-30259097D01*
X152215164Y-30259097D01*
X152215164Y-31348822D01*
X152215166Y-31348848D01*
X152218077Y-31373953D01*
X152218079Y-31373957D01*
X152263457Y-31476730D01*
X152263458Y-31476731D01*
X152342899Y-31556172D01*
X152445673Y-31601551D01*
X152470799Y-31604466D01*
X155560528Y-31604465D01*
X155560543Y-31604463D01*
X155560546Y-31604463D01*
X155585651Y-31601552D01*
X155585652Y-31601551D01*
X155585655Y-31601551D01*
X155688429Y-31556172D01*
X155767870Y-31476731D01*
X155813249Y-31373957D01*
X155816164Y-31348831D01*
X155816163Y-30259102D01*
X155816161Y-30259083D01*
X155813250Y-30233978D01*
X155813249Y-30233976D01*
X155813249Y-30233975D01*
X155767870Y-30131201D01*
X155688429Y-30051760D01*
X155688427Y-30051759D01*
X155585656Y-30006381D01*
X155560529Y-30003466D01*
X152470807Y-30003466D01*
X152470781Y-30003468D01*
X152445676Y-30006379D01*
X152445672Y-30006381D01*
X152342899Y-30051759D01*
X152263458Y-30131200D01*
X152218079Y-30233972D01*
X152218079Y-30233974D01*
X152215164Y-30259097D01*
X150776163Y-30259097D01*
X150776163Y-30259096D01*
X150773250Y-30233978D01*
X150773249Y-30233976D01*
X150773249Y-30233975D01*
X150727870Y-30131201D01*
X150648429Y-30051760D01*
X150648427Y-30051759D01*
X150545656Y-30006381D01*
X150520529Y-30003466D01*
X147430807Y-30003466D01*
X147430781Y-30003468D01*
X147405676Y-30006379D01*
X147405672Y-30006381D01*
X147302899Y-30051759D01*
X147223458Y-30131200D01*
X147178079Y-30233972D01*
X147178079Y-30233974D01*
X147175164Y-30259097D01*
X134829787Y-30259097D01*
X134921045Y-30167839D01*
X137369787Y-27719097D01*
X147175164Y-27719097D01*
X147175164Y-28808822D01*
X147175166Y-28808848D01*
X147178077Y-28833953D01*
X147178079Y-28833957D01*
X147223457Y-28936730D01*
X147223458Y-28936731D01*
X147302899Y-29016172D01*
X147405673Y-29061551D01*
X147430799Y-29064466D01*
X150520528Y-29064465D01*
X150520543Y-29064463D01*
X150520546Y-29064463D01*
X150545651Y-29061552D01*
X150545652Y-29061551D01*
X150545655Y-29061551D01*
X150648429Y-29016172D01*
X150727870Y-28936731D01*
X150773249Y-28833957D01*
X150776164Y-28808831D01*
X150776163Y-27719102D01*
X150776161Y-27719083D01*
X150773250Y-27693978D01*
X150773249Y-27693976D01*
X150773249Y-27693975D01*
X150727870Y-27591201D01*
X150648429Y-27511760D01*
X150648427Y-27511759D01*
X150545656Y-27466381D01*
X150520529Y-27463466D01*
X147430807Y-27463466D01*
X147430781Y-27463468D01*
X147405676Y-27466379D01*
X147405672Y-27466381D01*
X147302899Y-27511759D01*
X147223458Y-27591200D01*
X147178079Y-27693972D01*
X147178079Y-27693974D01*
X147175164Y-27719097D01*
X137369787Y-27719097D01*
X138977249Y-26111635D01*
X139038572Y-26078150D01*
X139064930Y-26075316D01*
X147051165Y-26075316D01*
X147118204Y-26095001D01*
X147163959Y-26147805D01*
X147175165Y-26199316D01*
X147175165Y-26268822D01*
X147175166Y-26268848D01*
X147178077Y-26293953D01*
X147178079Y-26293957D01*
X147223457Y-26396730D01*
X147223458Y-26396731D01*
X147302899Y-26476172D01*
X147405673Y-26521551D01*
X147430799Y-26524466D01*
X150520528Y-26524465D01*
X150520543Y-26524463D01*
X150520546Y-26524463D01*
X150545651Y-26521552D01*
X150545652Y-26521551D01*
X150545655Y-26521551D01*
X150648429Y-26476172D01*
X150727870Y-26396731D01*
X150773249Y-26293957D01*
X150776164Y-26268831D01*
X150776163Y-25820709D01*
X150795847Y-25753672D01*
X150848651Y-25707917D01*
X150917810Y-25697973D01*
X150981366Y-25726998D01*
X150987844Y-25733030D01*
X152511246Y-27256432D01*
X152544731Y-27317755D01*
X152539747Y-27387447D01*
X152497875Y-27443380D01*
X152453858Y-27460922D01*
X152454677Y-27463931D01*
X152445672Y-27466381D01*
X152342899Y-27511759D01*
X152263458Y-27591200D01*
X152218079Y-27693972D01*
X152218079Y-27693974D01*
X152215164Y-27719097D01*
X152215164Y-28808822D01*
X152215166Y-28808848D01*
X152218077Y-28833953D01*
X152218079Y-28833957D01*
X152263457Y-28936730D01*
X152263458Y-28936731D01*
X152342899Y-29016172D01*
X152445673Y-29061551D01*
X152470799Y-29064466D01*
X155560528Y-29064465D01*
X155560543Y-29064463D01*
X155560546Y-29064463D01*
X155585651Y-29061552D01*
X155585652Y-29061551D01*
X155585655Y-29061551D01*
X155688429Y-29016172D01*
X155767870Y-28936731D01*
X155813249Y-28833957D01*
X155816164Y-28808831D01*
X155816163Y-27719102D01*
X155816161Y-27719083D01*
X155813250Y-27693978D01*
X155813249Y-27693976D01*
X155813249Y-27693975D01*
X155767870Y-27591201D01*
X155688429Y-27511760D01*
X155688427Y-27511759D01*
X155585656Y-27466381D01*
X155560532Y-27463466D01*
X155560529Y-27463466D01*
X153763410Y-27463466D01*
X153696371Y-27443781D01*
X153675729Y-27427147D01*
X152984728Y-26736146D01*
X152951243Y-26674823D01*
X152956227Y-26605131D01*
X152998099Y-26549198D01*
X153063563Y-26524781D01*
X153072409Y-26524465D01*
X155560520Y-26524465D01*
X155560528Y-26524465D01*
X155560543Y-26524463D01*
X155560546Y-26524463D01*
X155585651Y-26521552D01*
X155585652Y-26521551D01*
X155585655Y-26521551D01*
X155688429Y-26476172D01*
X155767870Y-26396731D01*
X155813249Y-26293957D01*
X155816164Y-26268831D01*
X155816164Y-26199316D01*
X155835849Y-26132278D01*
X155888653Y-26086523D01*
X155940164Y-26075317D01*
X157353069Y-26075317D01*
X157420108Y-26095002D01*
X157440750Y-26111636D01*
X159886330Y-28557216D01*
X159919815Y-28618539D01*
X159922649Y-28644897D01*
X159922649Y-59874103D01*
X159902964Y-59941142D01*
X159886330Y-59961784D01*
X157650184Y-62197930D01*
X157588861Y-62231415D01*
X157562503Y-62234249D01*
X119244273Y-62234249D01*
X119177234Y-62214564D01*
X119131479Y-62161760D01*
X119129712Y-62157702D01*
X119126778Y-62150622D01*
X119126777Y-62150616D01*
X119112981Y-62126720D01*
X119047724Y-62013690D01*
X119047718Y-62013682D01*
X118935917Y-61901881D01*
X118935909Y-61901875D01*
X118798990Y-61822826D01*
X118798986Y-61822824D01*
X118798984Y-61822823D01*
X118646257Y-61781900D01*
X118488143Y-61781900D01*
X118335416Y-61822823D01*
X118335409Y-61822826D01*
X118198490Y-61901875D01*
X118198482Y-61901881D01*
X118086681Y-62013682D01*
X118086675Y-62013690D01*
X118007626Y-62150609D01*
X118007623Y-62150616D01*
X117966700Y-62303343D01*
X117966700Y-62465849D01*
X117947015Y-62532888D01*
X117894211Y-62578643D01*
X117842700Y-62589849D01*
X112268000Y-62589849D01*
X112268000Y-59579525D01*
X112512075Y-59335450D01*
X112573398Y-59301965D01*
X112599756Y-59299131D01*
X119160688Y-59299131D01*
X119227727Y-59318816D01*
X119273482Y-59371620D01*
X119274069Y-59372926D01*
X119295471Y-59421396D01*
X119374912Y-59500837D01*
X119477686Y-59546216D01*
X119502812Y-59549131D01*
X122592541Y-59549130D01*
X122592556Y-59549128D01*
X122592559Y-59549128D01*
X122617664Y-59546217D01*
X122617665Y-59546216D01*
X122617668Y-59546216D01*
X122720442Y-59500837D01*
X122799883Y-59421396D01*
X122845262Y-59318622D01*
X122848177Y-59293496D01*
X122848176Y-58203767D01*
X122847551Y-58198379D01*
X122845263Y-58178643D01*
X122845262Y-58178641D01*
X122845262Y-58178640D01*
X122799883Y-58075866D01*
X122720442Y-57996425D01*
X122720440Y-57996424D01*
X122617669Y-57951046D01*
X122592545Y-57948131D01*
X122592542Y-57948131D01*
X121722177Y-57948131D01*
X121655138Y-57928446D01*
X121609383Y-57875642D01*
X121598177Y-57824131D01*
X121598177Y-57133130D01*
X121617862Y-57066091D01*
X121670666Y-57020336D01*
X121722177Y-57009130D01*
X122592533Y-57009130D01*
X122592541Y-57009130D01*
X122592556Y-57009128D01*
X122592559Y-57009128D01*
X122617664Y-57006217D01*
X122617665Y-57006216D01*
X122617668Y-57006216D01*
X122720442Y-56960837D01*
X122799883Y-56881396D01*
X122845262Y-56778622D01*
X122848177Y-56753496D01*
X122848176Y-55663767D01*
X122847635Y-55659101D01*
X122845263Y-55638643D01*
X122845262Y-55638641D01*
X122845262Y-55638640D01*
X122799883Y-55535866D01*
X122740198Y-55476181D01*
X122706713Y-55414858D01*
X122711697Y-55345166D01*
X122753569Y-55289233D01*
X122819033Y-55264816D01*
X122827879Y-55264500D01*
X129849725Y-55264500D01*
X129849727Y-55264500D01*
X129951588Y-55237207D01*
X130042913Y-55184480D01*
X130615574Y-54611819D01*
X130642501Y-54597115D01*
X130668320Y-54580523D01*
X130674520Y-54579631D01*
X130676897Y-54578334D01*
X130703255Y-54575500D01*
X130738254Y-54575500D01*
X130805293Y-54595185D01*
X130825935Y-54611819D01*
X131994266Y-55780150D01*
X132074384Y-55826406D01*
X132163744Y-55850350D01*
X132163746Y-55850350D01*
X136016253Y-55850350D01*
X136016256Y-55850350D01*
X136105616Y-55826406D01*
X136185734Y-55780150D01*
X136306787Y-55659097D01*
X147175164Y-55659097D01*
X147175164Y-56748822D01*
X147175166Y-56748848D01*
X147178077Y-56773953D01*
X147178079Y-56773957D01*
X147223457Y-56876730D01*
X147223458Y-56876731D01*
X147302899Y-56956172D01*
X147405673Y-57001551D01*
X147430799Y-57004466D01*
X150520528Y-57004465D01*
X150520543Y-57004463D01*
X150520546Y-57004463D01*
X150545651Y-57001552D01*
X150545652Y-57001551D01*
X150545655Y-57001551D01*
X150648429Y-56956172D01*
X150727870Y-56876731D01*
X150773249Y-56773957D01*
X150776164Y-56748831D01*
X150776163Y-55659102D01*
X150776163Y-55659101D01*
X150776163Y-55659097D01*
X152215164Y-55659097D01*
X152215164Y-56748822D01*
X152215166Y-56748848D01*
X152218077Y-56773953D01*
X152218079Y-56773957D01*
X152263457Y-56876730D01*
X152263458Y-56876731D01*
X152342899Y-56956172D01*
X152445673Y-57001551D01*
X152470799Y-57004466D01*
X155560528Y-57004465D01*
X155560543Y-57004463D01*
X155560546Y-57004463D01*
X155585651Y-57001552D01*
X155585652Y-57001551D01*
X155585655Y-57001551D01*
X155688429Y-56956172D01*
X155767870Y-56876731D01*
X155813249Y-56773957D01*
X155816164Y-56748831D01*
X155816163Y-55659102D01*
X155816161Y-55659083D01*
X155813250Y-55633978D01*
X155813249Y-55633976D01*
X155813249Y-55633975D01*
X155767870Y-55531201D01*
X155688429Y-55451760D01*
X155604854Y-55414858D01*
X155585656Y-55406381D01*
X155560529Y-55403466D01*
X152470807Y-55403466D01*
X152470781Y-55403468D01*
X152445676Y-55406379D01*
X152445672Y-55406381D01*
X152342899Y-55451759D01*
X152263458Y-55531200D01*
X152218079Y-55633972D01*
X152218079Y-55633974D01*
X152215164Y-55659097D01*
X150776163Y-55659097D01*
X150776163Y-55659096D01*
X150773250Y-55633978D01*
X150773249Y-55633976D01*
X150773249Y-55633975D01*
X150727870Y-55531201D01*
X150648429Y-55451760D01*
X150564854Y-55414858D01*
X150545656Y-55406381D01*
X150520529Y-55403466D01*
X147430807Y-55403466D01*
X147430781Y-55403468D01*
X147405676Y-55406379D01*
X147405672Y-55406381D01*
X147302899Y-55451759D01*
X147223458Y-55531200D01*
X147178079Y-55633972D01*
X147178079Y-55633974D01*
X147175164Y-55659097D01*
X136306787Y-55659097D01*
X138852065Y-53113819D01*
X138913388Y-53080334D01*
X138939746Y-53077500D01*
X139710097Y-53077500D01*
X139710102Y-53077500D01*
X139798564Y-53066877D01*
X139939342Y-53011361D01*
X140059922Y-52919922D01*
X140147290Y-52804710D01*
X140203481Y-52763188D01*
X140273202Y-52758636D01*
X140334317Y-52792500D01*
X140344897Y-52804711D01*
X140381077Y-52852422D01*
X140501656Y-52943860D01*
X140501657Y-52943860D01*
X140501658Y-52943861D01*
X140642436Y-52999377D01*
X140730898Y-53010000D01*
X140730903Y-53010000D01*
X141717097Y-53010000D01*
X141717102Y-53010000D01*
X141805564Y-52999377D01*
X141946342Y-52943861D01*
X142066922Y-52852422D01*
X142141196Y-52754476D01*
X142197388Y-52712954D01*
X142267109Y-52708402D01*
X142328224Y-52742267D01*
X142338804Y-52754477D01*
X142413077Y-52852422D01*
X142533656Y-52943860D01*
X142533657Y-52943860D01*
X142533658Y-52943861D01*
X142674436Y-52999377D01*
X142762898Y-53010000D01*
X142762903Y-53010000D01*
X143749097Y-53010000D01*
X143749102Y-53010000D01*
X143837564Y-52999377D01*
X143978342Y-52943861D01*
X144098922Y-52852422D01*
X144190361Y-52731842D01*
X144245877Y-52591064D01*
X144256500Y-52502602D01*
X144256500Y-51909000D01*
X144276185Y-51841961D01*
X144328989Y-51796206D01*
X144380500Y-51785000D01*
X146548452Y-51785000D01*
X146615491Y-51804685D01*
X146636133Y-51821319D01*
X147471246Y-52656432D01*
X147504731Y-52717755D01*
X147499747Y-52787447D01*
X147457875Y-52843380D01*
X147413858Y-52860922D01*
X147414677Y-52863931D01*
X147405672Y-52866381D01*
X147302899Y-52911759D01*
X147223458Y-52991200D01*
X147178079Y-53093972D01*
X147178079Y-53093974D01*
X147175164Y-53119097D01*
X147175164Y-54208822D01*
X147175166Y-54208848D01*
X147178077Y-54233953D01*
X147178079Y-54233957D01*
X147223457Y-54336730D01*
X147223458Y-54336731D01*
X147302899Y-54416172D01*
X147405673Y-54461551D01*
X147430799Y-54464466D01*
X150520528Y-54464465D01*
X150520543Y-54464463D01*
X150520546Y-54464463D01*
X150545651Y-54461552D01*
X150545652Y-54461551D01*
X150545655Y-54461551D01*
X150648429Y-54416172D01*
X150727870Y-54336731D01*
X150773249Y-54233957D01*
X150776164Y-54208831D01*
X150776163Y-53119102D01*
X150776161Y-53119083D01*
X150773250Y-53093978D01*
X150773249Y-53093976D01*
X150773249Y-53093975D01*
X150727870Y-52991201D01*
X150648429Y-52911760D01*
X150642781Y-52909266D01*
X150545656Y-52866381D01*
X150520532Y-52863466D01*
X150520529Y-52863466D01*
X148723410Y-52863466D01*
X148656371Y-52843781D01*
X148635729Y-52827147D01*
X147944728Y-52136146D01*
X147911243Y-52074823D01*
X147916227Y-52005131D01*
X147958099Y-51949198D01*
X148023563Y-51924781D01*
X148032409Y-51924465D01*
X150520520Y-51924465D01*
X150520528Y-51924465D01*
X150520543Y-51924463D01*
X150520546Y-51924463D01*
X150545651Y-51921552D01*
X150545652Y-51921551D01*
X150545655Y-51921551D01*
X150648429Y-51876172D01*
X150727870Y-51796731D01*
X150773249Y-51693957D01*
X150776164Y-51668831D01*
X150776163Y-51220709D01*
X150795847Y-51153672D01*
X150848651Y-51107917D01*
X150917810Y-51097973D01*
X150981366Y-51126998D01*
X150987844Y-51133030D01*
X152511246Y-52656432D01*
X152544731Y-52717755D01*
X152539747Y-52787447D01*
X152497875Y-52843380D01*
X152453858Y-52860922D01*
X152454677Y-52863931D01*
X152445672Y-52866381D01*
X152342899Y-52911759D01*
X152263458Y-52991200D01*
X152218079Y-53093972D01*
X152218079Y-53093974D01*
X152215164Y-53119097D01*
X152215164Y-54208822D01*
X152215166Y-54208848D01*
X152218077Y-54233953D01*
X152218079Y-54233957D01*
X152263457Y-54336730D01*
X152263458Y-54336731D01*
X152342899Y-54416172D01*
X152445673Y-54461551D01*
X152470799Y-54464466D01*
X155560528Y-54464465D01*
X155560543Y-54464463D01*
X155560546Y-54464463D01*
X155585651Y-54461552D01*
X155585652Y-54461551D01*
X155585655Y-54461551D01*
X155688429Y-54416172D01*
X155767870Y-54336731D01*
X155813249Y-54233957D01*
X155816164Y-54208831D01*
X155816163Y-53119102D01*
X155816161Y-53119083D01*
X155813250Y-53093978D01*
X155813249Y-53093976D01*
X155813249Y-53093975D01*
X155767870Y-52991201D01*
X155688429Y-52911760D01*
X155682781Y-52909266D01*
X155585656Y-52866381D01*
X155560532Y-52863466D01*
X155560529Y-52863466D01*
X153763410Y-52863466D01*
X153696371Y-52843781D01*
X153675729Y-52827147D01*
X152984728Y-52136146D01*
X152951243Y-52074823D01*
X152956227Y-52005131D01*
X152998099Y-51949198D01*
X153063563Y-51924781D01*
X153072409Y-51924465D01*
X155560520Y-51924465D01*
X155560528Y-51924465D01*
X155560543Y-51924463D01*
X155560546Y-51924463D01*
X155585651Y-51921552D01*
X155585652Y-51921551D01*
X155585655Y-51921551D01*
X155688429Y-51876172D01*
X155767870Y-51796731D01*
X155813249Y-51693957D01*
X155816164Y-51668831D01*
X155816163Y-50579102D01*
X155816161Y-50579083D01*
X155813250Y-50553978D01*
X155813249Y-50553976D01*
X155813249Y-50553975D01*
X155767870Y-50451201D01*
X155688429Y-50371760D01*
X155617752Y-50340553D01*
X155585656Y-50326381D01*
X155560532Y-50323466D01*
X155560529Y-50323466D01*
X154340450Y-50323466D01*
X154273411Y-50303781D01*
X154227656Y-50250977D01*
X154217712Y-50181819D01*
X154246737Y-50118263D01*
X154278451Y-50092078D01*
X154282781Y-50089577D01*
X154282784Y-50089577D01*
X154419716Y-50010520D01*
X154531520Y-49898716D01*
X154610577Y-49761784D01*
X154651500Y-49609057D01*
X154651500Y-49508465D01*
X154671185Y-49441426D01*
X154723989Y-49395671D01*
X154775500Y-49384465D01*
X155560520Y-49384465D01*
X155560528Y-49384465D01*
X155560543Y-49384463D01*
X155560546Y-49384463D01*
X155585651Y-49381552D01*
X155585652Y-49381551D01*
X155585655Y-49381551D01*
X155688429Y-49336172D01*
X155767870Y-49256731D01*
X155813249Y-49153957D01*
X155816164Y-49128831D01*
X155816163Y-48039102D01*
X155816161Y-48039083D01*
X155813250Y-48013978D01*
X155813249Y-48013976D01*
X155813249Y-48013975D01*
X155767870Y-47911201D01*
X155688429Y-47831760D01*
X155640001Y-47810377D01*
X155585656Y-47786381D01*
X155560529Y-47783466D01*
X152470807Y-47783466D01*
X152470781Y-47783468D01*
X152445676Y-47786379D01*
X152445672Y-47786381D01*
X152342899Y-47831759D01*
X152263458Y-47911200D01*
X152218079Y-48013972D01*
X152218079Y-48013974D01*
X152215164Y-48039097D01*
X152215164Y-48527220D01*
X152195479Y-48594259D01*
X152142675Y-48640014D01*
X152073517Y-48649958D01*
X152009961Y-48620933D01*
X152003483Y-48614901D01*
X150444238Y-47055656D01*
X150410753Y-46994333D01*
X150415737Y-46924641D01*
X150457609Y-46868708D01*
X150517635Y-46844800D01*
X150520523Y-46844465D01*
X150520528Y-46844465D01*
X150545655Y-46841551D01*
X150648429Y-46796172D01*
X150727870Y-46716731D01*
X150773249Y-46613957D01*
X150776164Y-46588831D01*
X150776163Y-45499102D01*
X150776163Y-45499101D01*
X150776163Y-45499097D01*
X152215164Y-45499097D01*
X152215164Y-46588822D01*
X152215166Y-46588848D01*
X152218077Y-46613953D01*
X152218079Y-46613957D01*
X152263457Y-46716730D01*
X152263458Y-46716731D01*
X152342899Y-46796172D01*
X152445673Y-46841551D01*
X152470799Y-46844466D01*
X155560528Y-46844465D01*
X155560543Y-46844463D01*
X155560546Y-46844463D01*
X155585651Y-46841552D01*
X155585652Y-46841551D01*
X155585655Y-46841551D01*
X155688429Y-46796172D01*
X155767870Y-46716731D01*
X155813249Y-46613957D01*
X155816164Y-46588831D01*
X155816163Y-45499102D01*
X155816161Y-45499083D01*
X155813250Y-45473978D01*
X155813249Y-45473976D01*
X155813249Y-45473975D01*
X155767870Y-45371201D01*
X155688429Y-45291760D01*
X155688427Y-45291759D01*
X155585656Y-45246381D01*
X155560529Y-45243466D01*
X152470807Y-45243466D01*
X152470781Y-45243468D01*
X152445676Y-45246379D01*
X152445672Y-45246381D01*
X152342899Y-45291759D01*
X152263458Y-45371200D01*
X152218079Y-45473972D01*
X152218079Y-45473974D01*
X152215164Y-45499097D01*
X150776163Y-45499097D01*
X150776163Y-45499096D01*
X150773250Y-45473978D01*
X150773249Y-45473976D01*
X150773249Y-45473975D01*
X150727870Y-45371201D01*
X150648429Y-45291760D01*
X150648427Y-45291759D01*
X150545656Y-45246381D01*
X150520529Y-45243466D01*
X147430807Y-45243466D01*
X147430781Y-45243468D01*
X147405676Y-45246379D01*
X147405672Y-45246381D01*
X147302899Y-45291759D01*
X147223458Y-45371200D01*
X147178079Y-45473972D01*
X147178079Y-45473974D01*
X147175164Y-45499097D01*
X147175164Y-46588822D01*
X147175166Y-46588848D01*
X147178077Y-46613953D01*
X147178079Y-46613957D01*
X147223457Y-46716730D01*
X147229952Y-46726211D01*
X147227618Y-46727809D01*
X147252781Y-46773892D01*
X147247797Y-46843584D01*
X147205925Y-46899517D01*
X147140461Y-46923934D01*
X147131615Y-46924250D01*
X131417995Y-46924250D01*
X131350956Y-46904565D01*
X131305201Y-46851761D01*
X131295257Y-46782603D01*
X131324282Y-46719047D01*
X131330314Y-46712569D01*
X135083787Y-42959097D01*
X147175164Y-42959097D01*
X147175164Y-44048822D01*
X147175166Y-44048848D01*
X147178077Y-44073953D01*
X147178079Y-44073957D01*
X147223457Y-44176730D01*
X147223458Y-44176731D01*
X147302899Y-44256172D01*
X147405673Y-44301551D01*
X147430799Y-44304466D01*
X150520528Y-44304465D01*
X150520543Y-44304463D01*
X150520546Y-44304463D01*
X150545651Y-44301552D01*
X150545652Y-44301551D01*
X150545655Y-44301551D01*
X150648429Y-44256172D01*
X150727870Y-44176731D01*
X150773249Y-44073957D01*
X150776164Y-44048831D01*
X150776163Y-42959102D01*
X150774611Y-42945719D01*
X150773250Y-42933978D01*
X150773249Y-42933976D01*
X150773249Y-42933975D01*
X150727870Y-42831201D01*
X150648429Y-42751760D01*
X150648427Y-42751759D01*
X150545656Y-42706381D01*
X150520529Y-42703466D01*
X147430807Y-42703466D01*
X147430781Y-42703468D01*
X147405676Y-42706379D01*
X147405672Y-42706381D01*
X147302899Y-42751759D01*
X147223458Y-42831200D01*
X147178079Y-42933972D01*
X147178079Y-42933974D01*
X147175164Y-42959097D01*
X135083787Y-42959097D01*
X135175045Y-42867839D01*
X136691249Y-41351635D01*
X136752572Y-41318150D01*
X136778930Y-41315316D01*
X147051165Y-41315316D01*
X147118204Y-41335001D01*
X147163959Y-41387805D01*
X147175165Y-41439316D01*
X147175165Y-41508822D01*
X147175166Y-41508848D01*
X147178077Y-41533953D01*
X147178079Y-41533957D01*
X147223457Y-41636730D01*
X147223458Y-41636731D01*
X147302899Y-41716172D01*
X147405673Y-41761551D01*
X147430799Y-41764466D01*
X150520528Y-41764465D01*
X150520543Y-41764463D01*
X150520546Y-41764463D01*
X150545651Y-41761552D01*
X150545652Y-41761551D01*
X150545655Y-41761551D01*
X150648429Y-41716172D01*
X150727870Y-41636731D01*
X150773249Y-41533957D01*
X150776164Y-41508831D01*
X150776163Y-41060709D01*
X150795847Y-40993672D01*
X150848651Y-40947917D01*
X150917810Y-40937973D01*
X150981366Y-40966998D01*
X150987844Y-40973030D01*
X152511246Y-42496432D01*
X152544731Y-42557755D01*
X152539747Y-42627447D01*
X152497875Y-42683380D01*
X152453858Y-42700922D01*
X152454677Y-42703931D01*
X152445672Y-42706381D01*
X152342899Y-42751759D01*
X152263458Y-42831200D01*
X152218079Y-42933972D01*
X152218079Y-42933974D01*
X152215164Y-42959097D01*
X152215164Y-44048822D01*
X152215166Y-44048848D01*
X152218077Y-44073953D01*
X152218079Y-44073957D01*
X152263457Y-44176730D01*
X152263458Y-44176731D01*
X152342899Y-44256172D01*
X152445673Y-44301551D01*
X152470799Y-44304466D01*
X155560528Y-44304465D01*
X155560543Y-44304463D01*
X155560546Y-44304463D01*
X155585651Y-44301552D01*
X155585652Y-44301551D01*
X155585655Y-44301551D01*
X155688429Y-44256172D01*
X155767870Y-44176731D01*
X155813249Y-44073957D01*
X155816164Y-44048831D01*
X155816163Y-42959102D01*
X155814611Y-42945719D01*
X155813250Y-42933978D01*
X155813249Y-42933976D01*
X155813249Y-42933975D01*
X155767870Y-42831201D01*
X155688429Y-42751760D01*
X155688427Y-42751759D01*
X155585656Y-42706381D01*
X155560532Y-42703466D01*
X155560529Y-42703466D01*
X153763410Y-42703466D01*
X153696371Y-42683781D01*
X153675729Y-42667147D01*
X152984728Y-41976146D01*
X152951243Y-41914823D01*
X152956227Y-41845131D01*
X152998099Y-41789198D01*
X153063563Y-41764781D01*
X153072409Y-41764465D01*
X155560520Y-41764465D01*
X155560528Y-41764465D01*
X155560543Y-41764463D01*
X155560546Y-41764463D01*
X155585651Y-41761552D01*
X155585652Y-41761551D01*
X155585655Y-41761551D01*
X155688429Y-41716172D01*
X155767870Y-41636731D01*
X155813249Y-41533957D01*
X155816164Y-41508831D01*
X155816163Y-40419102D01*
X155816161Y-40419083D01*
X155813250Y-40393978D01*
X155813249Y-40393976D01*
X155813249Y-40393975D01*
X155767870Y-40291201D01*
X155688429Y-40211760D01*
X155688427Y-40211759D01*
X155585656Y-40166381D01*
X155560529Y-40163466D01*
X152470807Y-40163466D01*
X152470781Y-40163468D01*
X152445676Y-40166379D01*
X152445672Y-40166381D01*
X152342899Y-40211759D01*
X152263458Y-40291200D01*
X152218079Y-40393972D01*
X152218079Y-40393974D01*
X152215164Y-40419097D01*
X152215164Y-40907220D01*
X152195479Y-40974259D01*
X152142675Y-41020014D01*
X152073517Y-41029958D01*
X152009961Y-41000933D01*
X152003483Y-40994901D01*
X150859433Y-39850851D01*
X150859432Y-39850850D01*
X150815935Y-39825737D01*
X150767720Y-39775171D01*
X150754496Y-39706564D01*
X150780464Y-39641699D01*
X150837378Y-39601170D01*
X150877935Y-39594350D01*
X155914752Y-39594350D01*
X155981791Y-39614035D01*
X156002433Y-39630669D01*
X156095284Y-39723520D01*
X156095286Y-39723521D01*
X156095290Y-39723524D01*
X156184747Y-39775171D01*
X156232216Y-39802577D01*
X156384943Y-39843500D01*
X156384945Y-39843500D01*
X156543055Y-39843500D01*
X156543057Y-39843500D01*
X156695784Y-39802577D01*
X156832716Y-39723520D01*
X156944520Y-39611716D01*
X157023577Y-39474784D01*
X157064500Y-39322057D01*
X157064500Y-39163943D01*
X157023577Y-39011216D01*
X157016304Y-38998618D01*
X156944524Y-38874290D01*
X156944518Y-38874282D01*
X156832717Y-38762481D01*
X156832709Y-38762475D01*
X156695790Y-38683426D01*
X156695786Y-38683424D01*
X156695784Y-38683423D01*
X156543057Y-38642500D01*
X156384943Y-38642500D01*
X156232216Y-38683423D01*
X156232209Y-38683426D01*
X156095290Y-38762475D01*
X156095286Y-38762478D01*
X156027844Y-38829920D01*
X155966520Y-38863404D01*
X155896829Y-38858419D01*
X155840895Y-38816548D01*
X155816479Y-38751083D01*
X155816163Y-38742261D01*
X155816163Y-37879102D01*
X155816161Y-37879083D01*
X155813250Y-37853978D01*
X155813249Y-37853976D01*
X155813249Y-37853975D01*
X155767870Y-37751201D01*
X155688429Y-37671760D01*
X155629171Y-37645595D01*
X155585656Y-37626381D01*
X155560532Y-37623466D01*
X155560529Y-37623466D01*
X153763410Y-37623466D01*
X153696371Y-37603781D01*
X153675729Y-37587147D01*
X153480549Y-37391967D01*
X153480544Y-37391963D01*
X153400432Y-37345711D01*
X153400431Y-37345710D01*
X153400430Y-37345710D01*
X153311070Y-37321766D01*
X147271070Y-37321766D01*
X147178558Y-37321766D01*
X147089198Y-37345710D01*
X147089196Y-37345711D01*
X147089195Y-37345711D01*
X147009083Y-37391963D01*
X147009078Y-37391967D01*
X146598579Y-37802466D01*
X146537256Y-37835951D01*
X146467564Y-37830967D01*
X146411631Y-37789095D01*
X146391124Y-37746880D01*
X146355577Y-37614216D01*
X146324074Y-37559650D01*
X146276524Y-37477290D01*
X146276518Y-37477282D01*
X146164717Y-37365481D01*
X146164709Y-37365475D01*
X146027790Y-37286426D01*
X146027786Y-37286424D01*
X146027784Y-37286423D01*
X145875057Y-37245500D01*
X145716943Y-37245500D01*
X145564216Y-37286423D01*
X145564209Y-37286426D01*
X145427290Y-37365475D01*
X145427282Y-37365481D01*
X145315481Y-37477282D01*
X145315477Y-37477287D01*
X145267926Y-37559650D01*
X145217359Y-37607865D01*
X145160539Y-37621650D01*
X135555256Y-37621650D01*
X135462744Y-37621650D01*
X135373384Y-37645594D01*
X135373382Y-37645595D01*
X135373381Y-37645595D01*
X135293269Y-37691847D01*
X135293264Y-37691851D01*
X132404154Y-40580962D01*
X132342831Y-40614447D01*
X132316473Y-40617281D01*
X128012176Y-40617281D01*
X127945137Y-40597596D01*
X127899382Y-40544792D01*
X127888176Y-40493281D01*
X127888176Y-40423774D01*
X127888176Y-40423768D01*
X127888176Y-40423767D01*
X127887635Y-40419101D01*
X127885263Y-40398643D01*
X127885262Y-40398641D01*
X127885262Y-40398640D01*
X127839883Y-40295866D01*
X127760442Y-40216425D01*
X127749877Y-40211760D01*
X127657669Y-40171046D01*
X127632545Y-40168131D01*
X127632542Y-40168131D01*
X125144422Y-40168131D01*
X125077383Y-40148446D01*
X125031628Y-40095642D01*
X125021684Y-40026484D01*
X125050709Y-39962928D01*
X125056741Y-39956450D01*
X125747742Y-39265449D01*
X125809065Y-39231964D01*
X125835423Y-39229130D01*
X127632533Y-39229130D01*
X127632541Y-39229130D01*
X127632556Y-39229128D01*
X127632559Y-39229128D01*
X127657664Y-39226217D01*
X127657665Y-39226216D01*
X127657668Y-39226216D01*
X127760442Y-39180837D01*
X127839883Y-39101396D01*
X127885262Y-38998622D01*
X127888177Y-38973496D01*
X127888176Y-37883767D01*
X127887633Y-37879083D01*
X127885263Y-37858643D01*
X127885262Y-37858641D01*
X127885262Y-37858640D01*
X127839883Y-37755866D01*
X127760442Y-37676425D01*
X127749877Y-37671760D01*
X127657669Y-37631046D01*
X127632542Y-37628131D01*
X124542820Y-37628131D01*
X124542794Y-37628133D01*
X124517689Y-37631044D01*
X124517685Y-37631046D01*
X124414912Y-37676424D01*
X124335471Y-37755865D01*
X124290092Y-37858637D01*
X124290092Y-37858639D01*
X124287177Y-37883762D01*
X124287177Y-38973487D01*
X124287179Y-38973513D01*
X124290090Y-38998618D01*
X124290092Y-38998622D01*
X124335470Y-39101395D01*
X124335471Y-39101396D01*
X124414912Y-39180837D01*
X124479903Y-39209533D01*
X124517683Y-39226215D01*
X124517684Y-39226215D01*
X124517686Y-39226216D01*
X124517687Y-39226216D01*
X124526684Y-39228664D01*
X124525760Y-39232059D01*
X124574135Y-39252541D01*
X124613534Y-39310242D01*
X124615483Y-39380085D01*
X124583259Y-39436163D01*
X123059857Y-40959566D01*
X122998534Y-40993051D01*
X122928842Y-40988067D01*
X122872909Y-40946195D01*
X122848492Y-40880731D01*
X122848176Y-40871885D01*
X122848176Y-40423774D01*
X122848176Y-40423768D01*
X122848176Y-40423767D01*
X122847635Y-40419101D01*
X122845263Y-40398643D01*
X122845262Y-40398641D01*
X122845262Y-40398640D01*
X122799883Y-40295866D01*
X122720442Y-40216425D01*
X122709877Y-40211760D01*
X122617667Y-40171045D01*
X122612929Y-40169756D01*
X122553411Y-40133158D01*
X122523128Y-40070192D01*
X122531693Y-40000850D01*
X122557804Y-39962431D01*
X122654520Y-39865716D01*
X122733577Y-39728784D01*
X122774500Y-39576057D01*
X122774500Y-39417943D01*
X122733577Y-39265216D01*
X122733575Y-39265212D01*
X122731498Y-39257461D01*
X122733161Y-39187611D01*
X122763591Y-39137687D01*
X122799883Y-39101396D01*
X122845262Y-38998622D01*
X122848177Y-38973496D01*
X122848176Y-37883767D01*
X122847633Y-37879083D01*
X122845263Y-37858643D01*
X122845262Y-37858641D01*
X122845262Y-37858640D01*
X122799883Y-37755866D01*
X122720442Y-37676425D01*
X122709877Y-37671760D01*
X122617669Y-37631046D01*
X122592542Y-37628131D01*
X119502820Y-37628131D01*
X119502794Y-37628133D01*
X119477689Y-37631044D01*
X119477685Y-37631046D01*
X119374912Y-37676424D01*
X119295471Y-37755865D01*
X119250092Y-37858637D01*
X119250092Y-37858639D01*
X119247177Y-37883762D01*
X119247177Y-38973487D01*
X119247179Y-38973513D01*
X119250090Y-38998618D01*
X119250092Y-38998622D01*
X119295470Y-39101395D01*
X119295471Y-39101396D01*
X119374912Y-39180837D01*
X119477686Y-39226216D01*
X119502812Y-39229131D01*
X121357884Y-39229130D01*
X121387324Y-39237774D01*
X121417311Y-39244298D01*
X121422326Y-39248052D01*
X121424923Y-39248815D01*
X121445565Y-39265449D01*
X121537181Y-39357065D01*
X121570666Y-39418388D01*
X121573500Y-39444746D01*
X121573500Y-39576056D01*
X121614423Y-39728783D01*
X121614426Y-39728790D01*
X121693475Y-39865709D01*
X121693481Y-39865717D01*
X121784214Y-39956450D01*
X121817699Y-40017773D01*
X121812715Y-40087465D01*
X121770843Y-40143398D01*
X121705379Y-40167815D01*
X121696533Y-40168131D01*
X119502820Y-40168131D01*
X119502794Y-40168133D01*
X119477689Y-40171044D01*
X119477685Y-40171046D01*
X119374912Y-40216424D01*
X119295471Y-40295865D01*
X119250092Y-40398637D01*
X119250092Y-40398639D01*
X119247719Y-40419097D01*
X119247177Y-40423766D01*
X119247177Y-40880731D01*
X119247178Y-41244131D01*
X119227494Y-41311170D01*
X119174690Y-41356925D01*
X119123178Y-41368131D01*
X118346775Y-41368131D01*
X118254263Y-41368131D01*
X118164903Y-41392075D01*
X118164901Y-41392076D01*
X118164900Y-41392076D01*
X118084788Y-41438328D01*
X118084783Y-41438332D01*
X117320851Y-42202264D01*
X117320847Y-42202269D01*
X117274595Y-42282381D01*
X117274595Y-42282382D01*
X117274594Y-42282384D01*
X117250650Y-42371744D01*
X117250650Y-42371746D01*
X117250650Y-44298771D01*
X117230965Y-44365810D01*
X117214331Y-44386452D01*
X117205631Y-44395151D01*
X117205625Y-44395159D01*
X117126576Y-44532078D01*
X117126573Y-44532085D01*
X117085650Y-44684812D01*
X117085650Y-44842926D01*
X117123848Y-44985481D01*
X117126573Y-44995652D01*
X117126576Y-44995659D01*
X117205625Y-45132578D01*
X117205629Y-45132583D01*
X117205630Y-45132585D01*
X117317434Y-45244389D01*
X117317435Y-45244390D01*
X117317437Y-45244391D01*
X117422305Y-45304936D01*
X117470520Y-45355502D01*
X117483744Y-45424109D01*
X117457776Y-45488974D01*
X117435803Y-45510690D01*
X117434818Y-45511445D01*
X117323012Y-45623251D01*
X117323006Y-45623259D01*
X117243957Y-45760178D01*
X117243954Y-45760185D01*
X117203031Y-45912912D01*
X117203031Y-46071025D01*
X117233760Y-46185707D01*
X117232097Y-46255556D01*
X117192935Y-46313419D01*
X117128706Y-46340923D01*
X117113985Y-46341800D01*
X116658086Y-46341800D01*
X116565574Y-46341800D01*
X116476214Y-46365744D01*
X116476212Y-46365745D01*
X116476211Y-46365745D01*
X116396099Y-46411997D01*
X116396094Y-46412001D01*
X115373001Y-47435094D01*
X115372997Y-47435099D01*
X115326745Y-47515211D01*
X115326745Y-47515212D01*
X115326744Y-47515214D01*
X115302800Y-47604574D01*
X115302800Y-53123894D01*
X115302800Y-53216406D01*
X115326744Y-53305766D01*
X115326745Y-53305767D01*
X115326745Y-53305768D01*
X115372997Y-53385880D01*
X115373001Y-53385885D01*
X116330181Y-54343065D01*
X116363666Y-54404388D01*
X116366500Y-54430746D01*
X116366500Y-54562057D01*
X116389526Y-54647989D01*
X116407423Y-54714783D01*
X116407426Y-54714790D01*
X116486475Y-54851709D01*
X116486479Y-54851714D01*
X116486480Y-54851716D01*
X116598284Y-54963520D01*
X116598286Y-54963521D01*
X116598290Y-54963524D01*
X116735209Y-55042573D01*
X116735216Y-55042577D01*
X116887943Y-55083500D01*
X116887945Y-55083500D01*
X117046055Y-55083500D01*
X117046057Y-55083500D01*
X117198784Y-55042577D01*
X117335716Y-54963520D01*
X117447520Y-54851716D01*
X117526577Y-54714784D01*
X117567500Y-54562057D01*
X117567500Y-54403943D01*
X117526577Y-54251216D01*
X117516610Y-54233953D01*
X117447524Y-54114290D01*
X117447518Y-54114282D01*
X117335717Y-54002481D01*
X117335709Y-54002475D01*
X117198790Y-53923426D01*
X117198786Y-53923424D01*
X117198784Y-53923423D01*
X117046057Y-53882500D01*
X116914746Y-53882500D01*
X116847707Y-53862815D01*
X116827065Y-53846181D01*
X116041819Y-53060935D01*
X116008334Y-52999612D01*
X116005500Y-52973254D01*
X116005500Y-49281928D01*
X116025185Y-49214889D01*
X116077989Y-49169134D01*
X116147147Y-49159190D01*
X116210703Y-49188215D01*
X116248477Y-49246993D01*
X116249262Y-49249791D01*
X116257874Y-49281928D01*
X116258594Y-49284615D01*
X116258595Y-49284618D01*
X116304847Y-49364730D01*
X116304849Y-49364733D01*
X116304850Y-49364734D01*
X117005266Y-50065150D01*
X117005267Y-50065151D01*
X117005269Y-50065152D01*
X117007436Y-50066403D01*
X117085384Y-50111406D01*
X117174744Y-50135350D01*
X117267256Y-50135350D01*
X119333072Y-50135350D01*
X119400111Y-50155035D01*
X119445866Y-50207839D01*
X119455810Y-50276997D01*
X119426785Y-50340553D01*
X119383158Y-50372784D01*
X119374912Y-50376424D01*
X119295471Y-50455865D01*
X119250092Y-50558637D01*
X119250092Y-50558639D01*
X119247177Y-50583762D01*
X119247177Y-51673487D01*
X119247179Y-51673513D01*
X119250090Y-51698618D01*
X119250092Y-51698622D01*
X119295470Y-51801395D01*
X119295471Y-51801396D01*
X119374912Y-51880837D01*
X119477686Y-51926216D01*
X119502812Y-51929131D01*
X122592541Y-51929130D01*
X122592556Y-51929128D01*
X122592559Y-51929128D01*
X122617664Y-51926217D01*
X122617665Y-51926216D01*
X122617668Y-51926216D01*
X122720442Y-51880837D01*
X122799883Y-51801396D01*
X122845262Y-51698622D01*
X122848177Y-51673496D01*
X122848176Y-50640349D01*
X122867860Y-50573311D01*
X122920664Y-50527556D01*
X122972176Y-50516350D01*
X124163177Y-50516350D01*
X124230216Y-50536035D01*
X124275971Y-50588839D01*
X124287177Y-50640350D01*
X124287177Y-51673487D01*
X124287179Y-51673513D01*
X124290090Y-51698618D01*
X124290092Y-51698622D01*
X124335470Y-51801395D01*
X124335471Y-51801396D01*
X124414912Y-51880837D01*
X124517686Y-51926216D01*
X124542812Y-51929131D01*
X127632541Y-51929130D01*
X127632556Y-51929128D01*
X127632559Y-51929128D01*
X127657664Y-51926217D01*
X127657665Y-51926216D01*
X127657668Y-51926216D01*
X127760442Y-51880837D01*
X127839883Y-51801396D01*
X127855595Y-51765809D01*
X127900680Y-51712435D01*
X127967466Y-51691907D01*
X128034748Y-51710745D01*
X128081165Y-51762968D01*
X128091980Y-51831995D01*
X128088804Y-51847990D01*
X128050500Y-51990943D01*
X128050500Y-52149056D01*
X128091423Y-52301783D01*
X128091426Y-52301790D01*
X128170475Y-52438709D01*
X128170479Y-52438714D01*
X128170480Y-52438716D01*
X128282284Y-52550520D01*
X128282286Y-52550521D01*
X128282290Y-52550524D01*
X128417091Y-52628350D01*
X128419216Y-52629577D01*
X128571943Y-52670500D01*
X128571945Y-52670500D01*
X128730055Y-52670500D01*
X128730057Y-52670500D01*
X128882784Y-52629577D01*
X129019716Y-52550520D01*
X129112567Y-52457669D01*
X129139494Y-52442965D01*
X129165313Y-52426373D01*
X129171513Y-52425481D01*
X129173890Y-52424184D01*
X129200248Y-52421350D01*
X129286500Y-52421350D01*
X129353539Y-52441035D01*
X129399294Y-52493839D01*
X129410500Y-52545350D01*
X129410500Y-52909269D01*
X129413353Y-52939699D01*
X129413353Y-52939701D01*
X129455776Y-53060935D01*
X129458207Y-53067882D01*
X129538850Y-53177150D01*
X129624321Y-53240230D01*
X129666571Y-53295877D01*
X129672030Y-53365534D01*
X129638962Y-53427083D01*
X129624321Y-53439769D01*
X129538850Y-53502850D01*
X129458207Y-53612117D01*
X129458206Y-53612119D01*
X129413353Y-53740298D01*
X129413353Y-53740300D01*
X129410500Y-53770730D01*
X129410500Y-54179269D01*
X129413353Y-54209699D01*
X129413354Y-54209701D01*
X129444442Y-54298545D01*
X129448004Y-54368324D01*
X129413276Y-54428951D01*
X129351282Y-54461179D01*
X129327401Y-54463500D01*
X122936270Y-54463500D01*
X122869231Y-54443815D01*
X122823476Y-54391011D01*
X122813532Y-54321853D01*
X122822835Y-54289414D01*
X122845262Y-54238622D01*
X122848177Y-54213496D01*
X122848176Y-53123767D01*
X122847635Y-53119101D01*
X122845263Y-53098643D01*
X122845262Y-53098641D01*
X122845262Y-53098640D01*
X122799883Y-52995866D01*
X122720442Y-52916425D01*
X122709877Y-52911760D01*
X122617669Y-52871046D01*
X122592542Y-52868131D01*
X119502820Y-52868131D01*
X119502794Y-52868133D01*
X119477689Y-52871044D01*
X119477685Y-52871046D01*
X119374912Y-52916424D01*
X119295471Y-52995865D01*
X119250092Y-53098637D01*
X119250092Y-53098639D01*
X119247177Y-53123762D01*
X119247177Y-54213487D01*
X119247179Y-54213513D01*
X119250090Y-54238618D01*
X119250092Y-54238622D01*
X119295470Y-54341395D01*
X119295471Y-54341396D01*
X119374912Y-54420837D01*
X119477686Y-54466216D01*
X119502812Y-54469131D01*
X120373177Y-54469130D01*
X120440216Y-54488814D01*
X120485971Y-54541618D01*
X120497177Y-54593130D01*
X120497177Y-55284131D01*
X120477492Y-55351170D01*
X120424688Y-55396925D01*
X120373177Y-55408131D01*
X119502820Y-55408131D01*
X119502794Y-55408133D01*
X119477689Y-55411044D01*
X119477685Y-55411046D01*
X119374912Y-55456424D01*
X119295471Y-55535865D01*
X119250092Y-55638637D01*
X119250092Y-55638639D01*
X119247177Y-55663762D01*
X119247177Y-56753487D01*
X119247179Y-56753513D01*
X119250090Y-56778618D01*
X119250092Y-56778622D01*
X119295470Y-56881395D01*
X119295471Y-56881396D01*
X119374912Y-56960837D01*
X119477686Y-57006216D01*
X119502812Y-57009131D01*
X120373177Y-57009130D01*
X120440216Y-57028814D01*
X120485971Y-57081618D01*
X120497177Y-57133130D01*
X120497177Y-57824131D01*
X120477492Y-57891170D01*
X120424688Y-57936925D01*
X120373177Y-57948131D01*
X119502820Y-57948131D01*
X119502794Y-57948133D01*
X119477689Y-57951044D01*
X119477685Y-57951046D01*
X119374912Y-57996424D01*
X119295472Y-58075864D01*
X119295471Y-58075865D01*
X119295471Y-58075866D01*
X119274120Y-58124219D01*
X119229037Y-58177593D01*
X119162251Y-58198121D01*
X119160688Y-58198131D01*
X112268000Y-58198131D01*
X112268000Y-55245000D01*
X112105830Y-55245000D01*
X112105830Y-31647362D01*
X112110165Y-31614860D01*
X112113172Y-31603788D01*
X112114907Y-31600784D01*
X112155830Y-31448057D01*
X112155830Y-31446733D01*
X112158351Y-31437452D01*
X112172437Y-31414519D01*
X112183315Y-31389906D01*
X112190447Y-31385197D01*
X112194920Y-31377916D01*
X112219164Y-31366240D01*
X112241625Y-31351414D01*
X112250170Y-31351309D01*
X112257871Y-31347601D01*
X112284584Y-31350887D01*
X112311490Y-31350558D01*
X112319368Y-31355167D01*
X112327217Y-31356133D01*
X112341937Y-31368372D01*
X112365697Y-31382273D01*
X117153205Y-36169781D01*
X117233323Y-36216037D01*
X117322683Y-36239981D01*
X117415195Y-36239981D01*
X119123178Y-36239981D01*
X119190217Y-36259666D01*
X119235972Y-36312470D01*
X119247178Y-36363981D01*
X119247178Y-36433487D01*
X119247179Y-36433513D01*
X119250090Y-36458618D01*
X119250092Y-36458622D01*
X119295470Y-36561395D01*
X119295471Y-36561396D01*
X119374912Y-36640837D01*
X119477686Y-36686216D01*
X119502812Y-36689131D01*
X122592541Y-36689130D01*
X122592556Y-36689128D01*
X122592559Y-36689128D01*
X122617664Y-36686217D01*
X122617665Y-36686216D01*
X122617668Y-36686216D01*
X122720442Y-36640837D01*
X122799883Y-36561396D01*
X122845262Y-36458622D01*
X122848177Y-36433496D01*
X122848176Y-35379421D01*
X122867860Y-35312383D01*
X122920664Y-35266628D01*
X122989823Y-35256684D01*
X123053379Y-35285709D01*
X123059857Y-35291741D01*
X123937897Y-36169781D01*
X124018015Y-36216037D01*
X124107375Y-36239981D01*
X124163178Y-36239981D01*
X124230217Y-36259666D01*
X124275972Y-36312470D01*
X124287178Y-36363981D01*
X124287178Y-36433487D01*
X124287179Y-36433513D01*
X124290090Y-36458618D01*
X124290092Y-36458622D01*
X124335470Y-36561395D01*
X124335471Y-36561396D01*
X124414912Y-36640837D01*
X124517686Y-36686216D01*
X124542812Y-36689131D01*
X127632541Y-36689130D01*
X127632556Y-36689128D01*
X127632559Y-36689128D01*
X127657664Y-36686217D01*
X127657665Y-36686216D01*
X127657668Y-36686216D01*
X127760442Y-36640837D01*
X127839883Y-36561396D01*
X127885262Y-36458622D01*
X127888177Y-36433496D01*
X127888176Y-35343767D01*
X127887634Y-35339097D01*
X147175164Y-35339097D01*
X147175164Y-36428822D01*
X147175166Y-36428848D01*
X147178077Y-36453953D01*
X147178079Y-36453957D01*
X147223457Y-36556730D01*
X147223458Y-36556731D01*
X147302899Y-36636172D01*
X147405673Y-36681551D01*
X147430799Y-36684466D01*
X150520528Y-36684465D01*
X150520543Y-36684463D01*
X150520546Y-36684463D01*
X150545651Y-36681552D01*
X150545652Y-36681551D01*
X150545655Y-36681551D01*
X150648429Y-36636172D01*
X150727870Y-36556731D01*
X150773249Y-36453957D01*
X150776164Y-36428831D01*
X150776163Y-35339102D01*
X150776163Y-35339101D01*
X150776163Y-35339097D01*
X152215164Y-35339097D01*
X152215164Y-36428822D01*
X152215166Y-36428848D01*
X152218077Y-36453953D01*
X152218079Y-36453957D01*
X152263457Y-36556730D01*
X152263458Y-36556731D01*
X152342899Y-36636172D01*
X152445673Y-36681551D01*
X152470799Y-36684466D01*
X155560528Y-36684465D01*
X155560543Y-36684463D01*
X155560546Y-36684463D01*
X155585651Y-36681552D01*
X155585652Y-36681551D01*
X155585655Y-36681551D01*
X155688429Y-36636172D01*
X155767870Y-36556731D01*
X155813249Y-36453957D01*
X155816164Y-36428831D01*
X155816163Y-35339102D01*
X155816161Y-35339083D01*
X155813250Y-35313978D01*
X155813249Y-35313976D01*
X155813249Y-35313975D01*
X155767870Y-35211201D01*
X155688429Y-35131760D01*
X155604811Y-35094839D01*
X155585656Y-35086381D01*
X155560529Y-35083466D01*
X152470807Y-35083466D01*
X152470781Y-35083468D01*
X152445676Y-35086379D01*
X152445672Y-35086381D01*
X152342899Y-35131759D01*
X152263458Y-35211200D01*
X152218079Y-35313972D01*
X152218079Y-35313974D01*
X152215164Y-35339097D01*
X150776163Y-35339097D01*
X150776163Y-35339096D01*
X150773250Y-35313978D01*
X150773249Y-35313976D01*
X150773249Y-35313975D01*
X150727870Y-35211201D01*
X150648429Y-35131760D01*
X150564811Y-35094839D01*
X150545656Y-35086381D01*
X150520529Y-35083466D01*
X147430807Y-35083466D01*
X147430781Y-35083468D01*
X147405676Y-35086379D01*
X147405672Y-35086381D01*
X147302899Y-35131759D01*
X147223458Y-35211200D01*
X147178079Y-35313972D01*
X147178079Y-35313974D01*
X147175164Y-35339097D01*
X127887634Y-35339097D01*
X127887277Y-35336018D01*
X127885263Y-35318643D01*
X127885262Y-35318641D01*
X127885262Y-35318640D01*
X127839883Y-35215866D01*
X127760442Y-35136425D01*
X127749877Y-35131760D01*
X127657669Y-35091046D01*
X127632542Y-35088131D01*
X124542820Y-35088131D01*
X124542794Y-35088133D01*
X124517689Y-35091044D01*
X124517685Y-35091046D01*
X124414912Y-35136424D01*
X124335472Y-35215864D01*
X124299017Y-35298425D01*
X124253930Y-35351800D01*
X124187144Y-35372327D01*
X124119862Y-35353488D01*
X124097902Y-35336018D01*
X123151735Y-34389851D01*
X123151730Y-34389847D01*
X123071618Y-34343595D01*
X123071617Y-34343594D01*
X123071616Y-34343594D01*
X122982256Y-34319650D01*
X122982254Y-34319650D01*
X122800991Y-34319650D01*
X122733952Y-34299965D01*
X122688197Y-34247161D01*
X122678253Y-34178003D01*
X122707278Y-34114447D01*
X122713310Y-34107969D01*
X122745742Y-34075537D01*
X122799883Y-34021396D01*
X122845262Y-33918622D01*
X122848177Y-33893496D01*
X122848176Y-32803767D01*
X122848176Y-32803766D01*
X122848176Y-32803762D01*
X124287177Y-32803762D01*
X124287177Y-33893487D01*
X124287179Y-33893513D01*
X124290090Y-33918618D01*
X124290092Y-33918622D01*
X124335470Y-34021395D01*
X124335471Y-34021396D01*
X124414912Y-34100837D01*
X124517686Y-34146216D01*
X124542812Y-34149131D01*
X127632541Y-34149130D01*
X127632556Y-34149128D01*
X127632559Y-34149128D01*
X127657664Y-34146217D01*
X127657665Y-34146216D01*
X127657668Y-34146216D01*
X127760442Y-34100837D01*
X127839883Y-34021396D01*
X127885262Y-33918622D01*
X127888177Y-33893496D01*
X127888176Y-32803767D01*
X127887635Y-32799101D01*
X127885263Y-32778643D01*
X127885262Y-32778641D01*
X127885262Y-32778640D01*
X127839883Y-32675866D01*
X127760442Y-32596425D01*
X127749877Y-32591760D01*
X127657669Y-32551046D01*
X127632542Y-32548131D01*
X124542820Y-32548131D01*
X124542794Y-32548133D01*
X124517689Y-32551044D01*
X124517685Y-32551046D01*
X124414912Y-32596424D01*
X124335471Y-32675865D01*
X124290092Y-32778637D01*
X124290092Y-32778639D01*
X124287177Y-32803762D01*
X122848176Y-32803762D01*
X122848176Y-32803761D01*
X122845263Y-32778643D01*
X122845262Y-32778641D01*
X122845262Y-32778640D01*
X122799883Y-32675866D01*
X122720442Y-32596425D01*
X122709877Y-32591760D01*
X122617669Y-32551046D01*
X122592542Y-32548131D01*
X119502820Y-32548131D01*
X119502794Y-32548133D01*
X119477689Y-32551044D01*
X119477685Y-32551046D01*
X119374912Y-32596424D01*
X119295471Y-32675865D01*
X119250092Y-32778637D01*
X119250092Y-32778639D01*
X119247177Y-32803762D01*
X119247177Y-32873281D01*
X119227492Y-32940320D01*
X119174688Y-32986075D01*
X119123177Y-32997281D01*
X117971879Y-32997281D01*
X117904840Y-32977596D01*
X117884198Y-32960962D01*
X117843717Y-32920481D01*
X117843709Y-32920475D01*
X117706790Y-32841426D01*
X117706786Y-32841424D01*
X117706784Y-32841423D01*
X117554057Y-32800500D01*
X117395943Y-32800500D01*
X117243216Y-32841423D01*
X117243209Y-32841426D01*
X117106290Y-32920475D01*
X117106282Y-32920481D01*
X116994481Y-33032282D01*
X116994475Y-33032290D01*
X116915426Y-33169209D01*
X116915423Y-33169214D01*
X116876903Y-33312976D01*
X116840538Y-33372636D01*
X116777691Y-33403165D01*
X116708315Y-33394870D01*
X116669447Y-33368563D01*
X113564646Y-30263762D01*
X119247177Y-30263762D01*
X119247177Y-31353487D01*
X119247179Y-31353513D01*
X119250090Y-31378618D01*
X119250092Y-31378622D01*
X119295470Y-31481395D01*
X119295471Y-31481396D01*
X119374912Y-31560837D01*
X119477686Y-31606216D01*
X119502812Y-31609131D01*
X122592541Y-31609130D01*
X122592556Y-31609128D01*
X122592559Y-31609128D01*
X122617664Y-31606217D01*
X122617665Y-31606216D01*
X122617668Y-31606216D01*
X122720442Y-31560837D01*
X122799883Y-31481396D01*
X122845262Y-31378622D01*
X122848177Y-31353496D01*
X122848176Y-30263767D01*
X122848176Y-30263766D01*
X122848176Y-30263762D01*
X124287177Y-30263762D01*
X124287177Y-31353487D01*
X124287179Y-31353513D01*
X124290090Y-31378618D01*
X124290092Y-31378622D01*
X124335470Y-31481395D01*
X124335471Y-31481396D01*
X124414912Y-31560837D01*
X124517686Y-31606216D01*
X124542812Y-31609131D01*
X127632541Y-31609130D01*
X127632556Y-31609128D01*
X127632559Y-31609128D01*
X127657664Y-31606217D01*
X127657665Y-31606216D01*
X127657668Y-31606216D01*
X127760442Y-31560837D01*
X127839883Y-31481396D01*
X127885262Y-31378622D01*
X127888177Y-31353496D01*
X127888176Y-30263767D01*
X127887635Y-30259101D01*
X127885263Y-30238643D01*
X127885262Y-30238641D01*
X127885262Y-30238640D01*
X127839883Y-30135866D01*
X127760442Y-30056425D01*
X127749877Y-30051760D01*
X127657669Y-30011046D01*
X127632542Y-30008131D01*
X124542820Y-30008131D01*
X124542794Y-30008133D01*
X124517689Y-30011044D01*
X124517685Y-30011046D01*
X124414912Y-30056424D01*
X124335471Y-30135865D01*
X124290092Y-30238637D01*
X124290092Y-30238639D01*
X124287177Y-30263762D01*
X122848176Y-30263762D01*
X122848176Y-30263761D01*
X122845263Y-30238643D01*
X122845262Y-30238641D01*
X122845262Y-30238640D01*
X122799883Y-30135866D01*
X122720442Y-30056425D01*
X122709877Y-30051760D01*
X122617669Y-30011046D01*
X122592542Y-30008131D01*
X119502820Y-30008131D01*
X119502794Y-30008133D01*
X119477689Y-30011044D01*
X119477685Y-30011046D01*
X119374912Y-30056424D01*
X119295471Y-30135865D01*
X119250092Y-30238637D01*
X119250092Y-30238639D01*
X119247177Y-30263762D01*
X113564646Y-30263762D01*
X112014000Y-28713116D01*
X112014000Y-27723762D01*
X119247177Y-27723762D01*
X119247177Y-28813487D01*
X119247179Y-28813513D01*
X119250090Y-28838618D01*
X119250092Y-28838622D01*
X119295470Y-28941395D01*
X119295471Y-28941396D01*
X119374912Y-29020837D01*
X119477686Y-29066216D01*
X119502812Y-29069131D01*
X122592541Y-29069130D01*
X122592556Y-29069128D01*
X122592559Y-29069128D01*
X122617664Y-29066217D01*
X122617665Y-29066216D01*
X122617668Y-29066216D01*
X122720442Y-29020837D01*
X122799883Y-28941396D01*
X122845262Y-28838622D01*
X122848177Y-28813496D01*
X122848176Y-27723767D01*
X122848176Y-27723766D01*
X122848176Y-27723762D01*
X124287177Y-27723762D01*
X124287177Y-28813487D01*
X124287179Y-28813513D01*
X124290090Y-28838618D01*
X124290092Y-28838622D01*
X124335470Y-28941395D01*
X124335471Y-28941396D01*
X124414912Y-29020837D01*
X124517686Y-29066216D01*
X124542812Y-29069131D01*
X127632541Y-29069130D01*
X127632556Y-29069128D01*
X127632559Y-29069128D01*
X127657664Y-29066217D01*
X127657665Y-29066216D01*
X127657668Y-29066216D01*
X127760442Y-29020837D01*
X127839883Y-28941396D01*
X127885262Y-28838622D01*
X127888177Y-28813496D01*
X127888176Y-27723767D01*
X127887635Y-27719101D01*
X127885263Y-27698643D01*
X127885262Y-27698641D01*
X127885262Y-27698640D01*
X127839883Y-27595866D01*
X127760442Y-27516425D01*
X127749877Y-27511760D01*
X127657669Y-27471046D01*
X127632542Y-27468131D01*
X124542820Y-27468131D01*
X124542794Y-27468133D01*
X124517689Y-27471044D01*
X124517685Y-27471046D01*
X124414912Y-27516424D01*
X124335471Y-27595865D01*
X124290092Y-27698637D01*
X124290092Y-27698639D01*
X124287177Y-27723762D01*
X122848176Y-27723762D01*
X122848176Y-27723761D01*
X122845263Y-27698643D01*
X122845262Y-27698641D01*
X122845262Y-27698640D01*
X122799883Y-27595866D01*
X122720442Y-27516425D01*
X122709877Y-27511760D01*
X122617669Y-27471046D01*
X122592542Y-27468131D01*
X119502820Y-27468131D01*
X119502794Y-27468133D01*
X119477689Y-27471044D01*
X119477685Y-27471046D01*
X119374912Y-27516424D01*
X119295471Y-27595865D01*
X119250092Y-27698637D01*
X119250092Y-27698639D01*
X119247177Y-27723762D01*
X112014000Y-27723762D01*
X112014000Y-25183762D01*
X119247177Y-25183762D01*
X119247177Y-26273487D01*
X119247179Y-26273513D01*
X119250090Y-26298618D01*
X119250092Y-26298622D01*
X119295470Y-26401395D01*
X119295471Y-26401396D01*
X119374912Y-26480837D01*
X119477686Y-26526216D01*
X119502812Y-26529131D01*
X122592541Y-26529130D01*
X122592556Y-26529128D01*
X122592559Y-26529128D01*
X122617664Y-26526217D01*
X122617665Y-26526216D01*
X122617668Y-26526216D01*
X122720442Y-26480837D01*
X122799883Y-26401396D01*
X122845262Y-26298622D01*
X122848177Y-26273496D01*
X122848176Y-25183767D01*
X122848176Y-25183766D01*
X122848176Y-25183762D01*
X124287177Y-25183762D01*
X124287177Y-26273487D01*
X124287179Y-26273513D01*
X124290090Y-26298618D01*
X124290092Y-26298622D01*
X124335470Y-26401395D01*
X124335471Y-26401396D01*
X124414912Y-26480837D01*
X124517686Y-26526216D01*
X124542812Y-26529131D01*
X127632541Y-26529130D01*
X127632556Y-26529128D01*
X127632559Y-26529128D01*
X127657664Y-26526217D01*
X127657665Y-26526216D01*
X127657668Y-26526216D01*
X127760442Y-26480837D01*
X127839883Y-26401396D01*
X127885262Y-26298622D01*
X127888177Y-26273496D01*
X127888176Y-25183767D01*
X127887635Y-25179101D01*
X127885263Y-25158643D01*
X127885262Y-25158641D01*
X127885262Y-25158640D01*
X127839883Y-25055866D01*
X127760442Y-24976425D01*
X127749877Y-24971760D01*
X127657669Y-24931046D01*
X127632542Y-24928131D01*
X124542820Y-24928131D01*
X124542794Y-24928133D01*
X124517689Y-24931044D01*
X124517685Y-24931046D01*
X124414912Y-24976424D01*
X124335471Y-25055865D01*
X124290092Y-25158637D01*
X124290092Y-25158639D01*
X124287177Y-25183762D01*
X122848176Y-25183762D01*
X122848176Y-25183761D01*
X122845263Y-25158643D01*
X122845262Y-25158641D01*
X122845262Y-25158640D01*
X122799883Y-25055866D01*
X122720442Y-24976425D01*
X122709877Y-24971760D01*
X122617669Y-24931046D01*
X122592542Y-24928131D01*
X119502820Y-24928131D01*
X119502794Y-24928133D01*
X119477689Y-24931044D01*
X119477685Y-24931046D01*
X119374912Y-24976424D01*
X119295471Y-25055865D01*
X119250092Y-25158637D01*
X119250092Y-25158639D01*
X119247177Y-25183762D01*
X112014000Y-25183762D01*
X112014000Y-24172246D01*
X112046075Y-24227803D01*
X112205718Y-24435851D01*
X112205726Y-24435860D01*
X112391140Y-24621274D01*
X112391148Y-24621281D01*
X112599196Y-24780924D01*
X112826299Y-24912041D01*
X112826309Y-24912046D01*
X113068571Y-25012394D01*
X113068581Y-25012398D01*
X113321884Y-25080270D01*
X113581880Y-25114500D01*
X113581887Y-25114500D01*
X113844113Y-25114500D01*
X113844120Y-25114500D01*
X114104116Y-25080270D01*
X114357419Y-25012398D01*
X114572117Y-24923467D01*
X114599690Y-24912046D01*
X114599691Y-24912045D01*
X114599697Y-24912043D01*
X114826803Y-24780924D01*
X115034851Y-24621282D01*
X115034855Y-24621277D01*
X115034860Y-24621274D01*
X115220274Y-24435860D01*
X115220277Y-24435855D01*
X115220282Y-24435851D01*
X115379924Y-24227803D01*
X115511043Y-24000697D01*
X115533508Y-23946463D01*
X115611314Y-23758622D01*
X115611398Y-23758419D01*
X115679270Y-23505116D01*
X115713500Y-23245120D01*
X115713500Y-22982880D01*
X115679270Y-22722884D01*
X115658069Y-22643762D01*
X119247177Y-22643762D01*
X119247177Y-23733487D01*
X119247179Y-23733513D01*
X119250090Y-23758618D01*
X119250092Y-23758622D01*
X119295470Y-23861395D01*
X119295471Y-23861396D01*
X119374912Y-23940837D01*
X119477686Y-23986216D01*
X119502812Y-23989131D01*
X122592541Y-23989130D01*
X122592556Y-23989128D01*
X122592559Y-23989128D01*
X122617664Y-23986217D01*
X122617665Y-23986216D01*
X122617668Y-23986216D01*
X122720442Y-23940837D01*
X122799883Y-23861396D01*
X122845262Y-23758622D01*
X122848177Y-23733496D01*
X122848176Y-22643767D01*
X122848174Y-22643748D01*
X122845263Y-22618643D01*
X122845262Y-22618641D01*
X122845262Y-22618640D01*
X122799883Y-22515866D01*
X122720442Y-22436425D01*
X122709877Y-22431760D01*
X122617669Y-22391046D01*
X122592542Y-22388131D01*
X119502820Y-22388131D01*
X119502794Y-22388133D01*
X119477689Y-22391044D01*
X119477685Y-22391046D01*
X119374912Y-22436424D01*
X119295471Y-22515865D01*
X119250092Y-22618637D01*
X119250092Y-22618639D01*
X119247177Y-22643762D01*
X115658069Y-22643762D01*
X115611398Y-22469581D01*
X115611394Y-22469571D01*
X115511046Y-22227309D01*
X115511041Y-22227299D01*
X115379924Y-22000196D01*
X115220281Y-21792148D01*
X115220274Y-21792140D01*
X115034860Y-21606726D01*
X115034851Y-21606718D01*
X114962076Y-21550875D01*
X114920873Y-21494447D01*
X114916719Y-21424701D01*
X114950932Y-21363781D01*
X115012650Y-21331029D01*
X115037563Y-21328500D01*
X158055465Y-21328500D01*
X158122504Y-21348185D01*
G37*
%TD.AperFunction*%
%TA.AperFunction,Conductor*%
G36*
X112346759Y-63300996D02*
G01*
X112376129Y-63307021D01*
X112379935Y-63310737D01*
X112385037Y-63312236D01*
X112404665Y-63334888D01*
X112426117Y-63355837D01*
X112427309Y-63361020D01*
X112430792Y-63365040D01*
X112435058Y-63394713D01*
X112441778Y-63423928D01*
X112439978Y-63428932D01*
X112440736Y-63434198D01*
X112428280Y-63461471D01*
X112418140Y-63489678D01*
X112412991Y-63494950D01*
X112411711Y-63497754D01*
X112393483Y-63514926D01*
X112392454Y-63515715D01*
X112391147Y-63516719D01*
X112268000Y-63639866D01*
X112268000Y-63292551D01*
X112317998Y-63292551D01*
X112346759Y-63300996D01*
G37*
%TD.AperFunction*%
%TA.AperFunction,Conductor*%
G36*
X138982143Y-48631035D02*
G01*
X139002785Y-48647669D01*
X140204591Y-49849475D01*
X140238076Y-49910798D01*
X140233865Y-49969674D01*
X140236070Y-49970232D01*
X140234123Y-49977932D01*
X140231915Y-49996319D01*
X140223500Y-50066398D01*
X140223500Y-50677602D01*
X140229163Y-50724759D01*
X140234123Y-50766065D01*
X140291992Y-50912810D01*
X140298274Y-50982397D01*
X140265937Y-51044333D01*
X140205248Y-51078954D01*
X140176638Y-51082300D01*
X137397950Y-51082300D01*
X137305438Y-51082300D01*
X137216078Y-51106244D01*
X137216076Y-51106245D01*
X137216075Y-51106245D01*
X137135963Y-51152497D01*
X137135958Y-51152501D01*
X137094720Y-51193739D01*
X137033397Y-51227223D01*
X136963705Y-51222238D01*
X136907772Y-51180366D01*
X136890001Y-51147016D01*
X136863793Y-51072118D01*
X136783150Y-50962850D01*
X136673882Y-50882207D01*
X136673880Y-50882206D01*
X136545700Y-50837353D01*
X136515270Y-50834500D01*
X136515266Y-50834500D01*
X134756734Y-50834500D01*
X134756730Y-50834500D01*
X134726300Y-50837353D01*
X134726298Y-50837353D01*
X134598119Y-50882206D01*
X134598117Y-50882207D01*
X134488850Y-50962850D01*
X134408207Y-51072117D01*
X134408206Y-51072119D01*
X134363353Y-51200298D01*
X134363353Y-51200300D01*
X134360500Y-51230730D01*
X134360500Y-51594650D01*
X134340815Y-51661689D01*
X134288011Y-51707444D01*
X134236500Y-51718650D01*
X133332553Y-51718650D01*
X133265514Y-51698965D01*
X133219759Y-51646161D01*
X133209815Y-51577003D01*
X133238840Y-51513447D01*
X133244872Y-51506969D01*
X136104171Y-48647669D01*
X136165494Y-48614184D01*
X136191852Y-48611350D01*
X138915104Y-48611350D01*
X138982143Y-48631035D01*
G37*
%TD.AperFunction*%
%TA.AperFunction,Conductor*%
G36*
X112455476Y-21348185D02*
G01*
X112501231Y-21400989D01*
X112511175Y-21470147D01*
X112482150Y-21533703D01*
X112463924Y-21550875D01*
X112391148Y-21606718D01*
X112205718Y-21792148D01*
X112046075Y-22000196D01*
X112014000Y-22055752D01*
X112014000Y-21328500D01*
X112388437Y-21328500D01*
X112455476Y-21348185D01*
G37*
%TD.AperFunction*%
%TD*%
%TA.AperFunction,Conductor*%
%TO.N,GND*%
G36*
X110324652Y-30335185D02*
G01*
X110345294Y-30351819D01*
X110968511Y-30975036D01*
X110983214Y-31001963D01*
X110999807Y-31027782D01*
X111000698Y-31033982D01*
X111001996Y-31036359D01*
X111004830Y-31062717D01*
X111004830Y-31090637D01*
X110997164Y-31129179D01*
X110997857Y-31129365D01*
X110954830Y-31289943D01*
X110954830Y-31448056D01*
X110997857Y-31608636D01*
X110997162Y-31608822D01*
X111004830Y-31647362D01*
X111004830Y-54232000D01*
X110985145Y-54299039D01*
X110932341Y-54344794D01*
X110880830Y-54356000D01*
X102108126Y-54356000D01*
X102091941Y-54354939D01*
X102078917Y-54353224D01*
X101986775Y-54341093D01*
X101955508Y-54332715D01*
X101865081Y-54295259D01*
X101837048Y-54279074D01*
X101759398Y-54219491D01*
X101736508Y-54196601D01*
X101676925Y-54118951D01*
X101660740Y-54090918D01*
X101623284Y-54000491D01*
X101614906Y-53969223D01*
X101601061Y-53864059D01*
X101600000Y-53847874D01*
X101600000Y-51562000D01*
X101228756Y-51562000D01*
X101209359Y-51560473D01*
X101166506Y-51553686D01*
X101120662Y-51546425D01*
X101083765Y-51534436D01*
X101012551Y-51498150D01*
X100981167Y-51475348D01*
X100924651Y-51418832D01*
X100901850Y-51387450D01*
X100865561Y-51316230D01*
X100853576Y-51279345D01*
X100839525Y-51190629D01*
X100838000Y-51171244D01*
X100838000Y-30439500D01*
X100857685Y-30372461D01*
X100910489Y-30326706D01*
X100962000Y-30315500D01*
X110257613Y-30315500D01*
X110324652Y-30335185D01*
G37*
%TD.AperFunction*%
%TA.AperFunction,Conductor*%
G36*
X109986243Y-29002819D02*
G01*
X110019728Y-29064142D01*
X110014744Y-29133834D01*
X109972872Y-29189767D01*
X109907408Y-29214184D01*
X109898562Y-29214500D01*
X100962000Y-29214500D01*
X100894961Y-29194815D01*
X100849206Y-29142011D01*
X100838000Y-29090500D01*
X100838000Y-28702000D01*
X109685424Y-28702000D01*
X109986243Y-29002819D01*
G37*
%TD.AperFunction*%
%TA.AperFunction,Conductor*%
G36*
X112014000Y-28713116D02*
G01*
X112002884Y-28702000D01*
X112014000Y-28702000D01*
X112014000Y-28713116D01*
G37*
%TD.AperFunction*%
%TD*%
%TA.AperFunction,Conductor*%
%TO.N,+3.3V*%
G36*
X99927562Y-42545264D02*
G01*
X99935692Y-42545797D01*
X99943733Y-42546589D01*
X100036832Y-42558846D01*
X100052724Y-42562007D01*
X100068304Y-42566181D01*
X100083654Y-42571392D01*
X100159070Y-42602630D01*
X100173612Y-42609802D01*
X100187573Y-42617862D01*
X100201062Y-42626875D01*
X100265813Y-42676561D01*
X100278007Y-42687255D01*
X100289401Y-42698649D01*
X100300096Y-42710844D01*
X100349785Y-42775600D01*
X100358796Y-42789086D01*
X100366853Y-42803041D01*
X100374027Y-42817589D01*
X100405262Y-42892998D01*
X100410474Y-42908351D01*
X100414647Y-42923922D01*
X100417813Y-42939836D01*
X100430068Y-43032921D01*
X100430863Y-43040982D01*
X100431393Y-43049080D01*
X100431659Y-43057178D01*
X100431659Y-50922819D01*
X100431393Y-50930938D01*
X100430863Y-50939015D01*
X100430068Y-50947082D01*
X100417813Y-51040163D01*
X100414647Y-51056076D01*
X100410474Y-51071647D01*
X100405262Y-51087000D01*
X100374027Y-51162409D01*
X100366853Y-51176957D01*
X100358796Y-51190912D01*
X100349785Y-51204398D01*
X100300096Y-51269154D01*
X100289401Y-51281349D01*
X100278008Y-51292742D01*
X100265813Y-51303437D01*
X100201057Y-51353126D01*
X100187571Y-51362137D01*
X100173616Y-51370194D01*
X100159068Y-51377368D01*
X100083659Y-51408603D01*
X100068306Y-51413815D01*
X100052735Y-51417988D01*
X100036822Y-51421154D01*
X99952743Y-51432224D01*
X99951057Y-51432446D01*
X99949719Y-51432622D01*
X99943722Y-51433411D01*
X99935674Y-51434204D01*
X99935143Y-51434238D01*
X99927578Y-51434734D01*
X99919478Y-51435000D01*
X93323838Y-51435000D01*
X93315732Y-51434734D01*
X93307655Y-51434204D01*
X93299590Y-51433410D01*
X93290580Y-51432224D01*
X93290577Y-51432224D01*
X93206494Y-51421154D01*
X93190581Y-51417988D01*
X93175010Y-51413815D01*
X93159657Y-51408603D01*
X93084248Y-51377368D01*
X93069700Y-51370194D01*
X93055745Y-51362137D01*
X93042259Y-51353126D01*
X92977503Y-51303437D01*
X92965308Y-51292742D01*
X92953915Y-51281349D01*
X92943220Y-51269154D01*
X92893531Y-51204398D01*
X92884520Y-51190912D01*
X92876463Y-51176957D01*
X92869289Y-51162410D01*
X92838053Y-51087000D01*
X92832840Y-51071643D01*
X92828669Y-51056076D01*
X92828666Y-51056065D01*
X92825505Y-51040173D01*
X92813248Y-50947074D01*
X92812455Y-50939030D01*
X92811923Y-50930905D01*
X92811659Y-50922820D01*
X92811659Y-43057178D01*
X92811923Y-43049095D01*
X92812456Y-43040965D01*
X92813249Y-43032920D01*
X92825504Y-42939834D01*
X92828669Y-42923923D01*
X92832841Y-42908354D01*
X92838054Y-42892998D01*
X92869290Y-42817587D01*
X92876460Y-42803046D01*
X92876463Y-42803041D01*
X92884523Y-42789079D01*
X92893515Y-42775620D01*
X92943237Y-42710822D01*
X92953910Y-42698653D01*
X92965312Y-42687251D01*
X92977489Y-42676572D01*
X93042272Y-42626862D01*
X93055734Y-42617866D01*
X93069711Y-42609796D01*
X93084225Y-42602638D01*
X93159671Y-42571387D01*
X93175011Y-42566181D01*
X93190590Y-42562007D01*
X93206480Y-42558846D01*
X93299586Y-42546589D01*
X93307625Y-42545797D01*
X93315754Y-42545264D01*
X93323838Y-42545000D01*
X99919480Y-42545000D01*
X99927562Y-42545264D01*
G37*
%TD.AperFunction*%
%TD*%
M02*
