%TF.GenerationSoftware,KiCad,Pcbnew,10.0.3*%
%TF.CreationDate,2026-06-24T19:40:23+02:00*%
%TF.ProjectId,E0001-000002,45303030-312d-4303-9030-3030322e6b69,rev?*%
%TF.SameCoordinates,Original*%
%TF.FileFunction,Legend,Bot*%
%TF.FilePolarity,Positive*%
%FSLAX46Y46*%
G04 Gerber Fmt 4.6, Leading zero omitted, Abs format (unit mm)*
G04 Created by KiCad (PCBNEW 10.0.3) date 2026-06-24 19:40:23*
%MOMM*%
%LPD*%
G01*
G04 APERTURE LIST*
%ADD10C,0.150000*%
%ADD11C,0.120000*%
G04 APERTURE END LIST*
D10*
X153515262Y-26911183D02*
X153515262Y-27625468D01*
X153515262Y-27625468D02*
X153562881Y-27768325D01*
X153562881Y-27768325D02*
X153658119Y-27863564D01*
X153658119Y-27863564D02*
X153800976Y-27911183D01*
X153800976Y-27911183D02*
X153896214Y-27911183D01*
X152610500Y-26911183D02*
X152800976Y-26911183D01*
X152800976Y-26911183D02*
X152896214Y-26958802D01*
X152896214Y-26958802D02*
X152943833Y-27006421D01*
X152943833Y-27006421D02*
X153039071Y-27149278D01*
X153039071Y-27149278D02*
X153086690Y-27339754D01*
X153086690Y-27339754D02*
X153086690Y-27720706D01*
X153086690Y-27720706D02*
X153039071Y-27815944D01*
X153039071Y-27815944D02*
X152991452Y-27863564D01*
X152991452Y-27863564D02*
X152896214Y-27911183D01*
X152896214Y-27911183D02*
X152705738Y-27911183D01*
X152705738Y-27911183D02*
X152610500Y-27863564D01*
X152610500Y-27863564D02*
X152562881Y-27815944D01*
X152562881Y-27815944D02*
X152515262Y-27720706D01*
X152515262Y-27720706D02*
X152515262Y-27482611D01*
X152515262Y-27482611D02*
X152562881Y-27387373D01*
X152562881Y-27387373D02*
X152610500Y-27339754D01*
X152610500Y-27339754D02*
X152705738Y-27292135D01*
X152705738Y-27292135D02*
X152896214Y-27292135D01*
X152896214Y-27292135D02*
X152991452Y-27339754D01*
X152991452Y-27339754D02*
X153039071Y-27387373D01*
X153039071Y-27387373D02*
X153086690Y-27482611D01*
X122916333Y-26918819D02*
X122916333Y-27633104D01*
X122916333Y-27633104D02*
X122963952Y-27775961D01*
X122963952Y-27775961D02*
X123059190Y-27871200D01*
X123059190Y-27871200D02*
X123202047Y-27918819D01*
X123202047Y-27918819D02*
X123297285Y-27918819D01*
X121963952Y-26918819D02*
X122440142Y-26918819D01*
X122440142Y-26918819D02*
X122487761Y-27395009D01*
X122487761Y-27395009D02*
X122440142Y-27347390D01*
X122440142Y-27347390D02*
X122344904Y-27299771D01*
X122344904Y-27299771D02*
X122106809Y-27299771D01*
X122106809Y-27299771D02*
X122011571Y-27347390D01*
X122011571Y-27347390D02*
X121963952Y-27395009D01*
X121963952Y-27395009D02*
X121916333Y-27490247D01*
X121916333Y-27490247D02*
X121916333Y-27728342D01*
X121916333Y-27728342D02*
X121963952Y-27823580D01*
X121963952Y-27823580D02*
X122011571Y-27871200D01*
X122011571Y-27871200D02*
X122106809Y-27918819D01*
X122106809Y-27918819D02*
X122344904Y-27918819D01*
X122344904Y-27918819D02*
X122440142Y-27871200D01*
X122440142Y-27871200D02*
X122487761Y-27823580D01*
%TO.C,J6*%
D11*
X150581929Y-28896364D02*
X150581929Y-29466364D01*
X150581929Y-29466364D02*
X149221929Y-29466364D01*
X150581929Y-30986364D02*
X150581929Y-32006364D01*
X150581929Y-33526364D02*
X150581929Y-34546364D01*
X150581929Y-36066364D02*
X150581929Y-37086364D01*
X150581929Y-38606364D02*
X150581929Y-39626364D01*
X150581929Y-41146364D02*
X150581929Y-42166364D01*
X150581929Y-43686364D02*
X150581929Y-44706364D01*
X150581929Y-46226364D02*
X150581929Y-47246364D01*
X150581929Y-48766364D02*
X150581929Y-49336364D01*
X155781929Y-28896364D02*
X150581929Y-28896364D01*
X155781929Y-28896364D02*
X155781929Y-29466364D01*
X155781929Y-30986364D02*
X155781929Y-32006364D01*
X155781929Y-33526364D02*
X155781929Y-34546364D01*
X155781929Y-36066364D02*
X155781929Y-37086364D01*
X155781929Y-38606364D02*
X155781929Y-39626364D01*
X155781929Y-41146364D02*
X155781929Y-42166364D01*
X155781929Y-43686364D02*
X155781929Y-44706364D01*
X155781929Y-46226364D02*
X155781929Y-47246364D01*
X155781929Y-48766364D02*
X155781929Y-49336364D01*
X155781929Y-49336364D02*
X150581929Y-49336364D01*
%TO.C,J5*%
X119983000Y-28904000D02*
X119983000Y-29474000D01*
X119983000Y-29474000D02*
X118623000Y-29474000D01*
X119983000Y-30994000D02*
X119983000Y-32014000D01*
X119983000Y-33534000D02*
X119983000Y-34554000D01*
X119983000Y-36074000D02*
X119983000Y-37094000D01*
X119983000Y-38614000D02*
X119983000Y-39634000D01*
X119983000Y-41154000D02*
X119983000Y-42174000D01*
X119983000Y-43694000D02*
X119983000Y-44714000D01*
X119983000Y-46234000D02*
X119983000Y-47254000D01*
X119983000Y-48774000D02*
X119983000Y-49794000D01*
X119983000Y-51314000D02*
X119983000Y-52334000D01*
X119983000Y-53854000D02*
X119983000Y-54874000D01*
X119983000Y-56394000D02*
X119983000Y-57414000D01*
X119983000Y-58934000D02*
X119983000Y-59504000D01*
X125183000Y-28904000D02*
X119983000Y-28904000D01*
X125183000Y-28904000D02*
X125183000Y-29474000D01*
X125183000Y-30994000D02*
X125183000Y-32014000D01*
X125183000Y-33534000D02*
X125183000Y-34554000D01*
X125183000Y-36074000D02*
X125183000Y-37094000D01*
X125183000Y-38614000D02*
X125183000Y-39634000D01*
X125183000Y-41154000D02*
X125183000Y-42174000D01*
X125183000Y-43694000D02*
X125183000Y-44714000D01*
X125183000Y-46234000D02*
X125183000Y-47254000D01*
X125183000Y-48774000D02*
X125183000Y-49794000D01*
X125183000Y-51314000D02*
X125183000Y-52334000D01*
X125183000Y-53854000D02*
X125183000Y-54874000D01*
X125183000Y-56394000D02*
X125183000Y-57414000D01*
X125183000Y-58934000D02*
X125183000Y-59504000D01*
X125183000Y-59504000D02*
X119983000Y-59504000D01*
%TD*%
M02*
