%TF.GenerationSoftware,KiCad,Pcbnew,10.0.3*%
%TF.CreationDate,2026-06-24T19:40:23+02:00*%
%TF.ProjectId,E0001-000002,45303030-312d-4303-9030-3030322e6b69,rev?*%
%TF.SameCoordinates,Original*%
%TF.FileFunction,Paste,Top*%
%TF.FilePolarity,Positive*%
%FSLAX46Y46*%
G04 Gerber Fmt 4.6, Leading zero omitted, Abs format (unit mm)*
G04 Created by KiCad (PCBNEW 10.0.3) date 2026-06-24 19:40:23*
%MOMM*%
%LPD*%
G01*
G04 APERTURE LIST*
G04 Aperture macros list*
%AMRoundRect*
0 Rectangle with rounded corners*
0 $1 Rounding radius*
0 $2 $3 $4 $5 $6 $7 $8 $9 X,Y pos of 4 corners*
0 Add a 4 corners polygon primitive as box body*
4,1,4,$2,$3,$4,$5,$6,$7,$8,$9,$2,$3,0*
0 Add four circle primitives for the rounded corners*
1,1,$1+$1,$2,$3*
1,1,$1+$1,$4,$5*
1,1,$1+$1,$6,$7*
1,1,$1+$1,$8,$9*
0 Add four rect primitives between the rounded corners*
20,1,$1+$1,$2,$3,$4,$5,0*
20,1,$1+$1,$4,$5,$6,$7,0*
20,1,$1+$1,$6,$7,$8,$9,0*
20,1,$1+$1,$8,$9,$2,$3,0*%
G04 Aperture macros list end*
%ADD10C,0.150000*%
%ADD11RoundRect,0.243750X-0.243750X-0.456250X0.243750X-0.456250X0.243750X0.456250X-0.243750X0.456250X0*%
%ADD12RoundRect,0.250000X0.900000X-1.000000X0.900000X1.000000X-0.900000X1.000000X-0.900000X-1.000000X0*%
%ADD13RoundRect,0.243750X-0.456250X0.243750X-0.456250X-0.243750X0.456250X-0.243750X0.456250X0.243750X0*%
%ADD14RoundRect,0.250000X-0.250000X-0.475000X0.250000X-0.475000X0.250000X0.475000X-0.250000X0.475000X0*%
%ADD15RoundRect,0.150000X-0.150000X0.512500X-0.150000X-0.512500X0.150000X-0.512500X0.150000X0.512500X0*%
%ADD16RoundRect,0.250000X-0.475000X0.250000X-0.475000X-0.250000X0.475000X-0.250000X0.475000X0.250000X0*%
%ADD17RoundRect,0.250000X-0.450000X0.262500X-0.450000X-0.262500X0.450000X-0.262500X0.450000X0.262500X0*%
%ADD18RoundRect,0.150000X-0.150000X0.587500X-0.150000X-0.587500X0.150000X-0.587500X0.150000X0.587500X0*%
%ADD19RoundRect,0.250000X-0.262500X-0.450000X0.262500X-0.450000X0.262500X0.450000X-0.262500X0.450000X0*%
%ADD20RoundRect,0.250000X0.450000X-0.262500X0.450000X0.262500X-0.450000X0.262500X-0.450000X-0.262500X0*%
%ADD21RoundRect,0.150000X0.825000X0.150000X-0.825000X0.150000X-0.825000X-0.150000X0.825000X-0.150000X0*%
%ADD22RoundRect,0.250000X0.262500X0.450000X-0.262500X0.450000X-0.262500X-0.450000X0.262500X-0.450000X0*%
%ADD23RoundRect,0.250000X-2.600000X0.600000X-2.600000X-0.600000X2.600000X-0.600000X2.600000X0.600000X0*%
%ADD24RoundRect,0.250000X0.250000X0.475000X-0.250000X0.475000X-0.250000X-0.475000X0.250000X-0.475000X0*%
%ADD25RoundRect,0.250000X0.475000X-0.250000X0.475000X0.250000X-0.475000X0.250000X-0.475000X-0.250000X0*%
%ADD26RoundRect,0.250000X0.650000X-1.000000X0.650000X1.000000X-0.650000X1.000000X-0.650000X-1.000000X0*%
%ADD27R,3.000000X1.000000*%
G04 APERTURE END LIST*
D10*
X105354142Y-26790819D02*
X105020809Y-26314628D01*
X104782714Y-26790819D02*
X104782714Y-25790819D01*
X104782714Y-25790819D02*
X105163666Y-25790819D01*
X105163666Y-25790819D02*
X105258904Y-25838438D01*
X105258904Y-25838438D02*
X105306523Y-25886057D01*
X105306523Y-25886057D02*
X105354142Y-25981295D01*
X105354142Y-25981295D02*
X105354142Y-26124152D01*
X105354142Y-26124152D02*
X105306523Y-26219390D01*
X105306523Y-26219390D02*
X105258904Y-26267009D01*
X105258904Y-26267009D02*
X105163666Y-26314628D01*
X105163666Y-26314628D02*
X104782714Y-26314628D01*
X106306523Y-26790819D02*
X105735095Y-26790819D01*
X106020809Y-26790819D02*
X106020809Y-25790819D01*
X106020809Y-25790819D02*
X105925571Y-25933676D01*
X105925571Y-25933676D02*
X105830333Y-26028914D01*
X105830333Y-26028914D02*
X105735095Y-26076533D01*
X107163666Y-26124152D02*
X107163666Y-26790819D01*
X106925571Y-25743200D02*
X106687476Y-26457485D01*
X106687476Y-26457485D02*
X107306523Y-26457485D01*
D11*
%TO.C,FB1*%
X80675000Y-38100000D03*
X82550000Y-38100000D03*
%TD*%
D12*
%TO.C,D5*%
X81280000Y-30970000D03*
X81280000Y-26670000D03*
%TD*%
D13*
%TO.C,D6*%
X85979000Y-23271000D03*
X85979000Y-25146000D03*
%TD*%
D11*
%TO.C,F2*%
X72390000Y-38100000D03*
X74265000Y-38100000D03*
%TD*%
D14*
%TO.C,C5*%
X99695000Y-44577000D03*
X101595000Y-44577000D03*
%TD*%
D15*
%TO.C,U1*%
X101913314Y-53716092D03*
X100963314Y-53716092D03*
X100013314Y-53716092D03*
X100013314Y-55991092D03*
X100963314Y-55991092D03*
X101913314Y-55991092D03*
%TD*%
D16*
%TO.C,C2*%
X96520000Y-54610000D03*
X96520000Y-56510000D03*
%TD*%
D17*
%TO.C,R8*%
X74500000Y-57000000D03*
X74500000Y-58825000D03*
%TD*%
D18*
%TO.C,D3*%
X81595000Y-57355500D03*
X79695000Y-57355500D03*
X80645000Y-59230500D03*
%TD*%
D17*
%TO.C,R14*%
X105918000Y-23114000D03*
X105918000Y-24939000D03*
%TD*%
D19*
%TO.C,R1*%
X95965000Y-59690000D03*
X97790000Y-59690000D03*
%TD*%
%TO.C,R5*%
X100410000Y-59690000D03*
X102235000Y-59690000D03*
%TD*%
D13*
%TO.C,D7*%
X90424000Y-23271000D03*
X90424000Y-25146000D03*
%TD*%
D16*
%TO.C,C1*%
X92075000Y-54361000D03*
X92075000Y-56261000D03*
%TD*%
D20*
%TO.C,R12*%
X90805000Y-29765000D03*
X90805000Y-27940000D03*
%TD*%
D21*
%TO.C,U3*%
X135636000Y-53975000D03*
X135636000Y-52705000D03*
X135636000Y-51435000D03*
X135636000Y-50165000D03*
X130686000Y-50165000D03*
X130686000Y-51435000D03*
X130686000Y-52705000D03*
X130686000Y-53975000D03*
%TD*%
D22*
%TO.C,R2*%
X97710000Y-63500000D03*
X95885000Y-63500000D03*
%TD*%
%TO.C,R3*%
X107235000Y-63500000D03*
X105410000Y-63500000D03*
%TD*%
D23*
%TO.C,L1*%
X96774000Y-37664000D03*
X96774000Y-42164000D03*
%TD*%
D17*
%TO.C,R6*%
X87000000Y-57000000D03*
X87000000Y-58825000D03*
%TD*%
D24*
%TO.C,C7*%
X84250000Y-46000000D03*
X82350000Y-46000000D03*
%TD*%
D21*
%TO.C,U2*%
X83000000Y-54405000D03*
X83000000Y-53135000D03*
X83000000Y-51865000D03*
X83000000Y-50595000D03*
X78050000Y-50595000D03*
X78050000Y-51865000D03*
X78050000Y-53135000D03*
X78050000Y-54405000D03*
%TD*%
D25*
%TO.C,C9*%
X139192000Y-52277000D03*
X139192000Y-50377000D03*
%TD*%
D13*
%TO.C,D9*%
X103505000Y-23064000D03*
X103505000Y-24939000D03*
%TD*%
D16*
%TO.C,C8*%
X87000000Y-51500000D03*
X87000000Y-53400000D03*
%TD*%
D24*
%TO.C,C6*%
X102230000Y-63500000D03*
X100330000Y-63500000D03*
%TD*%
D17*
%TO.C,R7*%
X74500000Y-51000000D03*
X74500000Y-52825000D03*
%TD*%
%TO.C,R13*%
X99949000Y-23194000D03*
X99949000Y-25019000D03*
%TD*%
D24*
%TO.C,C3*%
X107188000Y-55880000D03*
X105288000Y-55880000D03*
%TD*%
D13*
%TO.C,D8*%
X96393000Y-23271000D03*
X96393000Y-25146000D03*
%TD*%
D22*
%TO.C,R4*%
X107235000Y-59690000D03*
X105410000Y-59690000D03*
%TD*%
D20*
%TO.C,R11*%
X86995000Y-29845000D03*
X86995000Y-28020000D03*
%TD*%
D26*
%TO.C,D4*%
X74126970Y-31088174D03*
X74126970Y-27088174D03*
%TD*%
D20*
%TO.C,R9*%
X143256000Y-52197000D03*
X143256000Y-50372000D03*
%TD*%
D14*
%TO.C,C4*%
X99695000Y-49149000D03*
X101595000Y-49149000D03*
%TD*%
D27*
%TO.C,J3*%
X121047677Y-23188631D03*
X126087677Y-23188631D03*
X121047677Y-25728631D03*
X126087677Y-25728631D03*
X121047677Y-28268631D03*
X126087677Y-28268631D03*
X121047677Y-30808631D03*
X126087677Y-30808631D03*
X121047677Y-33348631D03*
X126087677Y-33348631D03*
X121047677Y-35888631D03*
X126087677Y-35888631D03*
X121047677Y-38428631D03*
X126087677Y-38428631D03*
X121047677Y-40968631D03*
X126087677Y-40968631D03*
X121047677Y-43508631D03*
X126087677Y-43508631D03*
X121047677Y-46048631D03*
X126087677Y-46048631D03*
X121047677Y-48588631D03*
X126087677Y-48588631D03*
X121047677Y-51128631D03*
X126087677Y-51128631D03*
X121047677Y-53668631D03*
X126087677Y-53668631D03*
X121047677Y-56208631D03*
X126087677Y-56208631D03*
X121047677Y-58748631D03*
X126087677Y-58748631D03*
%TD*%
D20*
%TO.C,R10*%
X141224000Y-52197000D03*
X141224000Y-50372000D03*
%TD*%
D27*
%TO.C,J4*%
X148975664Y-23183966D03*
X154015664Y-23183966D03*
X148975664Y-25723966D03*
X154015664Y-25723966D03*
X148975664Y-28263966D03*
X154015664Y-28263966D03*
X148975664Y-30803966D03*
X154015664Y-30803966D03*
X148975664Y-33343966D03*
X154015664Y-33343966D03*
X148975664Y-35883966D03*
X154015664Y-35883966D03*
X148975664Y-38423966D03*
X154015664Y-38423966D03*
X148975664Y-40963966D03*
X154015664Y-40963966D03*
X148975664Y-43503966D03*
X154015664Y-43503966D03*
X148975664Y-46043966D03*
X154015664Y-46043966D03*
X148975664Y-48583966D03*
X154015664Y-48583966D03*
X148975664Y-51123966D03*
X154015664Y-51123966D03*
X148975664Y-53663966D03*
X154015664Y-53663966D03*
X148975664Y-56203966D03*
X154015664Y-56203966D03*
X148975664Y-58743966D03*
X154015664Y-58743966D03*
%TD*%
M02*
