M48
; DRILL file KiCad 10.0.3 date 2026-06-24T19:40:28
; FORMAT={-:-/ absolute / metric / decimal}
; #@! TF.CreationDate,2026-06-24T19:40:28+02:00
; #@! TF.GenerationSoftware,Kicad,Pcbnew,10.0.3
; #@! TF.FileFunction,Plated,1,2,PTH
FMAT,2
METRIC
; #@! TA.AperFunction,Plated,PTH,ViaDrill
T1C0.300
; #@! TA.AperFunction,Plated,PTH,ComponentDrill
T2C1.020
%
G90
G05
T1
X58.293Y-42.164
X58.293Y-49.403
X58.293Y-62.611
X58.42Y-34.798
X58.547Y-57.023
X58.928Y-29.591
X59.309Y-26.797
X60.325Y-53.975
X60.579Y-36.449
X60.833Y-46.609
X61.849Y-61.976
X62.23Y-43.561
X62.357Y-22.225
X62.738Y-66.675
X62.992Y-40.132
X63.627Y-29.337
X64.135Y-35.814
X64.389Y-55.118
X64.643Y-32.512
X65.024Y-43.688
X65.278Y-46.355
X65.532Y-40.386
X65.913Y-25.019
X66.802Y-62.23
X66.929Y-66.675
X67.884Y-29.614
X68.464Y-21.836
X69.088Y-57.912
X69.596Y-26.797
X70.231Y-41.021
X70.993Y-46.355
X71.374Y-63.627
X71.501Y-36.068
X71.628Y-54.229
X71.628Y-66.548
X72.263Y-50.546
X72.517Y-27.432
X73.025Y-42.418
X73.569Y-58.838
X74.803Y-54.483
X75.692Y-62.738
X75.795Y-21.836
X76.2Y-66.675
X76.708Y-48.768
X77.216Y-27.94
X77.343Y-57.912
X77.47Y-42.672
X77.724Y-24.003
X77.978Y-46.228
X77.978Y-56.769
X79.248Y-44.323
X79.248Y-47.752
X79.629Y-55.753
X79.629Y-60.071
X79.756Y-51.308
X81.153Y-42.164
X81.534Y-53.213
X81.534Y-55.753
X81.788Y-44.323
X81.959Y-65.487
X82.55Y-49.276
X82.55Y-55.753
X82.804Y-24.13
X83.127Y-21.836
X83.312Y-47.371
X84.074Y-27.051
X84.201Y-57.404
X84.597Y-50.912
X84.836Y-53.135
X85.09Y-55.626
X85.344Y-63.373
X85.471Y-58.674
X85.598Y-48.768
X86.995Y-54.864
X87.122Y-42.926
X87.122Y-66.167
X87.376Y-23.368
X87.681Y-61.417
X88.773Y-27.94
X88.9Y-56.896
X88.951Y-60.3
X89.027Y-45.593
X89.154Y-50.546
X89.281Y-38.354
X89.281Y-53.721
X89.408Y-33.782
X90.119Y-64.008
X90.424Y-58.42
X91.821Y-26.543
X91.948Y-23.368
X92.1Y-63.449
X92.202Y-38.608
X92.583Y-32.131
X92.71Y-60.706
X93.015Y-66.751
X93.599Y-57.531
X94.107Y-62.103
X94.234Y-55.88
X94.894Y-65.583
X96.139Y-35.179
X96.52Y-57.912
X96.647Y-37.846
X96.647Y-61.595
X98.044Y-31.623
X98.196Y-22.301
X98.552Y-66.904
X99.873Y-65.634
X100.457Y-28.067
X100.963Y-53.34
X100.965Y-52.705
X101.854Y-61.341
X102.362Y-37.846
X102.461Y-53.823
X102.489Y-40.767
X102.616Y-51.689
X102.997Y-47.371
X103.124Y-58.801
X103.378Y-60.198
X103.378Y-61.595
X103.886Y-31.877
X105.461Y-65.583
X105.664Y-40.894
X105.664Y-53.467
X105.791Y-35.052
X106.172Y-45.593
X106.299Y-28.067
X107.747Y-66.7
X108.661Y-63.551
X108.966Y-32.131
X109.093Y-41.148
X109.474Y-22.2
X109.474Y-53.721
X109.601Y-38.1
X109.601Y-45.72
X109.601Y-50.038
X110.388Y-61.824
X110.49Y-64.211
X111.555Y-31.369
X112.573Y-57.252
X112.624Y-32.969
X112.674Y-42.113
X112.674Y-46.99
X112.725Y-37.897
X112.725Y-50.8
X113.03Y-59.792
X113.538Y-27.686
X115.621Y-61.874
X116.383Y-65.938
X116.586Y-48.006
X116.713Y-22.733
X116.967Y-54.483
X117.246Y-59.842
X117.253Y-47.244
X117.348Y-49.022
X117.475Y-33.401
X117.686Y-44.764
X117.804Y-45.992
X118.567Y-62.382
X119.888Y-65.583
X120.904Y-61.925
X122.174Y-39.497
X123.139Y-36.932
X123.393Y-65.532
X123.444Y-44.196
X127.508Y-61.976
X127.762Y-32.055
X128.321Y-28.143
X128.372Y-26.822
X128.397Y-53.848
X128.422Y-38.964
X128.473Y-30.328
X128.524Y-55.499
X128.651Y-52.07
X128.905Y-58.801
X129.083Y-57.252
X129.134Y-34.95
X129.134Y-65.583
X129.159Y-23.241
X130.302Y-21.844
X130.429Y-45.466
X130.556Y-32.258
X130.556Y-34.036
X130.556Y-46.99
X131.267Y-30.277
X132.588Y-61.925
X132.639Y-31.09
X132.944Y-33.325
X132.994Y-46.228
X133.147Y-38.964
X133.858Y-27.737
X133.909Y-51.359
X134.01Y-65.634
X134.468Y-57.252
X134.874Y-44.196
X135.077Y-37.084
X135.331Y-30.734
X135.89Y-46.33
X136.144Y-27.584
X136.246Y-24.943
X136.855Y-21.793
X136.957Y-42.164
X137.541Y-49.403
X137.77Y-28.245
X138.074Y-37.084
X138.582Y-55.016
X138.887Y-42.215
X138.887Y-57.302
X139.446Y-65.634
X139.598Y-26.924
X139.751Y-61.925
X139.852Y-30.632
X140.005Y-46.38
X140.818Y-44.145
X141.122Y-37.084
X141.478Y-41.554
X142.494Y-24.13
X142.494Y-43.129
X142.799Y-46.076
X143.002Y-27.076
X143.713Y-65.583
X143.916Y-30.48
X144.424Y-21.742
X144.475Y-37.084
X145.034Y-41.554
X145.085Y-57.048
X145.288Y-52.426
X145.542Y-42.977
X145.796Y-37.846
X145.796Y-39.497
X145.847Y-46.33
X146.05Y-48.768
X146.253Y-44.653
X146.406Y-54.915
X146.558Y-33.426
X146.558Y-35.712
X146.609Y-27.076
X146.609Y-30.836
X147.574Y-61.925
X147.701Y-50.165
X147.828Y-44.806
X148.184Y-65.735
X151.282Y-65.583
X151.333Y-57.455
X151.384Y-27.127
X151.435Y-54.356
X151.486Y-46.787
X152.756Y-44.755
X153.518Y-65.532
X153.873Y-61.925
X154.051Y-49.53
X156.337Y-23.114
X156.464Y-39.243
X156.464Y-65.329
X157.226Y-58.801
X157.277Y-27.127
X157.277Y-61.824
X157.328Y-21.641
X158.902Y-28.854
X159.055Y-38.456
X159.055Y-48.971
X159.106Y-45.314
X159.156Y-52.883
X159.207Y-33.02
X159.207Y-56.54
X159.258Y-59.792
X159.614Y-62.586
X161.138Y-25.095
X161.29Y-50.495
X161.29Y-61.265
X161.341Y-28.6
X161.341Y-32.766
X161.341Y-38.303
X161.341Y-44.298
X161.341Y-56.744
T2
X66.55Y-31.52
X66.55Y-34.52
X66.55Y-49.3
X66.55Y-52.3
X69.55Y-31.52
X69.55Y-34.52
X69.55Y-49.3
X69.55Y-52.3
M30
