%TF.GenerationSoftware,KiCad,Pcbnew,10.0.3*%
%TF.CreationDate,2026-05-31T17:21:45+02:00*%
%TF.ProjectId,carrier,63617272-6965-4722-9e6b-696361645f70,rev?*%
%TF.SameCoordinates,Original*%
%TF.FileFunction,Copper,L2,Bot*%
%TF.FilePolarity,Positive*%
%FSLAX46Y46*%
G04 Gerber Fmt 4.6, Leading zero omitted, Abs format (unit mm)*
G04 Created by KiCad (PCBNEW 10.0.3) date 2026-05-31 17:21:45*
%MOMM*%
%LPD*%
G01*
G04 APERTURE LIST*
G04 Aperture macros list*
%AMRoundRect*
0 Rectangle with rounded corners*
0 $1 Rounding radius*
0 $2 $3 $4 $5 $6 $7 $8 $9 X,Y pos of 4 corners*
0 Add a 4 corners polygon primitive as box body*
4,1,4,$2,$3,$4,$5,$6,$7,$8,$9,$2,$3,0*
0 Add four circle primitives for the rounded corners*
1,1,$1+$1,$2,$3*
1,1,$1+$1,$4,$5*
1,1,$1+$1,$6,$7*
1,1,$1+$1,$8,$9*
0 Add four rect primitives between the rounded corners*
20,1,$1+$1,$2,$3,$4,$5,0*
20,1,$1+$1,$4,$5,$6,$7,0*
20,1,$1+$1,$6,$7,$8,$9,0*
20,1,$1+$1,$8,$9,$2,$3,0*%
G04 Aperture macros list end*
%TA.AperFunction,ComponentPad*%
%ADD10RoundRect,0.250001X0.499999X-0.499999X0.499999X0.499999X-0.499999X0.499999X-0.499999X-0.499999X0*%
%TD*%
%TA.AperFunction,ComponentPad*%
%ADD11C,1.500000*%
%TD*%
%TA.AperFunction,SMDPad,CuDef*%
%ADD12R,3.000000X1.000000*%
%TD*%
%TA.AperFunction,ViaPad*%
%ADD13C,0.600000*%
%TD*%
%TA.AperFunction,ViaPad*%
%ADD14C,0.250250*%
%TD*%
%TA.AperFunction,Conductor*%
%ADD15C,0.600000*%
%TD*%
%TA.AperFunction,Conductor*%
%ADD16C,0.101702*%
%TD*%
%TA.AperFunction,Conductor*%
%ADD17C,0.200000*%
%TD*%
%TA.AperFunction,Conductor*%
%ADD18C,0.500000*%
%TD*%
%TA.AperFunction,Conductor*%
%ADD19C,0.106680*%
%TD*%
%TA.AperFunction,Conductor*%
%ADD20C,0.141671*%
%TD*%
G04 APERTURE END LIST*
D10*
%TO.P,J2,1,Pin_1_1*%
%TO.N,Net-(J1-Pin_1)*%
X66550000Y-52300000D03*
D11*
%TO.P,J2,2,Pin_2_2*%
%TO.N,GND*%
X66550000Y-49300000D03*
%TO.P,J2,3,Pin_3_3*%
%TO.N,CAN_H*%
X69550000Y-52300000D03*
%TO.P,J2,4,Pin_4_4*%
%TO.N,CAN_L*%
X69550000Y-49300000D03*
%TD*%
D10*
%TO.P,J1,1,Pin_1_1*%
%TO.N,Net-(J1-Pin_1)*%
X66550000Y-34520000D03*
D11*
%TO.P,J1,2,Pin_2_2*%
%TO.N,GND*%
X66550000Y-31520000D03*
%TO.P,J1,3,Pin_3_3*%
%TO.N,CAN_H*%
X69550000Y-34520000D03*
%TO.P,J1,4,Pin_4_4*%
%TO.N,CAN_L*%
X69550000Y-31520000D03*
%TD*%
D12*
%TO.P,J6,1,Pin_1_1*%
%TO.N,+3.3V*%
X150661929Y-30226364D03*
%TO.P,J6,2,Pin_2_2*%
%TO.N,GND*%
X155701929Y-30226364D03*
%TO.P,J6,3,Pin_3_3*%
%TO.N,STRAP_0*%
X150661929Y-32766364D03*
%TO.P,J6,4,Pin_4_4*%
%TO.N,STRAP_1*%
X155701929Y-32766364D03*
%TO.P,J6,5,Pin_5_5*%
%TO.N,STRAP_2*%
X150661929Y-35306364D03*
%TO.P,J6,6,Pin_6_6*%
%TO.N,GND*%
X155701929Y-35306364D03*
%TO.P,J6,7,Pin_7_7*%
%TO.N,unconnected-(J6-Pin_7-Pad7)*%
X150661929Y-37846364D03*
%TO.P,J6,8,Pin_8_8*%
%TO.N,GND*%
X155701929Y-37846364D03*
%TO.P,J6,9,Pin_9_9*%
X150661929Y-40386364D03*
%TO.P,J6,10,Pin_10_10*%
%TO.N,ADC_1*%
X155701929Y-40386364D03*
%TO.P,J6,11,Pin_11_11*%
%TO.N,GND*%
X150661929Y-42926364D03*
%TO.P,J6,12,Pin_12_12*%
%TO.N,ADC_2*%
X155701929Y-42926364D03*
%TO.P,J6,13,Pin_13_13*%
%TO.N,GND*%
X150661929Y-45466364D03*
%TO.P,J6,14,Pin_14_14*%
%TO.N,unconnected-(J6-Pin_14-Pad14)*%
X155701929Y-45466364D03*
%TO.P,J6,15,Pin_15_15*%
%TO.N,GND*%
X150661929Y-48006364D03*
%TO.P,J6,16,Pin_16_16*%
X155701929Y-48006364D03*
%TD*%
%TO.P,J5,1,Pin_1_1*%
%TO.N,+3.3V*%
X120063000Y-30234000D03*
%TO.P,J5,2,Pin_2_2*%
%TO.N,unconnected-(J5-Pin_2-Pad2)*%
X125103000Y-30234000D03*
%TO.P,J5,3,Pin_3_3*%
%TO.N,GND*%
X120063000Y-32774000D03*
%TO.P,J5,4,Pin_4_4*%
%TO.N,I2C1_SCL*%
X125103000Y-32774000D03*
%TO.P,J5,5,Pin_5_5*%
%TO.N,I2C1_SDA*%
X120063000Y-35314000D03*
%TO.P,J5,6,Pin_6_6*%
%TO.N,GND*%
X125103000Y-35314000D03*
%TO.P,J5,7,Pin_7_7*%
%TO.N,OW_DATA*%
X120063000Y-37854000D03*
%TO.P,J5,8,Pin_8_8*%
%TO.N,GND*%
X125103000Y-37854000D03*
%TO.P,J5,9,Pin_9_9*%
%TO.N,SPI2_SCK*%
X120063000Y-40394000D03*
%TO.P,J5,10,Pin_10_10*%
%TO.N,SPI2_MISO*%
X125103000Y-40394000D03*
%TO.P,J5,11,Pin_11_11*%
%TO.N,SPI2_MOSI*%
X120063000Y-42934000D03*
%TO.P,J5,12,Pin_12_12*%
%TO.N,GND*%
X125103000Y-42934000D03*
%TO.P,J5,13,Pin_13_13*%
%TO.N,SP1_CS1*%
X120063000Y-45474000D03*
%TO.P,J5,14,Pin_14_14*%
%TO.N,SPI_CS2*%
X125103000Y-45474000D03*
%TO.P,J5,15,Pin_15_15*%
%TO.N,USART1_TX*%
X120063000Y-48014000D03*
%TO.P,J5,16,Pin_16_16*%
%TO.N,USART1_RX*%
X125103000Y-48014000D03*
%TO.P,J5,17,Pin_17_17*%
%TO.N,GPIO_3*%
X120063000Y-50554000D03*
%TO.P,J5,18,Pin_18_18*%
%TO.N,GPIO_4*%
X125103000Y-50554000D03*
%TO.P,J5,19,Pin_19_19*%
%TO.N,GND*%
X120063000Y-53094000D03*
%TO.P,J5,20,Pin_20_20*%
%TO.N,PWM_1*%
X125103000Y-53094000D03*
%TO.P,J5,21,Pin_21_21*%
%TO.N,PWM_2*%
X120063000Y-55634000D03*
%TO.P,J5,22,Pin_22_22*%
%TO.N,PWM_3*%
X125103000Y-55634000D03*
%TO.P,J5,23,Pin_23_23*%
%TO.N,PWM_4*%
X120063000Y-58174000D03*
%TO.P,J5,24,Pin_24_24*%
%TO.N,GND*%
X125103000Y-58174000D03*
%TD*%
D13*
%TO.N,GND*%
X89281000Y-53721000D03*
X89154000Y-50546000D03*
X96647000Y-61595000D03*
X88392000Y-61087000D03*
X152654000Y-26035000D03*
X152781000Y-33147000D03*
X133985000Y-46863000D03*
X128778000Y-47625000D03*
D14*
X161419697Y-57434135D03*
D13*
X141224000Y-47752000D03*
X78994000Y-62992000D03*
X76708000Y-48768000D03*
D14*
X143543191Y-65240697D03*
X161419697Y-50102773D03*
D13*
X115697000Y-41275000D03*
X125984000Y-51816000D03*
D14*
X153905867Y-46980289D03*
D13*
X135509000Y-54610000D03*
X125476000Y-64770000D03*
X144907000Y-35941000D03*
X64389000Y-59182000D03*
X131826000Y-41148000D03*
D14*
X150421981Y-48735267D03*
D13*
X148209000Y-64262000D03*
D14*
X73744247Y-57783379D03*
X58293000Y-49403000D03*
D13*
X140589000Y-59182000D03*
D14*
X153554709Y-38708319D03*
D13*
X143764000Y-53213000D03*
X61087000Y-58928000D03*
X123317000Y-44069000D03*
D14*
X73568621Y-58837585D03*
D13*
X159258000Y-56515000D03*
X132207000Y-58166000D03*
X83439000Y-57150000D03*
X82296000Y-42164000D03*
D14*
X155533292Y-36037613D03*
D13*
X107061000Y-61595000D03*
X65024000Y-43688000D03*
D14*
X128031022Y-49813163D03*
D13*
X136144000Y-49784000D03*
X148336000Y-28829000D03*
X105918000Y-66929000D03*
D14*
X137297107Y-40421414D03*
X150874552Y-65240697D03*
D13*
X114300000Y-52959000D03*
D14*
X129159000Y-56642000D03*
D13*
X83312000Y-47371000D03*
D14*
X144205124Y-38399651D03*
D13*
X121666000Y-28448000D03*
D14*
X151489901Y-56280000D03*
D13*
X101854000Y-61341000D03*
X83058000Y-44069000D03*
X71882000Y-66040000D03*
X145796000Y-27305000D03*
X87122000Y-42926000D03*
X69850000Y-55499000D03*
D14*
X126832274Y-58194468D03*
D13*
X103124000Y-58801000D03*
X69088000Y-57912000D03*
X75692000Y-62738000D03*
D14*
X62357000Y-22225000D03*
X155557697Y-38583209D03*
X152391294Y-42906501D03*
D13*
X70358000Y-23114000D03*
X154940000Y-31115000D03*
X103886000Y-52324000D03*
X66802000Y-62230000D03*
X77724000Y-65659000D03*
X77978000Y-56769000D03*
X87122000Y-66167000D03*
X151638000Y-39116000D03*
D14*
X113792000Y-46101000D03*
X132409125Y-27319108D03*
X58420000Y-34798000D03*
D13*
X146558000Y-53848000D03*
D14*
X90424000Y-58420000D03*
X152042084Y-21590000D03*
D13*
X137922000Y-24765000D03*
D14*
X128270000Y-42418000D03*
D13*
X142367000Y-58928000D03*
X108077000Y-52324000D03*
X115570000Y-59436000D03*
D14*
X119889631Y-33504500D03*
D13*
X121539000Y-59563000D03*
D14*
X88900000Y-56896000D03*
D13*
X152654000Y-46609000D03*
X105918000Y-58039000D03*
X159131000Y-42672000D03*
X71628000Y-58928000D03*
X117856000Y-65278000D03*
X71628000Y-54229000D03*
X124968000Y-28702000D03*
X159258000Y-47625000D03*
X141732000Y-60452000D03*
X138557000Y-47371000D03*
D14*
X161419697Y-35440050D03*
D13*
X152527000Y-60579000D03*
D14*
X71501000Y-36068000D03*
D13*
X113157000Y-29210000D03*
X103378000Y-61595000D03*
X85090000Y-55626000D03*
D14*
X150985400Y-41115284D03*
X90457865Y-21836000D03*
X74632752Y-50133789D03*
D13*
X96520000Y-57912000D03*
D14*
X109982000Y-53594000D03*
D13*
X128651000Y-30226000D03*
X133985000Y-30988000D03*
D14*
X137795000Y-51562000D03*
X142002242Y-29985289D03*
D13*
X121412000Y-31750000D03*
X69596000Y-26797000D03*
X140970000Y-40005000D03*
X93091000Y-66294000D03*
D14*
X68463780Y-21836000D03*
X144145555Y-64003763D03*
D13*
X116078000Y-32766000D03*
D14*
X120581623Y-52060289D03*
D13*
X77216000Y-43815000D03*
X124968000Y-41656000D03*
X106807000Y-49149000D03*
X110236000Y-66929000D03*
D14*
X111576311Y-21590000D03*
D13*
X103378000Y-60198000D03*
X92710000Y-60706000D03*
D14*
X65214151Y-42601583D03*
X155829000Y-62611000D03*
X121174034Y-26681429D03*
D13*
X116459000Y-62357000D03*
X118237000Y-39116000D03*
D14*
X140044486Y-63165203D03*
D13*
X140716000Y-50546000D03*
X121666000Y-33274000D03*
X110109000Y-57531000D03*
X101346000Y-66548000D03*
X125349000Y-59563000D03*
X81661000Y-63246000D03*
D14*
X59309000Y-26797000D03*
D13*
X145034000Y-51181000D03*
X137922000Y-42418000D03*
X141986000Y-53848000D03*
X62230000Y-43561000D03*
X63754000Y-66040000D03*
X131572000Y-37973000D03*
X77978000Y-45974000D03*
D14*
X155135145Y-26783249D03*
X154999320Y-25750233D03*
X130138434Y-34419181D03*
D13*
X60452000Y-41148000D03*
X72136000Y-43180000D03*
X106680000Y-52070000D03*
X142113000Y-24003000D03*
X87376000Y-23368000D03*
X91948000Y-26543000D03*
X65913000Y-25019000D03*
X72263000Y-50546000D03*
X62611000Y-47117000D03*
X159512000Y-28829000D03*
X148971000Y-36576000D03*
X159385000Y-33147000D03*
X115697000Y-26543000D03*
X84074000Y-27051000D03*
D14*
X124380417Y-25723570D03*
D13*
X118364000Y-28702000D03*
X108839000Y-59436000D03*
X79756000Y-51308000D03*
X113411000Y-61722000D03*
D14*
X58293000Y-42164000D03*
D13*
X77216000Y-27940000D03*
X70231000Y-41021000D03*
D14*
X57710903Y-64044015D03*
D13*
X89027000Y-45593000D03*
D14*
X126092266Y-60558899D03*
X155255616Y-29200289D03*
D13*
X64135000Y-35814000D03*
D14*
X120384909Y-53823281D03*
X126832276Y-35675841D03*
X121549106Y-65240697D03*
D13*
X93599000Y-57531000D03*
X109347000Y-55499000D03*
X152400000Y-50800000D03*
X125349000Y-54229000D03*
X133731000Y-33782000D03*
X129413000Y-54991000D03*
X70993000Y-46355000D03*
X91948000Y-23368000D03*
D14*
X154467485Y-29324550D03*
D13*
X62992000Y-40132000D03*
D14*
X154721101Y-61263624D03*
X67296248Y-65486697D03*
D13*
X84836000Y-53135000D03*
D14*
X142099781Y-52972441D03*
D13*
X125984000Y-34036000D03*
D14*
X82085688Y-55049973D03*
D13*
X136144000Y-60452000D03*
D14*
X122716638Y-21590000D03*
X103631014Y-48926905D03*
D13*
X122682000Y-65913000D03*
D14*
X81958971Y-65486697D03*
D13*
X64389000Y-55118000D03*
X115316000Y-47752000D03*
D14*
X74549000Y-64516000D03*
D13*
X61849000Y-61976000D03*
D14*
X114850932Y-56207687D03*
D13*
X60579000Y-36449000D03*
X63627000Y-29337000D03*
X81661000Y-53594000D03*
X123444000Y-56896000D03*
D14*
X143138825Y-45698562D03*
D13*
X129032000Y-25908000D03*
X82550000Y-49276000D03*
X152400000Y-57404000D03*
X141605000Y-56261000D03*
X82804000Y-24130000D03*
X131953000Y-61087000D03*
X85344000Y-63373000D03*
D14*
X119910611Y-33981904D03*
X156040041Y-30955267D03*
D13*
X159004000Y-52070000D03*
X94234000Y-55880000D03*
X109474000Y-43688000D03*
D14*
X75795142Y-21836000D03*
D13*
X147447000Y-34544000D03*
D14*
X128880467Y-65240697D03*
D13*
X115443000Y-28702000D03*
D14*
X87327417Y-54131323D03*
D13*
X120777000Y-38989000D03*
D14*
X152391268Y-45445657D03*
D13*
X123952000Y-49149000D03*
X94107000Y-62103000D03*
X110998000Y-64008000D03*
D14*
X155702000Y-22733000D03*
X161419697Y-42771412D03*
X144710723Y-21590000D03*
D13*
X146431000Y-39497000D03*
X153543000Y-36322000D03*
X113792000Y-34163000D03*
X116586000Y-58039000D03*
X155448000Y-59309000D03*
D14*
X136211829Y-65240697D03*
D13*
X65532000Y-40386000D03*
X118491000Y-31369000D03*
D14*
X137379361Y-21590000D03*
D13*
X146431000Y-61595000D03*
X71374000Y-63627000D03*
X122174000Y-25781000D03*
X64643000Y-32512000D03*
D14*
X102461177Y-53822642D03*
D13*
X60325000Y-53975000D03*
X85598000Y-48768000D03*
X113030000Y-56769000D03*
D14*
X72953861Y-27319366D03*
D13*
X85979000Y-54737000D03*
D14*
X117094000Y-22479000D03*
X120135980Y-43787711D03*
D13*
X138938000Y-53721000D03*
X118618000Y-41656000D03*
X108839000Y-58166000D03*
X74803000Y-54483000D03*
X159004000Y-60325000D03*
D14*
X130048000Y-21590000D03*
X155451956Y-48735403D03*
D13*
X77343000Y-57912000D03*
X114808000Y-37846000D03*
X104775000Y-43180000D03*
X88773000Y-27940000D03*
D14*
X126832362Y-42952728D03*
X83126503Y-21836000D03*
D13*
X58928000Y-29591000D03*
X155575000Y-64770000D03*
D14*
X126832336Y-37978717D03*
D13*
X123063000Y-33655000D03*
X79248000Y-47752000D03*
D14*
X129957191Y-33976584D03*
X67884153Y-29613710D03*
D13*
X109982000Y-50800000D03*
X122047000Y-60960000D03*
X143383000Y-42799000D03*
X140843000Y-27432000D03*
D14*
X119158377Y-25706498D03*
D13*
X111252000Y-25527000D03*
X153162000Y-30734000D03*
X145288000Y-47117000D03*
X77724000Y-24003000D03*
D14*
X89290333Y-65486697D03*
D13*
X149606000Y-59436000D03*
X146685000Y-59055000D03*
X128524000Y-62357000D03*
D14*
X148069289Y-25302361D03*
D13*
X128524000Y-23622000D03*
X125095000Y-36449000D03*
X152400000Y-53848000D03*
D14*
%TO.N,+3.3V*%
X151671473Y-29496731D03*
X133245474Y-27726159D03*
X115703670Y-30783330D03*
D13*
%TO.N,Net-(U1-SW)*%
X98230788Y-39208865D03*
X100262788Y-36668865D03*
X101278788Y-39208865D03*
X99246788Y-39208865D03*
X100965000Y-52705000D03*
X101278788Y-36668865D03*
X96198788Y-39208865D03*
X94166788Y-39208865D03*
X100262788Y-38192865D03*
X100262788Y-37430865D03*
X100262788Y-39208865D03*
X101278788Y-37430865D03*
X100963314Y-53340000D03*
X95182788Y-39208865D03*
X97214788Y-39208865D03*
X96647000Y-37846000D03*
X101278788Y-38192865D03*
D14*
%TO.N,CAN_L*%
X80793870Y-55716651D03*
%TO.N,CAN_H*%
X80437114Y-55705531D03*
%TO.N,CAN_RX*%
X114983000Y-57345548D03*
X84248713Y-50563105D03*
%TO.N,LED_CAN*%
X143983999Y-54333313D03*
X146902901Y-48972576D03*
%TO.N,OW_DATA*%
X148821711Y-49644733D03*
%TO.N,SPI_CS2*%
X135890154Y-45397387D03*
%TO.N,SP1_CS1*%
X132050257Y-46638260D03*
%TO.N,STRAP_0*%
X152316766Y-34156740D03*
%TO.N,ADC_1*%
X152406149Y-40300000D03*
%TO.N,STRAP_2*%
X153150147Y-39112881D03*
%TO.N,PWM_3*%
X143654880Y-39522033D03*
%TO.N,ADC_2*%
X156860602Y-39309531D03*
%TO.N,PWM_4*%
X128432904Y-51348844D03*
%TO.N,I2C1_SDA*%
X142772910Y-52567878D03*
X117593604Y-57976006D03*
%TO.N,I2C1_SCL*%
X122821948Y-36479759D03*
%TO.N,GPIO_3*%
X122527447Y-48926326D03*
%TO.N,USART1_RX*%
X121619671Y-46455838D03*
%TO.N,USART1_TX*%
X122329504Y-47775383D03*
%TO.N,PWM_1*%
X121895943Y-50478336D03*
%TO.N,PWM_2*%
X121271373Y-54792187D03*
%TO.N,SPI2_MISO*%
X121688651Y-38620482D03*
%TO.N,SPI2_MOSI*%
X121901848Y-39365820D03*
%TO.N,GPIO_4*%
X126266983Y-49793892D03*
%TO.N,SPI2_SCK*%
X123135551Y-30893866D03*
%TD*%
%TO.N,Net-(U1-SW)*%
D15*
X101346000Y-39276077D02*
X101278788Y-39208865D01*
X101346000Y-52324000D02*
X101346000Y-39276077D01*
X100963314Y-52706686D02*
X100963314Y-53340000D01*
X101346000Y-52324000D02*
X100963314Y-52706686D01*
%TO.N,GND*%
D16*
X155533292Y-36037613D02*
X155597578Y-36037613D01*
X126755680Y-42934000D02*
X126603000Y-42934000D01*
X126832274Y-58194468D02*
X126811806Y-58174000D01*
X152314680Y-42926000D02*
X152371795Y-42926000D01*
X150662000Y-40386000D02*
X150985400Y-40386000D01*
D17*
X154353000Y-35314000D02*
X155623000Y-35314000D01*
X118793000Y-32774000D02*
X120063000Y-32774000D01*
D16*
X126832336Y-37930657D02*
X126832336Y-37978717D01*
X152162000Y-45466000D02*
X152314680Y-45466000D01*
X120063000Y-33274000D02*
X120063000Y-32774000D01*
X155451956Y-48735403D02*
X155451956Y-48006000D01*
X126603000Y-58174000D02*
X125103000Y-58174000D01*
X152162000Y-42926000D02*
X152314680Y-42926000D01*
X120063000Y-33401191D02*
X120063000Y-33274000D01*
X155557697Y-38583209D02*
X155617470Y-38583209D01*
X126813634Y-42934000D02*
X126755680Y-42934000D01*
X125103000Y-35675841D02*
X125103000Y-35314000D01*
X156040041Y-30955267D02*
X156040041Y-30226000D01*
X155702000Y-38498680D02*
X155702000Y-38346000D01*
X156040041Y-30226000D02*
X155702000Y-30226000D01*
X155451956Y-48006000D02*
X155702000Y-48006000D01*
X152370925Y-45466000D02*
X152391268Y-45445657D01*
X126811806Y-58174000D02*
X126755680Y-58174000D01*
X152371795Y-42926000D02*
X152391294Y-42906501D01*
X125103000Y-37854000D02*
X126603000Y-37854000D01*
X119889631Y-33504500D02*
X119959691Y-33504500D01*
X126832276Y-35675841D02*
X125103000Y-35675841D01*
X120384909Y-53094000D02*
X120063000Y-53094000D01*
X150662000Y-48006000D02*
X150421981Y-48006000D01*
X155702000Y-35806000D02*
X155702000Y-35306000D01*
X150662000Y-42926000D02*
X152162000Y-42926000D01*
X155597578Y-36037613D02*
X155702000Y-35933191D01*
X119959691Y-33504500D02*
X120063000Y-33401191D01*
X126755680Y-37854000D02*
X126832336Y-37930657D01*
X150421981Y-48006000D02*
X150421981Y-48735267D01*
X155617470Y-38583209D02*
X155702000Y-38498680D01*
X126603000Y-37854000D02*
X126755680Y-37854000D01*
X155702000Y-35933191D02*
X155702000Y-35806000D01*
X155702000Y-38346000D02*
X155702000Y-37846000D01*
X152314680Y-45466000D02*
X152370925Y-45466000D01*
X126832362Y-42952728D02*
X126813634Y-42934000D01*
X126755680Y-58174000D02*
X126603000Y-58174000D01*
X120384909Y-53823281D02*
X120384909Y-53094000D01*
X150662000Y-45466000D02*
X152162000Y-45466000D01*
X150985400Y-40386000D02*
X150985400Y-41115284D01*
X126603000Y-42934000D02*
X125103000Y-42934000D01*
%TO.N,+3.3V*%
D18*
X118072686Y-30552356D02*
X118391042Y-30234000D01*
D19*
X121563000Y-30234000D02*
X120063000Y-30234000D01*
X151671473Y-29496731D02*
X151671473Y-30226000D01*
D18*
X115934644Y-30552356D02*
X118072686Y-30552356D01*
D19*
X133245474Y-27726159D02*
X124373355Y-27726159D01*
D18*
X118391042Y-30234000D02*
X120063000Y-30234000D01*
D19*
X124373355Y-27726159D02*
X121865514Y-30234000D01*
X151671473Y-30226000D02*
X150662000Y-30226000D01*
D18*
X115703670Y-30783330D02*
X115934644Y-30552356D01*
D19*
X121865514Y-30234000D02*
X121563000Y-30234000D01*
%TO.N,CAN_L*%
D20*
X69784432Y-32643476D02*
X69550000Y-32508126D01*
X69550000Y-32275000D02*
X69550000Y-31520000D01*
X70803733Y-33033196D02*
X70763447Y-33006278D01*
X70730530Y-32997687D02*
X70172763Y-32931638D01*
X69550000Y-32508126D02*
X69550000Y-32275000D01*
X80739694Y-55712180D02*
X80739754Y-55708311D01*
X70305000Y-49300000D02*
X69550000Y-49300000D01*
X80739754Y-43020652D02*
X80730302Y-42973133D01*
X80793870Y-55716651D02*
X80739607Y-55714960D01*
X70763447Y-33006278D02*
X70730530Y-32997687D01*
X69877602Y-32896686D02*
X69863000Y-32895825D01*
X69863000Y-32895825D02*
X69837089Y-32895825D01*
X80739754Y-55708311D02*
X80739754Y-55705531D01*
X69837089Y-32895825D02*
X69784432Y-32643476D01*
X80739754Y-55705531D02*
X80739754Y-43020652D01*
X70172763Y-32931638D02*
X69877602Y-32896686D01*
X80703384Y-42932847D02*
X70803733Y-33033196D01*
X80730302Y-42973133D02*
X80703384Y-42932847D01*
X80739607Y-55714960D02*
X80739694Y-55712180D01*
%TO.N,CAN_H*%
X69550000Y-33531874D02*
X69550000Y-33765000D01*
X69784432Y-33396524D02*
X69550000Y-33531874D01*
X80491403Y-43072088D02*
X70658567Y-33239252D01*
X80491403Y-55706377D02*
X80491403Y-55705531D01*
X70143558Y-33178266D02*
X69855673Y-33144175D01*
X69550000Y-33765000D02*
X69550000Y-34520000D01*
X80491403Y-55705531D02*
X80491403Y-43072088D01*
X69837089Y-33144175D02*
X69784432Y-33396524D01*
X80491377Y-55707222D02*
X80491403Y-55706377D01*
X80437114Y-55705531D02*
X80491377Y-55707222D01*
X70658567Y-33239252D02*
X70143558Y-33178266D01*
X69855673Y-33144175D02*
X69837089Y-33144175D01*
%TO.N,CAN_RX*%
D16*
X106934000Y-65532000D02*
X114983000Y-57483000D01*
X87703393Y-53975588D02*
X99259805Y-65532000D01*
X114983000Y-57483000D02*
X114983000Y-57345548D01*
X99259805Y-65532000D02*
X106934000Y-65532000D01*
X87703393Y-53975588D02*
X87483152Y-53755347D01*
X87440955Y-53755347D02*
X84248713Y-50563105D01*
X87483152Y-53755347D02*
X87440955Y-53755347D01*
X87703393Y-54017785D02*
X87703393Y-53975588D01*
%TO.N,LED_CAN*%
X143983999Y-54333313D02*
X142474106Y-52823420D01*
X142474106Y-52823420D02*
X142474106Y-52307814D01*
X145809344Y-48972576D02*
X146902901Y-48972576D01*
X142474106Y-52307814D02*
X145809344Y-48972576D01*
%TO.N,OW_DATA*%
X121855869Y-37854000D02*
X123184148Y-39182279D01*
X121563000Y-37854000D02*
X121855869Y-37854000D01*
X120063000Y-37854000D02*
X121563000Y-37854000D01*
X143789529Y-39182279D02*
X148821711Y-44214461D01*
X148821711Y-44214461D02*
X148821711Y-49644733D01*
X123184148Y-39182279D02*
X143789529Y-39182279D01*
%TO.N,SPI_CS2*%
X126895869Y-45474000D02*
X135813542Y-45474000D01*
X125103000Y-45474000D02*
X126603000Y-45474000D01*
X126603000Y-45474000D02*
X126895869Y-45474000D01*
X135813542Y-45474000D02*
X135890154Y-45397387D01*
%TO.N,SP1_CS1*%
X121855869Y-45474000D02*
X121563000Y-45474000D01*
X123020129Y-46638260D02*
X121855869Y-45474000D01*
X132050257Y-46638260D02*
X123020129Y-46638260D01*
X121563000Y-45474000D02*
X120063000Y-45474000D01*
%TO.N,STRAP_0*%
X152316766Y-34156740D02*
X151259872Y-34156740D01*
X150662000Y-33266000D02*
X150662000Y-32766000D01*
X151259872Y-34156740D02*
X150662000Y-33558869D01*
X150662000Y-33558869D02*
X150662000Y-33266000D01*
%TO.N,ADC_1*%
X154202000Y-40386000D02*
X155702000Y-40386000D01*
X152492149Y-40386000D02*
X153909131Y-40386000D01*
X152406149Y-40300000D02*
X152492149Y-40386000D01*
X153909131Y-40386000D02*
X154202000Y-40386000D01*
%TO.N,STRAP_2*%
X153150147Y-38106349D02*
X151692504Y-36648706D01*
X151692504Y-36648706D02*
X151211838Y-36648706D01*
X150662000Y-36098869D02*
X150662000Y-35806000D01*
X153150147Y-39112881D02*
X153150147Y-38106349D01*
X151211838Y-36648706D02*
X150662000Y-36098869D01*
X150662000Y-35806000D02*
X150662000Y-35306000D01*
%TO.N,PWM_3*%
D17*
X123963001Y-55543999D02*
X124053001Y-55634000D01*
D16*
X126603000Y-55634000D02*
X125103000Y-55634000D01*
X137426560Y-45103309D02*
X126895869Y-55634000D01*
X138073603Y-45103309D02*
X137426560Y-45103309D01*
D17*
X124053001Y-55634000D02*
X125143000Y-55634000D01*
D16*
X126895869Y-55634000D02*
X126603000Y-55634000D01*
X143654880Y-39522033D02*
X138073603Y-45103309D01*
%TO.N,ADC_2*%
X156860602Y-39309531D02*
X157434764Y-39883693D01*
X157434764Y-39883693D02*
X157434764Y-40926641D01*
X155702000Y-42426000D02*
X155702000Y-42926000D01*
X157271195Y-41090210D02*
X156744922Y-41090210D01*
X156744922Y-41090210D02*
X155702000Y-42133131D01*
X157434764Y-40926641D02*
X157271195Y-41090210D01*
X155702000Y-42133131D02*
X155702000Y-42426000D01*
%TO.N,PWM_4*%
X120063000Y-57381131D02*
X120063000Y-57674000D01*
X120348748Y-57095383D02*
X120063000Y-57381131D01*
X123532113Y-54943133D02*
X121379863Y-57095383D01*
X125594665Y-54943133D02*
X123532113Y-54943133D01*
X128432904Y-51348844D02*
X128432904Y-52104893D01*
X121379863Y-57095383D02*
X120348748Y-57095383D01*
X120063000Y-57674000D02*
X120063000Y-58174000D01*
X128432904Y-52104893D02*
X125594665Y-54943133D01*
%TO.N,I2C1_SDA*%
X142772910Y-52567878D02*
X147591960Y-52567878D01*
X120063000Y-36055891D02*
X120063000Y-35814000D01*
X117593604Y-57976006D02*
X117593604Y-37691651D01*
X120006509Y-36112382D02*
X120063000Y-36055891D01*
X147591960Y-52567878D02*
X149705839Y-50454000D01*
X119172874Y-36112382D02*
X120006509Y-36112382D01*
D17*
X120063000Y-35314000D02*
X118793000Y-35314000D01*
D16*
X120063000Y-35814000D02*
X120063000Y-35314000D01*
X117593604Y-37691651D02*
X119172874Y-36112382D01*
D17*
X149273000Y-50554000D02*
X150543000Y-50554000D01*
%TO.N,I2C1_SCL*%
D16*
X124241764Y-33621526D02*
X125048343Y-33621526D01*
X122821948Y-36479759D02*
X122821948Y-35041342D01*
X125048343Y-33621526D02*
X125103000Y-33566869D01*
X125103000Y-33566869D02*
X125103000Y-33274000D01*
X125103000Y-33274000D02*
X125103000Y-32774000D01*
D17*
X125143000Y-32774000D02*
X123873000Y-32774000D01*
D16*
X122821948Y-35041342D02*
X124241764Y-33621526D01*
%TO.N,GPIO_3*%
X120063000Y-50554000D02*
X120063000Y-50054000D01*
X120063000Y-49761131D02*
X120897805Y-48926326D01*
X120063000Y-50054000D02*
X120063000Y-49761131D01*
X120897805Y-48926326D02*
X122527447Y-48926326D01*
%TO.N,USART1_RX*%
X122129004Y-46832872D02*
X123310131Y-48014000D01*
X121996705Y-46832872D02*
X122129004Y-46832872D01*
X123310131Y-48014000D02*
X123603000Y-48014000D01*
X123603000Y-48014000D02*
X125103000Y-48014000D01*
X121619671Y-46455838D02*
X121996705Y-46832872D01*
%TO.N,USART1_TX*%
X121563000Y-48014000D02*
X120063000Y-48014000D01*
X121855869Y-48014000D02*
X121563000Y-48014000D01*
X122329504Y-47775383D02*
X122090887Y-48014000D01*
X122090887Y-48014000D02*
X121855869Y-48014000D01*
%TO.N,PWM_1*%
X123427373Y-52009765D02*
X124773401Y-52009765D01*
X124773401Y-52009765D02*
X125103000Y-52339365D01*
X125103000Y-52339365D02*
X125103000Y-52594000D01*
X125103000Y-52594000D02*
X125103000Y-53094000D01*
X121895943Y-50478336D02*
X123427373Y-52009765D01*
%TO.N,PWM_2*%
X120063000Y-55634000D02*
X121271373Y-55634000D01*
X121271373Y-55634000D02*
X121271373Y-54792187D01*
%TO.N,SPI2_MISO*%
X123463065Y-40394000D02*
X123603000Y-40394000D01*
X121688651Y-38620482D02*
X121695189Y-38627021D01*
X121696086Y-38627021D02*
X123463065Y-40394000D01*
X121695189Y-38627021D02*
X121696086Y-38627021D01*
D17*
X125143000Y-40394000D02*
X123873000Y-40394000D01*
D16*
X123603000Y-40394000D02*
X125103000Y-40394000D01*
%TO.N,SPI2_MOSI*%
X120063000Y-42434000D02*
X120063000Y-42141131D01*
X120958006Y-41246125D02*
X121613197Y-41246125D01*
X120063000Y-42934000D02*
X120063000Y-42434000D01*
X121613197Y-41246125D02*
X121901848Y-40957473D01*
X120063000Y-42141131D02*
X120958006Y-41246125D01*
D17*
X120063000Y-42934000D02*
X118793000Y-42934000D01*
D16*
X121901848Y-40957473D02*
X121901848Y-39365820D01*
%TO.N,GPIO_4*%
X126266983Y-50554000D02*
X125103000Y-50554000D01*
X126266983Y-49793892D02*
X126266983Y-50554000D01*
%TO.N,SPI2_SCK*%
X118225558Y-38240348D02*
X118803455Y-38818245D01*
X123135551Y-30893866D02*
X122422751Y-31606666D01*
X119280114Y-38818245D02*
X120063000Y-39601131D01*
X118803455Y-38818245D02*
X119280114Y-38818245D01*
X121034196Y-36582780D02*
X119107823Y-36582780D01*
X122422751Y-35194224D02*
X121034196Y-36582780D01*
X120063000Y-39894000D02*
X120063000Y-40394000D01*
X119107823Y-36582780D02*
X118225558Y-37465045D01*
X122422751Y-31606666D02*
X122422751Y-35194224D01*
X118225558Y-37465045D02*
X118225558Y-38240348D01*
X120063000Y-39601131D02*
X120063000Y-39894000D01*
%TO.N,unconnected-(J6-Pin_7-Pad7)*%
D17*
X149273000Y-37854000D02*
X150543000Y-37854000D01*
%TO.N,unconnected-(J5-Pin_2-Pad2)*%
X123873000Y-30234000D02*
X125143000Y-30234000D01*
%TD*%
%TA.AperFunction,Conductor*%
%TO.N,Net-(U1-SW)*%
G36*
X101625348Y-39147768D02*
G01*
X101625751Y-39153905D01*
X101629977Y-39186005D01*
X101638165Y-39227168D01*
X101637997Y-39227201D01*
X101641000Y-39253300D01*
X101641000Y-39436451D01*
X101624381Y-39498461D01*
X101619495Y-39506922D01*
X101610490Y-39520398D01*
X101560801Y-39585154D01*
X101550106Y-39597349D01*
X101538713Y-39608742D01*
X101526518Y-39619437D01*
X101461762Y-39669126D01*
X101448276Y-39678137D01*
X101434321Y-39686194D01*
X101419773Y-39693368D01*
X101344364Y-39724603D01*
X101329011Y-39729815D01*
X101313440Y-39733988D01*
X101297527Y-39737154D01*
X101211762Y-39748446D01*
X101210424Y-39748622D01*
X101204427Y-39749411D01*
X101196379Y-39750204D01*
X101195848Y-39750238D01*
X101188283Y-39750734D01*
X101180183Y-39751000D01*
X101115011Y-39751000D01*
X101131195Y-39749939D01*
X101142535Y-39748446D01*
X101236361Y-39736093D01*
X101267628Y-39727715D01*
X101358055Y-39690259D01*
X101386088Y-39674074D01*
X101463738Y-39614491D01*
X101486628Y-39591601D01*
X101546211Y-39513951D01*
X101562396Y-39485918D01*
X101599852Y-39395491D01*
X101608230Y-39364224D01*
X101622076Y-39259060D01*
X101622076Y-39259059D01*
X101623137Y-39242874D01*
X101623137Y-39114027D01*
X101625348Y-39147768D01*
G37*
%TD.AperFunction*%
%TA.AperFunction,Conductor*%
G36*
X93081988Y-36408686D02*
G01*
X93084115Y-36405913D01*
X93110531Y-36371489D01*
X93081988Y-36408686D01*
G37*
%TD.AperFunction*%
%TA.AperFunction,Conductor*%
G36*
X101280606Y-36223659D02*
G01*
X101345074Y-36250363D01*
X101280588Y-36223652D01*
X101280606Y-36223659D01*
G37*
%TD.AperFunction*%
%TA.AperFunction,Conductor*%
G36*
X101254079Y-36214653D02*
G01*
X101254097Y-36214658D01*
X101251632Y-36213997D01*
X101254079Y-36214653D01*
G37*
%TD.AperFunction*%
%TA.AperFunction,Conductor*%
G36*
X101222431Y-36208071D02*
G01*
X101222467Y-36208077D01*
X101207152Y-36206060D01*
X101222431Y-36208071D01*
G37*
%TD.AperFunction*%
%TA.AperFunction,Conductor*%
G36*
X101138102Y-36196969D02*
G01*
X101197776Y-36204826D01*
X101138030Y-36196960D01*
X101138102Y-36196969D01*
G37*
%TD.AperFunction*%
%TD*%
%TA.AperFunction,NonConductor*%
G36*
X93487939Y-36195479D02*
G01*
X93487017Y-36195539D01*
X93488053Y-36195471D01*
X93487939Y-36195479D01*
G37*
%TD.AperFunction*%
%TA.AperFunction,NonConductor*%
G36*
X93360365Y-36213535D02*
G01*
X93357727Y-36214241D01*
X93360382Y-36213530D01*
X93360365Y-36213535D01*
G37*
%TD.AperFunction*%
%TA.AperFunction,Conductor*%
%TO.N,Net-(U1-SW)*%
G36*
X101131196Y-36196061D02*
G01*
X101236360Y-36209906D01*
X101267628Y-36218284D01*
X101358055Y-36255740D01*
X101386089Y-36271925D01*
X101463739Y-36331509D01*
X101486628Y-36354398D01*
X101546211Y-36432048D01*
X101562396Y-36460081D01*
X101599852Y-36550508D01*
X101608230Y-36581775D01*
X101622076Y-36686939D01*
X101623137Y-36703125D01*
X101623137Y-39242874D01*
X101622076Y-39259059D01*
X101622076Y-39259060D01*
X101608230Y-39364224D01*
X101599852Y-39395491D01*
X101562396Y-39485918D01*
X101546211Y-39513951D01*
X101486628Y-39591601D01*
X101463738Y-39614491D01*
X101386088Y-39674074D01*
X101358055Y-39690259D01*
X101267628Y-39727715D01*
X101236361Y-39736093D01*
X101142535Y-39748446D01*
X101131195Y-39749939D01*
X101115011Y-39751000D01*
X93495263Y-39751000D01*
X93479078Y-39749939D01*
X93466054Y-39748224D01*
X93373912Y-39736093D01*
X93342645Y-39727715D01*
X93252218Y-39690259D01*
X93224185Y-39674074D01*
X93146535Y-39614491D01*
X93123645Y-39591601D01*
X93064062Y-39513951D01*
X93047877Y-39485918D01*
X93010421Y-39395491D01*
X93002043Y-39364223D01*
X92988198Y-39259059D01*
X92987137Y-39242874D01*
X92987137Y-36703125D01*
X92988198Y-36686940D01*
X93002043Y-36581776D01*
X93002043Y-36581775D01*
X93010421Y-36550508D01*
X93047877Y-36460081D01*
X93064060Y-36432050D01*
X93123650Y-36354392D01*
X93146529Y-36331513D01*
X93224187Y-36271923D01*
X93252216Y-36255740D01*
X93342646Y-36218283D01*
X93373912Y-36209906D01*
X93479078Y-36196061D01*
X93495263Y-36195000D01*
X101115011Y-36195000D01*
X101131196Y-36196061D01*
G37*
%TD.AperFunction*%
%TD*%
%TA.AperFunction,Conductor*%
%TO.N,GND*%
G36*
X135927772Y-45828051D02*
G01*
X135938567Y-45831221D01*
X135953563Y-45840858D01*
X135970667Y-45845880D01*
X135982342Y-45859353D01*
X135997343Y-45868993D01*
X136004749Y-45885210D01*
X136016424Y-45898682D01*
X136018962Y-45916329D01*
X136026370Y-45932549D01*
X136023833Y-45950195D01*
X136026371Y-45967840D01*
X136016429Y-46001704D01*
X136013244Y-46008679D01*
X135988128Y-46044854D01*
X127061434Y-54971546D01*
X127033181Y-54992697D01*
X127020999Y-54999349D01*
X126952726Y-55014201D01*
X126887263Y-54989785D01*
X126876923Y-54982045D01*
X126859279Y-54965267D01*
X126859259Y-54965288D01*
X126858442Y-54964471D01*
X126855835Y-54961992D01*
X126855208Y-54961237D01*
X126855204Y-54961233D01*
X126775765Y-54881794D01*
X126734773Y-54863694D01*
X126672994Y-54836415D01*
X126647869Y-54833500D01*
X126647868Y-54833500D01*
X126647865Y-54833500D01*
X126518375Y-54833500D01*
X126483440Y-54828477D01*
X126472586Y-54825290D01*
X126413808Y-54787516D01*
X126384783Y-54723960D01*
X126385257Y-54720664D01*
X126394723Y-54654811D01*
X126397913Y-54647824D01*
X126423022Y-54611660D01*
X127560490Y-53474193D01*
X128714055Y-52320628D01*
X128760312Y-52240509D01*
X128784256Y-52151149D01*
X128784256Y-52058637D01*
X128784256Y-52051042D01*
X128784256Y-52049358D01*
X128784255Y-52049284D01*
X128784255Y-51641086D01*
X128788479Y-51608996D01*
X128796645Y-51578522D01*
X128809026Y-51548632D01*
X128824837Y-51521245D01*
X128827068Y-51517979D01*
X128827966Y-51516205D01*
X128831238Y-51510158D01*
X128840005Y-51494973D01*
X128838730Y-51489716D01*
X128842813Y-51463530D01*
X128858529Y-51404879D01*
X128858529Y-51292809D01*
X128829524Y-51184559D01*
X128773489Y-51087504D01*
X128694244Y-51008259D01*
X128694242Y-51008258D01*
X128694240Y-51008256D01*
X128635871Y-50974557D01*
X128635870Y-50974556D01*
X128619522Y-50965117D01*
X128597190Y-50952224D01*
X128543064Y-50937721D01*
X128543063Y-50937720D01*
X128488942Y-50923219D01*
X128488939Y-50923219D01*
X128376869Y-50923219D01*
X128376867Y-50923219D01*
X128268615Y-50952224D01*
X128171561Y-51008260D01*
X128171560Y-51008261D01*
X128171555Y-51008265D01*
X128092325Y-51087495D01*
X128092321Y-51087500D01*
X128092320Y-51087501D01*
X128036285Y-51184554D01*
X128036284Y-51184556D01*
X128036284Y-51184557D01*
X128024975Y-51226764D01*
X128024975Y-51226765D01*
X128024974Y-51226764D01*
X128007279Y-51292805D01*
X128007279Y-51404875D01*
X128007278Y-51404875D01*
X128007279Y-51404878D01*
X128007279Y-51404879D01*
X128028485Y-51484024D01*
X128028486Y-51484028D01*
X128028485Y-51484028D01*
X128036277Y-51513103D01*
X128036286Y-51513135D01*
X128056776Y-51548622D01*
X128069164Y-51578528D01*
X128077327Y-51608990D01*
X128081553Y-51641086D01*
X128081553Y-51890165D01*
X128076529Y-51925102D01*
X128069117Y-51950343D01*
X128037822Y-52003087D01*
X127127787Y-52913122D01*
X127113032Y-52924168D01*
X127099537Y-52934271D01*
X127089610Y-52939692D01*
X127021337Y-52954546D01*
X126955872Y-52930132D01*
X126913999Y-52874200D01*
X126911312Y-52866994D01*
X126903499Y-52823674D01*
X126903499Y-52549142D01*
X126903499Y-52549136D01*
X126903497Y-52549117D01*
X126900586Y-52524012D01*
X126900585Y-52524010D01*
X126900585Y-52524009D01*
X126855206Y-52421235D01*
X126775765Y-52341794D01*
X126775763Y-52341792D01*
X126767108Y-52337971D01*
X126767107Y-52337971D01*
X126672993Y-52296415D01*
X126647869Y-52293500D01*
X126647868Y-52293500D01*
X126647865Y-52293500D01*
X125567436Y-52293500D01*
X125567433Y-52293499D01*
X125567432Y-52293500D01*
X125532497Y-52288476D01*
X125515726Y-52283551D01*
X125459225Y-52248328D01*
X125455081Y-52243804D01*
X125431961Y-52207500D01*
X125430409Y-52203754D01*
X125430408Y-52203749D01*
X125420780Y-52187074D01*
X125400039Y-52151148D01*
X125400037Y-52151146D01*
X125384153Y-52123633D01*
X125384149Y-52123628D01*
X125071289Y-51810768D01*
X125061622Y-51801101D01*
X125061620Y-51801098D01*
X124989137Y-51728615D01*
X124989132Y-51728611D01*
X124911262Y-51683653D01*
X124911260Y-51683652D01*
X124909018Y-51682358D01*
X124909014Y-51682357D01*
X124906252Y-51681617D01*
X124906250Y-51681615D01*
X124819660Y-51658414D01*
X124819656Y-51658413D01*
X124719550Y-51658413D01*
X124719534Y-51658414D01*
X123642099Y-51658414D01*
X123642098Y-51658413D01*
X123642098Y-51658414D01*
X123607163Y-51653391D01*
X123581921Y-51645979D01*
X123529176Y-51614683D01*
X123493280Y-51578787D01*
X123472131Y-51550537D01*
X123471086Y-51548623D01*
X123466709Y-51540607D01*
X123451856Y-51472337D01*
X123476270Y-51406872D01*
X123532200Y-51365000D01*
X123536079Y-51363553D01*
X123539415Y-51362310D01*
X123582729Y-51354499D01*
X126647850Y-51354499D01*
X126647864Y-51354499D01*
X126647879Y-51354497D01*
X126647882Y-51354497D01*
X126647888Y-51354496D01*
X126648019Y-51354487D01*
X126648736Y-51354397D01*
X126672987Y-51351586D01*
X126672987Y-51351585D01*
X126672990Y-51351585D01*
X126672991Y-51351585D01*
X126672991Y-51351584D01*
X126673102Y-51351572D01*
X126674862Y-51350758D01*
X126775765Y-51306206D01*
X126855206Y-51226765D01*
X126900585Y-51123991D01*
X126903500Y-51098865D01*
X126903499Y-50009136D01*
X126902324Y-49999006D01*
X126901410Y-49991119D01*
X126901409Y-49991107D01*
X126900587Y-49984016D01*
X126900586Y-49984014D01*
X126900586Y-49984012D01*
X126900585Y-49984010D01*
X126900585Y-49984009D01*
X126855206Y-49881235D01*
X126775765Y-49801794D01*
X126775764Y-49801793D01*
X126775763Y-49801792D01*
X126775764Y-49801792D01*
X126771509Y-49799914D01*
X126771508Y-49799914D01*
X126741581Y-49781210D01*
X126723332Y-49765795D01*
X126690260Y-49721927D01*
X126689599Y-49720458D01*
X126685182Y-49708047D01*
X126684822Y-49707502D01*
X126684815Y-49707017D01*
X126682905Y-49701648D01*
X126682671Y-49700773D01*
X126682669Y-49700766D01*
X126663603Y-49629607D01*
X126607568Y-49532552D01*
X126528323Y-49453307D01*
X126528320Y-49453305D01*
X126528316Y-49453302D01*
X126479795Y-49425288D01*
X126479795Y-49425289D01*
X126431269Y-49397272D01*
X126377143Y-49382769D01*
X126377142Y-49382768D01*
X126323021Y-49368267D01*
X126323018Y-49368267D01*
X126210948Y-49368267D01*
X126210946Y-49368267D01*
X126102694Y-49397272D01*
X126005640Y-49453308D01*
X126005639Y-49453309D01*
X126005634Y-49453313D01*
X125926404Y-49532543D01*
X125926400Y-49532548D01*
X125926399Y-49532549D01*
X125870360Y-49629609D01*
X125866404Y-49644370D01*
X125866405Y-49644372D01*
X125852511Y-49676817D01*
X125844375Y-49690165D01*
X125792675Y-49737163D01*
X125784699Y-49741037D01*
X125730521Y-49753500D01*
X123558143Y-49753500D01*
X123558127Y-49753501D01*
X123558113Y-49753502D01*
X123540255Y-49755573D01*
X123533012Y-49756413D01*
X123533011Y-49756413D01*
X123533005Y-49756414D01*
X123532559Y-49756547D01*
X123530303Y-49757609D01*
X123430236Y-49801792D01*
X123350793Y-49881234D01*
X123305414Y-49984005D01*
X123304844Y-49986710D01*
X123304589Y-49991124D01*
X123302500Y-50009127D01*
X123302500Y-51070815D01*
X123302499Y-51070817D01*
X123302500Y-51070818D01*
X123298807Y-51096499D01*
X123297476Y-51105753D01*
X123294289Y-51116606D01*
X123256514Y-51175383D01*
X123192957Y-51204406D01*
X123123807Y-51194465D01*
X123116829Y-51191278D01*
X123080657Y-51166164D01*
X122351033Y-50436540D01*
X122331328Y-50410860D01*
X122315559Y-50383548D01*
X122303170Y-50353639D01*
X122302305Y-50350409D01*
X122292563Y-50314051D01*
X122236528Y-50216996D01*
X122157283Y-50137751D01*
X122133149Y-50123817D01*
X122105738Y-50107991D01*
X122105736Y-50107990D01*
X122096483Y-50102648D01*
X122060229Y-50081716D01*
X122011071Y-50068544D01*
X121963469Y-50055790D01*
X121958226Y-50053866D01*
X121957236Y-50053133D01*
X121950763Y-50050849D01*
X121922022Y-50038131D01*
X121872901Y-49999006D01*
X121867444Y-49991710D01*
X121853308Y-49967527D01*
X121826173Y-49906073D01*
X121815206Y-49881235D01*
X121735765Y-49801794D01*
X121726260Y-49797597D01*
X121726257Y-49797594D01*
X121726257Y-49797596D01*
X121632994Y-49756415D01*
X121607869Y-49753500D01*
X121607868Y-49753500D01*
X121607865Y-49753500D01*
X120884708Y-49753500D01*
X120849773Y-49748477D01*
X120838919Y-49745290D01*
X120780141Y-49707516D01*
X120751116Y-49643960D01*
X120751590Y-49640664D01*
X120761056Y-49574811D01*
X120764246Y-49567824D01*
X120789355Y-49531660D01*
X120994415Y-49326600D01*
X121022665Y-49305452D01*
X121045757Y-49292844D01*
X121105182Y-49277677D01*
X122235202Y-49277677D01*
X122267295Y-49281902D01*
X122297760Y-49290065D01*
X122327666Y-49302452D01*
X122363162Y-49322946D01*
X122471412Y-49351951D01*
X122471414Y-49351951D01*
X122583480Y-49351951D01*
X122583482Y-49351951D01*
X122691732Y-49322946D01*
X122788787Y-49266911D01*
X122868032Y-49187666D01*
X122924067Y-49090611D01*
X122953072Y-48982361D01*
X122953072Y-48870291D01*
X122924067Y-48762041D01*
X122868032Y-48664986D01*
X122788787Y-48585741D01*
X122721601Y-48546951D01*
X122691733Y-48529706D01*
X122630275Y-48513239D01*
X122624192Y-48511609D01*
X122624184Y-48511606D01*
X122583483Y-48500701D01*
X122583482Y-48500701D01*
X122471412Y-48500701D01*
X122471410Y-48500701D01*
X122453969Y-48505374D01*
X122425962Y-48512878D01*
X122409689Y-48516089D01*
X122404736Y-48516726D01*
X122398846Y-48515789D01*
X122390958Y-48516357D01*
X122390942Y-48517067D01*
X122388911Y-48517019D01*
X122388923Y-48516504D01*
X122378212Y-48517276D01*
X122371843Y-48516724D01*
X122349232Y-48507900D01*
X122335733Y-48505754D01*
X122329523Y-48500209D01*
X122306754Y-48491324D01*
X122265729Y-48434767D01*
X122261794Y-48365008D01*
X122296199Y-48304196D01*
X122306300Y-48295471D01*
X122306617Y-48295153D01*
X122306622Y-48295151D01*
X122371311Y-48230461D01*
X122396981Y-48210764D01*
X122424295Y-48194995D01*
X122454194Y-48182611D01*
X122493789Y-48172003D01*
X122590844Y-48115968D01*
X122652749Y-48054061D01*
X122680996Y-48032917D01*
X122694716Y-48025425D01*
X122762973Y-48010575D01*
X122764783Y-48010704D01*
X122822983Y-48030072D01*
X122829496Y-48034258D01*
X122850136Y-48050891D01*
X123094396Y-48295151D01*
X123174515Y-48341408D01*
X123193380Y-48346463D01*
X123225818Y-48360354D01*
X123239166Y-48368490D01*
X123286160Y-48420183D01*
X123290035Y-48428159D01*
X123302501Y-48482346D01*
X123302501Y-48558856D01*
X123302502Y-48558880D01*
X123305414Y-48583993D01*
X123305546Y-48584438D01*
X123306609Y-48586696D01*
X123329632Y-48638839D01*
X123350793Y-48686764D01*
X123350794Y-48686765D01*
X123430235Y-48766206D01*
X123533009Y-48811585D01*
X123558135Y-48814500D01*
X126647864Y-48814499D01*
X126647879Y-48814497D01*
X126647882Y-48814497D01*
X126647888Y-48814496D01*
X126648019Y-48814487D01*
X126648736Y-48814397D01*
X126672987Y-48811586D01*
X126672987Y-48811585D01*
X126672990Y-48811585D01*
X126672991Y-48811585D01*
X126672991Y-48811584D01*
X126673102Y-48811572D01*
X126674862Y-48810758D01*
X126775765Y-48766206D01*
X126855206Y-48686765D01*
X126900585Y-48583991D01*
X126903500Y-48558865D01*
X126903499Y-47469136D01*
X126903497Y-47469117D01*
X126900586Y-47444012D01*
X126900585Y-47444010D01*
X126900585Y-47444009D01*
X126855206Y-47341235D01*
X126775765Y-47261794D01*
X126713375Y-47234246D01*
X126709603Y-47231060D01*
X126683449Y-47215542D01*
X126676169Y-47209393D01*
X126666340Y-47194516D01*
X126659999Y-47189160D01*
X126651236Y-47171655D01*
X126637655Y-47151097D01*
X126636773Y-47081233D01*
X126673803Y-47021982D01*
X126729079Y-46993661D01*
X126732550Y-46992883D01*
X126733778Y-46992609D01*
X126735486Y-46992419D01*
X126736049Y-46992122D01*
X126737259Y-46992223D01*
X126760879Y-46989611D01*
X131758012Y-46989611D01*
X131790104Y-46993836D01*
X131820570Y-47001999D01*
X131850466Y-47014380D01*
X131861662Y-47020844D01*
X131861665Y-47020847D01*
X131861666Y-47020847D01*
X131872996Y-47027388D01*
X131885972Y-47034880D01*
X131994222Y-47063885D01*
X131994224Y-47063885D01*
X132106290Y-47063885D01*
X132106292Y-47063885D01*
X132214542Y-47034880D01*
X132311597Y-46978845D01*
X132390842Y-46899600D01*
X132446877Y-46802545D01*
X132475882Y-46694295D01*
X132475882Y-46582225D01*
X132446877Y-46473975D01*
X132390842Y-46376920D01*
X132311597Y-46297675D01*
X132253182Y-46263949D01*
X132245013Y-46259232D01*
X132214544Y-46241640D01*
X132187480Y-46234388D01*
X132160417Y-46227137D01*
X132160416Y-46227136D01*
X132106295Y-46212635D01*
X132106292Y-46212635D01*
X131994222Y-46212635D01*
X131885971Y-46241640D01*
X131885969Y-46241640D01*
X131850474Y-46262134D01*
X131820570Y-46274520D01*
X131790107Y-46282683D01*
X131758012Y-46286909D01*
X127001457Y-46286909D01*
X126966518Y-46281885D01*
X126953200Y-46277974D01*
X126894423Y-46240198D01*
X126865401Y-46176641D01*
X126865400Y-46176639D01*
X126864715Y-46171870D01*
X126874020Y-46104151D01*
X126900585Y-46043991D01*
X126903500Y-46018865D01*
X126903500Y-45960058D01*
X126905810Y-45949469D01*
X126904783Y-45942265D01*
X126912585Y-45918412D01*
X126914401Y-45910087D01*
X126914367Y-45910074D01*
X126914447Y-45909875D01*
X126914767Y-45908412D01*
X126916277Y-45905113D01*
X126916750Y-45904225D01*
X126916865Y-45903830D01*
X126918361Y-45900567D01*
X126919214Y-45899583D01*
X126919703Y-45898665D01*
X126919915Y-45898777D01*
X126939595Y-45876120D01*
X126959759Y-45850787D01*
X126959798Y-45850759D01*
X126961332Y-45849681D01*
X126963317Y-45848810D01*
X126964179Y-45847818D01*
X126968379Y-45846590D01*
X127006282Y-45829966D01*
X127014487Y-45828182D01*
X127040833Y-45825351D01*
X135767284Y-45825351D01*
X135767288Y-45825352D01*
X135826036Y-45825351D01*
X135838739Y-45829081D01*
X135867979Y-45825232D01*
X135867980Y-45825233D01*
X135876662Y-45824090D01*
X135927772Y-45828051D01*
G37*
%TD.AperFunction*%
%TA.AperFunction,Conductor*%
G36*
X121179081Y-38659521D02*
G01*
X121192235Y-38663383D01*
X121191909Y-38664490D01*
X121201762Y-38669771D01*
X121215947Y-38672453D01*
X121240488Y-38690528D01*
X121244770Y-38692823D01*
X121246983Y-38694918D01*
X121247250Y-38695226D01*
X121248715Y-38696558D01*
X121249630Y-38697424D01*
X121266571Y-38726527D01*
X121284155Y-38755377D01*
X121292029Y-38784763D01*
X121292030Y-38784766D01*
X121292031Y-38784767D01*
X121348066Y-38881822D01*
X121427311Y-38961067D01*
X121467047Y-38984008D01*
X121494789Y-39005825D01*
X121505577Y-39017139D01*
X121537593Y-39079241D01*
X121537599Y-39079274D01*
X121537941Y-39081051D01*
X121534289Y-39142238D01*
X121531934Y-39149606D01*
X121521209Y-39173853D01*
X121505227Y-39201533D01*
X121504742Y-39203346D01*
X121504740Y-39203347D01*
X121476223Y-39309783D01*
X121476223Y-39421855D01*
X121477284Y-39429914D01*
X121476945Y-39429958D01*
X121479966Y-39455237D01*
X121479635Y-39469110D01*
X121458357Y-39535661D01*
X121404490Y-39580137D01*
X121396673Y-39583485D01*
X121347853Y-39593500D01*
X120537679Y-39593500D01*
X120502738Y-39588475D01*
X120487739Y-39584070D01*
X120472746Y-39574435D01*
X120455653Y-39569419D01*
X120428977Y-39546309D01*
X120423170Y-39539609D01*
X120397099Y-39490489D01*
X120390407Y-39465514D01*
X120356848Y-39407388D01*
X120344153Y-39385399D01*
X120344149Y-39385394D01*
X119837542Y-38878787D01*
X119816393Y-38850537D01*
X119810971Y-38840607D01*
X119796118Y-38772337D01*
X119820532Y-38706872D01*
X119876462Y-38665000D01*
X119880341Y-38663553D01*
X119883677Y-38662310D01*
X119926991Y-38654499D01*
X121144149Y-38654499D01*
X121179081Y-38659521D01*
G37*
%TD.AperFunction*%
%TA.AperFunction,Conductor*%
G36*
X112405534Y-21333521D02*
G01*
X112416387Y-21336707D01*
X112431388Y-21346346D01*
X112448498Y-21351370D01*
X112460170Y-21364840D01*
X112475168Y-21374477D01*
X112482576Y-21390697D01*
X112494254Y-21404173D01*
X112496790Y-21421816D01*
X112504197Y-21438031D01*
X112501660Y-21455682D01*
X112504198Y-21473332D01*
X112494259Y-21507181D01*
X112494258Y-21507190D01*
X112494255Y-21507196D01*
X112492732Y-21510531D01*
X112455424Y-21557396D01*
X112391152Y-21606714D01*
X112391143Y-21606721D01*
X112205723Y-21792142D01*
X112205714Y-21792152D01*
X112046074Y-22000195D01*
X111914967Y-22227281D01*
X111914954Y-22227305D01*
X111814602Y-22469578D01*
X111761263Y-22668647D01*
X111746731Y-22722881D01*
X111746729Y-22722892D01*
X111712500Y-22982871D01*
X111712500Y-23245133D01*
X111725008Y-23340127D01*
X111725008Y-23340128D01*
X111732248Y-23395123D01*
X111746730Y-23505116D01*
X111800072Y-23704191D01*
X111814602Y-23758418D01*
X111814605Y-23758428D01*
X111881503Y-23919936D01*
X111914954Y-24000693D01*
X111914967Y-24000717D01*
X112046074Y-24227803D01*
X112205718Y-24435851D01*
X112205721Y-24435855D01*
X112391120Y-24621255D01*
X112391142Y-24621276D01*
X112391148Y-24621281D01*
X112599195Y-24780924D01*
X112826281Y-24912031D01*
X112826291Y-24912036D01*
X112826299Y-24912041D01*
X112826309Y-24912046D01*
X113068571Y-25012394D01*
X113068581Y-25012398D01*
X113321884Y-25080270D01*
X113581880Y-25114500D01*
X113581887Y-25114500D01*
X113844113Y-25114500D01*
X113844120Y-25114500D01*
X114104116Y-25080270D01*
X114357419Y-25012398D01*
X114599697Y-24912043D01*
X114826803Y-24780924D01*
X115034851Y-24621282D01*
X115034855Y-24621277D01*
X115034860Y-24621274D01*
X115093949Y-24562185D01*
X115215433Y-24440702D01*
X115216209Y-24440006D01*
X115219758Y-24436385D01*
X115220257Y-24435880D01*
X115220267Y-24435866D01*
X115220274Y-24435860D01*
X115220277Y-24435855D01*
X115220282Y-24435851D01*
X115220398Y-24435699D01*
X115220624Y-24435411D01*
X115220628Y-24435407D01*
X115224074Y-24430993D01*
X115224574Y-24430256D01*
X115379924Y-24227803D01*
X115511043Y-24000697D01*
X115523493Y-23970639D01*
X115533509Y-23946462D01*
X115610780Y-23759910D01*
X115611292Y-23758715D01*
X115611394Y-23758428D01*
X115611398Y-23758419D01*
X115679270Y-23505116D01*
X115713500Y-23245120D01*
X115713500Y-22982880D01*
X115679270Y-22722884D01*
X115611398Y-22469581D01*
X115611394Y-22469571D01*
X115511046Y-22227309D01*
X115511041Y-22227299D01*
X115511031Y-22227281D01*
X115379924Y-22000195D01*
X115220281Y-21792148D01*
X115220276Y-21792142D01*
X115220255Y-21792120D01*
X115034855Y-21606721D01*
X115034851Y-21606718D01*
X114976221Y-21561729D01*
X114976216Y-21561725D01*
X114951565Y-21536480D01*
X114944892Y-21527341D01*
X114921257Y-21461593D01*
X114936921Y-21393502D01*
X114986911Y-21344688D01*
X114986924Y-21344681D01*
X114990166Y-21342961D01*
X115048280Y-21328500D01*
X158037635Y-21328500D01*
X158072562Y-21333521D01*
X158083415Y-21336707D01*
X158098411Y-21346343D01*
X158115517Y-21351364D01*
X158127194Y-21364837D01*
X158142196Y-21374477D01*
X158149602Y-21390693D01*
X158161277Y-21404163D01*
X158163816Y-21421811D01*
X158171225Y-21438031D01*
X158168689Y-21455676D01*
X158171228Y-21473321D01*
X158161287Y-21507186D01*
X158159500Y-21511100D01*
X158131020Y-21549798D01*
X158131280Y-21550058D01*
X158129570Y-21551767D01*
X158129409Y-21551987D01*
X158128855Y-21552482D01*
X157943433Y-21737905D01*
X157943424Y-21737915D01*
X157783784Y-21945958D01*
X157652677Y-22173044D01*
X157652664Y-22173068D01*
X157552312Y-22415341D01*
X157506217Y-22587375D01*
X157484441Y-22668644D01*
X157484439Y-22668655D01*
X157458761Y-22863691D01*
X157450210Y-22928635D01*
X157450210Y-23190890D01*
X157469474Y-23337207D01*
X157484440Y-23450879D01*
X157498973Y-23505116D01*
X157552312Y-23704183D01*
X157552314Y-23704188D01*
X157552315Y-23704191D01*
X157574777Y-23758418D01*
X157652664Y-23946456D01*
X157652677Y-23946480D01*
X157783784Y-24173566D01*
X157943428Y-24381614D01*
X157943431Y-24381618D01*
X158128830Y-24567018D01*
X158128852Y-24567039D01*
X158128858Y-24567044D01*
X158336905Y-24726687D01*
X158563991Y-24857794D01*
X158564001Y-24857799D01*
X158564009Y-24857804D01*
X158564019Y-24857809D01*
X158806281Y-24958157D01*
X158806291Y-24958161D01*
X159059594Y-25026033D01*
X159319590Y-25060263D01*
X159319597Y-25060263D01*
X159581823Y-25060263D01*
X159581830Y-25060263D01*
X159841826Y-25026033D01*
X160095129Y-24958161D01*
X160314530Y-24867282D01*
X160333390Y-24859469D01*
X160335240Y-24858780D01*
X160335707Y-24858570D01*
X160338066Y-24857550D01*
X160340873Y-24855804D01*
X160564513Y-24726687D01*
X160772561Y-24567045D01*
X160772565Y-24567040D01*
X160772570Y-24567037D01*
X160777422Y-24562185D01*
X160953143Y-24386465D01*
X160953919Y-24385769D01*
X160957468Y-24382148D01*
X160957967Y-24381643D01*
X160957977Y-24381629D01*
X160957984Y-24381623D01*
X160957987Y-24381618D01*
X160957992Y-24381614D01*
X160958108Y-24381462D01*
X160958334Y-24381174D01*
X160958338Y-24381170D01*
X160961784Y-24376756D01*
X160962284Y-24376019D01*
X161117634Y-24173566D01*
X161217438Y-24000700D01*
X161248752Y-23946462D01*
X161248756Y-23946453D01*
X161275824Y-23881103D01*
X161349108Y-23704182D01*
X161416980Y-23450879D01*
X161429236Y-23357781D01*
X161438778Y-23323812D01*
X161441106Y-23318551D01*
X161486234Y-23265211D01*
X161553037Y-23244737D01*
X161620304Y-23263629D01*
X161666679Y-23315889D01*
X161678500Y-23368728D01*
X161678500Y-64844135D01*
X161673474Y-64879079D01*
X161671853Y-64884598D01*
X161634074Y-64943373D01*
X161570516Y-64972393D01*
X161501359Y-64962444D01*
X161448558Y-64916685D01*
X161429940Y-64865840D01*
X161427082Y-64844135D01*
X161421119Y-64798839D01*
X161399270Y-64632884D01*
X161331398Y-64379581D01*
X161274497Y-64242210D01*
X161231046Y-64137309D01*
X161231041Y-64137299D01*
X161220345Y-64118772D01*
X161099924Y-63910195D01*
X160940281Y-63702148D01*
X160940276Y-63702142D01*
X160940255Y-63702120D01*
X160754855Y-63516721D01*
X160754851Y-63516718D01*
X160546803Y-63357074D01*
X160319717Y-63225967D01*
X160319693Y-63225954D01*
X160081474Y-63127281D01*
X160081467Y-63127278D01*
X160077425Y-63125603D01*
X159885931Y-63074293D01*
X159824116Y-63057730D01*
X159766339Y-63050123D01*
X159564128Y-63023500D01*
X159564127Y-63023500D01*
X159564120Y-63023500D01*
X159301880Y-63023500D01*
X159301872Y-63023500D01*
X159301864Y-63023500D01*
X159070773Y-63053925D01*
X159070772Y-63053926D01*
X159041892Y-63057729D01*
X159041884Y-63057730D01*
X158788578Y-63125602D01*
X158546305Y-63225954D01*
X158546281Y-63225967D01*
X158319195Y-63357074D01*
X158111152Y-63516714D01*
X158111142Y-63516723D01*
X157925723Y-63702142D01*
X157925714Y-63702152D01*
X157766074Y-63910195D01*
X157634967Y-64137281D01*
X157634954Y-64137305D01*
X157534602Y-64379578D01*
X157466731Y-64632881D01*
X157466729Y-64632892D01*
X157432500Y-64892871D01*
X157432500Y-65155133D01*
X157450445Y-65291423D01*
X157453436Y-65314140D01*
X157466730Y-65415116D01*
X157488178Y-65495161D01*
X157534602Y-65668418D01*
X157534605Y-65668428D01*
X157565661Y-65743404D01*
X157634954Y-65910693D01*
X157634967Y-65910717D01*
X157766074Y-66137803D01*
X157925718Y-66345851D01*
X157925721Y-66345855D01*
X158111120Y-66531255D01*
X158111142Y-66531276D01*
X158111148Y-66531281D01*
X158319195Y-66690924D01*
X158546281Y-66822031D01*
X158546291Y-66822036D01*
X158546299Y-66822041D01*
X158546309Y-66822046D01*
X158788571Y-66922394D01*
X158788581Y-66922398D01*
X159041884Y-66990270D01*
X159301880Y-67024500D01*
X159301887Y-67024500D01*
X159564113Y-67024500D01*
X159564120Y-67024500D01*
X159824116Y-66990270D01*
X160077419Y-66922398D01*
X160319697Y-66822043D01*
X160546803Y-66690924D01*
X160754851Y-66531282D01*
X160754855Y-66531277D01*
X160754860Y-66531274D01*
X160847078Y-66439056D01*
X160935433Y-66350702D01*
X160936209Y-66350006D01*
X160939758Y-66346385D01*
X160940257Y-66345880D01*
X160940267Y-66345866D01*
X160940274Y-66345860D01*
X160940277Y-66345855D01*
X160940282Y-66345851D01*
X160940398Y-66345699D01*
X160940624Y-66345411D01*
X160940628Y-66345407D01*
X160944074Y-66340993D01*
X160944574Y-66340256D01*
X161099924Y-66137803D01*
X161231043Y-65910697D01*
X161331398Y-65668419D01*
X161399270Y-65415116D01*
X161429236Y-65187504D01*
X161438778Y-65153534D01*
X161441106Y-65148273D01*
X161486234Y-65094933D01*
X161553037Y-65074459D01*
X161620304Y-65093351D01*
X161666679Y-65145611D01*
X161678500Y-65198450D01*
X161678500Y-67175670D01*
X161673475Y-67210614D01*
X161669070Y-67225612D01*
X161631327Y-67284355D01*
X161629958Y-67285542D01*
X161575097Y-67313018D01*
X161567539Y-67314663D01*
X161541168Y-67317500D01*
X60615675Y-67317500D01*
X60613600Y-67316890D01*
X60611507Y-67317430D01*
X60580739Y-67312477D01*
X60572106Y-67309942D01*
X60557106Y-67300302D01*
X60548636Y-67297815D01*
X60536981Y-67287368D01*
X60513328Y-67272167D01*
X60484304Y-67208610D01*
X60494248Y-67139452D01*
X60534511Y-67090390D01*
X60538677Y-67087386D01*
X60545983Y-67083312D01*
X60547703Y-67081458D01*
X60550685Y-67080690D01*
X60563736Y-67073411D01*
X60572659Y-67069715D01*
X60574522Y-67069020D01*
X60574986Y-67068812D01*
X60578412Y-67067332D01*
X60593909Y-67060913D01*
X60601722Y-67053595D01*
X60803803Y-66936924D01*
X61011851Y-66777282D01*
X61011855Y-66777277D01*
X61011860Y-66777274D01*
X61098210Y-66690924D01*
X61192433Y-66596702D01*
X61193209Y-66596006D01*
X61196758Y-66592385D01*
X61197257Y-66591880D01*
X61197267Y-66591866D01*
X61197274Y-66591860D01*
X61197277Y-66591855D01*
X61197282Y-66591851D01*
X61197398Y-66591699D01*
X61197624Y-66591411D01*
X61197628Y-66591407D01*
X61201074Y-66586993D01*
X61201574Y-66586256D01*
X61356924Y-66383803D01*
X61488043Y-66156697D01*
X61588398Y-65914419D01*
X61656270Y-65661116D01*
X61690500Y-65401120D01*
X61690500Y-65138880D01*
X61656270Y-64878884D01*
X61588398Y-64625581D01*
X61490204Y-64388520D01*
X61490203Y-64388516D01*
X61488049Y-64383316D01*
X61488048Y-64383314D01*
X61488046Y-64383309D01*
X61488041Y-64383299D01*
X61488031Y-64383281D01*
X61356924Y-64156195D01*
X61197281Y-63948148D01*
X61197276Y-63948142D01*
X61197255Y-63948120D01*
X61011855Y-63762721D01*
X61011851Y-63762718D01*
X60803803Y-63603074D01*
X60576717Y-63471967D01*
X60576693Y-63471954D01*
X60338474Y-63373281D01*
X60338467Y-63373278D01*
X60334425Y-63371603D01*
X60142931Y-63320293D01*
X60081116Y-63303730D01*
X60023339Y-63296123D01*
X59821128Y-63269500D01*
X59821127Y-63269500D01*
X59821120Y-63269500D01*
X59558880Y-63269500D01*
X59558872Y-63269500D01*
X59558864Y-63269500D01*
X59327773Y-63299925D01*
X59327772Y-63299926D01*
X59298892Y-63303729D01*
X59298884Y-63303730D01*
X59099797Y-63357075D01*
X59045578Y-63371602D01*
X58803305Y-63471954D01*
X58803281Y-63471967D01*
X58576195Y-63603074D01*
X58368152Y-63762714D01*
X58368142Y-63762723D01*
X58182723Y-63948142D01*
X58182714Y-63948152D01*
X58023079Y-64156189D01*
X58023076Y-64156194D01*
X58017796Y-64165339D01*
X58006269Y-64176805D01*
X57999714Y-64189364D01*
X57995978Y-64193081D01*
X57987796Y-64200882D01*
X57975909Y-64207009D01*
X57971859Y-64211039D01*
X57962948Y-64216123D01*
X57954209Y-64218195D01*
X57925692Y-64232896D01*
X57901836Y-64230617D01*
X57894965Y-64232247D01*
X57886046Y-64229108D01*
X57856139Y-64226252D01*
X57838498Y-64212378D01*
X57829056Y-64209056D01*
X57820826Y-64198480D01*
X57801219Y-64183060D01*
X57801177Y-64183000D01*
X57800820Y-64182498D01*
X57792226Y-64161726D01*
X57786147Y-64153914D01*
X57785352Y-64145111D01*
X57779585Y-64131172D01*
X57779213Y-64128957D01*
X57777500Y-64108419D01*
X57777500Y-50685258D01*
X60479500Y-50685258D01*
X60479500Y-50914741D01*
X60491601Y-51006651D01*
X60509452Y-51142238D01*
X60565545Y-51351584D01*
X60568842Y-51363887D01*
X60568847Y-51363899D01*
X60656648Y-51575872D01*
X60656652Y-51575881D01*
X60656655Y-51575887D01*
X60656657Y-51575890D01*
X60771392Y-51774617D01*
X60771395Y-51774621D01*
X60771399Y-51774627D01*
X60911079Y-51956659D01*
X60911081Y-51956661D01*
X60911089Y-51956670D01*
X60992253Y-52037834D01*
X61073335Y-52118916D01*
X61073338Y-52118918D01*
X61073339Y-52118919D01*
X61106075Y-52144038D01*
X61241986Y-52248328D01*
X61255596Y-52258771D01*
X61257259Y-52259692D01*
X61362803Y-52320627D01*
X61454112Y-52373344D01*
X61454117Y-52373346D01*
X61454172Y-52373373D01*
X61454726Y-52373598D01*
X61545480Y-52411190D01*
X61545481Y-52411191D01*
X61605796Y-52436174D01*
X61666113Y-52461158D01*
X61887762Y-52520548D01*
X62115266Y-52550500D01*
X62115273Y-52550500D01*
X62344727Y-52550500D01*
X62344734Y-52550500D01*
X62572238Y-52520548D01*
X62793887Y-52461158D01*
X63005888Y-52373344D01*
X63204612Y-52258611D01*
X63386661Y-52118919D01*
X63386665Y-52118914D01*
X63386670Y-52118911D01*
X63467747Y-52037834D01*
X63544070Y-51961512D01*
X63544840Y-51960822D01*
X63548422Y-51957167D01*
X63548895Y-51956689D01*
X63548905Y-51956675D01*
X63548911Y-51956670D01*
X63548914Y-51956665D01*
X63548919Y-51956661D01*
X63549028Y-51956518D01*
X63549322Y-51956143D01*
X63549322Y-51956142D01*
X63552716Y-51951795D01*
X63553216Y-51951061D01*
X63586262Y-51907995D01*
X63688611Y-51774612D01*
X63698837Y-51756900D01*
X65499500Y-51756900D01*
X65499500Y-52843091D01*
X65504669Y-52886144D01*
X65510122Y-52931560D01*
X65525913Y-52971602D01*
X65552553Y-53039159D01*
X65565640Y-53072344D01*
X65657076Y-53192922D01*
X65732741Y-53250300D01*
X65777655Y-53284359D01*
X65777658Y-53284361D01*
X65918436Y-53339876D01*
X66006901Y-53350500D01*
X67093098Y-53350499D01*
X67181564Y-53339876D01*
X67322342Y-53284361D01*
X67442922Y-53192922D01*
X67534361Y-53072342D01*
X67589876Y-52931564D01*
X67600500Y-52843099D01*
X67600499Y-52196527D01*
X68499500Y-52196527D01*
X68499500Y-52403470D01*
X68539862Y-52606386D01*
X68539866Y-52606405D01*
X68539868Y-52606412D01*
X68539870Y-52606420D01*
X68619058Y-52797596D01*
X68727047Y-52959215D01*
X68734025Y-52969658D01*
X68734028Y-52969662D01*
X68880336Y-53115970D01*
X68880340Y-53115973D01*
X68880342Y-53115975D01*
X68880345Y-53115977D01*
X68880349Y-53115980D01*
X68880348Y-53115980D01*
X68880411Y-53116032D01*
X68880448Y-53116046D01*
X69052402Y-53230941D01*
X69243580Y-53310130D01*
X69434540Y-53348114D01*
X69443559Y-53349908D01*
X69445794Y-53350409D01*
X69446532Y-53350500D01*
X69653466Y-53350500D01*
X69657586Y-53350500D01*
X69665435Y-53348118D01*
X69856420Y-53310130D01*
X70047598Y-53230941D01*
X70219655Y-53115977D01*
X70266045Y-53069587D01*
X70365976Y-52969657D01*
X70391430Y-52931561D01*
X70480941Y-52797598D01*
X70560130Y-52606420D01*
X70598963Y-52411191D01*
X70600500Y-52403466D01*
X70600500Y-52196534D01*
X70600499Y-52196530D01*
X70595330Y-52170543D01*
X70560130Y-51993580D01*
X70480941Y-51802402D01*
X70366046Y-51630449D01*
X70366036Y-51630417D01*
X70365980Y-51630348D01*
X70365980Y-51630349D01*
X70365976Y-51630343D01*
X70365970Y-51630336D01*
X70219659Y-51484025D01*
X70069131Y-51383447D01*
X70069132Y-51383447D01*
X70062823Y-51379232D01*
X70047598Y-51369059D01*
X70012447Y-51354499D01*
X69856420Y-51289870D01*
X69856412Y-51289868D01*
X69856404Y-51289866D01*
X69856394Y-51289864D01*
X69653471Y-51249500D01*
X69653469Y-51249500D01*
X69653465Y-51249500D01*
X69446535Y-51249500D01*
X69446530Y-51249500D01*
X69446528Y-51249500D01*
X69243604Y-51289864D01*
X69243579Y-51289870D01*
X69052404Y-51369057D01*
X68880337Y-51484027D01*
X68734027Y-51630337D01*
X68619057Y-51802404D01*
X68539870Y-51993579D01*
X68539864Y-51993604D01*
X68499500Y-52196527D01*
X67600499Y-52196527D01*
X67600499Y-51756902D01*
X67589876Y-51668436D01*
X67534361Y-51527658D01*
X67529507Y-51521257D01*
X67523345Y-51513130D01*
X67523345Y-51513131D01*
X67442922Y-51407076D01*
X67322347Y-51315642D01*
X67322346Y-51315641D01*
X67322344Y-51315640D01*
X67322342Y-51315639D01*
X67181564Y-51260124D01*
X67181561Y-51260123D01*
X67181560Y-51260122D01*
X67181558Y-51260122D01*
X67093101Y-51249500D01*
X67093099Y-51249500D01*
X66006908Y-51249500D01*
X65971029Y-51253807D01*
X65918438Y-51260122D01*
X65777654Y-51315640D01*
X65657076Y-51407076D01*
X65565641Y-51527651D01*
X65565329Y-51528243D01*
X65564414Y-51530762D01*
X65528399Y-51622094D01*
X65528398Y-51622096D01*
X65516918Y-51651205D01*
X65516917Y-51651211D01*
X65510124Y-51668437D01*
X65510123Y-51668438D01*
X65499500Y-51756900D01*
X63698837Y-51756900D01*
X63803344Y-51575888D01*
X63891158Y-51363887D01*
X63950548Y-51142238D01*
X63980500Y-50914734D01*
X63980500Y-50685266D01*
X63950548Y-50457762D01*
X63891158Y-50236113D01*
X63891153Y-50236102D01*
X63835875Y-50102648D01*
X63814319Y-50050608D01*
X63803349Y-50024123D01*
X63803346Y-50024117D01*
X63803344Y-50024112D01*
X63794695Y-50009131D01*
X63693576Y-49833987D01*
X63693574Y-49833984D01*
X63688611Y-49825388D01*
X63688608Y-49825385D01*
X63688607Y-49825382D01*
X63562928Y-49661596D01*
X63548919Y-49643339D01*
X63548918Y-49643338D01*
X63548915Y-49643334D01*
X63473413Y-49567832D01*
X63386670Y-49481089D01*
X63386661Y-49481081D01*
X63386659Y-49481079D01*
X63285520Y-49403471D01*
X68499499Y-49403471D01*
X68539864Y-49606394D01*
X68539870Y-49606421D01*
X68617032Y-49792708D01*
X68617033Y-49792708D01*
X68619058Y-49797596D01*
X68619060Y-49797601D01*
X68637624Y-49825383D01*
X68637624Y-49825384D01*
X68734022Y-49969655D01*
X68734028Y-49969662D01*
X68880336Y-50115970D01*
X68880342Y-50115975D01*
X68880349Y-50115980D01*
X68880348Y-50115980D01*
X68880411Y-50116032D01*
X68880448Y-50116046D01*
X69052402Y-50230941D01*
X69243580Y-50310130D01*
X69434540Y-50348114D01*
X69443559Y-50349908D01*
X69445794Y-50350409D01*
X69446532Y-50350500D01*
X69653466Y-50350500D01*
X69657586Y-50350500D01*
X69665435Y-50348118D01*
X69856420Y-50310130D01*
X70047598Y-50230941D01*
X70219655Y-50115977D01*
X70365977Y-49969655D01*
X70480941Y-49797598D01*
X70482965Y-49792713D01*
X70512564Y-49721254D01*
X70560130Y-49606420D01*
X70560133Y-49606402D01*
X70560566Y-49604979D01*
X70569353Y-49583486D01*
X70585451Y-49552709D01*
X70598277Y-49535290D01*
X70597191Y-49534457D01*
X70602138Y-49528008D01*
X70602142Y-49528005D01*
X70651029Y-49443330D01*
X70676335Y-49348887D01*
X70676335Y-49251113D01*
X70651029Y-49156670D01*
X70606448Y-49079453D01*
X70602144Y-49071998D01*
X70602140Y-49071993D01*
X70599254Y-49069107D01*
X70593467Y-49060416D01*
X70592717Y-49058010D01*
X70587847Y-49051118D01*
X70570798Y-49019895D01*
X70560426Y-48994614D01*
X70560130Y-48993581D01*
X70560129Y-48993579D01*
X70480941Y-48802402D01*
X70366046Y-48630449D01*
X70366036Y-48630417D01*
X70365980Y-48630348D01*
X70365980Y-48630349D01*
X70365977Y-48630345D01*
X70365975Y-48630342D01*
X70365973Y-48630340D01*
X70365970Y-48630336D01*
X70219659Y-48484025D01*
X70112520Y-48412438D01*
X70047601Y-48369061D01*
X70047596Y-48369058D01*
X70045568Y-48368218D01*
X70038646Y-48365351D01*
X69856420Y-48289870D01*
X69856412Y-48289868D01*
X69856404Y-48289866D01*
X69856394Y-48289864D01*
X69653471Y-48249500D01*
X69653469Y-48249500D01*
X69653465Y-48249500D01*
X69446535Y-48249500D01*
X69446530Y-48249500D01*
X69446528Y-48249500D01*
X69243604Y-48289864D01*
X69243579Y-48289870D01*
X69052404Y-48369057D01*
X68880337Y-48484027D01*
X68734027Y-48630337D01*
X68619057Y-48802404D01*
X68539870Y-48993579D01*
X68539864Y-48993604D01*
X68499500Y-49196527D01*
X68499500Y-49196530D01*
X68499500Y-49403469D01*
X68499500Y-49403471D01*
X68499499Y-49403471D01*
X63285520Y-49403471D01*
X63204627Y-49341399D01*
X63204609Y-49341387D01*
X63174367Y-49323927D01*
X63129157Y-49297825D01*
X63005905Y-49226665D01*
X63005880Y-49226652D01*
X63005876Y-49226650D01*
X62836921Y-49156667D01*
X62793890Y-49138843D01*
X62793888Y-49138842D01*
X62793887Y-49138842D01*
X62786494Y-49136861D01*
X62786490Y-49136859D01*
X62613884Y-49090611D01*
X62572238Y-49079452D01*
X62534215Y-49074446D01*
X62467171Y-49065619D01*
X62344742Y-49049500D01*
X62344741Y-49049500D01*
X62344734Y-49049500D01*
X62115266Y-49049500D01*
X62115258Y-49049500D01*
X62115250Y-49049500D01*
X61951755Y-49071025D01*
X61898715Y-49078009D01*
X61898709Y-49078009D01*
X61887768Y-49079450D01*
X61887756Y-49079453D01*
X61846115Y-49090611D01*
X61666112Y-49138842D01*
X61666102Y-49138845D01*
X61454117Y-49226652D01*
X61255388Y-49341388D01*
X61255371Y-49341399D01*
X61073342Y-49481077D01*
X61073332Y-49481086D01*
X60911086Y-49643332D01*
X60911077Y-49643342D01*
X60771399Y-49825371D01*
X60771393Y-49825380D01*
X60771392Y-49825382D01*
X60771391Y-49825384D01*
X60656652Y-50024117D01*
X60568845Y-50236102D01*
X60568842Y-50236112D01*
X60509453Y-50457759D01*
X60509452Y-50457763D01*
X60509450Y-50457773D01*
X60509448Y-50457789D01*
X60479866Y-50682477D01*
X60479500Y-50685258D01*
X57777500Y-50685258D01*
X57777500Y-32905257D01*
X60479500Y-32905257D01*
X60479500Y-33134747D01*
X60488979Y-33206734D01*
X60488979Y-33206735D01*
X60492665Y-33234732D01*
X60509452Y-33362238D01*
X60564281Y-33566864D01*
X60565546Y-33571585D01*
X60568841Y-33583884D01*
X60568844Y-33583893D01*
X60656652Y-33795881D01*
X60656655Y-33795887D01*
X60656657Y-33795890D01*
X60771392Y-33994617D01*
X60771395Y-33994621D01*
X60771399Y-33994627D01*
X60911079Y-34176659D01*
X60911081Y-34176661D01*
X60911089Y-34176670D01*
X61073330Y-34338911D01*
X61073338Y-34338918D01*
X61073339Y-34338919D01*
X61078934Y-34343212D01*
X61117066Y-34372472D01*
X61255591Y-34478768D01*
X61257272Y-34479699D01*
X61454111Y-34593344D01*
X61454172Y-34593373D01*
X61454726Y-34593598D01*
X61526840Y-34623469D01*
X61526841Y-34623470D01*
X61592311Y-34650588D01*
X61666113Y-34681158D01*
X61887762Y-34740548D01*
X62115266Y-34770500D01*
X62115273Y-34770500D01*
X62344727Y-34770500D01*
X62344734Y-34770500D01*
X62572238Y-34740548D01*
X62793887Y-34681158D01*
X63005888Y-34593344D01*
X63204612Y-34478611D01*
X63386661Y-34338919D01*
X63386665Y-34338914D01*
X63386670Y-34338911D01*
X63447016Y-34278565D01*
X63544070Y-34181512D01*
X63544840Y-34180822D01*
X63548422Y-34177167D01*
X63548895Y-34176689D01*
X63548905Y-34176675D01*
X63548911Y-34176670D01*
X63548914Y-34176665D01*
X63548919Y-34176661D01*
X63549028Y-34176518D01*
X63549322Y-34176143D01*
X63549322Y-34176142D01*
X63552716Y-34171795D01*
X63553216Y-34171061D01*
X63688607Y-33994617D01*
X63688606Y-33994617D01*
X63688611Y-33994612D01*
X63698837Y-33976900D01*
X65499500Y-33976900D01*
X65499500Y-35063091D01*
X65504669Y-35106144D01*
X65510122Y-35151560D01*
X65565640Y-35292344D01*
X65598722Y-35335970D01*
X65657077Y-35412922D01*
X65707213Y-35450941D01*
X65777658Y-35504361D01*
X65918436Y-35559876D01*
X66006901Y-35570500D01*
X67093098Y-35570499D01*
X67181564Y-35559876D01*
X67322342Y-35504361D01*
X67442922Y-35412922D01*
X67534361Y-35292342D01*
X67589876Y-35151564D01*
X67600500Y-35063099D01*
X67600499Y-33976902D01*
X67589876Y-33888436D01*
X67534361Y-33747658D01*
X67527768Y-33738964D01*
X67442922Y-33627077D01*
X67442917Y-33627073D01*
X67322347Y-33535642D01*
X67322346Y-33535641D01*
X67322344Y-33535640D01*
X67322342Y-33535639D01*
X67181564Y-33480124D01*
X67181561Y-33480123D01*
X67181560Y-33480122D01*
X67181558Y-33480122D01*
X67093101Y-33469500D01*
X67093099Y-33469500D01*
X66006908Y-33469500D01*
X65971029Y-33473807D01*
X65918438Y-33480122D01*
X65777654Y-33535640D01*
X65657076Y-33627076D01*
X65565641Y-33747652D01*
X65565640Y-33747654D01*
X65516915Y-33871214D01*
X65516914Y-33871217D01*
X65510124Y-33888437D01*
X65510123Y-33888438D01*
X65499500Y-33976900D01*
X63698837Y-33976900D01*
X63803344Y-33795888D01*
X63891158Y-33583887D01*
X63950548Y-33362238D01*
X63980500Y-33134734D01*
X63980500Y-32905266D01*
X63950548Y-32677762D01*
X63891158Y-32456113D01*
X63803344Y-32244112D01*
X63689691Y-32047259D01*
X63688764Y-32045587D01*
X63688598Y-32045371D01*
X63548918Y-31863338D01*
X63548911Y-31863330D01*
X63386670Y-31701089D01*
X63386661Y-31701081D01*
X63386659Y-31701079D01*
X63285520Y-31623471D01*
X68499499Y-31623471D01*
X68539864Y-31826394D01*
X68539870Y-31826419D01*
X68617633Y-32014157D01*
X68619058Y-32017596D01*
X68734023Y-32189655D01*
X68734027Y-32189661D01*
X68880338Y-32335972D01*
X68880346Y-32335978D01*
X69052392Y-32450935D01*
X69052396Y-32450937D01*
X69052403Y-32450942D01*
X69089498Y-32466307D01*
X69119842Y-32484312D01*
X69137855Y-32498827D01*
X69172528Y-32543184D01*
X69173766Y-32545852D01*
X69177337Y-32555694D01*
X69177702Y-32556219D01*
X69177720Y-32556750D01*
X69181060Y-32565952D01*
X69203970Y-32651457D01*
X69212130Y-32665591D01*
X69212134Y-32665596D01*
X69252854Y-32736125D01*
X69252856Y-32736128D01*
X69252858Y-32736131D01*
X69288347Y-32771620D01*
X69321995Y-32805268D01*
X69395002Y-32847419D01*
X69400305Y-32851280D01*
X69403223Y-32855073D01*
X69417054Y-32865949D01*
X69426819Y-32876191D01*
X69426838Y-32876209D01*
X69426840Y-32876211D01*
X69429183Y-32878436D01*
X69463150Y-32936994D01*
X69463650Y-32936861D01*
X69464145Y-32938711D01*
X69464240Y-32938874D01*
X69464359Y-32939509D01*
X69474154Y-32976063D01*
X69478379Y-33008156D01*
X69478379Y-33031836D01*
X69474155Y-33063925D01*
X69466780Y-33091453D01*
X69466778Y-33091452D01*
X69466777Y-33091464D01*
X69466226Y-33093520D01*
X69456671Y-33118237D01*
X69450125Y-33130933D01*
X69448804Y-33133920D01*
X69440062Y-33145175D01*
X69436458Y-33155605D01*
X69412115Y-33181160D01*
X69411772Y-33181430D01*
X69397076Y-33191382D01*
X69379900Y-33201299D01*
X69370490Y-33206733D01*
X69370478Y-33206740D01*
X69322000Y-33234728D01*
X69321991Y-33234734D01*
X69321986Y-33234738D01*
X69252866Y-33303858D01*
X69252860Y-33303865D01*
X69252855Y-33303871D01*
X69252851Y-33303876D01*
X69218244Y-33363817D01*
X69218240Y-33363826D01*
X69203972Y-33388541D01*
X69203971Y-33388542D01*
X69181856Y-33471076D01*
X69180550Y-33474927D01*
X69178074Y-33478448D01*
X69169006Y-33499626D01*
X69156968Y-33519376D01*
X69117495Y-33559557D01*
X69115013Y-33561131D01*
X69096060Y-33570973D01*
X69052401Y-33589058D01*
X69052399Y-33589059D01*
X68880341Y-33704023D01*
X68734027Y-33850337D01*
X68619057Y-34022404D01*
X68539870Y-34213579D01*
X68539864Y-34213604D01*
X68499500Y-34416527D01*
X68499500Y-34623469D01*
X68525936Y-34756374D01*
X68539868Y-34826412D01*
X68539870Y-34826420D01*
X68619058Y-35017596D01*
X68721692Y-35171200D01*
X68734025Y-35189658D01*
X68734028Y-35189662D01*
X68880336Y-35335970D01*
X68880340Y-35335973D01*
X68880342Y-35335975D01*
X68880345Y-35335977D01*
X68880349Y-35335980D01*
X68880348Y-35335980D01*
X68880411Y-35336032D01*
X68880448Y-35336046D01*
X69052402Y-35450941D01*
X69243580Y-35530130D01*
X69434540Y-35568114D01*
X69443559Y-35569908D01*
X69445794Y-35570409D01*
X69446532Y-35570500D01*
X69653466Y-35570500D01*
X69657586Y-35570500D01*
X69665435Y-35568118D01*
X69856420Y-35530130D01*
X70047598Y-35450941D01*
X70219655Y-35335977D01*
X70263290Y-35292342D01*
X70365976Y-35189657D01*
X70450538Y-35063099D01*
X70480941Y-35017598D01*
X70560130Y-34826420D01*
X70585142Y-34700675D01*
X70600500Y-34623468D01*
X70600500Y-34416534D01*
X70600499Y-34416530D01*
X70584095Y-34334061D01*
X70560130Y-34213580D01*
X70480941Y-34022402D01*
X70366040Y-33850439D01*
X70366005Y-33850379D01*
X70365980Y-33850348D01*
X70365980Y-33850349D01*
X70365976Y-33850343D01*
X70323139Y-33807506D01*
X70301984Y-33779245D01*
X70296307Y-33768847D01*
X70281458Y-33700573D01*
X70305879Y-33635110D01*
X70350856Y-33597940D01*
X70351244Y-33597750D01*
X70351260Y-33597745D01*
X70353156Y-33596821D01*
X70422030Y-33585170D01*
X70426650Y-33585717D01*
X70460738Y-33594812D01*
X70487974Y-33606440D01*
X70526969Y-33632801D01*
X80071141Y-43176973D01*
X80092291Y-43205225D01*
X80104899Y-43228314D01*
X80120068Y-43287743D01*
X80120068Y-55353592D01*
X80120067Y-55353594D01*
X80120068Y-55353595D01*
X80115044Y-55388530D01*
X80105123Y-55422315D01*
X80093534Y-55449378D01*
X80040494Y-55541243D01*
X80011489Y-55649494D01*
X80011489Y-55761566D01*
X80040492Y-55869815D01*
X80052036Y-55889808D01*
X80052035Y-55889808D01*
X80081033Y-55940032D01*
X80096529Y-55966871D01*
X80175774Y-56046116D01*
X80253252Y-56090848D01*
X80268365Y-56099574D01*
X80268367Y-56099575D01*
X80268366Y-56099575D01*
X80270597Y-56100862D01*
X80272829Y-56102151D01*
X80381079Y-56131156D01*
X80381081Y-56131156D01*
X80493146Y-56131156D01*
X80493147Y-56131156D01*
X80493149Y-56131156D01*
X80531010Y-56121011D01*
X80546885Y-56116758D01*
X80578977Y-56112533D01*
X80610506Y-56112533D01*
X80642598Y-56116757D01*
X80737835Y-56142276D01*
X80737837Y-56142276D01*
X80849903Y-56142276D01*
X80849905Y-56142276D01*
X80958155Y-56113271D01*
X81055210Y-56057236D01*
X81134455Y-55977991D01*
X81190490Y-55880936D01*
X81219495Y-55772686D01*
X81219495Y-55660616D01*
X81190490Y-55552366D01*
X81142644Y-55469494D01*
X81134369Y-55452197D01*
X81119427Y-55413537D01*
X81111089Y-55368834D01*
X81111089Y-50507068D01*
X83823088Y-50507068D01*
X83823088Y-50619140D01*
X83852091Y-50727389D01*
X83880110Y-50775917D01*
X83880109Y-50775917D01*
X83908123Y-50824438D01*
X83908126Y-50824442D01*
X83908128Y-50824445D01*
X83987373Y-50903690D01*
X84084428Y-50959725D01*
X84124019Y-50970333D01*
X84153925Y-50982721D01*
X84181237Y-50998490D01*
X84206917Y-51018195D01*
X87225220Y-54036498D01*
X87225914Y-54036998D01*
X87228441Y-54038358D01*
X87303894Y-54081920D01*
X87317361Y-54090919D01*
X87330163Y-54100742D01*
X87342349Y-54111430D01*
X87347307Y-54116388D01*
X87357995Y-54128575D01*
X87367815Y-54141372D01*
X87376823Y-54154853D01*
X87422235Y-54233510D01*
X87422241Y-54233519D01*
X87487658Y-54298936D01*
X87488352Y-54299436D01*
X87490879Y-54300796D01*
X87566332Y-54344358D01*
X87579799Y-54353357D01*
X87592601Y-54363180D01*
X87604787Y-54373868D01*
X98974313Y-65743393D01*
X98974323Y-65743404D01*
X99044071Y-65813152D01*
X99044073Y-65813153D01*
X99090327Y-65839857D01*
X99124189Y-65859408D01*
X99213549Y-65883352D01*
X99213551Y-65883352D01*
X99313657Y-65883352D01*
X99315561Y-65883352D01*
X99315624Y-65883351D01*
X106980254Y-65883351D01*
X106980256Y-65883351D01*
X107069617Y-65859407D01*
X107149735Y-65813151D01*
X107215151Y-65747735D01*
X108070015Y-64892871D01*
X111712500Y-64892871D01*
X111712500Y-65155133D01*
X111730445Y-65291423D01*
X111733436Y-65314140D01*
X111746730Y-65415116D01*
X111768178Y-65495161D01*
X111814602Y-65668418D01*
X111814605Y-65668428D01*
X111845661Y-65743404D01*
X111914954Y-65910693D01*
X111914967Y-65910717D01*
X112046074Y-66137803D01*
X112205718Y-66345851D01*
X112205721Y-66345855D01*
X112391120Y-66531255D01*
X112391142Y-66531276D01*
X112391148Y-66531281D01*
X112599195Y-66690924D01*
X112826281Y-66822031D01*
X112826291Y-66822036D01*
X112826299Y-66822041D01*
X112826309Y-66822046D01*
X113068571Y-66922394D01*
X113068581Y-66922398D01*
X113321884Y-66990270D01*
X113581880Y-67024500D01*
X113581887Y-67024500D01*
X113844113Y-67024500D01*
X113844120Y-67024500D01*
X114104116Y-66990270D01*
X114357419Y-66922398D01*
X114599697Y-66822043D01*
X114826803Y-66690924D01*
X115034851Y-66531282D01*
X115034855Y-66531277D01*
X115034860Y-66531274D01*
X115127078Y-66439056D01*
X115215433Y-66350702D01*
X115216209Y-66350006D01*
X115219758Y-66346385D01*
X115220257Y-66345880D01*
X115220267Y-66345866D01*
X115220274Y-66345860D01*
X115220277Y-66345855D01*
X115220282Y-66345851D01*
X115220398Y-66345699D01*
X115220624Y-66345411D01*
X115220628Y-66345407D01*
X115224074Y-66340993D01*
X115224574Y-66340256D01*
X115379924Y-66137803D01*
X115511043Y-65910697D01*
X115611398Y-65668419D01*
X115679270Y-65415116D01*
X115713500Y-65155120D01*
X115713500Y-64892880D01*
X115679270Y-64632884D01*
X115611398Y-64379581D01*
X115554497Y-64242210D01*
X115511046Y-64137309D01*
X115511041Y-64137299D01*
X115500345Y-64118772D01*
X115379924Y-63910195D01*
X115220281Y-63702148D01*
X115220276Y-63702142D01*
X115220255Y-63702120D01*
X115034855Y-63516721D01*
X115034851Y-63516718D01*
X114826803Y-63357074D01*
X114599717Y-63225967D01*
X114599693Y-63225954D01*
X114361474Y-63127281D01*
X114361467Y-63127278D01*
X114357425Y-63125603D01*
X114165931Y-63074293D01*
X114104116Y-63057730D01*
X114046339Y-63050123D01*
X113844128Y-63023500D01*
X113844127Y-63023500D01*
X113844120Y-63023500D01*
X113581880Y-63023500D01*
X113581872Y-63023500D01*
X113581864Y-63023500D01*
X113350773Y-63053925D01*
X113350772Y-63053926D01*
X113321892Y-63057729D01*
X113321884Y-63057730D01*
X113068578Y-63125602D01*
X112826305Y-63225954D01*
X112826281Y-63225967D01*
X112599195Y-63357074D01*
X112391152Y-63516714D01*
X112391142Y-63516723D01*
X112205723Y-63702142D01*
X112205714Y-63702152D01*
X112046074Y-63910195D01*
X111914967Y-64137281D01*
X111914954Y-64137305D01*
X111814602Y-64379578D01*
X111746731Y-64632881D01*
X111746729Y-64632892D01*
X111712500Y-64892871D01*
X108070015Y-64892871D01*
X115264151Y-57698735D01*
X115285197Y-57662282D01*
X115296204Y-57643214D01*
X115305207Y-57629741D01*
X115315026Y-57616944D01*
X115321745Y-57609285D01*
X115323583Y-57606890D01*
X115323583Y-57606889D01*
X115323585Y-57606888D01*
X115325053Y-57604345D01*
X115325249Y-57604007D01*
X115329200Y-57597161D01*
X115377638Y-57513264D01*
X115379218Y-57510721D01*
X115379619Y-57509834D01*
X115379618Y-57509834D01*
X115379620Y-57509833D01*
X115408625Y-57401583D01*
X115408625Y-57289513D01*
X115379620Y-57181263D01*
X115323585Y-57084208D01*
X115244340Y-57004963D01*
X115244337Y-57004961D01*
X115244333Y-57004958D01*
X115195812Y-56976944D01*
X115195812Y-56976945D01*
X115147286Y-56948928D01*
X115093160Y-56934425D01*
X115093159Y-56934424D01*
X115039038Y-56919923D01*
X115039035Y-56919923D01*
X114926965Y-56919923D01*
X114926963Y-56919923D01*
X114818711Y-56948928D01*
X114721657Y-57004964D01*
X114721656Y-57004965D01*
X114721651Y-57004969D01*
X114642421Y-57084199D01*
X114642417Y-57084204D01*
X114642416Y-57084205D01*
X114586380Y-57181259D01*
X114557375Y-57289511D01*
X114557375Y-57342546D01*
X114557374Y-57342548D01*
X114557375Y-57342549D01*
X114552351Y-57377483D01*
X114544939Y-57402724D01*
X114513644Y-57455468D01*
X106837391Y-65131722D01*
X106809140Y-65152871D01*
X106786052Y-65165479D01*
X106726622Y-65180649D01*
X99474531Y-65180649D01*
X99474530Y-65180648D01*
X99474530Y-65180649D01*
X99439595Y-65175626D01*
X99414353Y-65168214D01*
X99361608Y-65136918D01*
X87919128Y-53694437D01*
X87698896Y-53474204D01*
X87698887Y-53474196D01*
X87698884Y-53474193D01*
X87698881Y-53474192D01*
X87620220Y-53428777D01*
X87606739Y-53419769D01*
X87593942Y-53409949D01*
X87581755Y-53399261D01*
X84703803Y-50521309D01*
X84684098Y-50495629D01*
X84668329Y-50468317D01*
X84655940Y-50438408D01*
X84645333Y-50398820D01*
X84589298Y-50301765D01*
X84510053Y-50222520D01*
X84437782Y-50180794D01*
X84432542Y-50177768D01*
X84413000Y-50166485D01*
X84385936Y-50159233D01*
X84358873Y-50151982D01*
X84358872Y-50151981D01*
X84304751Y-50137480D01*
X84304748Y-50137480D01*
X84192678Y-50137480D01*
X84192676Y-50137480D01*
X84084424Y-50166485D01*
X83987370Y-50222521D01*
X83987369Y-50222522D01*
X83987364Y-50222526D01*
X83908134Y-50301756D01*
X83908130Y-50301761D01*
X83908129Y-50301762D01*
X83852093Y-50398816D01*
X83823088Y-50507068D01*
X81111089Y-50507068D01*
X81111089Y-43032802D01*
X81113491Y-42996157D01*
X81111089Y-42984080D01*
X81111089Y-42971765D01*
X81104249Y-42946239D01*
X81101682Y-42934350D01*
X81099706Y-42922383D01*
X81098314Y-42910281D01*
X81097645Y-42900066D01*
X81093673Y-42888365D01*
X81091320Y-42880607D01*
X81089220Y-42872772D01*
X81087374Y-42864857D01*
X81084964Y-42852739D01*
X81077702Y-42838014D01*
X81071494Y-42823027D01*
X81069669Y-42817651D01*
X81066216Y-42807479D01*
X81057090Y-42793821D01*
X81048985Y-42779785D01*
X81047677Y-42777132D01*
X81047674Y-42777118D01*
X81047671Y-42777120D01*
X81041722Y-42765053D01*
X81041721Y-42765052D01*
X81041721Y-42765051D01*
X81039652Y-42762693D01*
X81039654Y-42762690D01*
X81039635Y-42762674D01*
X81033608Y-42755801D01*
X81028475Y-42749548D01*
X81024785Y-42744739D01*
X81015771Y-42731248D01*
X81000527Y-42704844D01*
X81000526Y-42704842D01*
X81000523Y-42704839D01*
X80999234Y-42703158D01*
X80987904Y-42689740D01*
X80986020Y-42687084D01*
X80984982Y-42685899D01*
X80961937Y-42665690D01*
X80958922Y-42662957D01*
X80955949Y-42660172D01*
X80953041Y-42657357D01*
X74998821Y-36703137D01*
X92681637Y-36703137D01*
X92681637Y-39242861D01*
X92682291Y-39262861D01*
X92683353Y-39279063D01*
X92685310Y-39298925D01*
X92699158Y-39404103D01*
X92706950Y-39443283D01*
X92715332Y-39474565D01*
X92728178Y-39512407D01*
X92728179Y-39512409D01*
X92765632Y-39602830D01*
X92783293Y-39638642D01*
X92783304Y-39638663D01*
X92783307Y-39638669D01*
X92791776Y-39653337D01*
X92799491Y-39666701D01*
X92821697Y-39699935D01*
X92858639Y-39748077D01*
X92881276Y-39777578D01*
X92901849Y-39801037D01*
X92907622Y-39807620D01*
X92930515Y-39830513D01*
X92931211Y-39831123D01*
X92960558Y-39856860D01*
X92987777Y-39877746D01*
X93038200Y-39916438D01*
X93058421Y-39929949D01*
X93071434Y-39938644D01*
X93099467Y-39954829D01*
X93099487Y-39954838D01*
X93099493Y-39954842D01*
X93135305Y-39972503D01*
X93147823Y-39977688D01*
X93225735Y-40009960D01*
X93263575Y-40022805D01*
X93294842Y-40031183D01*
X93334034Y-40038979D01*
X93416548Y-40049842D01*
X93439183Y-40052823D01*
X93439190Y-40052823D01*
X93439200Y-40052825D01*
X93459094Y-40054785D01*
X93475279Y-40055846D01*
X93495263Y-40056500D01*
X100621500Y-40056500D01*
X100688539Y-40076185D01*
X100734294Y-40128989D01*
X100745500Y-40180500D01*
X100745500Y-52006071D01*
X100745499Y-52006073D01*
X100745500Y-52006075D01*
X100740476Y-52041010D01*
X100733064Y-52066250D01*
X100701769Y-52118992D01*
X100552899Y-52267861D01*
X100552895Y-52267867D01*
X100482795Y-52337966D01*
X100482792Y-52337970D01*
X100482792Y-52337971D01*
X100462373Y-52373341D01*
X100462372Y-52373340D01*
X100453575Y-52388579D01*
X100444981Y-52403465D01*
X100403737Y-52474901D01*
X100362813Y-52627629D01*
X100362813Y-52627631D01*
X100362813Y-52798086D01*
X100362814Y-52798137D01*
X100362814Y-53419057D01*
X100377577Y-53474154D01*
X100377589Y-53474196D01*
X100403737Y-53571784D01*
X100403738Y-53571787D01*
X100403739Y-53571788D01*
X100403742Y-53571793D01*
X100479937Y-53703771D01*
X100479952Y-53703795D01*
X100482789Y-53708709D01*
X100482793Y-53708714D01*
X100482794Y-53708716D01*
X100483363Y-53709285D01*
X100594601Y-53820523D01*
X100595283Y-53821014D01*
X100597789Y-53822363D01*
X100681101Y-53870462D01*
X100722735Y-53894500D01*
X100722736Y-53894500D01*
X100731526Y-53899575D01*
X100731530Y-53899577D01*
X100884257Y-53940500D01*
X100884259Y-53940500D01*
X101042369Y-53940500D01*
X101042371Y-53940500D01*
X101195098Y-53899577D01*
X101332030Y-53820520D01*
X101443834Y-53708716D01*
X101522891Y-53571784D01*
X101563814Y-53419057D01*
X101563814Y-53260943D01*
X101563814Y-53024612D01*
X101568836Y-52989679D01*
X101574144Y-52971602D01*
X101576248Y-52964434D01*
X101607542Y-52911692D01*
X101681186Y-52838049D01*
X101826520Y-52692716D01*
X101905577Y-52555784D01*
X101946501Y-52403057D01*
X101946501Y-52244942D01*
X101946501Y-52237347D01*
X101946501Y-52235663D01*
X101946500Y-52235589D01*
X101946500Y-39197021D01*
X101946497Y-39197011D01*
X101940497Y-39174618D01*
X101939810Y-39172052D01*
X101939810Y-39172053D01*
X101932862Y-39146119D01*
X101928637Y-39114027D01*
X101928637Y-36703137D01*
X101928637Y-36703125D01*
X101927983Y-36683142D01*
X101926922Y-36666956D01*
X101924962Y-36647061D01*
X101911116Y-36541897D01*
X101903320Y-36502705D01*
X101894942Y-36471438D01*
X101882097Y-36433598D01*
X101862295Y-36385791D01*
X101844640Y-36343168D01*
X101826979Y-36307356D01*
X101826968Y-36307335D01*
X101826966Y-36307330D01*
X101810781Y-36279297D01*
X101790444Y-36248860D01*
X101788575Y-36246063D01*
X101752284Y-36198769D01*
X101728997Y-36168421D01*
X101702649Y-36138377D01*
X101679760Y-36115488D01*
X101679759Y-36115487D01*
X101679755Y-36115483D01*
X101649725Y-36089147D01*
X101649714Y-36089138D01*
X101572072Y-36029559D01*
X101572070Y-36029558D01*
X101538851Y-36007362D01*
X101538839Y-36007354D01*
X101538836Y-36007352D01*
X101538826Y-36007346D01*
X101510796Y-35991163D01*
X101474972Y-35973498D01*
X101474952Y-35973489D01*
X101384546Y-35936042D01*
X101384544Y-35936041D01*
X101346702Y-35923195D01*
X101346687Y-35923191D01*
X101315427Y-35914815D01*
X101315428Y-35914815D01*
X101315420Y-35914813D01*
X101276240Y-35907021D01*
X101276235Y-35907020D01*
X101245170Y-35902930D01*
X101171062Y-35893173D01*
X101151200Y-35891216D01*
X101134998Y-35890154D01*
X101131248Y-35890031D01*
X101115011Y-35889500D01*
X101114998Y-35889500D01*
X93495276Y-35889500D01*
X93495263Y-35889500D01*
X93477943Y-35890066D01*
X93475277Y-35890154D01*
X93459087Y-35891215D01*
X93439192Y-35893175D01*
X93334041Y-35907018D01*
X93294862Y-35914811D01*
X93294837Y-35914816D01*
X93263605Y-35923184D01*
X93263582Y-35923191D01*
X93225739Y-35936036D01*
X93225736Y-35936037D01*
X93135296Y-35973498D01*
X93099469Y-35991167D01*
X93099466Y-35991169D01*
X93071439Y-36007350D01*
X93038201Y-36029560D01*
X92960557Y-36089139D01*
X92930503Y-36115496D01*
X92907633Y-36138366D01*
X92881284Y-36168411D01*
X92868164Y-36185510D01*
X92821692Y-36246072D01*
X92821685Y-36246081D01*
X92821683Y-36246085D01*
X92799485Y-36279305D01*
X92783299Y-36307341D01*
X92765635Y-36343163D01*
X92765626Y-36343183D01*
X92728179Y-36433589D01*
X92728178Y-36433591D01*
X92715330Y-36471439D01*
X92715326Y-36471450D01*
X92706951Y-36502708D01*
X92699156Y-36541902D01*
X92685310Y-36647073D01*
X92683353Y-36666935D01*
X92682291Y-36683137D01*
X92682291Y-36683141D01*
X92681983Y-36692571D01*
X92681637Y-36703137D01*
X74998821Y-36703137D01*
X71077770Y-32782086D01*
X71074897Y-32779213D01*
X71050682Y-32751601D01*
X71040446Y-32744761D01*
X71031809Y-32736124D01*
X71031741Y-32736056D01*
X71031739Y-32736054D01*
X71019963Y-32729256D01*
X71006792Y-32720486D01*
X70976582Y-32697458D01*
X70974987Y-32696768D01*
X70970294Y-32696068D01*
X70957411Y-32689153D01*
X70957251Y-32689054D01*
X70956959Y-32688874D01*
X70953078Y-32686384D01*
X70945474Y-32681303D01*
X70936906Y-32673010D01*
X70936784Y-32672969D01*
X70936781Y-32672969D01*
X70927448Y-32669800D01*
X70906029Y-32660180D01*
X70904522Y-32659323D01*
X70882901Y-32653680D01*
X70872159Y-32647228D01*
X70822754Y-32634678D01*
X70822741Y-32634675D01*
X70822738Y-32634675D01*
X70822731Y-32634674D01*
X70822724Y-32634673D01*
X70812259Y-32633433D01*
X70803864Y-32632146D01*
X70799562Y-32631334D01*
X70795506Y-32630569D01*
X70787182Y-32628699D01*
X70780980Y-32627080D01*
X70778030Y-32626204D01*
X70776994Y-32626040D01*
X70762819Y-32626132D01*
X70755115Y-32625943D01*
X70747435Y-32625515D01*
X70739753Y-32624847D01*
X70282165Y-32570662D01*
X70248068Y-32561567D01*
X70237666Y-32557127D01*
X70183736Y-32512705D01*
X70162384Y-32446178D01*
X70165180Y-32435693D01*
X70180383Y-32378678D01*
X70182977Y-32374409D01*
X70215476Y-32340491D01*
X70214944Y-32339843D01*
X70219647Y-32335981D01*
X70219655Y-32335977D01*
X70365977Y-32189655D01*
X70480941Y-32017598D01*
X70560130Y-31826420D01*
X70600500Y-31623465D01*
X70600500Y-31416535D01*
X70560130Y-31213580D01*
X70480941Y-31022402D01*
X70365977Y-30850345D01*
X70365975Y-30850342D01*
X70305079Y-30789446D01*
X70305057Y-30789423D01*
X70226488Y-30710854D01*
X115153170Y-30710854D01*
X115153170Y-30710856D01*
X115153170Y-30855804D01*
X115190686Y-30995815D01*
X115263160Y-31121345D01*
X115365655Y-31223840D01*
X115491185Y-31296314D01*
X115631196Y-31333830D01*
X115631199Y-31333830D01*
X115776141Y-31333830D01*
X115776144Y-31333830D01*
X115916155Y-31296314D01*
X116041685Y-31223840D01*
X116113750Y-31151774D01*
X116141995Y-31130631D01*
X116165087Y-31118023D01*
X116224512Y-31102856D01*
X118145158Y-31102856D01*
X118145160Y-31102856D01*
X118145161Y-31102856D01*
X118285171Y-31065340D01*
X118291169Y-31061876D01*
X118297624Y-31058151D01*
X118328283Y-31040449D01*
X118338421Y-31034596D01*
X118371179Y-31021479D01*
X118392921Y-31016204D01*
X118450651Y-31016027D01*
X118454828Y-31017012D01*
X118462251Y-31019504D01*
X118462708Y-31019526D01*
X118463057Y-31019774D01*
X118476413Y-31024258D01*
X118482306Y-31026860D01*
X118482307Y-31026860D01*
X118482314Y-31026863D01*
X118493009Y-31031585D01*
X118518135Y-31034500D01*
X121607864Y-31034499D01*
X121607879Y-31034497D01*
X121607882Y-31034497D01*
X121607888Y-31034496D01*
X121608019Y-31034487D01*
X121608736Y-31034397D01*
X121632987Y-31031586D01*
X121632987Y-31031585D01*
X121632990Y-31031585D01*
X121632991Y-31031585D01*
X121632991Y-31031584D01*
X121633102Y-31031572D01*
X121634862Y-31030758D01*
X121735765Y-30986206D01*
X121815206Y-30906765D01*
X121860585Y-30803991D01*
X121863500Y-30778865D01*
X121863500Y-30713838D01*
X121868523Y-30678902D01*
X121872927Y-30663904D01*
X121890054Y-30637254D01*
X121910698Y-30605130D01*
X121910699Y-30605128D01*
X121917398Y-30599323D01*
X121966509Y-30573259D01*
X122002091Y-30563726D01*
X122082777Y-30517143D01*
X123115905Y-29484013D01*
X123122769Y-29480265D01*
X123127334Y-29473911D01*
X123144161Y-29462861D01*
X123151568Y-29458818D01*
X123168982Y-29455031D01*
X123177226Y-29450530D01*
X123190274Y-29450401D01*
X123219842Y-29443972D01*
X123285305Y-29468394D01*
X123327171Y-29524331D01*
X123328691Y-29540747D01*
X123330685Y-29544234D01*
X123330085Y-29555808D01*
X123333151Y-29588908D01*
X123332226Y-29594225D01*
X123327245Y-29610672D01*
X123327073Y-29614010D01*
X123325624Y-29616025D01*
X123323496Y-29623057D01*
X123305415Y-29664007D01*
X123305415Y-29664009D01*
X123303387Y-29681491D01*
X123302500Y-29689132D01*
X123302500Y-30326411D01*
X123302499Y-30326417D01*
X123302500Y-30326420D01*
X123297475Y-30361355D01*
X123293070Y-30376353D01*
X123255327Y-30435096D01*
X123255292Y-30435126D01*
X123255291Y-30435128D01*
X123255289Y-30435128D01*
X123253958Y-30436283D01*
X123199097Y-30463759D01*
X123191539Y-30465404D01*
X123165168Y-30468241D01*
X123079514Y-30468241D01*
X122971262Y-30497246D01*
X122874208Y-30553282D01*
X122874207Y-30553283D01*
X122874202Y-30553287D01*
X122794972Y-30632517D01*
X122794969Y-30632521D01*
X122794968Y-30632523D01*
X122794966Y-30632526D01*
X122748020Y-30713838D01*
X122738929Y-30729583D01*
X122728319Y-30769178D01*
X122715941Y-30799060D01*
X122715932Y-30799082D01*
X122700166Y-30826389D01*
X122680460Y-30852069D01*
X122141608Y-31390920D01*
X122141602Y-31390927D01*
X122141597Y-31390933D01*
X122141596Y-31390934D01*
X122095347Y-31471040D01*
X122095345Y-31471045D01*
X122095340Y-31471062D01*
X122071400Y-31560410D01*
X122071400Y-34615806D01*
X122070002Y-34620566D01*
X122066376Y-34650745D01*
X122063691Y-34659888D01*
X122054052Y-34674884D01*
X122051715Y-34682845D01*
X122039223Y-34697957D01*
X122025914Y-34718665D01*
X121962357Y-34747688D01*
X121893199Y-34737741D01*
X121844989Y-34698642D01*
X121842130Y-34694773D01*
X121841266Y-34693285D01*
X121840766Y-34692891D01*
X121840369Y-34691741D01*
X121828421Y-34671165D01*
X121815207Y-34641237D01*
X121815206Y-34641236D01*
X121815206Y-34641235D01*
X121735765Y-34561794D01*
X121685983Y-34539813D01*
X121632993Y-34516415D01*
X121632994Y-34516415D01*
X121607868Y-34513500D01*
X121607865Y-34513500D01*
X118518143Y-34513500D01*
X118518127Y-34513501D01*
X118518113Y-34513502D01*
X118500255Y-34515573D01*
X118493012Y-34516413D01*
X118493011Y-34516413D01*
X118493005Y-34516414D01*
X118492559Y-34516547D01*
X118490303Y-34517609D01*
X118390236Y-34561792D01*
X118310793Y-34641234D01*
X118265414Y-34744005D01*
X118264844Y-34746710D01*
X118264589Y-34751124D01*
X118262500Y-34769127D01*
X118262500Y-35858849D01*
X118262502Y-35858885D01*
X118265414Y-35883993D01*
X118265546Y-35884438D01*
X118266609Y-35886696D01*
X118307421Y-35979128D01*
X118310793Y-35986764D01*
X118310794Y-35986765D01*
X118390235Y-36066206D01*
X118438607Y-36087563D01*
X118468525Y-36106265D01*
X118475179Y-36111886D01*
X118479127Y-36115221D01*
X118517636Y-36173521D01*
X118518516Y-36243369D01*
X118516979Y-36248860D01*
X118485250Y-36303117D01*
X117312461Y-37475905D01*
X117312455Y-37475912D01*
X117312450Y-37475918D01*
X117312443Y-37475928D01*
X117266198Y-37556028D01*
X117250609Y-37614206D01*
X117250609Y-37614209D01*
X117242253Y-37645395D01*
X117242253Y-37645398D01*
X117242253Y-57683760D01*
X117238028Y-57715852D01*
X117238028Y-57715854D01*
X117229865Y-57746318D01*
X117217478Y-57776223D01*
X117196984Y-57811718D01*
X117196984Y-57811720D01*
X117167979Y-57919971D01*
X117167979Y-58032041D01*
X117196982Y-58140290D01*
X117225001Y-58188818D01*
X117225000Y-58188818D01*
X117253014Y-58237339D01*
X117253017Y-58237343D01*
X117253019Y-58237346D01*
X117332264Y-58316591D01*
X117429319Y-58372626D01*
X117537569Y-58401631D01*
X117537571Y-58401631D01*
X117649637Y-58401631D01*
X117649639Y-58401631D01*
X117757889Y-58372626D01*
X117854944Y-58316591D01*
X117934189Y-58237346D01*
X117990224Y-58140291D01*
X118019229Y-58032041D01*
X118019229Y-57919971D01*
X117990224Y-57811721D01*
X117969730Y-57776225D01*
X117957343Y-57746318D01*
X117949180Y-57715852D01*
X117947968Y-57706646D01*
X117946577Y-57703748D01*
X117947067Y-57699804D01*
X117944955Y-57683760D01*
X117944955Y-38773822D01*
X117949976Y-38738895D01*
X117953162Y-38728042D01*
X117990932Y-38669261D01*
X118054486Y-38640232D01*
X118123641Y-38650170D01*
X118130627Y-38653360D01*
X118166797Y-38678473D01*
X118587720Y-39099396D01*
X118667839Y-39145653D01*
X118757199Y-39169597D01*
X118757201Y-39169597D01*
X118857307Y-39169597D01*
X118859211Y-39169597D01*
X118859274Y-39169596D01*
X119065387Y-39169596D01*
X119100319Y-39174617D01*
X119125563Y-39182030D01*
X119178309Y-39213326D01*
X119334194Y-39369211D01*
X119355343Y-39397461D01*
X119360764Y-39407388D01*
X119364554Y-39424811D01*
X119373100Y-39440461D01*
X119371828Y-39458242D01*
X119375618Y-39475661D01*
X119369387Y-39492366D01*
X119368116Y-39510152D01*
X119357433Y-39524422D01*
X119351204Y-39541126D01*
X119336930Y-39551811D01*
X119326245Y-39566086D01*
X119295268Y-39583001D01*
X119288080Y-39585682D01*
X119244746Y-39593500D01*
X118518143Y-39593500D01*
X118518127Y-39593501D01*
X118518113Y-39593502D01*
X118500255Y-39595573D01*
X118493012Y-39596413D01*
X118493011Y-39596413D01*
X118493005Y-39596414D01*
X118492559Y-39596547D01*
X118490303Y-39597609D01*
X118390236Y-39641792D01*
X118310793Y-39721234D01*
X118265414Y-39824005D01*
X118264844Y-39826710D01*
X118264589Y-39831124D01*
X118262500Y-39849127D01*
X118262500Y-40938849D01*
X118262502Y-40938885D01*
X118265414Y-40963993D01*
X118265546Y-40964438D01*
X118266609Y-40966696D01*
X118310789Y-41066757D01*
X118310791Y-41066760D01*
X118310793Y-41066764D01*
X118310794Y-41066765D01*
X118390235Y-41146206D01*
X118493009Y-41191585D01*
X118518135Y-41194500D01*
X120195553Y-41194499D01*
X120230480Y-41199520D01*
X120241333Y-41202706D01*
X120300114Y-41240476D01*
X120329143Y-41304030D01*
X120319204Y-41373189D01*
X120319203Y-41373191D01*
X120316018Y-41380166D01*
X120290902Y-41416341D01*
X119781857Y-41925385D01*
X119781851Y-41925392D01*
X119781846Y-41925398D01*
X119781839Y-41925408D01*
X119735593Y-42005509D01*
X119730536Y-42024381D01*
X119716646Y-42056816D01*
X119708513Y-42070160D01*
X119695312Y-42082161D01*
X119694168Y-42084039D01*
X119692191Y-42084998D01*
X119656822Y-42117156D01*
X119648847Y-42121031D01*
X119594655Y-42133500D01*
X118518143Y-42133500D01*
X118518127Y-42133501D01*
X118518113Y-42133502D01*
X118500255Y-42135573D01*
X118493012Y-42136413D01*
X118493011Y-42136413D01*
X118493005Y-42136414D01*
X118492559Y-42136547D01*
X118490303Y-42137609D01*
X118390236Y-42181792D01*
X118310793Y-42261234D01*
X118265414Y-42364005D01*
X118264844Y-42366710D01*
X118264589Y-42371124D01*
X118262500Y-42389127D01*
X118262500Y-43478849D01*
X118262502Y-43478885D01*
X118265414Y-43503993D01*
X118265546Y-43504438D01*
X118266609Y-43506696D01*
X118307421Y-43599128D01*
X118310793Y-43606764D01*
X118310794Y-43606765D01*
X118390235Y-43686206D01*
X118493009Y-43731585D01*
X118518135Y-43734500D01*
X121607864Y-43734499D01*
X121607879Y-43734497D01*
X121607882Y-43734497D01*
X121607888Y-43734496D01*
X121608019Y-43734487D01*
X121608736Y-43734397D01*
X121632987Y-43731586D01*
X121632987Y-43731585D01*
X121632990Y-43731585D01*
X121632991Y-43731585D01*
X121632991Y-43731584D01*
X121633102Y-43731572D01*
X121634862Y-43730758D01*
X121735765Y-43686206D01*
X121815206Y-43606765D01*
X121860585Y-43503991D01*
X121863500Y-43478865D01*
X121863499Y-42389136D01*
X121863497Y-42389117D01*
X121860586Y-42364012D01*
X121860585Y-42364010D01*
X121860585Y-42364009D01*
X121815206Y-42261235D01*
X121735765Y-42181794D01*
X121735760Y-42181792D01*
X121735759Y-42181791D01*
X121718470Y-42174157D01*
X121718469Y-42174157D01*
X121632994Y-42136415D01*
X121607869Y-42133500D01*
X121607868Y-42133500D01*
X121607865Y-42133500D01*
X120884708Y-42133500D01*
X120849773Y-42128477D01*
X120838919Y-42125290D01*
X120780141Y-42087516D01*
X120751116Y-42023960D01*
X120751736Y-42019648D01*
X120761056Y-41954811D01*
X120764246Y-41947824D01*
X120789355Y-41911660D01*
X121054616Y-41646399D01*
X121082866Y-41625251D01*
X121105958Y-41612643D01*
X121165383Y-41597476D01*
X121566938Y-41597476D01*
X121566942Y-41597477D01*
X121659454Y-41597476D01*
X121748814Y-41573532D01*
X121828932Y-41527276D01*
X121894348Y-41461860D01*
X121894348Y-41461859D01*
X121911786Y-41444421D01*
X121911788Y-41444418D01*
X122117581Y-41238625D01*
X122117583Y-41238624D01*
X122182999Y-41173208D01*
X122229255Y-41093090D01*
X122229879Y-41090757D01*
X122229884Y-41090743D01*
X122229885Y-41090737D01*
X122229886Y-41090733D01*
X122236310Y-41066764D01*
X122242491Y-41043691D01*
X122253200Y-41003728D01*
X122253199Y-40911216D01*
X122253199Y-39998211D01*
X122258220Y-39963284D01*
X122260698Y-39954842D01*
X122261406Y-39952429D01*
X122299176Y-39893650D01*
X122362730Y-39864621D01*
X122431885Y-39874559D01*
X122438871Y-39877749D01*
X122475041Y-39902862D01*
X123217862Y-40645684D01*
X123220422Y-40650372D01*
X123265537Y-40697460D01*
X123273272Y-40711565D01*
X123283313Y-40721116D01*
X123296470Y-40753866D01*
X123298969Y-40764113D01*
X123302500Y-40793493D01*
X123302500Y-40938844D01*
X123302501Y-40938871D01*
X123302502Y-40938888D01*
X123305413Y-40963985D01*
X123305413Y-40963987D01*
X123305414Y-40963988D01*
X123305415Y-40963991D01*
X123335079Y-41031175D01*
X123347419Y-41059124D01*
X123350793Y-41066764D01*
X123350794Y-41066765D01*
X123430235Y-41146206D01*
X123533009Y-41191585D01*
X123558135Y-41194500D01*
X126647864Y-41194499D01*
X126647879Y-41194497D01*
X126647882Y-41194497D01*
X126647888Y-41194496D01*
X126648019Y-41194487D01*
X126648736Y-41194397D01*
X126672987Y-41191586D01*
X126672987Y-41191585D01*
X126672990Y-41191585D01*
X126672991Y-41191585D01*
X126672991Y-41191584D01*
X126673102Y-41191572D01*
X126674862Y-41190758D01*
X126775765Y-41146206D01*
X126855206Y-41066765D01*
X126900585Y-40963991D01*
X126903500Y-40938865D01*
X126903499Y-39849136D01*
X126903497Y-39849117D01*
X126900586Y-39824012D01*
X126900585Y-39824010D01*
X126900585Y-39824009D01*
X126866577Y-39746988D01*
X126862114Y-39735319D01*
X126853658Y-39709358D01*
X126849949Y-39697973D01*
X126847904Y-39628136D01*
X126883941Y-39568276D01*
X126939725Y-39538803D01*
X126948070Y-39536860D01*
X126976188Y-39533630D01*
X142829205Y-39533630D01*
X142862045Y-39538351D01*
X142864132Y-39538651D01*
X142874985Y-39541837D01*
X142933766Y-39579607D01*
X142962795Y-39643161D01*
X142952856Y-39712320D01*
X142952852Y-39712329D01*
X142949667Y-39719303D01*
X142924554Y-39755471D01*
X140426428Y-42253598D01*
X137976994Y-44703031D01*
X137952084Y-44721679D01*
X137948743Y-44724180D01*
X137925655Y-44736788D01*
X137866225Y-44751958D01*
X137380302Y-44751958D01*
X137297704Y-44774088D01*
X137297677Y-44774097D01*
X137290943Y-44775902D01*
X137290942Y-44775902D01*
X137290940Y-44775903D01*
X137290937Y-44775904D01*
X137260292Y-44793598D01*
X137260291Y-44793599D01*
X137247067Y-44801234D01*
X137247064Y-44801235D01*
X137210852Y-44822140D01*
X137210821Y-44822160D01*
X137210817Y-44822163D01*
X136540067Y-45492914D01*
X136517346Y-45509924D01*
X136511817Y-45514063D01*
X136501890Y-45519484D01*
X136433617Y-45534338D01*
X136368152Y-45509924D01*
X136326279Y-45453992D01*
X136323592Y-45446786D01*
X136315779Y-45403466D01*
X136315779Y-45341354D01*
X136315779Y-45341352D01*
X136286774Y-45233102D01*
X136230739Y-45136047D01*
X136151494Y-45056802D01*
X136082815Y-45017150D01*
X136054440Y-45000767D01*
X136000314Y-44986264D01*
X136000313Y-44986263D01*
X135946192Y-44971762D01*
X135946189Y-44971762D01*
X135834119Y-44971762D01*
X135834117Y-44971762D01*
X135725865Y-45000767D01*
X135628811Y-45056803D01*
X135628808Y-45056805D01*
X135628807Y-45056806D01*
X135611890Y-45073724D01*
X135590779Y-45089528D01*
X135583638Y-45094874D01*
X135560553Y-45107480D01*
X135501124Y-45122649D01*
X127045329Y-45122649D01*
X127010388Y-45117624D01*
X126995389Y-45113219D01*
X126936643Y-45075476D01*
X126935456Y-45074107D01*
X126907976Y-45019232D01*
X126906331Y-45011670D01*
X126903499Y-44985317D01*
X126903499Y-44929142D01*
X126903499Y-44929136D01*
X126903497Y-44929117D01*
X126900586Y-44904012D01*
X126900585Y-44904010D01*
X126900585Y-44904009D01*
X126855206Y-44801235D01*
X126775765Y-44721794D01*
X126775760Y-44721792D01*
X126775759Y-44721791D01*
X126758470Y-44714157D01*
X126758469Y-44714157D01*
X126672993Y-44676415D01*
X126672994Y-44676415D01*
X126647868Y-44673500D01*
X126647865Y-44673500D01*
X123558143Y-44673500D01*
X123558127Y-44673501D01*
X123558113Y-44673502D01*
X123540255Y-44675573D01*
X123533012Y-44676413D01*
X123533011Y-44676413D01*
X123533005Y-44676414D01*
X123532559Y-44676547D01*
X123530303Y-44677609D01*
X123430236Y-44721792D01*
X123350793Y-44801234D01*
X123305414Y-44904005D01*
X123304844Y-44906710D01*
X123304589Y-44911124D01*
X123302502Y-44929117D01*
X123302500Y-44929131D01*
X123302500Y-46018856D01*
X123302501Y-46018865D01*
X123302502Y-46018885D01*
X123305414Y-46043993D01*
X123305547Y-46044439D01*
X123306609Y-46046696D01*
X123328605Y-46096513D01*
X123338120Y-46130499D01*
X123339554Y-46141450D01*
X123336794Y-46159063D01*
X123337676Y-46165792D01*
X123334779Y-46171928D01*
X123328741Y-46210478D01*
X123282324Y-46262701D01*
X123215042Y-46281540D01*
X123181665Y-46276526D01*
X123174674Y-46274473D01*
X123121932Y-46243178D01*
X122616726Y-45737972D01*
X122071608Y-45192852D01*
X122071604Y-45192849D01*
X122068433Y-45191018D01*
X122057594Y-45184760D01*
X122057592Y-45184759D01*
X122053764Y-45182549D01*
X122053754Y-45182544D01*
X122052208Y-45181651D01*
X122021847Y-45164122D01*
X121991485Y-45146592D01*
X121991486Y-45146592D01*
X121966622Y-45139930D01*
X121957747Y-45135423D01*
X121951304Y-45134733D01*
X121927009Y-45119814D01*
X121920944Y-45116734D01*
X121919440Y-45115523D01*
X121917340Y-45113721D01*
X121916774Y-45113376D01*
X121913548Y-45110778D01*
X121895309Y-45084527D01*
X121879741Y-45064347D01*
X121878458Y-45064971D01*
X121875960Y-45059828D01*
X121875834Y-45059282D01*
X121875780Y-45059212D01*
X121875763Y-45059168D01*
X121874438Y-45055763D01*
X121874976Y-45055553D01*
X121874876Y-45055119D01*
X121873681Y-45053398D01*
X121873532Y-45049273D01*
X121863499Y-45005652D01*
X121863499Y-44929142D01*
X121863499Y-44929136D01*
X121863497Y-44929117D01*
X121860586Y-44904012D01*
X121860585Y-44904010D01*
X121860585Y-44904009D01*
X121815206Y-44801235D01*
X121735765Y-44721794D01*
X121735760Y-44721792D01*
X121735759Y-44721791D01*
X121718470Y-44714157D01*
X121718469Y-44714157D01*
X121632993Y-44676415D01*
X121632994Y-44676415D01*
X121607868Y-44673500D01*
X121607865Y-44673500D01*
X118518143Y-44673500D01*
X118518127Y-44673501D01*
X118518113Y-44673502D01*
X118500255Y-44675573D01*
X118493012Y-44676413D01*
X118493011Y-44676413D01*
X118493005Y-44676414D01*
X118492559Y-44676547D01*
X118490303Y-44677609D01*
X118390236Y-44721792D01*
X118310793Y-44801234D01*
X118265414Y-44904005D01*
X118264844Y-44906710D01*
X118264589Y-44911124D01*
X118262502Y-44929117D01*
X118262500Y-44929131D01*
X118262500Y-46018856D01*
X118262501Y-46018865D01*
X118262502Y-46018885D01*
X118265414Y-46043993D01*
X118265546Y-46044438D01*
X118266609Y-46046696D01*
X118310791Y-46146760D01*
X118310793Y-46146764D01*
X118310794Y-46146765D01*
X118390235Y-46226206D01*
X118493009Y-46271585D01*
X118518135Y-46274500D01*
X121052216Y-46274499D01*
X121058155Y-46275353D01*
X121087150Y-46279522D01*
X121102149Y-46283926D01*
X121160927Y-46321700D01*
X121160936Y-46321710D01*
X121162122Y-46323079D01*
X121189564Y-46377901D01*
X121191209Y-46385459D01*
X121194046Y-46411830D01*
X121194046Y-46511873D01*
X121223049Y-46620122D01*
X121251068Y-46668650D01*
X121251067Y-46668650D01*
X121279081Y-46717171D01*
X121279084Y-46717175D01*
X121279086Y-46717178D01*
X121358331Y-46796423D01*
X121455386Y-46852458D01*
X121494980Y-46863067D01*
X121514744Y-46870207D01*
X121519938Y-46872598D01*
X121524630Y-46875307D01*
X121526886Y-46875798D01*
X121535574Y-46879798D01*
X121538516Y-46882363D01*
X121558034Y-46893173D01*
X121559244Y-46894079D01*
X121572604Y-46905657D01*
X121656158Y-46989211D01*
X121677307Y-47017461D01*
X121680506Y-47023320D01*
X121682728Y-47027388D01*
X121686518Y-47044811D01*
X121695064Y-47060461D01*
X121693792Y-47078242D01*
X121697582Y-47095661D01*
X121691351Y-47112366D01*
X121690080Y-47130152D01*
X121679397Y-47144422D01*
X121673168Y-47161126D01*
X121658894Y-47171811D01*
X121648209Y-47186086D01*
X121617232Y-47203001D01*
X121610044Y-47205682D01*
X121566710Y-47213500D01*
X118518143Y-47213500D01*
X118518127Y-47213501D01*
X118518113Y-47213502D01*
X118500524Y-47215542D01*
X118493012Y-47216413D01*
X118493011Y-47216413D01*
X118493005Y-47216414D01*
X118492559Y-47216547D01*
X118490303Y-47217609D01*
X118390236Y-47261792D01*
X118310793Y-47341234D01*
X118265414Y-47444005D01*
X118264844Y-47446710D01*
X118264589Y-47451124D01*
X118262500Y-47469127D01*
X118262500Y-48558849D01*
X118262502Y-48558882D01*
X118265414Y-48583993D01*
X118265546Y-48584438D01*
X118266609Y-48586696D01*
X118289632Y-48638839D01*
X118310793Y-48686764D01*
X118310794Y-48686765D01*
X118390235Y-48766206D01*
X118493009Y-48811585D01*
X118518135Y-48814500D01*
X120195553Y-48814499D01*
X120230480Y-48819520D01*
X120241333Y-48822706D01*
X120300114Y-48860476D01*
X120329143Y-48924030D01*
X120319204Y-48993189D01*
X120319203Y-48993191D01*
X120316018Y-49000166D01*
X120290902Y-49036341D01*
X119781857Y-49545385D01*
X119781851Y-49545392D01*
X119781846Y-49545398D01*
X119781839Y-49545408D01*
X119735593Y-49625509D01*
X119730536Y-49644381D01*
X119716646Y-49676816D01*
X119708513Y-49690160D01*
X119695312Y-49702161D01*
X119694168Y-49704039D01*
X119692191Y-49704998D01*
X119656822Y-49737156D01*
X119648847Y-49741031D01*
X119594655Y-49753500D01*
X118518143Y-49753500D01*
X118518127Y-49753501D01*
X118518113Y-49753502D01*
X118500255Y-49755573D01*
X118493012Y-49756413D01*
X118493011Y-49756413D01*
X118493005Y-49756414D01*
X118492559Y-49756547D01*
X118490303Y-49757609D01*
X118390236Y-49801792D01*
X118310793Y-49881234D01*
X118265414Y-49984005D01*
X118264844Y-49986710D01*
X118264589Y-49991124D01*
X118262500Y-50009127D01*
X118262500Y-51098849D01*
X118262502Y-51098885D01*
X118265414Y-51123993D01*
X118265546Y-51124438D01*
X118266609Y-51126696D01*
X118310791Y-51226760D01*
X118310793Y-51226764D01*
X118310794Y-51226765D01*
X118390235Y-51306206D01*
X118493009Y-51351585D01*
X118518135Y-51354500D01*
X121607864Y-51354499D01*
X121607879Y-51354497D01*
X121607882Y-51354497D01*
X121607888Y-51354496D01*
X121608019Y-51354487D01*
X121608736Y-51354397D01*
X121632987Y-51351586D01*
X121632987Y-51351585D01*
X121632990Y-51351585D01*
X121632991Y-51351585D01*
X121632991Y-51351584D01*
X121633102Y-51351572D01*
X121634862Y-51350758D01*
X121735765Y-51306206D01*
X121815206Y-51226765D01*
X121836668Y-51178157D01*
X121855369Y-51148234D01*
X121864327Y-51137630D01*
X121922622Y-51099120D01*
X121992477Y-51098238D01*
X121992484Y-51098240D01*
X121992485Y-51098240D01*
X121997968Y-51099775D01*
X122052225Y-51131504D01*
X122877384Y-51956661D01*
X123146220Y-52225497D01*
X123146222Y-52225500D01*
X123211638Y-52290916D01*
X123270244Y-52324751D01*
X123277927Y-52331002D01*
X123284757Y-52340938D01*
X123299101Y-52354070D01*
X123299304Y-52353904D01*
X123300460Y-52355314D01*
X123301185Y-52355978D01*
X123304924Y-52361308D01*
X123303784Y-52362107D01*
X123306785Y-52369181D01*
X123308610Y-52370670D01*
X123311695Y-52380123D01*
X123317508Y-52388579D01*
X123317705Y-52394928D01*
X123326268Y-52415118D01*
X123327627Y-52414857D01*
X123328107Y-52417350D01*
X123328042Y-52419303D01*
X123328660Y-52420758D01*
X123328660Y-52420763D01*
X123329037Y-52424013D01*
X123327884Y-52424146D01*
X123327717Y-52429217D01*
X123330288Y-52437092D01*
X123326310Y-52472161D01*
X123325928Y-52473622D01*
X123319396Y-52492341D01*
X123305415Y-52524003D01*
X123305415Y-52524006D01*
X123302500Y-52549132D01*
X123302500Y-53638849D01*
X123302502Y-53638885D01*
X123305414Y-53663993D01*
X123305546Y-53664438D01*
X123306609Y-53666696D01*
X123325163Y-53708717D01*
X123350793Y-53766764D01*
X123350794Y-53766765D01*
X123430235Y-53846206D01*
X123533009Y-53891585D01*
X123558135Y-53894500D01*
X125829220Y-53894499D01*
X125864147Y-53899520D01*
X125875000Y-53902706D01*
X125933781Y-53940476D01*
X125962810Y-54004030D01*
X125952871Y-54073189D01*
X125952870Y-54073191D01*
X125949685Y-54080166D01*
X125924569Y-54116341D01*
X125498056Y-54542855D01*
X125469805Y-54564004D01*
X125446717Y-54576612D01*
X125387287Y-54591782D01*
X123485855Y-54591782D01*
X123396494Y-54615725D01*
X123396492Y-54615726D01*
X123367683Y-54632360D01*
X123367683Y-54632361D01*
X123365114Y-54633844D01*
X123365107Y-54633848D01*
X123350631Y-54642204D01*
X123350632Y-54642205D01*
X123316378Y-54661980D01*
X122087787Y-55890571D01*
X122065066Y-55907581D01*
X122059537Y-55911720D01*
X122049610Y-55917141D01*
X121981337Y-55931995D01*
X121915872Y-55907581D01*
X121873999Y-55851649D01*
X121871312Y-55844443D01*
X121863499Y-55801123D01*
X121863499Y-55089142D01*
X121863499Y-55089136D01*
X121863497Y-55089117D01*
X121860586Y-55064012D01*
X121860585Y-55064010D01*
X121860585Y-55064009D01*
X121815206Y-54961235D01*
X121745923Y-54891952D01*
X121745921Y-54891949D01*
X121745920Y-54891949D01*
X121724770Y-54863694D01*
X121712164Y-54840606D01*
X121696998Y-54781183D01*
X121696998Y-54736154D01*
X121696998Y-54736152D01*
X121667993Y-54627902D01*
X121611958Y-54530847D01*
X121532713Y-54451602D01*
X121460908Y-54410145D01*
X121444695Y-54400784D01*
X121435660Y-54395567D01*
X121402380Y-54386650D01*
X121381533Y-54381064D01*
X121381532Y-54381063D01*
X121327411Y-54366562D01*
X121327408Y-54366562D01*
X121215338Y-54366562D01*
X121215336Y-54366562D01*
X121107084Y-54395567D01*
X121010030Y-54451603D01*
X121010029Y-54451604D01*
X121010024Y-54451608D01*
X120930794Y-54530838D01*
X120930790Y-54530843D01*
X120930789Y-54530844D01*
X120874753Y-54627897D01*
X120848904Y-54724372D01*
X120848903Y-54724374D01*
X120835010Y-54756818D01*
X120826875Y-54770164D01*
X120775186Y-54817156D01*
X120767211Y-54821031D01*
X120713019Y-54833500D01*
X118518143Y-54833500D01*
X118518127Y-54833501D01*
X118518113Y-54833502D01*
X118500255Y-54835573D01*
X118493012Y-54836413D01*
X118493011Y-54836413D01*
X118493005Y-54836414D01*
X118492559Y-54836547D01*
X118490303Y-54837609D01*
X118390236Y-54881792D01*
X118310793Y-54961234D01*
X118265414Y-55064005D01*
X118264844Y-55066710D01*
X118264589Y-55071124D01*
X118262502Y-55089117D01*
X118262500Y-55089131D01*
X118262500Y-56178856D01*
X118262501Y-56178865D01*
X118262502Y-56178885D01*
X118265414Y-56203993D01*
X118265546Y-56204438D01*
X118266609Y-56206696D01*
X118310793Y-56306764D01*
X118310794Y-56306765D01*
X118390235Y-56386206D01*
X118493009Y-56431585D01*
X118518135Y-56434500D01*
X121226669Y-56434499D01*
X121259939Y-56439046D01*
X121260811Y-56439289D01*
X121265743Y-56440737D01*
X121266102Y-56440762D01*
X121272071Y-56442425D01*
X121297000Y-56457958D01*
X121323276Y-56471104D01*
X121326316Y-56476225D01*
X121331371Y-56479375D01*
X121343946Y-56505924D01*
X121358942Y-56531185D01*
X121358731Y-56537138D01*
X121361280Y-56542519D01*
X121357513Y-56571593D01*
X121356889Y-56589252D01*
X121359446Y-56589809D01*
X121359091Y-56591440D01*
X121356654Y-56595901D01*
X121356475Y-56600977D01*
X121355957Y-56602536D01*
X121353606Y-56601754D01*
X121352304Y-56611809D01*
X121339971Y-56626449D01*
X121325609Y-56652749D01*
X121283252Y-56695106D01*
X121266238Y-56707843D01*
X121255002Y-56716255D01*
X121231916Y-56728862D01*
X121172485Y-56744032D01*
X120404567Y-56744032D01*
X120404504Y-56744031D01*
X120402600Y-56744031D01*
X120395004Y-56744031D01*
X120302492Y-56744031D01*
X120236749Y-56761646D01*
X120236743Y-56761648D01*
X120213132Y-56767975D01*
X120213130Y-56767975D01*
X120213130Y-56767976D01*
X120191958Y-56780199D01*
X120191950Y-56780203D01*
X120133017Y-56814228D01*
X120133013Y-56814230D01*
X120133004Y-56814238D01*
X119781857Y-57165385D01*
X119781851Y-57165392D01*
X119781846Y-57165398D01*
X119781839Y-57165408D01*
X119735593Y-57245509D01*
X119730536Y-57264381D01*
X119716646Y-57296816D01*
X119708513Y-57310160D01*
X119695312Y-57322161D01*
X119694168Y-57324039D01*
X119692191Y-57324998D01*
X119656822Y-57357156D01*
X119648847Y-57361031D01*
X119594655Y-57373500D01*
X118518143Y-57373500D01*
X118518127Y-57373501D01*
X118518113Y-57373502D01*
X118500255Y-57375573D01*
X118493012Y-57376413D01*
X118493011Y-57376413D01*
X118493005Y-57376414D01*
X118492559Y-57376547D01*
X118490303Y-57377609D01*
X118390236Y-57421792D01*
X118310793Y-57501234D01*
X118265414Y-57604005D01*
X118264521Y-57608237D01*
X118264589Y-57611124D01*
X118262500Y-57629127D01*
X118262500Y-58718849D01*
X118262502Y-58718885D01*
X118265414Y-58743993D01*
X118265546Y-58744438D01*
X118266609Y-58746696D01*
X118310793Y-58846764D01*
X118310794Y-58846765D01*
X118390235Y-58926206D01*
X118493009Y-58971585D01*
X118518135Y-58974500D01*
X121607864Y-58974499D01*
X121607879Y-58974497D01*
X121607882Y-58974497D01*
X121607888Y-58974496D01*
X121608019Y-58974487D01*
X121608736Y-58974397D01*
X121632987Y-58971586D01*
X121632987Y-58971585D01*
X121632990Y-58971585D01*
X121632991Y-58971585D01*
X121632991Y-58971584D01*
X121633102Y-58971572D01*
X121634862Y-58970758D01*
X121735765Y-58926206D01*
X121815206Y-58846765D01*
X121860585Y-58743991D01*
X121863500Y-58718865D01*
X121863499Y-57629136D01*
X121861410Y-57611120D01*
X121861410Y-57611117D01*
X121860586Y-57604013D01*
X121860585Y-57604010D01*
X121860585Y-57604009D01*
X121815206Y-57501235D01*
X121743339Y-57429368D01*
X121741142Y-57426434D01*
X121722187Y-57401112D01*
X121714695Y-57387391D01*
X121699843Y-57319131D01*
X121699972Y-57317322D01*
X121719338Y-57259126D01*
X121723528Y-57252606D01*
X121740152Y-57231978D01*
X123078216Y-55893913D01*
X123106464Y-55872767D01*
X123116393Y-55867345D01*
X123184665Y-55852494D01*
X123250129Y-55876911D01*
X123292001Y-55932844D01*
X123294682Y-55940032D01*
X123302500Y-55983366D01*
X123302500Y-56178856D01*
X123302501Y-56178865D01*
X123302502Y-56178885D01*
X123305414Y-56203993D01*
X123305546Y-56204438D01*
X123306609Y-56206696D01*
X123350793Y-56306764D01*
X123350794Y-56306765D01*
X123430235Y-56386206D01*
X123533009Y-56431585D01*
X123558135Y-56434500D01*
X126647864Y-56434499D01*
X126647879Y-56434497D01*
X126647882Y-56434497D01*
X126647888Y-56434496D01*
X126648019Y-56434487D01*
X126648736Y-56434397D01*
X126672987Y-56431586D01*
X126672987Y-56431585D01*
X126672990Y-56431585D01*
X126672991Y-56431585D01*
X126672991Y-56431584D01*
X126673102Y-56431572D01*
X126674862Y-56430758D01*
X126775765Y-56386206D01*
X126855206Y-56306765D01*
X126900585Y-56203991D01*
X126903500Y-56178865D01*
X126903500Y-56108677D01*
X126906064Y-56090847D01*
X126908523Y-56073741D01*
X126912927Y-56058743D01*
X126950691Y-55999975D01*
X126950701Y-55999966D01*
X126957393Y-55994167D01*
X127006511Y-55968098D01*
X127031486Y-55961407D01*
X127111604Y-55915151D01*
X127177020Y-55849735D01*
X137523176Y-45503578D01*
X137551421Y-45482435D01*
X137574513Y-45469827D01*
X137633938Y-45454660D01*
X138119857Y-45454660D01*
X138119859Y-45454660D01*
X138209220Y-45430716D01*
X138289338Y-45384460D01*
X138354754Y-45319044D01*
X138354753Y-45319044D01*
X138413322Y-45260475D01*
X138413339Y-45260457D01*
X138413338Y-45260457D01*
X143699610Y-39974186D01*
X143718352Y-39958799D01*
X143724792Y-39954492D01*
X143725092Y-39954941D01*
X143729077Y-39951888D01*
X143728956Y-39951706D01*
X143731801Y-39949802D01*
X143731911Y-39949718D01*
X143732015Y-39949655D01*
X143732039Y-39949644D01*
X143734055Y-39948294D01*
X143770915Y-39931580D01*
X143819165Y-39918653D01*
X143859031Y-39895635D01*
X143867347Y-39892841D01*
X143871572Y-39889313D01*
X143901323Y-39881425D01*
X143905611Y-39879985D01*
X143906557Y-39879866D01*
X143911268Y-39879355D01*
X143911940Y-39879191D01*
X143915825Y-39878705D01*
X143947463Y-39883841D01*
X143973780Y-39886810D01*
X143974207Y-39885577D01*
X143980476Y-39887746D01*
X143981364Y-39888302D01*
X143981761Y-39888469D01*
X143981733Y-39888533D01*
X143983613Y-39889709D01*
X143984792Y-39889901D01*
X143986794Y-39891700D01*
X144027613Y-39917249D01*
X148421434Y-44311070D01*
X148442583Y-44339321D01*
X148455191Y-44362410D01*
X148470360Y-44421839D01*
X148470360Y-49352487D01*
X148466135Y-49384581D01*
X148457972Y-49415045D01*
X148445585Y-49444950D01*
X148425091Y-49480445D01*
X148425091Y-49480447D01*
X148396086Y-49588698D01*
X148396086Y-49700769D01*
X148403797Y-49729549D01*
X148403801Y-49729560D01*
X148404941Y-49733815D01*
X148425091Y-49809019D01*
X148434542Y-49825388D01*
X148481126Y-49906073D01*
X148560371Y-49985318D01*
X148657426Y-50041353D01*
X148765676Y-50070358D01*
X148765678Y-50070358D01*
X148863909Y-50070358D01*
X148867171Y-50070894D01*
X148868912Y-50070459D01*
X148882999Y-50071836D01*
X148885873Y-50072283D01*
X148885873Y-50072284D01*
X148904236Y-50075145D01*
X148918912Y-50082057D01*
X148923778Y-50083702D01*
X148926587Y-50085672D01*
X148967446Y-50104916D01*
X148977947Y-50121687D01*
X148980984Y-50123817D01*
X148984186Y-50131651D01*
X149004526Y-50164135D01*
X149004328Y-50180926D01*
X149007421Y-50188492D01*
X149004023Y-50206832D01*
X149003704Y-50234000D01*
X149003698Y-50234017D01*
X149002623Y-50237523D01*
X148996431Y-50247818D01*
X148994695Y-50257193D01*
X148983859Y-50268723D01*
X148971754Y-50288852D01*
X148952523Y-50308083D01*
X148952520Y-50308087D01*
X148899792Y-50399412D01*
X148899792Y-50399413D01*
X148872500Y-50501273D01*
X148872500Y-50606732D01*
X148888178Y-50665248D01*
X148888180Y-50665250D01*
X148888180Y-50665254D01*
X148888181Y-50665256D01*
X148890087Y-50681198D01*
X148892371Y-50700294D01*
X148891924Y-50719103D01*
X148873841Y-50780693D01*
X148868420Y-50789587D01*
X148850219Y-50812732D01*
X147495351Y-52167600D01*
X147467100Y-52188749D01*
X147444012Y-52201357D01*
X147384582Y-52216527D01*
X143379471Y-52216527D01*
X143344536Y-52211504D01*
X143333682Y-52208317D01*
X143274904Y-52170543D01*
X143245879Y-52106987D01*
X143247496Y-52095742D01*
X143255819Y-52037838D01*
X143259009Y-52030851D01*
X143284118Y-51994687D01*
X145905955Y-49372850D01*
X145934205Y-49351702D01*
X145957297Y-49339094D01*
X146016722Y-49323927D01*
X146610656Y-49323927D01*
X146642748Y-49328152D01*
X146673214Y-49336315D01*
X146702969Y-49348615D01*
X146703290Y-49348800D01*
X146703415Y-49348931D01*
X146703441Y-49348888D01*
X146738610Y-49369193D01*
X146738611Y-49369193D01*
X146738616Y-49369196D01*
X146846866Y-49398201D01*
X146846868Y-49398201D01*
X146958934Y-49398201D01*
X146958936Y-49398201D01*
X147067186Y-49369196D01*
X147164241Y-49313161D01*
X147243486Y-49233916D01*
X147299521Y-49136861D01*
X147328526Y-49028611D01*
X147328526Y-48916541D01*
X147299521Y-48808291D01*
X147243486Y-48711236D01*
X147164241Y-48631991D01*
X147164238Y-48631989D01*
X147164234Y-48631986D01*
X147115713Y-48603972D01*
X147115713Y-48603973D01*
X147067188Y-48575956D01*
X147003464Y-48558882D01*
X147003464Y-48558881D01*
X146958937Y-48546951D01*
X146958936Y-48546951D01*
X146846866Y-48546951D01*
X146738615Y-48575956D01*
X146738613Y-48575956D01*
X146703118Y-48596450D01*
X146673214Y-48608836D01*
X146642751Y-48616999D01*
X146610656Y-48621225D01*
X145865163Y-48621225D01*
X145865100Y-48621224D01*
X145863196Y-48621224D01*
X145855600Y-48621224D01*
X145763088Y-48621224D01*
X145697345Y-48638839D01*
X145697339Y-48638841D01*
X145673728Y-48645168D01*
X145673726Y-48645168D01*
X145673726Y-48645169D01*
X145652554Y-48657392D01*
X145652546Y-48657396D01*
X145593613Y-48691421D01*
X145593609Y-48691423D01*
X145593600Y-48691431D01*
X142192963Y-52092068D01*
X142192957Y-52092075D01*
X142192952Y-52092081D01*
X142192951Y-52092082D01*
X142146702Y-52172188D01*
X142146700Y-52172193D01*
X142146695Y-52172210D01*
X142130796Y-52231548D01*
X142122755Y-52261558D01*
X142122755Y-52869676D01*
X142145412Y-52954231D01*
X142146699Y-52959036D01*
X142146700Y-52959039D01*
X142166597Y-52993501D01*
X142166598Y-52993503D01*
X142174264Y-53006782D01*
X142174266Y-53006785D01*
X142192949Y-53039146D01*
X142192952Y-53039151D01*
X142192954Y-53039154D01*
X142192958Y-53039159D01*
X143528905Y-54375104D01*
X143548611Y-54400784D01*
X143564381Y-54428098D01*
X143576768Y-54458004D01*
X143587376Y-54497594D01*
X143587377Y-54497595D01*
X143606574Y-54530844D01*
X143606575Y-54530846D01*
X143643411Y-54594649D01*
X143643413Y-54594652D01*
X143643414Y-54594653D01*
X143722659Y-54673898D01*
X143803660Y-54720664D01*
X143809368Y-54723960D01*
X143819714Y-54729933D01*
X143927964Y-54758938D01*
X143927966Y-54758938D01*
X144040032Y-54758938D01*
X144040034Y-54758938D01*
X144148284Y-54729933D01*
X144245339Y-54673898D01*
X144324584Y-54594653D01*
X144380619Y-54497598D01*
X144409624Y-54389348D01*
X144409624Y-54277278D01*
X144380619Y-54169028D01*
X144324584Y-54071973D01*
X144245339Y-53992728D01*
X144207848Y-53971082D01*
X144189302Y-53960374D01*
X144189302Y-53960373D01*
X144148286Y-53936693D01*
X144148283Y-53936692D01*
X144108689Y-53926082D01*
X144078784Y-53913695D01*
X144051470Y-53897925D01*
X144025790Y-53878219D01*
X143291089Y-53143517D01*
X143269940Y-53115267D01*
X143264518Y-53105337D01*
X143249665Y-53037067D01*
X143274079Y-52971602D01*
X143330009Y-52929730D01*
X143333888Y-52928283D01*
X143337224Y-52927040D01*
X143380538Y-52919229D01*
X147638214Y-52919229D01*
X147638216Y-52919229D01*
X147727577Y-52895285D01*
X147807695Y-52849029D01*
X147873111Y-52783613D01*
X147873110Y-52783613D01*
X147931679Y-52725044D01*
X149653306Y-51003418D01*
X149681551Y-50982275D01*
X149704643Y-50969667D01*
X149764068Y-50954500D01*
X150595725Y-50954500D01*
X150595727Y-50954500D01*
X150697587Y-50927207D01*
X150788913Y-50874480D01*
X150863480Y-50799913D01*
X150916207Y-50708587D01*
X150943500Y-50606727D01*
X150943500Y-50501273D01*
X150916207Y-50399413D01*
X150863480Y-50308087D01*
X150788913Y-50233520D01*
X150710922Y-50188492D01*
X150697589Y-50180794D01*
X150697588Y-50180793D01*
X150697587Y-50180793D01*
X150595727Y-50153500D01*
X150595726Y-50153500D01*
X149937612Y-50153500D01*
X149905516Y-50149274D01*
X149875050Y-50141110D01*
X149845149Y-50128725D01*
X149841455Y-50126592D01*
X149752095Y-50102648D01*
X149752093Y-50102648D01*
X149659581Y-50102648D01*
X149609845Y-50115974D01*
X149609846Y-50115975D01*
X149570219Y-50126592D01*
X149566523Y-50128727D01*
X149536626Y-50141110D01*
X149536624Y-50141111D01*
X149506163Y-50149274D01*
X149474066Y-50153500D01*
X149232061Y-50153500D01*
X149197126Y-50148477D01*
X149186272Y-50145290D01*
X149127494Y-50107516D01*
X149098469Y-50043960D01*
X149108409Y-49974811D01*
X149111599Y-49967824D01*
X149136707Y-49931661D01*
X149162296Y-49906073D01*
X149218331Y-49809018D01*
X149247336Y-49700768D01*
X149247336Y-49588698D01*
X149218331Y-49480448D01*
X149197835Y-49444948D01*
X149185450Y-49415045D01*
X149177287Y-49384578D01*
X149173062Y-49352487D01*
X149173062Y-44921491D01*
X153901429Y-44921491D01*
X153901429Y-46011213D01*
X153901431Y-46011249D01*
X153904343Y-46036357D01*
X153904475Y-46036802D01*
X153905538Y-46039060D01*
X153949720Y-46139124D01*
X153949722Y-46139128D01*
X153949723Y-46139129D01*
X154029164Y-46218570D01*
X154078147Y-46240198D01*
X154131935Y-46263948D01*
X154131936Y-46263948D01*
X154131938Y-46263949D01*
X154157064Y-46266864D01*
X157246793Y-46266863D01*
X157246808Y-46266861D01*
X157246811Y-46266861D01*
X157246817Y-46266860D01*
X157246948Y-46266851D01*
X157247665Y-46266761D01*
X157271916Y-46263950D01*
X157271916Y-46263949D01*
X157271919Y-46263949D01*
X157271920Y-46263949D01*
X157271920Y-46263948D01*
X157272031Y-46263936D01*
X157273791Y-46263122D01*
X157374694Y-46218570D01*
X157454135Y-46139129D01*
X157499514Y-46036355D01*
X157502429Y-46011229D01*
X157502428Y-44921500D01*
X157500713Y-44906710D01*
X157500400Y-44904007D01*
X157500400Y-44904006D01*
X157500343Y-44903513D01*
X157500341Y-44903495D01*
X157500032Y-44900838D01*
X157499515Y-44896376D01*
X157499514Y-44896374D01*
X157499514Y-44896373D01*
X157454135Y-44793599D01*
X157374694Y-44714158D01*
X157374692Y-44714157D01*
X157341808Y-44699637D01*
X157271922Y-44668779D01*
X157271923Y-44668779D01*
X157246797Y-44665864D01*
X157246794Y-44665864D01*
X154157072Y-44665864D01*
X154157056Y-44665865D01*
X154157042Y-44665866D01*
X154139184Y-44667937D01*
X154131941Y-44668777D01*
X154131940Y-44668777D01*
X154131934Y-44668778D01*
X154131488Y-44668911D01*
X154129232Y-44669973D01*
X154029165Y-44714156D01*
X153949722Y-44793598D01*
X153904343Y-44896369D01*
X153903773Y-44899074D01*
X153903518Y-44903488D01*
X153901429Y-44921491D01*
X149173062Y-44921491D01*
X149173062Y-44168207D01*
X149173062Y-44168205D01*
X149149118Y-44078844D01*
X149102862Y-43998726D01*
X149037446Y-43933310D01*
X145348099Y-40243963D01*
X151980524Y-40243963D01*
X151980524Y-40356035D01*
X152009527Y-40464284D01*
X152037546Y-40512812D01*
X152037545Y-40512812D01*
X152065559Y-40561333D01*
X152065562Y-40561337D01*
X152065564Y-40561340D01*
X152144809Y-40640585D01*
X152241864Y-40696620D01*
X152350114Y-40725625D01*
X152377680Y-40725625D01*
X152393864Y-40726686D01*
X152409839Y-40728789D01*
X152425702Y-40731940D01*
X152427458Y-40732411D01*
X152427496Y-40732434D01*
X152427500Y-40732423D01*
X152440962Y-40736029D01*
X152445893Y-40737351D01*
X152538405Y-40737351D01*
X153759601Y-40737351D01*
X153794536Y-40742374D01*
X153809534Y-40746778D01*
X153868285Y-40784523D01*
X153868309Y-40784551D01*
X153868312Y-40784553D01*
X153868313Y-40784555D01*
X153869472Y-40785892D01*
X153896948Y-40840753D01*
X153898593Y-40848311D01*
X153901430Y-40874682D01*
X153901430Y-40931220D01*
X153901431Y-40931246D01*
X153902316Y-40938882D01*
X153904343Y-40956357D01*
X153904475Y-40956802D01*
X153905538Y-40959060D01*
X153942903Y-41043684D01*
X153949722Y-41059128D01*
X153949723Y-41059129D01*
X154029164Y-41138570D01*
X154131938Y-41183949D01*
X154157064Y-41186864D01*
X155834189Y-41186863D01*
X155867036Y-41191585D01*
X155869116Y-41191884D01*
X155879969Y-41195070D01*
X155938750Y-41232840D01*
X155967779Y-41296394D01*
X155957840Y-41365553D01*
X155957839Y-41365555D01*
X155954654Y-41372530D01*
X155929538Y-41408705D01*
X155420857Y-41917385D01*
X155420851Y-41917392D01*
X155420846Y-41917398D01*
X155420845Y-41917399D01*
X155374595Y-41997507D01*
X155374593Y-41997512D01*
X155374592Y-41997514D01*
X155369440Y-42016742D01*
X155361300Y-42035750D01*
X155355549Y-42049180D01*
X155347414Y-42062527D01*
X155295715Y-42109525D01*
X155287736Y-42113401D01*
X155233558Y-42125864D01*
X154157072Y-42125864D01*
X154157056Y-42125865D01*
X154157042Y-42125866D01*
X154139184Y-42127937D01*
X154131941Y-42128777D01*
X154131940Y-42128777D01*
X154131934Y-42128778D01*
X154131488Y-42128911D01*
X154129232Y-42129973D01*
X154029165Y-42174156D01*
X153949722Y-42253598D01*
X153904343Y-42356369D01*
X153903773Y-42359074D01*
X153903518Y-42363488D01*
X153901429Y-42381491D01*
X153901429Y-43471213D01*
X153901431Y-43471249D01*
X153904343Y-43496357D01*
X153904475Y-43496802D01*
X153905538Y-43499060D01*
X153907716Y-43503993D01*
X153949722Y-43599128D01*
X153949723Y-43599129D01*
X154029164Y-43678570D01*
X154131938Y-43723949D01*
X154157064Y-43726864D01*
X157246793Y-43726863D01*
X157246808Y-43726861D01*
X157246811Y-43726861D01*
X157246817Y-43726860D01*
X157246948Y-43726851D01*
X157247665Y-43726761D01*
X157271916Y-43723950D01*
X157271916Y-43723949D01*
X157271919Y-43723949D01*
X157271920Y-43723949D01*
X157271920Y-43723948D01*
X157272031Y-43723936D01*
X157273791Y-43723122D01*
X157374694Y-43678570D01*
X157454135Y-43599129D01*
X157499514Y-43496355D01*
X157502429Y-43471229D01*
X157502428Y-42381500D01*
X157500713Y-42366710D01*
X157500400Y-42364007D01*
X157500400Y-42364006D01*
X157500343Y-42363513D01*
X157500341Y-42363495D01*
X157500032Y-42360838D01*
X157499515Y-42356376D01*
X157499514Y-42356374D01*
X157499514Y-42356373D01*
X157454135Y-42253599D01*
X157374694Y-42174158D01*
X157374692Y-42174157D01*
X157341808Y-42159637D01*
X157271922Y-42128779D01*
X157246798Y-42125864D01*
X157246797Y-42125864D01*
X157246794Y-42125864D01*
X156523345Y-42125864D01*
X156488410Y-42120841D01*
X156477556Y-42117654D01*
X156418778Y-42079880D01*
X156389753Y-42016324D01*
X156390227Y-42013028D01*
X156399693Y-41947175D01*
X156402883Y-41940188D01*
X156427992Y-41904024D01*
X156841533Y-41490484D01*
X156869783Y-41469336D01*
X156892875Y-41456728D01*
X156952300Y-41441561D01*
X157317449Y-41441561D01*
X157317451Y-41441561D01*
X157406812Y-41417617D01*
X157486930Y-41371361D01*
X157552346Y-41305945D01*
X157552346Y-41305944D01*
X157633051Y-41225236D01*
X157633057Y-41225233D01*
X157650498Y-41207792D01*
X157650499Y-41207792D01*
X157715915Y-41142376D01*
X157762171Y-41062258D01*
X157786115Y-40972897D01*
X157786115Y-39942343D01*
X157786116Y-39942292D01*
X157786116Y-39837439D01*
X157786116Y-39837437D01*
X157762172Y-39748077D01*
X157715915Y-39667958D01*
X157315692Y-39267735D01*
X157295987Y-39242055D01*
X157280218Y-39214743D01*
X157267829Y-39184834D01*
X157257222Y-39145246D01*
X157201187Y-39048191D01*
X157121942Y-38968946D01*
X157121939Y-38968944D01*
X157121935Y-38968941D01*
X157073414Y-38940927D01*
X157073414Y-38940928D01*
X157024889Y-38912911D01*
X156930968Y-38887746D01*
X156930967Y-38887745D01*
X156920476Y-38884934D01*
X156916637Y-38883906D01*
X156916636Y-38883906D01*
X156804565Y-38883906D01*
X156696313Y-38912911D01*
X156599259Y-38968947D01*
X156599258Y-38968948D01*
X156599253Y-38968952D01*
X156520023Y-39048182D01*
X156520019Y-39048187D01*
X156520018Y-39048188D01*
X156463982Y-39145242D01*
X156434977Y-39253494D01*
X156434977Y-39253496D01*
X156434977Y-39365567D01*
X156447566Y-39412551D01*
X156451050Y-39441694D01*
X156451755Y-39447590D01*
X156451425Y-39461465D01*
X156430152Y-39528018D01*
X156376277Y-39572503D01*
X156368461Y-39575850D01*
X156319645Y-39585864D01*
X154157072Y-39585864D01*
X154157056Y-39585865D01*
X154157042Y-39585866D01*
X154139184Y-39587937D01*
X154131941Y-39588777D01*
X154131940Y-39588777D01*
X154131934Y-39588778D01*
X154131488Y-39588911D01*
X154129232Y-39589973D01*
X154029165Y-39634156D01*
X153949722Y-39713598D01*
X153904343Y-39816369D01*
X153904135Y-39817357D01*
X153904094Y-39818523D01*
X153901429Y-39841495D01*
X153901429Y-39894987D01*
X153901354Y-39897139D01*
X153900390Y-39900043D01*
X153896404Y-39927763D01*
X153891999Y-39942761D01*
X153880031Y-39961387D01*
X153879346Y-39963452D01*
X153878013Y-39964527D01*
X153854256Y-40001504D01*
X153852887Y-40002691D01*
X153798026Y-40030167D01*
X153790468Y-40031812D01*
X153764097Y-40034649D01*
X152811915Y-40034649D01*
X152811914Y-40034648D01*
X152811914Y-40034649D01*
X152776979Y-40029626D01*
X152751737Y-40022214D01*
X152698992Y-39990918D01*
X152667491Y-39959417D01*
X152667490Y-39959416D01*
X152667489Y-39959415D01*
X152667486Y-39959413D01*
X152667482Y-39959410D01*
X152616453Y-39929948D01*
X152616453Y-39929949D01*
X152570435Y-39903380D01*
X152516309Y-39888877D01*
X152516308Y-39888876D01*
X152462187Y-39874375D01*
X152462184Y-39874375D01*
X152350114Y-39874375D01*
X152350112Y-39874375D01*
X152241860Y-39903380D01*
X152144806Y-39959416D01*
X152144805Y-39959417D01*
X152144800Y-39959421D01*
X152065570Y-40038651D01*
X152065566Y-40038656D01*
X152065565Y-40038657D01*
X152009529Y-40135711D01*
X151980524Y-40243963D01*
X145348099Y-40243963D01*
X144005264Y-38901128D01*
X144005263Y-38901127D01*
X144005260Y-38901125D01*
X143937188Y-38861824D01*
X143935142Y-38860534D01*
X143933292Y-38858436D01*
X143932754Y-38858023D01*
X143917540Y-38851721D01*
X143909378Y-38850647D01*
X143858304Y-38836962D01*
X143835785Y-38830928D01*
X143835784Y-38830928D01*
X123398874Y-38830928D01*
X123398873Y-38830927D01*
X123398873Y-38830928D01*
X123363938Y-38825905D01*
X123338696Y-38818493D01*
X123285951Y-38787197D01*
X122692385Y-38193631D01*
X122071605Y-37572850D01*
X122071604Y-37572849D01*
X122065992Y-37569609D01*
X122047496Y-37558930D01*
X122047491Y-37558928D01*
X122042479Y-37556034D01*
X121991486Y-37526593D01*
X121956725Y-37517279D01*
X121947211Y-37512913D01*
X121938103Y-37504992D01*
X121921819Y-37496493D01*
X121921628Y-37496759D01*
X121919780Y-37495428D01*
X121919018Y-37495031D01*
X121914166Y-37490942D01*
X121915067Y-37489872D01*
X121903241Y-37474673D01*
X121894490Y-37467063D01*
X121892793Y-37461247D01*
X121879823Y-37444580D01*
X121878564Y-37445192D01*
X121875957Y-37439824D01*
X121875814Y-37439204D01*
X121874756Y-37436521D01*
X121875160Y-37436361D01*
X121863499Y-37385653D01*
X121863499Y-37309142D01*
X121863499Y-37309136D01*
X121863497Y-37309117D01*
X121860586Y-37284012D01*
X121860585Y-37284010D01*
X121860585Y-37284009D01*
X121815206Y-37181235D01*
X121735765Y-37101794D01*
X121735760Y-37101792D01*
X121735759Y-37101791D01*
X121718470Y-37094157D01*
X121718469Y-37094157D01*
X121632994Y-37056415D01*
X121607869Y-37053500D01*
X121607868Y-37053500D01*
X121607865Y-37053500D01*
X121377553Y-37053500D01*
X121344279Y-37048952D01*
X121343451Y-37048721D01*
X121338478Y-37047261D01*
X121338115Y-37047235D01*
X121332145Y-37045572D01*
X121307202Y-37030029D01*
X121280919Y-37016871D01*
X121277887Y-37011761D01*
X121272846Y-37008620D01*
X121260265Y-36982057D01*
X121245269Y-36956780D01*
X121245481Y-36950842D01*
X121242939Y-36945475D01*
X121246715Y-36916332D01*
X121247342Y-36898798D01*
X121244764Y-36898238D01*
X121245119Y-36896604D01*
X121247582Y-36892089D01*
X121247766Y-36886955D01*
X121247767Y-36886953D01*
X121248285Y-36885397D01*
X121250623Y-36886175D01*
X121251918Y-36876185D01*
X121264248Y-36861547D01*
X121278584Y-36835276D01*
X121315347Y-36798515D01*
X121315347Y-36798514D01*
X122246311Y-35867549D01*
X122274554Y-35846405D01*
X122284488Y-35840981D01*
X122352758Y-35826128D01*
X122418223Y-35850542D01*
X122460096Y-35906474D01*
X122462779Y-35913666D01*
X122470597Y-35957000D01*
X122470597Y-36187513D01*
X122466372Y-36219607D01*
X122458209Y-36250071D01*
X122445822Y-36279976D01*
X122425328Y-36315471D01*
X122425328Y-36315473D01*
X122396323Y-36423724D01*
X122396323Y-36535794D01*
X122425326Y-36644043D01*
X122453345Y-36692571D01*
X122453344Y-36692571D01*
X122481358Y-36741092D01*
X122481361Y-36741096D01*
X122481363Y-36741099D01*
X122560608Y-36820344D01*
X122657663Y-36876379D01*
X122765913Y-36905384D01*
X122765915Y-36905384D01*
X122877981Y-36905384D01*
X122877983Y-36905384D01*
X122986233Y-36876379D01*
X123083288Y-36820344D01*
X123162533Y-36741099D01*
X123218568Y-36644044D01*
X123247573Y-36535794D01*
X123247573Y-36423724D01*
X123218568Y-36315474D01*
X123198074Y-36279978D01*
X123185687Y-36250071D01*
X123177524Y-36219605D01*
X123173299Y-36187513D01*
X123173299Y-35256068D01*
X123178321Y-35221135D01*
X123185733Y-35195890D01*
X123217027Y-35143148D01*
X124338380Y-34021795D01*
X124366625Y-34000652D01*
X124389717Y-33988044D01*
X124449142Y-33972877D01*
X125094597Y-33972877D01*
X125094599Y-33972877D01*
X125183960Y-33948933D01*
X125264078Y-33902677D01*
X125329494Y-33837261D01*
X125384151Y-33782604D01*
X125430408Y-33702485D01*
X125435462Y-33683622D01*
X125449352Y-33651186D01*
X125455861Y-33640507D01*
X125457486Y-33637839D01*
X125509184Y-33590839D01*
X125509195Y-33590834D01*
X125517171Y-33586960D01*
X125571346Y-33574499D01*
X126647850Y-33574499D01*
X126647856Y-33574499D01*
X126647864Y-33574499D01*
X126647879Y-33574497D01*
X126647882Y-33574497D01*
X126647888Y-33574496D01*
X126648019Y-33574487D01*
X126648736Y-33574397D01*
X126672987Y-33571586D01*
X126672987Y-33571585D01*
X126672990Y-33571585D01*
X126672991Y-33571585D01*
X126672991Y-33571584D01*
X126673102Y-33571572D01*
X126674862Y-33570758D01*
X126775765Y-33526206D01*
X126855206Y-33446765D01*
X126900585Y-33343991D01*
X126903500Y-33318865D01*
X126903499Y-32229136D01*
X126902612Y-32221491D01*
X148861429Y-32221491D01*
X148861429Y-33311213D01*
X148861431Y-33311249D01*
X148864343Y-33336357D01*
X148864475Y-33336802D01*
X148865538Y-33339060D01*
X148867716Y-33343993D01*
X148909722Y-33439128D01*
X148909723Y-33439129D01*
X148989164Y-33518570D01*
X149091938Y-33563949D01*
X149117064Y-33566864D01*
X150187418Y-33566863D01*
X150207531Y-33569755D01*
X150222352Y-33571886D01*
X150237351Y-33576290D01*
X150296127Y-33614061D01*
X150301933Y-33620761D01*
X150327987Y-33669833D01*
X150328291Y-33670966D01*
X150328303Y-33671010D01*
X150334592Y-33694485D01*
X150334594Y-33694488D01*
X150380845Y-33774599D01*
X150380846Y-33774600D01*
X150380851Y-33774606D01*
X150380857Y-33774613D01*
X150455295Y-33849051D01*
X150455340Y-33849094D01*
X150887822Y-34281576D01*
X150902051Y-34300582D01*
X150908969Y-34309822D01*
X150914390Y-34319748D01*
X150929247Y-34388020D01*
X150904835Y-34453486D01*
X150848906Y-34495361D01*
X150841720Y-34498042D01*
X150798376Y-34505864D01*
X149117072Y-34505864D01*
X149117056Y-34505865D01*
X149117042Y-34505866D01*
X149099184Y-34507937D01*
X149091941Y-34508777D01*
X149091940Y-34508777D01*
X149091934Y-34508778D01*
X149091488Y-34508911D01*
X149089232Y-34509973D01*
X148989165Y-34554156D01*
X148909722Y-34633598D01*
X148864343Y-34736369D01*
X148863773Y-34739074D01*
X148863518Y-34743488D01*
X148861429Y-34761491D01*
X148861429Y-35851213D01*
X148861431Y-35851249D01*
X148864343Y-35876357D01*
X148864475Y-35876802D01*
X148865538Y-35879060D01*
X148907232Y-35973489D01*
X148909722Y-35979128D01*
X148909723Y-35979129D01*
X148989164Y-36058570D01*
X149091938Y-36103949D01*
X149117064Y-36106864D01*
X150187418Y-36106863D01*
X150222352Y-36111886D01*
X150237351Y-36116290D01*
X150296127Y-36154061D01*
X150301933Y-36160761D01*
X150327998Y-36209874D01*
X150334593Y-36234488D01*
X150334594Y-36234488D01*
X150380845Y-36314599D01*
X150380846Y-36314600D01*
X150380851Y-36314606D01*
X150380857Y-36314613D01*
X150455295Y-36389051D01*
X150455340Y-36389094D01*
X150887822Y-36821575D01*
X150898076Y-36835272D01*
X150908971Y-36849825D01*
X150914392Y-36859752D01*
X150929246Y-36928025D01*
X150904832Y-36993490D01*
X150848906Y-37035361D01*
X150843384Y-37037421D01*
X150842881Y-37037609D01*
X150841720Y-37038042D01*
X150798376Y-37045864D01*
X149117072Y-37045864D01*
X149117056Y-37045865D01*
X149117042Y-37045866D01*
X149099184Y-37047937D01*
X149091941Y-37048777D01*
X149091940Y-37048777D01*
X149091934Y-37048778D01*
X149091488Y-37048911D01*
X149089232Y-37049973D01*
X148989165Y-37094156D01*
X148909722Y-37173598D01*
X148864343Y-37276369D01*
X148863773Y-37279074D01*
X148863518Y-37283488D01*
X148861429Y-37301491D01*
X148861429Y-38391213D01*
X148861431Y-38391249D01*
X148864343Y-38416357D01*
X148864475Y-38416802D01*
X148865538Y-38419060D01*
X148909722Y-38519128D01*
X148909723Y-38519129D01*
X148989164Y-38598570D01*
X149091938Y-38643949D01*
X149117064Y-38646864D01*
X152206793Y-38646863D01*
X152206808Y-38646861D01*
X152206811Y-38646861D01*
X152206817Y-38646860D01*
X152206948Y-38646851D01*
X152207665Y-38646761D01*
X152231916Y-38643950D01*
X152231916Y-38643949D01*
X152231919Y-38643949D01*
X152231920Y-38643949D01*
X152231920Y-38643948D01*
X152232031Y-38643936D01*
X152233791Y-38643122D01*
X152334694Y-38598570D01*
X152414135Y-38519129D01*
X152459514Y-38416355D01*
X152462429Y-38391229D01*
X152462428Y-38232703D01*
X152466973Y-38199439D01*
X152467201Y-38198619D01*
X152468666Y-38193631D01*
X152468692Y-38193265D01*
X152470351Y-38187308D01*
X152485876Y-38162388D01*
X152499005Y-38136126D01*
X152504140Y-38133075D01*
X152507298Y-38128007D01*
X152533829Y-38115437D01*
X152559074Y-38100441D01*
X152565042Y-38100650D01*
X152570440Y-38098094D01*
X152599554Y-38101864D01*
X152617114Y-38102481D01*
X152617672Y-38099913D01*
X152619307Y-38100268D01*
X152623795Y-38102716D01*
X152628900Y-38102896D01*
X152628996Y-38102928D01*
X152630551Y-38103446D01*
X152629774Y-38105777D01*
X152639731Y-38107067D01*
X152654367Y-38119395D01*
X152680640Y-38133727D01*
X152749870Y-38202957D01*
X152771019Y-38231208D01*
X152783627Y-38254297D01*
X152798796Y-38313726D01*
X152798796Y-38820635D01*
X152794571Y-38852729D01*
X152786408Y-38883193D01*
X152774021Y-38913098D01*
X152753527Y-38948593D01*
X152753527Y-38948595D01*
X152748074Y-38968946D01*
X152724522Y-39056846D01*
X152724522Y-39168916D01*
X152725363Y-39172053D01*
X152753527Y-39277167D01*
X152778246Y-39319980D01*
X152809562Y-39374221D01*
X152888807Y-39453466D01*
X152985862Y-39509501D01*
X153094112Y-39538506D01*
X153094114Y-39538506D01*
X153206180Y-39538506D01*
X153206182Y-39538506D01*
X153314432Y-39509501D01*
X153411487Y-39453466D01*
X153490732Y-39374221D01*
X153546767Y-39277166D01*
X153575772Y-39168916D01*
X153575772Y-39056846D01*
X153546767Y-38948596D01*
X153542340Y-38940928D01*
X153526274Y-38913100D01*
X153513886Y-38883193D01*
X153505723Y-38852728D01*
X153501498Y-38820635D01*
X153501498Y-38060095D01*
X153501498Y-38060093D01*
X153477554Y-37970732D01*
X153431298Y-37890614D01*
X153365882Y-37825198D01*
X153365881Y-37825197D01*
X153361551Y-37820867D01*
X153360529Y-37819845D01*
X153360486Y-37819803D01*
X151914466Y-36373782D01*
X151914465Y-36373781D01*
X151908238Y-36367554D01*
X151908236Y-36367552D01*
X151907366Y-36367050D01*
X151907366Y-36367051D01*
X151907356Y-36367045D01*
X151872917Y-36347162D01*
X151845180Y-36325349D01*
X151837376Y-36317165D01*
X151805358Y-36255064D01*
X151811997Y-36185510D01*
X151855155Y-36130608D01*
X151855661Y-36130248D01*
X151907083Y-36108947D01*
X151909308Y-36108573D01*
X151929833Y-36106863D01*
X152206779Y-36106863D01*
X152206785Y-36106863D01*
X152206793Y-36106863D01*
X152206808Y-36106861D01*
X152206811Y-36106861D01*
X152206817Y-36106860D01*
X152206948Y-36106851D01*
X152207665Y-36106761D01*
X152231916Y-36103950D01*
X152231916Y-36103949D01*
X152231919Y-36103949D01*
X152231920Y-36103949D01*
X152231920Y-36103948D01*
X152232031Y-36103936D01*
X152233791Y-36103122D01*
X152334694Y-36058570D01*
X152414135Y-35979129D01*
X152459514Y-35876355D01*
X152462429Y-35851229D01*
X152462428Y-34761500D01*
X152461834Y-34756374D01*
X152459515Y-34736377D01*
X152459514Y-34736375D01*
X152459514Y-34736373D01*
X152451649Y-34718562D01*
X152442138Y-34684587D01*
X152441689Y-34681157D01*
X152440109Y-34669091D01*
X152443007Y-34650588D01*
X152441398Y-34644429D01*
X152446343Y-34629284D01*
X152450918Y-34600074D01*
X152453201Y-34595236D01*
X152460515Y-34585886D01*
X152463087Y-34578011D01*
X152486989Y-34552045D01*
X152488163Y-34551088D01*
X152504505Y-34539817D01*
X152578106Y-34497325D01*
X152657351Y-34418080D01*
X152713386Y-34321025D01*
X152742391Y-34212775D01*
X152742391Y-34100705D01*
X152713386Y-33992455D01*
X152657351Y-33895400D01*
X152578106Y-33816155D01*
X152481051Y-33760120D01*
X152407226Y-33740339D01*
X152399791Y-33738346D01*
X152367349Y-33724453D01*
X152355499Y-33717230D01*
X152343503Y-33704034D01*
X152340130Y-33701978D01*
X152338404Y-33698425D01*
X152308500Y-33665530D01*
X152296913Y-33596637D01*
X152297107Y-33595016D01*
X152317543Y-33540227D01*
X152320358Y-33536067D01*
X152335345Y-33517918D01*
X152414135Y-33439129D01*
X152459514Y-33336355D01*
X152462429Y-33311229D01*
X152462428Y-32221500D01*
X152462428Y-32221499D01*
X152462428Y-32221495D01*
X153901429Y-32221495D01*
X153901429Y-32224192D01*
X153901429Y-33311213D01*
X153901431Y-33311249D01*
X153904343Y-33336357D01*
X153904475Y-33336802D01*
X153905538Y-33339060D01*
X153907716Y-33343993D01*
X153949722Y-33439128D01*
X153949723Y-33439129D01*
X154029164Y-33518570D01*
X154131938Y-33563949D01*
X154157064Y-33566864D01*
X157246793Y-33566863D01*
X157246808Y-33566861D01*
X157246811Y-33566861D01*
X157246817Y-33566860D01*
X157246948Y-33566851D01*
X157247665Y-33566761D01*
X157271916Y-33563950D01*
X157271916Y-33563949D01*
X157271919Y-33563949D01*
X157271920Y-33563949D01*
X157271920Y-33563948D01*
X157272031Y-33563936D01*
X157273791Y-33563122D01*
X157374694Y-33518570D01*
X157454135Y-33439129D01*
X157499514Y-33336355D01*
X157502429Y-33311229D01*
X157502428Y-32221500D01*
X157500400Y-32204009D01*
X157500400Y-32204005D01*
X157500343Y-32203513D01*
X157500341Y-32203495D01*
X157500030Y-32200818D01*
X157499515Y-32196376D01*
X157499514Y-32196374D01*
X157499514Y-32196373D01*
X157454135Y-32093599D01*
X157374694Y-32014158D01*
X157374692Y-32014157D01*
X157341808Y-31999637D01*
X157271922Y-31968779D01*
X157271923Y-31968779D01*
X157246797Y-31965864D01*
X157246794Y-31965864D01*
X154157072Y-31965864D01*
X154157056Y-31965865D01*
X154157042Y-31965866D01*
X154139184Y-31967937D01*
X154131941Y-31968777D01*
X154131940Y-31968777D01*
X154131934Y-31968778D01*
X154131488Y-31968911D01*
X154129232Y-31969973D01*
X154029165Y-32014156D01*
X153949722Y-32093598D01*
X153904343Y-32196369D01*
X153903773Y-32199074D01*
X153903672Y-32200818D01*
X153903710Y-32201724D01*
X153903618Y-32202620D01*
X153901429Y-32221495D01*
X152462428Y-32221495D01*
X152462428Y-32221494D01*
X152462426Y-32221474D01*
X152460340Y-32203483D01*
X152460085Y-32199082D01*
X152459516Y-32196385D01*
X152459515Y-32196376D01*
X152459514Y-32196374D01*
X152459514Y-32196373D01*
X152459513Y-32196370D01*
X152459450Y-32196072D01*
X152458322Y-32193673D01*
X152414135Y-32093599D01*
X152334694Y-32014158D01*
X152334692Y-32014157D01*
X152301808Y-31999637D01*
X152231922Y-31968779D01*
X152231923Y-31968779D01*
X152206797Y-31965864D01*
X152206794Y-31965864D01*
X149117072Y-31965864D01*
X149117056Y-31965865D01*
X149117042Y-31965866D01*
X149099184Y-31967937D01*
X149091941Y-31968777D01*
X149091940Y-31968777D01*
X149091934Y-31968778D01*
X149091488Y-31968911D01*
X149089232Y-31969973D01*
X148989165Y-32014156D01*
X148909722Y-32093598D01*
X148864343Y-32196369D01*
X148863773Y-32199074D01*
X148863518Y-32203488D01*
X148861429Y-32221491D01*
X126902612Y-32221491D01*
X126900585Y-32204009D01*
X126897213Y-32196373D01*
X126892414Y-32185505D01*
X126892414Y-32185503D01*
X126874594Y-32145146D01*
X126855206Y-32101235D01*
X126775765Y-32021794D01*
X126742880Y-32007274D01*
X126672993Y-31976415D01*
X126672994Y-31976415D01*
X126647868Y-31973500D01*
X126647865Y-31973500D01*
X123558143Y-31973500D01*
X123558127Y-31973501D01*
X123558113Y-31973502D01*
X123540255Y-31975573D01*
X123533012Y-31976413D01*
X123533011Y-31976413D01*
X123533005Y-31976414D01*
X123532559Y-31976547D01*
X123530303Y-31977609D01*
X123430236Y-32021792D01*
X123350793Y-32101234D01*
X123305414Y-32204005D01*
X123304844Y-32206710D01*
X123304589Y-32211124D01*
X123302500Y-32229127D01*
X123302500Y-33318849D01*
X123302502Y-33318885D01*
X123305414Y-33343993D01*
X123305546Y-33344438D01*
X123306609Y-33346696D01*
X123347421Y-33439127D01*
X123350793Y-33446764D01*
X123350794Y-33446765D01*
X123430235Y-33526206D01*
X123430237Y-33526207D01*
X123430239Y-33526208D01*
X123451599Y-33535639D01*
X123500576Y-33557264D01*
X123524307Y-33567742D01*
X123539151Y-33575537D01*
X123540967Y-33576653D01*
X123540967Y-33576654D01*
X123559501Y-33588047D01*
X123606303Y-33639923D01*
X123617631Y-33708854D01*
X123617417Y-33710590D01*
X123596899Y-33765129D01*
X123594201Y-33769098D01*
X123579332Y-33787069D01*
X122998390Y-34368012D01*
X122979151Y-34382415D01*
X122970140Y-34389161D01*
X122960213Y-34394582D01*
X122891940Y-34409436D01*
X122826475Y-34385022D01*
X122784602Y-34329090D01*
X122784597Y-34329077D01*
X122781917Y-34321890D01*
X122774102Y-34278565D01*
X122774102Y-31821390D01*
X122779124Y-31786457D01*
X122786536Y-31761212D01*
X122817830Y-31708470D01*
X123177348Y-31348951D01*
X123203025Y-31329249D01*
X123230338Y-31313479D01*
X123260240Y-31301094D01*
X123299836Y-31290486D01*
X123396891Y-31234451D01*
X123476136Y-31155206D01*
X123501118Y-31111934D01*
X123522929Y-31084199D01*
X123536551Y-31071210D01*
X123592885Y-31040449D01*
X123603007Y-31037993D01*
X123632240Y-31034499D01*
X126647850Y-31034499D01*
X126647864Y-31034499D01*
X126647879Y-31034497D01*
X126647882Y-31034497D01*
X126647888Y-31034496D01*
X126648019Y-31034487D01*
X126648736Y-31034397D01*
X126672987Y-31031586D01*
X126672987Y-31031585D01*
X126672990Y-31031585D01*
X126672991Y-31031585D01*
X126672991Y-31031584D01*
X126673102Y-31031572D01*
X126674862Y-31030758D01*
X126775765Y-30986206D01*
X126855206Y-30906765D01*
X126900585Y-30803991D01*
X126903500Y-30778865D01*
X126903499Y-29689136D01*
X126902612Y-29681491D01*
X148861429Y-29681491D01*
X148861429Y-30771213D01*
X148861431Y-30771249D01*
X148864343Y-30796357D01*
X148864475Y-30796802D01*
X148865538Y-30799060D01*
X148890593Y-30855804D01*
X148909722Y-30899128D01*
X148909723Y-30899129D01*
X148989164Y-30978570D01*
X149091938Y-31023949D01*
X149117064Y-31026864D01*
X152206793Y-31026863D01*
X152206808Y-31026861D01*
X152206811Y-31026861D01*
X152206817Y-31026860D01*
X152206948Y-31026851D01*
X152207665Y-31026761D01*
X152231916Y-31023950D01*
X152231916Y-31023949D01*
X152231919Y-31023949D01*
X152231920Y-31023949D01*
X152231920Y-31023948D01*
X152232031Y-31023936D01*
X152233791Y-31023122D01*
X152334694Y-30978570D01*
X152414135Y-30899129D01*
X152459514Y-30796355D01*
X152462429Y-30771229D01*
X152462428Y-29681500D01*
X152460400Y-29664009D01*
X152460400Y-29664006D01*
X152460343Y-29663513D01*
X152460341Y-29663495D01*
X152460032Y-29660838D01*
X152459515Y-29656376D01*
X152459514Y-29656374D01*
X152459514Y-29656373D01*
X152414135Y-29553599D01*
X152334694Y-29474158D01*
X152334692Y-29474157D01*
X152334691Y-29474156D01*
X152310785Y-29463601D01*
X152310784Y-29463600D01*
X152304047Y-29460626D01*
X152231921Y-29428779D01*
X152206797Y-29425864D01*
X152206794Y-29425864D01*
X152188273Y-29425864D01*
X152170530Y-29420654D01*
X152170445Y-29420628D01*
X152156163Y-29416434D01*
X152097396Y-29378668D01*
X152091100Y-29371403D01*
X152070246Y-29337645D01*
X152068094Y-29332451D01*
X152068093Y-29332446D01*
X152012058Y-29235391D01*
X151932813Y-29156146D01*
X151932810Y-29156144D01*
X151932806Y-29156141D01*
X151884285Y-29128127D01*
X151884285Y-29128128D01*
X151835759Y-29100111D01*
X151781633Y-29085608D01*
X151781632Y-29085607D01*
X151727511Y-29071106D01*
X151727508Y-29071106D01*
X151615438Y-29071106D01*
X151615436Y-29071106D01*
X151507184Y-29100111D01*
X151410130Y-29156147D01*
X151410129Y-29156148D01*
X151410124Y-29156152D01*
X151330894Y-29235382D01*
X151330890Y-29235387D01*
X151330881Y-29235401D01*
X151274856Y-29332436D01*
X151274839Y-29332469D01*
X151274800Y-29332548D01*
X151274693Y-29332741D01*
X151273965Y-29334094D01*
X151273948Y-29334085D01*
X151269784Y-29341609D01*
X151257030Y-29362532D01*
X151205336Y-29409525D01*
X151202041Y-29411125D01*
X151197361Y-29413398D01*
X151143178Y-29425864D01*
X149117072Y-29425864D01*
X149117056Y-29425865D01*
X149117042Y-29425866D01*
X149099184Y-29427937D01*
X149091941Y-29428777D01*
X149091940Y-29428777D01*
X149091934Y-29428778D01*
X149091488Y-29428911D01*
X149089232Y-29429973D01*
X148989165Y-29474156D01*
X148909722Y-29553598D01*
X148864343Y-29656369D01*
X148863773Y-29659074D01*
X148863518Y-29663488D01*
X148861429Y-29681491D01*
X126902612Y-29681491D01*
X126900585Y-29664009D01*
X126897213Y-29656373D01*
X126892414Y-29645505D01*
X126892414Y-29645503D01*
X126869414Y-29593414D01*
X126855206Y-29561235D01*
X126775765Y-29481794D01*
X126729294Y-29461275D01*
X126672993Y-29436415D01*
X126672994Y-29436415D01*
X126647868Y-29433500D01*
X126647865Y-29433500D01*
X123558143Y-29433500D01*
X123558127Y-29433501D01*
X123558113Y-29433502D01*
X123540255Y-29435573D01*
X123533012Y-29436413D01*
X123533011Y-29436413D01*
X123533005Y-29436414D01*
X123532561Y-29436546D01*
X123530310Y-29437606D01*
X123494484Y-29453424D01*
X123460498Y-29462940D01*
X123452134Y-29464035D01*
X123434522Y-29461275D01*
X123425208Y-29462495D01*
X123416711Y-29458484D01*
X123383106Y-29453219D01*
X123330884Y-29406802D01*
X123312047Y-29339519D01*
X123329793Y-29277146D01*
X123332585Y-29272507D01*
X123351135Y-29248783D01*
X124471002Y-28128917D01*
X124499247Y-28107774D01*
X124522339Y-28095166D01*
X124581764Y-28079999D01*
X132957540Y-28079999D01*
X132989634Y-28084224D01*
X133020098Y-28092387D01*
X133049996Y-28104770D01*
X133059553Y-28110288D01*
X133059555Y-28110289D01*
X133081185Y-28122777D01*
X133081191Y-28122780D01*
X133135314Y-28137281D01*
X133189439Y-28151784D01*
X133189441Y-28151784D01*
X133301507Y-28151784D01*
X133301509Y-28151784D01*
X133409759Y-28122779D01*
X133506814Y-28066744D01*
X133586059Y-27987499D01*
X133642094Y-27890444D01*
X133671099Y-27782194D01*
X133671099Y-27670124D01*
X133642094Y-27561874D01*
X133586059Y-27464819D01*
X133506814Y-27385574D01*
X133455081Y-27355706D01*
X133445500Y-27350174D01*
X133409761Y-27329539D01*
X133382697Y-27322287D01*
X133355634Y-27315036D01*
X133355633Y-27315035D01*
X133301512Y-27300534D01*
X133301509Y-27300534D01*
X133189439Y-27300534D01*
X133081188Y-27329539D01*
X133081186Y-27329539D01*
X133050002Y-27347544D01*
X133020098Y-27359930D01*
X132989635Y-27368093D01*
X132957540Y-27372319D01*
X124326768Y-27372319D01*
X124312364Y-27376178D01*
X124280305Y-27384768D01*
X124236787Y-27396429D01*
X124236776Y-27396433D01*
X124236761Y-27396440D01*
X124156097Y-27443011D01*
X124156089Y-27443017D01*
X124156090Y-27443017D01*
X122023926Y-29575178D01*
X122023925Y-29575181D01*
X121995671Y-29596332D01*
X121983489Y-29602984D01*
X121915216Y-29617836D01*
X121849753Y-29593420D01*
X121840495Y-29586490D01*
X121819772Y-29564881D01*
X121818862Y-29565638D01*
X121815207Y-29561236D01*
X121778302Y-29524331D01*
X121735765Y-29481794D01*
X121689294Y-29461275D01*
X121632993Y-29436415D01*
X121632994Y-29436415D01*
X121607868Y-29433500D01*
X121607865Y-29433500D01*
X118518143Y-29433500D01*
X118518127Y-29433501D01*
X118518113Y-29433502D01*
X118500255Y-29435573D01*
X118493012Y-29436413D01*
X118493011Y-29436413D01*
X118493005Y-29436414D01*
X118492559Y-29436547D01*
X118490303Y-29437609D01*
X118390236Y-29481792D01*
X118310794Y-29561233D01*
X118279707Y-29631638D01*
X118279705Y-29631640D01*
X118279705Y-29631642D01*
X118260998Y-29661570D01*
X118245583Y-29679818D01*
X118201792Y-29712855D01*
X118200347Y-29713506D01*
X118187819Y-29717974D01*
X118187284Y-29718328D01*
X118186810Y-29718333D01*
X118181520Y-29720221D01*
X118178586Y-29721007D01*
X118178556Y-29721016D01*
X118178547Y-29721020D01*
X118053033Y-29793485D01*
X118053024Y-29793491D01*
X117893588Y-29952928D01*
X117893588Y-29952929D01*
X117865334Y-29974080D01*
X117842247Y-29986687D01*
X117782818Y-30001856D01*
X115862167Y-30001856D01*
X115778161Y-30024365D01*
X115778160Y-30024364D01*
X115722156Y-30039371D01*
X115708025Y-30047530D01*
X115708016Y-30047536D01*
X115596637Y-30111839D01*
X115596632Y-30111843D01*
X115596626Y-30111848D01*
X115596619Y-30111854D01*
X115263163Y-30445309D01*
X115263155Y-30445321D01*
X115190687Y-30570841D01*
X115190683Y-30570850D01*
X115178179Y-30617512D01*
X115178180Y-30617513D01*
X115153170Y-30710854D01*
X70226488Y-30710854D01*
X70219662Y-30704028D01*
X70219655Y-30704022D01*
X70107329Y-30628969D01*
X70047608Y-30589065D01*
X70047596Y-30589058D01*
X70044400Y-30587734D01*
X70033489Y-30583215D01*
X69856420Y-30509870D01*
X69856412Y-30509868D01*
X69856404Y-30509866D01*
X69856394Y-30509864D01*
X69653471Y-30469500D01*
X69653469Y-30469500D01*
X69653465Y-30469500D01*
X69446535Y-30469500D01*
X69446530Y-30469500D01*
X69446528Y-30469500D01*
X69243604Y-30509864D01*
X69243579Y-30509870D01*
X69052404Y-30589057D01*
X68880337Y-30704027D01*
X68734027Y-30850337D01*
X68619057Y-31022404D01*
X68539870Y-31213579D01*
X68539864Y-31213604D01*
X68499500Y-31416527D01*
X68499500Y-31416530D01*
X68499500Y-31623469D01*
X68499500Y-31623471D01*
X68499499Y-31623471D01*
X63285520Y-31623471D01*
X63204619Y-31561393D01*
X63184402Y-31549721D01*
X63129166Y-31517830D01*
X63129167Y-31517828D01*
X63129156Y-31517825D01*
X63048161Y-31471062D01*
X63005890Y-31446657D01*
X63005887Y-31446655D01*
X63005881Y-31446652D01*
X62793896Y-31358845D01*
X62793889Y-31358843D01*
X62793890Y-31358843D01*
X62793887Y-31358842D01*
X62713908Y-31337412D01*
X62713907Y-31337411D01*
X62624595Y-31313481D01*
X62572238Y-31299452D01*
X62534215Y-31294446D01*
X62344742Y-31269500D01*
X62344741Y-31269500D01*
X62344734Y-31269500D01*
X62115266Y-31269500D01*
X62115258Y-31269500D01*
X62115257Y-31269500D01*
X61911597Y-31296313D01*
X61911597Y-31296314D01*
X61887770Y-31299451D01*
X61887762Y-31299452D01*
X61833774Y-31313918D01*
X61666112Y-31358842D01*
X61666102Y-31358845D01*
X61454117Y-31446652D01*
X61255388Y-31561388D01*
X61255371Y-31561399D01*
X61073342Y-31701077D01*
X61073332Y-31701086D01*
X60911086Y-31863332D01*
X60911077Y-31863342D01*
X60771399Y-32045371D01*
X60771388Y-32045388D01*
X60656652Y-32244117D01*
X60568845Y-32456102D01*
X60568843Y-32456109D01*
X60568842Y-32456112D01*
X60538693Y-32568631D01*
X60538693Y-32568632D01*
X60538692Y-32568631D01*
X60512712Y-32665598D01*
X60512601Y-32666012D01*
X60509453Y-32677759D01*
X60509452Y-32677764D01*
X60509450Y-32677774D01*
X60509448Y-32677789D01*
X60479500Y-32905257D01*
X57777500Y-32905257D01*
X57777500Y-23714559D01*
X57782522Y-23679629D01*
X57784142Y-23674111D01*
X57821914Y-23615331D01*
X57885468Y-23586304D01*
X57954627Y-23596245D01*
X58007433Y-23641998D01*
X58026059Y-23692854D01*
X58027551Y-23704183D01*
X58033730Y-23751116D01*
X58070039Y-23886624D01*
X58101603Y-24004422D01*
X58201954Y-24246693D01*
X58201967Y-24246717D01*
X58333074Y-24473803D01*
X58492718Y-24681851D01*
X58492721Y-24681855D01*
X58678120Y-24867255D01*
X58678142Y-24867276D01*
X58678148Y-24867281D01*
X58886195Y-25026924D01*
X59113281Y-25158031D01*
X59113291Y-25158036D01*
X59113299Y-25158041D01*
X59113309Y-25158046D01*
X59355571Y-25258394D01*
X59355581Y-25258398D01*
X59608884Y-25326270D01*
X59868880Y-25360500D01*
X59868887Y-25360500D01*
X60131113Y-25360500D01*
X60131120Y-25360500D01*
X60391116Y-25326270D01*
X60644419Y-25258398D01*
X60886697Y-25158043D01*
X61113803Y-25026924D01*
X61321851Y-24867282D01*
X61321855Y-24867277D01*
X61321860Y-24867274D01*
X61408210Y-24780924D01*
X61502433Y-24686702D01*
X61503209Y-24686006D01*
X61506758Y-24682385D01*
X61507257Y-24681880D01*
X61507267Y-24681866D01*
X61507274Y-24681860D01*
X61507277Y-24681855D01*
X61507282Y-24681851D01*
X61507398Y-24681699D01*
X61507624Y-24681411D01*
X61507628Y-24681407D01*
X61511074Y-24676993D01*
X61511574Y-24676256D01*
X61666924Y-24473803D01*
X61798043Y-24246697D01*
X61898398Y-24004419D01*
X61966270Y-23751116D01*
X62000500Y-23491120D01*
X62000500Y-23228880D01*
X61966270Y-22968884D01*
X61898398Y-22715581D01*
X61868267Y-22642839D01*
X61798046Y-22473309D01*
X61798041Y-22473299D01*
X61795895Y-22469582D01*
X61666924Y-22246195D01*
X61507281Y-22038148D01*
X61507276Y-22038142D01*
X61507255Y-22038120D01*
X61321855Y-21852721D01*
X61321851Y-21852718D01*
X61113805Y-21693076D01*
X61078683Y-21672799D01*
X60902950Y-21571341D01*
X60893314Y-21562212D01*
X60884358Y-21558192D01*
X60880947Y-21555165D01*
X60879217Y-21553572D01*
X60869401Y-21544531D01*
X60862471Y-21532994D01*
X60861073Y-21531669D01*
X60853606Y-21520214D01*
X60852413Y-21516248D01*
X60833426Y-21484636D01*
X60834294Y-21455985D01*
X60833488Y-21453303D01*
X60834480Y-21449838D01*
X60835543Y-21414799D01*
X60850961Y-21392334D01*
X60852737Y-21386138D01*
X60858969Y-21380666D01*
X60875081Y-21357192D01*
X60898088Y-21346323D01*
X60905244Y-21340042D01*
X60914256Y-21338686D01*
X60928905Y-21331767D01*
X60932983Y-21330945D01*
X60957485Y-21328500D01*
X112370607Y-21328500D01*
X112405534Y-21333521D01*
G37*
%TD.AperFunction*%
%TD*%
M02*
