%TF.GenerationSoftware,KiCad,Pcbnew,10.0.3*%
%TF.CreationDate,2026-06-24T19:40:23+02:00*%
%TF.ProjectId,E0001-000002,45303030-312d-4303-9030-3030322e6b69,rev?*%
%TF.SameCoordinates,Original*%
%TF.FileFunction,Soldermask,Top*%
%TF.FilePolarity,Negative*%
%FSLAX46Y46*%
G04 Gerber Fmt 4.6, Leading zero omitted, Abs format (unit mm)*
G04 Created by KiCad (PCBNEW 10.0.3) date 2026-06-24 19:40:23*
%MOMM*%
%LPD*%
G01*
G04 APERTURE LIST*
G04 APERTURE END LIST*
G36*
X100584047Y-62775805D02*
G01*
X100635408Y-62781764D01*
X100652954Y-62789511D01*
X100675671Y-62794030D01*
X100699991Y-62810280D01*
X100720793Y-62819465D01*
X100735000Y-62833672D01*
X100756777Y-62848223D01*
X100771327Y-62869999D01*
X100785534Y-62884206D01*
X100794718Y-62905006D01*
X100810970Y-62929329D01*
X100815489Y-62952048D01*
X100823235Y-62969591D01*
X100829192Y-63020940D01*
X100830000Y-63025000D01*
X100830000Y-63975000D01*
X100829192Y-63979059D01*
X100823235Y-64030408D01*
X100815489Y-64047950D01*
X100810970Y-64070671D01*
X100794716Y-64094995D01*
X100785534Y-64115793D01*
X100771329Y-64129997D01*
X100756777Y-64151777D01*
X100734997Y-64166329D01*
X100720793Y-64180534D01*
X100699995Y-64189716D01*
X100675671Y-64205970D01*
X100652950Y-64210489D01*
X100635408Y-64218235D01*
X100584061Y-64224192D01*
X100580000Y-64225000D01*
X100080000Y-64225000D01*
X100075941Y-64224192D01*
X100024591Y-64218235D01*
X100007048Y-64210489D01*
X99984329Y-64205970D01*
X99960006Y-64189718D01*
X99939206Y-64180534D01*
X99924999Y-64166327D01*
X99903223Y-64151777D01*
X99888672Y-64130000D01*
X99874465Y-64115793D01*
X99865280Y-64094991D01*
X99849030Y-64070671D01*
X99844511Y-64047954D01*
X99836764Y-64030408D01*
X99830805Y-63979049D01*
X99830000Y-63975000D01*
X99830000Y-63025000D01*
X99830804Y-63020953D01*
X99836764Y-62969591D01*
X99844511Y-62952043D01*
X99849030Y-62929329D01*
X99865278Y-62905010D01*
X99874465Y-62884206D01*
X99888674Y-62869996D01*
X99903223Y-62848223D01*
X99924996Y-62833674D01*
X99939206Y-62819465D01*
X99960010Y-62810278D01*
X99984329Y-62794030D01*
X100007043Y-62789511D01*
X100024591Y-62781764D01*
X100075952Y-62775805D01*
X100080000Y-62775000D01*
X100580000Y-62775000D01*
X100584047Y-62775805D01*
G37*
G36*
X102484047Y-62775805D02*
G01*
X102535408Y-62781764D01*
X102552954Y-62789511D01*
X102575671Y-62794030D01*
X102599991Y-62810280D01*
X102620793Y-62819465D01*
X102635000Y-62833672D01*
X102656777Y-62848223D01*
X102671327Y-62869999D01*
X102685534Y-62884206D01*
X102694718Y-62905006D01*
X102710970Y-62929329D01*
X102715489Y-62952048D01*
X102723235Y-62969591D01*
X102729192Y-63020940D01*
X102730000Y-63025000D01*
X102730000Y-63975000D01*
X102729192Y-63979059D01*
X102723235Y-64030408D01*
X102715489Y-64047950D01*
X102710970Y-64070671D01*
X102694716Y-64094995D01*
X102685534Y-64115793D01*
X102671329Y-64129997D01*
X102656777Y-64151777D01*
X102634997Y-64166329D01*
X102620793Y-64180534D01*
X102599995Y-64189716D01*
X102575671Y-64205970D01*
X102552950Y-64210489D01*
X102535408Y-64218235D01*
X102484061Y-64224192D01*
X102480000Y-64225000D01*
X101980000Y-64225000D01*
X101975941Y-64224192D01*
X101924591Y-64218235D01*
X101907048Y-64210489D01*
X101884329Y-64205970D01*
X101860006Y-64189718D01*
X101839206Y-64180534D01*
X101824999Y-64166327D01*
X101803223Y-64151777D01*
X101788672Y-64130000D01*
X101774465Y-64115793D01*
X101765280Y-64094991D01*
X101749030Y-64070671D01*
X101744511Y-64047954D01*
X101736764Y-64030408D01*
X101730805Y-63979049D01*
X101730000Y-63975000D01*
X101730000Y-63025000D01*
X101730804Y-63020953D01*
X101736764Y-62969591D01*
X101744511Y-62952043D01*
X101749030Y-62929329D01*
X101765278Y-62905010D01*
X101774465Y-62884206D01*
X101788674Y-62869996D01*
X101803223Y-62848223D01*
X101824996Y-62833674D01*
X101839206Y-62819465D01*
X101860010Y-62810278D01*
X101884329Y-62794030D01*
X101907043Y-62789511D01*
X101924591Y-62781764D01*
X101975952Y-62775805D01*
X101980000Y-62775000D01*
X102480000Y-62775000D01*
X102484047Y-62775805D01*
G37*
G36*
X96151547Y-62800805D02*
G01*
X96202908Y-62806764D01*
X96220454Y-62814511D01*
X96243171Y-62819030D01*
X96267491Y-62835280D01*
X96288293Y-62844465D01*
X96302500Y-62858672D01*
X96324277Y-62873223D01*
X96338827Y-62894999D01*
X96353034Y-62909206D01*
X96362218Y-62930006D01*
X96378470Y-62954329D01*
X96382989Y-62977048D01*
X96390735Y-62994591D01*
X96396692Y-63045940D01*
X96397500Y-63050000D01*
X96397500Y-63950000D01*
X96396692Y-63954059D01*
X96390735Y-64005408D01*
X96382989Y-64022950D01*
X96378470Y-64045671D01*
X96362216Y-64069995D01*
X96353034Y-64090793D01*
X96338829Y-64104997D01*
X96324277Y-64126777D01*
X96302497Y-64141329D01*
X96288293Y-64155534D01*
X96267495Y-64164716D01*
X96243171Y-64180970D01*
X96220450Y-64185489D01*
X96202908Y-64193235D01*
X96151561Y-64199192D01*
X96147500Y-64200000D01*
X95622500Y-64200000D01*
X95618441Y-64199192D01*
X95567091Y-64193235D01*
X95549548Y-64185489D01*
X95526829Y-64180970D01*
X95502506Y-64164718D01*
X95481706Y-64155534D01*
X95467499Y-64141327D01*
X95445723Y-64126777D01*
X95431172Y-64105000D01*
X95416965Y-64090793D01*
X95407780Y-64069991D01*
X95391530Y-64045671D01*
X95387011Y-64022954D01*
X95379264Y-64005408D01*
X95373305Y-63954049D01*
X95372500Y-63950000D01*
X95372500Y-63050000D01*
X95373304Y-63045953D01*
X95379264Y-62994591D01*
X95387011Y-62977043D01*
X95391530Y-62954329D01*
X95407778Y-62930010D01*
X95416965Y-62909206D01*
X95431174Y-62894996D01*
X95445723Y-62873223D01*
X95467496Y-62858674D01*
X95481706Y-62844465D01*
X95502510Y-62835278D01*
X95526829Y-62819030D01*
X95549543Y-62814511D01*
X95567091Y-62806764D01*
X95618452Y-62800805D01*
X95622500Y-62800000D01*
X96147500Y-62800000D01*
X96151547Y-62800805D01*
G37*
G36*
X97976547Y-62800805D02*
G01*
X98027908Y-62806764D01*
X98045454Y-62814511D01*
X98068171Y-62819030D01*
X98092491Y-62835280D01*
X98113293Y-62844465D01*
X98127500Y-62858672D01*
X98149277Y-62873223D01*
X98163827Y-62894999D01*
X98178034Y-62909206D01*
X98187218Y-62930006D01*
X98203470Y-62954329D01*
X98207989Y-62977048D01*
X98215735Y-62994591D01*
X98221692Y-63045940D01*
X98222500Y-63050000D01*
X98222500Y-63950000D01*
X98221692Y-63954059D01*
X98215735Y-64005408D01*
X98207989Y-64022950D01*
X98203470Y-64045671D01*
X98187216Y-64069995D01*
X98178034Y-64090793D01*
X98163829Y-64104997D01*
X98149277Y-64126777D01*
X98127497Y-64141329D01*
X98113293Y-64155534D01*
X98092495Y-64164716D01*
X98068171Y-64180970D01*
X98045450Y-64185489D01*
X98027908Y-64193235D01*
X97976561Y-64199192D01*
X97972500Y-64200000D01*
X97447500Y-64200000D01*
X97443441Y-64199192D01*
X97392091Y-64193235D01*
X97374548Y-64185489D01*
X97351829Y-64180970D01*
X97327506Y-64164718D01*
X97306706Y-64155534D01*
X97292499Y-64141327D01*
X97270723Y-64126777D01*
X97256172Y-64105000D01*
X97241965Y-64090793D01*
X97232780Y-64069991D01*
X97216530Y-64045671D01*
X97212011Y-64022954D01*
X97204264Y-64005408D01*
X97198305Y-63954049D01*
X97197500Y-63950000D01*
X97197500Y-63050000D01*
X97198304Y-63045953D01*
X97204264Y-62994591D01*
X97212011Y-62977043D01*
X97216530Y-62954329D01*
X97232778Y-62930010D01*
X97241965Y-62909206D01*
X97256174Y-62894996D01*
X97270723Y-62873223D01*
X97292496Y-62858674D01*
X97306706Y-62844465D01*
X97327510Y-62835278D01*
X97351829Y-62819030D01*
X97374543Y-62814511D01*
X97392091Y-62806764D01*
X97443452Y-62800805D01*
X97447500Y-62800000D01*
X97972500Y-62800000D01*
X97976547Y-62800805D01*
G37*
G36*
X105676547Y-62800805D02*
G01*
X105727908Y-62806764D01*
X105745454Y-62814511D01*
X105768171Y-62819030D01*
X105792491Y-62835280D01*
X105813293Y-62844465D01*
X105827500Y-62858672D01*
X105849277Y-62873223D01*
X105863827Y-62894999D01*
X105878034Y-62909206D01*
X105887218Y-62930006D01*
X105903470Y-62954329D01*
X105907989Y-62977048D01*
X105915735Y-62994591D01*
X105921692Y-63045940D01*
X105922500Y-63050000D01*
X105922500Y-63950000D01*
X105921692Y-63954059D01*
X105915735Y-64005408D01*
X105907989Y-64022950D01*
X105903470Y-64045671D01*
X105887216Y-64069995D01*
X105878034Y-64090793D01*
X105863829Y-64104997D01*
X105849277Y-64126777D01*
X105827497Y-64141329D01*
X105813293Y-64155534D01*
X105792495Y-64164716D01*
X105768171Y-64180970D01*
X105745450Y-64185489D01*
X105727908Y-64193235D01*
X105676561Y-64199192D01*
X105672500Y-64200000D01*
X105147500Y-64200000D01*
X105143441Y-64199192D01*
X105092091Y-64193235D01*
X105074548Y-64185489D01*
X105051829Y-64180970D01*
X105027506Y-64164718D01*
X105006706Y-64155534D01*
X104992499Y-64141327D01*
X104970723Y-64126777D01*
X104956172Y-64105000D01*
X104941965Y-64090793D01*
X104932780Y-64069991D01*
X104916530Y-64045671D01*
X104912011Y-64022954D01*
X104904264Y-64005408D01*
X104898305Y-63954049D01*
X104897500Y-63950000D01*
X104897500Y-63050000D01*
X104898304Y-63045953D01*
X104904264Y-62994591D01*
X104912011Y-62977043D01*
X104916530Y-62954329D01*
X104932778Y-62930010D01*
X104941965Y-62909206D01*
X104956174Y-62894996D01*
X104970723Y-62873223D01*
X104992496Y-62858674D01*
X105006706Y-62844465D01*
X105027510Y-62835278D01*
X105051829Y-62819030D01*
X105074543Y-62814511D01*
X105092091Y-62806764D01*
X105143452Y-62800805D01*
X105147500Y-62800000D01*
X105672500Y-62800000D01*
X105676547Y-62800805D01*
G37*
G36*
X107501547Y-62800805D02*
G01*
X107552908Y-62806764D01*
X107570454Y-62814511D01*
X107593171Y-62819030D01*
X107617491Y-62835280D01*
X107638293Y-62844465D01*
X107652500Y-62858672D01*
X107674277Y-62873223D01*
X107688827Y-62894999D01*
X107703034Y-62909206D01*
X107712218Y-62930006D01*
X107728470Y-62954329D01*
X107732989Y-62977048D01*
X107740735Y-62994591D01*
X107746692Y-63045940D01*
X107747500Y-63050000D01*
X107747500Y-63950000D01*
X107746692Y-63954059D01*
X107740735Y-64005408D01*
X107732989Y-64022950D01*
X107728470Y-64045671D01*
X107712216Y-64069995D01*
X107703034Y-64090793D01*
X107688829Y-64104997D01*
X107674277Y-64126777D01*
X107652497Y-64141329D01*
X107638293Y-64155534D01*
X107617495Y-64164716D01*
X107593171Y-64180970D01*
X107570450Y-64185489D01*
X107552908Y-64193235D01*
X107501561Y-64199192D01*
X107497500Y-64200000D01*
X106972500Y-64200000D01*
X106968441Y-64199192D01*
X106917091Y-64193235D01*
X106899548Y-64185489D01*
X106876829Y-64180970D01*
X106852506Y-64164718D01*
X106831706Y-64155534D01*
X106817499Y-64141327D01*
X106795723Y-64126777D01*
X106781172Y-64105000D01*
X106766965Y-64090793D01*
X106757780Y-64069991D01*
X106741530Y-64045671D01*
X106737011Y-64022954D01*
X106729264Y-64005408D01*
X106723305Y-63954049D01*
X106722500Y-63950000D01*
X106722500Y-63050000D01*
X106723304Y-63045953D01*
X106729264Y-62994591D01*
X106737011Y-62977043D01*
X106741530Y-62954329D01*
X106757778Y-62930010D01*
X106766965Y-62909206D01*
X106781174Y-62894996D01*
X106795723Y-62873223D01*
X106817496Y-62858674D01*
X106831706Y-62844465D01*
X106852510Y-62835278D01*
X106876829Y-62819030D01*
X106899543Y-62814511D01*
X106917091Y-62806764D01*
X106968452Y-62800805D01*
X106972500Y-62800000D01*
X107497500Y-62800000D01*
X107501547Y-62800805D01*
G37*
G36*
X96231547Y-58990805D02*
G01*
X96282908Y-58996764D01*
X96300454Y-59004511D01*
X96323171Y-59009030D01*
X96347491Y-59025280D01*
X96368293Y-59034465D01*
X96382500Y-59048672D01*
X96404277Y-59063223D01*
X96418827Y-59084999D01*
X96433034Y-59099206D01*
X96442218Y-59120006D01*
X96458470Y-59144329D01*
X96462989Y-59167048D01*
X96470735Y-59184591D01*
X96476692Y-59235940D01*
X96477500Y-59240000D01*
X96477500Y-60140000D01*
X96476692Y-60144059D01*
X96470735Y-60195408D01*
X96462989Y-60212950D01*
X96458470Y-60235671D01*
X96442216Y-60259995D01*
X96433034Y-60280793D01*
X96418829Y-60294997D01*
X96404277Y-60316777D01*
X96382497Y-60331329D01*
X96368293Y-60345534D01*
X96347495Y-60354716D01*
X96323171Y-60370970D01*
X96300450Y-60375489D01*
X96282908Y-60383235D01*
X96231561Y-60389192D01*
X96227500Y-60390000D01*
X95702500Y-60390000D01*
X95698441Y-60389192D01*
X95647091Y-60383235D01*
X95629548Y-60375489D01*
X95606829Y-60370970D01*
X95582506Y-60354718D01*
X95561706Y-60345534D01*
X95547499Y-60331327D01*
X95525723Y-60316777D01*
X95511172Y-60295000D01*
X95496965Y-60280793D01*
X95487780Y-60259991D01*
X95471530Y-60235671D01*
X95467011Y-60212954D01*
X95459264Y-60195408D01*
X95453305Y-60144049D01*
X95452500Y-60140000D01*
X95452500Y-59240000D01*
X95453304Y-59235953D01*
X95459264Y-59184591D01*
X95467011Y-59167043D01*
X95471530Y-59144329D01*
X95487778Y-59120010D01*
X95496965Y-59099206D01*
X95511174Y-59084996D01*
X95525723Y-59063223D01*
X95547496Y-59048674D01*
X95561706Y-59034465D01*
X95582510Y-59025278D01*
X95606829Y-59009030D01*
X95629543Y-59004511D01*
X95647091Y-58996764D01*
X95698452Y-58990805D01*
X95702500Y-58990000D01*
X96227500Y-58990000D01*
X96231547Y-58990805D01*
G37*
G36*
X98056547Y-58990805D02*
G01*
X98107908Y-58996764D01*
X98125454Y-59004511D01*
X98148171Y-59009030D01*
X98172491Y-59025280D01*
X98193293Y-59034465D01*
X98207500Y-59048672D01*
X98229277Y-59063223D01*
X98243827Y-59084999D01*
X98258034Y-59099206D01*
X98267218Y-59120006D01*
X98283470Y-59144329D01*
X98287989Y-59167048D01*
X98295735Y-59184591D01*
X98301692Y-59235940D01*
X98302500Y-59240000D01*
X98302500Y-60140000D01*
X98301692Y-60144059D01*
X98295735Y-60195408D01*
X98287989Y-60212950D01*
X98283470Y-60235671D01*
X98267216Y-60259995D01*
X98258034Y-60280793D01*
X98243829Y-60294997D01*
X98229277Y-60316777D01*
X98207497Y-60331329D01*
X98193293Y-60345534D01*
X98172495Y-60354716D01*
X98148171Y-60370970D01*
X98125450Y-60375489D01*
X98107908Y-60383235D01*
X98056561Y-60389192D01*
X98052500Y-60390000D01*
X97527500Y-60390000D01*
X97523441Y-60389192D01*
X97472091Y-60383235D01*
X97454548Y-60375489D01*
X97431829Y-60370970D01*
X97407506Y-60354718D01*
X97386706Y-60345534D01*
X97372499Y-60331327D01*
X97350723Y-60316777D01*
X97336172Y-60295000D01*
X97321965Y-60280793D01*
X97312780Y-60259991D01*
X97296530Y-60235671D01*
X97292011Y-60212954D01*
X97284264Y-60195408D01*
X97278305Y-60144049D01*
X97277500Y-60140000D01*
X97277500Y-59240000D01*
X97278304Y-59235953D01*
X97284264Y-59184591D01*
X97292011Y-59167043D01*
X97296530Y-59144329D01*
X97312778Y-59120010D01*
X97321965Y-59099206D01*
X97336174Y-59084996D01*
X97350723Y-59063223D01*
X97372496Y-59048674D01*
X97386706Y-59034465D01*
X97407510Y-59025278D01*
X97431829Y-59009030D01*
X97454543Y-59004511D01*
X97472091Y-58996764D01*
X97523452Y-58990805D01*
X97527500Y-58990000D01*
X98052500Y-58990000D01*
X98056547Y-58990805D01*
G37*
G36*
X100676547Y-58990805D02*
G01*
X100727908Y-58996764D01*
X100745454Y-59004511D01*
X100768171Y-59009030D01*
X100792491Y-59025280D01*
X100813293Y-59034465D01*
X100827500Y-59048672D01*
X100849277Y-59063223D01*
X100863827Y-59084999D01*
X100878034Y-59099206D01*
X100887218Y-59120006D01*
X100903470Y-59144329D01*
X100907989Y-59167048D01*
X100915735Y-59184591D01*
X100921692Y-59235940D01*
X100922500Y-59240000D01*
X100922500Y-60140000D01*
X100921692Y-60144059D01*
X100915735Y-60195408D01*
X100907989Y-60212950D01*
X100903470Y-60235671D01*
X100887216Y-60259995D01*
X100878034Y-60280793D01*
X100863829Y-60294997D01*
X100849277Y-60316777D01*
X100827497Y-60331329D01*
X100813293Y-60345534D01*
X100792495Y-60354716D01*
X100768171Y-60370970D01*
X100745450Y-60375489D01*
X100727908Y-60383235D01*
X100676561Y-60389192D01*
X100672500Y-60390000D01*
X100147500Y-60390000D01*
X100143441Y-60389192D01*
X100092091Y-60383235D01*
X100074548Y-60375489D01*
X100051829Y-60370970D01*
X100027506Y-60354718D01*
X100006706Y-60345534D01*
X99992499Y-60331327D01*
X99970723Y-60316777D01*
X99956172Y-60295000D01*
X99941965Y-60280793D01*
X99932780Y-60259991D01*
X99916530Y-60235671D01*
X99912011Y-60212954D01*
X99904264Y-60195408D01*
X99898305Y-60144049D01*
X99897500Y-60140000D01*
X99897500Y-59240000D01*
X99898304Y-59235953D01*
X99904264Y-59184591D01*
X99912011Y-59167043D01*
X99916530Y-59144329D01*
X99932778Y-59120010D01*
X99941965Y-59099206D01*
X99956174Y-59084996D01*
X99970723Y-59063223D01*
X99992496Y-59048674D01*
X100006706Y-59034465D01*
X100027510Y-59025278D01*
X100051829Y-59009030D01*
X100074543Y-59004511D01*
X100092091Y-58996764D01*
X100143452Y-58990805D01*
X100147500Y-58990000D01*
X100672500Y-58990000D01*
X100676547Y-58990805D01*
G37*
G36*
X102501547Y-58990805D02*
G01*
X102552908Y-58996764D01*
X102570454Y-59004511D01*
X102593171Y-59009030D01*
X102617491Y-59025280D01*
X102638293Y-59034465D01*
X102652500Y-59048672D01*
X102674277Y-59063223D01*
X102688827Y-59084999D01*
X102703034Y-59099206D01*
X102712218Y-59120006D01*
X102728470Y-59144329D01*
X102732989Y-59167048D01*
X102740735Y-59184591D01*
X102746692Y-59235940D01*
X102747500Y-59240000D01*
X102747500Y-60140000D01*
X102746692Y-60144059D01*
X102740735Y-60195408D01*
X102732989Y-60212950D01*
X102728470Y-60235671D01*
X102712216Y-60259995D01*
X102703034Y-60280793D01*
X102688829Y-60294997D01*
X102674277Y-60316777D01*
X102652497Y-60331329D01*
X102638293Y-60345534D01*
X102617495Y-60354716D01*
X102593171Y-60370970D01*
X102570450Y-60375489D01*
X102552908Y-60383235D01*
X102501561Y-60389192D01*
X102497500Y-60390000D01*
X101972500Y-60390000D01*
X101968441Y-60389192D01*
X101917091Y-60383235D01*
X101899548Y-60375489D01*
X101876829Y-60370970D01*
X101852506Y-60354718D01*
X101831706Y-60345534D01*
X101817499Y-60331327D01*
X101795723Y-60316777D01*
X101781172Y-60295000D01*
X101766965Y-60280793D01*
X101757780Y-60259991D01*
X101741530Y-60235671D01*
X101737011Y-60212954D01*
X101729264Y-60195408D01*
X101723305Y-60144049D01*
X101722500Y-60140000D01*
X101722500Y-59240000D01*
X101723304Y-59235953D01*
X101729264Y-59184591D01*
X101737011Y-59167043D01*
X101741530Y-59144329D01*
X101757778Y-59120010D01*
X101766965Y-59099206D01*
X101781174Y-59084996D01*
X101795723Y-59063223D01*
X101817496Y-59048674D01*
X101831706Y-59034465D01*
X101852510Y-59025278D01*
X101876829Y-59009030D01*
X101899543Y-59004511D01*
X101917091Y-58996764D01*
X101968452Y-58990805D01*
X101972500Y-58990000D01*
X102497500Y-58990000D01*
X102501547Y-58990805D01*
G37*
G36*
X105676547Y-58990805D02*
G01*
X105727908Y-58996764D01*
X105745454Y-59004511D01*
X105768171Y-59009030D01*
X105792491Y-59025280D01*
X105813293Y-59034465D01*
X105827500Y-59048672D01*
X105849277Y-59063223D01*
X105863827Y-59084999D01*
X105878034Y-59099206D01*
X105887218Y-59120006D01*
X105903470Y-59144329D01*
X105907989Y-59167048D01*
X105915735Y-59184591D01*
X105921692Y-59235940D01*
X105922500Y-59240000D01*
X105922500Y-60140000D01*
X105921692Y-60144059D01*
X105915735Y-60195408D01*
X105907989Y-60212950D01*
X105903470Y-60235671D01*
X105887216Y-60259995D01*
X105878034Y-60280793D01*
X105863829Y-60294997D01*
X105849277Y-60316777D01*
X105827497Y-60331329D01*
X105813293Y-60345534D01*
X105792495Y-60354716D01*
X105768171Y-60370970D01*
X105745450Y-60375489D01*
X105727908Y-60383235D01*
X105676561Y-60389192D01*
X105672500Y-60390000D01*
X105147500Y-60390000D01*
X105143441Y-60389192D01*
X105092091Y-60383235D01*
X105074548Y-60375489D01*
X105051829Y-60370970D01*
X105027506Y-60354718D01*
X105006706Y-60345534D01*
X104992499Y-60331327D01*
X104970723Y-60316777D01*
X104956172Y-60295000D01*
X104941965Y-60280793D01*
X104932780Y-60259991D01*
X104916530Y-60235671D01*
X104912011Y-60212954D01*
X104904264Y-60195408D01*
X104898305Y-60144049D01*
X104897500Y-60140000D01*
X104897500Y-59240000D01*
X104898304Y-59235953D01*
X104904264Y-59184591D01*
X104912011Y-59167043D01*
X104916530Y-59144329D01*
X104932778Y-59120010D01*
X104941965Y-59099206D01*
X104956174Y-59084996D01*
X104970723Y-59063223D01*
X104992496Y-59048674D01*
X105006706Y-59034465D01*
X105027510Y-59025278D01*
X105051829Y-59009030D01*
X105074543Y-59004511D01*
X105092091Y-58996764D01*
X105143452Y-58990805D01*
X105147500Y-58990000D01*
X105672500Y-58990000D01*
X105676547Y-58990805D01*
G37*
G36*
X107501547Y-58990805D02*
G01*
X107552908Y-58996764D01*
X107570454Y-59004511D01*
X107593171Y-59009030D01*
X107617491Y-59025280D01*
X107638293Y-59034465D01*
X107652500Y-59048672D01*
X107674277Y-59063223D01*
X107688827Y-59084999D01*
X107703034Y-59099206D01*
X107712218Y-59120006D01*
X107728470Y-59144329D01*
X107732989Y-59167048D01*
X107740735Y-59184591D01*
X107746692Y-59235940D01*
X107747500Y-59240000D01*
X107747500Y-60140000D01*
X107746692Y-60144059D01*
X107740735Y-60195408D01*
X107732989Y-60212950D01*
X107728470Y-60235671D01*
X107712216Y-60259995D01*
X107703034Y-60280793D01*
X107688829Y-60294997D01*
X107674277Y-60316777D01*
X107652497Y-60331329D01*
X107638293Y-60345534D01*
X107617495Y-60354716D01*
X107593171Y-60370970D01*
X107570450Y-60375489D01*
X107552908Y-60383235D01*
X107501561Y-60389192D01*
X107497500Y-60390000D01*
X106972500Y-60390000D01*
X106968441Y-60389192D01*
X106917091Y-60383235D01*
X106899548Y-60375489D01*
X106876829Y-60370970D01*
X106852506Y-60354718D01*
X106831706Y-60345534D01*
X106817499Y-60331327D01*
X106795723Y-60316777D01*
X106781172Y-60295000D01*
X106766965Y-60280793D01*
X106757780Y-60259991D01*
X106741530Y-60235671D01*
X106737011Y-60212954D01*
X106729264Y-60195408D01*
X106723305Y-60144049D01*
X106722500Y-60140000D01*
X106722500Y-59240000D01*
X106723304Y-59235953D01*
X106729264Y-59184591D01*
X106737011Y-59167043D01*
X106741530Y-59144329D01*
X106757778Y-59120010D01*
X106766965Y-59099206D01*
X106781174Y-59084996D01*
X106795723Y-59063223D01*
X106817496Y-59048674D01*
X106831706Y-59034465D01*
X106852510Y-59025278D01*
X106876829Y-59009030D01*
X106899543Y-59004511D01*
X106917091Y-58996764D01*
X106968452Y-58990805D01*
X106972500Y-58990000D01*
X107497500Y-58990000D01*
X107501547Y-58990805D01*
G37*
G36*
X80852403Y-58504418D02*
G01*
X80901066Y-58536934D01*
X80933582Y-58585597D01*
X80945000Y-58643000D01*
X80945000Y-59818000D01*
X80933582Y-59875403D01*
X80901066Y-59924066D01*
X80852403Y-59956582D01*
X80795000Y-59968000D01*
X80495000Y-59968000D01*
X80437597Y-59956582D01*
X80388934Y-59924066D01*
X80356418Y-59875403D01*
X80345000Y-59818000D01*
X80345000Y-58643000D01*
X80356418Y-58585597D01*
X80388934Y-58536934D01*
X80437597Y-58504418D01*
X80495000Y-58493000D01*
X80795000Y-58493000D01*
X80852403Y-58504418D01*
G37*
G36*
X74954047Y-58313305D02*
G01*
X75005408Y-58319264D01*
X75022954Y-58327011D01*
X75045671Y-58331530D01*
X75069991Y-58347780D01*
X75090793Y-58356965D01*
X75105000Y-58371172D01*
X75126777Y-58385723D01*
X75141327Y-58407499D01*
X75155534Y-58421706D01*
X75164718Y-58442506D01*
X75180970Y-58466829D01*
X75185489Y-58489548D01*
X75193235Y-58507091D01*
X75199192Y-58558440D01*
X75200000Y-58562500D01*
X75200000Y-59087500D01*
X75199192Y-59091559D01*
X75193235Y-59142908D01*
X75185489Y-59160450D01*
X75180970Y-59183171D01*
X75164716Y-59207495D01*
X75155534Y-59228293D01*
X75141329Y-59242497D01*
X75126777Y-59264277D01*
X75104997Y-59278829D01*
X75090793Y-59293034D01*
X75069995Y-59302216D01*
X75045671Y-59318470D01*
X75022950Y-59322989D01*
X75005408Y-59330735D01*
X74954061Y-59336692D01*
X74950000Y-59337500D01*
X74050000Y-59337500D01*
X74045941Y-59336692D01*
X73994591Y-59330735D01*
X73977048Y-59322989D01*
X73954329Y-59318470D01*
X73930006Y-59302218D01*
X73909206Y-59293034D01*
X73894999Y-59278827D01*
X73873223Y-59264277D01*
X73858672Y-59242500D01*
X73844465Y-59228293D01*
X73835280Y-59207491D01*
X73819030Y-59183171D01*
X73814511Y-59160454D01*
X73806764Y-59142908D01*
X73800805Y-59091549D01*
X73800000Y-59087500D01*
X73800000Y-58562500D01*
X73800804Y-58558453D01*
X73806764Y-58507091D01*
X73814511Y-58489543D01*
X73819030Y-58466829D01*
X73835278Y-58442510D01*
X73844465Y-58421706D01*
X73858674Y-58407496D01*
X73873223Y-58385723D01*
X73894996Y-58371174D01*
X73909206Y-58356965D01*
X73930010Y-58347778D01*
X73954329Y-58331530D01*
X73977043Y-58327011D01*
X73994591Y-58319264D01*
X74045952Y-58313305D01*
X74050000Y-58312500D01*
X74950000Y-58312500D01*
X74954047Y-58313305D01*
G37*
G36*
X87454047Y-58313305D02*
G01*
X87505408Y-58319264D01*
X87522954Y-58327011D01*
X87545671Y-58331530D01*
X87569991Y-58347780D01*
X87590793Y-58356965D01*
X87605000Y-58371172D01*
X87626777Y-58385723D01*
X87641327Y-58407499D01*
X87655534Y-58421706D01*
X87664718Y-58442506D01*
X87680970Y-58466829D01*
X87685489Y-58489548D01*
X87693235Y-58507091D01*
X87699192Y-58558440D01*
X87700000Y-58562500D01*
X87700000Y-59087500D01*
X87699192Y-59091559D01*
X87693235Y-59142908D01*
X87685489Y-59160450D01*
X87680970Y-59183171D01*
X87664716Y-59207495D01*
X87655534Y-59228293D01*
X87641329Y-59242497D01*
X87626777Y-59264277D01*
X87604997Y-59278829D01*
X87590793Y-59293034D01*
X87569995Y-59302216D01*
X87545671Y-59318470D01*
X87522950Y-59322989D01*
X87505408Y-59330735D01*
X87454061Y-59336692D01*
X87450000Y-59337500D01*
X86550000Y-59337500D01*
X86545941Y-59336692D01*
X86494591Y-59330735D01*
X86477048Y-59322989D01*
X86454329Y-59318470D01*
X86430006Y-59302218D01*
X86409206Y-59293034D01*
X86394999Y-59278827D01*
X86373223Y-59264277D01*
X86358672Y-59242500D01*
X86344465Y-59228293D01*
X86335280Y-59207491D01*
X86319030Y-59183171D01*
X86314511Y-59160454D01*
X86306764Y-59142908D01*
X86300805Y-59091549D01*
X86300000Y-59087500D01*
X86300000Y-58562500D01*
X86300804Y-58558453D01*
X86306764Y-58507091D01*
X86314511Y-58489543D01*
X86319030Y-58466829D01*
X86335278Y-58442510D01*
X86344465Y-58421706D01*
X86358674Y-58407496D01*
X86373223Y-58385723D01*
X86394996Y-58371174D01*
X86409206Y-58356965D01*
X86430010Y-58347778D01*
X86454329Y-58331530D01*
X86477043Y-58327011D01*
X86494591Y-58319264D01*
X86545952Y-58313305D01*
X86550000Y-58312500D01*
X87450000Y-58312500D01*
X87454047Y-58313305D01*
G37*
G36*
X122547677Y-59248631D02*
G01*
X119547677Y-59248631D01*
X119547677Y-58248631D01*
X122547677Y-58248631D01*
X122547677Y-59248631D01*
G37*
G36*
X127587677Y-59248631D02*
G01*
X124587677Y-59248631D01*
X124587677Y-58248631D01*
X127587677Y-58248631D01*
X127587677Y-59248631D01*
G37*
G36*
X150475664Y-59243966D02*
G01*
X147475664Y-59243966D01*
X147475664Y-58243966D01*
X150475664Y-58243966D01*
X150475664Y-59243966D01*
G37*
G36*
X155515664Y-59243966D02*
G01*
X152515664Y-59243966D01*
X152515664Y-58243966D01*
X155515664Y-58243966D01*
X155515664Y-59243966D01*
G37*
G36*
X79902403Y-56629418D02*
G01*
X79951066Y-56661934D01*
X79983582Y-56710597D01*
X79995000Y-56768000D01*
X79995000Y-57943000D01*
X79983582Y-58000403D01*
X79951066Y-58049066D01*
X79902403Y-58081582D01*
X79845000Y-58093000D01*
X79545000Y-58093000D01*
X79487597Y-58081582D01*
X79438934Y-58049066D01*
X79406418Y-58000403D01*
X79395000Y-57943000D01*
X79395000Y-56768000D01*
X79406418Y-56710597D01*
X79438934Y-56661934D01*
X79487597Y-56629418D01*
X79545000Y-56618000D01*
X79845000Y-56618000D01*
X79902403Y-56629418D01*
G37*
G36*
X81802403Y-56629418D02*
G01*
X81851066Y-56661934D01*
X81883582Y-56710597D01*
X81895000Y-56768000D01*
X81895000Y-57943000D01*
X81883582Y-58000403D01*
X81851066Y-58049066D01*
X81802403Y-58081582D01*
X81745000Y-58093000D01*
X81445000Y-58093000D01*
X81387597Y-58081582D01*
X81338934Y-58049066D01*
X81306418Y-58000403D01*
X81295000Y-57943000D01*
X81295000Y-56768000D01*
X81306418Y-56710597D01*
X81338934Y-56661934D01*
X81387597Y-56629418D01*
X81445000Y-56618000D01*
X81745000Y-56618000D01*
X81802403Y-56629418D01*
G37*
G36*
X74954047Y-56488305D02*
G01*
X75005408Y-56494264D01*
X75022954Y-56502011D01*
X75045671Y-56506530D01*
X75069991Y-56522780D01*
X75090793Y-56531965D01*
X75105000Y-56546172D01*
X75126777Y-56560723D01*
X75141327Y-56582499D01*
X75155534Y-56596706D01*
X75164718Y-56617506D01*
X75180970Y-56641829D01*
X75185489Y-56664548D01*
X75193235Y-56682091D01*
X75199192Y-56733440D01*
X75200000Y-56737500D01*
X75200000Y-57262500D01*
X75199192Y-57266559D01*
X75193235Y-57317908D01*
X75185489Y-57335450D01*
X75180970Y-57358171D01*
X75164716Y-57382495D01*
X75155534Y-57403293D01*
X75141329Y-57417497D01*
X75126777Y-57439277D01*
X75104997Y-57453829D01*
X75090793Y-57468034D01*
X75069995Y-57477216D01*
X75045671Y-57493470D01*
X75022950Y-57497989D01*
X75005408Y-57505735D01*
X74954061Y-57511692D01*
X74950000Y-57512500D01*
X74050000Y-57512500D01*
X74045941Y-57511692D01*
X73994591Y-57505735D01*
X73977048Y-57497989D01*
X73954329Y-57493470D01*
X73930006Y-57477218D01*
X73909206Y-57468034D01*
X73894999Y-57453827D01*
X73873223Y-57439277D01*
X73858672Y-57417500D01*
X73844465Y-57403293D01*
X73835280Y-57382491D01*
X73819030Y-57358171D01*
X73814511Y-57335454D01*
X73806764Y-57317908D01*
X73800805Y-57266549D01*
X73800000Y-57262500D01*
X73800000Y-56737500D01*
X73800804Y-56733453D01*
X73806764Y-56682091D01*
X73814511Y-56664543D01*
X73819030Y-56641829D01*
X73835278Y-56617510D01*
X73844465Y-56596706D01*
X73858674Y-56582496D01*
X73873223Y-56560723D01*
X73894996Y-56546174D01*
X73909206Y-56531965D01*
X73930010Y-56522778D01*
X73954329Y-56506530D01*
X73977043Y-56502011D01*
X73994591Y-56494264D01*
X74045952Y-56488305D01*
X74050000Y-56487500D01*
X74950000Y-56487500D01*
X74954047Y-56488305D01*
G37*
G36*
X87454047Y-56488305D02*
G01*
X87505408Y-56494264D01*
X87522954Y-56502011D01*
X87545671Y-56506530D01*
X87569991Y-56522780D01*
X87590793Y-56531965D01*
X87605000Y-56546172D01*
X87626777Y-56560723D01*
X87641327Y-56582499D01*
X87655534Y-56596706D01*
X87664718Y-56617506D01*
X87680970Y-56641829D01*
X87685489Y-56664548D01*
X87693235Y-56682091D01*
X87699192Y-56733440D01*
X87700000Y-56737500D01*
X87700000Y-57262500D01*
X87699192Y-57266559D01*
X87693235Y-57317908D01*
X87685489Y-57335450D01*
X87680970Y-57358171D01*
X87664716Y-57382495D01*
X87655534Y-57403293D01*
X87641329Y-57417497D01*
X87626777Y-57439277D01*
X87604997Y-57453829D01*
X87590793Y-57468034D01*
X87569995Y-57477216D01*
X87545671Y-57493470D01*
X87522950Y-57497989D01*
X87505408Y-57505735D01*
X87454061Y-57511692D01*
X87450000Y-57512500D01*
X86550000Y-57512500D01*
X86545941Y-57511692D01*
X86494591Y-57505735D01*
X86477048Y-57497989D01*
X86454329Y-57493470D01*
X86430006Y-57477218D01*
X86409206Y-57468034D01*
X86394999Y-57453827D01*
X86373223Y-57439277D01*
X86358672Y-57417500D01*
X86344465Y-57403293D01*
X86335280Y-57382491D01*
X86319030Y-57358171D01*
X86314511Y-57335454D01*
X86306764Y-57317908D01*
X86300805Y-57266549D01*
X86300000Y-57262500D01*
X86300000Y-56737500D01*
X86300804Y-56733453D01*
X86306764Y-56682091D01*
X86314511Y-56664543D01*
X86319030Y-56641829D01*
X86335278Y-56617510D01*
X86344465Y-56596706D01*
X86358674Y-56582496D01*
X86373223Y-56560723D01*
X86394996Y-56546174D01*
X86409206Y-56531965D01*
X86430010Y-56522778D01*
X86454329Y-56506530D01*
X86477043Y-56502011D01*
X86494591Y-56494264D01*
X86545952Y-56488305D01*
X86550000Y-56487500D01*
X87450000Y-56487500D01*
X87454047Y-56488305D01*
G37*
G36*
X96999047Y-56010805D02*
G01*
X97050408Y-56016764D01*
X97067954Y-56024511D01*
X97090671Y-56029030D01*
X97114991Y-56045280D01*
X97135793Y-56054465D01*
X97150000Y-56068672D01*
X97171777Y-56083223D01*
X97186327Y-56104999D01*
X97200534Y-56119206D01*
X97209718Y-56140006D01*
X97225970Y-56164329D01*
X97230489Y-56187048D01*
X97238235Y-56204591D01*
X97244192Y-56255940D01*
X97245000Y-56260000D01*
X97245000Y-56760000D01*
X97244192Y-56764059D01*
X97238235Y-56815408D01*
X97230489Y-56832950D01*
X97225970Y-56855671D01*
X97209716Y-56879995D01*
X97200534Y-56900793D01*
X97186329Y-56914997D01*
X97171777Y-56936777D01*
X97149997Y-56951329D01*
X97135793Y-56965534D01*
X97114995Y-56974716D01*
X97090671Y-56990970D01*
X97067950Y-56995489D01*
X97050408Y-57003235D01*
X96999061Y-57009192D01*
X96995000Y-57010000D01*
X96045000Y-57010000D01*
X96040941Y-57009192D01*
X95989591Y-57003235D01*
X95972048Y-56995489D01*
X95949329Y-56990970D01*
X95925006Y-56974718D01*
X95904206Y-56965534D01*
X95889999Y-56951327D01*
X95868223Y-56936777D01*
X95853672Y-56915000D01*
X95839465Y-56900793D01*
X95830280Y-56879991D01*
X95814030Y-56855671D01*
X95809511Y-56832954D01*
X95801764Y-56815408D01*
X95795805Y-56764049D01*
X95795000Y-56760000D01*
X95795000Y-56260000D01*
X95795804Y-56255953D01*
X95801764Y-56204591D01*
X95809511Y-56187043D01*
X95814030Y-56164329D01*
X95830278Y-56140010D01*
X95839465Y-56119206D01*
X95853674Y-56104996D01*
X95868223Y-56083223D01*
X95889996Y-56068674D01*
X95904206Y-56054465D01*
X95925010Y-56045278D01*
X95949329Y-56029030D01*
X95972043Y-56024511D01*
X95989591Y-56016764D01*
X96040952Y-56010805D01*
X96045000Y-56010000D01*
X96995000Y-56010000D01*
X96999047Y-56010805D01*
G37*
G36*
X92554047Y-55761805D02*
G01*
X92605408Y-55767764D01*
X92622954Y-55775511D01*
X92645671Y-55780030D01*
X92669991Y-55796280D01*
X92690793Y-55805465D01*
X92705000Y-55819672D01*
X92726777Y-55834223D01*
X92741327Y-55855999D01*
X92755534Y-55870206D01*
X92764718Y-55891006D01*
X92780970Y-55915329D01*
X92785489Y-55938048D01*
X92793235Y-55955591D01*
X92799192Y-56006940D01*
X92800000Y-56011000D01*
X92800000Y-56511000D01*
X92799192Y-56515059D01*
X92793235Y-56566408D01*
X92785489Y-56583950D01*
X92780970Y-56606671D01*
X92764716Y-56630995D01*
X92755534Y-56651793D01*
X92741329Y-56665997D01*
X92726777Y-56687777D01*
X92704997Y-56702329D01*
X92690793Y-56716534D01*
X92669995Y-56725716D01*
X92645671Y-56741970D01*
X92622950Y-56746489D01*
X92605408Y-56754235D01*
X92554061Y-56760192D01*
X92550000Y-56761000D01*
X91600000Y-56761000D01*
X91595941Y-56760192D01*
X91544591Y-56754235D01*
X91527048Y-56746489D01*
X91504329Y-56741970D01*
X91480006Y-56725718D01*
X91459206Y-56716534D01*
X91444999Y-56702327D01*
X91423223Y-56687777D01*
X91408672Y-56666000D01*
X91394465Y-56651793D01*
X91385280Y-56630991D01*
X91369030Y-56606671D01*
X91364511Y-56583954D01*
X91356764Y-56566408D01*
X91350805Y-56515049D01*
X91350000Y-56511000D01*
X91350000Y-56011000D01*
X91350804Y-56006953D01*
X91356764Y-55955591D01*
X91364511Y-55938043D01*
X91369030Y-55915329D01*
X91385278Y-55891010D01*
X91394465Y-55870206D01*
X91408674Y-55855996D01*
X91423223Y-55834223D01*
X91444996Y-55819674D01*
X91459206Y-55805465D01*
X91480010Y-55796278D01*
X91504329Y-55780030D01*
X91527043Y-55775511D01*
X91544591Y-55767764D01*
X91595952Y-55761805D01*
X91600000Y-55761000D01*
X92550000Y-55761000D01*
X92554047Y-55761805D01*
G37*
G36*
X122547677Y-56708631D02*
G01*
X119547677Y-56708631D01*
X119547677Y-55708631D01*
X122547677Y-55708631D01*
X122547677Y-56708631D01*
G37*
G36*
X127587677Y-56708631D02*
G01*
X124587677Y-56708631D01*
X124587677Y-55708631D01*
X127587677Y-55708631D01*
X127587677Y-56708631D01*
G37*
G36*
X150475664Y-56703966D02*
G01*
X147475664Y-56703966D01*
X147475664Y-55703966D01*
X150475664Y-55703966D01*
X150475664Y-56703966D01*
G37*
G36*
X155515664Y-56703966D02*
G01*
X152515664Y-56703966D01*
X152515664Y-55703966D01*
X155515664Y-55703966D01*
X155515664Y-56703966D01*
G37*
G36*
X100220717Y-55340010D02*
G01*
X100269380Y-55372526D01*
X100301896Y-55421189D01*
X100313314Y-55478592D01*
X100313314Y-56503592D01*
X100301896Y-56560995D01*
X100269380Y-56609658D01*
X100220717Y-56642174D01*
X100163314Y-56653592D01*
X99863314Y-56653592D01*
X99805911Y-56642174D01*
X99757248Y-56609658D01*
X99724732Y-56560995D01*
X99713314Y-56503592D01*
X99713314Y-55478592D01*
X99724732Y-55421189D01*
X99757248Y-55372526D01*
X99805911Y-55340010D01*
X99863314Y-55328592D01*
X100163314Y-55328592D01*
X100220717Y-55340010D01*
G37*
G36*
X101170717Y-55340010D02*
G01*
X101219380Y-55372526D01*
X101251896Y-55421189D01*
X101263314Y-55478592D01*
X101263314Y-56503592D01*
X101251896Y-56560995D01*
X101219380Y-56609658D01*
X101170717Y-56642174D01*
X101113314Y-56653592D01*
X100813314Y-56653592D01*
X100755911Y-56642174D01*
X100707248Y-56609658D01*
X100674732Y-56560995D01*
X100663314Y-56503592D01*
X100663314Y-55478592D01*
X100674732Y-55421189D01*
X100707248Y-55372526D01*
X100755911Y-55340010D01*
X100813314Y-55328592D01*
X101113314Y-55328592D01*
X101170717Y-55340010D01*
G37*
G36*
X102120717Y-55340010D02*
G01*
X102169380Y-55372526D01*
X102201896Y-55421189D01*
X102213314Y-55478592D01*
X102213314Y-56503592D01*
X102201896Y-56560995D01*
X102169380Y-56609658D01*
X102120717Y-56642174D01*
X102063314Y-56653592D01*
X101763314Y-56653592D01*
X101705911Y-56642174D01*
X101657248Y-56609658D01*
X101624732Y-56560995D01*
X101613314Y-56503592D01*
X101613314Y-55478592D01*
X101624732Y-55421189D01*
X101657248Y-55372526D01*
X101705911Y-55340010D01*
X101763314Y-55328592D01*
X102063314Y-55328592D01*
X102120717Y-55340010D01*
G37*
G36*
X105542047Y-55155805D02*
G01*
X105593408Y-55161764D01*
X105610954Y-55169511D01*
X105633671Y-55174030D01*
X105657991Y-55190280D01*
X105678793Y-55199465D01*
X105693000Y-55213672D01*
X105714777Y-55228223D01*
X105729327Y-55249999D01*
X105743534Y-55264206D01*
X105752718Y-55285006D01*
X105768970Y-55309329D01*
X105773489Y-55332048D01*
X105781235Y-55349591D01*
X105787192Y-55400940D01*
X105788000Y-55405000D01*
X105788000Y-56355000D01*
X105787192Y-56359059D01*
X105781235Y-56410408D01*
X105773489Y-56427950D01*
X105768970Y-56450671D01*
X105752716Y-56474995D01*
X105743534Y-56495793D01*
X105729329Y-56509997D01*
X105714777Y-56531777D01*
X105692997Y-56546329D01*
X105678793Y-56560534D01*
X105657995Y-56569716D01*
X105633671Y-56585970D01*
X105610950Y-56590489D01*
X105593408Y-56598235D01*
X105542061Y-56604192D01*
X105538000Y-56605000D01*
X105038000Y-56605000D01*
X105033941Y-56604192D01*
X104982591Y-56598235D01*
X104965048Y-56590489D01*
X104942329Y-56585970D01*
X104918006Y-56569718D01*
X104897206Y-56560534D01*
X104882999Y-56546327D01*
X104861223Y-56531777D01*
X104846672Y-56510000D01*
X104832465Y-56495793D01*
X104823280Y-56474991D01*
X104807030Y-56450671D01*
X104802511Y-56427954D01*
X104794764Y-56410408D01*
X104788805Y-56359049D01*
X104788000Y-56355000D01*
X104788000Y-55405000D01*
X104788804Y-55400953D01*
X104794764Y-55349591D01*
X104802511Y-55332043D01*
X104807030Y-55309329D01*
X104823278Y-55285010D01*
X104832465Y-55264206D01*
X104846674Y-55249996D01*
X104861223Y-55228223D01*
X104882996Y-55213674D01*
X104897206Y-55199465D01*
X104918010Y-55190278D01*
X104942329Y-55174030D01*
X104965043Y-55169511D01*
X104982591Y-55161764D01*
X105033952Y-55155805D01*
X105038000Y-55155000D01*
X105538000Y-55155000D01*
X105542047Y-55155805D01*
G37*
G36*
X107442047Y-55155805D02*
G01*
X107493408Y-55161764D01*
X107510954Y-55169511D01*
X107533671Y-55174030D01*
X107557991Y-55190280D01*
X107578793Y-55199465D01*
X107593000Y-55213672D01*
X107614777Y-55228223D01*
X107629327Y-55249999D01*
X107643534Y-55264206D01*
X107652718Y-55285006D01*
X107668970Y-55309329D01*
X107673489Y-55332048D01*
X107681235Y-55349591D01*
X107687192Y-55400940D01*
X107688000Y-55405000D01*
X107688000Y-56355000D01*
X107687192Y-56359059D01*
X107681235Y-56410408D01*
X107673489Y-56427950D01*
X107668970Y-56450671D01*
X107652716Y-56474995D01*
X107643534Y-56495793D01*
X107629329Y-56509997D01*
X107614777Y-56531777D01*
X107592997Y-56546329D01*
X107578793Y-56560534D01*
X107557995Y-56569716D01*
X107533671Y-56585970D01*
X107510950Y-56590489D01*
X107493408Y-56598235D01*
X107442061Y-56604192D01*
X107438000Y-56605000D01*
X106938000Y-56605000D01*
X106933941Y-56604192D01*
X106882591Y-56598235D01*
X106865048Y-56590489D01*
X106842329Y-56585970D01*
X106818006Y-56569718D01*
X106797206Y-56560534D01*
X106782999Y-56546327D01*
X106761223Y-56531777D01*
X106746672Y-56510000D01*
X106732465Y-56495793D01*
X106723280Y-56474991D01*
X106707030Y-56450671D01*
X106702511Y-56427954D01*
X106694764Y-56410408D01*
X106688805Y-56359049D01*
X106688000Y-56355000D01*
X106688000Y-55405000D01*
X106688804Y-55400953D01*
X106694764Y-55349591D01*
X106702511Y-55332043D01*
X106707030Y-55309329D01*
X106723278Y-55285010D01*
X106732465Y-55264206D01*
X106746674Y-55249996D01*
X106761223Y-55228223D01*
X106782996Y-55213674D01*
X106797206Y-55199465D01*
X106818010Y-55190278D01*
X106842329Y-55174030D01*
X106865043Y-55169511D01*
X106882591Y-55161764D01*
X106933952Y-55155805D01*
X106938000Y-55155000D01*
X107438000Y-55155000D01*
X107442047Y-55155805D01*
G37*
G36*
X96999047Y-54110805D02*
G01*
X97050408Y-54116764D01*
X97067954Y-54124511D01*
X97090671Y-54129030D01*
X97114991Y-54145280D01*
X97135793Y-54154465D01*
X97150000Y-54168672D01*
X97171777Y-54183223D01*
X97186327Y-54204999D01*
X97200534Y-54219206D01*
X97209718Y-54240006D01*
X97225970Y-54264329D01*
X97230489Y-54287048D01*
X97238235Y-54304591D01*
X97244192Y-54355940D01*
X97245000Y-54360000D01*
X97245000Y-54860000D01*
X97244192Y-54864059D01*
X97238235Y-54915408D01*
X97230489Y-54932950D01*
X97225970Y-54955671D01*
X97209716Y-54979995D01*
X97200534Y-55000793D01*
X97186329Y-55014997D01*
X97171777Y-55036777D01*
X97149997Y-55051329D01*
X97135793Y-55065534D01*
X97114995Y-55074716D01*
X97090671Y-55090970D01*
X97067950Y-55095489D01*
X97050408Y-55103235D01*
X96999061Y-55109192D01*
X96995000Y-55110000D01*
X96045000Y-55110000D01*
X96040941Y-55109192D01*
X95989591Y-55103235D01*
X95972048Y-55095489D01*
X95949329Y-55090970D01*
X95925006Y-55074718D01*
X95904206Y-55065534D01*
X95889999Y-55051327D01*
X95868223Y-55036777D01*
X95853672Y-55015000D01*
X95839465Y-55000793D01*
X95830280Y-54979991D01*
X95814030Y-54955671D01*
X95809511Y-54932954D01*
X95801764Y-54915408D01*
X95795805Y-54864049D01*
X95795000Y-54860000D01*
X95795000Y-54360000D01*
X95795804Y-54355953D01*
X95801764Y-54304591D01*
X95809511Y-54287043D01*
X95814030Y-54264329D01*
X95830278Y-54240010D01*
X95839465Y-54219206D01*
X95853674Y-54204996D01*
X95868223Y-54183223D01*
X95889996Y-54168674D01*
X95904206Y-54154465D01*
X95925010Y-54145278D01*
X95949329Y-54129030D01*
X95972043Y-54124511D01*
X95989591Y-54116764D01*
X96040952Y-54110805D01*
X96045000Y-54110000D01*
X96995000Y-54110000D01*
X96999047Y-54110805D01*
G37*
G36*
X92554047Y-53861805D02*
G01*
X92605408Y-53867764D01*
X92622954Y-53875511D01*
X92645671Y-53880030D01*
X92669991Y-53896280D01*
X92690793Y-53905465D01*
X92705000Y-53919672D01*
X92726777Y-53934223D01*
X92741327Y-53955999D01*
X92755534Y-53970206D01*
X92764718Y-53991006D01*
X92780970Y-54015329D01*
X92785489Y-54038048D01*
X92793235Y-54055591D01*
X92799192Y-54106940D01*
X92800000Y-54111000D01*
X92800000Y-54611000D01*
X92799192Y-54615059D01*
X92793235Y-54666408D01*
X92785489Y-54683950D01*
X92780970Y-54706671D01*
X92764716Y-54730995D01*
X92755534Y-54751793D01*
X92741329Y-54765997D01*
X92726777Y-54787777D01*
X92704997Y-54802329D01*
X92690793Y-54816534D01*
X92669995Y-54825716D01*
X92645671Y-54841970D01*
X92622950Y-54846489D01*
X92605408Y-54854235D01*
X92554061Y-54860192D01*
X92550000Y-54861000D01*
X91600000Y-54861000D01*
X91595941Y-54860192D01*
X91544591Y-54854235D01*
X91527048Y-54846489D01*
X91504329Y-54841970D01*
X91480006Y-54825718D01*
X91459206Y-54816534D01*
X91444999Y-54802327D01*
X91423223Y-54787777D01*
X91408672Y-54766000D01*
X91394465Y-54751793D01*
X91385280Y-54730991D01*
X91369030Y-54706671D01*
X91364511Y-54683954D01*
X91356764Y-54666408D01*
X91350805Y-54615049D01*
X91350000Y-54611000D01*
X91350000Y-54111000D01*
X91350804Y-54106953D01*
X91356764Y-54055591D01*
X91364511Y-54038043D01*
X91369030Y-54015329D01*
X91385278Y-53991010D01*
X91394465Y-53970206D01*
X91408674Y-53955996D01*
X91423223Y-53934223D01*
X91444996Y-53919674D01*
X91459206Y-53905465D01*
X91480010Y-53896278D01*
X91504329Y-53880030D01*
X91527043Y-53875511D01*
X91544591Y-53867764D01*
X91595952Y-53861805D01*
X91600000Y-53861000D01*
X92550000Y-53861000D01*
X92554047Y-53861805D01*
G37*
G36*
X78932403Y-54116418D02*
G01*
X78981066Y-54148934D01*
X79013582Y-54197597D01*
X79025000Y-54255000D01*
X79025000Y-54555000D01*
X79013582Y-54612403D01*
X78981066Y-54661066D01*
X78932403Y-54693582D01*
X78875000Y-54705000D01*
X77225000Y-54705000D01*
X77167597Y-54693582D01*
X77118934Y-54661066D01*
X77086418Y-54612403D01*
X77075000Y-54555000D01*
X77075000Y-54255000D01*
X77086418Y-54197597D01*
X77118934Y-54148934D01*
X77167597Y-54116418D01*
X77225000Y-54105000D01*
X78875000Y-54105000D01*
X78932403Y-54116418D01*
G37*
G36*
X83882403Y-54116418D02*
G01*
X83931066Y-54148934D01*
X83963582Y-54197597D01*
X83975000Y-54255000D01*
X83975000Y-54555000D01*
X83963582Y-54612403D01*
X83931066Y-54661066D01*
X83882403Y-54693582D01*
X83825000Y-54705000D01*
X82175000Y-54705000D01*
X82117597Y-54693582D01*
X82068934Y-54661066D01*
X82036418Y-54612403D01*
X82025000Y-54555000D01*
X82025000Y-54255000D01*
X82036418Y-54197597D01*
X82068934Y-54148934D01*
X82117597Y-54116418D01*
X82175000Y-54105000D01*
X83825000Y-54105000D01*
X83882403Y-54116418D01*
G37*
G36*
X100220717Y-53065010D02*
G01*
X100269380Y-53097526D01*
X100301896Y-53146189D01*
X100313314Y-53203592D01*
X100313314Y-54228592D01*
X100301896Y-54285995D01*
X100269380Y-54334658D01*
X100220717Y-54367174D01*
X100163314Y-54378592D01*
X99863314Y-54378592D01*
X99805911Y-54367174D01*
X99757248Y-54334658D01*
X99724732Y-54285995D01*
X99713314Y-54228592D01*
X99713314Y-53203592D01*
X99724732Y-53146189D01*
X99757248Y-53097526D01*
X99805911Y-53065010D01*
X99863314Y-53053592D01*
X100163314Y-53053592D01*
X100220717Y-53065010D01*
G37*
G36*
X101170717Y-53065010D02*
G01*
X101219380Y-53097526D01*
X101251896Y-53146189D01*
X101263314Y-53203592D01*
X101263314Y-54228592D01*
X101251896Y-54285995D01*
X101219380Y-54334658D01*
X101170717Y-54367174D01*
X101113314Y-54378592D01*
X100813314Y-54378592D01*
X100755911Y-54367174D01*
X100707248Y-54334658D01*
X100674732Y-54285995D01*
X100663314Y-54228592D01*
X100663314Y-53203592D01*
X100674732Y-53146189D01*
X100707248Y-53097526D01*
X100755911Y-53065010D01*
X100813314Y-53053592D01*
X101113314Y-53053592D01*
X101170717Y-53065010D01*
G37*
G36*
X102120717Y-53065010D02*
G01*
X102169380Y-53097526D01*
X102201896Y-53146189D01*
X102213314Y-53203592D01*
X102213314Y-54228592D01*
X102201896Y-54285995D01*
X102169380Y-54334658D01*
X102120717Y-54367174D01*
X102063314Y-54378592D01*
X101763314Y-54378592D01*
X101705911Y-54367174D01*
X101657248Y-54334658D01*
X101624732Y-54285995D01*
X101613314Y-54228592D01*
X101613314Y-53203592D01*
X101624732Y-53146189D01*
X101657248Y-53097526D01*
X101705911Y-53065010D01*
X101763314Y-53053592D01*
X102063314Y-53053592D01*
X102120717Y-53065010D01*
G37*
G36*
X131568403Y-53686418D02*
G01*
X131617066Y-53718934D01*
X131649582Y-53767597D01*
X131661000Y-53825000D01*
X131661000Y-54125000D01*
X131649582Y-54182403D01*
X131617066Y-54231066D01*
X131568403Y-54263582D01*
X131511000Y-54275000D01*
X129861000Y-54275000D01*
X129803597Y-54263582D01*
X129754934Y-54231066D01*
X129722418Y-54182403D01*
X129711000Y-54125000D01*
X129711000Y-53825000D01*
X129722418Y-53767597D01*
X129754934Y-53718934D01*
X129803597Y-53686418D01*
X129861000Y-53675000D01*
X131511000Y-53675000D01*
X131568403Y-53686418D01*
G37*
G36*
X136518403Y-53686418D02*
G01*
X136567066Y-53718934D01*
X136599582Y-53767597D01*
X136611000Y-53825000D01*
X136611000Y-54125000D01*
X136599582Y-54182403D01*
X136567066Y-54231066D01*
X136518403Y-54263582D01*
X136461000Y-54275000D01*
X134811000Y-54275000D01*
X134753597Y-54263582D01*
X134704934Y-54231066D01*
X134672418Y-54182403D01*
X134661000Y-54125000D01*
X134661000Y-53825000D01*
X134672418Y-53767597D01*
X134704934Y-53718934D01*
X134753597Y-53686418D01*
X134811000Y-53675000D01*
X136461000Y-53675000D01*
X136518403Y-53686418D01*
G37*
G36*
X122547677Y-54168631D02*
G01*
X119547677Y-54168631D01*
X119547677Y-53168631D01*
X122547677Y-53168631D01*
X122547677Y-54168631D01*
G37*
G36*
X127587677Y-54168631D02*
G01*
X124587677Y-54168631D01*
X124587677Y-53168631D01*
X127587677Y-53168631D01*
X127587677Y-54168631D01*
G37*
G36*
X150475664Y-54163966D02*
G01*
X147475664Y-54163966D01*
X147475664Y-53163966D01*
X150475664Y-53163966D01*
X150475664Y-54163966D01*
G37*
G36*
X155515664Y-54163966D02*
G01*
X152515664Y-54163966D01*
X152515664Y-53163966D01*
X155515664Y-53163966D01*
X155515664Y-54163966D01*
G37*
G36*
X87479047Y-52900805D02*
G01*
X87530408Y-52906764D01*
X87547954Y-52914511D01*
X87570671Y-52919030D01*
X87594991Y-52935280D01*
X87615793Y-52944465D01*
X87630000Y-52958672D01*
X87651777Y-52973223D01*
X87666327Y-52994999D01*
X87680534Y-53009206D01*
X87689718Y-53030006D01*
X87705970Y-53054329D01*
X87710489Y-53077048D01*
X87718235Y-53094591D01*
X87724192Y-53145940D01*
X87725000Y-53150000D01*
X87725000Y-53650000D01*
X87724192Y-53654059D01*
X87718235Y-53705408D01*
X87710489Y-53722950D01*
X87705970Y-53745671D01*
X87689716Y-53769995D01*
X87680534Y-53790793D01*
X87666329Y-53804997D01*
X87651777Y-53826777D01*
X87629997Y-53841329D01*
X87615793Y-53855534D01*
X87594995Y-53864716D01*
X87570671Y-53880970D01*
X87547950Y-53885489D01*
X87530408Y-53893235D01*
X87479061Y-53899192D01*
X87475000Y-53900000D01*
X86525000Y-53900000D01*
X86520941Y-53899192D01*
X86469591Y-53893235D01*
X86452048Y-53885489D01*
X86429329Y-53880970D01*
X86405006Y-53864718D01*
X86384206Y-53855534D01*
X86369999Y-53841327D01*
X86348223Y-53826777D01*
X86333672Y-53805000D01*
X86319465Y-53790793D01*
X86310280Y-53769991D01*
X86294030Y-53745671D01*
X86289511Y-53722954D01*
X86281764Y-53705408D01*
X86275805Y-53654049D01*
X86275000Y-53650000D01*
X86275000Y-53150000D01*
X86275804Y-53145953D01*
X86281764Y-53094591D01*
X86289511Y-53077043D01*
X86294030Y-53054329D01*
X86310278Y-53030010D01*
X86319465Y-53009206D01*
X86333674Y-52994996D01*
X86348223Y-52973223D01*
X86369996Y-52958674D01*
X86384206Y-52944465D01*
X86405010Y-52935278D01*
X86429329Y-52919030D01*
X86452043Y-52914511D01*
X86469591Y-52906764D01*
X86520952Y-52900805D01*
X86525000Y-52900000D01*
X87475000Y-52900000D01*
X87479047Y-52900805D01*
G37*
G36*
X78932403Y-52846418D02*
G01*
X78981066Y-52878934D01*
X79013582Y-52927597D01*
X79025000Y-52985000D01*
X79025000Y-53285000D01*
X79013582Y-53342403D01*
X78981066Y-53391066D01*
X78932403Y-53423582D01*
X78875000Y-53435000D01*
X77225000Y-53435000D01*
X77167597Y-53423582D01*
X77118934Y-53391066D01*
X77086418Y-53342403D01*
X77075000Y-53285000D01*
X77075000Y-52985000D01*
X77086418Y-52927597D01*
X77118934Y-52878934D01*
X77167597Y-52846418D01*
X77225000Y-52835000D01*
X78875000Y-52835000D01*
X78932403Y-52846418D01*
G37*
G36*
X83882403Y-52846418D02*
G01*
X83931066Y-52878934D01*
X83963582Y-52927597D01*
X83975000Y-52985000D01*
X83975000Y-53285000D01*
X83963582Y-53342403D01*
X83931066Y-53391066D01*
X83882403Y-53423582D01*
X83825000Y-53435000D01*
X82175000Y-53435000D01*
X82117597Y-53423582D01*
X82068934Y-53391066D01*
X82036418Y-53342403D01*
X82025000Y-53285000D01*
X82025000Y-52985000D01*
X82036418Y-52927597D01*
X82068934Y-52878934D01*
X82117597Y-52846418D01*
X82175000Y-52835000D01*
X83825000Y-52835000D01*
X83882403Y-52846418D01*
G37*
G36*
X74954047Y-52313305D02*
G01*
X75005408Y-52319264D01*
X75022954Y-52327011D01*
X75045671Y-52331530D01*
X75069991Y-52347780D01*
X75090793Y-52356965D01*
X75105000Y-52371172D01*
X75126777Y-52385723D01*
X75141327Y-52407499D01*
X75155534Y-52421706D01*
X75164718Y-52442506D01*
X75180970Y-52466829D01*
X75185489Y-52489548D01*
X75193235Y-52507091D01*
X75199192Y-52558440D01*
X75200000Y-52562500D01*
X75200000Y-53087500D01*
X75199192Y-53091559D01*
X75193235Y-53142908D01*
X75185489Y-53160450D01*
X75180970Y-53183171D01*
X75164716Y-53207495D01*
X75155534Y-53228293D01*
X75141329Y-53242497D01*
X75126777Y-53264277D01*
X75104997Y-53278829D01*
X75090793Y-53293034D01*
X75069995Y-53302216D01*
X75045671Y-53318470D01*
X75022950Y-53322989D01*
X75005408Y-53330735D01*
X74954061Y-53336692D01*
X74950000Y-53337500D01*
X74050000Y-53337500D01*
X74045941Y-53336692D01*
X73994591Y-53330735D01*
X73977048Y-53322989D01*
X73954329Y-53318470D01*
X73930006Y-53302218D01*
X73909206Y-53293034D01*
X73894999Y-53278827D01*
X73873223Y-53264277D01*
X73858672Y-53242500D01*
X73844465Y-53228293D01*
X73835280Y-53207491D01*
X73819030Y-53183171D01*
X73814511Y-53160454D01*
X73806764Y-53142908D01*
X73800805Y-53091549D01*
X73800000Y-53087500D01*
X73800000Y-52562500D01*
X73800804Y-52558453D01*
X73806764Y-52507091D01*
X73814511Y-52489543D01*
X73819030Y-52466829D01*
X73835278Y-52442510D01*
X73844465Y-52421706D01*
X73858674Y-52407496D01*
X73873223Y-52385723D01*
X73894996Y-52371174D01*
X73909206Y-52356965D01*
X73930010Y-52347778D01*
X73954329Y-52331530D01*
X73977043Y-52327011D01*
X73994591Y-52319264D01*
X74045952Y-52313305D01*
X74050000Y-52312500D01*
X74950000Y-52312500D01*
X74954047Y-52313305D01*
G37*
G36*
X67054046Y-51550805D02*
G01*
X67105407Y-51556764D01*
X67122953Y-51564511D01*
X67145670Y-51569030D01*
X67169987Y-51585278D01*
X67190793Y-51594465D01*
X67205004Y-51608676D01*
X67226776Y-51623224D01*
X67241323Y-51644995D01*
X67255534Y-51659206D01*
X67264719Y-51680010D01*
X67280970Y-51704330D01*
X67285488Y-51727047D01*
X67293235Y-51744592D01*
X67299196Y-51795966D01*
X67299999Y-51800002D01*
X67299999Y-51802883D01*
X67300000Y-51802892D01*
X67300000Y-52312500D01*
X67300000Y-52799999D01*
X67299194Y-52804048D01*
X67293235Y-52855407D01*
X67285489Y-52872949D01*
X67280970Y-52895670D01*
X67264718Y-52919991D01*
X67255534Y-52940793D01*
X67241325Y-52955001D01*
X67226776Y-52976776D01*
X67205001Y-52991325D01*
X67190793Y-53005534D01*
X67169991Y-53014718D01*
X67145670Y-53030970D01*
X67122950Y-53035488D01*
X67105407Y-53043235D01*
X67054034Y-53049196D01*
X67049998Y-53049999D01*
X67047115Y-53049999D01*
X67047107Y-53050000D01*
X66052893Y-53050000D01*
X66052892Y-53049999D01*
X66050001Y-53050000D01*
X66045951Y-53049194D01*
X65994592Y-53043235D01*
X65977048Y-53035488D01*
X65954330Y-53030970D01*
X65930010Y-53014719D01*
X65909206Y-53005534D01*
X65894995Y-52991323D01*
X65873224Y-52976776D01*
X65858676Y-52955004D01*
X65844465Y-52940793D01*
X65835278Y-52919987D01*
X65819030Y-52895670D01*
X65814511Y-52872954D01*
X65806764Y-52855407D01*
X65800803Y-52804033D01*
X65800001Y-52799998D01*
X65800000Y-52797115D01*
X65800000Y-52797107D01*
X65800000Y-51802892D01*
X65800000Y-51802891D01*
X65800000Y-51800001D01*
X65800804Y-51795954D01*
X65806764Y-51744592D01*
X65814511Y-51727044D01*
X65819030Y-51704330D01*
X65835277Y-51680014D01*
X65844465Y-51659206D01*
X65858678Y-51644992D01*
X65873224Y-51623224D01*
X65894992Y-51608678D01*
X65909206Y-51594465D01*
X65930014Y-51585277D01*
X65954330Y-51569030D01*
X65977043Y-51564512D01*
X65994592Y-51556764D01*
X66045967Y-51550803D01*
X66050002Y-51550001D01*
X66052884Y-51550000D01*
X66052893Y-51550000D01*
X67047107Y-51550000D01*
X67049999Y-51550000D01*
X67054046Y-51550805D01*
G37*
G36*
X69767714Y-51582295D02*
G01*
X69903548Y-51638559D01*
X70025795Y-51720242D01*
X70129758Y-51824205D01*
X70211441Y-51946452D01*
X70267705Y-52082286D01*
X70296389Y-52226487D01*
X70296389Y-52373513D01*
X70267705Y-52517714D01*
X70211441Y-52653548D01*
X70129758Y-52775795D01*
X70025795Y-52879758D01*
X69903548Y-52961441D01*
X69767714Y-53017705D01*
X69623513Y-53046389D01*
X69476487Y-53046389D01*
X69332286Y-53017705D01*
X69196452Y-52961441D01*
X69074205Y-52879758D01*
X68970242Y-52775795D01*
X68888559Y-52653548D01*
X68832295Y-52517714D01*
X68803611Y-52373513D01*
X68803611Y-52226487D01*
X68832295Y-52082286D01*
X68888559Y-51946452D01*
X68970242Y-51824205D01*
X69074205Y-51720242D01*
X69196452Y-51638559D01*
X69332286Y-51582295D01*
X69476487Y-51553611D01*
X69623513Y-51553611D01*
X69767714Y-51582295D01*
G37*
G36*
X131568403Y-52416418D02*
G01*
X131617066Y-52448934D01*
X131649582Y-52497597D01*
X131661000Y-52555000D01*
X131661000Y-52855000D01*
X131649582Y-52912403D01*
X131617066Y-52961066D01*
X131568403Y-52993582D01*
X131511000Y-53005000D01*
X129861000Y-53005000D01*
X129803597Y-52993582D01*
X129754934Y-52961066D01*
X129722418Y-52912403D01*
X129711000Y-52855000D01*
X129711000Y-52555000D01*
X129722418Y-52497597D01*
X129754934Y-52448934D01*
X129803597Y-52416418D01*
X129861000Y-52405000D01*
X131511000Y-52405000D01*
X131568403Y-52416418D01*
G37*
G36*
X136518403Y-52416418D02*
G01*
X136567066Y-52448934D01*
X136599582Y-52497597D01*
X136611000Y-52555000D01*
X136611000Y-52855000D01*
X136599582Y-52912403D01*
X136567066Y-52961066D01*
X136518403Y-52993582D01*
X136461000Y-53005000D01*
X134811000Y-53005000D01*
X134753597Y-52993582D01*
X134704934Y-52961066D01*
X134672418Y-52912403D01*
X134661000Y-52855000D01*
X134661000Y-52555000D01*
X134672418Y-52497597D01*
X134704934Y-52448934D01*
X134753597Y-52416418D01*
X134811000Y-52405000D01*
X136461000Y-52405000D01*
X136518403Y-52416418D01*
G37*
G36*
X139671047Y-51777805D02*
G01*
X139722408Y-51783764D01*
X139739954Y-51791511D01*
X139762671Y-51796030D01*
X139786991Y-51812280D01*
X139807793Y-51821465D01*
X139822000Y-51835672D01*
X139843777Y-51850223D01*
X139858327Y-51871999D01*
X139872534Y-51886206D01*
X139881718Y-51907006D01*
X139897970Y-51931329D01*
X139902489Y-51954048D01*
X139910235Y-51971591D01*
X139916192Y-52022940D01*
X139917000Y-52027000D01*
X139917000Y-52527000D01*
X139916192Y-52531059D01*
X139910235Y-52582408D01*
X139902489Y-52599950D01*
X139897970Y-52622671D01*
X139881716Y-52646995D01*
X139872534Y-52667793D01*
X139858329Y-52681997D01*
X139843777Y-52703777D01*
X139821997Y-52718329D01*
X139807793Y-52732534D01*
X139786995Y-52741716D01*
X139762671Y-52757970D01*
X139739950Y-52762489D01*
X139722408Y-52770235D01*
X139671061Y-52776192D01*
X139667000Y-52777000D01*
X138717000Y-52777000D01*
X138712941Y-52776192D01*
X138661591Y-52770235D01*
X138644048Y-52762489D01*
X138621329Y-52757970D01*
X138597006Y-52741718D01*
X138576206Y-52732534D01*
X138561999Y-52718327D01*
X138540223Y-52703777D01*
X138525672Y-52682000D01*
X138511465Y-52667793D01*
X138502280Y-52646991D01*
X138486030Y-52622671D01*
X138481511Y-52599954D01*
X138473764Y-52582408D01*
X138467805Y-52531049D01*
X138467000Y-52527000D01*
X138467000Y-52027000D01*
X138467804Y-52022953D01*
X138473764Y-51971591D01*
X138481511Y-51954043D01*
X138486030Y-51931329D01*
X138502278Y-51907010D01*
X138511465Y-51886206D01*
X138525674Y-51871996D01*
X138540223Y-51850223D01*
X138561996Y-51835674D01*
X138576206Y-51821465D01*
X138597010Y-51812278D01*
X138621329Y-51796030D01*
X138644043Y-51791511D01*
X138661591Y-51783764D01*
X138712952Y-51777805D01*
X138717000Y-51777000D01*
X139667000Y-51777000D01*
X139671047Y-51777805D01*
G37*
G36*
X141678047Y-51685305D02*
G01*
X141729408Y-51691264D01*
X141746954Y-51699011D01*
X141769671Y-51703530D01*
X141793991Y-51719780D01*
X141814793Y-51728965D01*
X141829000Y-51743172D01*
X141850777Y-51757723D01*
X141865327Y-51779499D01*
X141879534Y-51793706D01*
X141888718Y-51814506D01*
X141904970Y-51838829D01*
X141909489Y-51861548D01*
X141917235Y-51879091D01*
X141923192Y-51930440D01*
X141924000Y-51934500D01*
X141924000Y-52459500D01*
X141923192Y-52463559D01*
X141917235Y-52514908D01*
X141909489Y-52532450D01*
X141904970Y-52555171D01*
X141888716Y-52579495D01*
X141879534Y-52600293D01*
X141865329Y-52614497D01*
X141850777Y-52636277D01*
X141828997Y-52650829D01*
X141814793Y-52665034D01*
X141793995Y-52674216D01*
X141769671Y-52690470D01*
X141746950Y-52694989D01*
X141729408Y-52702735D01*
X141678061Y-52708692D01*
X141674000Y-52709500D01*
X140774000Y-52709500D01*
X140769941Y-52708692D01*
X140718591Y-52702735D01*
X140701048Y-52694989D01*
X140678329Y-52690470D01*
X140654006Y-52674218D01*
X140633206Y-52665034D01*
X140618999Y-52650827D01*
X140597223Y-52636277D01*
X140582672Y-52614500D01*
X140568465Y-52600293D01*
X140559280Y-52579491D01*
X140543030Y-52555171D01*
X140538511Y-52532454D01*
X140530764Y-52514908D01*
X140524805Y-52463549D01*
X140524000Y-52459500D01*
X140524000Y-51934500D01*
X140524804Y-51930453D01*
X140530764Y-51879091D01*
X140538511Y-51861543D01*
X140543030Y-51838829D01*
X140559278Y-51814510D01*
X140568465Y-51793706D01*
X140582674Y-51779496D01*
X140597223Y-51757723D01*
X140618996Y-51743174D01*
X140633206Y-51728965D01*
X140654010Y-51719778D01*
X140678329Y-51703530D01*
X140701043Y-51699011D01*
X140718591Y-51691264D01*
X140769952Y-51685305D01*
X140774000Y-51684500D01*
X141674000Y-51684500D01*
X141678047Y-51685305D01*
G37*
G36*
X143710047Y-51685305D02*
G01*
X143761408Y-51691264D01*
X143778954Y-51699011D01*
X143801671Y-51703530D01*
X143825991Y-51719780D01*
X143846793Y-51728965D01*
X143861000Y-51743172D01*
X143882777Y-51757723D01*
X143897327Y-51779499D01*
X143911534Y-51793706D01*
X143920718Y-51814506D01*
X143936970Y-51838829D01*
X143941489Y-51861548D01*
X143949235Y-51879091D01*
X143955192Y-51930440D01*
X143956000Y-51934500D01*
X143956000Y-52459500D01*
X143955192Y-52463559D01*
X143949235Y-52514908D01*
X143941489Y-52532450D01*
X143936970Y-52555171D01*
X143920716Y-52579495D01*
X143911534Y-52600293D01*
X143897329Y-52614497D01*
X143882777Y-52636277D01*
X143860997Y-52650829D01*
X143846793Y-52665034D01*
X143825995Y-52674216D01*
X143801671Y-52690470D01*
X143778950Y-52694989D01*
X143761408Y-52702735D01*
X143710061Y-52708692D01*
X143706000Y-52709500D01*
X142806000Y-52709500D01*
X142801941Y-52708692D01*
X142750591Y-52702735D01*
X142733048Y-52694989D01*
X142710329Y-52690470D01*
X142686006Y-52674218D01*
X142665206Y-52665034D01*
X142650999Y-52650827D01*
X142629223Y-52636277D01*
X142614672Y-52614500D01*
X142600465Y-52600293D01*
X142591280Y-52579491D01*
X142575030Y-52555171D01*
X142570511Y-52532454D01*
X142562764Y-52514908D01*
X142556805Y-52463549D01*
X142556000Y-52459500D01*
X142556000Y-51934500D01*
X142556804Y-51930453D01*
X142562764Y-51879091D01*
X142570511Y-51861543D01*
X142575030Y-51838829D01*
X142591278Y-51814510D01*
X142600465Y-51793706D01*
X142614674Y-51779496D01*
X142629223Y-51757723D01*
X142650996Y-51743174D01*
X142665206Y-51728965D01*
X142686010Y-51719778D01*
X142710329Y-51703530D01*
X142733043Y-51699011D01*
X142750591Y-51691264D01*
X142801952Y-51685305D01*
X142806000Y-51684500D01*
X143706000Y-51684500D01*
X143710047Y-51685305D01*
G37*
G36*
X62580168Y-49341445D02*
G01*
X62804025Y-49414181D01*
X63013748Y-49521040D01*
X63204172Y-49659391D01*
X63370609Y-49825828D01*
X63508960Y-50016252D01*
X63615819Y-50225975D01*
X63688555Y-50449832D01*
X63725376Y-50682311D01*
X63725376Y-50917689D01*
X63688555Y-51150168D01*
X63615819Y-51374025D01*
X63508960Y-51583748D01*
X63370609Y-51774172D01*
X63204172Y-51940609D01*
X63013748Y-52078960D01*
X62804025Y-52185819D01*
X62580168Y-52258555D01*
X62347689Y-52295376D01*
X62112311Y-52295376D01*
X61879832Y-52258555D01*
X61655975Y-52185819D01*
X61446252Y-52078960D01*
X61255828Y-51940609D01*
X61089391Y-51774172D01*
X60951040Y-51583748D01*
X60844181Y-51374025D01*
X60771445Y-51150168D01*
X60734624Y-50917689D01*
X60734624Y-50682311D01*
X60771445Y-50449832D01*
X60844181Y-50225975D01*
X60951040Y-50016252D01*
X61089391Y-49825828D01*
X61255828Y-49659391D01*
X61446252Y-49521040D01*
X61655975Y-49414181D01*
X61879832Y-49341445D01*
X62112311Y-49304624D01*
X62347689Y-49304624D01*
X62580168Y-49341445D01*
G37*
G36*
X78932403Y-51576418D02*
G01*
X78981066Y-51608934D01*
X79013582Y-51657597D01*
X79025000Y-51715000D01*
X79025000Y-52015000D01*
X79013582Y-52072403D01*
X78981066Y-52121066D01*
X78932403Y-52153582D01*
X78875000Y-52165000D01*
X77225000Y-52165000D01*
X77167597Y-52153582D01*
X77118934Y-52121066D01*
X77086418Y-52072403D01*
X77075000Y-52015000D01*
X77075000Y-51715000D01*
X77086418Y-51657597D01*
X77118934Y-51608934D01*
X77167597Y-51576418D01*
X77225000Y-51565000D01*
X78875000Y-51565000D01*
X78932403Y-51576418D01*
G37*
G36*
X83882403Y-51576418D02*
G01*
X83931066Y-51608934D01*
X83963582Y-51657597D01*
X83975000Y-51715000D01*
X83975000Y-52015000D01*
X83963582Y-52072403D01*
X83931066Y-52121066D01*
X83882403Y-52153582D01*
X83825000Y-52165000D01*
X82175000Y-52165000D01*
X82117597Y-52153582D01*
X82068934Y-52121066D01*
X82036418Y-52072403D01*
X82025000Y-52015000D01*
X82025000Y-51715000D01*
X82036418Y-51657597D01*
X82068934Y-51608934D01*
X82117597Y-51576418D01*
X82175000Y-51565000D01*
X83825000Y-51565000D01*
X83882403Y-51576418D01*
G37*
G36*
X87479047Y-51000805D02*
G01*
X87530408Y-51006764D01*
X87547954Y-51014511D01*
X87570671Y-51019030D01*
X87594991Y-51035280D01*
X87615793Y-51044465D01*
X87630000Y-51058672D01*
X87651777Y-51073223D01*
X87666327Y-51094999D01*
X87680534Y-51109206D01*
X87689718Y-51130006D01*
X87705970Y-51154329D01*
X87710489Y-51177048D01*
X87718235Y-51194591D01*
X87724192Y-51245940D01*
X87725000Y-51250000D01*
X87725000Y-51750000D01*
X87724192Y-51754059D01*
X87718235Y-51805408D01*
X87710489Y-51822950D01*
X87705970Y-51845671D01*
X87689716Y-51869995D01*
X87680534Y-51890793D01*
X87666329Y-51904997D01*
X87651777Y-51926777D01*
X87629997Y-51941329D01*
X87615793Y-51955534D01*
X87594995Y-51964716D01*
X87570671Y-51980970D01*
X87547950Y-51985489D01*
X87530408Y-51993235D01*
X87479061Y-51999192D01*
X87475000Y-52000000D01*
X86525000Y-52000000D01*
X86520941Y-51999192D01*
X86469591Y-51993235D01*
X86452048Y-51985489D01*
X86429329Y-51980970D01*
X86405006Y-51964718D01*
X86384206Y-51955534D01*
X86369999Y-51941327D01*
X86348223Y-51926777D01*
X86333672Y-51905000D01*
X86319465Y-51890793D01*
X86310280Y-51869991D01*
X86294030Y-51845671D01*
X86289511Y-51822954D01*
X86281764Y-51805408D01*
X86275805Y-51754049D01*
X86275000Y-51750000D01*
X86275000Y-51250000D01*
X86275804Y-51245953D01*
X86281764Y-51194591D01*
X86289511Y-51177043D01*
X86294030Y-51154329D01*
X86310278Y-51130010D01*
X86319465Y-51109206D01*
X86333674Y-51094996D01*
X86348223Y-51073223D01*
X86369996Y-51058674D01*
X86384206Y-51044465D01*
X86405010Y-51035278D01*
X86429329Y-51019030D01*
X86452043Y-51014511D01*
X86469591Y-51006764D01*
X86520952Y-51000805D01*
X86525000Y-51000000D01*
X87475000Y-51000000D01*
X87479047Y-51000805D01*
G37*
G36*
X131568403Y-51146418D02*
G01*
X131617066Y-51178934D01*
X131649582Y-51227597D01*
X131661000Y-51285000D01*
X131661000Y-51585000D01*
X131649582Y-51642403D01*
X131617066Y-51691066D01*
X131568403Y-51723582D01*
X131511000Y-51735000D01*
X129861000Y-51735000D01*
X129803597Y-51723582D01*
X129754934Y-51691066D01*
X129722418Y-51642403D01*
X129711000Y-51585000D01*
X129711000Y-51285000D01*
X129722418Y-51227597D01*
X129754934Y-51178934D01*
X129803597Y-51146418D01*
X129861000Y-51135000D01*
X131511000Y-51135000D01*
X131568403Y-51146418D01*
G37*
G36*
X136518403Y-51146418D02*
G01*
X136567066Y-51178934D01*
X136599582Y-51227597D01*
X136611000Y-51285000D01*
X136611000Y-51585000D01*
X136599582Y-51642403D01*
X136567066Y-51691066D01*
X136518403Y-51723582D01*
X136461000Y-51735000D01*
X134811000Y-51735000D01*
X134753597Y-51723582D01*
X134704934Y-51691066D01*
X134672418Y-51642403D01*
X134661000Y-51585000D01*
X134661000Y-51285000D01*
X134672418Y-51227597D01*
X134704934Y-51178934D01*
X134753597Y-51146418D01*
X134811000Y-51135000D01*
X136461000Y-51135000D01*
X136518403Y-51146418D01*
G37*
G36*
X122547677Y-51628631D02*
G01*
X119547677Y-51628631D01*
X119547677Y-50628631D01*
X122547677Y-50628631D01*
X122547677Y-51628631D01*
G37*
G36*
X127587677Y-51628631D02*
G01*
X124587677Y-51628631D01*
X124587677Y-50628631D01*
X127587677Y-50628631D01*
X127587677Y-51628631D01*
G37*
G36*
X150475664Y-51623966D02*
G01*
X147475664Y-51623966D01*
X147475664Y-50623966D01*
X150475664Y-50623966D01*
X150475664Y-51623966D01*
G37*
G36*
X155515664Y-51623966D02*
G01*
X152515664Y-51623966D01*
X152515664Y-50623966D01*
X155515664Y-50623966D01*
X155515664Y-51623966D01*
G37*
G36*
X74954047Y-50488305D02*
G01*
X75005408Y-50494264D01*
X75022954Y-50502011D01*
X75045671Y-50506530D01*
X75069991Y-50522780D01*
X75090793Y-50531965D01*
X75105000Y-50546172D01*
X75126777Y-50560723D01*
X75141327Y-50582499D01*
X75155534Y-50596706D01*
X75164718Y-50617506D01*
X75180970Y-50641829D01*
X75185489Y-50664548D01*
X75193235Y-50682091D01*
X75199192Y-50733440D01*
X75200000Y-50737500D01*
X75200000Y-51262500D01*
X75199192Y-51266559D01*
X75193235Y-51317908D01*
X75185489Y-51335450D01*
X75180970Y-51358171D01*
X75164716Y-51382495D01*
X75155534Y-51403293D01*
X75141329Y-51417497D01*
X75126777Y-51439277D01*
X75104997Y-51453829D01*
X75090793Y-51468034D01*
X75069995Y-51477216D01*
X75045671Y-51493470D01*
X75022950Y-51497989D01*
X75005408Y-51505735D01*
X74954061Y-51511692D01*
X74950000Y-51512500D01*
X74050000Y-51512500D01*
X74045941Y-51511692D01*
X73994591Y-51505735D01*
X73977048Y-51497989D01*
X73954329Y-51493470D01*
X73930006Y-51477218D01*
X73909206Y-51468034D01*
X73894999Y-51453827D01*
X73873223Y-51439277D01*
X73858672Y-51417500D01*
X73844465Y-51403293D01*
X73835280Y-51382491D01*
X73819030Y-51358171D01*
X73814511Y-51335454D01*
X73806764Y-51317908D01*
X73800805Y-51266549D01*
X73800000Y-51262500D01*
X73800000Y-50737500D01*
X73800804Y-50733453D01*
X73806764Y-50682091D01*
X73814511Y-50664543D01*
X73819030Y-50641829D01*
X73835278Y-50617510D01*
X73844465Y-50596706D01*
X73858674Y-50582496D01*
X73873223Y-50560723D01*
X73894996Y-50546174D01*
X73909206Y-50531965D01*
X73930010Y-50522778D01*
X73954329Y-50506530D01*
X73977043Y-50502011D01*
X73994591Y-50494264D01*
X74045952Y-50488305D01*
X74050000Y-50487500D01*
X74950000Y-50487500D01*
X74954047Y-50488305D01*
G37*
G36*
X78932403Y-50306418D02*
G01*
X78981066Y-50338934D01*
X79013582Y-50387597D01*
X79025000Y-50445000D01*
X79025000Y-50745000D01*
X79013582Y-50802403D01*
X78981066Y-50851066D01*
X78932403Y-50883582D01*
X78875000Y-50895000D01*
X77225000Y-50895000D01*
X77167597Y-50883582D01*
X77118934Y-50851066D01*
X77086418Y-50802403D01*
X77075000Y-50745000D01*
X77075000Y-50445000D01*
X77086418Y-50387597D01*
X77118934Y-50338934D01*
X77167597Y-50306418D01*
X77225000Y-50295000D01*
X78875000Y-50295000D01*
X78932403Y-50306418D01*
G37*
G36*
X83882403Y-50306418D02*
G01*
X83931066Y-50338934D01*
X83963582Y-50387597D01*
X83975000Y-50445000D01*
X83975000Y-50745000D01*
X83963582Y-50802403D01*
X83931066Y-50851066D01*
X83882403Y-50883582D01*
X83825000Y-50895000D01*
X82175000Y-50895000D01*
X82117597Y-50883582D01*
X82068934Y-50851066D01*
X82036418Y-50802403D01*
X82025000Y-50745000D01*
X82025000Y-50445000D01*
X82036418Y-50387597D01*
X82068934Y-50338934D01*
X82117597Y-50306418D01*
X82175000Y-50295000D01*
X83825000Y-50295000D01*
X83882403Y-50306418D01*
G37*
G36*
X141678047Y-49860305D02*
G01*
X141729408Y-49866264D01*
X141746954Y-49874011D01*
X141769671Y-49878530D01*
X141793991Y-49894780D01*
X141814793Y-49903965D01*
X141829000Y-49918172D01*
X141850777Y-49932723D01*
X141865327Y-49954499D01*
X141879534Y-49968706D01*
X141888718Y-49989506D01*
X141904970Y-50013829D01*
X141909489Y-50036548D01*
X141917235Y-50054091D01*
X141923192Y-50105440D01*
X141924000Y-50109500D01*
X141924000Y-50634500D01*
X141923192Y-50638559D01*
X141917235Y-50689908D01*
X141909489Y-50707450D01*
X141904970Y-50730171D01*
X141888716Y-50754495D01*
X141879534Y-50775293D01*
X141865329Y-50789497D01*
X141850777Y-50811277D01*
X141828997Y-50825829D01*
X141814793Y-50840034D01*
X141793995Y-50849216D01*
X141769671Y-50865470D01*
X141746950Y-50869989D01*
X141729408Y-50877735D01*
X141678061Y-50883692D01*
X141674000Y-50884500D01*
X140774000Y-50884500D01*
X140769941Y-50883692D01*
X140718591Y-50877735D01*
X140701048Y-50869989D01*
X140678329Y-50865470D01*
X140654006Y-50849218D01*
X140633206Y-50840034D01*
X140618999Y-50825827D01*
X140597223Y-50811277D01*
X140582672Y-50789500D01*
X140568465Y-50775293D01*
X140559280Y-50754491D01*
X140543030Y-50730171D01*
X140538511Y-50707454D01*
X140530764Y-50689908D01*
X140524805Y-50638549D01*
X140524000Y-50634500D01*
X140524000Y-50109500D01*
X140524804Y-50105453D01*
X140530764Y-50054091D01*
X140538511Y-50036543D01*
X140543030Y-50013829D01*
X140559278Y-49989510D01*
X140568465Y-49968706D01*
X140582674Y-49954496D01*
X140597223Y-49932723D01*
X140618996Y-49918174D01*
X140633206Y-49903965D01*
X140654010Y-49894778D01*
X140678329Y-49878530D01*
X140701043Y-49874011D01*
X140718591Y-49866264D01*
X140769952Y-49860305D01*
X140774000Y-49859500D01*
X141674000Y-49859500D01*
X141678047Y-49860305D01*
G37*
G36*
X143710047Y-49860305D02*
G01*
X143761408Y-49866264D01*
X143778954Y-49874011D01*
X143801671Y-49878530D01*
X143825991Y-49894780D01*
X143846793Y-49903965D01*
X143861000Y-49918172D01*
X143882777Y-49932723D01*
X143897327Y-49954499D01*
X143911534Y-49968706D01*
X143920718Y-49989506D01*
X143936970Y-50013829D01*
X143941489Y-50036548D01*
X143949235Y-50054091D01*
X143955192Y-50105440D01*
X143956000Y-50109500D01*
X143956000Y-50634500D01*
X143955192Y-50638559D01*
X143949235Y-50689908D01*
X143941489Y-50707450D01*
X143936970Y-50730171D01*
X143920716Y-50754495D01*
X143911534Y-50775293D01*
X143897329Y-50789497D01*
X143882777Y-50811277D01*
X143860997Y-50825829D01*
X143846793Y-50840034D01*
X143825995Y-50849216D01*
X143801671Y-50865470D01*
X143778950Y-50869989D01*
X143761408Y-50877735D01*
X143710061Y-50883692D01*
X143706000Y-50884500D01*
X142806000Y-50884500D01*
X142801941Y-50883692D01*
X142750591Y-50877735D01*
X142733048Y-50869989D01*
X142710329Y-50865470D01*
X142686006Y-50849218D01*
X142665206Y-50840034D01*
X142650999Y-50825827D01*
X142629223Y-50811277D01*
X142614672Y-50789500D01*
X142600465Y-50775293D01*
X142591280Y-50754491D01*
X142575030Y-50730171D01*
X142570511Y-50707454D01*
X142562764Y-50689908D01*
X142556805Y-50638549D01*
X142556000Y-50634500D01*
X142556000Y-50109500D01*
X142556804Y-50105453D01*
X142562764Y-50054091D01*
X142570511Y-50036543D01*
X142575030Y-50013829D01*
X142591278Y-49989510D01*
X142600465Y-49968706D01*
X142614674Y-49954496D01*
X142629223Y-49932723D01*
X142650996Y-49918174D01*
X142665206Y-49903965D01*
X142686010Y-49894778D01*
X142710329Y-49878530D01*
X142733043Y-49874011D01*
X142750591Y-49866264D01*
X142801952Y-49860305D01*
X142806000Y-49859500D01*
X143706000Y-49859500D01*
X143710047Y-49860305D01*
G37*
G36*
X139671047Y-49877805D02*
G01*
X139722408Y-49883764D01*
X139739954Y-49891511D01*
X139762671Y-49896030D01*
X139786991Y-49912280D01*
X139807793Y-49921465D01*
X139822000Y-49935672D01*
X139843777Y-49950223D01*
X139858327Y-49971999D01*
X139872534Y-49986206D01*
X139881718Y-50007006D01*
X139897970Y-50031329D01*
X139902489Y-50054048D01*
X139910235Y-50071591D01*
X139916192Y-50122940D01*
X139917000Y-50127000D01*
X139917000Y-50627000D01*
X139916192Y-50631059D01*
X139910235Y-50682408D01*
X139902489Y-50699950D01*
X139897970Y-50722671D01*
X139881716Y-50746995D01*
X139872534Y-50767793D01*
X139858329Y-50781997D01*
X139843777Y-50803777D01*
X139821997Y-50818329D01*
X139807793Y-50832534D01*
X139786995Y-50841716D01*
X139762671Y-50857970D01*
X139739950Y-50862489D01*
X139722408Y-50870235D01*
X139671061Y-50876192D01*
X139667000Y-50877000D01*
X138717000Y-50877000D01*
X138712941Y-50876192D01*
X138661591Y-50870235D01*
X138644048Y-50862489D01*
X138621329Y-50857970D01*
X138597006Y-50841718D01*
X138576206Y-50832534D01*
X138561999Y-50818327D01*
X138540223Y-50803777D01*
X138525672Y-50782000D01*
X138511465Y-50767793D01*
X138502280Y-50746991D01*
X138486030Y-50722671D01*
X138481511Y-50699954D01*
X138473764Y-50682408D01*
X138467805Y-50631049D01*
X138467000Y-50627000D01*
X138467000Y-50127000D01*
X138467804Y-50122953D01*
X138473764Y-50071591D01*
X138481511Y-50054043D01*
X138486030Y-50031329D01*
X138502278Y-50007010D01*
X138511465Y-49986206D01*
X138525674Y-49971996D01*
X138540223Y-49950223D01*
X138561996Y-49935674D01*
X138576206Y-49921465D01*
X138597010Y-49912278D01*
X138621329Y-49896030D01*
X138644043Y-49891511D01*
X138661591Y-49883764D01*
X138712952Y-49877805D01*
X138717000Y-49877000D01*
X139667000Y-49877000D01*
X139671047Y-49877805D01*
G37*
G36*
X131568403Y-49876418D02*
G01*
X131617066Y-49908934D01*
X131649582Y-49957597D01*
X131661000Y-50015000D01*
X131661000Y-50315000D01*
X131649582Y-50372403D01*
X131617066Y-50421066D01*
X131568403Y-50453582D01*
X131511000Y-50465000D01*
X129861000Y-50465000D01*
X129803597Y-50453582D01*
X129754934Y-50421066D01*
X129722418Y-50372403D01*
X129711000Y-50315000D01*
X129711000Y-50015000D01*
X129722418Y-49957597D01*
X129754934Y-49908934D01*
X129803597Y-49876418D01*
X129861000Y-49865000D01*
X131511000Y-49865000D01*
X131568403Y-49876418D01*
G37*
G36*
X136518403Y-49876418D02*
G01*
X136567066Y-49908934D01*
X136599582Y-49957597D01*
X136611000Y-50015000D01*
X136611000Y-50315000D01*
X136599582Y-50372403D01*
X136567066Y-50421066D01*
X136518403Y-50453582D01*
X136461000Y-50465000D01*
X134811000Y-50465000D01*
X134753597Y-50453582D01*
X134704934Y-50421066D01*
X134672418Y-50372403D01*
X134661000Y-50315000D01*
X134661000Y-50015000D01*
X134672418Y-49957597D01*
X134704934Y-49908934D01*
X134753597Y-49876418D01*
X134811000Y-49865000D01*
X136461000Y-49865000D01*
X136518403Y-49876418D01*
G37*
G36*
X66767714Y-48582295D02*
G01*
X66903548Y-48638559D01*
X67025795Y-48720242D01*
X67129758Y-48824205D01*
X67211441Y-48946452D01*
X67267705Y-49082286D01*
X67296389Y-49226487D01*
X67296389Y-49373513D01*
X67267705Y-49517714D01*
X67211441Y-49653548D01*
X67129758Y-49775795D01*
X67025795Y-49879758D01*
X66903548Y-49961441D01*
X66767714Y-50017705D01*
X66623513Y-50046389D01*
X66476487Y-50046389D01*
X66332286Y-50017705D01*
X66196452Y-49961441D01*
X66074205Y-49879758D01*
X65970242Y-49775795D01*
X65888559Y-49653548D01*
X65832295Y-49517714D01*
X65803611Y-49373513D01*
X65803611Y-49226487D01*
X65832295Y-49082286D01*
X65888559Y-48946452D01*
X65970242Y-48824205D01*
X66074205Y-48720242D01*
X66196452Y-48638559D01*
X66332286Y-48582295D01*
X66476487Y-48553611D01*
X66623513Y-48553611D01*
X66767714Y-48582295D01*
G37*
G36*
X69767714Y-48582295D02*
G01*
X69903548Y-48638559D01*
X70025795Y-48720242D01*
X70129758Y-48824205D01*
X70211441Y-48946452D01*
X70267705Y-49082286D01*
X70296389Y-49226487D01*
X70296389Y-49373513D01*
X70267705Y-49517714D01*
X70211441Y-49653548D01*
X70129758Y-49775795D01*
X70025795Y-49879758D01*
X69903548Y-49961441D01*
X69767714Y-50017705D01*
X69623513Y-50046389D01*
X69476487Y-50046389D01*
X69332286Y-50017705D01*
X69196452Y-49961441D01*
X69074205Y-49879758D01*
X68970242Y-49775795D01*
X68888559Y-49653548D01*
X68832295Y-49517714D01*
X68803611Y-49373513D01*
X68803611Y-49226487D01*
X68832295Y-49082286D01*
X68888559Y-48946452D01*
X68970242Y-48824205D01*
X69074205Y-48720242D01*
X69196452Y-48638559D01*
X69332286Y-48582295D01*
X69476487Y-48553611D01*
X69623513Y-48553611D01*
X69767714Y-48582295D01*
G37*
G36*
X99949047Y-48424805D02*
G01*
X100000408Y-48430764D01*
X100017954Y-48438511D01*
X100040671Y-48443030D01*
X100064991Y-48459280D01*
X100085793Y-48468465D01*
X100100000Y-48482672D01*
X100121777Y-48497223D01*
X100136327Y-48518999D01*
X100150534Y-48533206D01*
X100159718Y-48554006D01*
X100175970Y-48578329D01*
X100180489Y-48601048D01*
X100188235Y-48618591D01*
X100194192Y-48669940D01*
X100195000Y-48674000D01*
X100195000Y-49624000D01*
X100194192Y-49628059D01*
X100188235Y-49679408D01*
X100180489Y-49696950D01*
X100175970Y-49719671D01*
X100159716Y-49743995D01*
X100150534Y-49764793D01*
X100136329Y-49778997D01*
X100121777Y-49800777D01*
X100099997Y-49815329D01*
X100085793Y-49829534D01*
X100064995Y-49838716D01*
X100040671Y-49854970D01*
X100017950Y-49859489D01*
X100000408Y-49867235D01*
X99949061Y-49873192D01*
X99945000Y-49874000D01*
X99445000Y-49874000D01*
X99440941Y-49873192D01*
X99389591Y-49867235D01*
X99372048Y-49859489D01*
X99349329Y-49854970D01*
X99325006Y-49838718D01*
X99304206Y-49829534D01*
X99289999Y-49815327D01*
X99268223Y-49800777D01*
X99253672Y-49779000D01*
X99239465Y-49764793D01*
X99230280Y-49743991D01*
X99214030Y-49719671D01*
X99209511Y-49696954D01*
X99201764Y-49679408D01*
X99195805Y-49628049D01*
X99195000Y-49624000D01*
X99195000Y-48674000D01*
X99195804Y-48669953D01*
X99201764Y-48618591D01*
X99209511Y-48601043D01*
X99214030Y-48578329D01*
X99230278Y-48554010D01*
X99239465Y-48533206D01*
X99253674Y-48518996D01*
X99268223Y-48497223D01*
X99289996Y-48482674D01*
X99304206Y-48468465D01*
X99325010Y-48459278D01*
X99349329Y-48443030D01*
X99372043Y-48438511D01*
X99389591Y-48430764D01*
X99440952Y-48424805D01*
X99445000Y-48424000D01*
X99945000Y-48424000D01*
X99949047Y-48424805D01*
G37*
G36*
X101849047Y-48424805D02*
G01*
X101900408Y-48430764D01*
X101917954Y-48438511D01*
X101940671Y-48443030D01*
X101964991Y-48459280D01*
X101985793Y-48468465D01*
X102000000Y-48482672D01*
X102021777Y-48497223D01*
X102036327Y-48518999D01*
X102050534Y-48533206D01*
X102059718Y-48554006D01*
X102075970Y-48578329D01*
X102080489Y-48601048D01*
X102088235Y-48618591D01*
X102094192Y-48669940D01*
X102095000Y-48674000D01*
X102095000Y-49624000D01*
X102094192Y-49628059D01*
X102088235Y-49679408D01*
X102080489Y-49696950D01*
X102075970Y-49719671D01*
X102059716Y-49743995D01*
X102050534Y-49764793D01*
X102036329Y-49778997D01*
X102021777Y-49800777D01*
X101999997Y-49815329D01*
X101985793Y-49829534D01*
X101964995Y-49838716D01*
X101940671Y-49854970D01*
X101917950Y-49859489D01*
X101900408Y-49867235D01*
X101849061Y-49873192D01*
X101845000Y-49874000D01*
X101345000Y-49874000D01*
X101340941Y-49873192D01*
X101289591Y-49867235D01*
X101272048Y-49859489D01*
X101249329Y-49854970D01*
X101225006Y-49838718D01*
X101204206Y-49829534D01*
X101189999Y-49815327D01*
X101168223Y-49800777D01*
X101153672Y-49779000D01*
X101139465Y-49764793D01*
X101130280Y-49743991D01*
X101114030Y-49719671D01*
X101109511Y-49696954D01*
X101101764Y-49679408D01*
X101095805Y-49628049D01*
X101095000Y-49624000D01*
X101095000Y-48674000D01*
X101095804Y-48669953D01*
X101101764Y-48618591D01*
X101109511Y-48601043D01*
X101114030Y-48578329D01*
X101130278Y-48554010D01*
X101139465Y-48533206D01*
X101153674Y-48518996D01*
X101168223Y-48497223D01*
X101189996Y-48482674D01*
X101204206Y-48468465D01*
X101225010Y-48459278D01*
X101249329Y-48443030D01*
X101272043Y-48438511D01*
X101289591Y-48430764D01*
X101340952Y-48424805D01*
X101345000Y-48424000D01*
X101845000Y-48424000D01*
X101849047Y-48424805D01*
G37*
G36*
X122547677Y-49088631D02*
G01*
X119547677Y-49088631D01*
X119547677Y-48088631D01*
X122547677Y-48088631D01*
X122547677Y-49088631D01*
G37*
G36*
X127587677Y-49088631D02*
G01*
X124587677Y-49088631D01*
X124587677Y-48088631D01*
X127587677Y-48088631D01*
X127587677Y-49088631D01*
G37*
G36*
X150475664Y-49083966D02*
G01*
X147475664Y-49083966D01*
X147475664Y-48083966D01*
X150475664Y-48083966D01*
X150475664Y-49083966D01*
G37*
G36*
X155515664Y-49083966D02*
G01*
X152515664Y-49083966D01*
X152515664Y-48083966D01*
X155515664Y-48083966D01*
X155515664Y-49083966D01*
G37*
G36*
X75500000Y-46750000D02*
G01*
X74500000Y-46750000D01*
X74202071Y-46750000D01*
X74200000Y-46750000D01*
X73200000Y-46750000D01*
X73200000Y-45250000D01*
X74200000Y-45250000D01*
X75495077Y-45250000D01*
X75500000Y-45250000D01*
X75500000Y-46750000D01*
G37*
G36*
X82604047Y-45275805D02*
G01*
X82655408Y-45281764D01*
X82672954Y-45289511D01*
X82695671Y-45294030D01*
X82719991Y-45310280D01*
X82740793Y-45319465D01*
X82755000Y-45333672D01*
X82776777Y-45348223D01*
X82791327Y-45369999D01*
X82805534Y-45384206D01*
X82814718Y-45405006D01*
X82830970Y-45429329D01*
X82835489Y-45452048D01*
X82843235Y-45469591D01*
X82849192Y-45520940D01*
X82850000Y-45525000D01*
X82850000Y-46475000D01*
X82849192Y-46479059D01*
X82843235Y-46530408D01*
X82835489Y-46547950D01*
X82830970Y-46570671D01*
X82814716Y-46594995D01*
X82805534Y-46615793D01*
X82791329Y-46629997D01*
X82776777Y-46651777D01*
X82754997Y-46666329D01*
X82740793Y-46680534D01*
X82719995Y-46689716D01*
X82695671Y-46705970D01*
X82672950Y-46710489D01*
X82655408Y-46718235D01*
X82604061Y-46724192D01*
X82600000Y-46725000D01*
X82100000Y-46725000D01*
X82095941Y-46724192D01*
X82044591Y-46718235D01*
X82027048Y-46710489D01*
X82004329Y-46705970D01*
X81980006Y-46689718D01*
X81959206Y-46680534D01*
X81944999Y-46666327D01*
X81923223Y-46651777D01*
X81908672Y-46630000D01*
X81894465Y-46615793D01*
X81885280Y-46594991D01*
X81869030Y-46570671D01*
X81864511Y-46547954D01*
X81856764Y-46530408D01*
X81850805Y-46479049D01*
X81850000Y-46475000D01*
X81850000Y-45525000D01*
X81850804Y-45520953D01*
X81856764Y-45469591D01*
X81864511Y-45452043D01*
X81869030Y-45429329D01*
X81885278Y-45405010D01*
X81894465Y-45384206D01*
X81908674Y-45369996D01*
X81923223Y-45348223D01*
X81944996Y-45333674D01*
X81959206Y-45319465D01*
X81980010Y-45310278D01*
X82004329Y-45294030D01*
X82027043Y-45289511D01*
X82044591Y-45281764D01*
X82095952Y-45275805D01*
X82100000Y-45275000D01*
X82600000Y-45275000D01*
X82604047Y-45275805D01*
G37*
G36*
X84504047Y-45275805D02*
G01*
X84555408Y-45281764D01*
X84572954Y-45289511D01*
X84595671Y-45294030D01*
X84619991Y-45310280D01*
X84640793Y-45319465D01*
X84655000Y-45333672D01*
X84676777Y-45348223D01*
X84691327Y-45369999D01*
X84705534Y-45384206D01*
X84714718Y-45405006D01*
X84730970Y-45429329D01*
X84735489Y-45452048D01*
X84743235Y-45469591D01*
X84749192Y-45520940D01*
X84750000Y-45525000D01*
X84750000Y-46475000D01*
X84749192Y-46479059D01*
X84743235Y-46530408D01*
X84735489Y-46547950D01*
X84730970Y-46570671D01*
X84714716Y-46594995D01*
X84705534Y-46615793D01*
X84691329Y-46629997D01*
X84676777Y-46651777D01*
X84654997Y-46666329D01*
X84640793Y-46680534D01*
X84619995Y-46689716D01*
X84595671Y-46705970D01*
X84572950Y-46710489D01*
X84555408Y-46718235D01*
X84504061Y-46724192D01*
X84500000Y-46725000D01*
X84000000Y-46725000D01*
X83995941Y-46724192D01*
X83944591Y-46718235D01*
X83927048Y-46710489D01*
X83904329Y-46705970D01*
X83880006Y-46689718D01*
X83859206Y-46680534D01*
X83844999Y-46666327D01*
X83823223Y-46651777D01*
X83808672Y-46630000D01*
X83794465Y-46615793D01*
X83785280Y-46594991D01*
X83769030Y-46570671D01*
X83764511Y-46547954D01*
X83756764Y-46530408D01*
X83750805Y-46479049D01*
X83750000Y-46475000D01*
X83750000Y-45525000D01*
X83750804Y-45520953D01*
X83756764Y-45469591D01*
X83764511Y-45452043D01*
X83769030Y-45429329D01*
X83785278Y-45405010D01*
X83794465Y-45384206D01*
X83808674Y-45369996D01*
X83823223Y-45348223D01*
X83844996Y-45333674D01*
X83859206Y-45319465D01*
X83880010Y-45310278D01*
X83904329Y-45294030D01*
X83927043Y-45289511D01*
X83944591Y-45281764D01*
X83995952Y-45275805D01*
X84000000Y-45275000D01*
X84500000Y-45275000D01*
X84504047Y-45275805D01*
G37*
G36*
X122547677Y-46548631D02*
G01*
X119547677Y-46548631D01*
X119547677Y-45548631D01*
X122547677Y-45548631D01*
X122547677Y-46548631D01*
G37*
G36*
X127587677Y-46548631D02*
G01*
X124587677Y-46548631D01*
X124587677Y-45548631D01*
X127587677Y-45548631D01*
X127587677Y-46548631D01*
G37*
G36*
X150475664Y-46543966D02*
G01*
X147475664Y-46543966D01*
X147475664Y-45543966D01*
X150475664Y-45543966D01*
X150475664Y-46543966D01*
G37*
G36*
X155515664Y-46543966D02*
G01*
X152515664Y-46543966D01*
X152515664Y-45543966D01*
X155515664Y-45543966D01*
X155515664Y-46543966D01*
G37*
G36*
X99949047Y-43852805D02*
G01*
X100000408Y-43858764D01*
X100017954Y-43866511D01*
X100040671Y-43871030D01*
X100064991Y-43887280D01*
X100085793Y-43896465D01*
X100100000Y-43910672D01*
X100121777Y-43925223D01*
X100136327Y-43946999D01*
X100150534Y-43961206D01*
X100159718Y-43982006D01*
X100175970Y-44006329D01*
X100180489Y-44029048D01*
X100188235Y-44046591D01*
X100194192Y-44097940D01*
X100195000Y-44102000D01*
X100195000Y-45052000D01*
X100194192Y-45056059D01*
X100188235Y-45107408D01*
X100180489Y-45124950D01*
X100175970Y-45147671D01*
X100159716Y-45171995D01*
X100150534Y-45192793D01*
X100136329Y-45206997D01*
X100121777Y-45228777D01*
X100099997Y-45243329D01*
X100085793Y-45257534D01*
X100064995Y-45266716D01*
X100040671Y-45282970D01*
X100017950Y-45287489D01*
X100000408Y-45295235D01*
X99949061Y-45301192D01*
X99945000Y-45302000D01*
X99445000Y-45302000D01*
X99440941Y-45301192D01*
X99389591Y-45295235D01*
X99372048Y-45287489D01*
X99349329Y-45282970D01*
X99325006Y-45266718D01*
X99304206Y-45257534D01*
X99289999Y-45243327D01*
X99268223Y-45228777D01*
X99253672Y-45207000D01*
X99239465Y-45192793D01*
X99230280Y-45171991D01*
X99214030Y-45147671D01*
X99209511Y-45124954D01*
X99201764Y-45107408D01*
X99195805Y-45056049D01*
X99195000Y-45052000D01*
X99195000Y-44102000D01*
X99195804Y-44097953D01*
X99201764Y-44046591D01*
X99209511Y-44029043D01*
X99214030Y-44006329D01*
X99230278Y-43982010D01*
X99239465Y-43961206D01*
X99253674Y-43946996D01*
X99268223Y-43925223D01*
X99289996Y-43910674D01*
X99304206Y-43896465D01*
X99325010Y-43887278D01*
X99349329Y-43871030D01*
X99372043Y-43866511D01*
X99389591Y-43858764D01*
X99440952Y-43852805D01*
X99445000Y-43852000D01*
X99945000Y-43852000D01*
X99949047Y-43852805D01*
G37*
G36*
X101849047Y-43852805D02*
G01*
X101900408Y-43858764D01*
X101917954Y-43866511D01*
X101940671Y-43871030D01*
X101964991Y-43887280D01*
X101985793Y-43896465D01*
X102000000Y-43910672D01*
X102021777Y-43925223D01*
X102036327Y-43946999D01*
X102050534Y-43961206D01*
X102059718Y-43982006D01*
X102075970Y-44006329D01*
X102080489Y-44029048D01*
X102088235Y-44046591D01*
X102094192Y-44097940D01*
X102095000Y-44102000D01*
X102095000Y-45052000D01*
X102094192Y-45056059D01*
X102088235Y-45107408D01*
X102080489Y-45124950D01*
X102075970Y-45147671D01*
X102059716Y-45171995D01*
X102050534Y-45192793D01*
X102036329Y-45206997D01*
X102021777Y-45228777D01*
X101999997Y-45243329D01*
X101985793Y-45257534D01*
X101964995Y-45266716D01*
X101940671Y-45282970D01*
X101917950Y-45287489D01*
X101900408Y-45295235D01*
X101849061Y-45301192D01*
X101845000Y-45302000D01*
X101345000Y-45302000D01*
X101340941Y-45301192D01*
X101289591Y-45295235D01*
X101272048Y-45287489D01*
X101249329Y-45282970D01*
X101225006Y-45266718D01*
X101204206Y-45257534D01*
X101189999Y-45243327D01*
X101168223Y-45228777D01*
X101153672Y-45207000D01*
X101139465Y-45192793D01*
X101130280Y-45171991D01*
X101114030Y-45147671D01*
X101109511Y-45124954D01*
X101101764Y-45107408D01*
X101095805Y-45056049D01*
X101095000Y-45052000D01*
X101095000Y-44102000D01*
X101095804Y-44097953D01*
X101101764Y-44046591D01*
X101109511Y-44029043D01*
X101114030Y-44006329D01*
X101130278Y-43982010D01*
X101139465Y-43961206D01*
X101153674Y-43946996D01*
X101168223Y-43925223D01*
X101189996Y-43910674D01*
X101204206Y-43896465D01*
X101225010Y-43887278D01*
X101249329Y-43871030D01*
X101272043Y-43866511D01*
X101289591Y-43858764D01*
X101340952Y-43852805D01*
X101345000Y-43852000D01*
X101845000Y-43852000D01*
X101849047Y-43852805D01*
G37*
G36*
X122547677Y-44008631D02*
G01*
X119547677Y-44008631D01*
X119547677Y-43008631D01*
X122547677Y-43008631D01*
X122547677Y-44008631D01*
G37*
G36*
X127587677Y-44008631D02*
G01*
X124587677Y-44008631D01*
X124587677Y-43008631D01*
X127587677Y-43008631D01*
X127587677Y-44008631D01*
G37*
G36*
X150475664Y-44003966D02*
G01*
X147475664Y-44003966D01*
X147475664Y-43003966D01*
X150475664Y-43003966D01*
X150475664Y-44003966D01*
G37*
G36*
X155515664Y-44003966D02*
G01*
X152515664Y-44003966D01*
X152515664Y-43003966D01*
X155515664Y-43003966D01*
X155515664Y-44003966D01*
G37*
G36*
X99378047Y-41314805D02*
G01*
X99429408Y-41320764D01*
X99446954Y-41328511D01*
X99469671Y-41333030D01*
X99493991Y-41349280D01*
X99514793Y-41358465D01*
X99529000Y-41372672D01*
X99550777Y-41387223D01*
X99565327Y-41408999D01*
X99579534Y-41423206D01*
X99588718Y-41444006D01*
X99604970Y-41468329D01*
X99609489Y-41491048D01*
X99617235Y-41508591D01*
X99623192Y-41559940D01*
X99624000Y-41564000D01*
X99624000Y-42764000D01*
X99623192Y-42768059D01*
X99617235Y-42819408D01*
X99609489Y-42836950D01*
X99604970Y-42859671D01*
X99588716Y-42883995D01*
X99579534Y-42904793D01*
X99565329Y-42918997D01*
X99550777Y-42940777D01*
X99528997Y-42955329D01*
X99514793Y-42969534D01*
X99493995Y-42978716D01*
X99469671Y-42994970D01*
X99446950Y-42999489D01*
X99429408Y-43007235D01*
X99378061Y-43013192D01*
X99374000Y-43014000D01*
X94174000Y-43014000D01*
X94169941Y-43013192D01*
X94118591Y-43007235D01*
X94101048Y-42999489D01*
X94078329Y-42994970D01*
X94054006Y-42978718D01*
X94033206Y-42969534D01*
X94018999Y-42955327D01*
X93997223Y-42940777D01*
X93982672Y-42919000D01*
X93968465Y-42904793D01*
X93959280Y-42883991D01*
X93943030Y-42859671D01*
X93938511Y-42836954D01*
X93930764Y-42819408D01*
X93924805Y-42768049D01*
X93924000Y-42764000D01*
X93924000Y-41564000D01*
X93924804Y-41559953D01*
X93930764Y-41508591D01*
X93938511Y-41491043D01*
X93943030Y-41468329D01*
X93959278Y-41444010D01*
X93968465Y-41423206D01*
X93982674Y-41408996D01*
X93997223Y-41387223D01*
X94018996Y-41372674D01*
X94033206Y-41358465D01*
X94054010Y-41349278D01*
X94078329Y-41333030D01*
X94101043Y-41328511D01*
X94118591Y-41320764D01*
X94169952Y-41314805D01*
X94174000Y-41314000D01*
X99374000Y-41314000D01*
X99378047Y-41314805D01*
G37*
G36*
X122547677Y-41468631D02*
G01*
X119547677Y-41468631D01*
X119547677Y-40468631D01*
X122547677Y-40468631D01*
X122547677Y-41468631D01*
G37*
G36*
X127587677Y-41468631D02*
G01*
X124587677Y-41468631D01*
X124587677Y-40468631D01*
X127587677Y-40468631D01*
X127587677Y-41468631D01*
G37*
G36*
X150475664Y-41463966D02*
G01*
X147475664Y-41463966D01*
X147475664Y-40463966D01*
X150475664Y-40463966D01*
X150475664Y-41463966D01*
G37*
G36*
X155515664Y-41463966D02*
G01*
X152515664Y-41463966D01*
X152515664Y-40463966D01*
X155515664Y-40463966D01*
X155515664Y-41463966D01*
G37*
G36*
X122547677Y-38928631D02*
G01*
X119547677Y-38928631D01*
X119547677Y-37928631D01*
X122547677Y-37928631D01*
X122547677Y-38928631D01*
G37*
G36*
X127587677Y-38928631D02*
G01*
X124587677Y-38928631D01*
X124587677Y-37928631D01*
X127587677Y-37928631D01*
X127587677Y-38928631D01*
G37*
G36*
X150475664Y-38923966D02*
G01*
X147475664Y-38923966D01*
X147475664Y-37923966D01*
X150475664Y-37923966D01*
X150475664Y-38923966D01*
G37*
G36*
X155515664Y-38923966D02*
G01*
X152515664Y-38923966D01*
X152515664Y-37923966D01*
X155515664Y-37923966D01*
X155515664Y-38923966D01*
G37*
G36*
X72637798Y-37400805D02*
G01*
X72687727Y-37406598D01*
X72704783Y-37414129D01*
X72727029Y-37418554D01*
X72750842Y-37434465D01*
X72771011Y-37443371D01*
X72784787Y-37457147D01*
X72806107Y-37471393D01*
X72820352Y-37492712D01*
X72834128Y-37506488D01*
X72843032Y-37526655D01*
X72858946Y-37550471D01*
X72863371Y-37572718D01*
X72870901Y-37589772D01*
X72876692Y-37639690D01*
X72877500Y-37643750D01*
X72877500Y-38556250D01*
X72876692Y-38560310D01*
X72870901Y-38610227D01*
X72863371Y-38627279D01*
X72858946Y-38649529D01*
X72843031Y-38673346D01*
X72834128Y-38693511D01*
X72820354Y-38707284D01*
X72806107Y-38728607D01*
X72784784Y-38742854D01*
X72771011Y-38756628D01*
X72750846Y-38765531D01*
X72727029Y-38781446D01*
X72704779Y-38785871D01*
X72687727Y-38793401D01*
X72637811Y-38799192D01*
X72633750Y-38800000D01*
X72146250Y-38800000D01*
X72142191Y-38799192D01*
X72092272Y-38793401D01*
X72075218Y-38785871D01*
X72052971Y-38781446D01*
X72029155Y-38765532D01*
X72008988Y-38756628D01*
X71995212Y-38742852D01*
X71973893Y-38728607D01*
X71959647Y-38707287D01*
X71945871Y-38693511D01*
X71936965Y-38673342D01*
X71921054Y-38649529D01*
X71916629Y-38627283D01*
X71909098Y-38610227D01*
X71903305Y-38560299D01*
X71902500Y-38556250D01*
X71902500Y-37643750D01*
X71903304Y-37639703D01*
X71909098Y-37589772D01*
X71916629Y-37572714D01*
X71921054Y-37550471D01*
X71936964Y-37526659D01*
X71945871Y-37506488D01*
X71959649Y-37492709D01*
X71973893Y-37471393D01*
X71995209Y-37457149D01*
X72008988Y-37443371D01*
X72029159Y-37434464D01*
X72052971Y-37418554D01*
X72075214Y-37414129D01*
X72092272Y-37406598D01*
X72142202Y-37400805D01*
X72146250Y-37400000D01*
X72633750Y-37400000D01*
X72637798Y-37400805D01*
G37*
G36*
X74512798Y-37400805D02*
G01*
X74562727Y-37406598D01*
X74579783Y-37414129D01*
X74602029Y-37418554D01*
X74625842Y-37434465D01*
X74646011Y-37443371D01*
X74659787Y-37457147D01*
X74681107Y-37471393D01*
X74695352Y-37492712D01*
X74709128Y-37506488D01*
X74718032Y-37526655D01*
X74733946Y-37550471D01*
X74738371Y-37572718D01*
X74745901Y-37589772D01*
X74751692Y-37639690D01*
X74752500Y-37643750D01*
X74752500Y-38556250D01*
X74751692Y-38560310D01*
X74745901Y-38610227D01*
X74738371Y-38627279D01*
X74733946Y-38649529D01*
X74718031Y-38673346D01*
X74709128Y-38693511D01*
X74695354Y-38707284D01*
X74681107Y-38728607D01*
X74659784Y-38742854D01*
X74646011Y-38756628D01*
X74625846Y-38765531D01*
X74602029Y-38781446D01*
X74579779Y-38785871D01*
X74562727Y-38793401D01*
X74512811Y-38799192D01*
X74508750Y-38800000D01*
X74021250Y-38800000D01*
X74017191Y-38799192D01*
X73967272Y-38793401D01*
X73950218Y-38785871D01*
X73927971Y-38781446D01*
X73904155Y-38765532D01*
X73883988Y-38756628D01*
X73870212Y-38742852D01*
X73848893Y-38728607D01*
X73834647Y-38707287D01*
X73820871Y-38693511D01*
X73811965Y-38673342D01*
X73796054Y-38649529D01*
X73791629Y-38627283D01*
X73784098Y-38610227D01*
X73778305Y-38560299D01*
X73777500Y-38556250D01*
X73777500Y-37643750D01*
X73778304Y-37639703D01*
X73784098Y-37589772D01*
X73791629Y-37572714D01*
X73796054Y-37550471D01*
X73811964Y-37526659D01*
X73820871Y-37506488D01*
X73834649Y-37492709D01*
X73848893Y-37471393D01*
X73870209Y-37457149D01*
X73883988Y-37443371D01*
X73904159Y-37434464D01*
X73927971Y-37418554D01*
X73950214Y-37414129D01*
X73967272Y-37406598D01*
X74017202Y-37400805D01*
X74021250Y-37400000D01*
X74508750Y-37400000D01*
X74512798Y-37400805D01*
G37*
G36*
X80922798Y-37400805D02*
G01*
X80972727Y-37406598D01*
X80989783Y-37414129D01*
X81012029Y-37418554D01*
X81035842Y-37434465D01*
X81056011Y-37443371D01*
X81069787Y-37457147D01*
X81091107Y-37471393D01*
X81105352Y-37492712D01*
X81119128Y-37506488D01*
X81128032Y-37526655D01*
X81143946Y-37550471D01*
X81148371Y-37572718D01*
X81155901Y-37589772D01*
X81161692Y-37639690D01*
X81162500Y-37643750D01*
X81162500Y-38556250D01*
X81161692Y-38560310D01*
X81155901Y-38610227D01*
X81148371Y-38627279D01*
X81143946Y-38649529D01*
X81128031Y-38673346D01*
X81119128Y-38693511D01*
X81105354Y-38707284D01*
X81091107Y-38728607D01*
X81069784Y-38742854D01*
X81056011Y-38756628D01*
X81035846Y-38765531D01*
X81012029Y-38781446D01*
X80989779Y-38785871D01*
X80972727Y-38793401D01*
X80922811Y-38799192D01*
X80918750Y-38800000D01*
X80431250Y-38800000D01*
X80427191Y-38799192D01*
X80377272Y-38793401D01*
X80360218Y-38785871D01*
X80337971Y-38781446D01*
X80314155Y-38765532D01*
X80293988Y-38756628D01*
X80280212Y-38742852D01*
X80258893Y-38728607D01*
X80244647Y-38707287D01*
X80230871Y-38693511D01*
X80221965Y-38673342D01*
X80206054Y-38649529D01*
X80201629Y-38627283D01*
X80194098Y-38610227D01*
X80188305Y-38560299D01*
X80187500Y-38556250D01*
X80187500Y-37643750D01*
X80188304Y-37639703D01*
X80194098Y-37589772D01*
X80201629Y-37572714D01*
X80206054Y-37550471D01*
X80221964Y-37526659D01*
X80230871Y-37506488D01*
X80244649Y-37492709D01*
X80258893Y-37471393D01*
X80280209Y-37457149D01*
X80293988Y-37443371D01*
X80314159Y-37434464D01*
X80337971Y-37418554D01*
X80360214Y-37414129D01*
X80377272Y-37406598D01*
X80427202Y-37400805D01*
X80431250Y-37400000D01*
X80918750Y-37400000D01*
X80922798Y-37400805D01*
G37*
G36*
X82797798Y-37400805D02*
G01*
X82847727Y-37406598D01*
X82864783Y-37414129D01*
X82887029Y-37418554D01*
X82910842Y-37434465D01*
X82931011Y-37443371D01*
X82944787Y-37457147D01*
X82966107Y-37471393D01*
X82980352Y-37492712D01*
X82994128Y-37506488D01*
X83003032Y-37526655D01*
X83018946Y-37550471D01*
X83023371Y-37572718D01*
X83030901Y-37589772D01*
X83036692Y-37639690D01*
X83037500Y-37643750D01*
X83037500Y-38556250D01*
X83036692Y-38560310D01*
X83030901Y-38610227D01*
X83023371Y-38627279D01*
X83018946Y-38649529D01*
X83003031Y-38673346D01*
X82994128Y-38693511D01*
X82980354Y-38707284D01*
X82966107Y-38728607D01*
X82944784Y-38742854D01*
X82931011Y-38756628D01*
X82910846Y-38765531D01*
X82887029Y-38781446D01*
X82864779Y-38785871D01*
X82847727Y-38793401D01*
X82797811Y-38799192D01*
X82793750Y-38800000D01*
X82306250Y-38800000D01*
X82302191Y-38799192D01*
X82252272Y-38793401D01*
X82235218Y-38785871D01*
X82212971Y-38781446D01*
X82189155Y-38765532D01*
X82168988Y-38756628D01*
X82155212Y-38742852D01*
X82133893Y-38728607D01*
X82119647Y-38707287D01*
X82105871Y-38693511D01*
X82096965Y-38673342D01*
X82081054Y-38649529D01*
X82076629Y-38627283D01*
X82069098Y-38610227D01*
X82063305Y-38560299D01*
X82062500Y-38556250D01*
X82062500Y-37643750D01*
X82063304Y-37639703D01*
X82069098Y-37589772D01*
X82076629Y-37572714D01*
X82081054Y-37550471D01*
X82096964Y-37526659D01*
X82105871Y-37506488D01*
X82119649Y-37492709D01*
X82133893Y-37471393D01*
X82155209Y-37457149D01*
X82168988Y-37443371D01*
X82189159Y-37434464D01*
X82212971Y-37418554D01*
X82235214Y-37414129D01*
X82252272Y-37406598D01*
X82302202Y-37400805D01*
X82306250Y-37400000D01*
X82793750Y-37400000D01*
X82797798Y-37400805D01*
G37*
G36*
X99378047Y-36814805D02*
G01*
X99429408Y-36820764D01*
X99446954Y-36828511D01*
X99469671Y-36833030D01*
X99493991Y-36849280D01*
X99514793Y-36858465D01*
X99529000Y-36872672D01*
X99550777Y-36887223D01*
X99565327Y-36908999D01*
X99579534Y-36923206D01*
X99588718Y-36944006D01*
X99604970Y-36968329D01*
X99609489Y-36991048D01*
X99617235Y-37008591D01*
X99623192Y-37059940D01*
X99624000Y-37064000D01*
X99624000Y-38264000D01*
X99623192Y-38268059D01*
X99617235Y-38319408D01*
X99609489Y-38336950D01*
X99604970Y-38359671D01*
X99588716Y-38383995D01*
X99579534Y-38404793D01*
X99565329Y-38418997D01*
X99550777Y-38440777D01*
X99528997Y-38455329D01*
X99514793Y-38469534D01*
X99493995Y-38478716D01*
X99469671Y-38494970D01*
X99446950Y-38499489D01*
X99429408Y-38507235D01*
X99378061Y-38513192D01*
X99374000Y-38514000D01*
X94174000Y-38514000D01*
X94169941Y-38513192D01*
X94118591Y-38507235D01*
X94101048Y-38499489D01*
X94078329Y-38494970D01*
X94054006Y-38478718D01*
X94033206Y-38469534D01*
X94018999Y-38455327D01*
X93997223Y-38440777D01*
X93982672Y-38419000D01*
X93968465Y-38404793D01*
X93959280Y-38383991D01*
X93943030Y-38359671D01*
X93938511Y-38336954D01*
X93930764Y-38319408D01*
X93924805Y-38268049D01*
X93924000Y-38264000D01*
X93924000Y-37064000D01*
X93924804Y-37059953D01*
X93930764Y-37008591D01*
X93938511Y-36991043D01*
X93943030Y-36968329D01*
X93959278Y-36944010D01*
X93968465Y-36923206D01*
X93982674Y-36908996D01*
X93997223Y-36887223D01*
X94018996Y-36872674D01*
X94033206Y-36858465D01*
X94054010Y-36849278D01*
X94078329Y-36833030D01*
X94101043Y-36828511D01*
X94118591Y-36820764D01*
X94169952Y-36814805D01*
X94174000Y-36814000D01*
X99374000Y-36814000D01*
X99378047Y-36814805D01*
G37*
G36*
X122547677Y-36388631D02*
G01*
X119547677Y-36388631D01*
X119547677Y-35388631D01*
X122547677Y-35388631D01*
X122547677Y-36388631D01*
G37*
G36*
X127587677Y-36388631D02*
G01*
X124587677Y-36388631D01*
X124587677Y-35388631D01*
X127587677Y-35388631D01*
X127587677Y-36388631D01*
G37*
G36*
X150475664Y-36383966D02*
G01*
X147475664Y-36383966D01*
X147475664Y-35383966D01*
X150475664Y-35383966D01*
X150475664Y-36383966D01*
G37*
G36*
X155515664Y-36383966D02*
G01*
X152515664Y-36383966D01*
X152515664Y-35383966D01*
X155515664Y-35383966D01*
X155515664Y-36383966D01*
G37*
G36*
X67054046Y-33770805D02*
G01*
X67105407Y-33776764D01*
X67122953Y-33784511D01*
X67145670Y-33789030D01*
X67169987Y-33805278D01*
X67190793Y-33814465D01*
X67205004Y-33828676D01*
X67226776Y-33843224D01*
X67241323Y-33864995D01*
X67255534Y-33879206D01*
X67264719Y-33900010D01*
X67280970Y-33924330D01*
X67285488Y-33947047D01*
X67293235Y-33964592D01*
X67299196Y-34015966D01*
X67299999Y-34020002D01*
X67299999Y-34022883D01*
X67300000Y-34022892D01*
X67300000Y-34593490D01*
X67300000Y-35019999D01*
X67299194Y-35024048D01*
X67293235Y-35075407D01*
X67285489Y-35092949D01*
X67280970Y-35115670D01*
X67264718Y-35139991D01*
X67255534Y-35160793D01*
X67241325Y-35175001D01*
X67226776Y-35196776D01*
X67205001Y-35211325D01*
X67190793Y-35225534D01*
X67169991Y-35234718D01*
X67145670Y-35250970D01*
X67122950Y-35255488D01*
X67105407Y-35263235D01*
X67054034Y-35269196D01*
X67049998Y-35269999D01*
X67047115Y-35269999D01*
X67047107Y-35270000D01*
X66052893Y-35270000D01*
X66052892Y-35269999D01*
X66050001Y-35270000D01*
X66045951Y-35269194D01*
X65994592Y-35263235D01*
X65977048Y-35255488D01*
X65954330Y-35250970D01*
X65930010Y-35234719D01*
X65909206Y-35225534D01*
X65894995Y-35211323D01*
X65873224Y-35196776D01*
X65858676Y-35175004D01*
X65844465Y-35160793D01*
X65835278Y-35139987D01*
X65819030Y-35115670D01*
X65814511Y-35092954D01*
X65806764Y-35075407D01*
X65800803Y-35024033D01*
X65800001Y-35019998D01*
X65800000Y-35017115D01*
X65800000Y-35017107D01*
X65800000Y-34022892D01*
X65800000Y-34022891D01*
X65800000Y-34020001D01*
X65800804Y-34015954D01*
X65806764Y-33964592D01*
X65814511Y-33947044D01*
X65819030Y-33924330D01*
X65835277Y-33900014D01*
X65844465Y-33879206D01*
X65858678Y-33864992D01*
X65873224Y-33843224D01*
X65894992Y-33828678D01*
X65909206Y-33814465D01*
X65930014Y-33805277D01*
X65954330Y-33789030D01*
X65977043Y-33784512D01*
X65994592Y-33776764D01*
X66045967Y-33770803D01*
X66050002Y-33770001D01*
X66052884Y-33770000D01*
X66052893Y-33770000D01*
X67047107Y-33770000D01*
X67049999Y-33770000D01*
X67054046Y-33770805D01*
G37*
G36*
X69767714Y-33802295D02*
G01*
X69903548Y-33858559D01*
X70025795Y-33940242D01*
X70129758Y-34044205D01*
X70211441Y-34166452D01*
X70267705Y-34302286D01*
X70296389Y-34446487D01*
X70296389Y-34593513D01*
X70267705Y-34737714D01*
X70211441Y-34873548D01*
X70129758Y-34995795D01*
X70025795Y-35099758D01*
X69903548Y-35181441D01*
X69767714Y-35237705D01*
X69623513Y-35266389D01*
X69476487Y-35266389D01*
X69332286Y-35237705D01*
X69196452Y-35181441D01*
X69074205Y-35099758D01*
X68970242Y-34995795D01*
X68888559Y-34873548D01*
X68832295Y-34737714D01*
X68803611Y-34593513D01*
X68803611Y-34446487D01*
X68832295Y-34302286D01*
X68888559Y-34166452D01*
X68970242Y-34044205D01*
X69074205Y-33940242D01*
X69196452Y-33858559D01*
X69332286Y-33802295D01*
X69476487Y-33773611D01*
X69623513Y-33773611D01*
X69767714Y-33802295D01*
G37*
G36*
X62580168Y-31561445D02*
G01*
X62804025Y-31634181D01*
X63013748Y-31741040D01*
X63204172Y-31879391D01*
X63370609Y-32045828D01*
X63508960Y-32236252D01*
X63615819Y-32445975D01*
X63688555Y-32669832D01*
X63725376Y-32902311D01*
X63725376Y-33137689D01*
X63688555Y-33370168D01*
X63615819Y-33594025D01*
X63508960Y-33803748D01*
X63370609Y-33994172D01*
X63204172Y-34160609D01*
X63013748Y-34298960D01*
X62804025Y-34405819D01*
X62580168Y-34478555D01*
X62347689Y-34515376D01*
X62112311Y-34515376D01*
X61879832Y-34478555D01*
X61655975Y-34405819D01*
X61446252Y-34298960D01*
X61255828Y-34160609D01*
X61089391Y-33994172D01*
X60951040Y-33803748D01*
X60844181Y-33594025D01*
X60771445Y-33370168D01*
X60734624Y-33137689D01*
X60734624Y-32902311D01*
X60771445Y-32669832D01*
X60844181Y-32445975D01*
X60951040Y-32236252D01*
X61089391Y-32045828D01*
X61255828Y-31879391D01*
X61446252Y-31741040D01*
X61655975Y-31634181D01*
X61879832Y-31561445D01*
X62112311Y-31524624D01*
X62347689Y-31524624D01*
X62580168Y-31561445D01*
G37*
G36*
X122547677Y-33848631D02*
G01*
X119547677Y-33848631D01*
X119547677Y-32848631D01*
X122547677Y-32848631D01*
X122547677Y-33848631D01*
G37*
G36*
X127587677Y-33848631D02*
G01*
X124587677Y-33848631D01*
X124587677Y-32848631D01*
X127587677Y-32848631D01*
X127587677Y-33848631D01*
G37*
G36*
X150475664Y-33843966D02*
G01*
X147475664Y-33843966D01*
X147475664Y-32843966D01*
X150475664Y-32843966D01*
X150475664Y-33843966D01*
G37*
G36*
X155515664Y-33843966D02*
G01*
X152515664Y-33843966D01*
X152515664Y-32843966D01*
X155515664Y-32843966D01*
X155515664Y-33843966D01*
G37*
G36*
X74781017Y-29838979D02*
G01*
X74832378Y-29844938D01*
X74849924Y-29852685D01*
X74872641Y-29857204D01*
X74896961Y-29873454D01*
X74917763Y-29882639D01*
X74931970Y-29896846D01*
X74953747Y-29911397D01*
X74968297Y-29933173D01*
X74982504Y-29947380D01*
X74991688Y-29968180D01*
X75007940Y-29992503D01*
X75012459Y-30015222D01*
X75020205Y-30032765D01*
X75026162Y-30084114D01*
X75026970Y-30088174D01*
X75026970Y-32088174D01*
X75026162Y-32092233D01*
X75020205Y-32143582D01*
X75012459Y-32161124D01*
X75007940Y-32183845D01*
X74991686Y-32208169D01*
X74982504Y-32228967D01*
X74968299Y-32243171D01*
X74953747Y-32264951D01*
X74931967Y-32279503D01*
X74917763Y-32293708D01*
X74896965Y-32302890D01*
X74872641Y-32319144D01*
X74849920Y-32323663D01*
X74832378Y-32331409D01*
X74781031Y-32337366D01*
X74776970Y-32338174D01*
X73476970Y-32338174D01*
X73472911Y-32337366D01*
X73421561Y-32331409D01*
X73404018Y-32323663D01*
X73381299Y-32319144D01*
X73356976Y-32302892D01*
X73336176Y-32293708D01*
X73321969Y-32279501D01*
X73300193Y-32264951D01*
X73285642Y-32243174D01*
X73271435Y-32228967D01*
X73262250Y-32208165D01*
X73246000Y-32183845D01*
X73241481Y-32161128D01*
X73233734Y-32143582D01*
X73227775Y-32092223D01*
X73226970Y-32088174D01*
X73226970Y-30088174D01*
X73227774Y-30084127D01*
X73233734Y-30032765D01*
X73241481Y-30015217D01*
X73246000Y-29992503D01*
X73262248Y-29968184D01*
X73271435Y-29947380D01*
X73285644Y-29933170D01*
X73300193Y-29911397D01*
X73321966Y-29896848D01*
X73336176Y-29882639D01*
X73356980Y-29873452D01*
X73381299Y-29857204D01*
X73404013Y-29852685D01*
X73421561Y-29844938D01*
X73472922Y-29838979D01*
X73476970Y-29838174D01*
X74776970Y-29838174D01*
X74781017Y-29838979D01*
G37*
G36*
X66767714Y-30802295D02*
G01*
X66903548Y-30858559D01*
X67025795Y-30940242D01*
X67129758Y-31044205D01*
X67211441Y-31166452D01*
X67267705Y-31302286D01*
X67296389Y-31446487D01*
X67296389Y-31593513D01*
X67267705Y-31737714D01*
X67211441Y-31873548D01*
X67129758Y-31995795D01*
X67025795Y-32099758D01*
X66903548Y-32181441D01*
X66767714Y-32237705D01*
X66623513Y-32266389D01*
X66476487Y-32266389D01*
X66332286Y-32237705D01*
X66196452Y-32181441D01*
X66074205Y-32099758D01*
X65970242Y-31995795D01*
X65888559Y-31873548D01*
X65832295Y-31737714D01*
X65803611Y-31593513D01*
X65803611Y-31446487D01*
X65832295Y-31302286D01*
X65888559Y-31166452D01*
X65970242Y-31044205D01*
X66074205Y-30940242D01*
X66196452Y-30858559D01*
X66332286Y-30802295D01*
X66476487Y-30773611D01*
X66623513Y-30773611D01*
X66767714Y-30802295D01*
G37*
G36*
X69767714Y-30802295D02*
G01*
X69903548Y-30858559D01*
X70025795Y-30940242D01*
X70129758Y-31044205D01*
X70211441Y-31166452D01*
X70267705Y-31302286D01*
X70296389Y-31446487D01*
X70296389Y-31593513D01*
X70267705Y-31737714D01*
X70211441Y-31873548D01*
X70129758Y-31995795D01*
X70025795Y-32099758D01*
X69903548Y-32181441D01*
X69767714Y-32237705D01*
X69623513Y-32266389D01*
X69476487Y-32266389D01*
X69332286Y-32237705D01*
X69196452Y-32181441D01*
X69074205Y-32099758D01*
X68970242Y-31995795D01*
X68888559Y-31873548D01*
X68832295Y-31737714D01*
X68803611Y-31593513D01*
X68803611Y-31446487D01*
X68832295Y-31302286D01*
X68888559Y-31166452D01*
X68970242Y-31044205D01*
X69074205Y-30940242D01*
X69196452Y-30858559D01*
X69332286Y-30802295D01*
X69476487Y-30773611D01*
X69623513Y-30773611D01*
X69767714Y-30802295D01*
G37*
G36*
X82184047Y-29720805D02*
G01*
X82235408Y-29726764D01*
X82252954Y-29734511D01*
X82275671Y-29739030D01*
X82299991Y-29755280D01*
X82320793Y-29764465D01*
X82335000Y-29778672D01*
X82356777Y-29793223D01*
X82371327Y-29814999D01*
X82385534Y-29829206D01*
X82394718Y-29850006D01*
X82410970Y-29874329D01*
X82415489Y-29897048D01*
X82423235Y-29914591D01*
X82429192Y-29965940D01*
X82430000Y-29970000D01*
X82430000Y-31970000D01*
X82429192Y-31974059D01*
X82423235Y-32025408D01*
X82415489Y-32042950D01*
X82410970Y-32065671D01*
X82394716Y-32089995D01*
X82385534Y-32110793D01*
X82371329Y-32124997D01*
X82356777Y-32146777D01*
X82334997Y-32161329D01*
X82320793Y-32175534D01*
X82299995Y-32184716D01*
X82275671Y-32200970D01*
X82252950Y-32205489D01*
X82235408Y-32213235D01*
X82184061Y-32219192D01*
X82180000Y-32220000D01*
X80380000Y-32220000D01*
X80375941Y-32219192D01*
X80324591Y-32213235D01*
X80307048Y-32205489D01*
X80284329Y-32200970D01*
X80260006Y-32184718D01*
X80239206Y-32175534D01*
X80224999Y-32161327D01*
X80203223Y-32146777D01*
X80188672Y-32125000D01*
X80174465Y-32110793D01*
X80165280Y-32089991D01*
X80149030Y-32065671D01*
X80144511Y-32042954D01*
X80136764Y-32025408D01*
X80130805Y-31974049D01*
X80130000Y-31970000D01*
X80130000Y-29970000D01*
X80130804Y-29965953D01*
X80136764Y-29914591D01*
X80144511Y-29897043D01*
X80149030Y-29874329D01*
X80165278Y-29850010D01*
X80174465Y-29829206D01*
X80188674Y-29814996D01*
X80203223Y-29793223D01*
X80224996Y-29778674D01*
X80239206Y-29764465D01*
X80260010Y-29755278D01*
X80284329Y-29739030D01*
X80307043Y-29734511D01*
X80324591Y-29726764D01*
X80375952Y-29720805D01*
X80380000Y-29720000D01*
X82180000Y-29720000D01*
X82184047Y-29720805D01*
G37*
G36*
X122547677Y-31308631D02*
G01*
X119547677Y-31308631D01*
X119547677Y-30308631D01*
X122547677Y-30308631D01*
X122547677Y-31308631D01*
G37*
G36*
X127587677Y-31308631D02*
G01*
X124587677Y-31308631D01*
X124587677Y-30308631D01*
X127587677Y-30308631D01*
X127587677Y-31308631D01*
G37*
G36*
X150475664Y-31303966D02*
G01*
X147475664Y-31303966D01*
X147475664Y-30303966D01*
X150475664Y-30303966D01*
X150475664Y-31303966D01*
G37*
G36*
X155515664Y-31303966D02*
G01*
X152515664Y-31303966D01*
X152515664Y-30303966D01*
X155515664Y-30303966D01*
X155515664Y-31303966D01*
G37*
G36*
X87449047Y-29333305D02*
G01*
X87500408Y-29339264D01*
X87517954Y-29347011D01*
X87540671Y-29351530D01*
X87564991Y-29367780D01*
X87585793Y-29376965D01*
X87600000Y-29391172D01*
X87621777Y-29405723D01*
X87636327Y-29427499D01*
X87650534Y-29441706D01*
X87659718Y-29462506D01*
X87675970Y-29486829D01*
X87680489Y-29509548D01*
X87688235Y-29527091D01*
X87694192Y-29578440D01*
X87695000Y-29582500D01*
X87695000Y-30107500D01*
X87694192Y-30111559D01*
X87688235Y-30162908D01*
X87680489Y-30180450D01*
X87675970Y-30203171D01*
X87659716Y-30227495D01*
X87650534Y-30248293D01*
X87636329Y-30262497D01*
X87621777Y-30284277D01*
X87599997Y-30298829D01*
X87585793Y-30313034D01*
X87564995Y-30322216D01*
X87540671Y-30338470D01*
X87517950Y-30342989D01*
X87500408Y-30350735D01*
X87449061Y-30356692D01*
X87445000Y-30357500D01*
X86545000Y-30357500D01*
X86540941Y-30356692D01*
X86489591Y-30350735D01*
X86472048Y-30342989D01*
X86449329Y-30338470D01*
X86425006Y-30322218D01*
X86404206Y-30313034D01*
X86389999Y-30298827D01*
X86368223Y-30284277D01*
X86353672Y-30262500D01*
X86339465Y-30248293D01*
X86330280Y-30227491D01*
X86314030Y-30203171D01*
X86309511Y-30180454D01*
X86301764Y-30162908D01*
X86295805Y-30111549D01*
X86295000Y-30107500D01*
X86295000Y-29582500D01*
X86295804Y-29578453D01*
X86301764Y-29527091D01*
X86309511Y-29509543D01*
X86314030Y-29486829D01*
X86330278Y-29462510D01*
X86339465Y-29441706D01*
X86353674Y-29427496D01*
X86368223Y-29405723D01*
X86389996Y-29391174D01*
X86404206Y-29376965D01*
X86425010Y-29367778D01*
X86449329Y-29351530D01*
X86472043Y-29347011D01*
X86489591Y-29339264D01*
X86540952Y-29333305D01*
X86545000Y-29332500D01*
X87445000Y-29332500D01*
X87449047Y-29333305D01*
G37*
G36*
X91259047Y-29253305D02*
G01*
X91310408Y-29259264D01*
X91327954Y-29267011D01*
X91350671Y-29271530D01*
X91374991Y-29287780D01*
X91395793Y-29296965D01*
X91410000Y-29311172D01*
X91431777Y-29325723D01*
X91446327Y-29347499D01*
X91460534Y-29361706D01*
X91469718Y-29382506D01*
X91485970Y-29406829D01*
X91490489Y-29429548D01*
X91498235Y-29447091D01*
X91504192Y-29498440D01*
X91505000Y-29502500D01*
X91505000Y-30027500D01*
X91504192Y-30031559D01*
X91498235Y-30082908D01*
X91490489Y-30100450D01*
X91485970Y-30123171D01*
X91469716Y-30147495D01*
X91460534Y-30168293D01*
X91446329Y-30182497D01*
X91431777Y-30204277D01*
X91409997Y-30218829D01*
X91395793Y-30233034D01*
X91374995Y-30242216D01*
X91350671Y-30258470D01*
X91327950Y-30262989D01*
X91310408Y-30270735D01*
X91259061Y-30276692D01*
X91255000Y-30277500D01*
X90355000Y-30277500D01*
X90350941Y-30276692D01*
X90299591Y-30270735D01*
X90282048Y-30262989D01*
X90259329Y-30258470D01*
X90235006Y-30242218D01*
X90214206Y-30233034D01*
X90199999Y-30218827D01*
X90178223Y-30204277D01*
X90163672Y-30182500D01*
X90149465Y-30168293D01*
X90140280Y-30147491D01*
X90124030Y-30123171D01*
X90119511Y-30100454D01*
X90111764Y-30082908D01*
X90105805Y-30031549D01*
X90105000Y-30027500D01*
X90105000Y-29502500D01*
X90105804Y-29498453D01*
X90111764Y-29447091D01*
X90119511Y-29429543D01*
X90124030Y-29406829D01*
X90140278Y-29382510D01*
X90149465Y-29361706D01*
X90163674Y-29347496D01*
X90178223Y-29325723D01*
X90199996Y-29311174D01*
X90214206Y-29296965D01*
X90235010Y-29287778D01*
X90259329Y-29271530D01*
X90282043Y-29267011D01*
X90299591Y-29259264D01*
X90350952Y-29253305D01*
X90355000Y-29252500D01*
X91255000Y-29252500D01*
X91259047Y-29253305D01*
G37*
G36*
X122547677Y-28768631D02*
G01*
X119547677Y-28768631D01*
X119547677Y-27768631D01*
X122547677Y-27768631D01*
X122547677Y-28768631D01*
G37*
G36*
X127587677Y-28768631D02*
G01*
X124587677Y-28768631D01*
X124587677Y-27768631D01*
X127587677Y-27768631D01*
X127587677Y-28768631D01*
G37*
G36*
X150475664Y-28763966D02*
G01*
X147475664Y-28763966D01*
X147475664Y-27763966D01*
X150475664Y-27763966D01*
X150475664Y-28763966D01*
G37*
G36*
X155515664Y-28763966D02*
G01*
X152515664Y-28763966D01*
X152515664Y-27763966D01*
X155515664Y-27763966D01*
X155515664Y-28763966D01*
G37*
G36*
X87449047Y-27508305D02*
G01*
X87500408Y-27514264D01*
X87517954Y-27522011D01*
X87540671Y-27526530D01*
X87564991Y-27542780D01*
X87585793Y-27551965D01*
X87600000Y-27566172D01*
X87621777Y-27580723D01*
X87636327Y-27602499D01*
X87650534Y-27616706D01*
X87659718Y-27637506D01*
X87675970Y-27661829D01*
X87680489Y-27684548D01*
X87688235Y-27702091D01*
X87694192Y-27753440D01*
X87695000Y-27757500D01*
X87695000Y-28282500D01*
X87694192Y-28286559D01*
X87688235Y-28337908D01*
X87680489Y-28355450D01*
X87675970Y-28378171D01*
X87659716Y-28402495D01*
X87650534Y-28423293D01*
X87636329Y-28437497D01*
X87621777Y-28459277D01*
X87599997Y-28473829D01*
X87585793Y-28488034D01*
X87564995Y-28497216D01*
X87540671Y-28513470D01*
X87517950Y-28517989D01*
X87500408Y-28525735D01*
X87449061Y-28531692D01*
X87445000Y-28532500D01*
X86545000Y-28532500D01*
X86540941Y-28531692D01*
X86489591Y-28525735D01*
X86472048Y-28517989D01*
X86449329Y-28513470D01*
X86425006Y-28497218D01*
X86404206Y-28488034D01*
X86389999Y-28473827D01*
X86368223Y-28459277D01*
X86353672Y-28437500D01*
X86339465Y-28423293D01*
X86330280Y-28402491D01*
X86314030Y-28378171D01*
X86309511Y-28355454D01*
X86301764Y-28337908D01*
X86295805Y-28286549D01*
X86295000Y-28282500D01*
X86295000Y-27757500D01*
X86295804Y-27753453D01*
X86301764Y-27702091D01*
X86309511Y-27684543D01*
X86314030Y-27661829D01*
X86330278Y-27637510D01*
X86339465Y-27616706D01*
X86353674Y-27602496D01*
X86368223Y-27580723D01*
X86389996Y-27566174D01*
X86404206Y-27551965D01*
X86425010Y-27542778D01*
X86449329Y-27526530D01*
X86472043Y-27522011D01*
X86489591Y-27514264D01*
X86540952Y-27508305D01*
X86545000Y-27507500D01*
X87445000Y-27507500D01*
X87449047Y-27508305D01*
G37*
G36*
X91259047Y-27428305D02*
G01*
X91310408Y-27434264D01*
X91327954Y-27442011D01*
X91350671Y-27446530D01*
X91374991Y-27462780D01*
X91395793Y-27471965D01*
X91410000Y-27486172D01*
X91431777Y-27500723D01*
X91446327Y-27522499D01*
X91460534Y-27536706D01*
X91469718Y-27557506D01*
X91485970Y-27581829D01*
X91490489Y-27604548D01*
X91498235Y-27622091D01*
X91504192Y-27673440D01*
X91505000Y-27677500D01*
X91505000Y-28202500D01*
X91504192Y-28206559D01*
X91498235Y-28257908D01*
X91490489Y-28275450D01*
X91485970Y-28298171D01*
X91469716Y-28322495D01*
X91460534Y-28343293D01*
X91446329Y-28357497D01*
X91431777Y-28379277D01*
X91409997Y-28393829D01*
X91395793Y-28408034D01*
X91374995Y-28417216D01*
X91350671Y-28433470D01*
X91327950Y-28437989D01*
X91310408Y-28445735D01*
X91259061Y-28451692D01*
X91255000Y-28452500D01*
X90355000Y-28452500D01*
X90350941Y-28451692D01*
X90299591Y-28445735D01*
X90282048Y-28437989D01*
X90259329Y-28433470D01*
X90235006Y-28417218D01*
X90214206Y-28408034D01*
X90199999Y-28393827D01*
X90178223Y-28379277D01*
X90163672Y-28357500D01*
X90149465Y-28343293D01*
X90140280Y-28322491D01*
X90124030Y-28298171D01*
X90119511Y-28275454D01*
X90111764Y-28257908D01*
X90105805Y-28206549D01*
X90105000Y-28202500D01*
X90105000Y-27677500D01*
X90105804Y-27673453D01*
X90111764Y-27622091D01*
X90119511Y-27604543D01*
X90124030Y-27581829D01*
X90140278Y-27557510D01*
X90149465Y-27536706D01*
X90163674Y-27522496D01*
X90178223Y-27500723D01*
X90199996Y-27486174D01*
X90214206Y-27471965D01*
X90235010Y-27462778D01*
X90259329Y-27446530D01*
X90282043Y-27442011D01*
X90299591Y-27434264D01*
X90350952Y-27428305D01*
X90355000Y-27427500D01*
X91255000Y-27427500D01*
X91259047Y-27428305D01*
G37*
G36*
X74781017Y-25838979D02*
G01*
X74832378Y-25844938D01*
X74849924Y-25852685D01*
X74872641Y-25857204D01*
X74896961Y-25873454D01*
X74917763Y-25882639D01*
X74931970Y-25896846D01*
X74953747Y-25911397D01*
X74968297Y-25933173D01*
X74982504Y-25947380D01*
X74991688Y-25968180D01*
X75007940Y-25992503D01*
X75012459Y-26015222D01*
X75020205Y-26032765D01*
X75026162Y-26084114D01*
X75026970Y-26088174D01*
X75026970Y-28088174D01*
X75026162Y-28092233D01*
X75020205Y-28143582D01*
X75012459Y-28161124D01*
X75007940Y-28183845D01*
X74991686Y-28208169D01*
X74982504Y-28228967D01*
X74968299Y-28243171D01*
X74953747Y-28264951D01*
X74931967Y-28279503D01*
X74917763Y-28293708D01*
X74896965Y-28302890D01*
X74872641Y-28319144D01*
X74849920Y-28323663D01*
X74832378Y-28331409D01*
X74781031Y-28337366D01*
X74776970Y-28338174D01*
X73476970Y-28338174D01*
X73472911Y-28337366D01*
X73421561Y-28331409D01*
X73404018Y-28323663D01*
X73381299Y-28319144D01*
X73356976Y-28302892D01*
X73336176Y-28293708D01*
X73321969Y-28279501D01*
X73300193Y-28264951D01*
X73285642Y-28243174D01*
X73271435Y-28228967D01*
X73262250Y-28208165D01*
X73246000Y-28183845D01*
X73241481Y-28161128D01*
X73233734Y-28143582D01*
X73227775Y-28092223D01*
X73226970Y-28088174D01*
X73226970Y-26088174D01*
X73227774Y-26084127D01*
X73233734Y-26032765D01*
X73241481Y-26015217D01*
X73246000Y-25992503D01*
X73262248Y-25968184D01*
X73271435Y-25947380D01*
X73285644Y-25933170D01*
X73300193Y-25911397D01*
X73321966Y-25896848D01*
X73336176Y-25882639D01*
X73356980Y-25873452D01*
X73381299Y-25857204D01*
X73404013Y-25852685D01*
X73421561Y-25844938D01*
X73472922Y-25838979D01*
X73476970Y-25838174D01*
X74776970Y-25838174D01*
X74781017Y-25838979D01*
G37*
G36*
X82184047Y-25420805D02*
G01*
X82235408Y-25426764D01*
X82252954Y-25434511D01*
X82275671Y-25439030D01*
X82299991Y-25455280D01*
X82320793Y-25464465D01*
X82335000Y-25478672D01*
X82356777Y-25493223D01*
X82371327Y-25514999D01*
X82385534Y-25529206D01*
X82394718Y-25550006D01*
X82410970Y-25574329D01*
X82415489Y-25597048D01*
X82423235Y-25614591D01*
X82429192Y-25665940D01*
X82430000Y-25670000D01*
X82430000Y-27670000D01*
X82429192Y-27674059D01*
X82423235Y-27725408D01*
X82415489Y-27742950D01*
X82410970Y-27765671D01*
X82394716Y-27789995D01*
X82385534Y-27810793D01*
X82371329Y-27824997D01*
X82356777Y-27846777D01*
X82334997Y-27861329D01*
X82320793Y-27875534D01*
X82299995Y-27884716D01*
X82275671Y-27900970D01*
X82252950Y-27905489D01*
X82235408Y-27913235D01*
X82184061Y-27919192D01*
X82180000Y-27920000D01*
X80380000Y-27920000D01*
X80375941Y-27919192D01*
X80324591Y-27913235D01*
X80307048Y-27905489D01*
X80284329Y-27900970D01*
X80260006Y-27884718D01*
X80239206Y-27875534D01*
X80224999Y-27861327D01*
X80203223Y-27846777D01*
X80188672Y-27825000D01*
X80174465Y-27810793D01*
X80165280Y-27789991D01*
X80149030Y-27765671D01*
X80144511Y-27742954D01*
X80136764Y-27725408D01*
X80130805Y-27674049D01*
X80130000Y-27670000D01*
X80130000Y-25670000D01*
X80130804Y-25665953D01*
X80136764Y-25614591D01*
X80144511Y-25597043D01*
X80149030Y-25574329D01*
X80165278Y-25550010D01*
X80174465Y-25529206D01*
X80188674Y-25514996D01*
X80203223Y-25493223D01*
X80224996Y-25478674D01*
X80239206Y-25464465D01*
X80260010Y-25455278D01*
X80284329Y-25439030D01*
X80307043Y-25434511D01*
X80324591Y-25426764D01*
X80375952Y-25420805D01*
X80380000Y-25420000D01*
X82180000Y-25420000D01*
X82184047Y-25420805D01*
G37*
G36*
X122547677Y-26228631D02*
G01*
X119547677Y-26228631D01*
X119547677Y-25228631D01*
X122547677Y-25228631D01*
X122547677Y-26228631D01*
G37*
G36*
X127587677Y-26228631D02*
G01*
X124587677Y-26228631D01*
X124587677Y-25228631D01*
X127587677Y-25228631D01*
X127587677Y-26228631D01*
G37*
G36*
X150475664Y-26223966D02*
G01*
X147475664Y-26223966D01*
X147475664Y-25223966D01*
X150475664Y-25223966D01*
X150475664Y-26223966D01*
G37*
G36*
X155515664Y-26223966D02*
G01*
X152515664Y-26223966D01*
X152515664Y-25223966D01*
X155515664Y-25223966D01*
X155515664Y-26223966D01*
G37*
G36*
X86439298Y-24659305D02*
G01*
X86489227Y-24665098D01*
X86506283Y-24672629D01*
X86528529Y-24677054D01*
X86552342Y-24692965D01*
X86572511Y-24701871D01*
X86586287Y-24715647D01*
X86607607Y-24729893D01*
X86621852Y-24751212D01*
X86635628Y-24764988D01*
X86644532Y-24785155D01*
X86660446Y-24808971D01*
X86664871Y-24831218D01*
X86672401Y-24848272D01*
X86678192Y-24898190D01*
X86679000Y-24902250D01*
X86679000Y-25389750D01*
X86678192Y-25393810D01*
X86672401Y-25443727D01*
X86664871Y-25460779D01*
X86660446Y-25483029D01*
X86644531Y-25506846D01*
X86635628Y-25527011D01*
X86621854Y-25540784D01*
X86607607Y-25562107D01*
X86586284Y-25576354D01*
X86572511Y-25590128D01*
X86552346Y-25599031D01*
X86528529Y-25614946D01*
X86506279Y-25619371D01*
X86489227Y-25626901D01*
X86439311Y-25632692D01*
X86435250Y-25633500D01*
X85522750Y-25633500D01*
X85518691Y-25632692D01*
X85468772Y-25626901D01*
X85451718Y-25619371D01*
X85429471Y-25614946D01*
X85405655Y-25599032D01*
X85385488Y-25590128D01*
X85371712Y-25576352D01*
X85350393Y-25562107D01*
X85336147Y-25540787D01*
X85322371Y-25527011D01*
X85313465Y-25506842D01*
X85297554Y-25483029D01*
X85293129Y-25460783D01*
X85285598Y-25443727D01*
X85279805Y-25393799D01*
X85279000Y-25389750D01*
X85279000Y-24902250D01*
X85279804Y-24898203D01*
X85285598Y-24848272D01*
X85293129Y-24831214D01*
X85297554Y-24808971D01*
X85313464Y-24785159D01*
X85322371Y-24764988D01*
X85336149Y-24751209D01*
X85350393Y-24729893D01*
X85371709Y-24715649D01*
X85385488Y-24701871D01*
X85405659Y-24692964D01*
X85429471Y-24677054D01*
X85451714Y-24672629D01*
X85468772Y-24665098D01*
X85518702Y-24659305D01*
X85522750Y-24658500D01*
X86435250Y-24658500D01*
X86439298Y-24659305D01*
G37*
G36*
X90884298Y-24659305D02*
G01*
X90934227Y-24665098D01*
X90951283Y-24672629D01*
X90973529Y-24677054D01*
X90997342Y-24692965D01*
X91017511Y-24701871D01*
X91031287Y-24715647D01*
X91052607Y-24729893D01*
X91066852Y-24751212D01*
X91080628Y-24764988D01*
X91089532Y-24785155D01*
X91105446Y-24808971D01*
X91109871Y-24831218D01*
X91117401Y-24848272D01*
X91123192Y-24898190D01*
X91124000Y-24902250D01*
X91124000Y-25389750D01*
X91123192Y-25393810D01*
X91117401Y-25443727D01*
X91109871Y-25460779D01*
X91105446Y-25483029D01*
X91089531Y-25506846D01*
X91080628Y-25527011D01*
X91066854Y-25540784D01*
X91052607Y-25562107D01*
X91031284Y-25576354D01*
X91017511Y-25590128D01*
X90997346Y-25599031D01*
X90973529Y-25614946D01*
X90951279Y-25619371D01*
X90934227Y-25626901D01*
X90884311Y-25632692D01*
X90880250Y-25633500D01*
X89967750Y-25633500D01*
X89963691Y-25632692D01*
X89913772Y-25626901D01*
X89896718Y-25619371D01*
X89874471Y-25614946D01*
X89850655Y-25599032D01*
X89830488Y-25590128D01*
X89816712Y-25576352D01*
X89795393Y-25562107D01*
X89781147Y-25540787D01*
X89767371Y-25527011D01*
X89758465Y-25506842D01*
X89742554Y-25483029D01*
X89738129Y-25460783D01*
X89730598Y-25443727D01*
X89724805Y-25393799D01*
X89724000Y-25389750D01*
X89724000Y-24902250D01*
X89724804Y-24898203D01*
X89730598Y-24848272D01*
X89738129Y-24831214D01*
X89742554Y-24808971D01*
X89758464Y-24785159D01*
X89767371Y-24764988D01*
X89781149Y-24751209D01*
X89795393Y-24729893D01*
X89816709Y-24715649D01*
X89830488Y-24701871D01*
X89850659Y-24692964D01*
X89874471Y-24677054D01*
X89896714Y-24672629D01*
X89913772Y-24665098D01*
X89963702Y-24659305D01*
X89967750Y-24658500D01*
X90880250Y-24658500D01*
X90884298Y-24659305D01*
G37*
G36*
X96853298Y-24659305D02*
G01*
X96903227Y-24665098D01*
X96920283Y-24672629D01*
X96942529Y-24677054D01*
X96966342Y-24692965D01*
X96986511Y-24701871D01*
X97000287Y-24715647D01*
X97021607Y-24729893D01*
X97035852Y-24751212D01*
X97049628Y-24764988D01*
X97058532Y-24785155D01*
X97074446Y-24808971D01*
X97078871Y-24831218D01*
X97086401Y-24848272D01*
X97092192Y-24898190D01*
X97093000Y-24902250D01*
X97093000Y-25389750D01*
X97092192Y-25393810D01*
X97086401Y-25443727D01*
X97078871Y-25460779D01*
X97074446Y-25483029D01*
X97058531Y-25506846D01*
X97049628Y-25527011D01*
X97035854Y-25540784D01*
X97021607Y-25562107D01*
X97000284Y-25576354D01*
X96986511Y-25590128D01*
X96966346Y-25599031D01*
X96942529Y-25614946D01*
X96920279Y-25619371D01*
X96903227Y-25626901D01*
X96853311Y-25632692D01*
X96849250Y-25633500D01*
X95936750Y-25633500D01*
X95932691Y-25632692D01*
X95882772Y-25626901D01*
X95865718Y-25619371D01*
X95843471Y-25614946D01*
X95819655Y-25599032D01*
X95799488Y-25590128D01*
X95785712Y-25576352D01*
X95764393Y-25562107D01*
X95750147Y-25540787D01*
X95736371Y-25527011D01*
X95727465Y-25506842D01*
X95711554Y-25483029D01*
X95707129Y-25460783D01*
X95699598Y-25443727D01*
X95693805Y-25393799D01*
X95693000Y-25389750D01*
X95693000Y-24902250D01*
X95693804Y-24898203D01*
X95699598Y-24848272D01*
X95707129Y-24831214D01*
X95711554Y-24808971D01*
X95727464Y-24785159D01*
X95736371Y-24764988D01*
X95750149Y-24751209D01*
X95764393Y-24729893D01*
X95785709Y-24715649D01*
X95799488Y-24701871D01*
X95819659Y-24692964D01*
X95843471Y-24677054D01*
X95865714Y-24672629D01*
X95882772Y-24665098D01*
X95932702Y-24659305D01*
X95936750Y-24658500D01*
X96849250Y-24658500D01*
X96853298Y-24659305D01*
G37*
G36*
X100403047Y-24507305D02*
G01*
X100454408Y-24513264D01*
X100471954Y-24521011D01*
X100494671Y-24525530D01*
X100518991Y-24541780D01*
X100539793Y-24550965D01*
X100554000Y-24565172D01*
X100575777Y-24579723D01*
X100590327Y-24601499D01*
X100604534Y-24615706D01*
X100613718Y-24636506D01*
X100629970Y-24660829D01*
X100634489Y-24683548D01*
X100642235Y-24701091D01*
X100648192Y-24752440D01*
X100649000Y-24756500D01*
X100649000Y-25281500D01*
X100648192Y-25285559D01*
X100642235Y-25336908D01*
X100634489Y-25354450D01*
X100629970Y-25377171D01*
X100613716Y-25401495D01*
X100604534Y-25422293D01*
X100590329Y-25436497D01*
X100575777Y-25458277D01*
X100553997Y-25472829D01*
X100539793Y-25487034D01*
X100518995Y-25496216D01*
X100494671Y-25512470D01*
X100471950Y-25516989D01*
X100454408Y-25524735D01*
X100403061Y-25530692D01*
X100399000Y-25531500D01*
X99499000Y-25531500D01*
X99494941Y-25530692D01*
X99443591Y-25524735D01*
X99426048Y-25516989D01*
X99403329Y-25512470D01*
X99379006Y-25496218D01*
X99358206Y-25487034D01*
X99343999Y-25472827D01*
X99322223Y-25458277D01*
X99307672Y-25436500D01*
X99293465Y-25422293D01*
X99284280Y-25401491D01*
X99268030Y-25377171D01*
X99263511Y-25354454D01*
X99255764Y-25336908D01*
X99249805Y-25285549D01*
X99249000Y-25281500D01*
X99249000Y-24756500D01*
X99249804Y-24752453D01*
X99255764Y-24701091D01*
X99263511Y-24683543D01*
X99268030Y-24660829D01*
X99284278Y-24636510D01*
X99293465Y-24615706D01*
X99307674Y-24601496D01*
X99322223Y-24579723D01*
X99343996Y-24565174D01*
X99358206Y-24550965D01*
X99379010Y-24541778D01*
X99403329Y-24525530D01*
X99426043Y-24521011D01*
X99443591Y-24513264D01*
X99494952Y-24507305D01*
X99499000Y-24506500D01*
X100399000Y-24506500D01*
X100403047Y-24507305D01*
G37*
G36*
X106372047Y-24427305D02*
G01*
X106423408Y-24433264D01*
X106440954Y-24441011D01*
X106463671Y-24445530D01*
X106487991Y-24461780D01*
X106508793Y-24470965D01*
X106523000Y-24485172D01*
X106544777Y-24499723D01*
X106559327Y-24521499D01*
X106573534Y-24535706D01*
X106582718Y-24556506D01*
X106598970Y-24580829D01*
X106603489Y-24603548D01*
X106611235Y-24621091D01*
X106617192Y-24672440D01*
X106618000Y-24676500D01*
X106618000Y-25201500D01*
X106617192Y-25205559D01*
X106611235Y-25256908D01*
X106603489Y-25274450D01*
X106598970Y-25297171D01*
X106582716Y-25321495D01*
X106573534Y-25342293D01*
X106559329Y-25356497D01*
X106544777Y-25378277D01*
X106522997Y-25392829D01*
X106508793Y-25407034D01*
X106487995Y-25416216D01*
X106463671Y-25432470D01*
X106440950Y-25436989D01*
X106423408Y-25444735D01*
X106372061Y-25450692D01*
X106368000Y-25451500D01*
X105468000Y-25451500D01*
X105463941Y-25450692D01*
X105412591Y-25444735D01*
X105395048Y-25436989D01*
X105372329Y-25432470D01*
X105348006Y-25416218D01*
X105327206Y-25407034D01*
X105312999Y-25392827D01*
X105291223Y-25378277D01*
X105276672Y-25356500D01*
X105262465Y-25342293D01*
X105253280Y-25321491D01*
X105237030Y-25297171D01*
X105232511Y-25274454D01*
X105224764Y-25256908D01*
X105218805Y-25205549D01*
X105218000Y-25201500D01*
X105218000Y-24676500D01*
X105218804Y-24672453D01*
X105224764Y-24621091D01*
X105232511Y-24603543D01*
X105237030Y-24580829D01*
X105253278Y-24556510D01*
X105262465Y-24535706D01*
X105276674Y-24521496D01*
X105291223Y-24499723D01*
X105312996Y-24485174D01*
X105327206Y-24470965D01*
X105348010Y-24461778D01*
X105372329Y-24445530D01*
X105395043Y-24441011D01*
X105412591Y-24433264D01*
X105463952Y-24427305D01*
X105468000Y-24426500D01*
X106368000Y-24426500D01*
X106372047Y-24427305D01*
G37*
G36*
X103965298Y-24452305D02*
G01*
X104015227Y-24458098D01*
X104032283Y-24465629D01*
X104054529Y-24470054D01*
X104078342Y-24485965D01*
X104098511Y-24494871D01*
X104112287Y-24508647D01*
X104133607Y-24522893D01*
X104147852Y-24544212D01*
X104161628Y-24557988D01*
X104170532Y-24578155D01*
X104186446Y-24601971D01*
X104190871Y-24624218D01*
X104198401Y-24641272D01*
X104204192Y-24691190D01*
X104205000Y-24695250D01*
X104205000Y-25182750D01*
X104204192Y-25186810D01*
X104198401Y-25236727D01*
X104190871Y-25253779D01*
X104186446Y-25276029D01*
X104170531Y-25299846D01*
X104161628Y-25320011D01*
X104147854Y-25333784D01*
X104133607Y-25355107D01*
X104112284Y-25369354D01*
X104098511Y-25383128D01*
X104078346Y-25392031D01*
X104054529Y-25407946D01*
X104032279Y-25412371D01*
X104015227Y-25419901D01*
X103965311Y-25425692D01*
X103961250Y-25426500D01*
X103048750Y-25426500D01*
X103044691Y-25425692D01*
X102994772Y-25419901D01*
X102977718Y-25412371D01*
X102955471Y-25407946D01*
X102931655Y-25392032D01*
X102911488Y-25383128D01*
X102897712Y-25369352D01*
X102876393Y-25355107D01*
X102862147Y-25333787D01*
X102848371Y-25320011D01*
X102839465Y-25299842D01*
X102823554Y-25276029D01*
X102819129Y-25253783D01*
X102811598Y-25236727D01*
X102805805Y-25186799D01*
X102805000Y-25182750D01*
X102805000Y-24695250D01*
X102805804Y-24691203D01*
X102811598Y-24641272D01*
X102819129Y-24624214D01*
X102823554Y-24601971D01*
X102839464Y-24578159D01*
X102848371Y-24557988D01*
X102862149Y-24544209D01*
X102876393Y-24522893D01*
X102897709Y-24508649D01*
X102911488Y-24494871D01*
X102931659Y-24485964D01*
X102955471Y-24470054D01*
X102977714Y-24465629D01*
X102994772Y-24458098D01*
X103044702Y-24452305D01*
X103048750Y-24451500D01*
X103961250Y-24451500D01*
X103965298Y-24452305D01*
G37*
G36*
X86439298Y-22784305D02*
G01*
X86489227Y-22790098D01*
X86506283Y-22797629D01*
X86528529Y-22802054D01*
X86552342Y-22817965D01*
X86572511Y-22826871D01*
X86586287Y-22840647D01*
X86607607Y-22854893D01*
X86621852Y-22876212D01*
X86635628Y-22889988D01*
X86644532Y-22910155D01*
X86660446Y-22933971D01*
X86664871Y-22956218D01*
X86672401Y-22973272D01*
X86678192Y-23023190D01*
X86679000Y-23027250D01*
X86679000Y-23514750D01*
X86678192Y-23518810D01*
X86672401Y-23568727D01*
X86664871Y-23585779D01*
X86660446Y-23608029D01*
X86644531Y-23631846D01*
X86635628Y-23652011D01*
X86621854Y-23665784D01*
X86607607Y-23687107D01*
X86586284Y-23701354D01*
X86572511Y-23715128D01*
X86552346Y-23724031D01*
X86528529Y-23739946D01*
X86506279Y-23744371D01*
X86489227Y-23751901D01*
X86439311Y-23757692D01*
X86435250Y-23758500D01*
X85522750Y-23758500D01*
X85518691Y-23757692D01*
X85468772Y-23751901D01*
X85451718Y-23744371D01*
X85429471Y-23739946D01*
X85405655Y-23724032D01*
X85385488Y-23715128D01*
X85371712Y-23701352D01*
X85350393Y-23687107D01*
X85336147Y-23665787D01*
X85322371Y-23652011D01*
X85313465Y-23631842D01*
X85297554Y-23608029D01*
X85293129Y-23585783D01*
X85285598Y-23568727D01*
X85279805Y-23518799D01*
X85279000Y-23514750D01*
X85279000Y-23027250D01*
X85279804Y-23023203D01*
X85285598Y-22973272D01*
X85293129Y-22956214D01*
X85297554Y-22933971D01*
X85313464Y-22910159D01*
X85322371Y-22889988D01*
X85336149Y-22876209D01*
X85350393Y-22854893D01*
X85371709Y-22840649D01*
X85385488Y-22826871D01*
X85405659Y-22817964D01*
X85429471Y-22802054D01*
X85451714Y-22797629D01*
X85468772Y-22790098D01*
X85518702Y-22784305D01*
X85522750Y-22783500D01*
X86435250Y-22783500D01*
X86439298Y-22784305D01*
G37*
G36*
X90884298Y-22784305D02*
G01*
X90934227Y-22790098D01*
X90951283Y-22797629D01*
X90973529Y-22802054D01*
X90997342Y-22817965D01*
X91017511Y-22826871D01*
X91031287Y-22840647D01*
X91052607Y-22854893D01*
X91066852Y-22876212D01*
X91080628Y-22889988D01*
X91089532Y-22910155D01*
X91105446Y-22933971D01*
X91109871Y-22956218D01*
X91117401Y-22973272D01*
X91123192Y-23023190D01*
X91124000Y-23027250D01*
X91124000Y-23514750D01*
X91123192Y-23518810D01*
X91117401Y-23568727D01*
X91109871Y-23585779D01*
X91105446Y-23608029D01*
X91089531Y-23631846D01*
X91080628Y-23652011D01*
X91066854Y-23665784D01*
X91052607Y-23687107D01*
X91031284Y-23701354D01*
X91017511Y-23715128D01*
X90997346Y-23724031D01*
X90973529Y-23739946D01*
X90951279Y-23744371D01*
X90934227Y-23751901D01*
X90884311Y-23757692D01*
X90880250Y-23758500D01*
X89967750Y-23758500D01*
X89963691Y-23757692D01*
X89913772Y-23751901D01*
X89896718Y-23744371D01*
X89874471Y-23739946D01*
X89850655Y-23724032D01*
X89830488Y-23715128D01*
X89816712Y-23701352D01*
X89795393Y-23687107D01*
X89781147Y-23665787D01*
X89767371Y-23652011D01*
X89758465Y-23631842D01*
X89742554Y-23608029D01*
X89738129Y-23585783D01*
X89730598Y-23568727D01*
X89724805Y-23518799D01*
X89724000Y-23514750D01*
X89724000Y-23027250D01*
X89724804Y-23023203D01*
X89730598Y-22973272D01*
X89738129Y-22956214D01*
X89742554Y-22933971D01*
X89758464Y-22910159D01*
X89767371Y-22889988D01*
X89781149Y-22876209D01*
X89795393Y-22854893D01*
X89816709Y-22840649D01*
X89830488Y-22826871D01*
X89850659Y-22817964D01*
X89874471Y-22802054D01*
X89896714Y-22797629D01*
X89913772Y-22790098D01*
X89963702Y-22784305D01*
X89967750Y-22783500D01*
X90880250Y-22783500D01*
X90884298Y-22784305D01*
G37*
G36*
X96853298Y-22784305D02*
G01*
X96903227Y-22790098D01*
X96920283Y-22797629D01*
X96942529Y-22802054D01*
X96966342Y-22817965D01*
X96986511Y-22826871D01*
X97000287Y-22840647D01*
X97021607Y-22854893D01*
X97035852Y-22876212D01*
X97049628Y-22889988D01*
X97058532Y-22910155D01*
X97074446Y-22933971D01*
X97078871Y-22956218D01*
X97086401Y-22973272D01*
X97092192Y-23023190D01*
X97093000Y-23027250D01*
X97093000Y-23514750D01*
X97092192Y-23518810D01*
X97086401Y-23568727D01*
X97078871Y-23585779D01*
X97074446Y-23608029D01*
X97058531Y-23631846D01*
X97049628Y-23652011D01*
X97035854Y-23665784D01*
X97021607Y-23687107D01*
X97000284Y-23701354D01*
X96986511Y-23715128D01*
X96966346Y-23724031D01*
X96942529Y-23739946D01*
X96920279Y-23744371D01*
X96903227Y-23751901D01*
X96853311Y-23757692D01*
X96849250Y-23758500D01*
X95936750Y-23758500D01*
X95932691Y-23757692D01*
X95882772Y-23751901D01*
X95865718Y-23744371D01*
X95843471Y-23739946D01*
X95819655Y-23724032D01*
X95799488Y-23715128D01*
X95785712Y-23701352D01*
X95764393Y-23687107D01*
X95750147Y-23665787D01*
X95736371Y-23652011D01*
X95727465Y-23631842D01*
X95711554Y-23608029D01*
X95707129Y-23585783D01*
X95699598Y-23568727D01*
X95693805Y-23518799D01*
X95693000Y-23514750D01*
X95693000Y-23027250D01*
X95693804Y-23023203D01*
X95699598Y-22973272D01*
X95707129Y-22956214D01*
X95711554Y-22933971D01*
X95727464Y-22910159D01*
X95736371Y-22889988D01*
X95750149Y-22876209D01*
X95764393Y-22854893D01*
X95785709Y-22840649D01*
X95799488Y-22826871D01*
X95819659Y-22817964D01*
X95843471Y-22802054D01*
X95865714Y-22797629D01*
X95882772Y-22790098D01*
X95932702Y-22784305D01*
X95936750Y-22783500D01*
X96849250Y-22783500D01*
X96853298Y-22784305D01*
G37*
G36*
X100403047Y-22682305D02*
G01*
X100454408Y-22688264D01*
X100471954Y-22696011D01*
X100494671Y-22700530D01*
X100518991Y-22716780D01*
X100539793Y-22725965D01*
X100554000Y-22740172D01*
X100575777Y-22754723D01*
X100590327Y-22776499D01*
X100604534Y-22790706D01*
X100613718Y-22811506D01*
X100629970Y-22835829D01*
X100634489Y-22858548D01*
X100642235Y-22876091D01*
X100648192Y-22927440D01*
X100649000Y-22931500D01*
X100649000Y-23456500D01*
X100648192Y-23460559D01*
X100642235Y-23511908D01*
X100634489Y-23529450D01*
X100629970Y-23552171D01*
X100613716Y-23576495D01*
X100604534Y-23597293D01*
X100590329Y-23611497D01*
X100575777Y-23633277D01*
X100553997Y-23647829D01*
X100539793Y-23662034D01*
X100518995Y-23671216D01*
X100494671Y-23687470D01*
X100471950Y-23691989D01*
X100454408Y-23699735D01*
X100403061Y-23705692D01*
X100399000Y-23706500D01*
X99499000Y-23706500D01*
X99494941Y-23705692D01*
X99443591Y-23699735D01*
X99426048Y-23691989D01*
X99403329Y-23687470D01*
X99379006Y-23671218D01*
X99358206Y-23662034D01*
X99343999Y-23647827D01*
X99322223Y-23633277D01*
X99307672Y-23611500D01*
X99293465Y-23597293D01*
X99284280Y-23576491D01*
X99268030Y-23552171D01*
X99263511Y-23529454D01*
X99255764Y-23511908D01*
X99249805Y-23460549D01*
X99249000Y-23456500D01*
X99249000Y-22931500D01*
X99249804Y-22927453D01*
X99255764Y-22876091D01*
X99263511Y-22858543D01*
X99268030Y-22835829D01*
X99284278Y-22811510D01*
X99293465Y-22790706D01*
X99307674Y-22776496D01*
X99322223Y-22754723D01*
X99343996Y-22740174D01*
X99358206Y-22725965D01*
X99379010Y-22716778D01*
X99403329Y-22700530D01*
X99426043Y-22696011D01*
X99443591Y-22688264D01*
X99494952Y-22682305D01*
X99499000Y-22681500D01*
X100399000Y-22681500D01*
X100403047Y-22682305D01*
G37*
G36*
X122547677Y-23688631D02*
G01*
X119547677Y-23688631D01*
X119547677Y-22688631D01*
X122547677Y-22688631D01*
X122547677Y-23688631D01*
G37*
G36*
X127587677Y-23688631D02*
G01*
X124587677Y-23688631D01*
X124587677Y-22688631D01*
X127587677Y-22688631D01*
X127587677Y-23688631D01*
G37*
G36*
X150475664Y-23683966D02*
G01*
X147475664Y-23683966D01*
X147475664Y-22683966D01*
X150475664Y-22683966D01*
X150475664Y-23683966D01*
G37*
G36*
X155515664Y-23683966D02*
G01*
X152515664Y-23683966D01*
X152515664Y-22683966D01*
X155515664Y-22683966D01*
X155515664Y-23683966D01*
G37*
G36*
X106372047Y-22602305D02*
G01*
X106423408Y-22608264D01*
X106440954Y-22616011D01*
X106463671Y-22620530D01*
X106487991Y-22636780D01*
X106508793Y-22645965D01*
X106523000Y-22660172D01*
X106544777Y-22674723D01*
X106559327Y-22696499D01*
X106573534Y-22710706D01*
X106582718Y-22731506D01*
X106598970Y-22755829D01*
X106603489Y-22778548D01*
X106611235Y-22796091D01*
X106617192Y-22847440D01*
X106618000Y-22851500D01*
X106618000Y-23376500D01*
X106617192Y-23380559D01*
X106611235Y-23431908D01*
X106603489Y-23449450D01*
X106598970Y-23472171D01*
X106582716Y-23496495D01*
X106573534Y-23517293D01*
X106559329Y-23531497D01*
X106544777Y-23553277D01*
X106522997Y-23567829D01*
X106508793Y-23582034D01*
X106487995Y-23591216D01*
X106463671Y-23607470D01*
X106440950Y-23611989D01*
X106423408Y-23619735D01*
X106372061Y-23625692D01*
X106368000Y-23626500D01*
X105468000Y-23626500D01*
X105463941Y-23625692D01*
X105412591Y-23619735D01*
X105395048Y-23611989D01*
X105372329Y-23607470D01*
X105348006Y-23591218D01*
X105327206Y-23582034D01*
X105312999Y-23567827D01*
X105291223Y-23553277D01*
X105276672Y-23531500D01*
X105262465Y-23517293D01*
X105253280Y-23496491D01*
X105237030Y-23472171D01*
X105232511Y-23449454D01*
X105224764Y-23431908D01*
X105218805Y-23380549D01*
X105218000Y-23376500D01*
X105218000Y-22851500D01*
X105218804Y-22847453D01*
X105224764Y-22796091D01*
X105232511Y-22778543D01*
X105237030Y-22755829D01*
X105253278Y-22731510D01*
X105262465Y-22710706D01*
X105276674Y-22696496D01*
X105291223Y-22674723D01*
X105312996Y-22660174D01*
X105327206Y-22645965D01*
X105348010Y-22636778D01*
X105372329Y-22620530D01*
X105395043Y-22616011D01*
X105412591Y-22608264D01*
X105463952Y-22602305D01*
X105468000Y-22601500D01*
X106368000Y-22601500D01*
X106372047Y-22602305D01*
G37*
G36*
X103965298Y-22577305D02*
G01*
X104015227Y-22583098D01*
X104032283Y-22590629D01*
X104054529Y-22595054D01*
X104078342Y-22610965D01*
X104098511Y-22619871D01*
X104112287Y-22633647D01*
X104133607Y-22647893D01*
X104147852Y-22669212D01*
X104161628Y-22682988D01*
X104170532Y-22703155D01*
X104186446Y-22726971D01*
X104190871Y-22749218D01*
X104198401Y-22766272D01*
X104204192Y-22816190D01*
X104205000Y-22820250D01*
X104205000Y-23307750D01*
X104204192Y-23311810D01*
X104198401Y-23361727D01*
X104190871Y-23378779D01*
X104186446Y-23401029D01*
X104170531Y-23424846D01*
X104161628Y-23445011D01*
X104147854Y-23458784D01*
X104133607Y-23480107D01*
X104112284Y-23494354D01*
X104098511Y-23508128D01*
X104078346Y-23517031D01*
X104054529Y-23532946D01*
X104032279Y-23537371D01*
X104015227Y-23544901D01*
X103965311Y-23550692D01*
X103961250Y-23551500D01*
X103048750Y-23551500D01*
X103044691Y-23550692D01*
X102994772Y-23544901D01*
X102977718Y-23537371D01*
X102955471Y-23532946D01*
X102931655Y-23517032D01*
X102911488Y-23508128D01*
X102897712Y-23494352D01*
X102876393Y-23480107D01*
X102862147Y-23458787D01*
X102848371Y-23445011D01*
X102839465Y-23424842D01*
X102823554Y-23401029D01*
X102819129Y-23378783D01*
X102811598Y-23361727D01*
X102805805Y-23311799D01*
X102805000Y-23307750D01*
X102805000Y-22820250D01*
X102805804Y-22816203D01*
X102811598Y-22766272D01*
X102819129Y-22749214D01*
X102823554Y-22726971D01*
X102839464Y-22703159D01*
X102848371Y-22682988D01*
X102862149Y-22669209D01*
X102876393Y-22647893D01*
X102897709Y-22633649D01*
X102911488Y-22619871D01*
X102931659Y-22610964D01*
X102955471Y-22595054D01*
X102977714Y-22590629D01*
X102994772Y-22583098D01*
X103044702Y-22577305D01*
X103048750Y-22576500D01*
X103961250Y-22576500D01*
X103965298Y-22577305D01*
G37*
M02*
