M48
; DRILL file KiCad 10.0.3 date 2026-05-31T17:21:49
; FORMAT={-:-/ absolute / metric / decimal}
; #@! TF.CreationDate,2026-05-31T17:21:49+02:00
; #@! TF.GenerationSoftware,Kicad,Pcbnew,10.0.3
; #@! TF.FileFunction,Plated,1,2,PTH
FMAT,2
METRIC
; #@! TA.AperFunction,Plated,PTH,ViaDrill
T1C0.150
; #@! TA.AperFunction,Plated,PTH,ViaDrill
T2C0.300
; #@! TA.AperFunction,Plated,PTH,ComponentDrill
T3C1.020
%
G90
G05
T1
X57.711Y-64.044
X58.293Y-42.164
X58.293Y-49.403
X58.42Y-34.798
X59.309Y-26.797
X62.357Y-22.225
X65.214Y-42.602
X67.296Y-65.487
X67.884Y-29.614
X68.464Y-21.836
X71.501Y-36.068
X72.954Y-27.319
X73.569Y-58.838
X73.744Y-57.783
X74.549Y-64.516
X74.633Y-50.134
X75.795Y-21.836
X80.437Y-55.706
X80.794Y-55.717
X81.959Y-65.487
X82.086Y-55.05
X83.127Y-21.836
X84.249Y-50.563
X87.327Y-54.131
X88.9Y-56.896
X89.29Y-65.487
X90.424Y-58.42
X90.458Y-21.836
X102.461Y-53.823
X103.631Y-48.927
X109.982Y-53.594
X111.576Y-21.59
X113.792Y-46.101
X114.851Y-56.208
X114.983Y-57.346
X115.704Y-30.783
X117.094Y-22.479
X117.594Y-57.976
X119.158Y-25.706
X119.89Y-33.505
X119.911Y-33.982
X120.136Y-43.788
X120.385Y-53.823
X120.582Y-52.06
X121.174Y-26.681
X121.271Y-54.792
X121.549Y-65.241
X121.62Y-46.456
X121.689Y-38.62
X121.896Y-50.478
X121.902Y-39.366
X122.33Y-47.775
X122.527Y-48.926
X122.717Y-21.59
X122.822Y-36.48
X123.136Y-30.894
X124.38Y-25.724
X126.092Y-60.559
X126.267Y-49.794
X126.832Y-58.194
X126.832Y-35.676
X126.832Y-37.979
X126.832Y-42.953
X128.031Y-49.813
X128.27Y-42.418
X128.433Y-51.349
X128.88Y-65.241
X129.159Y-56.642
X129.957Y-33.977
X130.048Y-21.59
X130.138Y-34.419
X132.05Y-46.638
X132.409Y-27.319
X133.245Y-27.726
X135.89Y-45.397
X136.212Y-65.241
X137.297Y-40.421
X137.379Y-21.59
X137.795Y-51.562
X140.044Y-63.165
X142.002Y-29.985
X142.1Y-52.972
X142.773Y-52.568
X143.139Y-45.699
X143.543Y-65.241
X143.655Y-39.522
X143.984Y-54.333
X144.146Y-64.004
X144.205Y-38.4
X144.711Y-21.59
X146.903Y-48.973
X148.069Y-25.302
X148.822Y-49.645
X150.422Y-48.735
X150.875Y-65.241
X150.985Y-41.115
X151.49Y-56.28
X151.671Y-29.497
X152.042Y-21.59
X152.317Y-34.157
X152.391Y-45.446
X152.391Y-42.907
X152.406Y-40.3
X153.15Y-39.113
X153.555Y-38.708
X153.906Y-46.98
X154.467Y-29.325
X154.721Y-61.264
X154.999Y-25.75
X155.135Y-26.783
X155.256Y-29.2
X155.452Y-48.735
X155.533Y-36.038
X155.558Y-38.583
X155.702Y-22.733
X155.829Y-62.611
X156.04Y-30.955
X156.861Y-39.31
X161.42Y-35.44
X161.42Y-42.771
X161.42Y-50.103
X161.42Y-57.434
T2
X58.928Y-29.591
X60.325Y-53.975
X60.452Y-41.148
X60.579Y-36.449
X61.087Y-58.928
X61.849Y-61.976
X62.23Y-43.561
X62.611Y-47.117
X62.992Y-40.132
X63.627Y-29.337
X63.754Y-66.04
X64.135Y-35.814
X64.389Y-55.118
X64.389Y-59.182
X64.643Y-32.512
X65.024Y-43.688
X65.532Y-40.386
X65.913Y-25.019
X66.802Y-62.23
X69.088Y-57.912
X69.596Y-26.797
X69.85Y-55.499
X70.231Y-41.021
X70.358Y-23.114
X70.993Y-46.355
X71.374Y-63.627
X71.628Y-54.229
X71.628Y-58.928
X71.882Y-66.04
X72.136Y-43.18
X72.263Y-50.546
X74.803Y-54.483
X75.692Y-62.738
X76.708Y-48.768
X77.216Y-27.94
X77.216Y-43.815
X77.343Y-57.912
X77.724Y-24.003
X77.724Y-65.659
X77.978Y-45.974
X77.978Y-56.769
X78.994Y-62.992
X79.248Y-47.752
X79.756Y-51.308
X81.661Y-53.594
X81.661Y-63.246
X82.296Y-42.164
X82.55Y-49.276
X82.804Y-24.13
X83.058Y-44.069
X83.312Y-47.371
X83.439Y-57.15
X84.074Y-27.051
X84.836Y-53.135
X85.09Y-55.626
X85.344Y-63.373
X85.598Y-48.768
X85.979Y-54.737
X87.122Y-42.926
X87.122Y-66.167
X87.376Y-23.368
X88.392Y-61.087
X88.773Y-27.94
X89.027Y-45.593
X89.154Y-50.546
X89.281Y-53.721
X91.948Y-23.368
X91.948Y-26.543
X92.71Y-60.706
X93.091Y-66.294
X93.599Y-57.531
X94.107Y-62.103
X94.167Y-39.209
X94.234Y-55.88
X95.183Y-39.209
X96.199Y-39.209
X96.52Y-57.912
X96.647Y-37.846
X96.647Y-61.595
X97.215Y-39.209
X98.231Y-39.209
X99.247Y-39.209
X100.263Y-36.669
X100.263Y-37.431
X100.263Y-38.193
X100.263Y-39.209
X100.963Y-53.34
X100.965Y-52.705
X101.279Y-36.669
X101.279Y-37.431
X101.279Y-38.193
X101.279Y-39.209
X101.346Y-66.548
X101.854Y-61.341
X103.124Y-58.801
X103.378Y-60.198
X103.378Y-61.595
X103.886Y-52.324
X104.775Y-43.18
X105.918Y-58.039
X105.918Y-66.929
X106.68Y-52.07
X106.807Y-49.149
X107.061Y-61.595
X108.077Y-52.324
X108.839Y-58.166
X108.839Y-59.436
X109.347Y-55.499
X109.474Y-43.688
X109.982Y-50.8
X110.109Y-57.531
X110.236Y-66.929
X110.998Y-64.008
X111.252Y-25.527
X113.03Y-56.769
X113.157Y-29.21
X113.411Y-61.722
X113.792Y-34.163
X114.3Y-52.959
X114.808Y-37.846
X115.316Y-47.752
X115.443Y-28.702
X115.57Y-59.436
X115.697Y-26.543
X115.697Y-41.275
X116.078Y-32.766
X116.459Y-62.357
X116.586Y-58.039
X117.856Y-65.278
X118.237Y-39.116
X118.364Y-28.702
X118.491Y-31.369
X118.618Y-41.656
X120.777Y-38.989
X121.412Y-31.75
X121.539Y-59.563
X121.666Y-28.448
X121.666Y-33.274
X122.047Y-60.96
X122.174Y-25.781
X122.682Y-65.913
X123.063Y-33.655
X123.317Y-44.069
X123.444Y-56.896
X123.952Y-49.149
X124.968Y-28.702
X124.968Y-41.656
X125.095Y-36.449
X125.349Y-54.229
X125.349Y-59.563
X125.476Y-64.77
X125.984Y-34.036
X125.984Y-51.816
X128.524Y-23.622
X128.524Y-62.357
X128.651Y-30.226
X128.778Y-47.625
X129.032Y-25.908
X129.413Y-54.991
X131.572Y-37.973
X131.826Y-41.148
X131.953Y-61.087
X132.207Y-58.166
X133.731Y-33.782
X133.985Y-30.988
X133.985Y-46.863
X135.509Y-54.61
X136.144Y-49.784
X136.144Y-60.452
X137.922Y-24.765
X137.922Y-42.418
X138.557Y-47.371
X138.938Y-53.721
X140.589Y-59.182
X140.716Y-50.546
X140.843Y-27.432
X140.97Y-40.005
X141.224Y-47.752
X141.605Y-56.261
X141.732Y-60.452
X141.986Y-53.848
X142.113Y-24.003
X142.367Y-58.928
X143.383Y-42.799
X143.764Y-53.213
X144.907Y-35.941
X145.034Y-51.181
X145.288Y-47.117
X145.796Y-27.305
X146.431Y-39.497
X146.431Y-61.595
X146.558Y-53.848
X146.685Y-59.055
X147.447Y-34.544
X148.209Y-64.262
X148.336Y-28.829
X148.971Y-36.576
X149.606Y-59.436
X151.638Y-39.116
X152.4Y-50.8
X152.4Y-53.848
X152.4Y-57.404
X152.527Y-60.579
X152.654Y-26.035
X152.654Y-46.609
X152.781Y-33.147
X153.162Y-30.734
X153.543Y-36.322
X154.94Y-31.115
X155.448Y-59.309
X155.575Y-64.77
X159.004Y-52.07
X159.004Y-60.325
X159.131Y-42.672
X159.258Y-47.625
X159.258Y-56.515
X159.385Y-33.147
X159.512Y-28.829
T3
X66.55Y-31.52
X66.55Y-34.52
X66.55Y-49.3
X66.55Y-52.3
X69.55Y-31.52
X69.55Y-34.52
X69.55Y-49.3
X69.55Y-52.3
M30
