%TF.GenerationSoftware,KiCad,Pcbnew,10.0.3*%
%TF.CreationDate,2026-06-24T19:40:23+02:00*%
%TF.ProjectId,E0001-000002,45303030-312d-4303-9030-3030322e6b69,rev?*%
%TF.SameCoordinates,Original*%
%TF.FileFunction,Copper,L2,Bot*%
%TF.FilePolarity,Positive*%
%FSLAX46Y46*%
G04 Gerber Fmt 4.6, Leading zero omitted, Abs format (unit mm)*
G04 Created by KiCad (PCBNEW 10.0.3) date 2026-06-24 19:40:23*
%MOMM*%
%LPD*%
G01*
G04 APERTURE LIST*
G04 Aperture macros list*
%AMRoundRect*
0 Rectangle with rounded corners*
0 $1 Rounding radius*
0 $2 $3 $4 $5 $6 $7 $8 $9 X,Y pos of 4 corners*
0 Add a 4 corners polygon primitive as box body*
4,1,4,$2,$3,$4,$5,$6,$7,$8,$9,$2,$3,0*
0 Add four circle primitives for the rounded corners*
1,1,$1+$1,$2,$3*
1,1,$1+$1,$4,$5*
1,1,$1+$1,$6,$7*
1,1,$1+$1,$8,$9*
0 Add four rect primitives between the rounded corners*
20,1,$1+$1,$2,$3,$4,$5,0*
20,1,$1+$1,$4,$5,$6,$7,0*
20,1,$1+$1,$6,$7,$8,$9,0*
20,1,$1+$1,$8,$9,$2,$3,0*%
G04 Aperture macros list end*
%TA.AperFunction,ComponentPad*%
%ADD10RoundRect,0.250001X0.499999X-0.499999X0.499999X0.499999X-0.499999X0.499999X-0.499999X-0.499999X0*%
%TD*%
%TA.AperFunction,ComponentPad*%
%ADD11C,1.500000*%
%TD*%
%TA.AperFunction,SMDPad,CuDef*%
%ADD12R,3.000000X1.000000*%
%TD*%
%TA.AperFunction,ViaPad*%
%ADD13C,0.600000*%
%TD*%
%TA.AperFunction,Conductor*%
%ADD14C,0.200000*%
%TD*%
%TA.AperFunction,Conductor*%
%ADD15C,0.101702*%
%TD*%
%TA.AperFunction,Conductor*%
%ADD16C,0.500000*%
%TD*%
%TA.AperFunction,Conductor*%
%ADD17C,0.106680*%
%TD*%
%TA.AperFunction,Conductor*%
%ADD18C,0.600000*%
%TD*%
%TA.AperFunction,Conductor*%
%ADD19C,0.141671*%
%TD*%
%TA.AperFunction,Conductor*%
%ADD20C,0.101700*%
%TD*%
G04 APERTURE END LIST*
D10*
%TO.P,J2,1,Pin_1_1*%
%TO.N,Net-(J1-Pin_1)*%
X66550000Y-52300000D03*
D11*
%TO.P,J2,2,Pin_2_2*%
%TO.N,GND*%
X66550000Y-49300000D03*
%TO.P,J2,3,Pin_3_3*%
%TO.N,CAN_H*%
X69550000Y-52300000D03*
%TO.P,J2,4,Pin_4_4*%
%TO.N,CAN_L*%
X69550000Y-49300000D03*
%TD*%
D10*
%TO.P,J1,1,Pin_1_1*%
%TO.N,Net-(J1-Pin_1)*%
X66550000Y-34520000D03*
D11*
%TO.P,J1,2,Pin_2_2*%
%TO.N,GND*%
X66550000Y-31520000D03*
%TO.P,J1,3,Pin_3_3*%
%TO.N,CAN_H*%
X69550000Y-34520000D03*
%TO.P,J1,4,Pin_4_4*%
%TO.N,CAN_L*%
X69550000Y-31520000D03*
%TD*%
D12*
%TO.P,J6,1,Pin_1_1*%
%TO.N,+3.3V*%
X150661929Y-30226364D03*
%TO.P,J6,2,Pin_2_2*%
%TO.N,GND*%
X155701929Y-30226364D03*
%TO.P,J6,3,Pin_3_3*%
%TO.N,STRAP_0*%
X150661929Y-32766364D03*
%TO.P,J6,4,Pin_4_4*%
%TO.N,STRAP_1*%
X155701929Y-32766364D03*
%TO.P,J6,5,Pin_5_5*%
%TO.N,STRAP_2*%
X150661929Y-35306364D03*
%TO.P,J6,6,Pin_6_6*%
%TO.N,GND*%
X155701929Y-35306364D03*
%TO.P,J6,7,Pin_7_7*%
%TO.N,unconnected-(J6-Pin_7-Pad7)*%
X150661929Y-37846364D03*
%TO.P,J6,8,Pin_8_8*%
%TO.N,GND*%
X155701929Y-37846364D03*
%TO.P,J6,9,Pin_9_9*%
X150661929Y-40386364D03*
%TO.P,J6,10,Pin_10_10*%
%TO.N,ADC_1*%
X155701929Y-40386364D03*
%TO.P,J6,11,Pin_11_11*%
%TO.N,GND*%
X150661929Y-42926364D03*
%TO.P,J6,12,Pin_12_12*%
%TO.N,ADC_2*%
X155701929Y-42926364D03*
%TO.P,J6,13,Pin_13_13*%
%TO.N,GND*%
X150661929Y-45466364D03*
%TO.P,J6,14,Pin_14_14*%
%TO.N,unconnected-(J6-Pin_14-Pad14)*%
X155701929Y-45466364D03*
%TO.P,J6,15,Pin_15_15*%
%TO.N,GND*%
X150661929Y-48006364D03*
%TO.P,J6,16,Pin_16_16*%
X155701929Y-48006364D03*
%TD*%
%TO.P,J5,1,Pin_1_1*%
%TO.N,+3.3V*%
X120063000Y-30234000D03*
%TO.P,J5,2,Pin_2_2*%
%TO.N,unconnected-(J5-Pin_2-Pad2)*%
X125103000Y-30234000D03*
%TO.P,J5,3,Pin_3_3*%
%TO.N,GND*%
X120063000Y-32774000D03*
%TO.P,J5,4,Pin_4_4*%
%TO.N,I2C1_SCL*%
X125103000Y-32774000D03*
%TO.P,J5,5,Pin_5_5*%
%TO.N,I2C1_SDA*%
X120063000Y-35314000D03*
%TO.P,J5,6,Pin_6_6*%
%TO.N,GND*%
X125103000Y-35314000D03*
%TO.P,J5,7,Pin_7_7*%
%TO.N,OW_DATA*%
X120063000Y-37854000D03*
%TO.P,J5,8,Pin_8_8*%
%TO.N,GND*%
X125103000Y-37854000D03*
%TO.P,J5,9,Pin_9_9*%
%TO.N,SPI2_SCK*%
X120063000Y-40394000D03*
%TO.P,J5,10,Pin_10_10*%
%TO.N,SPI2_MISO*%
X125103000Y-40394000D03*
%TO.P,J5,11,Pin_11_11*%
%TO.N,SPI2_MOSI*%
X120063000Y-42934000D03*
%TO.P,J5,12,Pin_12_12*%
%TO.N,GND*%
X125103000Y-42934000D03*
%TO.P,J5,13,Pin_13_13*%
%TO.N,SP1_CS1*%
X120063000Y-45474000D03*
%TO.P,J5,14,Pin_14_14*%
%TO.N,SPI_CS2*%
X125103000Y-45474000D03*
%TO.P,J5,15,Pin_15_15*%
%TO.N,USART1_TX*%
X120063000Y-48014000D03*
%TO.P,J5,16,Pin_16_16*%
%TO.N,USART1_RX*%
X125103000Y-48014000D03*
%TO.P,J5,17,Pin_17_17*%
%TO.N,GPIO_3*%
X120063000Y-50554000D03*
%TO.P,J5,18,Pin_18_18*%
%TO.N,GPIO_4*%
X125103000Y-50554000D03*
%TO.P,J5,19,Pin_19_19*%
%TO.N,GND*%
X120063000Y-53094000D03*
%TO.P,J5,20,Pin_20_20*%
%TO.N,PWM_1*%
X125103000Y-53094000D03*
%TO.P,J5,21,Pin_21_21*%
%TO.N,PWM_2*%
X120063000Y-55634000D03*
%TO.P,J5,22,Pin_22_22*%
%TO.N,PWM_3*%
X125103000Y-55634000D03*
%TO.P,J5,23,Pin_23_23*%
%TO.N,PWM_4*%
X120063000Y-58174000D03*
%TO.P,J5,24,Pin_24_24*%
%TO.N,GND*%
X125103000Y-58174000D03*
%TD*%
D13*
%TO.N,GND*%
X131267200Y-30276800D03*
X138582400Y-55016400D03*
X79629000Y-60071000D03*
X76708000Y-48768000D03*
X161340800Y-32766000D03*
X105791000Y-35052000D03*
X107746800Y-66700400D03*
X136144000Y-27584400D03*
X89154000Y-50546000D03*
X128397000Y-53848000D03*
X58293000Y-49403000D03*
X127508000Y-61976000D03*
X151384000Y-27127200D03*
X58547000Y-57023000D03*
X123139200Y-36931600D03*
X129159000Y-23241000D03*
X73568621Y-58837585D03*
X109601000Y-38100000D03*
X84201000Y-57404000D03*
X81153000Y-42164000D03*
X65024000Y-43688000D03*
X132943600Y-33324800D03*
X156464000Y-65328800D03*
X103886000Y-31877000D03*
X83312000Y-47371000D03*
X140817600Y-44145200D03*
X146558000Y-33426400D03*
X142494000Y-43129200D03*
X127762000Y-32054800D03*
X101854000Y-61341000D03*
X81788000Y-44323000D03*
X71628000Y-66548000D03*
X87122000Y-42926000D03*
X151333200Y-57454800D03*
X159054800Y-38455600D03*
X113030000Y-59791600D03*
X143916400Y-30480000D03*
X94894400Y-65582800D03*
X102362000Y-37846000D03*
X89281000Y-53721000D03*
X103124000Y-58801000D03*
X69088000Y-57912000D03*
X75692000Y-62738000D03*
X62357000Y-22225000D03*
X159105600Y-45313600D03*
X110490000Y-64211200D03*
X159613600Y-62585600D03*
X112725200Y-37896800D03*
X102616000Y-51689000D03*
X66802000Y-62230000D03*
X60833000Y-46609000D03*
X77978000Y-56769000D03*
X143713200Y-65582800D03*
X87122000Y-66167000D03*
X58420000Y-34798000D03*
X90424000Y-58420000D03*
X112674400Y-46990000D03*
X106299000Y-28067000D03*
X109601000Y-45720000D03*
X98196400Y-22301200D03*
X88900000Y-56896000D03*
X92100400Y-63449200D03*
X146558000Y-35712400D03*
X109474000Y-22199600D03*
X128905000Y-58801000D03*
X98552000Y-66903600D03*
X136245600Y-24942800D03*
X130302000Y-21844000D03*
X71628000Y-54229000D03*
X152755600Y-44754800D03*
X134010400Y-65633600D03*
X71501000Y-36068000D03*
X103378000Y-61595000D03*
X85090000Y-55626000D03*
X112623600Y-32969200D03*
X128473200Y-30327600D03*
X77978000Y-46228000D03*
X96520000Y-57912000D03*
X109474000Y-53721000D03*
X145542000Y-42976800D03*
X139750800Y-61925200D03*
X69596000Y-26797000D03*
X145846800Y-46329600D03*
X68463780Y-21836000D03*
X100457000Y-28067000D03*
X77470000Y-42672000D03*
X151282400Y-65582800D03*
X134467600Y-57251600D03*
X106172000Y-45593000D03*
X123393200Y-65532000D03*
X139598400Y-26924000D03*
X116713000Y-22733000D03*
X103378000Y-60198000D03*
X92710000Y-60706000D03*
X92202000Y-38608000D03*
X157327600Y-21640800D03*
X119888000Y-65582800D03*
X105460800Y-65582800D03*
X112674400Y-42113200D03*
X161340800Y-44297600D03*
X90119200Y-64008000D03*
X59309000Y-26797000D03*
X146608800Y-27076400D03*
X139446000Y-65633600D03*
X158902400Y-28854400D03*
X133146800Y-38963600D03*
X128371600Y-26822400D03*
X146405600Y-54914800D03*
X137769600Y-28244800D03*
X144475200Y-37084000D03*
X62230000Y-43561000D03*
X62738000Y-66675000D03*
X79248000Y-44323000D03*
X120904000Y-61925200D03*
X140004800Y-46380400D03*
X142798800Y-46075600D03*
X145288000Y-52425600D03*
X73025000Y-42418000D03*
X105664000Y-53467000D03*
X87376000Y-23368000D03*
X159054800Y-48971200D03*
X91821000Y-26543000D03*
X148183600Y-65735200D03*
X139852400Y-30632400D03*
X65913000Y-25019000D03*
X72263000Y-50546000D03*
X112572800Y-57251600D03*
X65278000Y-46355000D03*
X84074000Y-27051000D03*
X153873200Y-61925200D03*
X79756000Y-51308000D03*
X58293000Y-42164000D03*
X77216000Y-27940000D03*
X70231000Y-41021000D03*
X159207200Y-33020000D03*
X58293000Y-62611000D03*
X89027000Y-45593000D03*
X138887200Y-57302400D03*
X144424400Y-21742400D03*
X156337000Y-23114000D03*
X64135000Y-35814000D03*
X151434800Y-54356000D03*
X102489000Y-40767000D03*
X129133600Y-65582800D03*
X93599000Y-57531000D03*
X110388400Y-61823600D03*
X161340800Y-56743600D03*
X70993000Y-46355000D03*
X91948000Y-23368000D03*
X141478000Y-41554400D03*
X62992000Y-40132000D03*
X66929000Y-66675000D03*
X84836000Y-53135000D03*
X129133600Y-34950400D03*
X161290000Y-50495200D03*
X82550000Y-55753000D03*
X143002000Y-27076400D03*
X146253200Y-44653200D03*
X102997000Y-47371000D03*
X89408000Y-33782000D03*
X132994400Y-46228000D03*
X81958971Y-65486697D03*
X64389000Y-55118000D03*
X76200000Y-66675000D03*
X112725200Y-50800000D03*
X136855200Y-21793200D03*
X61849000Y-61976000D03*
X60579000Y-36449000D03*
X63627000Y-29337000D03*
X161340800Y-38303200D03*
X81534000Y-53213000D03*
X151485600Y-46786800D03*
X82550000Y-49276000D03*
X116382800Y-65938400D03*
X82804000Y-24130000D03*
X108966000Y-32131000D03*
X85344000Y-63373000D03*
X161340800Y-28600400D03*
X94234000Y-55880000D03*
X109093000Y-41148000D03*
X75795142Y-21836000D03*
X113538000Y-27686000D03*
X86995000Y-54864000D03*
X96139000Y-35179000D03*
X99872800Y-65633600D03*
X94107000Y-62103000D03*
X147828000Y-44805600D03*
X89281000Y-38354000D03*
X159207200Y-56540400D03*
X135890000Y-46329600D03*
X108661200Y-63550800D03*
X138074400Y-37084000D03*
X153517600Y-65532000D03*
X136956800Y-42164000D03*
X129082800Y-57251600D03*
X138887200Y-42214800D03*
X115620800Y-61874400D03*
X132588000Y-61925200D03*
X134874000Y-44196000D03*
X65532000Y-40386000D03*
X92583000Y-32131000D03*
X159156400Y-52882800D03*
X71374000Y-63627000D03*
X87680800Y-61417200D03*
X128422400Y-38963600D03*
X157226000Y-58801000D03*
X132638800Y-31089600D03*
X161137600Y-25095200D03*
X64643000Y-32512000D03*
X102461177Y-53822642D03*
X133908800Y-51358800D03*
X137541000Y-49403000D03*
X96647000Y-61595000D03*
X60325000Y-53975000D03*
X85598000Y-48768000D03*
X72517000Y-27432000D03*
X85471000Y-58674000D03*
X128320800Y-28143200D03*
X74803000Y-54483000D03*
X141122400Y-37084000D03*
X161290000Y-61264800D03*
X77343000Y-57912000D03*
X105664000Y-40894000D03*
X157276800Y-61823600D03*
X142494000Y-24130000D03*
X88773000Y-27940000D03*
X159258000Y-59791600D03*
X98044000Y-31623000D03*
X83126503Y-21836000D03*
X88950800Y-60299600D03*
X133858000Y-27736800D03*
X58928000Y-29591000D03*
X146608800Y-30835600D03*
X128524000Y-55499000D03*
X79248000Y-47752000D03*
X67884153Y-29613710D03*
X109601000Y-50038000D03*
X117246400Y-59842400D03*
X145084800Y-57048400D03*
X77724000Y-24003000D03*
X93014800Y-66751200D03*
X135077200Y-37084000D03*
X147574000Y-61925200D03*
X145034000Y-41554400D03*
X135331200Y-30734000D03*
X157276800Y-27127200D03*
%TO.N,+3.3V*%
X111555330Y-31369000D03*
%TO.N,Net-(U1-SW)*%
X100965000Y-52705000D03*
X100963314Y-53340000D03*
X96647000Y-37846000D03*
%TO.N,CAN_L*%
X81534000Y-55753000D03*
%TO.N,CAN_H*%
X79629000Y-55753000D03*
%TO.N,CAN_RX*%
X118567200Y-62382400D03*
X84597304Y-50911696D03*
%TO.N,OW_DATA*%
X117475000Y-33401000D03*
%TO.N,SPI_CS2*%
X122174000Y-39497000D03*
%TO.N,SP1_CS1*%
X117686150Y-44763869D03*
%TO.N,STRAP_0*%
X145796000Y-37846000D03*
%TO.N,ADC_1*%
X156464000Y-39243000D03*
%TO.N,STRAP_2*%
X145796000Y-39497000D03*
%TO.N,PWM_3*%
X116967000Y-54483000D03*
%TO.N,ADC_2*%
X123444000Y-44196000D03*
%TO.N,PWM_4*%
X117348000Y-49022000D03*
%TO.N,I2C1_SDA*%
X130556000Y-34036000D03*
%TO.N,I2C1_SCL*%
X130556000Y-32258000D03*
%TO.N,GPIO_3*%
X117803531Y-45991969D03*
%TO.N,USART1_RX*%
X130556000Y-46990000D03*
%TO.N,USART1_TX*%
X130429000Y-45466000D03*
%TO.N,PWM_1*%
X146050000Y-48768000D03*
%TO.N,PWM_2*%
X154051000Y-49530000D03*
%TO.N,SPI2_MISO*%
X147701000Y-50165000D03*
%TO.N,SPI2_MOSI*%
X117252681Y-47244000D03*
%TO.N,GPIO_4*%
X128651000Y-52070000D03*
%TO.N,SPI2_SCK*%
X116586000Y-48006000D03*
%TD*%
%TO.N,GND*%
D14*
X154353000Y-35314000D02*
X155623000Y-35314000D01*
D15*
X156040041Y-30226000D02*
X155702000Y-30226000D01*
%TO.N,+3.3V*%
D16*
X150661929Y-30226364D02*
X149098364Y-30226364D01*
X111555330Y-31369000D02*
X112690330Y-30234000D01*
X149098364Y-30226364D02*
X148156000Y-29284000D01*
X121013000Y-29284000D02*
X120063000Y-30234000D01*
D17*
X151671473Y-30226000D02*
X150662000Y-30226000D01*
D16*
X112690330Y-30234000D02*
X120063000Y-30234000D01*
X148156000Y-29284000D02*
X121013000Y-29284000D01*
%TO.N,Net-(U1-SW)*%
D18*
X101346000Y-52324000D02*
X101346000Y-39276077D01*
X100963314Y-53340000D02*
X100963314Y-52706686D01*
X101346000Y-39276077D02*
X99915923Y-37846000D01*
X99915923Y-37846000D02*
X96647000Y-37846000D01*
X100963314Y-52706686D02*
X101346000Y-52324000D01*
%TO.N,CAN_L*%
D19*
X70730530Y-32997687D02*
X69877602Y-32896686D01*
X70763447Y-33006278D02*
X70730530Y-32997687D01*
X69784432Y-32643476D02*
X69550000Y-32508126D01*
X69550000Y-32508126D02*
X69550000Y-31520000D01*
X69877602Y-32896686D02*
X69863000Y-32895825D01*
X80703384Y-42932847D02*
X70803733Y-33033196D01*
X70803733Y-33033196D02*
X70763447Y-33006278D01*
X80739754Y-55245000D02*
X81026000Y-55245000D01*
X80739754Y-43020652D02*
X80730302Y-42973133D01*
X80730302Y-42973133D02*
X80703384Y-42932847D01*
X81026000Y-55245000D02*
X81534000Y-55753000D01*
X69837089Y-32895825D02*
X69784432Y-32643476D01*
X80739754Y-43020652D02*
X80739754Y-55245000D01*
X69863000Y-32895825D02*
X69837089Y-32895825D01*
%TO.N,CAN_H*%
X80398083Y-43110742D02*
X70615460Y-33328119D01*
X70615460Y-33328119D02*
X69864327Y-33239172D01*
X69784432Y-33396524D02*
X69550000Y-33531874D01*
X80076845Y-55305155D02*
X79629000Y-55753000D01*
X69550000Y-33531874D02*
X69550000Y-34520000D01*
X80398083Y-55305155D02*
X80076845Y-55305155D01*
X69815124Y-33249439D02*
X69784432Y-33396524D01*
X80398083Y-55305155D02*
X80398083Y-43110742D01*
X69864327Y-33239172D02*
X69815124Y-33249439D01*
%TO.N,CAN_RX*%
D15*
X87440955Y-53755347D02*
X84597304Y-50911696D01*
X118364000Y-62585600D02*
X96313405Y-62585600D01*
X96313405Y-62585600D02*
X87483152Y-53755347D01*
X87483152Y-53755347D02*
X87440955Y-53755347D01*
X118567200Y-62382400D02*
X118364000Y-62585600D01*
%TO.N,OW_DATA*%
D20*
X120063000Y-37854000D02*
X117475000Y-35266000D01*
X117475000Y-35266000D02*
X117475000Y-33401000D01*
%TO.N,SPI_CS2*%
X122174000Y-44831000D02*
X122174000Y-39497000D01*
X122817000Y-45474000D02*
X122174000Y-44831000D01*
X125103000Y-45474000D02*
X122817000Y-45474000D01*
%TO.N,SP1_CS1*%
X117686150Y-45169150D02*
X117991000Y-45474000D01*
X117686150Y-44763869D02*
X117686150Y-45169150D01*
X117991000Y-45474000D02*
X120063000Y-45474000D01*
%TO.N,STRAP_0*%
X148336000Y-33020000D02*
X148589636Y-32766364D01*
X148336000Y-35306000D02*
X148336000Y-33020000D01*
D14*
X150113636Y-32766364D02*
X150661929Y-32766364D01*
D20*
X145796000Y-37846000D02*
X148336000Y-35306000D01*
X148589636Y-32766364D02*
X150661929Y-32766364D01*
%TO.N,ADC_1*%
X155701929Y-40005071D02*
X155701929Y-40386364D01*
X156464000Y-39243000D02*
X155701929Y-40005071D01*
%TO.N,STRAP_2*%
X149986636Y-35306364D02*
X150661929Y-35306364D01*
X145796000Y-39497000D02*
X149986636Y-35306364D01*
%TO.N,PWM_3*%
X116967000Y-54483000D02*
X123952000Y-54483000D01*
X123952000Y-54483000D02*
X125103000Y-55634000D01*
%TO.N,ADC_2*%
X140773182Y-42175514D02*
X138240818Y-39643150D01*
X122936000Y-43815000D02*
X123317000Y-44196000D01*
X155701929Y-42926364D02*
X154951079Y-42175514D01*
X123317000Y-44196000D02*
X123444000Y-44196000D01*
X122936000Y-40059300D02*
X122936000Y-43815000D01*
X138240818Y-39643150D02*
X123352150Y-39643150D01*
X123352150Y-39643150D02*
X122936000Y-40059300D01*
X154951079Y-42175514D02*
X140773182Y-42175514D01*
%TO.N,PWM_4*%
X116416150Y-49826850D02*
X117221000Y-49022000D01*
X119878980Y-58174000D02*
X116416150Y-54711170D01*
X120063000Y-58174000D02*
X119878980Y-58174000D01*
X117221000Y-49022000D02*
X117348000Y-49022000D01*
X116416150Y-54711170D02*
X116416150Y-49826850D01*
%TO.N,I2C1_SDA*%
X123879300Y-34036000D02*
X122601300Y-35314000D01*
X122601300Y-35314000D02*
X120063000Y-35314000D01*
X130556000Y-34036000D02*
X123879300Y-34036000D01*
%TO.N,I2C1_SCL*%
X130556000Y-32258000D02*
X130040000Y-32774000D01*
X130040000Y-32774000D02*
X125103000Y-32774000D01*
%TO.N,GPIO_3*%
X117803531Y-45991969D02*
X117803531Y-48294531D01*
X117803531Y-48294531D02*
X120063000Y-50554000D01*
%TO.N,USART1_RX*%
X130556000Y-46990000D02*
X129532000Y-48014000D01*
X129532000Y-48014000D02*
X125103000Y-48014000D01*
%TO.N,USART1_TX*%
X121852150Y-46224850D02*
X120063000Y-48014000D01*
X129670150Y-46224850D02*
X121852150Y-46224850D01*
X130429000Y-45466000D02*
X129670150Y-46224850D01*
%TO.N,PWM_1*%
X141724000Y-53094000D02*
X146050000Y-48768000D01*
X125103000Y-53094000D02*
X141724000Y-53094000D01*
%TO.N,PWM_2*%
X120813850Y-56384850D02*
X147196150Y-56384850D01*
X147196150Y-56384850D02*
X154051000Y-49530000D01*
X120063000Y-55634000D02*
X120813850Y-56384850D01*
%TO.N,SPI2_MISO*%
X147701000Y-49530000D02*
X147701000Y-50165000D01*
X125103000Y-40394000D02*
X138565000Y-40394000D01*
X138565000Y-40394000D02*
X147701000Y-49530000D01*
%TO.N,SPI2_MOSI*%
X117094000Y-44577000D02*
X118737000Y-42934000D01*
X118737000Y-42934000D02*
X120063000Y-42934000D01*
X117252681Y-47244000D02*
X117094000Y-47085319D01*
X117094000Y-47085319D02*
X117094000Y-44577000D01*
%TO.N,GPIO_4*%
X128651000Y-52070000D02*
X127135000Y-50554000D01*
X127135000Y-50554000D02*
X125103000Y-50554000D01*
%TO.N,SPI2_SCK*%
X116586000Y-42164000D02*
X118356000Y-40394000D01*
X116586000Y-48006000D02*
X116586000Y-42164000D01*
X118356000Y-40394000D02*
X120063000Y-40394000D01*
%TD*%
%TA.AperFunction,Conductor*%
%TO.N,GND*%
G36*
X138435143Y-40765035D02*
G01*
X138455785Y-40781669D01*
X145744726Y-48070610D01*
X145778211Y-48131933D01*
X145773227Y-48201625D01*
X145731355Y-48257558D01*
X145719046Y-48265678D01*
X145681284Y-48287479D01*
X145569481Y-48399282D01*
X145569475Y-48399290D01*
X145490426Y-48536209D01*
X145490423Y-48536216D01*
X145449500Y-48688943D01*
X145449500Y-48820253D01*
X145429815Y-48887292D01*
X145413181Y-48907934D01*
X141614785Y-52706331D01*
X141553462Y-52739816D01*
X141527104Y-52742650D01*
X129126948Y-52742650D01*
X129059909Y-52722965D01*
X129014154Y-52670161D01*
X129004210Y-52601003D01*
X129033235Y-52537447D01*
X129039267Y-52530969D01*
X129049690Y-52520546D01*
X129131520Y-52438716D01*
X129210577Y-52301784D01*
X129251500Y-52149057D01*
X129251500Y-51990943D01*
X129210577Y-51838216D01*
X129189900Y-51802402D01*
X129131524Y-51701290D01*
X129131518Y-51701282D01*
X129019717Y-51589481D01*
X129019709Y-51589475D01*
X128882790Y-51510426D01*
X128882786Y-51510424D01*
X128882784Y-51510423D01*
X128730057Y-51469500D01*
X128598746Y-51469500D01*
X128531707Y-51449815D01*
X128511065Y-51433181D01*
X127350735Y-50272851D01*
X127350730Y-50272847D01*
X127270618Y-50226595D01*
X127270617Y-50226594D01*
X127270616Y-50226594D01*
X127181256Y-50202650D01*
X127181254Y-50202650D01*
X127027499Y-50202650D01*
X126960460Y-50182965D01*
X126914705Y-50130161D01*
X126903499Y-50078650D01*
X126903499Y-50009143D01*
X126903499Y-50009136D01*
X126903497Y-50009117D01*
X126900586Y-49984012D01*
X126900585Y-49984010D01*
X126900585Y-49984009D01*
X126855206Y-49881235D01*
X126775765Y-49801794D01*
X126763286Y-49796284D01*
X126672992Y-49756415D01*
X126647865Y-49753500D01*
X123558143Y-49753500D01*
X123558117Y-49753502D01*
X123533012Y-49756413D01*
X123533008Y-49756415D01*
X123430235Y-49801793D01*
X123350794Y-49881234D01*
X123305415Y-49984006D01*
X123305415Y-49984008D01*
X123302500Y-50009131D01*
X123302500Y-51098856D01*
X123302502Y-51098882D01*
X123305413Y-51123987D01*
X123305415Y-51123991D01*
X123350793Y-51226764D01*
X123350794Y-51226765D01*
X123430235Y-51306206D01*
X123533009Y-51351585D01*
X123558135Y-51354500D01*
X126647864Y-51354499D01*
X126647879Y-51354497D01*
X126647882Y-51354497D01*
X126672987Y-51351586D01*
X126672988Y-51351585D01*
X126672991Y-51351585D01*
X126775765Y-51306206D01*
X126855206Y-51226765D01*
X126900585Y-51123991D01*
X126903004Y-51103134D01*
X126930282Y-51038812D01*
X126988006Y-50999446D01*
X127057850Y-50997537D01*
X127113859Y-51029743D01*
X128014181Y-51930065D01*
X128047666Y-51991388D01*
X128050500Y-52017746D01*
X128050500Y-52149057D01*
X128089985Y-52296415D01*
X128091423Y-52301783D01*
X128091426Y-52301790D01*
X128170475Y-52438709D01*
X128170481Y-52438717D01*
X128262733Y-52530969D01*
X128296218Y-52592292D01*
X128291234Y-52661984D01*
X128249362Y-52717917D01*
X128183898Y-52742334D01*
X128175052Y-52742650D01*
X127027499Y-52742650D01*
X126960460Y-52722965D01*
X126914705Y-52670161D01*
X126903499Y-52618650D01*
X126903499Y-52549143D01*
X126903499Y-52549136D01*
X126903497Y-52549117D01*
X126900586Y-52524012D01*
X126900585Y-52524010D01*
X126900585Y-52524009D01*
X126855206Y-52421235D01*
X126775765Y-52341794D01*
X126767107Y-52337971D01*
X126672992Y-52296415D01*
X126647865Y-52293500D01*
X123558143Y-52293500D01*
X123558117Y-52293502D01*
X123533012Y-52296413D01*
X123533008Y-52296415D01*
X123430235Y-52341793D01*
X123350794Y-52421234D01*
X123305415Y-52524006D01*
X123305415Y-52524008D01*
X123302500Y-52549131D01*
X123302500Y-53638856D01*
X123302502Y-53638882D01*
X123305413Y-53663987D01*
X123305415Y-53663991D01*
X123350793Y-53766764D01*
X123350794Y-53766765D01*
X123430235Y-53846206D01*
X123501388Y-53877623D01*
X123538967Y-53894216D01*
X123592343Y-53939302D01*
X123612870Y-54006088D01*
X123594032Y-54073370D01*
X123541808Y-54119787D01*
X123488880Y-54131650D01*
X117516248Y-54131650D01*
X117449209Y-54111965D01*
X117428567Y-54095331D01*
X117335717Y-54002481D01*
X117335709Y-54002475D01*
X117198790Y-53923426D01*
X117198786Y-53923424D01*
X117198784Y-53923423D01*
X117046057Y-53882500D01*
X116891500Y-53882500D01*
X116824461Y-53862815D01*
X116778706Y-53810011D01*
X116767500Y-53758500D01*
X116767500Y-50023745D01*
X116787185Y-49956706D01*
X116803815Y-49936068D01*
X117098790Y-49641092D01*
X117160111Y-49607609D01*
X117218561Y-49608999D01*
X117268943Y-49622500D01*
X117268945Y-49622500D01*
X117427055Y-49622500D01*
X117427057Y-49622500D01*
X117579784Y-49581577D01*
X117716716Y-49502520D01*
X117828520Y-49390716D01*
X117907577Y-49253784D01*
X117927712Y-49178636D01*
X117964075Y-49118979D01*
X118026922Y-49088449D01*
X118096298Y-49096743D01*
X118135167Y-49123051D01*
X118558582Y-49546466D01*
X118592067Y-49607789D01*
X118587083Y-49677481D01*
X118545211Y-49733414D01*
X118501194Y-49750956D01*
X118502013Y-49753965D01*
X118493008Y-49756415D01*
X118390235Y-49801793D01*
X118310794Y-49881234D01*
X118265415Y-49984006D01*
X118265415Y-49984008D01*
X118262500Y-50009131D01*
X118262500Y-51098856D01*
X118262502Y-51098882D01*
X118265413Y-51123987D01*
X118265415Y-51123991D01*
X118310793Y-51226764D01*
X118310794Y-51226765D01*
X118390235Y-51306206D01*
X118493009Y-51351585D01*
X118518135Y-51354500D01*
X121607864Y-51354499D01*
X121607879Y-51354497D01*
X121607882Y-51354497D01*
X121632987Y-51351586D01*
X121632988Y-51351585D01*
X121632991Y-51351585D01*
X121735765Y-51306206D01*
X121815206Y-51226765D01*
X121860585Y-51123991D01*
X121863500Y-51098865D01*
X121863499Y-50009136D01*
X121863497Y-50009117D01*
X121860586Y-49984012D01*
X121860585Y-49984010D01*
X121860585Y-49984009D01*
X121815206Y-49881235D01*
X121735765Y-49801794D01*
X121723286Y-49796284D01*
X121632992Y-49756415D01*
X121607868Y-49753500D01*
X121607865Y-49753500D01*
X119810746Y-49753500D01*
X119743707Y-49733815D01*
X119723065Y-49717181D01*
X119032064Y-49026180D01*
X118998579Y-48964857D01*
X119003563Y-48895165D01*
X119045435Y-48839232D01*
X119110899Y-48814815D01*
X119119745Y-48814499D01*
X121607856Y-48814499D01*
X121607864Y-48814499D01*
X121607879Y-48814497D01*
X121607882Y-48814497D01*
X121632987Y-48811586D01*
X121632988Y-48811585D01*
X121632991Y-48811585D01*
X121735765Y-48766206D01*
X121815206Y-48686765D01*
X121860585Y-48583991D01*
X121863500Y-48558865D01*
X121863499Y-47469136D01*
X121862063Y-47456752D01*
X121860586Y-47444012D01*
X121860585Y-47444010D01*
X121860585Y-47444009D01*
X121815206Y-47341235D01*
X121735765Y-47261794D01*
X121735763Y-47261793D01*
X121632993Y-47216415D01*
X121623993Y-47213967D01*
X121624911Y-47210591D01*
X121576424Y-47189994D01*
X121537095Y-47132245D01*
X121535230Y-47062400D01*
X121567414Y-47006469D01*
X121961365Y-46612519D01*
X122022688Y-46579034D01*
X122049046Y-46576200D01*
X129716403Y-46576200D01*
X129716406Y-46576200D01*
X129805766Y-46552256D01*
X129869343Y-46515549D01*
X129937242Y-46499077D01*
X130003269Y-46521929D01*
X130046459Y-46576850D01*
X130053101Y-46646404D01*
X130038730Y-46684935D01*
X129996425Y-46758211D01*
X129996423Y-46758216D01*
X129955500Y-46910943D01*
X129955500Y-47042253D01*
X129935815Y-47109292D01*
X129919181Y-47129934D01*
X129422785Y-47626331D01*
X129361462Y-47659816D01*
X129335104Y-47662650D01*
X127027499Y-47662650D01*
X126960460Y-47642965D01*
X126914705Y-47590161D01*
X126903499Y-47538650D01*
X126903499Y-47469143D01*
X126903499Y-47469136D01*
X126902063Y-47456752D01*
X126900586Y-47444012D01*
X126900585Y-47444010D01*
X126900585Y-47444009D01*
X126855206Y-47341235D01*
X126775765Y-47261794D01*
X126775763Y-47261793D01*
X126672992Y-47216415D01*
X126647865Y-47213500D01*
X123558143Y-47213500D01*
X123558117Y-47213502D01*
X123533012Y-47216413D01*
X123533008Y-47216415D01*
X123430235Y-47261793D01*
X123350794Y-47341234D01*
X123305415Y-47444006D01*
X123305415Y-47444008D01*
X123302500Y-47469131D01*
X123302500Y-48558856D01*
X123302502Y-48558882D01*
X123305413Y-48583987D01*
X123305415Y-48583991D01*
X123350793Y-48686764D01*
X123350794Y-48686765D01*
X123430235Y-48766206D01*
X123533009Y-48811585D01*
X123558135Y-48814500D01*
X126647864Y-48814499D01*
X126647879Y-48814497D01*
X126647882Y-48814497D01*
X126672987Y-48811586D01*
X126672988Y-48811585D01*
X126672991Y-48811585D01*
X126775765Y-48766206D01*
X126855206Y-48686765D01*
X126900585Y-48583991D01*
X126903500Y-48558865D01*
X126903500Y-48489350D01*
X126923185Y-48422311D01*
X126975989Y-48376556D01*
X127027500Y-48365350D01*
X129578253Y-48365350D01*
X129578256Y-48365350D01*
X129667616Y-48341406D01*
X129747734Y-48295150D01*
X130416064Y-47626818D01*
X130477387Y-47593334D01*
X130503745Y-47590500D01*
X130635055Y-47590500D01*
X130635057Y-47590500D01*
X130787784Y-47549577D01*
X130924716Y-47470520D01*
X131036520Y-47358716D01*
X131115577Y-47221784D01*
X131156500Y-47069057D01*
X131156500Y-46910943D01*
X131115577Y-46758216D01*
X131073269Y-46684935D01*
X131036524Y-46621290D01*
X131036518Y-46621282D01*
X130924717Y-46509481D01*
X130924709Y-46509475D01*
X130787790Y-46430426D01*
X130787786Y-46430424D01*
X130787784Y-46430423D01*
X130635057Y-46389500D01*
X130476943Y-46389500D01*
X130324216Y-46430423D01*
X130324211Y-46430425D01*
X130281610Y-46455020D01*
X130213709Y-46471491D01*
X130147683Y-46448638D01*
X130104493Y-46393716D01*
X130097853Y-46324162D01*
X130129871Y-46262060D01*
X130131830Y-46260053D01*
X130289066Y-46102816D01*
X130350387Y-46069334D01*
X130376745Y-46066500D01*
X130508055Y-46066500D01*
X130508057Y-46066500D01*
X130660784Y-46025577D01*
X130797716Y-45946520D01*
X130909520Y-45834716D01*
X130988577Y-45697784D01*
X131029500Y-45545057D01*
X131029500Y-45386943D01*
X130988577Y-45234216D01*
X130919053Y-45113795D01*
X130909524Y-45097290D01*
X130909518Y-45097282D01*
X130797717Y-44985481D01*
X130797709Y-44985475D01*
X130660790Y-44906426D01*
X130660786Y-44906424D01*
X130660784Y-44906423D01*
X130508057Y-44865500D01*
X130349943Y-44865500D01*
X130197216Y-44906423D01*
X130197209Y-44906426D01*
X130060290Y-44985475D01*
X130060282Y-44985481D01*
X129948481Y-45097282D01*
X129948475Y-45097290D01*
X129869426Y-45234209D01*
X129869423Y-45234216D01*
X129828500Y-45386943D01*
X129828500Y-45518253D01*
X129808815Y-45585292D01*
X129792181Y-45605934D01*
X129560935Y-45837181D01*
X129499612Y-45870666D01*
X129473254Y-45873500D01*
X127027500Y-45873500D01*
X126960461Y-45853815D01*
X126914706Y-45801011D01*
X126903500Y-45749500D01*
X126903499Y-44929143D01*
X126903499Y-44929136D01*
X126903497Y-44929117D01*
X126900586Y-44904012D01*
X126900585Y-44904010D01*
X126900585Y-44904009D01*
X126855206Y-44801235D01*
X126775765Y-44721794D01*
X126727131Y-44700320D01*
X126672992Y-44676415D01*
X126647868Y-44673500D01*
X126647865Y-44673500D01*
X124076487Y-44673500D01*
X124009448Y-44653815D01*
X123963693Y-44601011D01*
X123953749Y-44531853D01*
X123969100Y-44487500D01*
X124003577Y-44427784D01*
X124044500Y-44275057D01*
X124044500Y-44116943D01*
X124003577Y-43964216D01*
X123944134Y-43861256D01*
X123924524Y-43827290D01*
X123924518Y-43827282D01*
X123812717Y-43715481D01*
X123812709Y-43715475D01*
X123675790Y-43636426D01*
X123675786Y-43636424D01*
X123675784Y-43636423D01*
X123523057Y-43595500D01*
X123411350Y-43595500D01*
X123344311Y-43575815D01*
X123298556Y-43523011D01*
X123287350Y-43471500D01*
X123287350Y-41273416D01*
X123307035Y-41206377D01*
X123359839Y-41160622D01*
X123428997Y-41150678D01*
X123461428Y-41159979D01*
X123533009Y-41191585D01*
X123558135Y-41194500D01*
X126647864Y-41194499D01*
X126647879Y-41194497D01*
X126647882Y-41194497D01*
X126672987Y-41191586D01*
X126672988Y-41191585D01*
X126672991Y-41191585D01*
X126775765Y-41146206D01*
X126855206Y-41066765D01*
X126900585Y-40963991D01*
X126903500Y-40938865D01*
X126903500Y-40869350D01*
X126923185Y-40802311D01*
X126975989Y-40756556D01*
X127027500Y-40745350D01*
X138368104Y-40745350D01*
X138435143Y-40765035D01*
G37*
%TD.AperFunction*%
%TA.AperFunction,Conductor*%
G36*
X112455476Y-21348185D02*
G01*
X112501231Y-21400989D01*
X112511175Y-21470147D01*
X112482150Y-21533703D01*
X112463924Y-21550875D01*
X112391148Y-21606718D01*
X112205718Y-21792148D01*
X112046075Y-22000196D01*
X111914958Y-22227299D01*
X111914953Y-22227309D01*
X111814605Y-22469571D01*
X111814602Y-22469581D01*
X111761263Y-22668648D01*
X111746730Y-22722885D01*
X111712500Y-22982872D01*
X111712500Y-23245127D01*
X111725008Y-23340127D01*
X111746730Y-23505116D01*
X111800072Y-23704191D01*
X111814602Y-23758418D01*
X111814605Y-23758428D01*
X111914953Y-24000690D01*
X111914958Y-24000700D01*
X112046075Y-24227803D01*
X112205718Y-24435851D01*
X112205726Y-24435860D01*
X112391140Y-24621274D01*
X112391148Y-24621281D01*
X112599196Y-24780924D01*
X112826299Y-24912041D01*
X112826309Y-24912046D01*
X113068571Y-25012394D01*
X113068581Y-25012398D01*
X113321884Y-25080270D01*
X113581880Y-25114500D01*
X113581887Y-25114500D01*
X113844113Y-25114500D01*
X113844120Y-25114500D01*
X114104116Y-25080270D01*
X114357419Y-25012398D01*
X114599697Y-24912043D01*
X114826803Y-24780924D01*
X115034851Y-24621282D01*
X115034855Y-24621277D01*
X115034860Y-24621274D01*
X115220274Y-24435860D01*
X115220277Y-24435855D01*
X115220282Y-24435851D01*
X115379924Y-24227803D01*
X115511043Y-24000697D01*
X115533508Y-23946463D01*
X115611394Y-23758428D01*
X115611398Y-23758419D01*
X115679270Y-23505116D01*
X115713500Y-23245120D01*
X115713500Y-22982880D01*
X115679270Y-22722884D01*
X115611398Y-22469581D01*
X115611394Y-22469571D01*
X115511046Y-22227309D01*
X115511041Y-22227299D01*
X115379924Y-22000196D01*
X115220281Y-21792148D01*
X115220274Y-21792140D01*
X115034860Y-21606726D01*
X115034851Y-21606718D01*
X114962076Y-21550875D01*
X114920873Y-21494447D01*
X114916719Y-21424701D01*
X114950932Y-21363781D01*
X115012650Y-21331029D01*
X115037563Y-21328500D01*
X158055465Y-21328500D01*
X158122504Y-21348185D01*
X158168259Y-21400989D01*
X158178203Y-21470147D01*
X158149178Y-21533703D01*
X158130957Y-21550870D01*
X158128859Y-21552481D01*
X158128854Y-21552485D01*
X157943428Y-21737911D01*
X157783785Y-21945959D01*
X157652668Y-22173062D01*
X157652663Y-22173072D01*
X157552315Y-22415334D01*
X157552312Y-22415344D01*
X157506217Y-22587376D01*
X157484440Y-22668648D01*
X157450210Y-22928635D01*
X157450210Y-23190890D01*
X157469474Y-23337207D01*
X157484440Y-23450879D01*
X157552312Y-23704181D01*
X157552315Y-23704191D01*
X157652663Y-23946453D01*
X157652668Y-23946463D01*
X157783785Y-24173566D01*
X157943428Y-24381614D01*
X157943436Y-24381623D01*
X158128850Y-24567037D01*
X158128858Y-24567044D01*
X158336906Y-24726687D01*
X158564009Y-24857804D01*
X158564019Y-24857809D01*
X158806281Y-24958157D01*
X158806291Y-24958161D01*
X159059594Y-25026033D01*
X159319590Y-25060263D01*
X159319597Y-25060263D01*
X159581823Y-25060263D01*
X159581830Y-25060263D01*
X159841826Y-25026033D01*
X160095129Y-24958161D01*
X160314530Y-24867282D01*
X160337400Y-24857809D01*
X160337401Y-24857808D01*
X160337407Y-24857806D01*
X160564513Y-24726687D01*
X160772561Y-24567045D01*
X160772565Y-24567040D01*
X160772570Y-24567037D01*
X160957984Y-24381623D01*
X160957987Y-24381618D01*
X160957992Y-24381614D01*
X161117634Y-24173566D01*
X161248753Y-23946460D01*
X161349108Y-23704182D01*
X161416980Y-23450879D01*
X161431561Y-23340126D01*
X161459828Y-23276231D01*
X161518152Y-23237760D01*
X161588017Y-23236929D01*
X161647240Y-23274001D01*
X161677019Y-23337207D01*
X161678500Y-23356313D01*
X161678500Y-64861965D01*
X161658815Y-64929004D01*
X161606011Y-64974759D01*
X161536853Y-64984703D01*
X161473297Y-64955678D01*
X161435523Y-64896900D01*
X161431561Y-64878151D01*
X161421119Y-64798839D01*
X161399270Y-64632884D01*
X161331398Y-64379581D01*
X161274497Y-64242210D01*
X161231046Y-64137309D01*
X161231041Y-64137299D01*
X161099924Y-63910196D01*
X160940281Y-63702148D01*
X160940274Y-63702140D01*
X160754860Y-63516726D01*
X160754851Y-63516718D01*
X160546803Y-63357075D01*
X160319700Y-63225958D01*
X160319690Y-63225953D01*
X160077428Y-63125605D01*
X160077421Y-63125603D01*
X160077419Y-63125602D01*
X159824116Y-63057730D01*
X159766339Y-63050123D01*
X159564127Y-63023500D01*
X159564120Y-63023500D01*
X159301880Y-63023500D01*
X159301872Y-63023500D01*
X159070772Y-63053926D01*
X159041884Y-63057730D01*
X158788581Y-63125602D01*
X158788571Y-63125605D01*
X158546309Y-63225953D01*
X158546299Y-63225958D01*
X158319196Y-63357075D01*
X158111148Y-63516718D01*
X157925718Y-63702148D01*
X157766075Y-63910196D01*
X157634958Y-64137299D01*
X157634953Y-64137309D01*
X157534605Y-64379571D01*
X157534602Y-64379581D01*
X157466730Y-64632885D01*
X157432500Y-64892872D01*
X157432500Y-65155127D01*
X157453436Y-65314140D01*
X157466730Y-65415116D01*
X157488178Y-65495161D01*
X157534602Y-65668418D01*
X157534605Y-65668428D01*
X157634953Y-65910690D01*
X157634958Y-65910700D01*
X157766075Y-66137803D01*
X157925718Y-66345851D01*
X157925726Y-66345860D01*
X158111140Y-66531274D01*
X158111148Y-66531281D01*
X158319196Y-66690924D01*
X158546299Y-66822041D01*
X158546309Y-66822046D01*
X158788571Y-66922394D01*
X158788581Y-66922398D01*
X159041884Y-66990270D01*
X159301880Y-67024500D01*
X159301887Y-67024500D01*
X159564113Y-67024500D01*
X159564120Y-67024500D01*
X159824116Y-66990270D01*
X160077419Y-66922398D01*
X160319697Y-66822043D01*
X160546803Y-66690924D01*
X160754851Y-66531282D01*
X160754855Y-66531277D01*
X160754860Y-66531274D01*
X160940274Y-66345860D01*
X160940277Y-66345855D01*
X160940282Y-66345851D01*
X161099924Y-66137803D01*
X161231043Y-65910697D01*
X161331398Y-65668419D01*
X161399270Y-65415116D01*
X161431561Y-65169848D01*
X161459828Y-65105952D01*
X161518152Y-65067481D01*
X161588017Y-65066650D01*
X161647240Y-65103722D01*
X161677019Y-65166928D01*
X161678500Y-65186034D01*
X161678500Y-67193500D01*
X161658815Y-67260539D01*
X161606011Y-67306294D01*
X161554500Y-67317500D01*
X60597845Y-67317500D01*
X60530806Y-67297815D01*
X60485051Y-67245011D01*
X60475107Y-67175853D01*
X60504132Y-67112297D01*
X60550393Y-67078939D01*
X60576685Y-67068048D01*
X60576685Y-67068047D01*
X60576697Y-67068043D01*
X60803803Y-66936924D01*
X61011851Y-66777282D01*
X61011855Y-66777277D01*
X61011860Y-66777274D01*
X61197274Y-66591860D01*
X61197277Y-66591855D01*
X61197282Y-66591851D01*
X61356924Y-66383803D01*
X61488043Y-66156697D01*
X61588398Y-65914419D01*
X61656270Y-65661116D01*
X61690500Y-65401120D01*
X61690500Y-65138880D01*
X61656270Y-64878884D01*
X61588398Y-64625581D01*
X61490204Y-64388520D01*
X61488046Y-64383309D01*
X61488041Y-64383299D01*
X61356924Y-64156196D01*
X61197281Y-63948148D01*
X61197274Y-63948140D01*
X61011860Y-63762726D01*
X61011851Y-63762718D01*
X60803803Y-63603075D01*
X60576700Y-63471958D01*
X60576690Y-63471953D01*
X60334428Y-63371605D01*
X60334421Y-63371603D01*
X60334419Y-63371602D01*
X60081116Y-63303730D01*
X60023339Y-63296123D01*
X59821127Y-63269500D01*
X59821120Y-63269500D01*
X59558880Y-63269500D01*
X59558872Y-63269500D01*
X59327772Y-63299926D01*
X59298884Y-63303730D01*
X59099797Y-63357075D01*
X59045581Y-63371602D01*
X59045571Y-63371605D01*
X58803309Y-63471953D01*
X58803299Y-63471958D01*
X58576196Y-63603075D01*
X58368148Y-63762718D01*
X58182718Y-63948148D01*
X58023077Y-64156193D01*
X58008887Y-64180773D01*
X57958319Y-64228988D01*
X57889712Y-64242210D01*
X57824848Y-64216242D01*
X57784320Y-64159328D01*
X57777500Y-64118772D01*
X57777500Y-50685258D01*
X60479500Y-50685258D01*
X60479500Y-50914741D01*
X60492058Y-51010120D01*
X60509452Y-51142238D01*
X60565545Y-51351584D01*
X60568842Y-51363887D01*
X60656650Y-51575876D01*
X60656657Y-51575890D01*
X60771392Y-51774617D01*
X60911081Y-51956661D01*
X60911089Y-51956670D01*
X61073330Y-52118911D01*
X61073338Y-52118918D01*
X61255382Y-52258607D01*
X61255385Y-52258608D01*
X61255388Y-52258611D01*
X61454112Y-52373344D01*
X61454117Y-52373346D01*
X61454123Y-52373349D01*
X61545480Y-52411190D01*
X61666113Y-52461158D01*
X61887762Y-52520548D01*
X62115266Y-52550500D01*
X62115273Y-52550500D01*
X62344727Y-52550500D01*
X62344734Y-52550500D01*
X62572238Y-52520548D01*
X62793887Y-52461158D01*
X63005888Y-52373344D01*
X63204612Y-52258611D01*
X63386661Y-52118919D01*
X63386665Y-52118914D01*
X63386670Y-52118911D01*
X63548911Y-51956670D01*
X63548914Y-51956665D01*
X63548919Y-51956661D01*
X63688611Y-51774612D01*
X63698837Y-51756900D01*
X65499500Y-51756900D01*
X65499500Y-52843091D01*
X65510123Y-52931562D01*
X65565639Y-53072342D01*
X65565640Y-53072344D01*
X65657077Y-53192922D01*
X65707213Y-53230941D01*
X65777658Y-53284361D01*
X65918436Y-53339876D01*
X66006901Y-53350500D01*
X67093098Y-53350499D01*
X67181564Y-53339876D01*
X67322342Y-53284361D01*
X67442922Y-53192922D01*
X67534361Y-53072342D01*
X67589876Y-52931564D01*
X67600500Y-52843099D01*
X67600499Y-52196530D01*
X68499500Y-52196530D01*
X68499500Y-52403466D01*
X68539868Y-52606412D01*
X68539870Y-52606420D01*
X68619058Y-52797596D01*
X68734024Y-52969657D01*
X68880342Y-53115975D01*
X68880345Y-53115977D01*
X69052402Y-53230941D01*
X69243580Y-53310130D01*
X69446530Y-53350499D01*
X69446534Y-53350500D01*
X69446535Y-53350500D01*
X69653466Y-53350500D01*
X69653467Y-53350499D01*
X69856420Y-53310130D01*
X70047598Y-53230941D01*
X70219655Y-53115977D01*
X70263290Y-53072342D01*
X70365976Y-52969657D01*
X70450538Y-52843099D01*
X70480941Y-52797598D01*
X70560130Y-52606420D01*
X70600500Y-52403465D01*
X70600500Y-52196535D01*
X70560130Y-51993580D01*
X70480941Y-51802402D01*
X70365977Y-51630345D01*
X70365975Y-51630342D01*
X70219657Y-51484024D01*
X70082252Y-51392214D01*
X70047598Y-51369059D01*
X70012447Y-51354499D01*
X69856420Y-51289870D01*
X69856412Y-51289868D01*
X69653469Y-51249500D01*
X69653465Y-51249500D01*
X69446535Y-51249500D01*
X69446530Y-51249500D01*
X69243587Y-51289868D01*
X69243579Y-51289870D01*
X69052403Y-51369058D01*
X68880342Y-51484024D01*
X68734024Y-51630342D01*
X68619058Y-51802403D01*
X68539870Y-51993579D01*
X68539868Y-51993587D01*
X68499500Y-52196530D01*
X67600499Y-52196530D01*
X67600499Y-51756902D01*
X67589876Y-51668436D01*
X67534361Y-51527658D01*
X67521294Y-51510426D01*
X67442922Y-51407077D01*
X67322344Y-51315640D01*
X67322342Y-51315639D01*
X67181564Y-51260124D01*
X67181561Y-51260123D01*
X67093099Y-51249500D01*
X66006908Y-51249500D01*
X65918437Y-51260123D01*
X65777657Y-51315639D01*
X65777655Y-51315640D01*
X65657077Y-51407077D01*
X65565640Y-51527655D01*
X65565639Y-51527658D01*
X65541260Y-51589481D01*
X65510124Y-51668437D01*
X65510123Y-51668438D01*
X65499500Y-51756900D01*
X63698837Y-51756900D01*
X63803344Y-51575888D01*
X63891158Y-51363887D01*
X63950548Y-51142238D01*
X63980500Y-50914734D01*
X63980500Y-50685266D01*
X63950548Y-50457762D01*
X63891158Y-50236113D01*
X63828955Y-50085943D01*
X63803349Y-50024123D01*
X63803346Y-50024117D01*
X63803344Y-50024112D01*
X63688611Y-49825388D01*
X63688608Y-49825385D01*
X63688607Y-49825382D01*
X63553487Y-49649292D01*
X63548919Y-49643339D01*
X63548918Y-49643338D01*
X63548911Y-49643330D01*
X63386670Y-49481089D01*
X63386661Y-49481081D01*
X63204617Y-49341392D01*
X63180682Y-49327573D01*
X63005888Y-49226656D01*
X63005876Y-49226650D01*
X62933159Y-49196530D01*
X68499500Y-49196530D01*
X68499500Y-49403469D01*
X68539868Y-49606412D01*
X68539870Y-49606420D01*
X68619058Y-49797596D01*
X68734024Y-49969657D01*
X68880342Y-50115975D01*
X68880345Y-50115977D01*
X69052402Y-50230941D01*
X69243580Y-50310130D01*
X69446530Y-50350499D01*
X69446534Y-50350500D01*
X69446535Y-50350500D01*
X69653466Y-50350500D01*
X69653467Y-50350499D01*
X69856420Y-50310130D01*
X70047598Y-50230941D01*
X70219655Y-50115977D01*
X70365977Y-49969655D01*
X70480941Y-49797598D01*
X70560130Y-49606420D01*
X70600500Y-49403465D01*
X70600500Y-49196535D01*
X70560130Y-48993580D01*
X70480941Y-48802402D01*
X70365977Y-48630345D01*
X70365975Y-48630342D01*
X70219657Y-48484024D01*
X70092830Y-48399282D01*
X70047598Y-48369059D01*
X70035930Y-48364226D01*
X69856420Y-48289870D01*
X69856412Y-48289868D01*
X69653469Y-48249500D01*
X69653465Y-48249500D01*
X69446535Y-48249500D01*
X69446530Y-48249500D01*
X69243587Y-48289868D01*
X69243579Y-48289870D01*
X69052403Y-48369058D01*
X68880342Y-48484024D01*
X68734024Y-48630342D01*
X68619058Y-48802403D01*
X68539870Y-48993579D01*
X68539868Y-48993587D01*
X68499500Y-49196530D01*
X62933159Y-49196530D01*
X62793887Y-49138842D01*
X62785938Y-49136712D01*
X62572238Y-49079452D01*
X62525305Y-49073273D01*
X62344741Y-49049500D01*
X62344734Y-49049500D01*
X62115266Y-49049500D01*
X62115258Y-49049500D01*
X61898715Y-49078009D01*
X61887762Y-49079452D01*
X61814971Y-49098956D01*
X61666112Y-49138842D01*
X61454123Y-49226650D01*
X61454109Y-49226657D01*
X61255382Y-49341392D01*
X61073338Y-49481081D01*
X60911081Y-49643338D01*
X60771392Y-49825382D01*
X60656657Y-50024109D01*
X60656650Y-50024123D01*
X60568842Y-50236112D01*
X60509453Y-50457759D01*
X60509451Y-50457770D01*
X60479500Y-50685258D01*
X57777500Y-50685258D01*
X57777500Y-32905258D01*
X60479500Y-32905258D01*
X60479500Y-33134741D01*
X60501767Y-33303867D01*
X60509452Y-33362238D01*
X60564281Y-33566864D01*
X60568842Y-33583887D01*
X60656650Y-33795876D01*
X60656657Y-33795890D01*
X60771392Y-33994617D01*
X60911081Y-34176661D01*
X60911089Y-34176670D01*
X61073330Y-34338911D01*
X61073338Y-34338918D01*
X61255382Y-34478607D01*
X61255385Y-34478608D01*
X61255388Y-34478611D01*
X61454112Y-34593344D01*
X61454117Y-34593346D01*
X61454123Y-34593349D01*
X61526840Y-34623469D01*
X61666113Y-34681158D01*
X61887762Y-34740548D01*
X62115266Y-34770500D01*
X62115273Y-34770500D01*
X62344727Y-34770500D01*
X62344734Y-34770500D01*
X62572238Y-34740548D01*
X62793887Y-34681158D01*
X63000497Y-34595577D01*
X63005876Y-34593349D01*
X63005876Y-34593348D01*
X63005888Y-34593344D01*
X63204612Y-34478611D01*
X63386661Y-34338919D01*
X63386665Y-34338914D01*
X63386670Y-34338911D01*
X63548911Y-34176670D01*
X63548914Y-34176665D01*
X63548919Y-34176661D01*
X63688611Y-33994612D01*
X63698837Y-33976900D01*
X65499500Y-33976900D01*
X65499500Y-35063091D01*
X65510123Y-35151562D01*
X65565639Y-35292342D01*
X65565640Y-35292344D01*
X65657077Y-35412922D01*
X65777655Y-35504359D01*
X65777658Y-35504361D01*
X65918436Y-35559876D01*
X66006901Y-35570500D01*
X67093098Y-35570499D01*
X67181564Y-35559876D01*
X67322342Y-35504361D01*
X67442922Y-35412922D01*
X67534361Y-35292342D01*
X67589876Y-35151564D01*
X67600500Y-35063099D01*
X67600499Y-33976902D01*
X67589876Y-33888436D01*
X67534361Y-33747658D01*
X67504738Y-33708594D01*
X67442922Y-33627077D01*
X67322344Y-33535640D01*
X67322342Y-33535639D01*
X67181564Y-33480124D01*
X67181561Y-33480123D01*
X67093099Y-33469500D01*
X66006908Y-33469500D01*
X65918437Y-33480123D01*
X65777657Y-33535639D01*
X65777655Y-33535640D01*
X65657077Y-33627077D01*
X65565640Y-33747655D01*
X65556940Y-33769717D01*
X65512186Y-33883209D01*
X65510124Y-33888437D01*
X65510123Y-33888438D01*
X65499500Y-33976900D01*
X63698837Y-33976900D01*
X63803344Y-33795888D01*
X63891158Y-33583887D01*
X63950548Y-33362238D01*
X63980500Y-33134734D01*
X63980500Y-32905266D01*
X63950548Y-32677762D01*
X63891158Y-32456113D01*
X63841190Y-32335480D01*
X63803349Y-32244123D01*
X63803346Y-32244117D01*
X63803344Y-32244112D01*
X63688611Y-32045388D01*
X63688608Y-32045385D01*
X63688607Y-32045382D01*
X63548918Y-31863338D01*
X63548911Y-31863330D01*
X63386670Y-31701089D01*
X63386661Y-31701081D01*
X63204617Y-31561392D01*
X63129165Y-31517830D01*
X63005890Y-31446657D01*
X63005876Y-31446650D01*
X62933159Y-31416530D01*
X68499500Y-31416530D01*
X68499500Y-31623469D01*
X68539868Y-31826412D01*
X68539870Y-31826420D01*
X68601999Y-31976413D01*
X68619059Y-32017598D01*
X68637624Y-32045382D01*
X68734024Y-32189657D01*
X68880342Y-32335975D01*
X69052403Y-32450942D01*
X69105963Y-32473127D01*
X69160366Y-32516968D01*
X69178285Y-32555594D01*
X69203971Y-32651457D01*
X69203972Y-32651458D01*
X69252854Y-32736125D01*
X69252856Y-32736128D01*
X69252858Y-32736131D01*
X69288347Y-32771620D01*
X69321995Y-32805268D01*
X69404754Y-32853049D01*
X69426819Y-32876191D01*
X69450011Y-32898212D01*
X69451231Y-32901794D01*
X69452969Y-32903617D01*
X69463196Y-32930950D01*
X69465754Y-32941399D01*
X69465754Y-32944712D01*
X69475151Y-32979784D01*
X69475479Y-32981124D01*
X69475471Y-32981290D01*
X69476421Y-32985277D01*
X69483101Y-33017284D01*
X69479502Y-33081379D01*
X69473994Y-33098116D01*
X69466902Y-33115237D01*
X69458038Y-33132795D01*
X69410253Y-33183769D01*
X69409346Y-33184298D01*
X69335193Y-33227112D01*
X69335191Y-33227113D01*
X69321998Y-33234729D01*
X69321993Y-33234733D01*
X69252859Y-33303867D01*
X69252855Y-33303872D01*
X69203972Y-33388541D01*
X69203971Y-33388542D01*
X69178285Y-33484405D01*
X69141919Y-33544066D01*
X69105965Y-33566871D01*
X69052407Y-33589056D01*
X69052395Y-33589062D01*
X68880344Y-33704022D01*
X68734024Y-33850342D01*
X68619058Y-34022403D01*
X68539870Y-34213579D01*
X68539868Y-34213587D01*
X68499500Y-34416530D01*
X68499500Y-34623469D01*
X68539868Y-34826412D01*
X68539870Y-34826420D01*
X68619058Y-35017596D01*
X68734024Y-35189657D01*
X68880342Y-35335975D01*
X68880345Y-35335977D01*
X69052402Y-35450941D01*
X69243580Y-35530130D01*
X69400801Y-35561403D01*
X69446530Y-35570499D01*
X69446534Y-35570500D01*
X69446535Y-35570500D01*
X69653466Y-35570500D01*
X69653467Y-35570499D01*
X69856420Y-35530130D01*
X70047598Y-35450941D01*
X70219655Y-35335977D01*
X70263290Y-35292342D01*
X70365976Y-35189657D01*
X70412207Y-35120466D01*
X70480941Y-35017598D01*
X70560130Y-34826420D01*
X70600500Y-34623465D01*
X70600500Y-34416535D01*
X70560130Y-34213580D01*
X70504784Y-34079965D01*
X70497316Y-34010498D01*
X70528591Y-33948018D01*
X70588680Y-33912366D01*
X70658505Y-33914859D01*
X70707027Y-33944833D01*
X79990429Y-43228235D01*
X80023914Y-43289558D01*
X80026748Y-43315916D01*
X80026748Y-54838995D01*
X80007063Y-54906034D01*
X79954259Y-54951789D01*
X79934851Y-54958767D01*
X79933520Y-54959123D01*
X79933511Y-54959127D01*
X79848843Y-55008010D01*
X79848838Y-55008014D01*
X79740672Y-55116181D01*
X79679349Y-55149666D01*
X79652991Y-55152500D01*
X79549943Y-55152500D01*
X79397216Y-55193423D01*
X79397209Y-55193426D01*
X79260290Y-55272475D01*
X79260282Y-55272481D01*
X79148481Y-55384282D01*
X79148475Y-55384290D01*
X79069426Y-55521209D01*
X79069423Y-55521216D01*
X79028500Y-55673943D01*
X79028500Y-55832057D01*
X79042422Y-55884012D01*
X79069423Y-55984783D01*
X79069426Y-55984790D01*
X79148475Y-56121709D01*
X79148479Y-56121714D01*
X79148480Y-56121716D01*
X79260284Y-56233520D01*
X79260286Y-56233521D01*
X79260290Y-56233524D01*
X79397209Y-56312573D01*
X79397216Y-56312577D01*
X79549943Y-56353500D01*
X79549945Y-56353500D01*
X79708055Y-56353500D01*
X79708057Y-56353500D01*
X79860784Y-56312577D01*
X79997716Y-56233520D01*
X80109520Y-56121716D01*
X80188577Y-55984784D01*
X80229500Y-55832057D01*
X80229500Y-55800490D01*
X80249185Y-55733451D01*
X80301989Y-55687696D01*
X80353500Y-55676490D01*
X80446967Y-55676490D01*
X80446970Y-55676490D01*
X80541413Y-55651184D01*
X80585534Y-55625710D01*
X80653070Y-55609221D01*
X80666570Y-55609824D01*
X80690867Y-55616335D01*
X80788641Y-55616335D01*
X80812261Y-55616335D01*
X80815036Y-55616459D01*
X80845577Y-55626928D01*
X80876539Y-55636020D01*
X80878415Y-55638185D01*
X80881130Y-55639116D01*
X80901173Y-55664450D01*
X80922294Y-55688824D01*
X80922990Y-55692024D01*
X80924482Y-55693910D01*
X80925376Y-55702991D01*
X80933500Y-55740335D01*
X80933500Y-55832057D01*
X80947422Y-55884012D01*
X80974423Y-55984783D01*
X80974426Y-55984790D01*
X81053475Y-56121709D01*
X81053479Y-56121714D01*
X81053480Y-56121716D01*
X81165284Y-56233520D01*
X81165286Y-56233521D01*
X81165290Y-56233524D01*
X81302209Y-56312573D01*
X81302216Y-56312577D01*
X81454943Y-56353500D01*
X81454945Y-56353500D01*
X81613055Y-56353500D01*
X81613057Y-56353500D01*
X81765784Y-56312577D01*
X81902716Y-56233520D01*
X82014520Y-56121716D01*
X82093577Y-55984784D01*
X82134500Y-55832057D01*
X82134500Y-55673943D01*
X82093577Y-55521216D01*
X82093573Y-55521209D01*
X82014524Y-55384290D01*
X82014518Y-55384282D01*
X81902717Y-55272481D01*
X81902709Y-55272475D01*
X81765790Y-55193426D01*
X81765786Y-55193424D01*
X81765784Y-55193423D01*
X81613057Y-55152500D01*
X81613056Y-55152500D01*
X81510009Y-55152500D01*
X81442970Y-55132815D01*
X81422328Y-55116181D01*
X81254004Y-54947857D01*
X81173088Y-54901140D01*
X81124873Y-54850572D01*
X81111089Y-54793753D01*
X81111089Y-50832639D01*
X83996804Y-50832639D01*
X83996804Y-50990753D01*
X84032506Y-51123993D01*
X84037727Y-51143479D01*
X84037730Y-51143486D01*
X84116779Y-51280405D01*
X84116783Y-51280410D01*
X84116784Y-51280412D01*
X84228588Y-51392216D01*
X84228590Y-51392217D01*
X84228594Y-51392220D01*
X84299542Y-51433181D01*
X84365520Y-51471273D01*
X84518247Y-51512196D01*
X84518249Y-51512196D01*
X84649556Y-51512196D01*
X84716595Y-51531881D01*
X84737237Y-51548515D01*
X87225220Y-54036498D01*
X87289084Y-54073370D01*
X87310923Y-54085979D01*
X87336604Y-54105685D01*
X96032252Y-62801332D01*
X96032254Y-62801335D01*
X96097670Y-62866751D01*
X96143927Y-62893457D01*
X96177789Y-62913008D01*
X96267149Y-62936952D01*
X96267151Y-62936952D01*
X96367257Y-62936952D01*
X96367273Y-62936951D01*
X112900634Y-62936951D01*
X112967673Y-62956636D01*
X113013428Y-63009440D01*
X113023372Y-63078598D01*
X112994347Y-63142154D01*
X112948087Y-63175512D01*
X112826309Y-63225953D01*
X112826299Y-63225958D01*
X112599196Y-63357075D01*
X112391148Y-63516718D01*
X112205718Y-63702148D01*
X112046075Y-63910196D01*
X111914958Y-64137299D01*
X111914953Y-64137309D01*
X111814605Y-64379571D01*
X111814602Y-64379581D01*
X111746730Y-64632885D01*
X111712500Y-64892872D01*
X111712500Y-65155127D01*
X111733436Y-65314140D01*
X111746730Y-65415116D01*
X111768178Y-65495161D01*
X111814602Y-65668418D01*
X111814605Y-65668428D01*
X111914953Y-65910690D01*
X111914958Y-65910700D01*
X112046075Y-66137803D01*
X112205718Y-66345851D01*
X112205726Y-66345860D01*
X112391140Y-66531274D01*
X112391148Y-66531281D01*
X112599196Y-66690924D01*
X112826299Y-66822041D01*
X112826309Y-66822046D01*
X113068571Y-66922394D01*
X113068581Y-66922398D01*
X113321884Y-66990270D01*
X113581880Y-67024500D01*
X113581887Y-67024500D01*
X113844113Y-67024500D01*
X113844120Y-67024500D01*
X114104116Y-66990270D01*
X114357419Y-66922398D01*
X114599697Y-66822043D01*
X114826803Y-66690924D01*
X115034851Y-66531282D01*
X115034855Y-66531277D01*
X115034860Y-66531274D01*
X115220274Y-66345860D01*
X115220277Y-66345855D01*
X115220282Y-66345851D01*
X115379924Y-66137803D01*
X115511043Y-65910697D01*
X115611398Y-65668419D01*
X115679270Y-65415116D01*
X115713500Y-65155120D01*
X115713500Y-64892880D01*
X115679270Y-64632884D01*
X115611398Y-64379581D01*
X115554497Y-64242210D01*
X115511046Y-64137309D01*
X115511041Y-64137299D01*
X115379924Y-63910196D01*
X115220281Y-63702148D01*
X115220274Y-63702140D01*
X115034860Y-63516726D01*
X115034851Y-63516718D01*
X114826803Y-63357075D01*
X114599700Y-63225958D01*
X114599690Y-63225953D01*
X114477913Y-63175512D01*
X114423510Y-63131671D01*
X114401445Y-63065377D01*
X114418724Y-62997677D01*
X114469862Y-62950067D01*
X114525366Y-62936951D01*
X118300335Y-62936951D01*
X118332428Y-62941176D01*
X118335414Y-62941976D01*
X118335416Y-62941977D01*
X118488143Y-62982900D01*
X118488145Y-62982900D01*
X118646255Y-62982900D01*
X118646257Y-62982900D01*
X118798984Y-62941977D01*
X118935916Y-62862920D01*
X119047720Y-62751116D01*
X119126777Y-62614184D01*
X119167700Y-62461457D01*
X119167700Y-62303343D01*
X119126777Y-62150616D01*
X119126773Y-62150609D01*
X119047724Y-62013690D01*
X119047718Y-62013682D01*
X118935917Y-61901881D01*
X118935909Y-61901875D01*
X118798990Y-61822826D01*
X118798986Y-61822824D01*
X118798984Y-61822823D01*
X118646257Y-61781900D01*
X118488143Y-61781900D01*
X118335416Y-61822823D01*
X118335409Y-61822826D01*
X118198490Y-61901875D01*
X118198482Y-61901881D01*
X118086681Y-62013682D01*
X118086675Y-62013690D01*
X118007625Y-62150611D01*
X118004688Y-62157702D01*
X117960847Y-62212105D01*
X117894553Y-62234170D01*
X117890127Y-62234249D01*
X96510301Y-62234249D01*
X96443262Y-62214564D01*
X96422620Y-62197930D01*
X87698888Y-53474197D01*
X87698883Y-53474193D01*
X87613183Y-53424714D01*
X87587502Y-53405008D01*
X85234123Y-51051629D01*
X85200638Y-50990306D01*
X85197804Y-50963948D01*
X85197804Y-50832641D01*
X85197804Y-50832639D01*
X85156881Y-50679912D01*
X85137024Y-50645518D01*
X85077828Y-50542986D01*
X85077822Y-50542978D01*
X84966021Y-50431177D01*
X84966013Y-50431171D01*
X84829094Y-50352122D01*
X84829090Y-50352120D01*
X84829088Y-50352119D01*
X84676361Y-50311196D01*
X84518247Y-50311196D01*
X84365520Y-50352119D01*
X84365513Y-50352122D01*
X84228594Y-50431171D01*
X84228586Y-50431177D01*
X84116785Y-50542978D01*
X84116779Y-50542986D01*
X84037730Y-50679905D01*
X84037727Y-50679912D01*
X83996804Y-50832639D01*
X81111089Y-50832639D01*
X81111089Y-43032802D01*
X81113491Y-42996157D01*
X81111089Y-42984080D01*
X81111089Y-42971765D01*
X81108444Y-42961894D01*
X81102673Y-42940355D01*
X81098713Y-42916371D01*
X81097645Y-42900065D01*
X81092366Y-42884514D01*
X81088168Y-42868847D01*
X81084965Y-42852742D01*
X81074106Y-42830723D01*
X81066216Y-42807479D01*
X81052576Y-42787066D01*
X81047671Y-42777120D01*
X81041722Y-42765053D01*
X81039655Y-42762697D01*
X81030938Y-42752757D01*
X81021077Y-42739908D01*
X81018830Y-42736547D01*
X81000526Y-42704842D01*
X80991824Y-42696140D01*
X80987818Y-42690146D01*
X80985044Y-42685994D01*
X80985043Y-42685991D01*
X80985037Y-42685984D01*
X80984979Y-42685897D01*
X80960406Y-42664347D01*
X80954485Y-42658801D01*
X76062627Y-37766943D01*
X96046500Y-37766943D01*
X96046500Y-37925056D01*
X96087423Y-38077783D01*
X96087426Y-38077790D01*
X96166475Y-38214709D01*
X96166479Y-38214714D01*
X96166480Y-38214716D01*
X96278284Y-38326520D01*
X96278286Y-38326521D01*
X96278290Y-38326524D01*
X96403620Y-38398882D01*
X96415216Y-38405577D01*
X96567943Y-38446500D01*
X99615826Y-38446500D01*
X99682865Y-38466185D01*
X99703507Y-38482819D01*
X100709181Y-39488493D01*
X100742666Y-39549816D01*
X100745500Y-39576174D01*
X100745500Y-52023901D01*
X100725815Y-52090940D01*
X100709181Y-52111582D01*
X100589214Y-52231548D01*
X100589215Y-52231549D01*
X100482792Y-52337971D01*
X100462372Y-52373342D01*
X100444981Y-52403465D01*
X100403737Y-52474901D01*
X100362813Y-52627629D01*
X100362813Y-52627631D01*
X100362813Y-52795732D01*
X100362814Y-52795745D01*
X100362814Y-53419057D01*
X100377589Y-53474196D01*
X100403737Y-53571783D01*
X100403740Y-53571790D01*
X100482789Y-53708709D01*
X100482793Y-53708714D01*
X100482794Y-53708716D01*
X100594598Y-53820520D01*
X100594600Y-53820521D01*
X100594604Y-53820524D01*
X100722736Y-53894500D01*
X100731530Y-53899577D01*
X100884257Y-53940500D01*
X100884259Y-53940500D01*
X101042369Y-53940500D01*
X101042371Y-53940500D01*
X101195098Y-53899577D01*
X101332030Y-53820520D01*
X101443834Y-53708716D01*
X101522891Y-53571784D01*
X101563814Y-53419057D01*
X101563814Y-53006783D01*
X101583499Y-52939744D01*
X101600133Y-52919102D01*
X101676144Y-52843091D01*
X101826520Y-52692716D01*
X101905577Y-52555784D01*
X101946501Y-52403057D01*
X101946501Y-52244942D01*
X101946501Y-52237347D01*
X101946500Y-52237329D01*
X101946500Y-47926943D01*
X115985500Y-47926943D01*
X115985500Y-48085057D01*
X116016735Y-48201625D01*
X116026423Y-48237783D01*
X116026426Y-48237790D01*
X116105475Y-48374709D01*
X116105479Y-48374714D01*
X116105480Y-48374716D01*
X116217284Y-48486520D01*
X116217286Y-48486521D01*
X116217290Y-48486524D01*
X116342620Y-48558882D01*
X116354216Y-48565577D01*
X116506943Y-48606500D01*
X116506945Y-48606500D01*
X116673184Y-48606500D01*
X116673184Y-48608055D01*
X116733085Y-48617386D01*
X116785349Y-48663757D01*
X116804245Y-48731023D01*
X116800243Y-48760851D01*
X116796015Y-48777064D01*
X116788423Y-48790216D01*
X116747500Y-48942943D01*
X116747500Y-48963152D01*
X116743489Y-48978537D01*
X116733359Y-48995411D01*
X116727815Y-49014293D01*
X116711181Y-49034935D01*
X116135001Y-49611114D01*
X116134997Y-49611119D01*
X116088745Y-49691231D01*
X116088745Y-49691232D01*
X116088744Y-49691234D01*
X116064800Y-49780594D01*
X116064800Y-54664914D01*
X116064800Y-54757426D01*
X116088744Y-54846786D01*
X116088745Y-54846787D01*
X116088745Y-54846788D01*
X116134997Y-54926900D01*
X116135001Y-54926905D01*
X118428485Y-57220389D01*
X118461970Y-57281712D01*
X118456986Y-57351404D01*
X118415114Y-57407337D01*
X118390896Y-57421502D01*
X118390236Y-57421793D01*
X118390234Y-57421794D01*
X118310794Y-57501234D01*
X118265415Y-57604006D01*
X118265415Y-57604008D01*
X118262500Y-57629131D01*
X118262500Y-58718856D01*
X118262502Y-58718882D01*
X118265413Y-58743987D01*
X118265415Y-58743991D01*
X118310793Y-58846764D01*
X118310794Y-58846765D01*
X118390235Y-58926206D01*
X118493009Y-58971585D01*
X118518135Y-58974500D01*
X121607864Y-58974499D01*
X121607879Y-58974497D01*
X121607882Y-58974497D01*
X121632987Y-58971586D01*
X121632988Y-58971585D01*
X121632991Y-58971585D01*
X121735765Y-58926206D01*
X121815206Y-58846765D01*
X121860585Y-58743991D01*
X121863500Y-58718865D01*
X121863499Y-57629136D01*
X121863497Y-57629117D01*
X121860586Y-57604012D01*
X121860585Y-57604010D01*
X121860585Y-57604009D01*
X121815206Y-57501235D01*
X121735765Y-57421794D01*
X121703023Y-57407337D01*
X121632992Y-57376415D01*
X121607868Y-57373500D01*
X121607865Y-57373500D01*
X119626726Y-57373500D01*
X119559687Y-57353815D01*
X119539045Y-57337181D01*
X118848044Y-56646180D01*
X118814559Y-56584857D01*
X118819543Y-56515165D01*
X118861415Y-56459232D01*
X118926879Y-56434815D01*
X118935725Y-56434499D01*
X120315253Y-56434499D01*
X120382292Y-56454184D01*
X120402934Y-56470818D01*
X120598116Y-56666000D01*
X120678234Y-56712256D01*
X120767594Y-56736200D01*
X120767596Y-56736200D01*
X147242403Y-56736200D01*
X147242406Y-56736200D01*
X147331766Y-56712256D01*
X147411884Y-56666000D01*
X153911064Y-50166818D01*
X153972387Y-50133334D01*
X153998745Y-50130500D01*
X154130055Y-50130500D01*
X154130057Y-50130500D01*
X154282784Y-50089577D01*
X154419716Y-50010520D01*
X154531520Y-49898716D01*
X154610577Y-49761784D01*
X154651500Y-49609057D01*
X154651500Y-49450943D01*
X154610577Y-49298216D01*
X154584928Y-49253790D01*
X154531524Y-49161290D01*
X154531518Y-49161282D01*
X154419717Y-49049481D01*
X154419709Y-49049475D01*
X154282790Y-48970426D01*
X154282786Y-48970424D01*
X154282784Y-48970423D01*
X154130057Y-48929500D01*
X153971943Y-48929500D01*
X153819216Y-48970423D01*
X153819209Y-48970426D01*
X153682290Y-49049475D01*
X153682282Y-49049481D01*
X153570481Y-49161282D01*
X153570475Y-49161290D01*
X153491426Y-49298209D01*
X153491423Y-49298216D01*
X153450500Y-49450943D01*
X153450500Y-49582253D01*
X153430815Y-49649292D01*
X153414181Y-49669934D01*
X147086935Y-55997181D01*
X147025612Y-56030666D01*
X146999254Y-56033500D01*
X127027500Y-56033500D01*
X126960461Y-56013815D01*
X126914706Y-55961011D01*
X126903500Y-55909500D01*
X126903499Y-55089143D01*
X126903499Y-55089137D01*
X126903499Y-55089136D01*
X126900818Y-55066014D01*
X126900586Y-55064012D01*
X126900585Y-55064010D01*
X126900585Y-55064009D01*
X126855206Y-54961235D01*
X126775765Y-54881794D01*
X126712897Y-54854035D01*
X126672992Y-54836415D01*
X126647868Y-54833500D01*
X126647865Y-54833500D01*
X124850746Y-54833500D01*
X124783707Y-54813815D01*
X124763065Y-54797181D01*
X124167735Y-54201851D01*
X124167730Y-54201847D01*
X124087618Y-54155595D01*
X124087617Y-54155594D01*
X124087616Y-54155594D01*
X124022975Y-54138273D01*
X123963316Y-54101908D01*
X123932788Y-54039061D01*
X123941083Y-53969685D01*
X123985569Y-53915808D01*
X124052121Y-53894534D01*
X124055000Y-53894499D01*
X126647864Y-53894499D01*
X126647879Y-53894497D01*
X126647882Y-53894497D01*
X126672987Y-53891586D01*
X126672988Y-53891585D01*
X126672991Y-53891585D01*
X126775765Y-53846206D01*
X126855206Y-53766765D01*
X126900585Y-53663991D01*
X126903500Y-53638865D01*
X126903500Y-53569350D01*
X126923185Y-53502311D01*
X126975989Y-53456556D01*
X127027500Y-53445350D01*
X141770253Y-53445350D01*
X141770256Y-53445350D01*
X141859616Y-53421406D01*
X141939734Y-53375150D01*
X145910064Y-49404818D01*
X145971387Y-49371334D01*
X145997745Y-49368500D01*
X146129055Y-49368500D01*
X146129057Y-49368500D01*
X146281784Y-49327577D01*
X146418716Y-49248520D01*
X146530520Y-49136716D01*
X146552321Y-49098954D01*
X146602886Y-49050740D01*
X146671492Y-49037515D01*
X146736358Y-49063482D01*
X146747389Y-49073273D01*
X147257758Y-49583642D01*
X147291243Y-49644965D01*
X147286259Y-49714657D01*
X147257760Y-49759002D01*
X147220482Y-49796281D01*
X147220475Y-49796290D01*
X147141426Y-49933209D01*
X147141423Y-49933216D01*
X147100500Y-50085943D01*
X147100500Y-50244057D01*
X147129022Y-50350500D01*
X147141423Y-50396783D01*
X147141426Y-50396790D01*
X147220475Y-50533709D01*
X147220479Y-50533714D01*
X147220480Y-50533716D01*
X147332284Y-50645520D01*
X147332286Y-50645521D01*
X147332290Y-50645524D01*
X147401137Y-50685272D01*
X147469216Y-50724577D01*
X147621943Y-50765500D01*
X147621945Y-50765500D01*
X147780055Y-50765500D01*
X147780057Y-50765500D01*
X147932784Y-50724577D01*
X148069716Y-50645520D01*
X148181520Y-50533716D01*
X148260577Y-50396784D01*
X148301500Y-50244057D01*
X148301500Y-50085943D01*
X148260577Y-49933216D01*
X148230566Y-49881235D01*
X148181524Y-49796290D01*
X148181518Y-49796282D01*
X148088669Y-49703433D01*
X148055184Y-49642110D01*
X148052350Y-49615752D01*
X148052350Y-49483746D01*
X148052350Y-49483744D01*
X148028406Y-49394384D01*
X147997811Y-49341392D01*
X147982152Y-49314269D01*
X147982148Y-49314264D01*
X143589379Y-44921495D01*
X153901429Y-44921495D01*
X153901429Y-46011220D01*
X153901431Y-46011246D01*
X153904342Y-46036351D01*
X153904344Y-46036355D01*
X153949722Y-46139128D01*
X153949723Y-46139129D01*
X154029164Y-46218570D01*
X154131938Y-46263949D01*
X154157064Y-46266864D01*
X157246793Y-46266863D01*
X157246808Y-46266861D01*
X157246811Y-46266861D01*
X157271916Y-46263950D01*
X157271917Y-46263949D01*
X157271920Y-46263949D01*
X157374694Y-46218570D01*
X157454135Y-46139129D01*
X157499514Y-46036355D01*
X157502429Y-46011229D01*
X157502428Y-44921500D01*
X157500400Y-44904009D01*
X157499515Y-44896376D01*
X157499514Y-44896374D01*
X157499514Y-44896373D01*
X157454135Y-44793599D01*
X157374694Y-44714158D01*
X157309713Y-44685466D01*
X157271921Y-44668779D01*
X157246794Y-44665864D01*
X154157072Y-44665864D01*
X154157046Y-44665866D01*
X154131941Y-44668777D01*
X154131937Y-44668779D01*
X154029164Y-44714157D01*
X153949723Y-44793598D01*
X153904344Y-44896370D01*
X153904344Y-44896372D01*
X153901429Y-44921495D01*
X143589379Y-44921495D01*
X141406429Y-42738545D01*
X141372944Y-42677222D01*
X141377928Y-42607530D01*
X141419800Y-42551597D01*
X141485264Y-42527180D01*
X141494110Y-42526864D01*
X153777429Y-42526864D01*
X153844468Y-42546549D01*
X153890223Y-42599353D01*
X153901429Y-42650864D01*
X153901429Y-43471220D01*
X153901431Y-43471246D01*
X153904342Y-43496351D01*
X153904344Y-43496355D01*
X153949722Y-43599128D01*
X153949723Y-43599129D01*
X154029164Y-43678570D01*
X154131938Y-43723949D01*
X154157064Y-43726864D01*
X157246793Y-43726863D01*
X157246808Y-43726861D01*
X157246811Y-43726861D01*
X157271916Y-43723950D01*
X157271917Y-43723949D01*
X157271920Y-43723949D01*
X157374694Y-43678570D01*
X157454135Y-43599129D01*
X157499514Y-43496355D01*
X157502429Y-43471229D01*
X157502428Y-42381500D01*
X157500400Y-42364009D01*
X157499515Y-42356376D01*
X157499514Y-42356374D01*
X157499514Y-42356373D01*
X157454135Y-42253599D01*
X157374694Y-42174158D01*
X157304787Y-42143291D01*
X157271921Y-42128779D01*
X157246797Y-42125864D01*
X157246794Y-42125864D01*
X155449675Y-42125864D01*
X155382636Y-42106179D01*
X155361994Y-42089545D01*
X155166814Y-41894365D01*
X155166809Y-41894361D01*
X155086697Y-41848109D01*
X155086696Y-41848108D01*
X155086695Y-41848108D01*
X154997335Y-41824164D01*
X154997333Y-41824164D01*
X140970078Y-41824164D01*
X140903039Y-41804479D01*
X140882397Y-41787845D01*
X138456553Y-39362001D01*
X138456548Y-39361997D01*
X138376436Y-39315745D01*
X138376435Y-39315744D01*
X138376434Y-39315744D01*
X138287074Y-39291800D01*
X123398406Y-39291800D01*
X123305894Y-39291800D01*
X123216534Y-39315744D01*
X123216532Y-39315745D01*
X123216531Y-39315745D01*
X123136419Y-39361997D01*
X123136414Y-39362001D01*
X122986181Y-39512235D01*
X122924858Y-39545720D01*
X122855166Y-39540736D01*
X122799233Y-39498864D01*
X122774816Y-39433400D01*
X122774500Y-39424554D01*
X122774500Y-39417945D01*
X122774500Y-39417943D01*
X122733577Y-39265216D01*
X122694205Y-39197021D01*
X122654524Y-39128290D01*
X122654518Y-39128282D01*
X122542717Y-39016481D01*
X122542709Y-39016475D01*
X122405790Y-38937426D01*
X122405786Y-38937424D01*
X122405784Y-38937423D01*
X122253057Y-38896500D01*
X122094943Y-38896500D01*
X121942216Y-38937423D01*
X121942209Y-38937426D01*
X121805290Y-39016475D01*
X121805282Y-39016481D01*
X121693481Y-39128282D01*
X121693475Y-39128290D01*
X121614426Y-39265209D01*
X121614423Y-39265216D01*
X121573500Y-39417943D01*
X121573500Y-39469500D01*
X121553815Y-39536539D01*
X121501011Y-39582294D01*
X121449500Y-39593500D01*
X118518143Y-39593500D01*
X118518117Y-39593502D01*
X118493012Y-39596413D01*
X118493008Y-39596415D01*
X118390235Y-39641793D01*
X118310794Y-39721234D01*
X118265415Y-39824006D01*
X118265415Y-39824008D01*
X118262500Y-39849131D01*
X118262500Y-39970686D01*
X118242815Y-40037725D01*
X118200501Y-40078073D01*
X118140266Y-40112849D01*
X116304851Y-41948264D01*
X116304847Y-41948269D01*
X116258595Y-42028381D01*
X116258595Y-42028382D01*
X116258594Y-42028384D01*
X116234650Y-42117744D01*
X116234650Y-42117746D01*
X116234650Y-47456752D01*
X116214965Y-47523791D01*
X116198331Y-47544433D01*
X116105481Y-47637282D01*
X116105475Y-47637290D01*
X116026426Y-47774209D01*
X116026423Y-47774216D01*
X115985500Y-47926943D01*
X101946500Y-47926943D01*
X101946500Y-39197021D01*
X101946499Y-39197015D01*
X101942392Y-39181687D01*
X101939152Y-39169594D01*
X101905577Y-39044292D01*
X101857979Y-38961850D01*
X101826520Y-38907361D01*
X101714716Y-38795557D01*
X101714715Y-38795556D01*
X101710385Y-38791226D01*
X101710374Y-38791216D01*
X100403513Y-37484355D01*
X100403511Y-37484352D01*
X100284640Y-37365481D01*
X100284639Y-37365480D01*
X100197827Y-37315360D01*
X100197827Y-37315359D01*
X100197823Y-37315358D01*
X100147708Y-37286423D01*
X99994980Y-37245499D01*
X99836866Y-37245499D01*
X99829270Y-37245499D01*
X99829254Y-37245500D01*
X96567943Y-37245500D01*
X96415216Y-37286423D01*
X96415209Y-37286426D01*
X96278290Y-37365475D01*
X96278282Y-37365481D01*
X96166481Y-37477282D01*
X96166475Y-37477290D01*
X96087426Y-37614209D01*
X96087423Y-37614216D01*
X96046500Y-37766943D01*
X76062627Y-37766943D01*
X71617627Y-33321943D01*
X116874500Y-33321943D01*
X116874500Y-33480057D01*
X116899849Y-33574659D01*
X116915423Y-33632783D01*
X116915426Y-33632790D01*
X116994475Y-33769709D01*
X116994481Y-33769717D01*
X117087331Y-33862567D01*
X117120816Y-33923890D01*
X117123650Y-33950248D01*
X117123650Y-35219744D01*
X117123650Y-35312256D01*
X117147594Y-35401616D01*
X117147595Y-35401617D01*
X117147595Y-35401618D01*
X117193847Y-35481730D01*
X117193851Y-35481735D01*
X118558582Y-36846466D01*
X118592067Y-36907789D01*
X118587083Y-36977481D01*
X118545211Y-37033414D01*
X118501194Y-37050956D01*
X118502013Y-37053965D01*
X118493008Y-37056415D01*
X118390235Y-37101793D01*
X118310794Y-37181234D01*
X118265415Y-37284006D01*
X118265415Y-37284008D01*
X118262500Y-37309131D01*
X118262500Y-38398856D01*
X118262502Y-38398882D01*
X118265413Y-38423987D01*
X118265415Y-38423991D01*
X118310793Y-38526764D01*
X118310794Y-38526765D01*
X118390235Y-38606206D01*
X118493009Y-38651585D01*
X118518135Y-38654500D01*
X121607864Y-38654499D01*
X121607879Y-38654497D01*
X121607882Y-38654497D01*
X121632987Y-38651586D01*
X121632988Y-38651585D01*
X121632991Y-38651585D01*
X121735765Y-38606206D01*
X121815206Y-38526765D01*
X121860585Y-38423991D01*
X121863500Y-38398865D01*
X121863499Y-37766943D01*
X145195500Y-37766943D01*
X145195500Y-37925056D01*
X145236423Y-38077783D01*
X145236426Y-38077790D01*
X145315475Y-38214709D01*
X145315479Y-38214714D01*
X145315480Y-38214716D01*
X145427284Y-38326520D01*
X145427286Y-38326521D01*
X145427290Y-38326524D01*
X145552620Y-38398882D01*
X145564216Y-38405577D01*
X145716943Y-38446500D01*
X145716945Y-38446500D01*
X145875055Y-38446500D01*
X145875057Y-38446500D01*
X146027784Y-38405577D01*
X146070385Y-38380981D01*
X146138282Y-38364509D01*
X146204309Y-38387361D01*
X146247500Y-38442282D01*
X146254142Y-38511835D01*
X146222127Y-38573938D01*
X146220064Y-38576050D01*
X145935934Y-38860181D01*
X145874611Y-38893666D01*
X145848253Y-38896500D01*
X145716943Y-38896500D01*
X145564216Y-38937423D01*
X145564209Y-38937426D01*
X145427290Y-39016475D01*
X145427282Y-39016481D01*
X145315481Y-39128282D01*
X145315475Y-39128290D01*
X145236426Y-39265209D01*
X145236423Y-39265216D01*
X145195500Y-39417943D01*
X145195500Y-39576057D01*
X145234401Y-39721235D01*
X145236423Y-39728783D01*
X145236426Y-39728790D01*
X145315475Y-39865709D01*
X145315479Y-39865714D01*
X145315480Y-39865716D01*
X145427284Y-39977520D01*
X145427286Y-39977521D01*
X145427290Y-39977524D01*
X145562018Y-40055308D01*
X145564216Y-40056577D01*
X145716943Y-40097500D01*
X145716945Y-40097500D01*
X145875055Y-40097500D01*
X145875057Y-40097500D01*
X146027784Y-40056577D01*
X146164716Y-39977520D01*
X146276520Y-39865716D01*
X146290504Y-39841495D01*
X153901429Y-39841495D01*
X153901429Y-40931220D01*
X153901431Y-40931246D01*
X153904342Y-40956351D01*
X153904344Y-40956355D01*
X153949722Y-41059128D01*
X153949723Y-41059129D01*
X154029164Y-41138570D01*
X154131938Y-41183949D01*
X154157064Y-41186864D01*
X157246793Y-41186863D01*
X157246808Y-41186861D01*
X157246811Y-41186861D01*
X157271916Y-41183950D01*
X157271917Y-41183949D01*
X157271920Y-41183949D01*
X157374694Y-41138570D01*
X157454135Y-41059129D01*
X157499514Y-40956355D01*
X157502429Y-40931229D01*
X157502428Y-39841500D01*
X157500400Y-39824009D01*
X157499515Y-39816376D01*
X157499514Y-39816374D01*
X157499514Y-39816373D01*
X157454135Y-39713599D01*
X157374694Y-39634158D01*
X157374692Y-39634157D01*
X157271921Y-39588779D01*
X157246797Y-39585864D01*
X157246794Y-39585864D01*
X157155413Y-39585864D01*
X157088374Y-39566179D01*
X157042619Y-39513375D01*
X157032675Y-39444217D01*
X157035638Y-39429771D01*
X157038807Y-39417943D01*
X157064500Y-39322057D01*
X157064500Y-39163943D01*
X157023577Y-39011216D01*
X157023573Y-39011209D01*
X156944524Y-38874290D01*
X156944518Y-38874282D01*
X156832717Y-38762481D01*
X156832709Y-38762475D01*
X156695790Y-38683426D01*
X156695786Y-38683424D01*
X156695784Y-38683423D01*
X156543057Y-38642500D01*
X156384943Y-38642500D01*
X156232216Y-38683423D01*
X156232209Y-38683426D01*
X156095290Y-38762475D01*
X156095282Y-38762481D01*
X155983481Y-38874282D01*
X155983475Y-38874290D01*
X155904426Y-39011209D01*
X155904423Y-39011216D01*
X155863500Y-39163943D01*
X155863500Y-39295253D01*
X155854855Y-39324693D01*
X155848332Y-39354680D01*
X155844577Y-39359695D01*
X155843815Y-39362292D01*
X155827185Y-39382929D01*
X155740615Y-39469500D01*
X155660569Y-39549546D01*
X155599246Y-39583030D01*
X155572888Y-39585864D01*
X154157072Y-39585864D01*
X154157046Y-39585866D01*
X154131941Y-39588777D01*
X154131937Y-39588779D01*
X154029164Y-39634157D01*
X153949723Y-39713598D01*
X153904344Y-39816370D01*
X153904344Y-39816372D01*
X153901429Y-39841495D01*
X146290504Y-39841495D01*
X146327076Y-39778150D01*
X146328365Y-39775918D01*
X146338324Y-39758666D01*
X146355577Y-39728784D01*
X146396500Y-39576057D01*
X146396500Y-39444745D01*
X146416185Y-39377706D01*
X146432819Y-39357064D01*
X147533190Y-38256693D01*
X148672679Y-37117203D01*
X148734000Y-37083720D01*
X148803692Y-37088704D01*
X148859625Y-37130576D01*
X148884042Y-37196040D01*
X148873793Y-37254970D01*
X148864345Y-37276367D01*
X148864344Y-37276372D01*
X148861429Y-37301495D01*
X148861429Y-38391220D01*
X148861431Y-38391246D01*
X148864342Y-38416351D01*
X148864344Y-38416355D01*
X148909722Y-38519128D01*
X148909723Y-38519129D01*
X148989164Y-38598570D01*
X149091938Y-38643949D01*
X149117064Y-38646864D01*
X152206793Y-38646863D01*
X152206808Y-38646861D01*
X152206811Y-38646861D01*
X152231916Y-38643950D01*
X152231917Y-38643949D01*
X152231920Y-38643949D01*
X152334694Y-38598570D01*
X152414135Y-38519129D01*
X152459514Y-38416355D01*
X152462429Y-38391229D01*
X152462428Y-37301500D01*
X152460400Y-37284009D01*
X152459515Y-37276376D01*
X152459514Y-37276374D01*
X152459514Y-37276373D01*
X152414135Y-37173599D01*
X152334694Y-37094158D01*
X152311054Y-37083720D01*
X152231921Y-37048779D01*
X152206794Y-37045864D01*
X149117072Y-37045864D01*
X149117046Y-37045866D01*
X149091941Y-37048777D01*
X149091936Y-37048779D01*
X149070534Y-37058229D01*
X149001256Y-37067299D01*
X148938071Y-37037475D01*
X148901042Y-36978225D01*
X148901923Y-36908361D01*
X148932767Y-36857115D01*
X149646701Y-36143182D01*
X149708024Y-36109697D01*
X149734382Y-36106863D01*
X152206785Y-36106863D01*
X152206793Y-36106863D01*
X152206808Y-36106861D01*
X152206811Y-36106861D01*
X152231916Y-36103950D01*
X152231917Y-36103949D01*
X152231920Y-36103949D01*
X152334694Y-36058570D01*
X152414135Y-35979129D01*
X152459514Y-35876355D01*
X152462429Y-35851229D01*
X152462428Y-34761500D01*
X152460400Y-34744009D01*
X152459515Y-34736376D01*
X152459514Y-34736374D01*
X152459514Y-34736373D01*
X152414135Y-34633599D01*
X152334694Y-34554158D01*
X152334692Y-34554157D01*
X152231921Y-34508779D01*
X152206794Y-34505864D01*
X149117072Y-34505864D01*
X149117046Y-34505866D01*
X149091941Y-34508777D01*
X149091937Y-34508779D01*
X148989164Y-34554157D01*
X148989163Y-34554158D01*
X148901598Y-34641724D01*
X148899385Y-34639511D01*
X148859518Y-34672052D01*
X148790097Y-34679955D01*
X148727424Y-34649072D01*
X148691396Y-34589207D01*
X148687350Y-34557790D01*
X148687350Y-33514937D01*
X148707035Y-33447898D01*
X148759839Y-33402143D01*
X148828997Y-33392199D01*
X148892553Y-33421224D01*
X148901430Y-33431171D01*
X148901598Y-33431004D01*
X148909723Y-33439129D01*
X148989164Y-33518570D01*
X149091938Y-33563949D01*
X149117064Y-33566864D01*
X152206793Y-33566863D01*
X152206808Y-33566861D01*
X152206811Y-33566861D01*
X152231916Y-33563950D01*
X152231917Y-33563949D01*
X152231920Y-33563949D01*
X152334694Y-33518570D01*
X152414135Y-33439129D01*
X152459514Y-33336355D01*
X152462429Y-33311229D01*
X152462428Y-32221500D01*
X152462428Y-32221499D01*
X152462428Y-32221495D01*
X153901429Y-32221495D01*
X153901429Y-33311220D01*
X153901431Y-33311246D01*
X153904342Y-33336351D01*
X153904344Y-33336355D01*
X153949722Y-33439128D01*
X153949723Y-33439129D01*
X154029164Y-33518570D01*
X154131938Y-33563949D01*
X154157064Y-33566864D01*
X157246793Y-33566863D01*
X157246808Y-33566861D01*
X157246811Y-33566861D01*
X157271916Y-33563950D01*
X157271917Y-33563949D01*
X157271920Y-33563949D01*
X157374694Y-33518570D01*
X157454135Y-33439129D01*
X157499514Y-33336355D01*
X157502429Y-33311229D01*
X157502428Y-32221500D01*
X157500400Y-32204009D01*
X157499515Y-32196376D01*
X157499514Y-32196374D01*
X157499514Y-32196373D01*
X157454135Y-32093599D01*
X157374694Y-32014158D01*
X157374692Y-32014157D01*
X157271921Y-31968779D01*
X157246794Y-31965864D01*
X154157072Y-31965864D01*
X154157046Y-31965866D01*
X154131941Y-31968777D01*
X154131937Y-31968779D01*
X154029164Y-32014157D01*
X153949723Y-32093598D01*
X153904344Y-32196370D01*
X153904344Y-32196372D01*
X153901429Y-32221495D01*
X152462428Y-32221495D01*
X152462428Y-32221494D01*
X152459515Y-32196376D01*
X152459514Y-32196374D01*
X152459514Y-32196373D01*
X152414135Y-32093599D01*
X152334694Y-32014158D01*
X152334692Y-32014157D01*
X152231921Y-31968779D01*
X152206794Y-31965864D01*
X149117072Y-31965864D01*
X149117046Y-31965866D01*
X149091941Y-31968777D01*
X149091937Y-31968779D01*
X148989164Y-32014157D01*
X148909723Y-32093598D01*
X148864344Y-32196370D01*
X148864344Y-32196372D01*
X148861429Y-32221495D01*
X148861429Y-32291014D01*
X148841744Y-32358053D01*
X148788940Y-32403808D01*
X148737429Y-32415014D01*
X148635892Y-32415014D01*
X148543380Y-32415014D01*
X148454020Y-32438958D01*
X148454018Y-32438959D01*
X148454017Y-32438959D01*
X148373905Y-32485211D01*
X148373900Y-32485215D01*
X148054851Y-32804264D01*
X148054847Y-32804269D01*
X148008595Y-32884381D01*
X148008595Y-32884382D01*
X148008594Y-32884384D01*
X147984650Y-32973744D01*
X147984650Y-32973746D01*
X147984650Y-35109103D01*
X147964965Y-35176142D01*
X147948331Y-35196784D01*
X145935934Y-37209181D01*
X145874611Y-37242666D01*
X145848253Y-37245500D01*
X145716943Y-37245500D01*
X145564216Y-37286423D01*
X145564209Y-37286426D01*
X145427290Y-37365475D01*
X145427282Y-37365481D01*
X145315481Y-37477282D01*
X145315475Y-37477290D01*
X145236426Y-37614209D01*
X145236423Y-37614216D01*
X145195500Y-37766943D01*
X121863499Y-37766943D01*
X121863499Y-37309136D01*
X121863497Y-37309117D01*
X121860586Y-37284012D01*
X121860585Y-37284010D01*
X121860585Y-37284009D01*
X121815206Y-37181235D01*
X121735765Y-37101794D01*
X121706119Y-37088704D01*
X121632992Y-37056415D01*
X121607868Y-37053500D01*
X121607865Y-37053500D01*
X119810746Y-37053500D01*
X119743707Y-37033815D01*
X119723065Y-37017181D01*
X119032064Y-36326180D01*
X118998579Y-36264857D01*
X119003563Y-36195165D01*
X119045435Y-36139232D01*
X119110899Y-36114815D01*
X119119745Y-36114499D01*
X121607856Y-36114499D01*
X121607864Y-36114499D01*
X121607879Y-36114497D01*
X121607882Y-36114497D01*
X121632987Y-36111586D01*
X121632988Y-36111585D01*
X121632991Y-36111585D01*
X121735765Y-36066206D01*
X121815206Y-35986765D01*
X121860585Y-35883991D01*
X121863500Y-35858865D01*
X121863500Y-35789350D01*
X121883185Y-35722311D01*
X121935989Y-35676556D01*
X121987500Y-35665350D01*
X122647553Y-35665350D01*
X122647556Y-35665350D01*
X122736916Y-35641406D01*
X122817034Y-35595150D01*
X123988515Y-34423669D01*
X124049838Y-34390184D01*
X124076196Y-34387350D01*
X130006752Y-34387350D01*
X130073791Y-34407035D01*
X130094433Y-34423669D01*
X130187284Y-34516520D01*
X130187286Y-34516521D01*
X130187290Y-34516524D01*
X130313183Y-34589207D01*
X130324216Y-34595577D01*
X130476943Y-34636500D01*
X130476945Y-34636500D01*
X130635055Y-34636500D01*
X130635057Y-34636500D01*
X130787784Y-34595577D01*
X130924716Y-34516520D01*
X131036520Y-34404716D01*
X131115577Y-34267784D01*
X131156500Y-34115057D01*
X131156500Y-33956943D01*
X131115577Y-33804216D01*
X131110762Y-33795876D01*
X131036524Y-33667290D01*
X131036518Y-33667282D01*
X130924717Y-33555481D01*
X130924709Y-33555475D01*
X130787790Y-33476426D01*
X130787786Y-33476424D01*
X130787784Y-33476423D01*
X130635057Y-33435500D01*
X130476943Y-33435500D01*
X130324216Y-33476423D01*
X130324209Y-33476426D01*
X130187290Y-33555475D01*
X130187282Y-33555481D01*
X130094433Y-33648331D01*
X130033110Y-33681816D01*
X130006752Y-33684650D01*
X126916683Y-33684650D01*
X126849644Y-33664965D01*
X126803889Y-33612161D01*
X126793945Y-33543003D01*
X126822970Y-33479447D01*
X126829002Y-33472969D01*
X126832471Y-33469500D01*
X126855206Y-33446765D01*
X126900585Y-33343991D01*
X126903500Y-33318865D01*
X126903500Y-33249350D01*
X126923185Y-33182311D01*
X126975989Y-33136556D01*
X127027500Y-33125350D01*
X130086253Y-33125350D01*
X130086256Y-33125350D01*
X130175616Y-33101406D01*
X130255734Y-33055150D01*
X130416065Y-32894817D01*
X130477387Y-32861334D01*
X130503745Y-32858500D01*
X130635055Y-32858500D01*
X130635057Y-32858500D01*
X130787784Y-32817577D01*
X130924716Y-32738520D01*
X131036520Y-32626716D01*
X131115577Y-32489784D01*
X131156500Y-32337057D01*
X131156500Y-32178943D01*
X131115577Y-32026216D01*
X131113023Y-32021793D01*
X131036524Y-31889290D01*
X131036518Y-31889282D01*
X130924717Y-31777481D01*
X130924709Y-31777475D01*
X130787790Y-31698426D01*
X130787786Y-31698424D01*
X130787784Y-31698423D01*
X130635057Y-31657500D01*
X130476943Y-31657500D01*
X130324216Y-31698423D01*
X130324209Y-31698426D01*
X130187290Y-31777475D01*
X130187282Y-31777481D01*
X130075481Y-31889282D01*
X130075475Y-31889290D01*
X129996426Y-32026209D01*
X129996423Y-32026216D01*
X129955500Y-32178943D01*
X129955500Y-32298650D01*
X129935815Y-32365689D01*
X129883011Y-32411444D01*
X129831500Y-32422650D01*
X127027499Y-32422650D01*
X126960460Y-32402965D01*
X126914705Y-32350161D01*
X126903499Y-32298650D01*
X126903499Y-32229143D01*
X126903499Y-32229136D01*
X126903497Y-32229117D01*
X126900586Y-32204012D01*
X126900585Y-32204010D01*
X126900585Y-32204009D01*
X126855206Y-32101235D01*
X126775765Y-32021794D01*
X126758469Y-32014157D01*
X126672992Y-31976415D01*
X126647865Y-31973500D01*
X123558143Y-31973500D01*
X123558117Y-31973502D01*
X123533012Y-31976413D01*
X123533008Y-31976415D01*
X123430235Y-32021793D01*
X123350794Y-32101234D01*
X123305415Y-32204006D01*
X123305415Y-32204008D01*
X123302500Y-32229131D01*
X123302500Y-33318856D01*
X123302502Y-33318882D01*
X123305413Y-33343987D01*
X123305415Y-33343991D01*
X123350793Y-33446764D01*
X123350794Y-33446765D01*
X123430235Y-33526206D01*
X123533009Y-33571585D01*
X123558135Y-33574500D01*
X123558138Y-33574499D01*
X123559509Y-33574659D01*
X123623833Y-33601937D01*
X123663199Y-33659662D01*
X123665107Y-33729506D01*
X123632901Y-33785514D01*
X122492085Y-34926331D01*
X122430762Y-34959816D01*
X122404404Y-34962650D01*
X121987499Y-34962650D01*
X121920460Y-34942965D01*
X121874705Y-34890161D01*
X121863499Y-34838650D01*
X121863499Y-34769143D01*
X121863499Y-34769136D01*
X121863497Y-34769117D01*
X121860586Y-34744012D01*
X121860585Y-34744010D01*
X121860585Y-34744009D01*
X121815206Y-34641235D01*
X121735765Y-34561794D01*
X121718469Y-34554157D01*
X121632992Y-34516415D01*
X121607865Y-34513500D01*
X118518143Y-34513500D01*
X118518117Y-34513502D01*
X118493012Y-34516413D01*
X118493008Y-34516415D01*
X118390235Y-34561793D01*
X118310794Y-34641234D01*
X118265415Y-34744006D01*
X118265415Y-34744008D01*
X118262500Y-34769131D01*
X118262500Y-35257254D01*
X118242815Y-35324293D01*
X118190011Y-35370048D01*
X118120853Y-35379992D01*
X118057297Y-35350967D01*
X118050819Y-35344935D01*
X117862669Y-35156785D01*
X117829184Y-35095462D01*
X117826350Y-35069104D01*
X117826350Y-33950248D01*
X117846035Y-33883209D01*
X117862669Y-33862567D01*
X117874894Y-33850342D01*
X117955520Y-33769716D01*
X118034577Y-33632784D01*
X118075500Y-33480057D01*
X118075500Y-33321943D01*
X118034577Y-33169216D01*
X118032451Y-33165534D01*
X117955524Y-33032290D01*
X117955518Y-33032282D01*
X117843717Y-32920481D01*
X117843709Y-32920475D01*
X117706790Y-32841426D01*
X117706786Y-32841424D01*
X117706784Y-32841423D01*
X117554057Y-32800500D01*
X117395943Y-32800500D01*
X117243216Y-32841423D01*
X117243209Y-32841426D01*
X117106290Y-32920475D01*
X117106282Y-32920481D01*
X116994481Y-33032282D01*
X116994475Y-33032290D01*
X116915426Y-33169209D01*
X116915423Y-33169216D01*
X116874500Y-33321943D01*
X71617627Y-33321943D01*
X71077771Y-32782087D01*
X71074898Y-32779214D01*
X71050682Y-32751601D01*
X71040446Y-32744761D01*
X71031809Y-32736124D01*
X71031741Y-32736056D01*
X71031738Y-32736054D01*
X71013094Y-32725290D01*
X70996140Y-32712367D01*
X70995992Y-32712564D01*
X70989515Y-32707660D01*
X70962516Y-32692305D01*
X70954929Y-32687621D01*
X70929097Y-32670361D01*
X70927456Y-32669804D01*
X70927456Y-32669803D01*
X70916278Y-32666008D01*
X70904523Y-32659324D01*
X70870174Y-32650359D01*
X70865943Y-32648923D01*
X70865935Y-32648921D01*
X70828820Y-32636323D01*
X70828852Y-32636228D01*
X70822739Y-32634675D01*
X70808043Y-32632935D01*
X70791318Y-32629778D01*
X70777006Y-32626043D01*
X70777003Y-32626042D01*
X70777001Y-32626042D01*
X70776999Y-32626042D01*
X70776992Y-32626041D01*
X70758961Y-32626158D01*
X70743579Y-32625301D01*
X70264463Y-32568567D01*
X70200203Y-32541135D01*
X70160975Y-32483317D01*
X70159233Y-32413469D01*
X70195530Y-32353768D01*
X70210157Y-32342323D01*
X70219655Y-32335977D01*
X70365977Y-32189655D01*
X70480941Y-32017598D01*
X70560130Y-31826420D01*
X70600500Y-31623465D01*
X70600500Y-31416535D01*
X70575319Y-31289943D01*
X110954830Y-31289943D01*
X110954830Y-31448056D01*
X110995753Y-31600783D01*
X110995756Y-31600790D01*
X111074805Y-31737709D01*
X111074809Y-31737714D01*
X111074810Y-31737716D01*
X111186614Y-31849520D01*
X111186616Y-31849521D01*
X111186620Y-31849524D01*
X111255498Y-31889290D01*
X111323546Y-31928577D01*
X111476273Y-31969500D01*
X111476275Y-31969500D01*
X111634385Y-31969500D01*
X111634387Y-31969500D01*
X111787114Y-31928577D01*
X111924046Y-31849520D01*
X112035850Y-31737716D01*
X112114907Y-31600784D01*
X112114907Y-31600780D01*
X112118970Y-31593745D01*
X112119592Y-31594104D01*
X112141422Y-31561431D01*
X112882036Y-30820819D01*
X112943359Y-30787334D01*
X112969717Y-30784500D01*
X118176011Y-30784500D01*
X118243050Y-30804185D01*
X118288805Y-30856989D01*
X118289392Y-30858295D01*
X118310794Y-30906765D01*
X118390235Y-30986206D01*
X118493009Y-31031585D01*
X118518135Y-31034500D01*
X121607864Y-31034499D01*
X121607879Y-31034497D01*
X121607882Y-31034497D01*
X121632987Y-31031586D01*
X121632988Y-31031585D01*
X121632991Y-31031585D01*
X121735765Y-30986206D01*
X121815206Y-30906765D01*
X121860585Y-30803991D01*
X121863500Y-30778865D01*
X121863499Y-29958499D01*
X121883183Y-29891461D01*
X121935987Y-29845706D01*
X121987499Y-29834500D01*
X123178500Y-29834500D01*
X123245539Y-29854185D01*
X123291294Y-29906989D01*
X123302500Y-29958500D01*
X123302500Y-30778856D01*
X123302502Y-30778882D01*
X123305413Y-30803987D01*
X123305415Y-30803991D01*
X123350793Y-30906764D01*
X123350794Y-30906765D01*
X123430235Y-30986206D01*
X123533009Y-31031585D01*
X123558135Y-31034500D01*
X126647864Y-31034499D01*
X126647879Y-31034497D01*
X126647882Y-31034497D01*
X126672987Y-31031586D01*
X126672988Y-31031585D01*
X126672991Y-31031585D01*
X126775765Y-30986206D01*
X126855206Y-30906765D01*
X126900585Y-30803991D01*
X126903500Y-30778865D01*
X126903499Y-29958499D01*
X126923183Y-29891461D01*
X126975987Y-29845706D01*
X127027499Y-29834500D01*
X147876613Y-29834500D01*
X147943652Y-29854185D01*
X147964294Y-29870819D01*
X148760349Y-30666874D01*
X148760350Y-30666875D01*
X148760352Y-30666876D01*
X148801718Y-30690758D01*
X148849935Y-30741324D01*
X148862894Y-30783859D01*
X148864343Y-30796352D01*
X148864344Y-30796355D01*
X148909722Y-30899128D01*
X148909723Y-30899129D01*
X148989164Y-30978570D01*
X149091938Y-31023949D01*
X149117064Y-31026864D01*
X152206793Y-31026863D01*
X152206808Y-31026861D01*
X152206811Y-31026861D01*
X152231916Y-31023950D01*
X152231917Y-31023949D01*
X152231920Y-31023949D01*
X152334694Y-30978570D01*
X152414135Y-30899129D01*
X152459514Y-30796355D01*
X152462429Y-30771229D01*
X152462428Y-29681500D01*
X152460400Y-29664009D01*
X152459515Y-29656376D01*
X152459514Y-29656374D01*
X152459514Y-29656373D01*
X152414135Y-29553599D01*
X152334694Y-29474158D01*
X152231921Y-29428779D01*
X152206797Y-29425864D01*
X149127751Y-29425864D01*
X149060712Y-29406179D01*
X149040070Y-29389545D01*
X148494016Y-28843491D01*
X148494015Y-28843490D01*
X148368485Y-28771016D01*
X148368486Y-28771016D01*
X148333482Y-28761637D01*
X148228475Y-28733500D01*
X120940525Y-28733500D01*
X120835517Y-28761637D01*
X120800514Y-28771016D01*
X120674986Y-28843489D01*
X120674983Y-28843491D01*
X120121293Y-29397181D01*
X120059970Y-29430666D01*
X120033612Y-29433500D01*
X118518143Y-29433500D01*
X118518117Y-29433502D01*
X118493012Y-29436413D01*
X118493008Y-29436415D01*
X118390235Y-29481793D01*
X118310795Y-29561233D01*
X118310794Y-29561234D01*
X118310794Y-29561235D01*
X118289443Y-29609588D01*
X118244360Y-29662962D01*
X118177574Y-29683490D01*
X118176011Y-29683500D01*
X112617855Y-29683500D01*
X112512847Y-29711637D01*
X112477844Y-29721016D01*
X112352316Y-29793489D01*
X112352313Y-29793491D01*
X111362897Y-30782906D01*
X111330224Y-30804740D01*
X111330583Y-30805361D01*
X111323548Y-30809422D01*
X111323546Y-30809423D01*
X111241159Y-30856989D01*
X111186615Y-30888479D01*
X111186612Y-30888481D01*
X111074811Y-31000282D01*
X111074805Y-31000290D01*
X110995756Y-31137209D01*
X110995753Y-31137216D01*
X110954830Y-31289943D01*
X70575319Y-31289943D01*
X70560131Y-31213587D01*
X70560130Y-31213580D01*
X70480941Y-31022402D01*
X70365977Y-30850345D01*
X70365975Y-30850342D01*
X70219657Y-30704024D01*
X70133626Y-30646541D01*
X70047598Y-30589059D01*
X69856420Y-30509870D01*
X69856412Y-30509868D01*
X69653469Y-30469500D01*
X69653465Y-30469500D01*
X69446535Y-30469500D01*
X69446530Y-30469500D01*
X69243587Y-30509868D01*
X69243579Y-30509870D01*
X69052403Y-30589058D01*
X68880342Y-30704024D01*
X68734024Y-30850342D01*
X68619058Y-31022403D01*
X68539870Y-31213579D01*
X68539868Y-31213587D01*
X68499500Y-31416530D01*
X62933159Y-31416530D01*
X62793887Y-31358842D01*
X62572238Y-31299452D01*
X62534215Y-31294446D01*
X62344741Y-31269500D01*
X62344734Y-31269500D01*
X62115266Y-31269500D01*
X62115258Y-31269500D01*
X61898715Y-31298009D01*
X61887762Y-31299452D01*
X61794076Y-31324554D01*
X61666112Y-31358842D01*
X61454123Y-31446650D01*
X61454109Y-31446657D01*
X61255382Y-31561392D01*
X61073338Y-31701081D01*
X60911081Y-31863338D01*
X60771392Y-32045382D01*
X60656657Y-32244109D01*
X60656650Y-32244123D01*
X60568842Y-32456112D01*
X60564283Y-32473127D01*
X60512601Y-32666012D01*
X60509453Y-32677759D01*
X60509451Y-32677770D01*
X60479500Y-32905258D01*
X57777500Y-32905258D01*
X57777500Y-23696730D01*
X57797185Y-23629691D01*
X57849989Y-23583936D01*
X57919147Y-23573992D01*
X57982703Y-23603017D01*
X58020477Y-23661795D01*
X58024438Y-23680541D01*
X58033730Y-23751116D01*
X58070039Y-23886624D01*
X58101602Y-24004418D01*
X58101605Y-24004428D01*
X58201953Y-24246690D01*
X58201958Y-24246700D01*
X58333075Y-24473803D01*
X58492718Y-24681851D01*
X58492726Y-24681860D01*
X58678140Y-24867274D01*
X58678148Y-24867281D01*
X58886196Y-25026924D01*
X59113299Y-25158041D01*
X59113309Y-25158046D01*
X59355571Y-25258394D01*
X59355581Y-25258398D01*
X59608884Y-25326270D01*
X59868880Y-25360500D01*
X59868887Y-25360500D01*
X60131113Y-25360500D01*
X60131120Y-25360500D01*
X60391116Y-25326270D01*
X60644419Y-25258398D01*
X60886697Y-25158043D01*
X61113803Y-25026924D01*
X61321851Y-24867282D01*
X61321855Y-24867277D01*
X61321860Y-24867274D01*
X61507274Y-24681860D01*
X61507277Y-24681855D01*
X61507282Y-24681851D01*
X61666924Y-24473803D01*
X61798043Y-24246697D01*
X61898398Y-24004419D01*
X61966270Y-23751116D01*
X62000500Y-23491120D01*
X62000500Y-23228880D01*
X61966270Y-22968884D01*
X61898398Y-22715581D01*
X61868267Y-22642839D01*
X61798046Y-22473309D01*
X61798041Y-22473299D01*
X61666924Y-22246196D01*
X61507281Y-22038148D01*
X61507274Y-22038140D01*
X61321860Y-21852726D01*
X61321851Y-21852718D01*
X61113803Y-21693075D01*
X60883181Y-21559927D01*
X60884200Y-21558161D01*
X60838802Y-21516349D01*
X60821157Y-21448744D01*
X60842863Y-21382331D01*
X60897029Y-21338197D01*
X60945100Y-21328500D01*
X112388437Y-21328500D01*
X112455476Y-21348185D01*
G37*
%TD.AperFunction*%
%TD*%
M02*
