<svg viewBox="0 0 680 680" role="img" xmlns="http://www.w3.org/2000/svg">
  <title>IndustryGrow (mono-light)</title>
  <desc>Tree of life with mirrored root system. Crown nodes are sensors; root nodes are actuators; central glow is the gateway.</desc>
  <defs>
    <radialGradient id="bg" cx="50%" cy="50%" r="70%">
      <stop offset="0%" stop-color="#ffffff"/>
      <stop offset="55%" stop-color="#fafafa"/>
      <stop offset="100%" stop-color="#f0f0f0"/>
    </radialGradient>
    <radialGradient id="centerGlow" cx="50%" cy="50%" r="50%">
      <stop offset="0%" stop-color="#cccccc" stop-opacity="0.15"/>
      <stop offset="40%" stop-color="#cccccc" stop-opacity="0.10"/>
      <stop offset="100%" stop-color="#cccccc" stop-opacity="0"/>
    </radialGradient>
    <radialGradient id="gatewayGlow" cx="50%" cy="50%" r="50%">
      <stop offset="0%" stop-color="black" stop-opacity="1.0"/>
      <stop offset="30%" stop-color="#222222" stop-opacity="0.85"/>
      <stop offset="70%" stop-color="#666666" stop-opacity="0.3"/>
      <stop offset="100%" stop-color="#666666" stop-opacity="0.0"/>
    </radialGradient>
  </defs>
  <rect width="680" height="680" fill="url(#bg)"/>
  <circle cx="340.0" cy="340.0" r="280" fill="url(#centerGlow)"/>
  <g transform="translate(60,110)" stroke="#666666" stroke-width="1" fill="none" opacity="0.25">
    <path d="M -16 0 L -10 0 L -7 -5 L -3 5 L 1 -5 L 5 5 L 9 -5 L 12 0 L 16 0" stroke-linejoin="miter"/>
  </g>
  <g transform="translate(620,110)" stroke="#666666" stroke-width="1" fill="none" opacity="0.25">
    <line x1="-16" y1="0" x2="-3" y2="0"/>
    <line x1="-3" y1="-8" x2="-3" y2="8"/>
    <path d="M 3 -8 Q 8 0 3 8"/>
    <line x1="3" y1="0" x2="16" y2="0"/>
  </g>
  <text x="60" y="346" text-anchor="middle" fill="#666666" opacity="0.27" font-family="Georgia, serif" font-size="20" font-style="italic">Ω</text>
  <text x="620" y="346" text-anchor="middle" fill="#666666" opacity="0.27" font-family="Georgia, serif" font-size="20" font-style="italic">Ω</text>
  <g transform="translate(60,570)" stroke="#666666" stroke-width="1" fill="none" opacity="0.25">
    <line x1="-16" y1="0" x2="-6" y2="0"/>
    <path d="M -6 -7 L 6 0 L -6 7 Z" fill="#666666"/>
    <line x1="6" y1="-7" x2="6" y2="7"/>
    <line x1="6" y1="0" x2="16" y2="0"/>
  </g>
  <g transform="translate(620,570)" stroke="#666666" stroke-width="1" fill="none" opacity="0.25">
    <line x1="-16" y1="0" x2="-10" y2="0"/>
    <path d="M -10 0 Q -7 -8 -4 0 Q -1 -8 2 0 Q 5 -8 8 0 Q 11 -8 14 0"/>
    <line x1="14" y1="0" x2="16" y2="0"/>
  </g>
  <g transform="translate(340,60)" stroke="#666666" stroke-width="1" fill="none" opacity="0.25">
    <circle r="12"/>
    <circle r="3" fill="#666666"/>
    <line x1="-12" y1="0" x2="-3" y2="0"/>
    <line x1="3" y1="0" x2="12" y2="0"/>
    <line x1="0" y1="-12" x2="0" y2="-3"/>
    <line x1="0" y1="3" x2="0" y2="12"/>
  </g>
  <g transform="translate(340,620)" stroke="#666666" stroke-width="1" fill="none" opacity="0.25">
    <circle r="12"/>
    <circle r="3" fill="#666666"/>
    <line x1="-12" y1="0" x2="-3" y2="0"/>
    <line x1="3" y1="0" x2="12" y2="0"/>
    <line x1="0" y1="-12" x2="0" y2="-3"/>
    <line x1="0" y1="3" x2="0" y2="12"/>
  </g>
  <line x1="120" y1="340.0" x2="560" y2="340.0" stroke="#888888" stroke-width="0.4" opacity="0.35"/>
  <path d="M 335.0 368.0 Q 337.0 340.0, 335.0 312.0 L 345.0 312.0 Q 343.0 340.0, 345.0 368.0 Z" fill="#2a2a2a" opacity="0.9"/>
  <!-- Crown branches -->
  <path d="M 340.0 312.0 Q 338.0 285.0, 337.0 250.0" stroke="#3a3a3a" stroke-width="7" fill="none" stroke-linecap="round" opacity="0.85"/>
  <path d="M 340.0 312.0 Q 342.0 285.0, 343.0 250.0" stroke="#3a3a3a" stroke-width="7" fill="none" stroke-linecap="round" opacity="0.85"/>
  <path d="M 337.0 250.0 Q 315.0 230.0, 285.0 210.0" stroke="#3a3a3a" stroke-width="6" fill="none" stroke-linecap="round" opacity="0.85"/>
  <path d="M 285.0 210.0 Q 260.0 190.0, 230.0 175.0" stroke="#3a3a3a" stroke-width="5" fill="none" stroke-linecap="round" opacity="0.85"/>
  <path d="M 285.0 210.0 Q 275.0 180.0, 268.0 140.0" stroke="#3a3a3a" stroke-width="5" fill="none" stroke-linecap="round" opacity="0.85"/>
  <path d="M 230.0 175.0 Q 200.0 165.0, 165.0 160.0" stroke="#3a3a3a" stroke-width="4" fill="none" stroke-linecap="round" opacity="0.85"/>
  <path d="M 230.0 175.0 Q 210.0 150.0, 190.0 125.0" stroke="#3a3a3a" stroke-width="4" fill="none" stroke-linecap="round" opacity="0.85"/>
  <path d="M 268.0 140.0 Q 250.0 120.0, 235.0 95.0" stroke="#3a3a3a" stroke-width="4" fill="none" stroke-linecap="round" opacity="0.85"/>
  <path d="M 268.0 140.0 Q 285.0 115.0, 295.0 82.0" stroke="#3a3a3a" stroke-width="4" fill="none" stroke-linecap="round" opacity="0.85"/>
  <path d="M 165.0 160.0 Q 140.0 160.0, 115.0 165.0" stroke="#3a3a3a" stroke-width="2.5" fill="none" stroke-linecap="round" opacity="0.85"/>
  <path d="M 165.0 160.0 Q 145.0 140.0, 125.0 125.0" stroke="#3a3a3a" stroke-width="2.5" fill="none" stroke-linecap="round" opacity="0.85"/>
  <path d="M 190.0 125.0 Q 170.0 105.0, 155.0 82.0" stroke="#3a3a3a" stroke-width="2.5" fill="none" stroke-linecap="round" opacity="0.85"/>
  <path d="M 190.0 125.0 Q 200.0 100.0, 205.0 75.0" stroke="#3a3a3a" stroke-width="2.5" fill="none" stroke-linecap="round" opacity="0.85"/>
  <path d="M 235.0 95.0 Q 220.0 75.0, 212.0 55.0" stroke="#3a3a3a" stroke-width="2.5" fill="none" stroke-linecap="round" opacity="0.85"/>
  <path d="M 235.0 95.0 Q 250.0 70.0, 258.0 50.0" stroke="#3a3a3a" stroke-width="2.5" fill="none" stroke-linecap="round" opacity="0.85"/>
  <path d="M 295.0 82.0 Q 285.0 60.0, 282.0 40.0" stroke="#3a3a3a" stroke-width="2.5" fill="none" stroke-linecap="round" opacity="0.85"/>
  <path d="M 295.0 82.0 Q 310.0 58.0, 318.0 38.0" stroke="#3a3a3a" stroke-width="2.5" fill="none" stroke-linecap="round" opacity="0.85"/>
  <path d="M 343.0 250.0 Q 365.0 230.0, 395.0 210.0" stroke="#3a3a3a" stroke-width="6" fill="none" stroke-linecap="round" opacity="0.85"/>
  <path d="M 395.0 210.0 Q 420.0 190.0, 450.0 175.0" stroke="#3a3a3a" stroke-width="5" fill="none" stroke-linecap="round" opacity="0.85"/>
  <path d="M 395.0 210.0 Q 405.0 180.0, 412.0 140.0" stroke="#3a3a3a" stroke-width="5" fill="none" stroke-linecap="round" opacity="0.85"/>
  <path d="M 450.0 175.0 Q 480.0 165.0, 515.0 160.0" stroke="#3a3a3a" stroke-width="4" fill="none" stroke-linecap="round" opacity="0.85"/>
  <path d="M 450.0 175.0 Q 470.0 150.0, 490.0 125.0" stroke="#3a3a3a" stroke-width="4" fill="none" stroke-linecap="round" opacity="0.85"/>
  <path d="M 412.0 140.0 Q 430.0 120.0, 445.0 95.0" stroke="#3a3a3a" stroke-width="4" fill="none" stroke-linecap="round" opacity="0.85"/>
  <path d="M 412.0 140.0 Q 395.0 115.0, 385.0 82.0" stroke="#3a3a3a" stroke-width="4" fill="none" stroke-linecap="round" opacity="0.85"/>
  <path d="M 515.0 160.0 Q 540.0 160.0, 565.0 165.0" stroke="#3a3a3a" stroke-width="2.5" fill="none" stroke-linecap="round" opacity="0.85"/>
  <path d="M 515.0 160.0 Q 535.0 140.0, 555.0 125.0" stroke="#3a3a3a" stroke-width="2.5" fill="none" stroke-linecap="round" opacity="0.85"/>
  <path d="M 490.0 125.0 Q 510.0 105.0, 525.0 82.0" stroke="#3a3a3a" stroke-width="2.5" fill="none" stroke-linecap="round" opacity="0.85"/>
  <path d="M 490.0 125.0 Q 480.0 100.0, 475.0 75.0" stroke="#3a3a3a" stroke-width="2.5" fill="none" stroke-linecap="round" opacity="0.85"/>
  <path d="M 445.0 95.0 Q 460.0 75.0, 468.0 55.0" stroke="#3a3a3a" stroke-width="2.5" fill="none" stroke-linecap="round" opacity="0.85"/>
  <path d="M 445.0 95.0 Q 430.0 70.0, 422.0 50.0" stroke="#3a3a3a" stroke-width="2.5" fill="none" stroke-linecap="round" opacity="0.85"/>
  <path d="M 385.0 82.0 Q 395.0 60.0, 398.0 40.0" stroke="#3a3a3a" stroke-width="2.5" fill="none" stroke-linecap="round" opacity="0.85"/>
  <path d="M 385.0 82.0 Q 370.0 58.0, 362.0 38.0" stroke="#3a3a3a" stroke-width="2.5" fill="none" stroke-linecap="round" opacity="0.85"/>
  <!-- Root branches -->
  <path d="M 340.0 368.0 Q 338.0 395.0, 337.0 430.0" stroke="#5a5a5a" stroke-width="4.8999999999999995" fill="none" stroke-linecap="round" opacity="0.75"/>
  <path d="M 340.0 368.0 Q 342.0 395.0, 343.0 430.0" stroke="#5a5a5a" stroke-width="4.8999999999999995" fill="none" stroke-linecap="round" opacity="0.75"/>
  <path d="M 337.0 430.0 Q 315.0 450.0, 285.0 470.0" stroke="#5a5a5a" stroke-width="4.199999999999999" fill="none" stroke-linecap="round" opacity="0.75"/>
  <path d="M 285.0 470.0 Q 260.0 490.0, 230.0 505.0" stroke="#5a5a5a" stroke-width="3.5" fill="none" stroke-linecap="round" opacity="0.75"/>
  <path d="M 285.0 470.0 Q 275.0 500.0, 268.0 540.0" stroke="#5a5a5a" stroke-width="3.5" fill="none" stroke-linecap="round" opacity="0.75"/>
  <path d="M 230.0 505.0 Q 200.0 515.0, 165.0 520.0" stroke="#5a5a5a" stroke-width="2.8" fill="none" stroke-linecap="round" opacity="0.75"/>
  <path d="M 230.0 505.0 Q 210.0 530.0, 190.0 555.0" stroke="#5a5a5a" stroke-width="2.8" fill="none" stroke-linecap="round" opacity="0.75"/>
  <path d="M 268.0 540.0 Q 250.0 560.0, 235.0 585.0" stroke="#5a5a5a" stroke-width="2.8" fill="none" stroke-linecap="round" opacity="0.75"/>
  <path d="M 268.0 540.0 Q 285.0 565.0, 295.0 598.0" stroke="#5a5a5a" stroke-width="2.8" fill="none" stroke-linecap="round" opacity="0.75"/>
  <path d="M 165.0 520.0 Q 140.0 520.0, 115.0 515.0" stroke="#5a5a5a" stroke-width="1.75" fill="none" stroke-linecap="round" opacity="0.75"/>
  <path d="M 165.0 520.0 Q 145.0 540.0, 125.0 555.0" stroke="#5a5a5a" stroke-width="1.75" fill="none" stroke-linecap="round" opacity="0.75"/>
  <path d="M 190.0 555.0 Q 170.0 575.0, 155.0 598.0" stroke="#5a5a5a" stroke-width="1.75" fill="none" stroke-linecap="round" opacity="0.75"/>
  <path d="M 190.0 555.0 Q 200.0 580.0, 205.0 605.0" stroke="#5a5a5a" stroke-width="1.75" fill="none" stroke-linecap="round" opacity="0.75"/>
  <path d="M 235.0 585.0 Q 220.0 605.0, 212.0 625.0" stroke="#5a5a5a" stroke-width="1.75" fill="none" stroke-linecap="round" opacity="0.75"/>
  <path d="M 235.0 585.0 Q 250.0 610.0, 258.0 630.0" stroke="#5a5a5a" stroke-width="1.75" fill="none" stroke-linecap="round" opacity="0.75"/>
  <path d="M 295.0 598.0 Q 285.0 620.0, 282.0 640.0" stroke="#5a5a5a" stroke-width="1.75" fill="none" stroke-linecap="round" opacity="0.75"/>
  <path d="M 295.0 598.0 Q 310.0 622.0, 318.0 642.0" stroke="#5a5a5a" stroke-width="1.75" fill="none" stroke-linecap="round" opacity="0.75"/>
  <path d="M 343.0 430.0 Q 365.0 450.0, 395.0 470.0" stroke="#5a5a5a" stroke-width="4.199999999999999" fill="none" stroke-linecap="round" opacity="0.75"/>
  <path d="M 395.0 470.0 Q 420.0 490.0, 450.0 505.0" stroke="#5a5a5a" stroke-width="3.5" fill="none" stroke-linecap="round" opacity="0.75"/>
  <path d="M 395.0 470.0 Q 405.0 500.0, 412.0 540.0" stroke="#5a5a5a" stroke-width="3.5" fill="none" stroke-linecap="round" opacity="0.75"/>
  <path d="M 450.0 505.0 Q 480.0 515.0, 515.0 520.0" stroke="#5a5a5a" stroke-width="2.8" fill="none" stroke-linecap="round" opacity="0.75"/>
  <path d="M 450.0 505.0 Q 470.0 530.0, 490.0 555.0" stroke="#5a5a5a" stroke-width="2.8" fill="none" stroke-linecap="round" opacity="0.75"/>
  <path d="M 412.0 540.0 Q 430.0 560.0, 445.0 585.0" stroke="#5a5a5a" stroke-width="2.8" fill="none" stroke-linecap="round" opacity="0.75"/>
  <path d="M 412.0 540.0 Q 395.0 565.0, 385.0 598.0" stroke="#5a5a5a" stroke-width="2.8" fill="none" stroke-linecap="round" opacity="0.75"/>
  <path d="M 515.0 520.0 Q 540.0 520.0, 565.0 515.0" stroke="#5a5a5a" stroke-width="1.75" fill="none" stroke-linecap="round" opacity="0.75"/>
  <path d="M 515.0 520.0 Q 535.0 540.0, 555.0 555.0" stroke="#5a5a5a" stroke-width="1.75" fill="none" stroke-linecap="round" opacity="0.75"/>
  <path d="M 490.0 555.0 Q 510.0 575.0, 525.0 598.0" stroke="#5a5a5a" stroke-width="1.75" fill="none" stroke-linecap="round" opacity="0.75"/>
  <path d="M 490.0 555.0 Q 480.0 580.0, 475.0 605.0" stroke="#5a5a5a" stroke-width="1.75" fill="none" stroke-linecap="round" opacity="0.75"/>
  <path d="M 445.0 585.0 Q 460.0 605.0, 468.0 625.0" stroke="#5a5a5a" stroke-width="1.75" fill="none" stroke-linecap="round" opacity="0.75"/>
  <path d="M 445.0 585.0 Q 430.0 610.0, 422.0 630.0" stroke="#5a5a5a" stroke-width="1.75" fill="none" stroke-linecap="round" opacity="0.75"/>
  <path d="M 385.0 598.0 Q 395.0 620.0, 398.0 640.0" stroke="#5a5a5a" stroke-width="1.75" fill="none" stroke-linecap="round" opacity="0.75"/>
  <path d="M 385.0 598.0 Q 370.0 622.0, 362.0 642.0" stroke="#5a5a5a" stroke-width="1.75" fill="none" stroke-linecap="round" opacity="0.75"/>
  <!-- Junction vias -->
  <circle cx="337.0" cy="250.0" r="2.2" fill="#ffffff" stroke="#222222" stroke-width="0.6" opacity="0.7"/>
  <circle cx="343.0" cy="250.0" r="2.2" fill="#ffffff" stroke="#222222" stroke-width="0.6" opacity="0.7"/>
  <circle cx="285.0" cy="210.0" r="2.2" fill="#ffffff" stroke="#222222" stroke-width="0.6" opacity="0.7"/>
  <circle cx="395.0" cy="210.0" r="2.2" fill="#ffffff" stroke="#222222" stroke-width="0.6" opacity="0.7"/>
  <circle cx="230.0" cy="175.0" r="2.2" fill="#ffffff" stroke="#222222" stroke-width="0.6" opacity="0.7"/>
  <circle cx="450.0" cy="175.0" r="2.2" fill="#ffffff" stroke="#222222" stroke-width="0.6" opacity="0.7"/>
  <circle cx="268.0" cy="140.0" r="2.2" fill="#ffffff" stroke="#222222" stroke-width="0.6" opacity="0.7"/>
  <circle cx="412.0" cy="140.0" r="2.2" fill="#ffffff" stroke="#222222" stroke-width="0.6" opacity="0.7"/>
  <circle cx="190.0" cy="125.0" r="2.2" fill="#ffffff" stroke="#222222" stroke-width="0.6" opacity="0.7"/>
  <circle cx="490.0" cy="125.0" r="2.2" fill="#ffffff" stroke="#222222" stroke-width="0.6" opacity="0.7"/>
  <circle cx="235.0" cy="95.0" r="2.2" fill="#ffffff" stroke="#222222" stroke-width="0.6" opacity="0.7"/>
  <circle cx="445.0" cy="95.0" r="2.2" fill="#ffffff" stroke="#222222" stroke-width="0.6" opacity="0.7"/>
  <circle cx="295.0" cy="82.0" r="2.2" fill="#ffffff" stroke="#222222" stroke-width="0.6" opacity="0.7"/>
  <circle cx="385.0" cy="82.0" r="2.2" fill="#ffffff" stroke="#222222" stroke-width="0.6" opacity="0.7"/>
  <circle cx="337.0" cy="430.0" r="1.8" fill="#ffffff" stroke="#222222" stroke-width="0.6" opacity="0.7"/>
  <circle cx="343.0" cy="430.0" r="1.8" fill="#ffffff" stroke="#222222" stroke-width="0.6" opacity="0.7"/>
  <circle cx="285.0" cy="470.0" r="1.8" fill="#ffffff" stroke="#222222" stroke-width="0.6" opacity="0.7"/>
  <circle cx="395.0" cy="470.0" r="1.8" fill="#ffffff" stroke="#222222" stroke-width="0.6" opacity="0.7"/>
  <circle cx="230.0" cy="505.0" r="1.8" fill="#ffffff" stroke="#222222" stroke-width="0.6" opacity="0.7"/>
  <circle cx="450.0" cy="505.0" r="1.8" fill="#ffffff" stroke="#222222" stroke-width="0.6" opacity="0.7"/>
  <circle cx="268.0" cy="540.0" r="1.8" fill="#ffffff" stroke="#222222" stroke-width="0.6" opacity="0.7"/>
  <circle cx="412.0" cy="540.0" r="1.8" fill="#ffffff" stroke="#222222" stroke-width="0.6" opacity="0.7"/>
  <circle cx="190.0" cy="555.0" r="1.8" fill="#ffffff" stroke="#222222" stroke-width="0.6" opacity="0.7"/>
  <circle cx="490.0" cy="555.0" r="1.8" fill="#ffffff" stroke="#222222" stroke-width="0.6" opacity="0.7"/>
  <circle cx="235.0" cy="585.0" r="1.8" fill="#ffffff" stroke="#222222" stroke-width="0.6" opacity="0.7"/>
  <circle cx="445.0" cy="585.0" r="1.8" fill="#ffffff" stroke="#222222" stroke-width="0.6" opacity="0.7"/>
  <circle cx="295.0" cy="598.0" r="1.8" fill="#ffffff" stroke="#222222" stroke-width="0.6" opacity="0.7"/>
  <circle cx="385.0" cy="598.0" r="1.8" fill="#ffffff" stroke="#222222" stroke-width="0.6" opacity="0.7"/>
  <!-- Crown leaves (sensors) -->
  <circle cx="115.0" cy="165.0" r="24.5" fill="#222222" opacity="0.12"/>
  <circle cx="115.0" cy="165.0" r="14.0" fill="#222222" opacity="0.30"/>
  <circle cx="115.0" cy="165.0" r="7.0" fill="#000000" opacity="0.95"/>
  <circle cx="115.0" cy="165.0" r="2.8" fill="white" opacity="0.85"/>
  <circle cx="340.0" cy="30.0" r="28.0" fill="#222222" opacity="0.12"/>
  <circle cx="340.0" cy="30.0" r="16.0" fill="#222222" opacity="0.30"/>
  <circle cx="340.0" cy="30.0" r="8.0" fill="#000000" opacity="0.95"/>
  <circle cx="340.0" cy="30.0" r="3.2" fill="white" opacity="0.85"/>
  <circle cx="565.0" cy="165.0" r="24.5" fill="#222222" opacity="0.12"/>
  <circle cx="565.0" cy="165.0" r="14.0" fill="#222222" opacity="0.30"/>
  <circle cx="565.0" cy="165.0" r="7.0" fill="#000000" opacity="0.95"/>
  <circle cx="565.0" cy="165.0" r="2.8" fill="white" opacity="0.85"/>
  <circle cx="155.0" cy="82.0" r="24.5" fill="#222222" opacity="0.12"/>
  <circle cx="155.0" cy="82.0" r="14.0" fill="#222222" opacity="0.30"/>
  <circle cx="155.0" cy="82.0" r="7.0" fill="#000000" opacity="0.95"/>
  <circle cx="155.0" cy="82.0" r="2.8" fill="white" opacity="0.85"/>
  <circle cx="525.0" cy="82.0" r="24.5" fill="#222222" opacity="0.12"/>
  <circle cx="525.0" cy="82.0" r="14.0" fill="#222222" opacity="0.30"/>
  <circle cx="525.0" cy="82.0" r="7.0" fill="#000000" opacity="0.95"/>
  <circle cx="525.0" cy="82.0" r="2.8" fill="white" opacity="0.85"/>
  <circle cx="125.0" cy="125.0" r="14.0" fill="#444444" opacity="0.12"/>
  <circle cx="125.0" cy="125.0" r="8.0" fill="#444444" opacity="0.30"/>
  <circle cx="125.0" cy="125.0" r="4.0" fill="#222222" opacity="0.95"/>
  <circle cx="125.0" cy="125.0" r="1.6" fill="white" opacity="0.85"/>
  <circle cx="205.0" cy="75.0" r="14.0" fill="#444444" opacity="0.12"/>
  <circle cx="205.0" cy="75.0" r="8.0" fill="#444444" opacity="0.30"/>
  <circle cx="205.0" cy="75.0" r="4.0" fill="#222222" opacity="0.95"/>
  <circle cx="205.0" cy="75.0" r="1.6" fill="white" opacity="0.85"/>
  <circle cx="212.0" cy="55.0" r="14.0" fill="#444444" opacity="0.12"/>
  <circle cx="212.0" cy="55.0" r="8.0" fill="#444444" opacity="0.30"/>
  <circle cx="212.0" cy="55.0" r="4.0" fill="#222222" opacity="0.95"/>
  <circle cx="212.0" cy="55.0" r="1.6" fill="white" opacity="0.85"/>
  <circle cx="258.0" cy="50.0" r="14.0" fill="#444444" opacity="0.12"/>
  <circle cx="258.0" cy="50.0" r="8.0" fill="#444444" opacity="0.30"/>
  <circle cx="258.0" cy="50.0" r="4.0" fill="#222222" opacity="0.95"/>
  <circle cx="258.0" cy="50.0" r="1.6" fill="white" opacity="0.85"/>
  <circle cx="282.0" cy="40.0" r="14.0" fill="#444444" opacity="0.12"/>
  <circle cx="282.0" cy="40.0" r="8.0" fill="#444444" opacity="0.30"/>
  <circle cx="282.0" cy="40.0" r="4.0" fill="#222222" opacity="0.95"/>
  <circle cx="282.0" cy="40.0" r="1.6" fill="white" opacity="0.85"/>
  <circle cx="318.0" cy="38.0" r="14.0" fill="#444444" opacity="0.12"/>
  <circle cx="318.0" cy="38.0" r="8.0" fill="#444444" opacity="0.30"/>
  <circle cx="318.0" cy="38.0" r="4.0" fill="#222222" opacity="0.95"/>
  <circle cx="318.0" cy="38.0" r="1.6" fill="white" opacity="0.85"/>
  <circle cx="362.0" cy="38.0" r="14.0" fill="#444444" opacity="0.12"/>
  <circle cx="362.0" cy="38.0" r="8.0" fill="#444444" opacity="0.30"/>
  <circle cx="362.0" cy="38.0" r="4.0" fill="#222222" opacity="0.95"/>
  <circle cx="362.0" cy="38.0" r="1.6" fill="white" opacity="0.85"/>
  <circle cx="398.0" cy="40.0" r="14.0" fill="#444444" opacity="0.12"/>
  <circle cx="398.0" cy="40.0" r="8.0" fill="#444444" opacity="0.30"/>
  <circle cx="398.0" cy="40.0" r="4.0" fill="#222222" opacity="0.95"/>
  <circle cx="398.0" cy="40.0" r="1.6" fill="white" opacity="0.85"/>
  <circle cx="422.0" cy="50.0" r="14.0" fill="#444444" opacity="0.12"/>
  <circle cx="422.0" cy="50.0" r="8.0" fill="#444444" opacity="0.30"/>
  <circle cx="422.0" cy="50.0" r="4.0" fill="#222222" opacity="0.95"/>
  <circle cx="422.0" cy="50.0" r="1.6" fill="white" opacity="0.85"/>
  <circle cx="468.0" cy="55.0" r="14.0" fill="#444444" opacity="0.12"/>
  <circle cx="468.0" cy="55.0" r="8.0" fill="#444444" opacity="0.30"/>
  <circle cx="468.0" cy="55.0" r="4.0" fill="#222222" opacity="0.95"/>
  <circle cx="468.0" cy="55.0" r="1.6" fill="white" opacity="0.85"/>
  <circle cx="475.0" cy="75.0" r="14.0" fill="#444444" opacity="0.12"/>
  <circle cx="475.0" cy="75.0" r="8.0" fill="#444444" opacity="0.30"/>
  <circle cx="475.0" cy="75.0" r="4.0" fill="#222222" opacity="0.95"/>
  <circle cx="475.0" cy="75.0" r="1.6" fill="white" opacity="0.85"/>
  <circle cx="555.0" cy="125.0" r="14.0" fill="#444444" opacity="0.12"/>
  <circle cx="555.0" cy="125.0" r="8.0" fill="#444444" opacity="0.30"/>
  <circle cx="555.0" cy="125.0" r="4.0" fill="#222222" opacity="0.95"/>
  <circle cx="555.0" cy="125.0" r="1.6" fill="white" opacity="0.85"/>
  <circle cx="180.0" cy="120.0" r="10.5" fill="#444444" opacity="0.12"/>
  <circle cx="180.0" cy="120.0" r="6.0" fill="#444444" opacity="0.30"/>
  <circle cx="180.0" cy="120.0" r="3.0" fill="#222222" opacity="0.95"/>
  <circle cx="180.0" cy="120.0" r="1.2" fill="white" opacity="0.85"/>
  <circle cx="250.0" cy="80.0" r="10.5" fill="#444444" opacity="0.12"/>
  <circle cx="250.0" cy="80.0" r="6.0" fill="#444444" opacity="0.30"/>
  <circle cx="250.0" cy="80.0" r="3.0" fill="#222222" opacity="0.95"/>
  <circle cx="250.0" cy="80.0" r="1.2" fill="white" opacity="0.85"/>
  <circle cx="300.0" cy="65.0" r="10.5" fill="#444444" opacity="0.12"/>
  <circle cx="300.0" cy="65.0" r="6.0" fill="#444444" opacity="0.30"/>
  <circle cx="300.0" cy="65.0" r="3.0" fill="#222222" opacity="0.95"/>
  <circle cx="300.0" cy="65.0" r="1.2" fill="white" opacity="0.85"/>
  <circle cx="380.0" cy="65.0" r="10.5" fill="#444444" opacity="0.12"/>
  <circle cx="380.0" cy="65.0" r="6.0" fill="#444444" opacity="0.30"/>
  <circle cx="380.0" cy="65.0" r="3.0" fill="#222222" opacity="0.95"/>
  <circle cx="380.0" cy="65.0" r="1.2" fill="white" opacity="0.85"/>
  <circle cx="430.0" cy="80.0" r="10.5" fill="#444444" opacity="0.12"/>
  <circle cx="430.0" cy="80.0" r="6.0" fill="#444444" opacity="0.30"/>
  <circle cx="430.0" cy="80.0" r="3.0" fill="#222222" opacity="0.95"/>
  <circle cx="430.0" cy="80.0" r="1.2" fill="white" opacity="0.85"/>
  <circle cx="500.0" cy="120.0" r="10.5" fill="#444444" opacity="0.12"/>
  <circle cx="500.0" cy="120.0" r="6.0" fill="#444444" opacity="0.30"/>
  <circle cx="500.0" cy="120.0" r="3.0" fill="#222222" opacity="0.95"/>
  <circle cx="500.0" cy="120.0" r="1.2" fill="white" opacity="0.85"/>
  <circle cx="140.0" cy="180.0" r="10.5" fill="#444444" opacity="0.12"/>
  <circle cx="140.0" cy="180.0" r="6.0" fill="#444444" opacity="0.30"/>
  <circle cx="140.0" cy="180.0" r="3.0" fill="#222222" opacity="0.95"/>
  <circle cx="140.0" cy="180.0" r="1.2" fill="white" opacity="0.85"/>
  <circle cx="540.0" cy="180.0" r="10.5" fill="#444444" opacity="0.12"/>
  <circle cx="540.0" cy="180.0" r="6.0" fill="#444444" opacity="0.30"/>
  <circle cx="540.0" cy="180.0" r="3.0" fill="#222222" opacity="0.95"/>
  <circle cx="540.0" cy="180.0" r="1.2" fill="white" opacity="0.85"/>
  <!-- Root leaves (actuators) -->
  <circle cx="115.0" cy="515.0" r="20.8" fill="#888888" opacity="0.12"/>
  <circle cx="115.0" cy="515.0" r="11.9" fill="#888888" opacity="0.30"/>
  <circle cx="115.0" cy="515.0" r="6.0" fill="#555555" opacity="0.95"/>
  <circle cx="115.0" cy="515.0" r="2.4" fill="white" opacity="0.85"/>
  <circle cx="340.0" cy="650.0" r="23.8" fill="#888888" opacity="0.12"/>
  <circle cx="340.0" cy="650.0" r="13.6" fill="#888888" opacity="0.30"/>
  <circle cx="340.0" cy="650.0" r="6.8" fill="#555555" opacity="0.95"/>
  <circle cx="340.0" cy="650.0" r="2.7" fill="white" opacity="0.85"/>
  <circle cx="565.0" cy="515.0" r="20.8" fill="#888888" opacity="0.12"/>
  <circle cx="565.0" cy="515.0" r="11.9" fill="#888888" opacity="0.30"/>
  <circle cx="565.0" cy="515.0" r="6.0" fill="#555555" opacity="0.95"/>
  <circle cx="565.0" cy="515.0" r="2.4" fill="white" opacity="0.85"/>
  <circle cx="155.0" cy="598.0" r="20.8" fill="#888888" opacity="0.12"/>
  <circle cx="155.0" cy="598.0" r="11.9" fill="#888888" opacity="0.30"/>
  <circle cx="155.0" cy="598.0" r="6.0" fill="#555555" opacity="0.95"/>
  <circle cx="155.0" cy="598.0" r="2.4" fill="white" opacity="0.85"/>
  <circle cx="525.0" cy="598.0" r="20.8" fill="#888888" opacity="0.12"/>
  <circle cx="525.0" cy="598.0" r="11.9" fill="#888888" opacity="0.30"/>
  <circle cx="525.0" cy="598.0" r="6.0" fill="#555555" opacity="0.95"/>
  <circle cx="525.0" cy="598.0" r="2.4" fill="white" opacity="0.85"/>
  <circle cx="125.0" cy="555.0" r="11.9" fill="#888888" opacity="0.12"/>
  <circle cx="125.0" cy="555.0" r="6.8" fill="#888888" opacity="0.30"/>
  <circle cx="125.0" cy="555.0" r="3.4" fill="#555555" opacity="0.95"/>
  <circle cx="125.0" cy="555.0" r="1.4" fill="white" opacity="0.85"/>
  <circle cx="205.0" cy="605.0" r="11.9" fill="#888888" opacity="0.12"/>
  <circle cx="205.0" cy="605.0" r="6.8" fill="#888888" opacity="0.30"/>
  <circle cx="205.0" cy="605.0" r="3.4" fill="#555555" opacity="0.95"/>
  <circle cx="205.0" cy="605.0" r="1.4" fill="white" opacity="0.85"/>
  <circle cx="212.0" cy="625.0" r="11.9" fill="#888888" opacity="0.12"/>
  <circle cx="212.0" cy="625.0" r="6.8" fill="#888888" opacity="0.30"/>
  <circle cx="212.0" cy="625.0" r="3.4" fill="#555555" opacity="0.95"/>
  <circle cx="212.0" cy="625.0" r="1.4" fill="white" opacity="0.85"/>
  <circle cx="258.0" cy="630.0" r="11.9" fill="#888888" opacity="0.12"/>
  <circle cx="258.0" cy="630.0" r="6.8" fill="#888888" opacity="0.30"/>
  <circle cx="258.0" cy="630.0" r="3.4" fill="#555555" opacity="0.95"/>
  <circle cx="258.0" cy="630.0" r="1.4" fill="white" opacity="0.85"/>
  <circle cx="282.0" cy="640.0" r="11.9" fill="#888888" opacity="0.12"/>
  <circle cx="282.0" cy="640.0" r="6.8" fill="#888888" opacity="0.30"/>
  <circle cx="282.0" cy="640.0" r="3.4" fill="#555555" opacity="0.95"/>
  <circle cx="282.0" cy="640.0" r="1.4" fill="white" opacity="0.85"/>
  <circle cx="318.0" cy="642.0" r="11.9" fill="#888888" opacity="0.12"/>
  <circle cx="318.0" cy="642.0" r="6.8" fill="#888888" opacity="0.30"/>
  <circle cx="318.0" cy="642.0" r="3.4" fill="#555555" opacity="0.95"/>
  <circle cx="318.0" cy="642.0" r="1.4" fill="white" opacity="0.85"/>
  <circle cx="362.0" cy="642.0" r="11.9" fill="#888888" opacity="0.12"/>
  <circle cx="362.0" cy="642.0" r="6.8" fill="#888888" opacity="0.30"/>
  <circle cx="362.0" cy="642.0" r="3.4" fill="#555555" opacity="0.95"/>
  <circle cx="362.0" cy="642.0" r="1.4" fill="white" opacity="0.85"/>
  <circle cx="398.0" cy="640.0" r="11.9" fill="#888888" opacity="0.12"/>
  <circle cx="398.0" cy="640.0" r="6.8" fill="#888888" opacity="0.30"/>
  <circle cx="398.0" cy="640.0" r="3.4" fill="#555555" opacity="0.95"/>
  <circle cx="398.0" cy="640.0" r="1.4" fill="white" opacity="0.85"/>
  <circle cx="422.0" cy="630.0" r="11.9" fill="#888888" opacity="0.12"/>
  <circle cx="422.0" cy="630.0" r="6.8" fill="#888888" opacity="0.30"/>
  <circle cx="422.0" cy="630.0" r="3.4" fill="#555555" opacity="0.95"/>
  <circle cx="422.0" cy="630.0" r="1.4" fill="white" opacity="0.85"/>
  <circle cx="468.0" cy="625.0" r="11.9" fill="#888888" opacity="0.12"/>
  <circle cx="468.0" cy="625.0" r="6.8" fill="#888888" opacity="0.30"/>
  <circle cx="468.0" cy="625.0" r="3.4" fill="#555555" opacity="0.95"/>
  <circle cx="468.0" cy="625.0" r="1.4" fill="white" opacity="0.85"/>
  <circle cx="475.0" cy="605.0" r="11.9" fill="#888888" opacity="0.12"/>
  <circle cx="475.0" cy="605.0" r="6.8" fill="#888888" opacity="0.30"/>
  <circle cx="475.0" cy="605.0" r="3.4" fill="#555555" opacity="0.95"/>
  <circle cx="475.0" cy="605.0" r="1.4" fill="white" opacity="0.85"/>
  <circle cx="555.0" cy="555.0" r="11.9" fill="#888888" opacity="0.12"/>
  <circle cx="555.0" cy="555.0" r="6.8" fill="#888888" opacity="0.30"/>
  <circle cx="555.0" cy="555.0" r="3.4" fill="#555555" opacity="0.95"/>
  <circle cx="555.0" cy="555.0" r="1.4" fill="white" opacity="0.85"/>
  <circle cx="180.0" cy="560.0" r="8.9" fill="#888888" opacity="0.12"/>
  <circle cx="180.0" cy="560.0" r="5.1" fill="#888888" opacity="0.30"/>
  <circle cx="180.0" cy="560.0" r="2.5" fill="#555555" opacity="0.95"/>
  <circle cx="180.0" cy="560.0" r="1.0" fill="white" opacity="0.85"/>
  <circle cx="250.0" cy="600.0" r="8.9" fill="#888888" opacity="0.12"/>
  <circle cx="250.0" cy="600.0" r="5.1" fill="#888888" opacity="0.30"/>
  <circle cx="250.0" cy="600.0" r="2.5" fill="#555555" opacity="0.95"/>
  <circle cx="250.0" cy="600.0" r="1.0" fill="white" opacity="0.85"/>
  <circle cx="300.0" cy="615.0" r="8.9" fill="#888888" opacity="0.12"/>
  <circle cx="300.0" cy="615.0" r="5.1" fill="#888888" opacity="0.30"/>
  <circle cx="300.0" cy="615.0" r="2.5" fill="#555555" opacity="0.95"/>
  <circle cx="300.0" cy="615.0" r="1.0" fill="white" opacity="0.85"/>
  <circle cx="380.0" cy="615.0" r="8.9" fill="#888888" opacity="0.12"/>
  <circle cx="380.0" cy="615.0" r="5.1" fill="#888888" opacity="0.30"/>
  <circle cx="380.0" cy="615.0" r="2.5" fill="#555555" opacity="0.95"/>
  <circle cx="380.0" cy="615.0" r="1.0" fill="white" opacity="0.85"/>
  <circle cx="430.0" cy="600.0" r="8.9" fill="#888888" opacity="0.12"/>
  <circle cx="430.0" cy="600.0" r="5.1" fill="#888888" opacity="0.30"/>
  <circle cx="430.0" cy="600.0" r="2.5" fill="#555555" opacity="0.95"/>
  <circle cx="430.0" cy="600.0" r="1.0" fill="white" opacity="0.85"/>
  <circle cx="500.0" cy="560.0" r="8.9" fill="#888888" opacity="0.12"/>
  <circle cx="500.0" cy="560.0" r="5.1" fill="#888888" opacity="0.30"/>
  <circle cx="500.0" cy="560.0" r="2.5" fill="#555555" opacity="0.95"/>
  <circle cx="500.0" cy="560.0" r="1.0" fill="white" opacity="0.85"/>
  <circle cx="140.0" cy="500.0" r="8.9" fill="#888888" opacity="0.12"/>
  <circle cx="140.0" cy="500.0" r="5.1" fill="#888888" opacity="0.30"/>
  <circle cx="140.0" cy="500.0" r="2.5" fill="#555555" opacity="0.95"/>
  <circle cx="140.0" cy="500.0" r="1.0" fill="white" opacity="0.85"/>
  <circle cx="540.0" cy="500.0" r="8.9" fill="#888888" opacity="0.12"/>
  <circle cx="540.0" cy="500.0" r="5.1" fill="#888888" opacity="0.30"/>
  <circle cx="540.0" cy="500.0" r="2.5" fill="#555555" opacity="0.95"/>
  <circle cx="540.0" cy="500.0" r="1.0" fill="white" opacity="0.85"/>
  <!-- Gateway central node -->
  <circle cx="340.0" cy="340.0" r="45" fill="url(#gatewayGlow)"/>
  <circle cx="340.0" cy="340.0" r="18" fill="#222222" opacity="0.4"/>
  <circle cx="340.0" cy="340.0" r="9" fill="black" opacity="0.95"/>
</svg>
